G04 #@! TF.GenerationSoftware,KiCad,Pcbnew,(5.1.0-10-g6006703)*
G04 #@! TF.CreationDate,2019-05-20T20:44:00+08:00*
G04 #@! TF.ProjectId,cicada-4g,63696361-6461-42d3-9467-2e6b69636164,0.1*
G04 #@! TF.SameCoordinates,PX7cee6c0PY3dfd240*
G04 #@! TF.FileFunction,Legend,Bot*
G04 #@! TF.FilePolarity,Positive*
%FSLAX46Y46*%
G04 Gerber Fmt 4.6, Leading zero omitted, Abs format (unit mm)*
G04 Created by KiCad (PCBNEW (5.1.0-10-g6006703)) date 2019-05-20 20:44:00*
%MOMM*%
%LPD*%
G04 APERTURE LIST*
%ADD10C,0.200000*%
%ADD11C,0.300000*%
%ADD12C,0.150000*%
%ADD13C,0.120000*%
G04 APERTURE END LIST*
D10*
X10400000Y-36150000D02*
X10600000Y-35550000D01*
X10800000Y-36150000D02*
X10400000Y-36150000D01*
X10600000Y-35550000D02*
X10800000Y-36150000D01*
X10600000Y-38000000D02*
X10600000Y-35550000D01*
X13050000Y-48100000D02*
X13050000Y-38000000D01*
X7350000Y-48100000D02*
X13050000Y-48100000D01*
X7350000Y-38000000D02*
X7350000Y-48100000D01*
X13050000Y-38000000D02*
X7350000Y-38000000D01*
X11327142Y-40153571D02*
X12184285Y-40153571D01*
X11755714Y-40153571D02*
X11755714Y-38653571D01*
X11898571Y-38867857D01*
X12041428Y-39010714D01*
X12184285Y-39082142D01*
X10684285Y-40010714D02*
X10612857Y-40082142D01*
X10684285Y-40153571D01*
X10755714Y-40082142D01*
X10684285Y-40010714D01*
X10684285Y-40153571D01*
X9755714Y-39296428D02*
X9898571Y-39225000D01*
X9970000Y-39153571D01*
X10041428Y-39010714D01*
X10041428Y-38939285D01*
X9970000Y-38796428D01*
X9898571Y-38725000D01*
X9755714Y-38653571D01*
X9470000Y-38653571D01*
X9327142Y-38725000D01*
X9255714Y-38796428D01*
X9184285Y-38939285D01*
X9184285Y-39010714D01*
X9255714Y-39153571D01*
X9327142Y-39225000D01*
X9470000Y-39296428D01*
X9755714Y-39296428D01*
X9898571Y-39367857D01*
X9970000Y-39439285D01*
X10041428Y-39582142D01*
X10041428Y-39867857D01*
X9970000Y-40010714D01*
X9898571Y-40082142D01*
X9755714Y-40153571D01*
X9470000Y-40153571D01*
X9327142Y-40082142D01*
X9255714Y-40010714D01*
X9184285Y-39867857D01*
X9184285Y-39582142D01*
X9255714Y-39439285D01*
X9327142Y-39367857D01*
X9470000Y-39296428D01*
X8684285Y-39153571D02*
X8327142Y-40153571D01*
X7970000Y-39153571D01*
X12184285Y-42532142D02*
X11970000Y-42603571D01*
X11612857Y-42603571D01*
X11470000Y-42532142D01*
X11398571Y-42460714D01*
X11327142Y-42317857D01*
X11327142Y-42175000D01*
X11398571Y-42032142D01*
X11470000Y-41960714D01*
X11612857Y-41889285D01*
X11898571Y-41817857D01*
X12041428Y-41746428D01*
X12112857Y-41675000D01*
X12184285Y-41532142D01*
X12184285Y-41389285D01*
X12112857Y-41246428D01*
X12041428Y-41175000D01*
X11898571Y-41103571D01*
X11541428Y-41103571D01*
X11327142Y-41175000D01*
X9827142Y-42460714D02*
X9898571Y-42532142D01*
X10112857Y-42603571D01*
X10255714Y-42603571D01*
X10470000Y-42532142D01*
X10612857Y-42389285D01*
X10684285Y-42246428D01*
X10755714Y-41960714D01*
X10755714Y-41746428D01*
X10684285Y-41460714D01*
X10612857Y-41317857D01*
X10470000Y-41175000D01*
X10255714Y-41103571D01*
X10112857Y-41103571D01*
X9898571Y-41175000D01*
X9827142Y-41246428D01*
X8470000Y-42603571D02*
X9184285Y-42603571D01*
X9184285Y-41103571D01*
X12184285Y-44982142D02*
X11970000Y-45053571D01*
X11612857Y-45053571D01*
X11470000Y-44982142D01*
X11398571Y-44910714D01*
X11327142Y-44767857D01*
X11327142Y-44625000D01*
X11398571Y-44482142D01*
X11470000Y-44410714D01*
X11612857Y-44339285D01*
X11898571Y-44267857D01*
X12041428Y-44196428D01*
X12112857Y-44125000D01*
X12184285Y-43982142D01*
X12184285Y-43839285D01*
X12112857Y-43696428D01*
X12041428Y-43625000D01*
X11898571Y-43553571D01*
X11541428Y-43553571D01*
X11327142Y-43625000D01*
X10684285Y-45053571D02*
X10684285Y-43553571D01*
X10327142Y-43553571D01*
X10112857Y-43625000D01*
X9970000Y-43767857D01*
X9898571Y-43910714D01*
X9827142Y-44196428D01*
X9827142Y-44410714D01*
X9898571Y-44696428D01*
X9970000Y-44839285D01*
X10112857Y-44982142D01*
X10327142Y-45053571D01*
X10684285Y-45053571D01*
X9255714Y-44625000D02*
X8541428Y-44625000D01*
X9398571Y-45053571D02*
X8898571Y-43553571D01*
X8398571Y-45053571D01*
X11327142Y-46075000D02*
X11470000Y-46003571D01*
X11684285Y-46003571D01*
X11898571Y-46075000D01*
X12041428Y-46217857D01*
X12112857Y-46360714D01*
X12184285Y-46646428D01*
X12184285Y-46860714D01*
X12112857Y-47146428D01*
X12041428Y-47289285D01*
X11898571Y-47432142D01*
X11684285Y-47503571D01*
X11541428Y-47503571D01*
X11327142Y-47432142D01*
X11255714Y-47360714D01*
X11255714Y-46860714D01*
X11541428Y-46860714D01*
X10612857Y-47503571D02*
X10612857Y-46003571D01*
X9755714Y-47503571D01*
X9755714Y-46003571D01*
X9041428Y-47503571D02*
X9041428Y-46003571D01*
X8684285Y-46003571D01*
X8470000Y-46075000D01*
X8327142Y-46217857D01*
X8255714Y-46360714D01*
X8184285Y-46646428D01*
X8184285Y-46860714D01*
X8255714Y-47146428D01*
X8327142Y-47289285D01*
X8470000Y-47432142D01*
X8684285Y-47503571D01*
X9041428Y-47503571D01*
D11*
X17304761Y-10292857D02*
X15304761Y-10292857D01*
X15495238Y-11150000D02*
X15400000Y-11245238D01*
X15304761Y-11435714D01*
X15304761Y-11911904D01*
X15400000Y-12102380D01*
X15495238Y-12197619D01*
X15685714Y-12292857D01*
X15876190Y-12292857D01*
X16161904Y-12197619D01*
X17304761Y-11054761D01*
X17304761Y-12292857D01*
X17114285Y-14292857D02*
X17209523Y-14197619D01*
X17304761Y-13911904D01*
X17304761Y-13721428D01*
X17209523Y-13435714D01*
X17019047Y-13245238D01*
X16828571Y-13150000D01*
X16447619Y-13054761D01*
X16161904Y-13054761D01*
X15780952Y-13150000D01*
X15590476Y-13245238D01*
X15400000Y-13435714D01*
X15304761Y-13721428D01*
X15304761Y-13911904D01*
X15400000Y-14197619D01*
X15495238Y-14292857D01*
X17304761Y-17721428D02*
X17304761Y-16578571D01*
X17304761Y-17150000D02*
X15304761Y-17150000D01*
X15590476Y-16959523D01*
X15780952Y-16769047D01*
X15876190Y-16578571D01*
X17114285Y-18578571D02*
X17209523Y-18673809D01*
X17304761Y-18578571D01*
X17209523Y-18483333D01*
X17114285Y-18578571D01*
X17304761Y-18578571D01*
X16161904Y-19816666D02*
X16066666Y-19626190D01*
X15971428Y-19530952D01*
X15780952Y-19435714D01*
X15685714Y-19435714D01*
X15495238Y-19530952D01*
X15400000Y-19626190D01*
X15304761Y-19816666D01*
X15304761Y-20197619D01*
X15400000Y-20388095D01*
X15495238Y-20483333D01*
X15685714Y-20578571D01*
X15780952Y-20578571D01*
X15971428Y-20483333D01*
X16066666Y-20388095D01*
X16161904Y-20197619D01*
X16161904Y-19816666D01*
X16257142Y-19626190D01*
X16352380Y-19530952D01*
X16542857Y-19435714D01*
X16923809Y-19435714D01*
X17114285Y-19530952D01*
X17209523Y-19626190D01*
X17304761Y-19816666D01*
X17304761Y-20197619D01*
X17209523Y-20388095D01*
X17114285Y-20483333D01*
X16923809Y-20578571D01*
X16542857Y-20578571D01*
X16352380Y-20483333D01*
X16257142Y-20388095D01*
X16161904Y-20197619D01*
X15971428Y-21245238D02*
X17304761Y-21721428D01*
X15971428Y-22197619D01*
D12*
X500000Y-60000000D02*
X17000000Y-60000000D01*
X500000Y-58300000D02*
X500000Y-60000000D01*
X-9000000Y-58300000D02*
X500000Y-58300000D01*
X-9000000Y-60000000D02*
X-9000000Y-58300000D01*
X-17000000Y-60000000D02*
G75*
G02X-20000000Y-57000000I0J3000000D01*
G01*
X20000000Y-57000000D02*
G75*
G02X17000000Y-60000000I-3000000J0D01*
G01*
X17000000Y5000000D02*
G75*
G02X20000000Y2000000I0J-3000000D01*
G01*
X-20000000Y2000000D02*
G75*
G02X-17000000Y5000000I3000000J0D01*
G01*
X-20000000Y-57000000D02*
X-20000000Y2000000D01*
X-9000000Y-60000000D02*
X-17000000Y-60000000D01*
X20000000Y2000000D02*
X20000000Y-57000000D01*
X-17000000Y5000000D02*
X17000000Y5000000D01*
D13*
X-7500000Y-39100000D02*
X-7500000Y-38300000D01*
X-7700000Y-39100000D02*
X-7500000Y-39100000D01*
X-7500000Y-36100000D02*
X-7700000Y-36100000D01*
X-7500000Y-36900000D02*
X-7500000Y-36100000D01*
X-10500000Y-36100000D02*
X-10500000Y-36900000D01*
X-10300000Y-36100000D02*
X-10500000Y-36100000D01*
X-10500000Y-38900000D02*
X-10300000Y-39100000D01*
X-10500000Y-38300000D02*
X-10500000Y-38900000D01*
X-10500000Y-38300000D02*
X-11000000Y-38300000D01*
X-10500000Y-36900000D02*
X-11000000Y-36900000D01*
X-5650000Y-30700000D02*
X-11050000Y-30700000D01*
X-5650000Y-34000000D02*
X-11050000Y-34000000D01*
X-5650000Y-30700000D02*
X-5650000Y-34000000D01*
X17910000Y-24660000D02*
X17910000Y-33340000D01*
X11690000Y-34040000D02*
X11690000Y-32760000D01*
X10090000Y-34040000D02*
X11690000Y-34040000D01*
X10090000Y-35060000D02*
X10090000Y-34040000D01*
X14340000Y-35060000D02*
X10090000Y-35060000D01*
X11690000Y-25240000D02*
X8800000Y-25240000D01*
X11690000Y-23960000D02*
X11690000Y-25240000D01*
X10090000Y-23960000D02*
X11690000Y-23960000D01*
X10090000Y-22940000D02*
X10090000Y-23960000D01*
X14340000Y-22940000D02*
X10090000Y-22940000D01*
X-10220000Y-1270000D02*
X-10220000Y-2600000D01*
X-10220000Y-2600000D02*
X-8890000Y-2600000D01*
X-10220000Y0D02*
X-7620000Y0D01*
X-7620000Y0D02*
X-7620000Y-2600000D01*
X-7620000Y-2600000D02*
X10220000Y-2600000D01*
X10220000Y2600000D02*
X10220000Y-2600000D01*
X-10220000Y2600000D02*
X10220000Y2600000D01*
X-10220000Y2600000D02*
X-10220000Y0D01*
X-6210000Y-50500000D02*
X-6210000Y-48050000D01*
X-2990000Y-48700000D02*
X-2990000Y-50500000D01*
X-550000Y-33300000D02*
G75*
G03X-550000Y-33300000I-950000J0D01*
G01*
X2540660Y-11454974D02*
X2540660Y-9994974D01*
X-619340Y-11454974D02*
X-619340Y-9294974D01*
X-619340Y-11454974D02*
X310660Y-11454974D01*
X2540660Y-11454974D02*
X1610660Y-11454974D01*
X10580000Y-11460000D02*
X10580000Y-10000000D01*
X7420000Y-11460000D02*
X7420000Y-9300000D01*
X7420000Y-11460000D02*
X8350000Y-11460000D01*
X10580000Y-11460000D02*
X9650000Y-11460000D01*
X4780000Y-14860000D02*
X4780000Y-13400000D01*
X1620000Y-14860000D02*
X1620000Y-12700000D01*
X1620000Y-14860000D02*
X2550000Y-14860000D01*
X4780000Y-14860000D02*
X3850000Y-14860000D01*
X7030000Y-11460000D02*
X7030000Y-10000000D01*
X3870000Y-11460000D02*
X3870000Y-9300000D01*
X3870000Y-11460000D02*
X4800000Y-11460000D01*
X7030000Y-11460000D02*
X6100000Y-11460000D01*
X9940000Y-22180000D02*
X11400000Y-22180000D01*
X9940000Y-19020000D02*
X12100000Y-19020000D01*
X9940000Y-19020000D02*
X9940000Y-19950000D01*
X9940000Y-22180000D02*
X9940000Y-21250000D01*
X7148579Y-5980000D02*
X7148579Y-4520000D01*
X3988579Y-5980000D02*
X3988579Y-3820000D01*
X3988579Y-5980000D02*
X4918579Y-5980000D01*
X7148579Y-5980000D02*
X6218579Y-5980000D01*
X9940000Y-18580000D02*
X11400000Y-18580000D01*
X9940000Y-15420000D02*
X12100000Y-15420000D01*
X9940000Y-15420000D02*
X9940000Y-16350000D01*
X9940000Y-18580000D02*
X9940000Y-17650000D01*
X-2034874Y-31502183D02*
X-574874Y-31502183D01*
X-2034874Y-28342183D02*
X125126Y-28342183D01*
X-2034874Y-28342183D02*
X-2034874Y-29272183D01*
X-2034874Y-31502183D02*
X-2034874Y-30572183D01*
D12*
X-4100000Y-14850000D02*
X-4100000Y-25350000D01*
X-2600000Y-14850000D02*
X-4100000Y-14850000D01*
X-2600000Y-10600000D02*
X-2600000Y-14850000D01*
X-19850000Y-10600000D02*
X-2600000Y-10600000D01*
X-19850000Y-25350000D02*
X-19850000Y-10600000D01*
X-4100000Y-25350000D02*
X-19850000Y-25350000D01*
D13*
X6200000Y-28650000D02*
X8050000Y-28650000D01*
X6200000Y-27450000D02*
X8050000Y-27450000D01*
X8050000Y-27450000D02*
X8050000Y-28650000D01*
X6200000Y-30650000D02*
X8050000Y-30650000D01*
X6200000Y-29450000D02*
X8050000Y-29450000D01*
X8050000Y-29450000D02*
X8050000Y-30650000D01*
X3658579Y-5900000D02*
X3658579Y-4050000D01*
X2458579Y-5900000D02*
X2458579Y-4050000D01*
X2458579Y-4050000D02*
X3658579Y-4050000D01*
X300000Y-20000000D02*
X2150000Y-20000000D01*
X300000Y-18800000D02*
X2150000Y-18800000D01*
X2150000Y-18800000D02*
X2150000Y-20000000D01*
X300000Y-23700000D02*
X2150000Y-23700000D01*
X300000Y-22500000D02*
X2150000Y-22500000D01*
X2150000Y-22500000D02*
X2150000Y-23700000D01*
X1400000Y-26200000D02*
X3250000Y-26200000D01*
X1400000Y-25000000D02*
X3250000Y-25000000D01*
X3250000Y-25000000D02*
X3250000Y-26200000D01*
X-790000Y-23537221D02*
X-790000Y-23862779D01*
X-1810000Y-23537221D02*
X-1810000Y-23862779D01*
D12*
X-13047620Y-37266666D02*
X-12333334Y-37266666D01*
X-12190477Y-37219047D01*
X-12095239Y-37123809D01*
X-12047620Y-36980952D01*
X-12047620Y-36885714D01*
X-13047620Y-38219047D02*
X-13047620Y-37742857D01*
X-12571429Y-37695238D01*
X-12619048Y-37742857D01*
X-12666667Y-37838095D01*
X-12666667Y-38076190D01*
X-12619048Y-38171428D01*
X-12571429Y-38219047D01*
X-12476191Y-38266666D01*
X-12238096Y-38266666D01*
X-12142858Y-38219047D01*
X-12095239Y-38171428D01*
X-12047620Y-38076190D01*
X-12047620Y-37838095D01*
X-12095239Y-37742857D01*
X-12142858Y-37695238D01*
X-7835715Y-30302380D02*
X-7835715Y-29302380D01*
X-8073810Y-29302380D01*
X-8216667Y-29350000D01*
X-8311905Y-29445238D01*
X-8359524Y-29540476D01*
X-8407143Y-29730952D01*
X-8407143Y-29873809D01*
X-8359524Y-30064285D01*
X-8311905Y-30159523D01*
X-8216667Y-30254761D01*
X-8073810Y-30302380D01*
X-7835715Y-30302380D01*
X-9359524Y-30302380D02*
X-8788096Y-30302380D01*
X-9073810Y-30302380D02*
X-9073810Y-29302380D01*
X-8978572Y-29445238D01*
X-8883334Y-29540476D01*
X-8788096Y-29588095D01*
X-9978572Y-29302380D02*
X-10073810Y-29302380D01*
X-10169048Y-29350000D01*
X-10216667Y-29397619D01*
X-10264286Y-29492857D01*
X-10311905Y-29683333D01*
X-10311905Y-29921428D01*
X-10264286Y-30111904D01*
X-10216667Y-30207142D01*
X-10169048Y-30254761D01*
X-10073810Y-30302380D01*
X-9978572Y-30302380D01*
X-9883334Y-30254761D01*
X-9835715Y-30207142D01*
X-9788096Y-30111904D01*
X-9740477Y-29921428D01*
X-9740477Y-29683333D01*
X-9788096Y-29492857D01*
X-9835715Y-29397619D01*
X-9883334Y-29350000D01*
X-9978572Y-29302380D01*
D13*
X14066666Y-35416666D02*
X14066666Y-35916666D01*
X14104761Y-36016666D01*
X14180952Y-36083333D01*
X14295238Y-36116666D01*
X14371428Y-36116666D01*
X13761904Y-35416666D02*
X13228571Y-35416666D01*
X13571428Y-36116666D01*
X914285Y-14216666D02*
X1180952Y-13883333D01*
X1371428Y-14216666D02*
X1371428Y-13516666D01*
X1066666Y-13516666D01*
X990476Y-13550000D01*
X952380Y-13583333D01*
X914285Y-13650000D01*
X914285Y-13750000D01*
X952380Y-13816666D01*
X990476Y-13850000D01*
X1066666Y-13883333D01*
X1371428Y-13883333D01*
X609523Y-13583333D02*
X571428Y-13550000D01*
X495238Y-13516666D01*
X304761Y-13516666D01*
X228571Y-13550000D01*
X190476Y-13583333D01*
X152380Y-13650000D01*
X152380Y-13716666D01*
X190476Y-13816666D01*
X647619Y-14216666D01*
X152380Y-14216666D01*
X-114286Y-13516666D02*
X-647620Y-13516666D01*
X-304762Y-14216666D01*
X-585715Y-8916666D02*
X-319048Y-8583333D01*
X-128572Y-8916666D02*
X-128572Y-8216666D01*
X-433334Y-8216666D01*
X-509524Y-8250000D01*
X-547620Y-8283333D01*
X-585715Y-8350000D01*
X-585715Y-8450000D01*
X-547620Y-8516666D01*
X-509524Y-8550000D01*
X-433334Y-8583333D01*
X-128572Y-8583333D01*
X-890477Y-8283333D02*
X-928572Y-8250000D01*
X-1004762Y-8216666D01*
X-1195239Y-8216666D01*
X-1271429Y-8250000D01*
X-1309524Y-8283333D01*
X-1347620Y-8350000D01*
X-1347620Y-8416666D01*
X-1309524Y-8516666D01*
X-852381Y-8916666D01*
X-1347620Y-8916666D01*
X-2033334Y-8216666D02*
X-1880953Y-8216666D01*
X-1804762Y-8250000D01*
X-1766667Y-8283333D01*
X-1690477Y-8383333D01*
X-1652381Y-8516666D01*
X-1652381Y-8783333D01*
X-1690477Y-8850000D01*
X-1728572Y-8883333D01*
X-1804762Y-8916666D01*
X-1957143Y-8916666D01*
X-2033334Y-8883333D01*
X-2071429Y-8850000D01*
X-2109524Y-8783333D01*
X-2109524Y-8616666D01*
X-2071429Y-8550000D01*
X-2033334Y-8516666D01*
X-1957143Y-8483333D01*
X-1804762Y-8483333D01*
X-1728572Y-8516666D01*
X-1690477Y-8550000D01*
X-1652381Y-8616666D01*
X9014285Y-14386666D02*
X9280952Y-14053333D01*
X9471428Y-14386666D02*
X9471428Y-13686666D01*
X9166666Y-13686666D01*
X9090476Y-13720000D01*
X9052380Y-13753333D01*
X9014285Y-13820000D01*
X9014285Y-13920000D01*
X9052380Y-13986666D01*
X9090476Y-14020000D01*
X9166666Y-14053333D01*
X9471428Y-14053333D01*
X8709523Y-13753333D02*
X8671428Y-13720000D01*
X8595238Y-13686666D01*
X8404761Y-13686666D01*
X8328571Y-13720000D01*
X8290476Y-13753333D01*
X8252380Y-13820000D01*
X8252380Y-13886666D01*
X8290476Y-13986666D01*
X8747619Y-14386666D01*
X8252380Y-14386666D01*
X7528571Y-13686666D02*
X7909523Y-13686666D01*
X7947619Y-14020000D01*
X7909523Y-13986666D01*
X7833333Y-13953333D01*
X7642857Y-13953333D01*
X7566666Y-13986666D01*
X7528571Y-14020000D01*
X7490476Y-14086666D01*
X7490476Y-14253333D01*
X7528571Y-14320000D01*
X7566666Y-14353333D01*
X7642857Y-14386666D01*
X7833333Y-14386666D01*
X7909523Y-14353333D01*
X7947619Y-14320000D01*
X9414285Y-7916666D02*
X9680952Y-7583333D01*
X9871428Y-7916666D02*
X9871428Y-7216666D01*
X9566666Y-7216666D01*
X9490476Y-7250000D01*
X9452380Y-7283333D01*
X9414285Y-7350000D01*
X9414285Y-7450000D01*
X9452380Y-7516666D01*
X9490476Y-7550000D01*
X9566666Y-7583333D01*
X9871428Y-7583333D01*
X9109523Y-7283333D02*
X9071428Y-7250000D01*
X8995238Y-7216666D01*
X8804761Y-7216666D01*
X8728571Y-7250000D01*
X8690476Y-7283333D01*
X8652380Y-7350000D01*
X8652380Y-7416666D01*
X8690476Y-7516666D01*
X9147619Y-7916666D01*
X8652380Y-7916666D01*
X7966666Y-7450000D02*
X7966666Y-7916666D01*
X8157142Y-7183333D02*
X8347619Y-7683333D01*
X7852380Y-7683333D01*
X4714285Y-17616666D02*
X4980952Y-17283333D01*
X5171428Y-17616666D02*
X5171428Y-16916666D01*
X4866666Y-16916666D01*
X4790476Y-16950000D01*
X4752380Y-16983333D01*
X4714285Y-17050000D01*
X4714285Y-17150000D01*
X4752380Y-17216666D01*
X4790476Y-17250000D01*
X4866666Y-17283333D01*
X5171428Y-17283333D01*
X4409523Y-16983333D02*
X4371428Y-16950000D01*
X4295238Y-16916666D01*
X4104761Y-16916666D01*
X4028571Y-16950000D01*
X3990476Y-16983333D01*
X3952380Y-17050000D01*
X3952380Y-17116666D01*
X3990476Y-17216666D01*
X4447619Y-17616666D01*
X3952380Y-17616666D01*
X3190476Y-17616666D02*
X3647619Y-17616666D01*
X3419047Y-17616666D02*
X3419047Y-16916666D01*
X3495238Y-17016666D01*
X3571428Y-17083333D01*
X3647619Y-17116666D01*
X3516666Y-8135714D02*
X3183333Y-7869047D01*
X3516666Y-7678571D02*
X2816666Y-7678571D01*
X2816666Y-7983333D01*
X2850000Y-8059523D01*
X2883333Y-8097619D01*
X2950000Y-8135714D01*
X3050000Y-8135714D01*
X3116666Y-8097619D01*
X3150000Y-8059523D01*
X3183333Y-7983333D01*
X3183333Y-7678571D01*
X2883333Y-8440476D02*
X2850000Y-8478571D01*
X2816666Y-8554761D01*
X2816666Y-8745238D01*
X2850000Y-8821428D01*
X2883333Y-8859523D01*
X2950000Y-8897619D01*
X3016666Y-8897619D01*
X3116666Y-8859523D01*
X3516666Y-8402380D01*
X3516666Y-8897619D01*
X2816666Y-9392857D02*
X2816666Y-9469047D01*
X2850000Y-9545238D01*
X2883333Y-9583333D01*
X2950000Y-9621428D01*
X3083333Y-9659523D01*
X3250000Y-9659523D01*
X3383333Y-9621428D01*
X3450000Y-9583333D01*
X3483333Y-9545238D01*
X3516666Y-9469047D01*
X3516666Y-9392857D01*
X3483333Y-9316666D01*
X3450000Y-9278571D01*
X3383333Y-9240476D01*
X3250000Y-9202380D01*
X3083333Y-9202380D01*
X2950000Y-9240476D01*
X2883333Y-9278571D01*
X2850000Y-9316666D01*
X2816666Y-9392857D01*
X6316666Y-14885714D02*
X5983333Y-14619047D01*
X6316666Y-14428571D02*
X5616666Y-14428571D01*
X5616666Y-14733333D01*
X5650000Y-14809523D01*
X5683333Y-14847619D01*
X5750000Y-14885714D01*
X5850000Y-14885714D01*
X5916666Y-14847619D01*
X5950000Y-14809523D01*
X5983333Y-14733333D01*
X5983333Y-14428571D01*
X6316666Y-15647619D02*
X6316666Y-15190476D01*
X6316666Y-15419047D02*
X5616666Y-15419047D01*
X5716666Y-15342857D01*
X5783333Y-15266666D01*
X5816666Y-15190476D01*
X5916666Y-16104761D02*
X5883333Y-16028571D01*
X5850000Y-15990476D01*
X5783333Y-15952380D01*
X5750000Y-15952380D01*
X5683333Y-15990476D01*
X5650000Y-16028571D01*
X5616666Y-16104761D01*
X5616666Y-16257142D01*
X5650000Y-16333333D01*
X5683333Y-16371428D01*
X5750000Y-16409523D01*
X5783333Y-16409523D01*
X5850000Y-16371428D01*
X5883333Y-16333333D01*
X5916666Y-16257142D01*
X5916666Y-16104761D01*
X5950000Y-16028571D01*
X5983333Y-15990476D01*
X6050000Y-15952380D01*
X6183333Y-15952380D01*
X6250000Y-15990476D01*
X6283333Y-16028571D01*
X6316666Y-16104761D01*
X6316666Y-16257142D01*
X6283333Y-16333333D01*
X6250000Y-16371428D01*
X6183333Y-16409523D01*
X6050000Y-16409523D01*
X5983333Y-16371428D01*
X5950000Y-16333333D01*
X5916666Y-16257142D01*
X5814285Y-7816666D02*
X6080952Y-7483333D01*
X6271428Y-7816666D02*
X6271428Y-7116666D01*
X5966666Y-7116666D01*
X5890476Y-7150000D01*
X5852380Y-7183333D01*
X5814285Y-7250000D01*
X5814285Y-7350000D01*
X5852380Y-7416666D01*
X5890476Y-7450000D01*
X5966666Y-7483333D01*
X6271428Y-7483333D01*
X5052380Y-7816666D02*
X5509523Y-7816666D01*
X5280952Y-7816666D02*
X5280952Y-7116666D01*
X5357142Y-7216666D01*
X5433333Y-7283333D01*
X5509523Y-7316666D01*
X4785714Y-7116666D02*
X4252380Y-7116666D01*
X4595238Y-7816666D01*
X1275245Y-31327136D02*
X941912Y-31060469D01*
X1275245Y-30869993D02*
X575245Y-30869993D01*
X575245Y-31174755D01*
X608579Y-31250945D01*
X641912Y-31289041D01*
X708579Y-31327136D01*
X808579Y-31327136D01*
X875245Y-31289041D01*
X908579Y-31250945D01*
X941912Y-31174755D01*
X941912Y-30869993D01*
X1275245Y-32089041D02*
X1275245Y-31631898D01*
X1275245Y-31860469D02*
X575245Y-31860469D01*
X675245Y-31784279D01*
X741912Y-31708088D01*
X775245Y-31631898D01*
X1275245Y-32850945D02*
X1275245Y-32393802D01*
X1275245Y-32622374D02*
X575245Y-32622374D01*
X675245Y-32546183D01*
X741912Y-32469993D01*
X775245Y-32393802D01*
X-3460588Y-31408847D02*
X-3193921Y-31075514D01*
X-3003445Y-31408847D02*
X-3003445Y-30708847D01*
X-3308207Y-30708847D01*
X-3384397Y-30742181D01*
X-3422493Y-30775514D01*
X-3460588Y-30842181D01*
X-3460588Y-30942181D01*
X-3422493Y-31008847D01*
X-3384397Y-31042181D01*
X-3308207Y-31075514D01*
X-3003445Y-31075514D01*
X-4222493Y-31408847D02*
X-3765350Y-31408847D01*
X-3993921Y-31408847D02*
X-3993921Y-30708847D01*
X-3917731Y-30808847D01*
X-3841540Y-30875514D01*
X-3765350Y-30908847D01*
X-4717731Y-30708847D02*
X-4793921Y-30708847D01*
X-4870112Y-30742181D01*
X-4908207Y-30775514D01*
X-4946302Y-30842181D01*
X-4984397Y-30975514D01*
X-4984397Y-31142181D01*
X-4946302Y-31275514D01*
X-4908207Y-31342181D01*
X-4870112Y-31375514D01*
X-4793921Y-31408847D01*
X-4717731Y-31408847D01*
X-4641540Y-31375514D01*
X-4603445Y-31342181D01*
X-4565350Y-31275514D01*
X-4527254Y-31142181D01*
X-4527254Y-30975514D01*
X-4565350Y-30842181D01*
X-4603445Y-30775514D01*
X-4641540Y-30742181D01*
X-4717731Y-30708847D01*
X4133333Y-20916666D02*
X4400000Y-20583333D01*
X4590476Y-20916666D02*
X4590476Y-20216666D01*
X4285714Y-20216666D01*
X4209523Y-20250000D01*
X4171428Y-20283333D01*
X4133333Y-20350000D01*
X4133333Y-20450000D01*
X4171428Y-20516666D01*
X4209523Y-20550000D01*
X4285714Y-20583333D01*
X4590476Y-20583333D01*
X3752380Y-20916666D02*
X3600000Y-20916666D01*
X3523809Y-20883333D01*
X3485714Y-20850000D01*
X3409523Y-20750000D01*
X3371428Y-20616666D01*
X3371428Y-20350000D01*
X3409523Y-20283333D01*
X3447619Y-20250000D01*
X3523809Y-20216666D01*
X3676190Y-20216666D01*
X3752380Y-20250000D01*
X3790476Y-20283333D01*
X3828571Y-20350000D01*
X3828571Y-20516666D01*
X3790476Y-20583333D01*
X3752380Y-20616666D01*
X3676190Y-20650000D01*
X3523809Y-20650000D01*
X3447619Y-20616666D01*
X3409523Y-20583333D01*
X3371428Y-20516666D01*
X4133333Y-22216666D02*
X4400000Y-21883333D01*
X4590476Y-22216666D02*
X4590476Y-21516666D01*
X4285714Y-21516666D01*
X4209523Y-21550000D01*
X4171428Y-21583333D01*
X4133333Y-21650000D01*
X4133333Y-21750000D01*
X4171428Y-21816666D01*
X4209523Y-21850000D01*
X4285714Y-21883333D01*
X4590476Y-21883333D01*
X3676190Y-21816666D02*
X3752380Y-21783333D01*
X3790476Y-21750000D01*
X3828571Y-21683333D01*
X3828571Y-21650000D01*
X3790476Y-21583333D01*
X3752380Y-21550000D01*
X3676190Y-21516666D01*
X3523809Y-21516666D01*
X3447619Y-21550000D01*
X3409523Y-21583333D01*
X3371428Y-21650000D01*
X3371428Y-21683333D01*
X3409523Y-21750000D01*
X3447619Y-21783333D01*
X3523809Y-21816666D01*
X3676190Y-21816666D01*
X3752380Y-21850000D01*
X3790476Y-21883333D01*
X3828571Y-21950000D01*
X3828571Y-22083333D01*
X3790476Y-22150000D01*
X3752380Y-22183333D01*
X3676190Y-22216666D01*
X3523809Y-22216666D01*
X3447619Y-22183333D01*
X3409523Y-22150000D01*
X3371428Y-22083333D01*
X3371428Y-21950000D01*
X3409523Y-21883333D01*
X3447619Y-21850000D01*
X3523809Y-21816666D01*
X5233333Y-24716666D02*
X5500000Y-24383333D01*
X5690476Y-24716666D02*
X5690476Y-24016666D01*
X5385714Y-24016666D01*
X5309523Y-24050000D01*
X5271428Y-24083333D01*
X5233333Y-24150000D01*
X5233333Y-24250000D01*
X5271428Y-24316666D01*
X5309523Y-24350000D01*
X5385714Y-24383333D01*
X5690476Y-24383333D01*
X4966666Y-24016666D02*
X4433333Y-24016666D01*
X4776190Y-24716666D01*
X8133333Y-18486666D02*
X8400000Y-18153333D01*
X8590476Y-18486666D02*
X8590476Y-17786666D01*
X8285714Y-17786666D01*
X8209523Y-17820000D01*
X8171428Y-17853333D01*
X8133333Y-17920000D01*
X8133333Y-18020000D01*
X8171428Y-18086666D01*
X8209523Y-18120000D01*
X8285714Y-18153333D01*
X8590476Y-18153333D01*
X7447619Y-17786666D02*
X7600000Y-17786666D01*
X7676190Y-17820000D01*
X7714285Y-17853333D01*
X7790476Y-17953333D01*
X7828571Y-18086666D01*
X7828571Y-18353333D01*
X7790476Y-18420000D01*
X7752380Y-18453333D01*
X7676190Y-18486666D01*
X7523809Y-18486666D01*
X7447619Y-18453333D01*
X7409523Y-18420000D01*
X7371428Y-18353333D01*
X7371428Y-18186666D01*
X7409523Y-18120000D01*
X7447619Y-18086666D01*
X7523809Y-18053333D01*
X7676190Y-18053333D01*
X7752380Y-18086666D01*
X7790476Y-18120000D01*
X7828571Y-18186666D01*
X14216666Y-16866666D02*
X13883333Y-16600000D01*
X14216666Y-16409523D02*
X13516666Y-16409523D01*
X13516666Y-16714285D01*
X13550000Y-16790476D01*
X13583333Y-16828571D01*
X13650000Y-16866666D01*
X13750000Y-16866666D01*
X13816666Y-16828571D01*
X13850000Y-16790476D01*
X13883333Y-16714285D01*
X13883333Y-16409523D01*
X13516666Y-17590476D02*
X13516666Y-17209523D01*
X13850000Y-17171428D01*
X13816666Y-17209523D01*
X13783333Y-17285714D01*
X13783333Y-17476190D01*
X13816666Y-17552380D01*
X13850000Y-17590476D01*
X13916666Y-17628571D01*
X14083333Y-17628571D01*
X14150000Y-17590476D01*
X14183333Y-17552380D01*
X14216666Y-17476190D01*
X14216666Y-17285714D01*
X14183333Y-17209523D01*
X14150000Y-17171428D01*
X8133333Y-22086666D02*
X8400000Y-21753333D01*
X8590476Y-22086666D02*
X8590476Y-21386666D01*
X8285714Y-21386666D01*
X8209523Y-21420000D01*
X8171428Y-21453333D01*
X8133333Y-21520000D01*
X8133333Y-21620000D01*
X8171428Y-21686666D01*
X8209523Y-21720000D01*
X8285714Y-21753333D01*
X8590476Y-21753333D01*
X7447619Y-21620000D02*
X7447619Y-22086666D01*
X7638095Y-21353333D02*
X7828571Y-21853333D01*
X7333333Y-21853333D01*
X14260168Y-20310169D02*
X13926835Y-20043503D01*
X14260168Y-19853026D02*
X13560168Y-19853026D01*
X13560168Y-20157788D01*
X13593502Y-20233979D01*
X13626835Y-20272074D01*
X13693502Y-20310169D01*
X13793502Y-20310169D01*
X13860168Y-20272074D01*
X13893502Y-20233979D01*
X13926835Y-20157788D01*
X13926835Y-19853026D01*
X13560168Y-20576836D02*
X13560168Y-21072074D01*
X13826835Y-20805407D01*
X13826835Y-20919693D01*
X13860168Y-20995883D01*
X13893502Y-21033979D01*
X13960168Y-21072074D01*
X14126835Y-21072074D01*
X14193502Y-21033979D01*
X14226835Y-20995883D01*
X14260168Y-20919693D01*
X14260168Y-20691122D01*
X14226835Y-20614931D01*
X14193502Y-20576836D01*
X-11983334Y-666666D02*
X-12316667Y-400000D01*
X-11983334Y-209523D02*
X-12683334Y-209523D01*
X-12683334Y-514285D01*
X-12650000Y-590476D01*
X-12616667Y-628571D01*
X-12550000Y-666666D01*
X-12450000Y-666666D01*
X-12383334Y-628571D01*
X-12350000Y-590476D01*
X-12316667Y-514285D01*
X-12316667Y-209523D01*
X-12616667Y-971428D02*
X-12650000Y-1009523D01*
X-12683334Y-1085714D01*
X-12683334Y-1276190D01*
X-12650000Y-1352380D01*
X-12616667Y-1390476D01*
X-12550000Y-1428571D01*
X-12483334Y-1428571D01*
X-12383334Y-1390476D01*
X-11983334Y-933333D01*
X-11983334Y-1428571D01*
X-10983334Y-766666D02*
X-11316667Y-500000D01*
X-10983334Y-309523D02*
X-11683334Y-309523D01*
X-11683334Y-614285D01*
X-11650000Y-690476D01*
X-11616667Y-728571D01*
X-11550000Y-766666D01*
X-11450000Y-766666D01*
X-11383334Y-728571D01*
X-11350000Y-690476D01*
X-11316667Y-614285D01*
X-11316667Y-309523D01*
X-10983334Y-1528571D02*
X-10983334Y-1071428D01*
X-10983334Y-1300000D02*
X-11683334Y-1300000D01*
X-11583334Y-1223809D01*
X-11516667Y-1147619D01*
X-11483334Y-1071428D01*
X-8433334Y-3216666D02*
X-8433334Y-3716666D01*
X-8395239Y-3816666D01*
X-8319048Y-3883333D01*
X-8204762Y-3916666D01*
X-8128572Y-3916666D01*
X-8776191Y-3283333D02*
X-8814286Y-3250000D01*
X-8890477Y-3216666D01*
X-9080953Y-3216666D01*
X-9157143Y-3250000D01*
X-9195239Y-3283333D01*
X-9233334Y-3350000D01*
X-9233334Y-3416666D01*
X-9195239Y-3516666D01*
X-8738096Y-3916666D01*
X-9233334Y-3916666D01*
X-7883334Y-48990476D02*
X-7316667Y-48990476D01*
X-7250000Y-49028571D01*
X-7216667Y-49066666D01*
X-7183334Y-49142857D01*
X-7183334Y-49295238D01*
X-7216667Y-49371428D01*
X-7250000Y-49409523D01*
X-7316667Y-49447619D01*
X-7883334Y-49447619D01*
X-7816667Y-49790476D02*
X-7850000Y-49828571D01*
X-7883334Y-49904761D01*
X-7883334Y-50095238D01*
X-7850000Y-50171428D01*
X-7816667Y-50209523D01*
X-7750000Y-50247619D01*
X-7683334Y-50247619D01*
X-7583334Y-50209523D01*
X-7183334Y-49752380D01*
X-7183334Y-50247619D01*
X-490477Y-34564666D02*
X-947620Y-34564666D01*
X-719048Y-35264666D02*
X-719048Y-34564666D01*
X-1214286Y-35264666D02*
X-1214286Y-34564666D01*
X-1519048Y-34564666D01*
X-1595239Y-34598000D01*
X-1633334Y-34631333D01*
X-1671429Y-34698000D01*
X-1671429Y-34798000D01*
X-1633334Y-34864666D01*
X-1595239Y-34898000D01*
X-1519048Y-34931333D01*
X-1214286Y-34931333D01*
X-1976191Y-34631333D02*
X-2014286Y-34598000D01*
X-2090477Y-34564666D01*
X-2280953Y-34564666D01*
X-2357143Y-34598000D01*
X-2395239Y-34631333D01*
X-2433334Y-34698000D01*
X-2433334Y-34764666D01*
X-2395239Y-34864666D01*
X-1938096Y-35264666D01*
X-2433334Y-35264666D01*
X-916667Y-10618783D02*
X-950000Y-10542593D01*
X-1016667Y-10466402D01*
X-1116667Y-10352116D01*
X-1150000Y-10275926D01*
X-1150000Y-10199735D01*
X-983334Y-10237831D02*
X-1016667Y-10161640D01*
X-1083334Y-10085450D01*
X-1216667Y-10047354D01*
X-1450000Y-10047354D01*
X-1583334Y-10085450D01*
X-1650000Y-10161640D01*
X-1683334Y-10237831D01*
X-1683334Y-10390212D01*
X-1650000Y-10466402D01*
X-1583334Y-10542593D01*
X-1450000Y-10580688D01*
X-1216667Y-10580688D01*
X-1083334Y-10542593D01*
X-1016667Y-10466402D01*
X-983334Y-10390212D01*
X-983334Y-10237831D01*
X-1383334Y-11037831D02*
X-1416667Y-10961640D01*
X-1450000Y-10923545D01*
X-1516667Y-10885450D01*
X-1550000Y-10885450D01*
X-1616667Y-10923545D01*
X-1650000Y-10961640D01*
X-1683334Y-11037831D01*
X-1683334Y-11190212D01*
X-1650000Y-11266402D01*
X-1616667Y-11304497D01*
X-1550000Y-11342593D01*
X-1516667Y-11342593D01*
X-1450000Y-11304497D01*
X-1416667Y-11266402D01*
X-1383334Y-11190212D01*
X-1383334Y-11037831D01*
X-1350000Y-10961640D01*
X-1316667Y-10923545D01*
X-1250000Y-10885450D01*
X-1116667Y-10885450D01*
X-1050000Y-10923545D01*
X-1016667Y-10961640D01*
X-983334Y-11037831D01*
X-983334Y-11190212D01*
X-1016667Y-11266402D01*
X-1050000Y-11304497D01*
X-1116667Y-11342593D01*
X-1250000Y-11342593D01*
X-1316667Y-11304497D01*
X-1350000Y-11266402D01*
X-1383334Y-11190212D01*
X11683333Y-10723809D02*
X11650000Y-10647619D01*
X11583333Y-10571428D01*
X11483333Y-10457142D01*
X11450000Y-10380952D01*
X11450000Y-10304761D01*
X11616666Y-10342857D02*
X11583333Y-10266666D01*
X11516666Y-10190476D01*
X11383333Y-10152380D01*
X11150000Y-10152380D01*
X11016666Y-10190476D01*
X10950000Y-10266666D01*
X10916666Y-10342857D01*
X10916666Y-10495238D01*
X10950000Y-10571428D01*
X11016666Y-10647619D01*
X11150000Y-10685714D01*
X11383333Y-10685714D01*
X11516666Y-10647619D01*
X11583333Y-10571428D01*
X11616666Y-10495238D01*
X11616666Y-10342857D01*
X10916666Y-10952380D02*
X10916666Y-11485714D01*
X11616666Y-11142857D01*
X1400490Y-15389495D02*
X1367157Y-15313305D01*
X1300490Y-15237114D01*
X1200490Y-15122828D01*
X1167157Y-15046638D01*
X1167157Y-14970447D01*
X1333823Y-15008543D02*
X1300490Y-14932352D01*
X1233823Y-14856162D01*
X1100490Y-14818066D01*
X867157Y-14818066D01*
X733823Y-14856162D01*
X667157Y-14932352D01*
X633823Y-15008543D01*
X633823Y-15160924D01*
X667157Y-15237114D01*
X733823Y-15313305D01*
X867157Y-15351400D01*
X1100490Y-15351400D01*
X1233823Y-15313305D01*
X1300490Y-15237114D01*
X1333823Y-15160924D01*
X1333823Y-15008543D01*
X633823Y-16037114D02*
X633823Y-15884733D01*
X667157Y-15808543D01*
X700490Y-15770447D01*
X800490Y-15694257D01*
X933823Y-15656162D01*
X1200490Y-15656162D01*
X1267157Y-15694257D01*
X1300490Y-15732352D01*
X1333823Y-15808543D01*
X1333823Y-15960924D01*
X1300490Y-16037114D01*
X1267157Y-16075209D01*
X1200490Y-16113305D01*
X1033823Y-16113305D01*
X967157Y-16075209D01*
X933823Y-16037114D01*
X900490Y-15960924D01*
X900490Y-15808543D01*
X933823Y-15732352D01*
X967157Y-15694257D01*
X1033823Y-15656162D01*
X6776190Y-12383333D02*
X6852380Y-12350000D01*
X6928571Y-12283333D01*
X7042857Y-12183333D01*
X7119047Y-12150000D01*
X7195238Y-12150000D01*
X7157142Y-12316666D02*
X7233333Y-12283333D01*
X7309523Y-12216666D01*
X7347619Y-12083333D01*
X7347619Y-11850000D01*
X7309523Y-11716666D01*
X7233333Y-11650000D01*
X7157142Y-11616666D01*
X7004761Y-11616666D01*
X6928571Y-11650000D01*
X6852380Y-11716666D01*
X6814285Y-11850000D01*
X6814285Y-12083333D01*
X6852380Y-12216666D01*
X6928571Y-12283333D01*
X7004761Y-12316666D01*
X7157142Y-12316666D01*
X6090476Y-11616666D02*
X6471428Y-11616666D01*
X6509523Y-11950000D01*
X6471428Y-11916666D01*
X6395238Y-11883333D01*
X6204761Y-11883333D01*
X6128571Y-11916666D01*
X6090476Y-11950000D01*
X6052380Y-12016666D01*
X6052380Y-12183333D01*
X6090476Y-12250000D01*
X6128571Y-12283333D01*
X6204761Y-12316666D01*
X6395238Y-12316666D01*
X6471428Y-12283333D01*
X6509523Y-12250000D01*
X8576190Y-19883333D02*
X8652380Y-19850000D01*
X8728571Y-19783333D01*
X8842857Y-19683333D01*
X8919047Y-19650000D01*
X8995238Y-19650000D01*
X8957142Y-19816666D02*
X9033333Y-19783333D01*
X9109523Y-19716666D01*
X9147619Y-19583333D01*
X9147619Y-19350000D01*
X9109523Y-19216666D01*
X9033333Y-19150000D01*
X8957142Y-19116666D01*
X8804761Y-19116666D01*
X8728571Y-19150000D01*
X8652380Y-19216666D01*
X8614285Y-19350000D01*
X8614285Y-19583333D01*
X8652380Y-19716666D01*
X8728571Y-19783333D01*
X8804761Y-19816666D01*
X8957142Y-19816666D01*
X7928571Y-19350000D02*
X7928571Y-19816666D01*
X8119047Y-19083333D02*
X8309523Y-19583333D01*
X7814285Y-19583333D01*
X8183333Y-5143809D02*
X8150000Y-5067619D01*
X8083333Y-4991428D01*
X7983333Y-4877142D01*
X7950000Y-4800952D01*
X7950000Y-4724761D01*
X8116666Y-4762857D02*
X8083333Y-4686666D01*
X8016666Y-4610476D01*
X7883333Y-4572380D01*
X7650000Y-4572380D01*
X7516666Y-4610476D01*
X7450000Y-4686666D01*
X7416666Y-4762857D01*
X7416666Y-4915238D01*
X7450000Y-4991428D01*
X7516666Y-5067619D01*
X7650000Y-5105714D01*
X7883333Y-5105714D01*
X8016666Y-5067619D01*
X8083333Y-4991428D01*
X8116666Y-4915238D01*
X8116666Y-4762857D01*
X7416666Y-5372380D02*
X7416666Y-5867619D01*
X7683333Y-5600952D01*
X7683333Y-5715238D01*
X7716666Y-5791428D01*
X7750000Y-5829523D01*
X7816666Y-5867619D01*
X7983333Y-5867619D01*
X8050000Y-5829523D01*
X8083333Y-5791428D01*
X8116666Y-5715238D01*
X8116666Y-5486666D01*
X8083333Y-5410476D01*
X8050000Y-5372380D01*
X8576190Y-16183333D02*
X8652380Y-16150000D01*
X8728571Y-16083333D01*
X8842857Y-15983333D01*
X8919047Y-15950000D01*
X8995238Y-15950000D01*
X8957142Y-16116666D02*
X9033333Y-16083333D01*
X9109523Y-16016666D01*
X9147619Y-15883333D01*
X9147619Y-15650000D01*
X9109523Y-15516666D01*
X9033333Y-15450000D01*
X8957142Y-15416666D01*
X8804761Y-15416666D01*
X8728571Y-15450000D01*
X8652380Y-15516666D01*
X8614285Y-15650000D01*
X8614285Y-15883333D01*
X8652380Y-16016666D01*
X8728571Y-16083333D01*
X8804761Y-16116666D01*
X8957142Y-16116666D01*
X8309523Y-15483333D02*
X8271428Y-15450000D01*
X8195238Y-15416666D01*
X8004761Y-15416666D01*
X7928571Y-15450000D01*
X7890476Y-15483333D01*
X7852380Y-15550000D01*
X7852380Y-15616666D01*
X7890476Y-15716666D01*
X8347619Y-16116666D01*
X7852380Y-16116666D01*
X-1198684Y-27805516D02*
X-1122494Y-27772183D01*
X-1046303Y-27705516D01*
X-932017Y-27605516D01*
X-855827Y-27572183D01*
X-779636Y-27572183D01*
X-817732Y-27738849D02*
X-741541Y-27705516D01*
X-665351Y-27638849D01*
X-627255Y-27505516D01*
X-627255Y-27272183D01*
X-665351Y-27138849D01*
X-741541Y-27072183D01*
X-817732Y-27038849D01*
X-970113Y-27038849D01*
X-1046303Y-27072183D01*
X-1122494Y-27138849D01*
X-1160589Y-27272183D01*
X-1160589Y-27505516D01*
X-1122494Y-27638849D01*
X-1046303Y-27705516D01*
X-970113Y-27738849D01*
X-817732Y-27738849D01*
X-1922494Y-27738849D02*
X-1465351Y-27738849D01*
X-1693922Y-27738849D02*
X-1693922Y-27038849D01*
X-1617732Y-27138849D01*
X-1541541Y-27205516D01*
X-1465351Y-27238849D01*
X-11009524Y-10216666D02*
X-11009524Y-9516666D01*
X-11314286Y-9516666D01*
X-11390477Y-9550000D01*
X-11428572Y-9583333D01*
X-11466667Y-9650000D01*
X-11466667Y-9750000D01*
X-11428572Y-9816666D01*
X-11390477Y-9850000D01*
X-11314286Y-9883333D01*
X-11009524Y-9883333D01*
X-12228572Y-10216666D02*
X-11771429Y-10216666D01*
X-12000000Y-10216666D02*
X-12000000Y-9516666D01*
X-11923810Y-9616666D01*
X-11847620Y-9683333D01*
X-11771429Y-9716666D01*
X5490476Y-28466666D02*
X5490476Y-27766666D01*
X5300000Y-27766666D01*
X5185714Y-27800000D01*
X5109523Y-27866666D01*
X5071428Y-27933333D01*
X5033333Y-28066666D01*
X5033333Y-28166666D01*
X5071428Y-28300000D01*
X5109523Y-28366666D01*
X5185714Y-28433333D01*
X5300000Y-28466666D01*
X5490476Y-28466666D01*
X4652380Y-28466666D02*
X4500000Y-28466666D01*
X4423809Y-28433333D01*
X4385714Y-28400000D01*
X4309523Y-28300000D01*
X4271428Y-28166666D01*
X4271428Y-27900000D01*
X4309523Y-27833333D01*
X4347619Y-27800000D01*
X4423809Y-27766666D01*
X4576190Y-27766666D01*
X4652380Y-27800000D01*
X4690476Y-27833333D01*
X4728571Y-27900000D01*
X4728571Y-28066666D01*
X4690476Y-28133333D01*
X4652380Y-28166666D01*
X4576190Y-28200000D01*
X4423809Y-28200000D01*
X4347619Y-28166666D01*
X4309523Y-28133333D01*
X4271428Y-28066666D01*
X5490476Y-30466666D02*
X5490476Y-29766666D01*
X5300000Y-29766666D01*
X5185714Y-29800000D01*
X5109523Y-29866666D01*
X5071428Y-29933333D01*
X5033333Y-30066666D01*
X5033333Y-30166666D01*
X5071428Y-30300000D01*
X5109523Y-30366666D01*
X5185714Y-30433333D01*
X5300000Y-30466666D01*
X5490476Y-30466666D01*
X4576190Y-30066666D02*
X4652380Y-30033333D01*
X4690476Y-30000000D01*
X4728571Y-29933333D01*
X4728571Y-29900000D01*
X4690476Y-29833333D01*
X4652380Y-29800000D01*
X4576190Y-29766666D01*
X4423809Y-29766666D01*
X4347619Y-29800000D01*
X4309523Y-29833333D01*
X4271428Y-29900000D01*
X4271428Y-29933333D01*
X4309523Y-30000000D01*
X4347619Y-30033333D01*
X4423809Y-30066666D01*
X4576190Y-30066666D01*
X4652380Y-30100000D01*
X4690476Y-30133333D01*
X4728571Y-30200000D01*
X4728571Y-30333333D01*
X4690476Y-30400000D01*
X4652380Y-30433333D01*
X4576190Y-30466666D01*
X4423809Y-30466666D01*
X4347619Y-30433333D01*
X4309523Y-30400000D01*
X4271428Y-30333333D01*
X4271428Y-30200000D01*
X4309523Y-30133333D01*
X4347619Y-30100000D01*
X4423809Y-30066666D01*
X2075245Y-4609523D02*
X1375245Y-4609523D01*
X1375245Y-4800000D01*
X1408579Y-4914285D01*
X1475245Y-4990476D01*
X1541912Y-5028571D01*
X1675245Y-5066666D01*
X1775245Y-5066666D01*
X1908579Y-5028571D01*
X1975245Y-4990476D01*
X2041912Y-4914285D01*
X2075245Y-4800000D01*
X2075245Y-4609523D01*
X1375245Y-5790476D02*
X1375245Y-5409523D01*
X1708579Y-5371428D01*
X1675245Y-5409523D01*
X1641912Y-5485714D01*
X1641912Y-5676190D01*
X1675245Y-5752380D01*
X1708579Y-5790476D01*
X1775245Y-5828571D01*
X1941912Y-5828571D01*
X2008579Y-5790476D01*
X2041912Y-5752380D01*
X2075245Y-5676190D01*
X2075245Y-5485714D01*
X2041912Y-5409523D01*
X2008579Y-5371428D01*
X1590476Y-18416666D02*
X1590476Y-17716666D01*
X1400000Y-17716666D01*
X1285714Y-17750000D01*
X1209523Y-17816666D01*
X1171428Y-17883333D01*
X1133333Y-18016666D01*
X1133333Y-18116666D01*
X1171428Y-18250000D01*
X1209523Y-18316666D01*
X1285714Y-18383333D01*
X1400000Y-18416666D01*
X1590476Y-18416666D01*
X866666Y-17716666D02*
X371428Y-17716666D01*
X638095Y-17983333D01*
X523809Y-17983333D01*
X447619Y-18016666D01*
X409523Y-18050000D01*
X371428Y-18116666D01*
X371428Y-18283333D01*
X409523Y-18350000D01*
X447619Y-18383333D01*
X523809Y-18416666D01*
X752380Y-18416666D01*
X828571Y-18383333D01*
X866666Y-18350000D01*
X1590476Y-24616666D02*
X1590476Y-23916666D01*
X1400000Y-23916666D01*
X1285714Y-23950000D01*
X1209523Y-24016666D01*
X1171428Y-24083333D01*
X1133333Y-24216666D01*
X1133333Y-24316666D01*
X1171428Y-24450000D01*
X1209523Y-24516666D01*
X1285714Y-24583333D01*
X1400000Y-24616666D01*
X1590476Y-24616666D01*
X828571Y-23983333D02*
X790476Y-23950000D01*
X714285Y-23916666D01*
X523809Y-23916666D01*
X447619Y-23950000D01*
X409523Y-23983333D01*
X371428Y-24050000D01*
X371428Y-24116666D01*
X409523Y-24216666D01*
X866666Y-24616666D01*
X371428Y-24616666D01*
X3390476Y-27216666D02*
X3390476Y-26516666D01*
X3200000Y-26516666D01*
X3085714Y-26550000D01*
X3009523Y-26616666D01*
X2971428Y-26683333D01*
X2933333Y-26816666D01*
X2933333Y-26916666D01*
X2971428Y-27050000D01*
X3009523Y-27116666D01*
X3085714Y-27183333D01*
X3200000Y-27216666D01*
X3390476Y-27216666D01*
X2171428Y-27216666D02*
X2628571Y-27216666D01*
X2400000Y-27216666D02*
X2400000Y-26516666D01*
X2476190Y-26616666D01*
X2552380Y-26683333D01*
X2628571Y-26716666D01*
X5233333Y-23250000D02*
X5271428Y-23283333D01*
X5385714Y-23316666D01*
X5461904Y-23316666D01*
X5576190Y-23283333D01*
X5652380Y-23216666D01*
X5690476Y-23150000D01*
X5728571Y-23016666D01*
X5728571Y-22916666D01*
X5690476Y-22783333D01*
X5652380Y-22716666D01*
X5576190Y-22650000D01*
X5461904Y-22616666D01*
X5385714Y-22616666D01*
X5271428Y-22650000D01*
X5233333Y-22683333D01*
X4547619Y-22850000D02*
X4547619Y-23316666D01*
X4738095Y-22583333D02*
X4928571Y-23083333D01*
X4433333Y-23083333D01*
X3318333Y-18680000D02*
X3356428Y-18713333D01*
X3470714Y-18746666D01*
X3546904Y-18746666D01*
X3661190Y-18713333D01*
X3737380Y-18646666D01*
X3775476Y-18580000D01*
X3813571Y-18446666D01*
X3813571Y-18346666D01*
X3775476Y-18213333D01*
X3737380Y-18146666D01*
X3661190Y-18080000D01*
X3546904Y-18046666D01*
X3470714Y-18046666D01*
X3356428Y-18080000D01*
X3318333Y-18113333D01*
X3051666Y-18046666D02*
X2556428Y-18046666D01*
X2823095Y-18313333D01*
X2708809Y-18313333D01*
X2632619Y-18346666D01*
X2594523Y-18380000D01*
X2556428Y-18446666D01*
X2556428Y-18613333D01*
X2594523Y-18680000D01*
X2632619Y-18713333D01*
X2708809Y-18746666D01*
X2937380Y-18746666D01*
X3013571Y-18713333D01*
X3051666Y-18680000D01*
X6133333Y-25750000D02*
X6171428Y-25783333D01*
X6285714Y-25816666D01*
X6361904Y-25816666D01*
X6476190Y-25783333D01*
X6552380Y-25716666D01*
X6590476Y-25650000D01*
X6628571Y-25516666D01*
X6628571Y-25416666D01*
X6590476Y-25283333D01*
X6552380Y-25216666D01*
X6476190Y-25150000D01*
X6361904Y-25116666D01*
X6285714Y-25116666D01*
X6171428Y-25150000D01*
X6133333Y-25183333D01*
X5828571Y-25183333D02*
X5790476Y-25150000D01*
X5714285Y-25116666D01*
X5523809Y-25116666D01*
X5447619Y-25150000D01*
X5409523Y-25183333D01*
X5371428Y-25250000D01*
X5371428Y-25316666D01*
X5409523Y-25416666D01*
X5866666Y-25816666D01*
X5371428Y-25816666D01*
X-1050000Y-21266666D02*
X-1016667Y-21228571D01*
X-983334Y-21114285D01*
X-983334Y-21038095D01*
X-1016667Y-20923809D01*
X-1083334Y-20847619D01*
X-1150000Y-20809523D01*
X-1283334Y-20771428D01*
X-1383334Y-20771428D01*
X-1516667Y-20809523D01*
X-1583334Y-20847619D01*
X-1650000Y-20923809D01*
X-1683334Y-21038095D01*
X-1683334Y-21114285D01*
X-1650000Y-21228571D01*
X-1616667Y-21266666D01*
X-983334Y-22028571D02*
X-983334Y-21571428D01*
X-983334Y-21800000D02*
X-1683334Y-21800000D01*
X-1583334Y-21723809D01*
X-1516667Y-21647619D01*
X-1483334Y-21571428D01*
M02*
