M48
; DRILL file {KiCad (5.1.4-dirty)} date Thu 21 May 2020 12:04:09 AM +08
; FORMAT={-:-/ absolute / metric / decimal}
; #@! TF.CreationDate,2020-05-21T00:04:09+08:00
; #@! TF.GenerationSoftware,Kicad,Pcbnew,(5.1.4-dirty)
; #@! TF.FileFunction,Plated,1,4,PTH
FMAT,2
METRIC
T1C0.400
T2C0.650
T3C0.800
T4C1.000
T5C3.200
%
G90
G05
T1
X0.8Y-31.2
X1.7Y-29.7
X2.3Y-37.5
X2.6Y-17.9
X3.2Y-29.7
X3.4Y-33.4
X3.4Y-34.5
X3.4Y-35.9
X3.95Y-10.1
X4.7Y-39.6
X5.85Y-39.45
X6.5Y-49.3
X6.5Y-50.5
X6.6Y-41.0
X6.7Y-33.5
X6.7Y-34.5
X6.8Y-32.1
X6.8Y-35.9
X7.3Y-47.65
X7.85Y-46.6
X7.9Y-42.6
X7.9Y-43.7
X7.9Y-44.65
X7.9Y-45.65
X7.95Y-31.85
X7.95Y-52.05
X8.0Y-40.4
X8.0Y-41.625
X8.3Y-39.3
X9.4Y-31.85
X9.5Y-12.65
X9.5Y-42.6
X9.5Y-52.55
X9.55Y-39.1
X10.468Y-31.893
X10.6Y-39.1
X10.7Y-53.0
X11.35Y-51.65
X11.4Y-44.3
X11.45Y-47.35
X11.525Y-13.202
X11.75Y-52.75
X11.788Y-54.138
X11.85Y-48.2
X12.15Y-49.25
X12.15Y-50.7
X12.25Y-46.8
X12.376Y-39.3
X12.5Y-42.8
X12.5Y-43.9
X12.5Y-45.0
X12.975Y-13.45
X14.225Y-16.55
X14.225Y-48.296
X14.4Y-57.75
X14.5Y-50.1
X14.54Y-56.76
X14.65Y-36.85
X14.65Y-38.0
X14.888Y-54.6
X15.4Y-52.25
X15.5Y-12.9
X15.5Y-49.4
X16.0Y-51.0
X16.4Y-57.1
X16.5Y-12.55
X16.5Y-54.65
X16.65Y-28.05
X16.7Y-44.8
X16.7Y-49.1
X17.25Y-31.1
X17.85Y-14.55
X17.9Y-45.2
X18.05Y-49.1
X18.25Y-43.275
X18.502Y-39.402
X18.75Y-8.15
X19.2Y-48.95
X19.394Y-23.606
X19.8Y-16.7
X20.1Y-54.1
X20.15Y-19.8
X20.3Y-29.3
X20.3Y-49.1
X20.4Y-46.5
X20.5Y-9.4
X20.5Y-12.5
X21.191Y-31.425
X21.5Y-12.5
X22.2Y-21.45
X22.247Y-16.453
X22.35Y-38.85
X22.7Y-43.5
X22.9Y-48.0
X23.15Y-36.25
X23.2Y-14.5
X23.5Y-12.7
X23.575Y-23.7
X24.2Y-20.1
X24.4Y-15.7
X24.5Y-43.5
X24.6Y-48.0
X25.425Y-27.9
X25.7Y-43.45
X25.7Y-49.2
X25.75Y-46.3
X26.1Y-44.4
X26.15Y-36.45
X26.3Y-16.7
X26.5Y-39.2
X26.5Y-42.45
X26.6Y-47.4
X26.65Y-23.25
X27.0Y-12.7
X27.15Y-31.45
X27.225Y-13.826
X27.45Y-9.025
X27.45Y-27.4
X27.5Y-39.2
X27.7Y-61.4
X27.86Y-16.575
X27.9Y-36.2
X28.5Y-9.3
X28.5Y-39.2
X28.5Y-52.0
X29.5Y-39.2
X29.6Y-9.3
X29.7Y-18.95
X29.8Y-42.6
X29.8Y-43.7
X29.8Y-44.7
X29.8Y-45.7
X29.8Y-46.7
X30.4Y-47.6
X30.5Y-10.5
X30.5Y-11.5
X30.65Y-18.4
X31.125Y-44.135
X31.3Y-49.2
X32.9Y-28.5
X33.0Y-23.7
X33.25Y-16.5
X33.25Y-17.5
X33.25Y-18.5
X33.25Y-19.5
X33.3Y-31.0
X33.3Y-32.1
X33.3Y-33.5
X33.3Y-34.5
X33.3Y-35.9
X33.4Y-3.6
X33.5Y-7.0
X35.2Y-2.65
X35.2Y-10.3
X36.3Y-11.5
X36.3Y-12.5
X36.3Y-13.5
X36.3Y-14.5
X36.6Y-32.1
X36.6Y-33.5
X36.6Y-34.5
X36.6Y-35.9
X36.7Y-19.0
X37.0Y-7.0
X37.7Y-30.5
X37.7Y-37.5
X37.9Y-4.65
X37.9Y-5.75
X38.0Y-18.7
X38.2Y-7.3
X38.6Y-8.55
X38.6Y-9.5
X38.9Y-17.8
X39.0Y-10.5
X39.0Y-11.5
X39.0Y-12.5
X39.0Y-13.5
X39.0Y-14.5
X39.0Y-15.5
X39.0Y-16.5
T3
X6.25Y-54.7
X2.7Y-45.3
X6.2Y-45.3
X33.8Y-46.05
X37.3Y-46.05
X33.8Y-54.65
X37.3Y-54.65
X24.75Y-56.2
X24.75Y-59.7
X2.75Y-54.7
T4
X8.57Y-3.73
X8.57Y-6.27
X11.11Y-3.73
X11.11Y-6.27
X13.65Y-3.73
X13.65Y-6.27
X16.19Y-3.73
X16.19Y-6.27
X18.73Y-3.73
X18.73Y-6.27
X21.27Y-3.73
X21.27Y-6.27
X23.81Y-3.73
X23.81Y-6.27
X26.35Y-3.73
X26.35Y-6.27
X28.89Y-3.73
X28.89Y-6.27
X31.43Y-3.73
X31.43Y-6.27
T5
X3.0Y-62.0
X37.0Y-62.0
T2
G00X12.1Y-61.375
M15
G01X12.1Y-62.225
M16
G05
G00X13.275Y-58.8
M15
G01X13.275Y-59.0
M16
G05
G00X18.125Y-58.8
M15
G01X18.125Y-59.0
M16
G05
G00X19.3Y-61.375
M15
G01X19.3Y-62.225
M16
G05
T0
M30
