G04 #@! TF.GenerationSoftware,KiCad,Pcbnew,(5.1.5)-3*
G04 #@! TF.CreationDate,2020-06-30T19:55:35+10:00*
G04 #@! TF.ProjectId,cicada-2g,63696361-6461-42d3-9267-2e6b69636164,0.1*
G04 #@! TF.SameCoordinates,PX7cee6c0PY3dfd240*
G04 #@! TF.FileFunction,Soldermask,Top*
G04 #@! TF.FilePolarity,Negative*
%FSLAX46Y46*%
G04 Gerber Fmt 4.6, Leading zero omitted, Abs format (unit mm)*
G04 Created by KiCad (PCBNEW (5.1.5)-3) date 2020-06-30 19:55:35*
%MOMM*%
%LPD*%
G04 APERTURE LIST*
%ADD10C,0.100000*%
G04 APERTURE END LIST*
D10*
G36*
X17802144Y-54355680D02*
G01*
X18302612Y-54562981D01*
X18753022Y-54863935D01*
X19136065Y-55246978D01*
X19437019Y-55697388D01*
X19644320Y-56197856D01*
X19750000Y-56729147D01*
X19750000Y-57270853D01*
X19644320Y-57802144D01*
X19437019Y-58302612D01*
X19136065Y-58753022D01*
X18753022Y-59136065D01*
X18302612Y-59437019D01*
X17802144Y-59644320D01*
X17270853Y-59750000D01*
X16729147Y-59750000D01*
X16197856Y-59644320D01*
X15697388Y-59437019D01*
X15246978Y-59136065D01*
X14863935Y-58753022D01*
X14562981Y-58302612D01*
X14355680Y-57802144D01*
X14250000Y-57270853D01*
X14250000Y-56729147D01*
X14355680Y-56197856D01*
X14562981Y-55697388D01*
X14863935Y-55246978D01*
X15246978Y-54863935D01*
X15697388Y-54562981D01*
X16197856Y-54355680D01*
X16729147Y-54250000D01*
X17270853Y-54250000D01*
X17802144Y-54355680D01*
G37*
G36*
X-16197856Y-54355680D02*
G01*
X-15697388Y-54562981D01*
X-15246978Y-54863935D01*
X-14863935Y-55246978D01*
X-14562981Y-55697388D01*
X-14355680Y-56197856D01*
X-14250000Y-56729147D01*
X-14250000Y-57270853D01*
X-14355680Y-57802144D01*
X-14562981Y-58302612D01*
X-14863935Y-58753022D01*
X-15246978Y-59136065D01*
X-15697388Y-59437019D01*
X-16197856Y-59644320D01*
X-16729147Y-59750000D01*
X-17270853Y-59750000D01*
X-17802144Y-59644320D01*
X-18302612Y-59437019D01*
X-18753022Y-59136065D01*
X-19136065Y-58753022D01*
X-19437019Y-58302612D01*
X-19644320Y-57802144D01*
X-19750000Y-57270853D01*
X-19750000Y-56729147D01*
X-19644320Y-56197856D01*
X-19437019Y-55697388D01*
X-19136065Y-55246978D01*
X-18753022Y-54863935D01*
X-18302612Y-54562981D01*
X-17802144Y-54355680D01*
X-17270853Y-54250000D01*
X-16729147Y-54250000D01*
X-16197856Y-54355680D01*
G37*
G36*
X12239874Y-56410166D02*
G01*
X12331689Y-56428429D01*
X12513678Y-56503811D01*
X12677463Y-56613249D01*
X12816751Y-56752537D01*
X12926189Y-56916322D01*
X12973416Y-57030339D01*
X13001571Y-57098312D01*
X13035892Y-57270853D01*
X13040000Y-57291509D01*
X13040000Y-57488491D01*
X13001571Y-57681689D01*
X12926189Y-57863678D01*
X12816751Y-58027463D01*
X12677463Y-58166751D01*
X12513678Y-58276189D01*
X12331689Y-58351571D01*
X12267290Y-58364381D01*
X12138493Y-58390000D01*
X11941507Y-58390000D01*
X11812710Y-58364381D01*
X11748311Y-58351571D01*
X11566322Y-58276189D01*
X11402537Y-58166751D01*
X11263249Y-58027463D01*
X11153811Y-57863678D01*
X11078429Y-57681689D01*
X11040000Y-57488491D01*
X11040000Y-57291509D01*
X11044109Y-57270853D01*
X11078429Y-57098312D01*
X11106584Y-57030339D01*
X11153811Y-56916322D01*
X11263249Y-56752537D01*
X11402537Y-56613249D01*
X11566322Y-56503811D01*
X11748311Y-56428429D01*
X11840126Y-56410166D01*
X11941507Y-56390000D01*
X12138493Y-56390000D01*
X12239874Y-56410166D01*
G37*
G36*
X-3663772Y-55749398D02*
G01*
X-3651520Y-55750000D01*
X-2727711Y-55750000D01*
X-2713389Y-55767452D01*
X-2694446Y-55782997D01*
X-2684214Y-55789833D01*
X-2684213Y-55789834D01*
X-2626888Y-55828137D01*
X-2578137Y-55876888D01*
X-2578135Y-55876891D01*
X-2532997Y-55944446D01*
X-2517452Y-55963388D01*
X-2500000Y-55977711D01*
X-2500000Y-57622289D01*
X-2517452Y-57636611D01*
X-2532997Y-57655554D01*
X-2539833Y-57665786D01*
X-2539834Y-57665787D01*
X-2578137Y-57723112D01*
X-2626888Y-57771863D01*
X-2684213Y-57810166D01*
X-2684214Y-57810167D01*
X-2694446Y-57817003D01*
X-2713388Y-57832548D01*
X-2727711Y-57850000D01*
X-3651519Y-57850000D01*
X-3663771Y-57850602D01*
X-3700000Y-57854170D01*
X-3736228Y-57850602D01*
X-3748480Y-57850000D01*
X-4800000Y-57850000D01*
X-4800000Y-55750000D01*
X-3748481Y-55750000D01*
X-3736229Y-55749398D01*
X-3700000Y-55745830D01*
X-3663772Y-55749398D01*
G37*
G36*
X-10863772Y-55749398D02*
G01*
X-10851520Y-55750000D01*
X-9800000Y-55750000D01*
X-9800000Y-57850000D01*
X-10851519Y-57850000D01*
X-10863771Y-57850602D01*
X-10900000Y-57854170D01*
X-10936228Y-57850602D01*
X-10948480Y-57850000D01*
X-11872289Y-57850000D01*
X-11886611Y-57832548D01*
X-11905554Y-57817003D01*
X-11915786Y-57810167D01*
X-11915787Y-57810166D01*
X-11973112Y-57771863D01*
X-12021863Y-57723112D01*
X-12060166Y-57665787D01*
X-12060167Y-57665786D01*
X-12067003Y-57655554D01*
X-12082548Y-57636612D01*
X-12100000Y-57622289D01*
X-12100000Y-55977711D01*
X-12082548Y-55963389D01*
X-12067003Y-55944446D01*
X-12021865Y-55876891D01*
X-12021863Y-55876888D01*
X-11973112Y-55828137D01*
X-11915787Y-55789834D01*
X-11915786Y-55789833D01*
X-11905554Y-55782997D01*
X-11886612Y-55767452D01*
X-11872289Y-55750000D01*
X-10948481Y-55750000D01*
X-10936229Y-55749398D01*
X-10900000Y-55745830D01*
X-10863772Y-55749398D01*
G37*
G36*
X-7450000Y-57850000D02*
G01*
X-9450000Y-57850000D01*
X-9450000Y-55750000D01*
X-7450000Y-55750000D01*
X-7450000Y-57850000D01*
G37*
G36*
X-5150000Y-57850000D02*
G01*
X-7150000Y-57850000D01*
X-7150000Y-55750000D01*
X-5150000Y-55750000D01*
X-5150000Y-57850000D01*
G37*
G36*
X-4752480Y-53184043D02*
G01*
X-4634667Y-53219781D01*
X-4526090Y-53277817D01*
X-4430920Y-53355920D01*
X-4352817Y-53451089D01*
X-4294781Y-53559666D01*
X-4259043Y-53677479D01*
X-4250000Y-53769296D01*
X-4250000Y-54030703D01*
X-4259043Y-54122520D01*
X-4294781Y-54240333D01*
X-4352817Y-54348911D01*
X-4430920Y-54444080D01*
X-4526089Y-54522183D01*
X-4634666Y-54580219D01*
X-4752479Y-54615957D01*
X-4875000Y-54628024D01*
X-4997520Y-54615957D01*
X-5115333Y-54580219D01*
X-5223910Y-54522183D01*
X-5319079Y-54444080D01*
X-5397182Y-54348911D01*
X-5455219Y-54240334D01*
X-5455386Y-54239784D01*
X-5464762Y-54217148D01*
X-5478376Y-54196773D01*
X-5495703Y-54179446D01*
X-5516077Y-54165833D01*
X-5538716Y-54156455D01*
X-5562749Y-54151675D01*
X-5587253Y-54151675D01*
X-5611287Y-54156456D01*
X-5633925Y-54165833D01*
X-5654300Y-54179447D01*
X-5671627Y-54196774D01*
X-5685240Y-54217148D01*
X-5694618Y-54239787D01*
X-5700000Y-54276072D01*
X-5700000Y-54900000D01*
X-8900000Y-54900000D01*
X-8900000Y-54276071D01*
X-8902402Y-54251685D01*
X-8909515Y-54228236D01*
X-8921066Y-54206625D01*
X-8936611Y-54187683D01*
X-8955553Y-54172138D01*
X-8977164Y-54160587D01*
X-9000613Y-54153474D01*
X-9024999Y-54151072D01*
X-9049385Y-54153474D01*
X-9072834Y-54160587D01*
X-9094445Y-54172138D01*
X-9113387Y-54187683D01*
X-9128932Y-54206625D01*
X-9144614Y-54239784D01*
X-9144781Y-54240333D01*
X-9202817Y-54348911D01*
X-9280920Y-54444080D01*
X-9376089Y-54522183D01*
X-9484666Y-54580219D01*
X-9602479Y-54615957D01*
X-9725000Y-54628024D01*
X-9847520Y-54615957D01*
X-9965333Y-54580219D01*
X-10073910Y-54522183D01*
X-10169079Y-54444080D01*
X-10247182Y-54348911D01*
X-10305219Y-54240334D01*
X-10340957Y-54122521D01*
X-10350000Y-54030704D01*
X-10350000Y-53769297D01*
X-10340957Y-53677480D01*
X-10305219Y-53559667D01*
X-10247183Y-53451090D01*
X-10169080Y-53355920D01*
X-10073911Y-53277817D01*
X-9965334Y-53219781D01*
X-9847521Y-53184043D01*
X-9725000Y-53171976D01*
X-9602480Y-53184043D01*
X-9484667Y-53219781D01*
X-9376090Y-53277817D01*
X-9280920Y-53355920D01*
X-9202817Y-53451089D01*
X-9144781Y-53559666D01*
X-9144614Y-53560216D01*
X-9135238Y-53582852D01*
X-9121624Y-53603227D01*
X-9104297Y-53620554D01*
X-9083923Y-53634167D01*
X-9061284Y-53643545D01*
X-9037251Y-53648325D01*
X-9012747Y-53648325D01*
X-8988713Y-53643544D01*
X-8966075Y-53634167D01*
X-8945700Y-53620553D01*
X-8928373Y-53603226D01*
X-8914760Y-53582852D01*
X-8905382Y-53560213D01*
X-8900000Y-53523928D01*
X-8900000Y-53350000D01*
X-5700000Y-53350000D01*
X-5700000Y-53523929D01*
X-5697598Y-53548315D01*
X-5690485Y-53571764D01*
X-5678934Y-53593375D01*
X-5663389Y-53612317D01*
X-5644447Y-53627862D01*
X-5622836Y-53639413D01*
X-5599387Y-53646526D01*
X-5575001Y-53648928D01*
X-5550615Y-53646526D01*
X-5527166Y-53639413D01*
X-5505555Y-53627862D01*
X-5486613Y-53612317D01*
X-5471068Y-53593375D01*
X-5455385Y-53560215D01*
X-5455384Y-53560213D01*
X-5455219Y-53559667D01*
X-5397183Y-53451090D01*
X-5319080Y-53355920D01*
X-5223911Y-53277817D01*
X-5115334Y-53219781D01*
X-4997521Y-53184043D01*
X-4875000Y-53171976D01*
X-4752480Y-53184043D01*
G37*
G36*
X9600000Y-54621000D02*
G01*
X7100000Y-54621000D01*
X7100000Y-52821000D01*
X9600000Y-52821000D01*
X9600000Y-54621000D01*
G37*
G36*
X5600000Y-54621000D02*
G01*
X3100000Y-54621000D01*
X3100000Y-52821000D01*
X5600000Y-52821000D01*
X5600000Y-54621000D01*
G37*
G36*
X11529463Y-52387226D02*
G01*
X11545299Y-52392030D01*
X11559886Y-52399827D01*
X11572677Y-52410323D01*
X11583173Y-52423114D01*
X11590970Y-52437701D01*
X11595774Y-52453537D01*
X11598000Y-52476140D01*
X11598000Y-52933860D01*
X11595774Y-52956463D01*
X11590970Y-52972299D01*
X11583173Y-52986886D01*
X11572677Y-52999677D01*
X11559886Y-53010173D01*
X11545299Y-53017970D01*
X11529463Y-53022774D01*
X11506860Y-53025000D01*
X11099140Y-53025000D01*
X11076537Y-53022774D01*
X11060701Y-53017970D01*
X11046114Y-53010173D01*
X11033323Y-52999677D01*
X11022827Y-52986886D01*
X11015030Y-52972299D01*
X11010226Y-52956463D01*
X11008000Y-52933860D01*
X11008000Y-52476140D01*
X11010226Y-52453537D01*
X11015030Y-52437701D01*
X11022827Y-52423114D01*
X11033323Y-52410323D01*
X11046114Y-52399827D01*
X11060701Y-52392030D01*
X11076537Y-52387226D01*
X11099140Y-52385000D01*
X11506860Y-52385000D01*
X11529463Y-52387226D01*
G37*
G36*
X12499463Y-52387226D02*
G01*
X12515299Y-52392030D01*
X12529886Y-52399827D01*
X12542677Y-52410323D01*
X12553173Y-52423114D01*
X12560970Y-52437701D01*
X12565774Y-52453537D01*
X12568000Y-52476140D01*
X12568000Y-52933860D01*
X12565774Y-52956463D01*
X12560970Y-52972299D01*
X12553173Y-52986886D01*
X12542677Y-52999677D01*
X12529886Y-53010173D01*
X12515299Y-53017970D01*
X12499463Y-53022774D01*
X12476860Y-53025000D01*
X12069140Y-53025000D01*
X12046537Y-53022774D01*
X12030701Y-53017970D01*
X12016114Y-53010173D01*
X12003323Y-52999677D01*
X11992827Y-52986886D01*
X11985030Y-52972299D01*
X11980226Y-52956463D01*
X11978000Y-52933860D01*
X11978000Y-52476140D01*
X11980226Y-52453537D01*
X11985030Y-52437701D01*
X11992827Y-52423114D01*
X12003323Y-52410323D01*
X12016114Y-52399827D01*
X12030701Y-52392030D01*
X12046537Y-52387226D01*
X12069140Y-52385000D01*
X12476860Y-52385000D01*
X12499463Y-52387226D01*
G37*
G36*
X-8225000Y-51430000D02*
G01*
X-8875000Y-51430000D01*
X-8875000Y-50370000D01*
X-8225000Y-50370000D01*
X-8225000Y-51430000D01*
G37*
G36*
X-6325000Y-51430000D02*
G01*
X-6975000Y-51430000D01*
X-6975000Y-50370000D01*
X-6325000Y-50370000D01*
X-6325000Y-51430000D01*
G37*
G36*
X-7275000Y-51430000D02*
G01*
X-7925000Y-51430000D01*
X-7925000Y-50370000D01*
X-7275000Y-50370000D01*
X-7275000Y-51430000D01*
G37*
G36*
X-14682710Y-49375619D02*
G01*
X-14618311Y-49388429D01*
X-14436322Y-49463811D01*
X-14272537Y-49573249D01*
X-14133249Y-49712537D01*
X-14023811Y-49876322D01*
X-13948429Y-50058311D01*
X-13910000Y-50251509D01*
X-13910000Y-50448491D01*
X-13948429Y-50641689D01*
X-14023811Y-50823678D01*
X-14133249Y-50987463D01*
X-14272537Y-51126751D01*
X-14436322Y-51236189D01*
X-14618311Y-51311571D01*
X-14682710Y-51324381D01*
X-14811507Y-51350000D01*
X-15008493Y-51350000D01*
X-15137290Y-51324381D01*
X-15201689Y-51311571D01*
X-15383678Y-51236189D01*
X-15547463Y-51126751D01*
X-15686751Y-50987463D01*
X-15796189Y-50823678D01*
X-15871571Y-50641689D01*
X-15910000Y-50448491D01*
X-15910000Y-50251509D01*
X-15871571Y-50058311D01*
X-15796189Y-49876322D01*
X-15686751Y-49712537D01*
X-15547463Y-49573249D01*
X-15383678Y-49463811D01*
X-15201689Y-49388429D01*
X-15137290Y-49375619D01*
X-15008493Y-49350000D01*
X-14811507Y-49350000D01*
X-14682710Y-49375619D01*
G37*
G36*
X-2400000Y-50570000D02*
G01*
X-3400000Y-50570000D01*
X-3400000Y-49570000D01*
X-2400000Y-49570000D01*
X-2400000Y-50570000D01*
G37*
G36*
X9600000Y-49700000D02*
G01*
X7100000Y-49700000D01*
X7100000Y-47900000D01*
X9600000Y-47900000D01*
X9600000Y-49700000D01*
G37*
G36*
X5600000Y-49700000D02*
G01*
X3100000Y-49700000D01*
X3100000Y-47900000D01*
X5600000Y-47900000D01*
X5600000Y-49700000D01*
G37*
G36*
X-3850000Y-49670000D02*
G01*
X-4900000Y-49670000D01*
X-4900000Y-47470000D01*
X-3850000Y-47470000D01*
X-3850000Y-49670000D01*
G37*
G36*
X-900000Y-49670000D02*
G01*
X-1950000Y-49670000D01*
X-1950000Y-47470000D01*
X-900000Y-47470000D01*
X-900000Y-49670000D01*
G37*
G36*
X-7275000Y-49230000D02*
G01*
X-7925000Y-49230000D01*
X-7925000Y-48170000D01*
X-7275000Y-48170000D01*
X-7275000Y-49230000D01*
G37*
G36*
X-8225000Y-49230000D02*
G01*
X-8875000Y-49230000D01*
X-8875000Y-48170000D01*
X-8225000Y-48170000D01*
X-8225000Y-49230000D01*
G37*
G36*
X-6325000Y-49230000D02*
G01*
X-6975000Y-49230000D01*
X-6975000Y-48170000D01*
X-6325000Y-48170000D01*
X-6325000Y-49230000D01*
G37*
G36*
X-2400000Y-47570000D02*
G01*
X-3400000Y-47570000D01*
X-3400000Y-46570000D01*
X-2400000Y-46570000D01*
X-2400000Y-47570000D01*
G37*
G36*
X11303991Y-45629075D02*
G01*
X11337879Y-45639355D01*
X11369112Y-45656050D01*
X11396486Y-45678514D01*
X11418950Y-45705888D01*
X11435645Y-45737121D01*
X11445925Y-45771009D01*
X11450000Y-45812388D01*
X11450000Y-46412612D01*
X11445925Y-46453991D01*
X11435645Y-46487879D01*
X11418950Y-46519112D01*
X11396486Y-46546486D01*
X11369112Y-46568950D01*
X11337879Y-46585645D01*
X11303991Y-46595925D01*
X11262612Y-46600000D01*
X10237388Y-46600000D01*
X10196009Y-46595925D01*
X10162121Y-46585645D01*
X10130888Y-46568950D01*
X10103514Y-46546486D01*
X10081050Y-46519112D01*
X10064355Y-46487879D01*
X10054075Y-46453991D01*
X10050000Y-46412612D01*
X10050000Y-45812388D01*
X10054075Y-45771009D01*
X10064355Y-45737121D01*
X10081050Y-45705888D01*
X10103514Y-45678514D01*
X10130888Y-45656050D01*
X10162121Y-45639355D01*
X10196009Y-45629075D01*
X10237388Y-45625000D01*
X11262612Y-45625000D01*
X11303991Y-45629075D01*
G37*
G36*
X7584766Y-44744821D02*
G01*
X7721257Y-44801358D01*
X7844097Y-44883437D01*
X7948563Y-44987903D01*
X8030642Y-45110743D01*
X8087179Y-45247234D01*
X8116000Y-45392130D01*
X8116000Y-45539870D01*
X8087179Y-45684766D01*
X8030642Y-45821257D01*
X7948563Y-45944097D01*
X7844097Y-46048563D01*
X7721257Y-46130642D01*
X7584766Y-46187179D01*
X7439870Y-46216000D01*
X7292130Y-46216000D01*
X7147234Y-46187179D01*
X7010743Y-46130642D01*
X6887903Y-46048563D01*
X6783437Y-45944097D01*
X6701358Y-45821257D01*
X6644821Y-45684766D01*
X6616000Y-45539870D01*
X6616000Y-45392130D01*
X6644821Y-45247234D01*
X6701358Y-45110743D01*
X6783437Y-44987903D01*
X6887903Y-44883437D01*
X7010743Y-44801358D01*
X7147234Y-44744821D01*
X7292130Y-44716000D01*
X7439870Y-44716000D01*
X7584766Y-44744821D01*
G37*
G36*
X-783537Y-45282226D02*
G01*
X-767701Y-45287030D01*
X-753114Y-45294827D01*
X-740323Y-45305323D01*
X-729827Y-45318114D01*
X-722030Y-45332701D01*
X-717226Y-45348537D01*
X-715000Y-45371140D01*
X-715000Y-45828860D01*
X-717226Y-45851463D01*
X-722030Y-45867299D01*
X-729827Y-45881886D01*
X-740323Y-45894677D01*
X-753114Y-45905173D01*
X-767701Y-45912970D01*
X-783537Y-45917774D01*
X-806140Y-45920000D01*
X-1213860Y-45920000D01*
X-1236463Y-45917774D01*
X-1252299Y-45912970D01*
X-1266886Y-45905173D01*
X-1279677Y-45894677D01*
X-1290173Y-45881886D01*
X-1297970Y-45867299D01*
X-1302774Y-45851463D01*
X-1305000Y-45828860D01*
X-1305000Y-45371140D01*
X-1302774Y-45348537D01*
X-1297970Y-45332701D01*
X-1290173Y-45318114D01*
X-1279677Y-45305323D01*
X-1266886Y-45294827D01*
X-1252299Y-45287030D01*
X-1236463Y-45282226D01*
X-1213860Y-45280000D01*
X-806140Y-45280000D01*
X-783537Y-45282226D01*
G37*
G36*
X-1753537Y-45282226D02*
G01*
X-1737701Y-45287030D01*
X-1723114Y-45294827D01*
X-1710323Y-45305323D01*
X-1699827Y-45318114D01*
X-1692030Y-45332701D01*
X-1687226Y-45348537D01*
X-1685000Y-45371140D01*
X-1685000Y-45828860D01*
X-1687226Y-45851463D01*
X-1692030Y-45867299D01*
X-1699827Y-45881886D01*
X-1710323Y-45894677D01*
X-1723114Y-45905173D01*
X-1737701Y-45912970D01*
X-1753537Y-45917774D01*
X-1776140Y-45920000D01*
X-2183860Y-45920000D01*
X-2206463Y-45917774D01*
X-2222299Y-45912970D01*
X-2236886Y-45905173D01*
X-2249677Y-45894677D01*
X-2260173Y-45881886D01*
X-2267970Y-45867299D01*
X-2272774Y-45851463D01*
X-2275000Y-45828860D01*
X-2275000Y-45371140D01*
X-2272774Y-45348537D01*
X-2267970Y-45332701D01*
X-2260173Y-45318114D01*
X-2249677Y-45305323D01*
X-2236886Y-45294827D01*
X-2222299Y-45287030D01*
X-2206463Y-45282226D01*
X-2183860Y-45280000D01*
X-1776140Y-45280000D01*
X-1753537Y-45282226D01*
G37*
G36*
X-4558537Y-45282226D02*
G01*
X-4542701Y-45287030D01*
X-4528114Y-45294827D01*
X-4515323Y-45305323D01*
X-4504827Y-45318114D01*
X-4497030Y-45332701D01*
X-4492226Y-45348537D01*
X-4490000Y-45371140D01*
X-4490000Y-45828860D01*
X-4492226Y-45851463D01*
X-4497030Y-45867299D01*
X-4504827Y-45881886D01*
X-4515323Y-45894677D01*
X-4528114Y-45905173D01*
X-4542701Y-45912970D01*
X-4558537Y-45917774D01*
X-4581140Y-45920000D01*
X-4988860Y-45920000D01*
X-5011463Y-45917774D01*
X-5027299Y-45912970D01*
X-5041886Y-45905173D01*
X-5054677Y-45894677D01*
X-5065173Y-45881886D01*
X-5072970Y-45867299D01*
X-5077774Y-45851463D01*
X-5080000Y-45828860D01*
X-5080000Y-45371140D01*
X-5077774Y-45348537D01*
X-5072970Y-45332701D01*
X-5065173Y-45318114D01*
X-5054677Y-45305323D01*
X-5041886Y-45294827D01*
X-5027299Y-45287030D01*
X-5011463Y-45282226D01*
X-4988860Y-45280000D01*
X-4581140Y-45280000D01*
X-4558537Y-45282226D01*
G37*
G36*
X-3588537Y-45282226D02*
G01*
X-3572701Y-45287030D01*
X-3558114Y-45294827D01*
X-3545323Y-45305323D01*
X-3534827Y-45318114D01*
X-3527030Y-45332701D01*
X-3522226Y-45348537D01*
X-3520000Y-45371140D01*
X-3520000Y-45828860D01*
X-3522226Y-45851463D01*
X-3527030Y-45867299D01*
X-3534827Y-45881886D01*
X-3545323Y-45894677D01*
X-3558114Y-45905173D01*
X-3572701Y-45912970D01*
X-3588537Y-45917774D01*
X-3611140Y-45920000D01*
X-4018860Y-45920000D01*
X-4041463Y-45917774D01*
X-4057299Y-45912970D01*
X-4071886Y-45905173D01*
X-4084677Y-45894677D01*
X-4095173Y-45881886D01*
X-4102970Y-45867299D01*
X-4107774Y-45851463D01*
X-4110000Y-45828860D01*
X-4110000Y-45371140D01*
X-4107774Y-45348537D01*
X-4102970Y-45332701D01*
X-4095173Y-45318114D01*
X-4084677Y-45305323D01*
X-4071886Y-45294827D01*
X-4057299Y-45287030D01*
X-4041463Y-45282226D01*
X-4018860Y-45280000D01*
X-3611140Y-45280000D01*
X-3588537Y-45282226D01*
G37*
G36*
X-2648537Y-45312226D02*
G01*
X-2632701Y-45317030D01*
X-2618114Y-45324827D01*
X-2605323Y-45335323D01*
X-2594827Y-45348114D01*
X-2587030Y-45362701D01*
X-2582226Y-45378537D01*
X-2580000Y-45401140D01*
X-2580000Y-45808860D01*
X-2582226Y-45831463D01*
X-2587030Y-45847299D01*
X-2594827Y-45861886D01*
X-2605323Y-45874677D01*
X-2618114Y-45885173D01*
X-2632701Y-45892970D01*
X-2648537Y-45897774D01*
X-2671140Y-45900000D01*
X-3128860Y-45900000D01*
X-3151463Y-45897774D01*
X-3167299Y-45892970D01*
X-3181886Y-45885173D01*
X-3194677Y-45874677D01*
X-3205173Y-45861886D01*
X-3212970Y-45847299D01*
X-3217774Y-45831463D01*
X-3220000Y-45808860D01*
X-3220000Y-45401140D01*
X-3217774Y-45378537D01*
X-3212970Y-45362701D01*
X-3205173Y-45348114D01*
X-3194677Y-45335323D01*
X-3181886Y-45324827D01*
X-3167299Y-45317030D01*
X-3151463Y-45312226D01*
X-3128860Y-45310000D01*
X-2671140Y-45310000D01*
X-2648537Y-45312226D01*
G37*
G36*
X18461463Y-45157226D02*
G01*
X18477299Y-45162030D01*
X18491886Y-45169827D01*
X18504677Y-45180323D01*
X18515173Y-45193114D01*
X18522970Y-45207701D01*
X18527774Y-45223537D01*
X18530000Y-45246140D01*
X18530000Y-45703860D01*
X18527774Y-45726463D01*
X18522970Y-45742299D01*
X18515173Y-45756886D01*
X18504677Y-45769677D01*
X18491886Y-45780173D01*
X18477299Y-45787970D01*
X18461463Y-45792774D01*
X18438860Y-45795000D01*
X18031140Y-45795000D01*
X18008537Y-45792774D01*
X17992701Y-45787970D01*
X17978114Y-45780173D01*
X17965323Y-45769677D01*
X17954827Y-45756886D01*
X17947030Y-45742299D01*
X17942226Y-45726463D01*
X17940000Y-45703860D01*
X17940000Y-45246140D01*
X17942226Y-45223537D01*
X17947030Y-45207701D01*
X17954827Y-45193114D01*
X17965323Y-45180323D01*
X17978114Y-45169827D01*
X17992701Y-45162030D01*
X18008537Y-45157226D01*
X18031140Y-45155000D01*
X18438860Y-45155000D01*
X18461463Y-45157226D01*
G37*
G36*
X17491463Y-45157226D02*
G01*
X17507299Y-45162030D01*
X17521886Y-45169827D01*
X17534677Y-45180323D01*
X17545173Y-45193114D01*
X17552970Y-45207701D01*
X17557774Y-45223537D01*
X17560000Y-45246140D01*
X17560000Y-45703860D01*
X17557774Y-45726463D01*
X17552970Y-45742299D01*
X17545173Y-45756886D01*
X17534677Y-45769677D01*
X17521886Y-45780173D01*
X17507299Y-45787970D01*
X17491463Y-45792774D01*
X17468860Y-45795000D01*
X17061140Y-45795000D01*
X17038537Y-45792774D01*
X17022701Y-45787970D01*
X17008114Y-45780173D01*
X16995323Y-45769677D01*
X16984827Y-45756886D01*
X16977030Y-45742299D01*
X16972226Y-45726463D01*
X16970000Y-45703860D01*
X16970000Y-45246140D01*
X16972226Y-45223537D01*
X16977030Y-45207701D01*
X16984827Y-45193114D01*
X16995323Y-45180323D01*
X17008114Y-45169827D01*
X17022701Y-45162030D01*
X17038537Y-45157226D01*
X17061140Y-45155000D01*
X17468860Y-45155000D01*
X17491463Y-45157226D01*
G37*
G36*
X12799116Y-44916095D02*
G01*
X12828311Y-44924952D01*
X12855223Y-44939337D01*
X12878808Y-44958692D01*
X12898163Y-44982277D01*
X12912548Y-45009189D01*
X12921405Y-45038384D01*
X12925000Y-45074890D01*
X12925000Y-45625110D01*
X12921405Y-45661616D01*
X12912548Y-45690811D01*
X12898163Y-45717723D01*
X12878808Y-45741308D01*
X12855223Y-45760663D01*
X12828311Y-45775048D01*
X12799116Y-45783905D01*
X12762610Y-45787500D01*
X12137390Y-45787500D01*
X12100884Y-45783905D01*
X12071689Y-45775048D01*
X12044777Y-45760663D01*
X12021192Y-45741308D01*
X12001837Y-45717723D01*
X11987452Y-45690811D01*
X11978595Y-45661616D01*
X11975000Y-45625110D01*
X11975000Y-45074890D01*
X11978595Y-45038384D01*
X11987452Y-45009189D01*
X12001837Y-44982277D01*
X12021192Y-44958692D01*
X12044777Y-44939337D01*
X12071689Y-44924952D01*
X12100884Y-44916095D01*
X12137390Y-44912500D01*
X12762610Y-44912500D01*
X12799116Y-44916095D01*
G37*
G36*
X16172250Y-44963971D02*
G01*
X15522250Y-44963971D01*
X15522250Y-43743971D01*
X16172250Y-43743971D01*
X16172250Y-44963971D01*
G37*
G36*
X14272250Y-44963971D02*
G01*
X13622250Y-44963971D01*
X13622250Y-43743971D01*
X14272250Y-43743971D01*
X14272250Y-44963971D01*
G37*
G36*
X-2648537Y-44342226D02*
G01*
X-2632701Y-44347030D01*
X-2618114Y-44354827D01*
X-2605323Y-44365323D01*
X-2594827Y-44378114D01*
X-2587030Y-44392701D01*
X-2582226Y-44408537D01*
X-2580000Y-44431140D01*
X-2580000Y-44838860D01*
X-2582226Y-44861463D01*
X-2587030Y-44877299D01*
X-2594827Y-44891886D01*
X-2605323Y-44904677D01*
X-2618114Y-44915173D01*
X-2632701Y-44922970D01*
X-2648537Y-44927774D01*
X-2671140Y-44930000D01*
X-3128860Y-44930000D01*
X-3151463Y-44927774D01*
X-3167299Y-44922970D01*
X-3181886Y-44915173D01*
X-3194677Y-44904677D01*
X-3205173Y-44891886D01*
X-3212970Y-44877299D01*
X-3217774Y-44861463D01*
X-3220000Y-44838860D01*
X-3220000Y-44431140D01*
X-3217774Y-44408537D01*
X-3212970Y-44392701D01*
X-3205173Y-44378114D01*
X-3194677Y-44365323D01*
X-3181886Y-44354827D01*
X-3167299Y-44347030D01*
X-3151463Y-44342226D01*
X-3128860Y-44340000D01*
X-2671140Y-44340000D01*
X-2648537Y-44342226D01*
G37*
G36*
X-783537Y-44282226D02*
G01*
X-767701Y-44287030D01*
X-753114Y-44294827D01*
X-740323Y-44305323D01*
X-729827Y-44318114D01*
X-722030Y-44332701D01*
X-717226Y-44348537D01*
X-715000Y-44371140D01*
X-715000Y-44828860D01*
X-717226Y-44851463D01*
X-722030Y-44867299D01*
X-729827Y-44881886D01*
X-740323Y-44894677D01*
X-753114Y-44905173D01*
X-767701Y-44912970D01*
X-783537Y-44917774D01*
X-806140Y-44920000D01*
X-1213860Y-44920000D01*
X-1236463Y-44917774D01*
X-1252299Y-44912970D01*
X-1266886Y-44905173D01*
X-1279677Y-44894677D01*
X-1290173Y-44881886D01*
X-1297970Y-44867299D01*
X-1302774Y-44851463D01*
X-1305000Y-44828860D01*
X-1305000Y-44371140D01*
X-1302774Y-44348537D01*
X-1297970Y-44332701D01*
X-1290173Y-44318114D01*
X-1279677Y-44305323D01*
X-1266886Y-44294827D01*
X-1252299Y-44287030D01*
X-1236463Y-44282226D01*
X-1213860Y-44280000D01*
X-806140Y-44280000D01*
X-783537Y-44282226D01*
G37*
G36*
X-1753537Y-44282226D02*
G01*
X-1737701Y-44287030D01*
X-1723114Y-44294827D01*
X-1710323Y-44305323D01*
X-1699827Y-44318114D01*
X-1692030Y-44332701D01*
X-1687226Y-44348537D01*
X-1685000Y-44371140D01*
X-1685000Y-44828860D01*
X-1687226Y-44851463D01*
X-1692030Y-44867299D01*
X-1699827Y-44881886D01*
X-1710323Y-44894677D01*
X-1723114Y-44905173D01*
X-1737701Y-44912970D01*
X-1753537Y-44917774D01*
X-1776140Y-44920000D01*
X-2183860Y-44920000D01*
X-2206463Y-44917774D01*
X-2222299Y-44912970D01*
X-2236886Y-44905173D01*
X-2249677Y-44894677D01*
X-2260173Y-44881886D01*
X-2267970Y-44867299D01*
X-2272774Y-44851463D01*
X-2275000Y-44828860D01*
X-2275000Y-44371140D01*
X-2272774Y-44348537D01*
X-2267970Y-44332701D01*
X-2260173Y-44318114D01*
X-2249677Y-44305323D01*
X-2236886Y-44294827D01*
X-2222299Y-44287030D01*
X-2206463Y-44282226D01*
X-2183860Y-44280000D01*
X-1776140Y-44280000D01*
X-1753537Y-44282226D01*
G37*
G36*
X18448709Y-44167226D02*
G01*
X18464545Y-44172030D01*
X18479132Y-44179827D01*
X18491923Y-44190323D01*
X18502419Y-44203114D01*
X18510216Y-44217701D01*
X18515020Y-44233537D01*
X18517246Y-44256140D01*
X18517246Y-44663860D01*
X18515020Y-44686463D01*
X18510216Y-44702299D01*
X18502419Y-44716886D01*
X18491923Y-44729677D01*
X18479132Y-44740173D01*
X18464545Y-44747970D01*
X18448709Y-44752774D01*
X18426106Y-44755000D01*
X17968386Y-44755000D01*
X17945783Y-44752774D01*
X17929947Y-44747970D01*
X17915360Y-44740173D01*
X17902569Y-44729677D01*
X17892073Y-44716886D01*
X17884276Y-44702299D01*
X17879472Y-44686463D01*
X17877246Y-44663860D01*
X17877246Y-44256140D01*
X17879472Y-44233537D01*
X17884276Y-44217701D01*
X17892073Y-44203114D01*
X17902569Y-44190323D01*
X17915360Y-44179827D01*
X17929947Y-44172030D01*
X17945783Y-44167226D01*
X17968386Y-44165000D01*
X18426106Y-44165000D01*
X18448709Y-44167226D01*
G37*
G36*
X17401463Y-44167226D02*
G01*
X17417299Y-44172030D01*
X17431886Y-44179827D01*
X17444677Y-44190323D01*
X17455173Y-44203114D01*
X17462970Y-44217701D01*
X17467774Y-44233537D01*
X17470000Y-44256140D01*
X17470000Y-44663860D01*
X17467774Y-44686463D01*
X17462970Y-44702299D01*
X17455173Y-44716886D01*
X17444677Y-44729677D01*
X17431886Y-44740173D01*
X17417299Y-44747970D01*
X17401463Y-44752774D01*
X17378860Y-44755000D01*
X16921140Y-44755000D01*
X16898537Y-44752774D01*
X16882701Y-44747970D01*
X16868114Y-44740173D01*
X16855323Y-44729677D01*
X16844827Y-44716886D01*
X16837030Y-44702299D01*
X16832226Y-44686463D01*
X16830000Y-44663860D01*
X16830000Y-44256140D01*
X16832226Y-44233537D01*
X16837030Y-44217701D01*
X16844827Y-44203114D01*
X16855323Y-44190323D01*
X16868114Y-44179827D01*
X16882701Y-44172030D01*
X16898537Y-44167226D01*
X16921140Y-44165000D01*
X17378860Y-44165000D01*
X17401463Y-44167226D01*
G37*
G36*
X11303991Y-43754075D02*
G01*
X11337879Y-43764355D01*
X11369112Y-43781050D01*
X11396486Y-43803514D01*
X11418950Y-43830888D01*
X11435645Y-43862121D01*
X11445925Y-43896009D01*
X11450000Y-43937388D01*
X11450000Y-44537612D01*
X11445925Y-44578991D01*
X11435645Y-44612879D01*
X11418950Y-44644112D01*
X11396486Y-44671486D01*
X11369112Y-44693950D01*
X11337879Y-44710645D01*
X11303991Y-44720925D01*
X11262612Y-44725000D01*
X10237388Y-44725000D01*
X10196009Y-44720925D01*
X10162121Y-44710645D01*
X10130888Y-44693950D01*
X10103514Y-44671486D01*
X10081050Y-44644112D01*
X10064355Y-44612879D01*
X10054075Y-44578991D01*
X10050000Y-44537612D01*
X10050000Y-43937388D01*
X10054075Y-43896009D01*
X10064355Y-43862121D01*
X10081050Y-43830888D01*
X10103514Y-43803514D01*
X10130888Y-43781050D01*
X10162121Y-43764355D01*
X10196009Y-43754075D01*
X10237388Y-43750000D01*
X11262612Y-43750000D01*
X11303991Y-43754075D01*
G37*
G36*
X12799116Y-43341095D02*
G01*
X12828311Y-43349952D01*
X12855223Y-43364337D01*
X12878808Y-43383692D01*
X12898163Y-43407277D01*
X12912548Y-43434189D01*
X12921405Y-43463384D01*
X12925000Y-43499890D01*
X12925000Y-44050110D01*
X12921405Y-44086616D01*
X12912548Y-44115811D01*
X12898163Y-44142723D01*
X12878808Y-44166308D01*
X12855223Y-44185663D01*
X12828311Y-44200048D01*
X12799116Y-44208905D01*
X12762610Y-44212500D01*
X12137390Y-44212500D01*
X12100884Y-44208905D01*
X12071689Y-44200048D01*
X12044777Y-44185663D01*
X12021192Y-44166308D01*
X12001837Y-44142723D01*
X11987452Y-44115811D01*
X11978595Y-44086616D01*
X11975000Y-44050110D01*
X11975000Y-43499890D01*
X11978595Y-43463384D01*
X11987452Y-43434189D01*
X12001837Y-43407277D01*
X12021192Y-43383692D01*
X12044777Y-43364337D01*
X12071689Y-43349952D01*
X12100884Y-43341095D01*
X12137390Y-43337500D01*
X12762610Y-43337500D01*
X12799116Y-43341095D01*
G37*
G36*
X4617991Y-42999075D02*
G01*
X4651879Y-43009355D01*
X4683112Y-43026050D01*
X4710486Y-43048514D01*
X4732950Y-43075888D01*
X4749645Y-43107121D01*
X4759925Y-43141009D01*
X4764000Y-43182388D01*
X4764000Y-43782612D01*
X4759925Y-43823991D01*
X4749645Y-43857879D01*
X4732950Y-43889112D01*
X4710486Y-43916486D01*
X4683112Y-43938950D01*
X4651879Y-43955645D01*
X4617991Y-43965925D01*
X4576612Y-43970000D01*
X3551388Y-43970000D01*
X3510009Y-43965925D01*
X3476121Y-43955645D01*
X3444888Y-43938950D01*
X3417514Y-43916486D01*
X3395050Y-43889112D01*
X3378355Y-43857879D01*
X3368075Y-43823991D01*
X3364000Y-43782612D01*
X3364000Y-43182388D01*
X3368075Y-43141009D01*
X3378355Y-43107121D01*
X3395050Y-43075888D01*
X3417514Y-43048514D01*
X3444888Y-43026050D01*
X3476121Y-43009355D01*
X3510009Y-42999075D01*
X3551388Y-42995000D01*
X4576612Y-42995000D01*
X4617991Y-42999075D01*
G37*
G36*
X6191116Y-43051095D02*
G01*
X6220311Y-43059952D01*
X6247223Y-43074337D01*
X6270808Y-43093692D01*
X6290163Y-43117277D01*
X6304548Y-43144189D01*
X6313405Y-43173384D01*
X6317000Y-43209890D01*
X6317000Y-43760110D01*
X6313405Y-43796616D01*
X6304548Y-43825811D01*
X6290163Y-43852723D01*
X6270808Y-43876308D01*
X6247223Y-43895663D01*
X6220311Y-43910048D01*
X6191116Y-43918905D01*
X6154610Y-43922500D01*
X5529390Y-43922500D01*
X5492884Y-43918905D01*
X5463689Y-43910048D01*
X5436777Y-43895663D01*
X5413192Y-43876308D01*
X5393837Y-43852723D01*
X5379452Y-43825811D01*
X5370595Y-43796616D01*
X5367000Y-43760110D01*
X5367000Y-43209890D01*
X5370595Y-43173384D01*
X5379452Y-43144189D01*
X5393837Y-43117277D01*
X5413192Y-43093692D01*
X5436777Y-43074337D01*
X5463689Y-43059952D01*
X5492884Y-43051095D01*
X5529390Y-43047500D01*
X6154610Y-43047500D01*
X6191116Y-43051095D01*
G37*
G36*
X18448709Y-43197226D02*
G01*
X18464545Y-43202030D01*
X18479132Y-43209827D01*
X18491923Y-43220323D01*
X18502419Y-43233114D01*
X18510216Y-43247701D01*
X18515020Y-43263537D01*
X18517246Y-43286140D01*
X18517246Y-43693860D01*
X18515020Y-43716463D01*
X18510216Y-43732299D01*
X18502419Y-43746886D01*
X18491923Y-43759677D01*
X18479132Y-43770173D01*
X18464545Y-43777970D01*
X18448709Y-43782774D01*
X18426106Y-43785000D01*
X17968386Y-43785000D01*
X17945783Y-43782774D01*
X17929947Y-43777970D01*
X17915360Y-43770173D01*
X17902569Y-43759677D01*
X17892073Y-43746886D01*
X17884276Y-43732299D01*
X17879472Y-43716463D01*
X17877246Y-43693860D01*
X17877246Y-43286140D01*
X17879472Y-43263537D01*
X17884276Y-43247701D01*
X17892073Y-43233114D01*
X17902569Y-43220323D01*
X17915360Y-43209827D01*
X17929947Y-43202030D01*
X17945783Y-43197226D01*
X17968386Y-43195000D01*
X18426106Y-43195000D01*
X18448709Y-43197226D01*
G37*
G36*
X17401463Y-43197226D02*
G01*
X17417299Y-43202030D01*
X17431886Y-43209827D01*
X17444677Y-43220323D01*
X17455173Y-43233114D01*
X17462970Y-43247701D01*
X17467774Y-43263537D01*
X17470000Y-43286140D01*
X17470000Y-43693860D01*
X17467774Y-43716463D01*
X17462970Y-43732299D01*
X17455173Y-43746886D01*
X17444677Y-43759677D01*
X17431886Y-43770173D01*
X17417299Y-43777970D01*
X17401463Y-43782774D01*
X17378860Y-43785000D01*
X16921140Y-43785000D01*
X16898537Y-43782774D01*
X16882701Y-43777970D01*
X16868114Y-43770173D01*
X16855323Y-43759677D01*
X16844827Y-43746886D01*
X16837030Y-43732299D01*
X16832226Y-43716463D01*
X16830000Y-43693860D01*
X16830000Y-43286140D01*
X16832226Y-43263537D01*
X16837030Y-43247701D01*
X16844827Y-43233114D01*
X16855323Y-43220323D01*
X16868114Y-43209827D01*
X16882701Y-43202030D01*
X16898537Y-43197226D01*
X16921140Y-43195000D01*
X17378860Y-43195000D01*
X17401463Y-43197226D01*
G37*
G36*
X-3955397Y-41475480D02*
G01*
X-3916190Y-41479341D01*
X-3859640Y-41496496D01*
X-3859637Y-41496497D01*
X-3807524Y-41524352D01*
X-3761842Y-41561842D01*
X-3724352Y-41607524D01*
X-3696497Y-41659637D01*
X-3696496Y-41659640D01*
X-3679341Y-41716190D01*
X-3675000Y-41760267D01*
X-3675000Y-42789733D01*
X-3679341Y-42833810D01*
X-3696496Y-42890359D01*
X-3696497Y-42890363D01*
X-3724352Y-42942476D01*
X-3761841Y-42988157D01*
X-3807525Y-43025648D01*
X-3859638Y-43053503D01*
X-3859641Y-43053504D01*
X-3916191Y-43070659D01*
X-3975000Y-43076451D01*
X-3975001Y-43076451D01*
X-3996465Y-43074337D01*
X-4033810Y-43070659D01*
X-4090360Y-43053504D01*
X-4090363Y-43053503D01*
X-4142476Y-43025648D01*
X-4188157Y-42988159D01*
X-4225648Y-42942475D01*
X-4253503Y-42890362D01*
X-4253504Y-42890359D01*
X-4270659Y-42833809D01*
X-4275000Y-42789732D01*
X-4274999Y-41760267D01*
X-4270658Y-41716190D01*
X-4253503Y-41659640D01*
X-4253502Y-41659637D01*
X-4225647Y-41607524D01*
X-4188157Y-41561842D01*
X-4142475Y-41524352D01*
X-4090362Y-41496497D01*
X-4090359Y-41496496D01*
X-4033809Y-41479341D01*
X-3975000Y-41473549D01*
X-3974999Y-41473549D01*
X-3955397Y-41475480D01*
G37*
G36*
X-1755397Y-41475480D02*
G01*
X-1716190Y-41479341D01*
X-1659640Y-41496496D01*
X-1659637Y-41496497D01*
X-1607524Y-41524352D01*
X-1561842Y-41561842D01*
X-1524352Y-41607524D01*
X-1496497Y-41659637D01*
X-1496496Y-41659640D01*
X-1479341Y-41716190D01*
X-1475000Y-41760267D01*
X-1475000Y-42789733D01*
X-1479341Y-42833810D01*
X-1496496Y-42890359D01*
X-1496497Y-42890363D01*
X-1524352Y-42942476D01*
X-1561841Y-42988157D01*
X-1607525Y-43025648D01*
X-1659638Y-43053503D01*
X-1659641Y-43053504D01*
X-1716191Y-43070659D01*
X-1775000Y-43076451D01*
X-1775001Y-43076451D01*
X-1796465Y-43074337D01*
X-1833810Y-43070659D01*
X-1890360Y-43053504D01*
X-1890363Y-43053503D01*
X-1942476Y-43025648D01*
X-1988157Y-42988159D01*
X-2025648Y-42942475D01*
X-2053503Y-42890362D01*
X-2053504Y-42890359D01*
X-2070659Y-42833809D01*
X-2075000Y-42789732D01*
X-2074999Y-41760267D01*
X-2070658Y-41716190D01*
X-2053503Y-41659640D01*
X-2053502Y-41659637D01*
X-2025647Y-41607524D01*
X-1988157Y-41561842D01*
X-1942475Y-41524352D01*
X-1890362Y-41496497D01*
X-1890359Y-41496496D01*
X-1833809Y-41479341D01*
X-1775000Y-41473549D01*
X-1774999Y-41473549D01*
X-1755397Y-41475480D01*
G37*
G36*
X-2855397Y-41475480D02*
G01*
X-2816190Y-41479341D01*
X-2759640Y-41496496D01*
X-2759637Y-41496497D01*
X-2707524Y-41524352D01*
X-2661842Y-41561842D01*
X-2624352Y-41607524D01*
X-2596497Y-41659637D01*
X-2596496Y-41659640D01*
X-2579341Y-41716190D01*
X-2575000Y-41760267D01*
X-2575000Y-42789733D01*
X-2579341Y-42833810D01*
X-2596496Y-42890359D01*
X-2596497Y-42890363D01*
X-2624352Y-42942476D01*
X-2661841Y-42988157D01*
X-2707525Y-43025648D01*
X-2759638Y-43053503D01*
X-2759641Y-43053504D01*
X-2816191Y-43070659D01*
X-2875000Y-43076451D01*
X-2875001Y-43076451D01*
X-2896465Y-43074337D01*
X-2933810Y-43070659D01*
X-2990360Y-43053504D01*
X-2990363Y-43053503D01*
X-3042476Y-43025648D01*
X-3088157Y-42988159D01*
X-3125648Y-42942475D01*
X-3153503Y-42890362D01*
X-3153504Y-42890359D01*
X-3170659Y-42833809D01*
X-3175000Y-42789732D01*
X-3174999Y-41760267D01*
X-3170658Y-41716190D01*
X-3153503Y-41659640D01*
X-3153502Y-41659637D01*
X-3125647Y-41607524D01*
X-3088157Y-41561842D01*
X-3042475Y-41524352D01*
X-2990362Y-41496497D01*
X-2990359Y-41496496D01*
X-2933809Y-41479341D01*
X-2875000Y-41473549D01*
X-2874999Y-41473549D01*
X-2855397Y-41475480D01*
G37*
G36*
X-5055397Y-41475480D02*
G01*
X-5016190Y-41479341D01*
X-4959640Y-41496496D01*
X-4959637Y-41496497D01*
X-4907524Y-41524352D01*
X-4861842Y-41561842D01*
X-4824352Y-41607524D01*
X-4796497Y-41659637D01*
X-4796496Y-41659640D01*
X-4779341Y-41716190D01*
X-4775000Y-41760267D01*
X-4775000Y-42789733D01*
X-4779341Y-42833810D01*
X-4796496Y-42890359D01*
X-4796497Y-42890363D01*
X-4824352Y-42942476D01*
X-4861841Y-42988157D01*
X-4907525Y-43025648D01*
X-4959638Y-43053503D01*
X-4959641Y-43053504D01*
X-5016191Y-43070659D01*
X-5075000Y-43076451D01*
X-5075001Y-43076451D01*
X-5096465Y-43074337D01*
X-5133810Y-43070659D01*
X-5190360Y-43053504D01*
X-5190363Y-43053503D01*
X-5242476Y-43025648D01*
X-5288157Y-42988159D01*
X-5325648Y-42942475D01*
X-5353503Y-42890362D01*
X-5353504Y-42890359D01*
X-5370659Y-42833809D01*
X-5375000Y-42789732D01*
X-5374999Y-41760267D01*
X-5370658Y-41716190D01*
X-5353503Y-41659640D01*
X-5353502Y-41659637D01*
X-5325647Y-41607524D01*
X-5288157Y-41561842D01*
X-5242475Y-41524352D01*
X-5190362Y-41496497D01*
X-5190359Y-41496496D01*
X-5133809Y-41479341D01*
X-5075000Y-41473549D01*
X-5074999Y-41473549D01*
X-5055397Y-41475480D01*
G37*
G36*
X-6155397Y-41475480D02*
G01*
X-6116190Y-41479341D01*
X-6059640Y-41496496D01*
X-6059637Y-41496497D01*
X-6007524Y-41524352D01*
X-5961842Y-41561842D01*
X-5924352Y-41607524D01*
X-5896497Y-41659637D01*
X-5896496Y-41659640D01*
X-5879341Y-41716190D01*
X-5875000Y-41760267D01*
X-5875000Y-42789733D01*
X-5879341Y-42833810D01*
X-5896496Y-42890359D01*
X-5896497Y-42890363D01*
X-5924352Y-42942476D01*
X-5961841Y-42988157D01*
X-6007525Y-43025648D01*
X-6059638Y-43053503D01*
X-6059641Y-43053504D01*
X-6116191Y-43070659D01*
X-6175000Y-43076451D01*
X-6175001Y-43076451D01*
X-6196465Y-43074337D01*
X-6233810Y-43070659D01*
X-6290360Y-43053504D01*
X-6290363Y-43053503D01*
X-6342476Y-43025648D01*
X-6388157Y-42988159D01*
X-6425648Y-42942475D01*
X-6453503Y-42890362D01*
X-6453504Y-42890359D01*
X-6470659Y-42833809D01*
X-6475000Y-42789732D01*
X-6474999Y-41760267D01*
X-6470658Y-41716190D01*
X-6453503Y-41659640D01*
X-6453502Y-41659637D01*
X-6425647Y-41607524D01*
X-6388157Y-41561842D01*
X-6342475Y-41524352D01*
X-6290362Y-41496497D01*
X-6290359Y-41496496D01*
X-6233809Y-41479341D01*
X-6175000Y-41473549D01*
X-6174999Y-41473549D01*
X-6155397Y-41475480D01*
G37*
G36*
X-7255397Y-41475480D02*
G01*
X-7216190Y-41479341D01*
X-7159640Y-41496496D01*
X-7159637Y-41496497D01*
X-7107524Y-41524352D01*
X-7061842Y-41561842D01*
X-7024352Y-41607524D01*
X-6996497Y-41659637D01*
X-6996496Y-41659640D01*
X-6979341Y-41716190D01*
X-6975000Y-41760267D01*
X-6975000Y-42789733D01*
X-6979341Y-42833810D01*
X-6996496Y-42890359D01*
X-6996497Y-42890363D01*
X-7024352Y-42942476D01*
X-7061841Y-42988157D01*
X-7107525Y-43025648D01*
X-7159638Y-43053503D01*
X-7159641Y-43053504D01*
X-7216191Y-43070659D01*
X-7275000Y-43076451D01*
X-7275001Y-43076451D01*
X-7296465Y-43074337D01*
X-7333810Y-43070659D01*
X-7390360Y-43053504D01*
X-7390363Y-43053503D01*
X-7442476Y-43025648D01*
X-7488157Y-42988159D01*
X-7525648Y-42942475D01*
X-7553503Y-42890362D01*
X-7553504Y-42890359D01*
X-7570659Y-42833809D01*
X-7575000Y-42789732D01*
X-7574999Y-41760267D01*
X-7570658Y-41716190D01*
X-7553503Y-41659640D01*
X-7553502Y-41659637D01*
X-7525647Y-41607524D01*
X-7488157Y-41561842D01*
X-7442475Y-41524352D01*
X-7390362Y-41496497D01*
X-7390359Y-41496496D01*
X-7333809Y-41479341D01*
X-7275000Y-41473549D01*
X-7274999Y-41473549D01*
X-7255397Y-41475480D01*
G37*
G36*
X-10555397Y-41475480D02*
G01*
X-10516190Y-41479341D01*
X-10459640Y-41496496D01*
X-10459637Y-41496497D01*
X-10407524Y-41524352D01*
X-10361842Y-41561842D01*
X-10324352Y-41607524D01*
X-10296497Y-41659637D01*
X-10296496Y-41659640D01*
X-10279341Y-41716190D01*
X-10275000Y-41760267D01*
X-10275000Y-42789733D01*
X-10279341Y-42833810D01*
X-10296496Y-42890359D01*
X-10296497Y-42890363D01*
X-10324352Y-42942476D01*
X-10361841Y-42988157D01*
X-10407525Y-43025648D01*
X-10459638Y-43053503D01*
X-10459641Y-43053504D01*
X-10516191Y-43070659D01*
X-10575000Y-43076451D01*
X-10575001Y-43076451D01*
X-10596465Y-43074337D01*
X-10633810Y-43070659D01*
X-10690360Y-43053504D01*
X-10690363Y-43053503D01*
X-10742476Y-43025648D01*
X-10788157Y-42988159D01*
X-10825648Y-42942475D01*
X-10853503Y-42890362D01*
X-10853504Y-42890359D01*
X-10870659Y-42833809D01*
X-10875000Y-42789732D01*
X-10874999Y-41760267D01*
X-10870658Y-41716190D01*
X-10853503Y-41659640D01*
X-10853502Y-41659637D01*
X-10825647Y-41607524D01*
X-10788157Y-41561842D01*
X-10742475Y-41524352D01*
X-10690362Y-41496497D01*
X-10690359Y-41496496D01*
X-10633809Y-41479341D01*
X-10575000Y-41473549D01*
X-10574999Y-41473549D01*
X-10555397Y-41475480D01*
G37*
G36*
X-8355397Y-41475480D02*
G01*
X-8316190Y-41479341D01*
X-8259640Y-41496496D01*
X-8259637Y-41496497D01*
X-8207524Y-41524352D01*
X-8161842Y-41561842D01*
X-8124352Y-41607524D01*
X-8096497Y-41659637D01*
X-8096496Y-41659640D01*
X-8079341Y-41716190D01*
X-8075000Y-41760267D01*
X-8075000Y-42789733D01*
X-8079341Y-42833810D01*
X-8096496Y-42890359D01*
X-8096497Y-42890363D01*
X-8124352Y-42942476D01*
X-8161841Y-42988157D01*
X-8207525Y-43025648D01*
X-8259638Y-43053503D01*
X-8259641Y-43053504D01*
X-8316191Y-43070659D01*
X-8375000Y-43076451D01*
X-8375001Y-43076451D01*
X-8396465Y-43074337D01*
X-8433810Y-43070659D01*
X-8490360Y-43053504D01*
X-8490363Y-43053503D01*
X-8542476Y-43025648D01*
X-8588157Y-42988159D01*
X-8625648Y-42942475D01*
X-8653503Y-42890362D01*
X-8653504Y-42890359D01*
X-8670659Y-42833809D01*
X-8675000Y-42789732D01*
X-8674999Y-41760267D01*
X-8670658Y-41716190D01*
X-8653503Y-41659640D01*
X-8653502Y-41659637D01*
X-8625647Y-41607524D01*
X-8588157Y-41561842D01*
X-8542475Y-41524352D01*
X-8490362Y-41496497D01*
X-8490359Y-41496496D01*
X-8433809Y-41479341D01*
X-8375000Y-41473549D01*
X-8374999Y-41473549D01*
X-8355397Y-41475480D01*
G37*
G36*
X-9455397Y-41475480D02*
G01*
X-9416190Y-41479341D01*
X-9359640Y-41496496D01*
X-9359637Y-41496497D01*
X-9307524Y-41524352D01*
X-9261842Y-41561842D01*
X-9224352Y-41607524D01*
X-9196497Y-41659637D01*
X-9196496Y-41659640D01*
X-9179341Y-41716190D01*
X-9175000Y-41760267D01*
X-9175000Y-42789733D01*
X-9179341Y-42833810D01*
X-9196496Y-42890359D01*
X-9196497Y-42890363D01*
X-9224352Y-42942476D01*
X-9261841Y-42988157D01*
X-9307525Y-43025648D01*
X-9359638Y-43053503D01*
X-9359641Y-43053504D01*
X-9416191Y-43070659D01*
X-9475000Y-43076451D01*
X-9475001Y-43076451D01*
X-9496465Y-43074337D01*
X-9533810Y-43070659D01*
X-9590360Y-43053504D01*
X-9590363Y-43053503D01*
X-9642476Y-43025648D01*
X-9688157Y-42988159D01*
X-9725648Y-42942475D01*
X-9753503Y-42890362D01*
X-9753504Y-42890359D01*
X-9770659Y-42833809D01*
X-9775000Y-42789732D01*
X-9774999Y-41760267D01*
X-9770658Y-41716190D01*
X-9753503Y-41659640D01*
X-9753502Y-41659637D01*
X-9725647Y-41607524D01*
X-9688157Y-41561842D01*
X-9642475Y-41524352D01*
X-9590362Y-41496497D01*
X-9590359Y-41496496D01*
X-9533809Y-41479341D01*
X-9475000Y-41473549D01*
X-9474999Y-41473549D01*
X-9455397Y-41475480D01*
G37*
G36*
X-13855397Y-41475480D02*
G01*
X-13816190Y-41479341D01*
X-13759640Y-41496496D01*
X-13759637Y-41496497D01*
X-13707524Y-41524352D01*
X-13661842Y-41561842D01*
X-13624352Y-41607524D01*
X-13596497Y-41659637D01*
X-13596496Y-41659640D01*
X-13579341Y-41716190D01*
X-13575000Y-41760267D01*
X-13575000Y-42789733D01*
X-13579341Y-42833810D01*
X-13596496Y-42890359D01*
X-13596497Y-42890363D01*
X-13624352Y-42942476D01*
X-13661841Y-42988157D01*
X-13707525Y-43025648D01*
X-13759638Y-43053503D01*
X-13759641Y-43053504D01*
X-13816191Y-43070659D01*
X-13875000Y-43076451D01*
X-13875001Y-43076451D01*
X-13896465Y-43074337D01*
X-13933810Y-43070659D01*
X-13990360Y-43053504D01*
X-13990363Y-43053503D01*
X-14042476Y-43025648D01*
X-14088157Y-42988159D01*
X-14125648Y-42942475D01*
X-14153503Y-42890362D01*
X-14153504Y-42890359D01*
X-14170659Y-42833809D01*
X-14175000Y-42789732D01*
X-14174999Y-41760267D01*
X-14170658Y-41716190D01*
X-14153503Y-41659640D01*
X-14153502Y-41659637D01*
X-14125647Y-41607524D01*
X-14088157Y-41561842D01*
X-14042475Y-41524352D01*
X-13990362Y-41496497D01*
X-13990359Y-41496496D01*
X-13933809Y-41479341D01*
X-13875000Y-41473549D01*
X-13874999Y-41473549D01*
X-13855397Y-41475480D01*
G37*
G36*
X-11655397Y-41475480D02*
G01*
X-11616190Y-41479341D01*
X-11559640Y-41496496D01*
X-11559637Y-41496497D01*
X-11507524Y-41524352D01*
X-11461842Y-41561842D01*
X-11424352Y-41607524D01*
X-11396497Y-41659637D01*
X-11396496Y-41659640D01*
X-11379341Y-41716190D01*
X-11375000Y-41760267D01*
X-11375000Y-42789733D01*
X-11379341Y-42833810D01*
X-11396496Y-42890359D01*
X-11396497Y-42890363D01*
X-11424352Y-42942476D01*
X-11461841Y-42988157D01*
X-11507525Y-43025648D01*
X-11559638Y-43053503D01*
X-11559641Y-43053504D01*
X-11616191Y-43070659D01*
X-11675000Y-43076451D01*
X-11675001Y-43076451D01*
X-11696465Y-43074337D01*
X-11733810Y-43070659D01*
X-11790360Y-43053504D01*
X-11790363Y-43053503D01*
X-11842476Y-43025648D01*
X-11888157Y-42988159D01*
X-11925648Y-42942475D01*
X-11953503Y-42890362D01*
X-11953504Y-42890359D01*
X-11970659Y-42833809D01*
X-11975000Y-42789732D01*
X-11974999Y-41760267D01*
X-11970658Y-41716190D01*
X-11953503Y-41659640D01*
X-11953502Y-41659637D01*
X-11925647Y-41607524D01*
X-11888157Y-41561842D01*
X-11842475Y-41524352D01*
X-11790362Y-41496497D01*
X-11790359Y-41496496D01*
X-11733809Y-41479341D01*
X-11675000Y-41473549D01*
X-11674999Y-41473549D01*
X-11655397Y-41475480D01*
G37*
G36*
X-12755397Y-41475480D02*
G01*
X-12716190Y-41479341D01*
X-12659640Y-41496496D01*
X-12659637Y-41496497D01*
X-12607524Y-41524352D01*
X-12561842Y-41561842D01*
X-12524352Y-41607524D01*
X-12496497Y-41659637D01*
X-12496496Y-41659640D01*
X-12479341Y-41716190D01*
X-12475000Y-41760267D01*
X-12475000Y-42789733D01*
X-12479341Y-42833810D01*
X-12496496Y-42890359D01*
X-12496497Y-42890363D01*
X-12524352Y-42942476D01*
X-12561841Y-42988157D01*
X-12607525Y-43025648D01*
X-12659638Y-43053503D01*
X-12659641Y-43053504D01*
X-12716191Y-43070659D01*
X-12775000Y-43076451D01*
X-12775001Y-43076451D01*
X-12796465Y-43074337D01*
X-12833810Y-43070659D01*
X-12890360Y-43053504D01*
X-12890363Y-43053503D01*
X-12942476Y-43025648D01*
X-12988157Y-42988159D01*
X-13025648Y-42942475D01*
X-13053503Y-42890362D01*
X-13053504Y-42890359D01*
X-13070659Y-42833809D01*
X-13075000Y-42789732D01*
X-13074999Y-41760267D01*
X-13070658Y-41716190D01*
X-13053503Y-41659640D01*
X-13053502Y-41659637D01*
X-13025647Y-41607524D01*
X-12988157Y-41561842D01*
X-12942475Y-41524352D01*
X-12890362Y-41496497D01*
X-12890359Y-41496496D01*
X-12833809Y-41479341D01*
X-12775000Y-41473549D01*
X-12774999Y-41473549D01*
X-12755397Y-41475480D01*
G37*
G36*
X17401463Y-42267226D02*
G01*
X17417299Y-42272030D01*
X17431886Y-42279827D01*
X17444677Y-42290323D01*
X17455173Y-42303114D01*
X17462970Y-42317701D01*
X17467774Y-42333537D01*
X17470000Y-42356140D01*
X17470000Y-42763860D01*
X17467774Y-42786463D01*
X17462970Y-42802299D01*
X17455173Y-42816886D01*
X17444677Y-42829677D01*
X17431886Y-42840173D01*
X17417299Y-42847970D01*
X17401463Y-42852774D01*
X17378860Y-42855000D01*
X16921140Y-42855000D01*
X16898537Y-42852774D01*
X16882701Y-42847970D01*
X16868114Y-42840173D01*
X16855323Y-42829677D01*
X16844827Y-42816886D01*
X16837030Y-42802299D01*
X16832226Y-42786463D01*
X16830000Y-42763860D01*
X16830000Y-42356140D01*
X16832226Y-42333537D01*
X16837030Y-42317701D01*
X16844827Y-42303114D01*
X16855323Y-42290323D01*
X16868114Y-42279827D01*
X16882701Y-42272030D01*
X16898537Y-42267226D01*
X16921140Y-42265000D01*
X17378860Y-42265000D01*
X17401463Y-42267226D01*
G37*
G36*
X12906000Y-42717000D02*
G01*
X10706000Y-42717000D01*
X10706000Y-38817000D01*
X12906000Y-38817000D01*
X12906000Y-42717000D01*
G37*
G36*
X9106000Y-42717000D02*
G01*
X6906000Y-42717000D01*
X6906000Y-38817000D01*
X9106000Y-38817000D01*
X9106000Y-42717000D01*
G37*
G36*
X6191116Y-41476095D02*
G01*
X6220311Y-41484952D01*
X6247223Y-41499337D01*
X6270808Y-41518692D01*
X6290163Y-41542277D01*
X6304548Y-41569189D01*
X6313405Y-41598384D01*
X6317000Y-41634890D01*
X6317000Y-42185110D01*
X6313405Y-42221616D01*
X6304548Y-42250811D01*
X6290163Y-42277723D01*
X6270808Y-42301308D01*
X6247223Y-42320663D01*
X6220311Y-42335048D01*
X6191116Y-42343905D01*
X6154610Y-42347500D01*
X5529390Y-42347500D01*
X5492884Y-42343905D01*
X5463689Y-42335048D01*
X5436777Y-42320663D01*
X5413192Y-42301308D01*
X5393837Y-42277723D01*
X5379452Y-42250811D01*
X5370595Y-42221616D01*
X5367000Y-42185110D01*
X5367000Y-41634890D01*
X5370595Y-41598384D01*
X5379452Y-41569189D01*
X5393837Y-41542277D01*
X5413192Y-41518692D01*
X5436777Y-41499337D01*
X5463689Y-41484952D01*
X5492884Y-41476095D01*
X5529390Y-41472500D01*
X6154610Y-41472500D01*
X6191116Y-41476095D01*
G37*
G36*
X15222250Y-42343971D02*
G01*
X14572250Y-42343971D01*
X14572250Y-41123971D01*
X15222250Y-41123971D01*
X15222250Y-42343971D01*
G37*
G36*
X16172250Y-42343971D02*
G01*
X15522250Y-42343971D01*
X15522250Y-41123971D01*
X16172250Y-41123971D01*
X16172250Y-42343971D01*
G37*
G36*
X14272250Y-42343971D02*
G01*
X13622250Y-42343971D01*
X13622250Y-41123971D01*
X14272250Y-41123971D01*
X14272250Y-42343971D01*
G37*
G36*
X4617991Y-41124075D02*
G01*
X4651879Y-41134355D01*
X4683112Y-41151050D01*
X4710486Y-41173514D01*
X4732950Y-41200888D01*
X4749645Y-41232121D01*
X4759925Y-41266009D01*
X4764000Y-41307388D01*
X4764000Y-41907612D01*
X4759925Y-41948991D01*
X4749645Y-41982879D01*
X4732950Y-42014112D01*
X4710486Y-42041486D01*
X4683112Y-42063950D01*
X4651879Y-42080645D01*
X4617991Y-42090925D01*
X4576612Y-42095000D01*
X3551388Y-42095000D01*
X3510009Y-42090925D01*
X3476121Y-42080645D01*
X3444888Y-42063950D01*
X3417514Y-42041486D01*
X3395050Y-42014112D01*
X3378355Y-41982879D01*
X3368075Y-41948991D01*
X3364000Y-41907612D01*
X3364000Y-41307388D01*
X3368075Y-41266009D01*
X3378355Y-41232121D01*
X3395050Y-41200888D01*
X3417514Y-41173514D01*
X3444888Y-41151050D01*
X3476121Y-41134355D01*
X3510009Y-41124075D01*
X3551388Y-41120000D01*
X4576612Y-41120000D01*
X4617991Y-41124075D01*
G37*
G36*
X17401463Y-41297226D02*
G01*
X17417299Y-41302030D01*
X17431886Y-41309827D01*
X17444677Y-41320323D01*
X17455173Y-41333114D01*
X17462970Y-41347701D01*
X17467774Y-41363537D01*
X17470000Y-41386140D01*
X17470000Y-41793860D01*
X17467774Y-41816463D01*
X17462970Y-41832299D01*
X17455173Y-41846886D01*
X17444677Y-41859677D01*
X17431886Y-41870173D01*
X17417299Y-41877970D01*
X17401463Y-41882774D01*
X17378860Y-41885000D01*
X16921140Y-41885000D01*
X16898537Y-41882774D01*
X16882701Y-41877970D01*
X16868114Y-41870173D01*
X16855323Y-41859677D01*
X16844827Y-41846886D01*
X16837030Y-41832299D01*
X16832226Y-41816463D01*
X16830000Y-41793860D01*
X16830000Y-41386140D01*
X16832226Y-41363537D01*
X16837030Y-41347701D01*
X16844827Y-41333114D01*
X16855323Y-41320323D01*
X16868114Y-41309827D01*
X16882701Y-41302030D01*
X16898537Y-41297226D01*
X16921140Y-41295000D01*
X17378860Y-41295000D01*
X17401463Y-41297226D01*
G37*
G36*
X-16095575Y-38526447D02*
G01*
X-16066190Y-38529341D01*
X-16009640Y-38546496D01*
X-16009637Y-38546497D01*
X-15957524Y-38574352D01*
X-15911842Y-38611842D01*
X-15874352Y-38657524D01*
X-15846497Y-38709637D01*
X-15846496Y-38709640D01*
X-15829341Y-38766190D01*
X-15823549Y-38825000D01*
X-15829341Y-38883810D01*
X-15846496Y-38940360D01*
X-15846497Y-38940363D01*
X-15874352Y-38992476D01*
X-15911842Y-39038158D01*
X-15957524Y-39075648D01*
X-16009637Y-39103503D01*
X-16009640Y-39103504D01*
X-16066190Y-39120659D01*
X-16095575Y-39123553D01*
X-16110266Y-39125000D01*
X-17139734Y-39125000D01*
X-17154425Y-39123553D01*
X-17183810Y-39120659D01*
X-17240360Y-39103504D01*
X-17240363Y-39103503D01*
X-17292476Y-39075648D01*
X-17338158Y-39038158D01*
X-17375648Y-38992476D01*
X-17403503Y-38940363D01*
X-17403504Y-38940360D01*
X-17420659Y-38883810D01*
X-17426451Y-38825000D01*
X-17420659Y-38766190D01*
X-17403504Y-38709640D01*
X-17403503Y-38709637D01*
X-17375648Y-38657524D01*
X-17338158Y-38611842D01*
X-17292476Y-38574352D01*
X-17240363Y-38546497D01*
X-17240360Y-38546496D01*
X-17183810Y-38529341D01*
X-17154425Y-38526447D01*
X-17139734Y-38525000D01*
X-16110266Y-38525000D01*
X-16095575Y-38526447D01*
G37*
G36*
X1504425Y-38526447D02*
G01*
X1533810Y-38529341D01*
X1590360Y-38546496D01*
X1590363Y-38546497D01*
X1642476Y-38574352D01*
X1688158Y-38611842D01*
X1725648Y-38657524D01*
X1753503Y-38709637D01*
X1753504Y-38709640D01*
X1770659Y-38766190D01*
X1776451Y-38825000D01*
X1770659Y-38883810D01*
X1753504Y-38940360D01*
X1753503Y-38940363D01*
X1725648Y-38992476D01*
X1688158Y-39038158D01*
X1642476Y-39075648D01*
X1590363Y-39103503D01*
X1590360Y-39103504D01*
X1533810Y-39120659D01*
X1504425Y-39123553D01*
X1489734Y-39125000D01*
X460266Y-39125000D01*
X445575Y-39123553D01*
X416190Y-39120659D01*
X359640Y-39103504D01*
X359637Y-39103503D01*
X307524Y-39075648D01*
X261842Y-39038158D01*
X224352Y-38992476D01*
X196497Y-38940363D01*
X196496Y-38940360D01*
X179341Y-38883810D01*
X173549Y-38825000D01*
X179341Y-38766190D01*
X196496Y-38709640D01*
X196497Y-38709637D01*
X224352Y-38657524D01*
X261842Y-38611842D01*
X307524Y-38574352D01*
X359637Y-38546497D01*
X359640Y-38546496D01*
X416190Y-38529341D01*
X445575Y-38526447D01*
X460266Y-38525000D01*
X1489734Y-38525000D01*
X1504425Y-38526447D01*
G37*
G36*
X1504425Y-37426447D02*
G01*
X1533810Y-37429341D01*
X1590360Y-37446496D01*
X1590363Y-37446497D01*
X1642476Y-37474352D01*
X1688158Y-37511842D01*
X1725648Y-37557524D01*
X1753503Y-37609637D01*
X1753504Y-37609640D01*
X1770659Y-37666190D01*
X1776451Y-37725000D01*
X1770659Y-37783810D01*
X1755888Y-37832500D01*
X1753503Y-37840363D01*
X1725648Y-37892476D01*
X1688158Y-37938158D01*
X1642476Y-37975648D01*
X1590363Y-38003503D01*
X1590360Y-38003504D01*
X1533810Y-38020659D01*
X1504425Y-38023553D01*
X1489734Y-38025000D01*
X460266Y-38025000D01*
X445575Y-38023553D01*
X416190Y-38020659D01*
X359640Y-38003504D01*
X359637Y-38003503D01*
X307524Y-37975648D01*
X261842Y-37938158D01*
X224352Y-37892476D01*
X196497Y-37840363D01*
X194112Y-37832500D01*
X179341Y-37783810D01*
X173549Y-37725000D01*
X179341Y-37666190D01*
X196496Y-37609640D01*
X196497Y-37609637D01*
X224352Y-37557524D01*
X261842Y-37511842D01*
X307524Y-37474352D01*
X359637Y-37446497D01*
X359640Y-37446496D01*
X416190Y-37429341D01*
X445575Y-37426447D01*
X460266Y-37425000D01*
X1489734Y-37425000D01*
X1504425Y-37426447D01*
G37*
G36*
X-16095575Y-37426447D02*
G01*
X-16066190Y-37429341D01*
X-16009640Y-37446496D01*
X-16009637Y-37446497D01*
X-15957524Y-37474352D01*
X-15911842Y-37511842D01*
X-15874352Y-37557524D01*
X-15846497Y-37609637D01*
X-15846496Y-37609640D01*
X-15829341Y-37666190D01*
X-15823549Y-37725000D01*
X-15829341Y-37783810D01*
X-15844112Y-37832500D01*
X-15846497Y-37840363D01*
X-15874352Y-37892476D01*
X-15911842Y-37938158D01*
X-15957524Y-37975648D01*
X-16009637Y-38003503D01*
X-16009640Y-38003504D01*
X-16066190Y-38020659D01*
X-16095575Y-38023553D01*
X-16110266Y-38025000D01*
X-17139734Y-38025000D01*
X-17154425Y-38023553D01*
X-17183810Y-38020659D01*
X-17240360Y-38003504D01*
X-17240363Y-38003503D01*
X-17292476Y-37975648D01*
X-17338158Y-37938158D01*
X-17375648Y-37892476D01*
X-17403503Y-37840363D01*
X-17405888Y-37832500D01*
X-17420659Y-37783810D01*
X-17426451Y-37725000D01*
X-17420659Y-37666190D01*
X-17403504Y-37609640D01*
X-17403503Y-37609637D01*
X-17375648Y-37557524D01*
X-17338158Y-37511842D01*
X-17292476Y-37474352D01*
X-17240363Y-37446497D01*
X-17240360Y-37446496D01*
X-17183810Y-37429341D01*
X-17154425Y-37426447D01*
X-17139734Y-37425000D01*
X-16110266Y-37425000D01*
X-16095575Y-37426447D01*
G37*
G36*
X3051463Y-37392226D02*
G01*
X3067299Y-37397030D01*
X3081886Y-37404827D01*
X3094677Y-37415323D01*
X3105173Y-37428114D01*
X3112970Y-37442701D01*
X3117774Y-37458537D01*
X3120000Y-37481140D01*
X3120000Y-37888860D01*
X3117774Y-37911463D01*
X3112970Y-37927299D01*
X3105173Y-37941886D01*
X3094677Y-37954677D01*
X3081886Y-37965173D01*
X3067299Y-37972970D01*
X3051463Y-37977774D01*
X3028860Y-37980000D01*
X2571140Y-37980000D01*
X2548537Y-37977774D01*
X2532701Y-37972970D01*
X2518114Y-37965173D01*
X2505323Y-37954677D01*
X2494827Y-37941886D01*
X2487030Y-37927299D01*
X2482226Y-37911463D01*
X2480000Y-37888860D01*
X2480000Y-37481140D01*
X2482226Y-37458537D01*
X2487030Y-37442701D01*
X2494827Y-37428114D01*
X2505323Y-37415323D01*
X2518114Y-37404827D01*
X2532701Y-37397030D01*
X2548537Y-37392226D01*
X2571140Y-37390000D01*
X3028860Y-37390000D01*
X3051463Y-37392226D01*
G37*
G36*
X4001463Y-37392226D02*
G01*
X4017299Y-37397030D01*
X4031886Y-37404827D01*
X4044677Y-37415323D01*
X4055173Y-37428114D01*
X4062970Y-37442701D01*
X4067774Y-37458537D01*
X4070000Y-37481140D01*
X4070000Y-37888860D01*
X4067774Y-37911463D01*
X4062970Y-37927299D01*
X4055173Y-37941886D01*
X4044677Y-37954677D01*
X4031886Y-37965173D01*
X4017299Y-37972970D01*
X4001463Y-37977774D01*
X3978860Y-37980000D01*
X3521140Y-37980000D01*
X3498537Y-37977774D01*
X3482701Y-37972970D01*
X3468114Y-37965173D01*
X3455323Y-37954677D01*
X3444827Y-37941886D01*
X3437030Y-37927299D01*
X3432226Y-37911463D01*
X3430000Y-37888860D01*
X3430000Y-37481140D01*
X3432226Y-37458537D01*
X3437030Y-37442701D01*
X3444827Y-37428114D01*
X3455323Y-37415323D01*
X3468114Y-37404827D01*
X3482701Y-37397030D01*
X3498537Y-37392226D01*
X3521140Y-37390000D01*
X3978860Y-37390000D01*
X4001463Y-37392226D01*
G37*
G36*
X4001463Y-36422226D02*
G01*
X4017299Y-36427030D01*
X4031886Y-36434827D01*
X4044677Y-36445323D01*
X4055173Y-36458114D01*
X4062970Y-36472701D01*
X4067774Y-36488537D01*
X4070000Y-36511140D01*
X4070000Y-36918860D01*
X4067774Y-36941463D01*
X4062970Y-36957299D01*
X4055173Y-36971886D01*
X4044677Y-36984677D01*
X4031886Y-36995173D01*
X4017299Y-37002970D01*
X4001463Y-37007774D01*
X3978860Y-37010000D01*
X3521140Y-37010000D01*
X3498537Y-37007774D01*
X3482701Y-37002970D01*
X3468114Y-36995173D01*
X3455323Y-36984677D01*
X3444827Y-36971886D01*
X3437030Y-36957299D01*
X3432226Y-36941463D01*
X3430000Y-36918860D01*
X3430000Y-36511140D01*
X3432226Y-36488537D01*
X3437030Y-36472701D01*
X3444827Y-36458114D01*
X3455323Y-36445323D01*
X3468114Y-36434827D01*
X3482701Y-36427030D01*
X3498537Y-36422226D01*
X3521140Y-36420000D01*
X3978860Y-36420000D01*
X4001463Y-36422226D01*
G37*
G36*
X3051463Y-36422226D02*
G01*
X3067299Y-36427030D01*
X3081886Y-36434827D01*
X3094677Y-36445323D01*
X3105173Y-36458114D01*
X3112970Y-36472701D01*
X3117774Y-36488537D01*
X3120000Y-36511140D01*
X3120000Y-36918860D01*
X3117774Y-36941463D01*
X3112970Y-36957299D01*
X3105173Y-36971886D01*
X3094677Y-36984677D01*
X3081886Y-36995173D01*
X3067299Y-37002970D01*
X3051463Y-37007774D01*
X3028860Y-37010000D01*
X2571140Y-37010000D01*
X2548537Y-37007774D01*
X2532701Y-37002970D01*
X2518114Y-36995173D01*
X2505323Y-36984677D01*
X2494827Y-36971886D01*
X2487030Y-36957299D01*
X2482226Y-36941463D01*
X2480000Y-36918860D01*
X2480000Y-36511140D01*
X2482226Y-36488537D01*
X2487030Y-36472701D01*
X2494827Y-36458114D01*
X2505323Y-36445323D01*
X2518114Y-36434827D01*
X2532701Y-36427030D01*
X2548537Y-36422226D01*
X2571140Y-36420000D01*
X3028860Y-36420000D01*
X3051463Y-36422226D01*
G37*
G36*
X1504425Y-36326447D02*
G01*
X1533810Y-36329341D01*
X1590360Y-36346496D01*
X1590363Y-36346497D01*
X1642476Y-36374352D01*
X1688158Y-36411842D01*
X1725648Y-36457524D01*
X1753503Y-36509637D01*
X1753504Y-36509640D01*
X1770659Y-36566190D01*
X1776451Y-36625000D01*
X1770659Y-36683810D01*
X1753504Y-36740360D01*
X1753503Y-36740363D01*
X1725648Y-36792476D01*
X1688158Y-36838158D01*
X1642476Y-36875648D01*
X1590363Y-36903503D01*
X1590360Y-36903504D01*
X1533810Y-36920659D01*
X1504425Y-36923553D01*
X1489734Y-36925000D01*
X460266Y-36925000D01*
X445575Y-36923553D01*
X416190Y-36920659D01*
X359640Y-36903504D01*
X359637Y-36903503D01*
X307524Y-36875648D01*
X261842Y-36838158D01*
X224352Y-36792476D01*
X196497Y-36740363D01*
X196496Y-36740360D01*
X179341Y-36683810D01*
X173549Y-36625000D01*
X179341Y-36566190D01*
X196496Y-36509640D01*
X196497Y-36509637D01*
X224352Y-36457524D01*
X261842Y-36411842D01*
X307524Y-36374352D01*
X359637Y-36346497D01*
X359640Y-36346496D01*
X416190Y-36329341D01*
X445575Y-36326447D01*
X460266Y-36325000D01*
X1489734Y-36325000D01*
X1504425Y-36326447D01*
G37*
G36*
X-16095575Y-36326447D02*
G01*
X-16066190Y-36329341D01*
X-16009640Y-36346496D01*
X-16009637Y-36346497D01*
X-15957524Y-36374352D01*
X-15911842Y-36411842D01*
X-15874352Y-36457524D01*
X-15846497Y-36509637D01*
X-15846496Y-36509640D01*
X-15829341Y-36566190D01*
X-15823549Y-36625000D01*
X-15829341Y-36683810D01*
X-15846496Y-36740360D01*
X-15846497Y-36740363D01*
X-15874352Y-36792476D01*
X-15911842Y-36838158D01*
X-15957524Y-36875648D01*
X-16009637Y-36903503D01*
X-16009640Y-36903504D01*
X-16066190Y-36920659D01*
X-16095575Y-36923553D01*
X-16110266Y-36925000D01*
X-17139734Y-36925000D01*
X-17154425Y-36923553D01*
X-17183810Y-36920659D01*
X-17240360Y-36903504D01*
X-17240363Y-36903503D01*
X-17292476Y-36875648D01*
X-17338158Y-36838158D01*
X-17375648Y-36792476D01*
X-17403503Y-36740363D01*
X-17403504Y-36740360D01*
X-17420659Y-36683810D01*
X-17426451Y-36625000D01*
X-17420659Y-36566190D01*
X-17403504Y-36509640D01*
X-17403503Y-36509637D01*
X-17375648Y-36457524D01*
X-17338158Y-36411842D01*
X-17292476Y-36374352D01*
X-17240363Y-36346497D01*
X-17240360Y-36346496D01*
X-17183810Y-36329341D01*
X-17154425Y-36326447D01*
X-17139734Y-36325000D01*
X-16110266Y-36325000D01*
X-16095575Y-36326447D01*
G37*
G36*
X-16095575Y-35226447D02*
G01*
X-16066190Y-35229341D01*
X-16009640Y-35246496D01*
X-16009637Y-35246497D01*
X-15957524Y-35274352D01*
X-15911842Y-35311842D01*
X-15874352Y-35357524D01*
X-15846497Y-35409637D01*
X-15846496Y-35409640D01*
X-15829341Y-35466190D01*
X-15823549Y-35525000D01*
X-15829341Y-35583810D01*
X-15846496Y-35640360D01*
X-15846497Y-35640363D01*
X-15874352Y-35692476D01*
X-15911842Y-35738158D01*
X-15957524Y-35775648D01*
X-16009637Y-35803503D01*
X-16009640Y-35803504D01*
X-16066190Y-35820659D01*
X-16095575Y-35823553D01*
X-16110266Y-35825000D01*
X-17139734Y-35825000D01*
X-17154425Y-35823553D01*
X-17183810Y-35820659D01*
X-17240360Y-35803504D01*
X-17240363Y-35803503D01*
X-17292476Y-35775648D01*
X-17338158Y-35738158D01*
X-17375648Y-35692476D01*
X-17403503Y-35640363D01*
X-17403504Y-35640360D01*
X-17420659Y-35583810D01*
X-17426451Y-35525000D01*
X-17420659Y-35466190D01*
X-17403504Y-35409640D01*
X-17403503Y-35409637D01*
X-17375648Y-35357524D01*
X-17338158Y-35311842D01*
X-17292476Y-35274352D01*
X-17240363Y-35246497D01*
X-17240360Y-35246496D01*
X-17183810Y-35229341D01*
X-17154425Y-35226447D01*
X-17139734Y-35225000D01*
X-16110266Y-35225000D01*
X-16095575Y-35226447D01*
G37*
G36*
X1504425Y-35226447D02*
G01*
X1533810Y-35229341D01*
X1590360Y-35246496D01*
X1590363Y-35246497D01*
X1642476Y-35274352D01*
X1688158Y-35311842D01*
X1725648Y-35357524D01*
X1753503Y-35409637D01*
X1753504Y-35409640D01*
X1770659Y-35466190D01*
X1776451Y-35525000D01*
X1770659Y-35583810D01*
X1753504Y-35640360D01*
X1753503Y-35640363D01*
X1725648Y-35692476D01*
X1688158Y-35738158D01*
X1642476Y-35775648D01*
X1590363Y-35803503D01*
X1590360Y-35803504D01*
X1533810Y-35820659D01*
X1504425Y-35823553D01*
X1489734Y-35825000D01*
X460266Y-35825000D01*
X445575Y-35823553D01*
X416190Y-35820659D01*
X359640Y-35803504D01*
X359637Y-35803503D01*
X307524Y-35775648D01*
X261842Y-35738158D01*
X224352Y-35692476D01*
X196497Y-35640363D01*
X196496Y-35640360D01*
X179341Y-35583810D01*
X173549Y-35525000D01*
X179341Y-35466190D01*
X196496Y-35409640D01*
X196497Y-35409637D01*
X224352Y-35357524D01*
X261842Y-35311842D01*
X307524Y-35274352D01*
X359637Y-35246497D01*
X359640Y-35246496D01*
X416190Y-35229341D01*
X445575Y-35226447D01*
X460266Y-35225000D01*
X1489734Y-35225000D01*
X1504425Y-35226447D01*
G37*
G36*
X14005351Y-33901743D02*
G01*
X14150941Y-33962048D01*
X14281970Y-34049599D01*
X14393401Y-34161030D01*
X14480952Y-34292059D01*
X14541257Y-34437649D01*
X14572000Y-34592206D01*
X14572000Y-34749794D01*
X14541257Y-34904351D01*
X14480952Y-35049941D01*
X14393401Y-35180970D01*
X14281970Y-35292401D01*
X14150941Y-35379952D01*
X14005351Y-35440257D01*
X13850794Y-35471000D01*
X13693206Y-35471000D01*
X13538649Y-35440257D01*
X13393059Y-35379952D01*
X13262030Y-35292401D01*
X13150599Y-35180970D01*
X13063048Y-35049941D01*
X13002743Y-34904351D01*
X12972000Y-34749794D01*
X12972000Y-34592206D01*
X13002743Y-34437649D01*
X13063048Y-34292059D01*
X13150599Y-34161030D01*
X13262030Y-34049599D01*
X13393059Y-33962048D01*
X13538649Y-33901743D01*
X13693206Y-33871000D01*
X13850794Y-33871000D01*
X14005351Y-33901743D01*
G37*
G36*
X18072000Y-35471000D02*
G01*
X16472000Y-35471000D01*
X16472000Y-33871000D01*
X18072000Y-33871000D01*
X18072000Y-35471000D01*
G37*
G36*
X-16095575Y-34126447D02*
G01*
X-16066190Y-34129341D01*
X-16009640Y-34146496D01*
X-16009637Y-34146497D01*
X-15957524Y-34174352D01*
X-15911842Y-34211842D01*
X-15874352Y-34257524D01*
X-15846497Y-34309637D01*
X-15846496Y-34309640D01*
X-15829341Y-34366190D01*
X-15823549Y-34425000D01*
X-15829341Y-34483810D01*
X-15846496Y-34540360D01*
X-15846497Y-34540363D01*
X-15874352Y-34592476D01*
X-15911842Y-34638158D01*
X-15957524Y-34675648D01*
X-16009637Y-34703503D01*
X-16009640Y-34703504D01*
X-16066190Y-34720659D01*
X-16095575Y-34723553D01*
X-16110266Y-34725000D01*
X-17139734Y-34725000D01*
X-17154425Y-34723553D01*
X-17183810Y-34720659D01*
X-17240360Y-34703504D01*
X-17240363Y-34703503D01*
X-17292476Y-34675648D01*
X-17338158Y-34638158D01*
X-17375648Y-34592476D01*
X-17403503Y-34540363D01*
X-17403504Y-34540360D01*
X-17420659Y-34483810D01*
X-17426451Y-34425000D01*
X-17420659Y-34366190D01*
X-17403504Y-34309640D01*
X-17403503Y-34309637D01*
X-17375648Y-34257524D01*
X-17338158Y-34211842D01*
X-17292476Y-34174352D01*
X-17240363Y-34146497D01*
X-17240360Y-34146496D01*
X-17183810Y-34129341D01*
X-17154425Y-34126447D01*
X-17139734Y-34125000D01*
X-16110266Y-34125000D01*
X-16095575Y-34126447D01*
G37*
G36*
X1504425Y-34126447D02*
G01*
X1533810Y-34129341D01*
X1590360Y-34146496D01*
X1590363Y-34146497D01*
X1642476Y-34174352D01*
X1688158Y-34211842D01*
X1725648Y-34257524D01*
X1753503Y-34309637D01*
X1753504Y-34309640D01*
X1770659Y-34366190D01*
X1776451Y-34425000D01*
X1770659Y-34483810D01*
X1753504Y-34540360D01*
X1753503Y-34540363D01*
X1725648Y-34592476D01*
X1688158Y-34638158D01*
X1642476Y-34675648D01*
X1590363Y-34703503D01*
X1590360Y-34703504D01*
X1533810Y-34720659D01*
X1504425Y-34723553D01*
X1489734Y-34725000D01*
X460266Y-34725000D01*
X445575Y-34723553D01*
X416190Y-34720659D01*
X359640Y-34703504D01*
X359637Y-34703503D01*
X307524Y-34675648D01*
X261842Y-34638158D01*
X224352Y-34592476D01*
X196497Y-34540363D01*
X196496Y-34540360D01*
X179341Y-34483810D01*
X173549Y-34425000D01*
X179341Y-34366190D01*
X196496Y-34309640D01*
X196497Y-34309637D01*
X224352Y-34257524D01*
X261842Y-34211842D01*
X307524Y-34174352D01*
X359637Y-34146497D01*
X359640Y-34146496D01*
X416190Y-34129341D01*
X445575Y-34126447D01*
X460266Y-34125000D01*
X1489734Y-34125000D01*
X1504425Y-34126447D01*
G37*
G36*
X5623351Y-32250743D02*
G01*
X5768941Y-32311048D01*
X5899970Y-32398599D01*
X6011401Y-32510030D01*
X6098952Y-32641059D01*
X6159257Y-32786649D01*
X6190000Y-32941206D01*
X6190000Y-33098794D01*
X6159257Y-33253351D01*
X6098952Y-33398941D01*
X6011401Y-33529970D01*
X5899970Y-33641401D01*
X5768941Y-33728952D01*
X5623351Y-33789257D01*
X5468794Y-33820000D01*
X5311206Y-33820000D01*
X5156649Y-33789257D01*
X5011059Y-33728952D01*
X4880030Y-33641401D01*
X4768599Y-33529970D01*
X4681048Y-33398941D01*
X4620743Y-33253351D01*
X4590000Y-33098794D01*
X4590000Y-32941206D01*
X4620743Y-32786649D01*
X4681048Y-32641059D01*
X4768599Y-32510030D01*
X4880030Y-32398599D01*
X5011059Y-32311048D01*
X5156649Y-32250743D01*
X5311206Y-32220000D01*
X5468794Y-32220000D01*
X5623351Y-32250743D01*
G37*
G36*
X9690000Y-33820000D02*
G01*
X8090000Y-33820000D01*
X8090000Y-32220000D01*
X9690000Y-32220000D01*
X9690000Y-33820000D01*
G37*
G36*
X1504425Y-33026447D02*
G01*
X1533810Y-33029341D01*
X1590360Y-33046496D01*
X1590363Y-33046497D01*
X1642476Y-33074352D01*
X1688158Y-33111842D01*
X1725648Y-33157524D01*
X1753503Y-33209637D01*
X1753504Y-33209640D01*
X1770659Y-33266190D01*
X1776451Y-33325000D01*
X1770659Y-33383810D01*
X1753504Y-33440360D01*
X1753503Y-33440363D01*
X1725648Y-33492476D01*
X1688158Y-33538158D01*
X1642476Y-33575648D01*
X1590363Y-33603503D01*
X1590360Y-33603504D01*
X1533810Y-33620659D01*
X1504425Y-33623553D01*
X1489734Y-33625000D01*
X460266Y-33625000D01*
X445575Y-33623553D01*
X416190Y-33620659D01*
X359640Y-33603504D01*
X359637Y-33603503D01*
X307524Y-33575648D01*
X261842Y-33538158D01*
X224352Y-33492476D01*
X196497Y-33440363D01*
X196496Y-33440360D01*
X179341Y-33383810D01*
X173549Y-33325000D01*
X179341Y-33266190D01*
X196496Y-33209640D01*
X196497Y-33209637D01*
X224352Y-33157524D01*
X261842Y-33111842D01*
X307524Y-33074352D01*
X359637Y-33046497D01*
X359640Y-33046496D01*
X416190Y-33029341D01*
X445575Y-33026447D01*
X460266Y-33025000D01*
X1489734Y-33025000D01*
X1504425Y-33026447D01*
G37*
G36*
X-16095575Y-33026447D02*
G01*
X-16066190Y-33029341D01*
X-16009640Y-33046496D01*
X-16009637Y-33046497D01*
X-15957524Y-33074352D01*
X-15911842Y-33111842D01*
X-15874352Y-33157524D01*
X-15846497Y-33209637D01*
X-15846496Y-33209640D01*
X-15829341Y-33266190D01*
X-15823549Y-33325000D01*
X-15829341Y-33383810D01*
X-15846496Y-33440360D01*
X-15846497Y-33440363D01*
X-15874352Y-33492476D01*
X-15911842Y-33538158D01*
X-15957524Y-33575648D01*
X-16009637Y-33603503D01*
X-16009640Y-33603504D01*
X-16066190Y-33620659D01*
X-16095575Y-33623553D01*
X-16110266Y-33625000D01*
X-17139734Y-33625000D01*
X-17154425Y-33623553D01*
X-17183810Y-33620659D01*
X-17240360Y-33603504D01*
X-17240363Y-33603503D01*
X-17292476Y-33575648D01*
X-17338158Y-33538158D01*
X-17375648Y-33492476D01*
X-17403503Y-33440363D01*
X-17403504Y-33440360D01*
X-17420659Y-33383810D01*
X-17426451Y-33325000D01*
X-17420659Y-33266190D01*
X-17403504Y-33209640D01*
X-17403503Y-33209637D01*
X-17375648Y-33157524D01*
X-17338158Y-33111842D01*
X-17292476Y-33074352D01*
X-17240363Y-33046497D01*
X-17240360Y-33046496D01*
X-17183810Y-33029341D01*
X-17154425Y-33026447D01*
X-17139734Y-33025000D01*
X-16110266Y-33025000D01*
X-16095575Y-33026447D01*
G37*
G36*
X-16095575Y-31926447D02*
G01*
X-16066190Y-31929341D01*
X-16009640Y-31946496D01*
X-16009637Y-31946497D01*
X-15957524Y-31974352D01*
X-15911842Y-32011842D01*
X-15874352Y-32057524D01*
X-15846497Y-32109637D01*
X-15846496Y-32109640D01*
X-15829341Y-32166190D01*
X-15823549Y-32225000D01*
X-15829341Y-32283810D01*
X-15846496Y-32340360D01*
X-15846497Y-32340363D01*
X-15874352Y-32392476D01*
X-15911842Y-32438158D01*
X-15957524Y-32475648D01*
X-16009637Y-32503503D01*
X-16009640Y-32503504D01*
X-16066190Y-32520659D01*
X-16095575Y-32523553D01*
X-16110266Y-32525000D01*
X-17139734Y-32525000D01*
X-17154425Y-32523553D01*
X-17183810Y-32520659D01*
X-17240360Y-32503504D01*
X-17240363Y-32503503D01*
X-17292476Y-32475648D01*
X-17338158Y-32438158D01*
X-17375648Y-32392476D01*
X-17403503Y-32340363D01*
X-17403504Y-32340360D01*
X-17420659Y-32283810D01*
X-17426451Y-32225000D01*
X-17420659Y-32166190D01*
X-17403504Y-32109640D01*
X-17403503Y-32109637D01*
X-17375648Y-32057524D01*
X-17338158Y-32011842D01*
X-17292476Y-31974352D01*
X-17240363Y-31946497D01*
X-17240360Y-31946496D01*
X-17183810Y-31929341D01*
X-17154425Y-31926447D01*
X-17139734Y-31925000D01*
X-16110266Y-31925000D01*
X-16095575Y-31926447D01*
G37*
G36*
X1504425Y-31926447D02*
G01*
X1533810Y-31929341D01*
X1590360Y-31946496D01*
X1590363Y-31946497D01*
X1642476Y-31974352D01*
X1688158Y-32011842D01*
X1725648Y-32057524D01*
X1753503Y-32109637D01*
X1753504Y-32109640D01*
X1770659Y-32166190D01*
X1776451Y-32225000D01*
X1770659Y-32283810D01*
X1753504Y-32340360D01*
X1753503Y-32340363D01*
X1725648Y-32392476D01*
X1688158Y-32438158D01*
X1642476Y-32475648D01*
X1590363Y-32503503D01*
X1590360Y-32503504D01*
X1533810Y-32520659D01*
X1504425Y-32523553D01*
X1489734Y-32525000D01*
X460266Y-32525000D01*
X445575Y-32523553D01*
X416190Y-32520659D01*
X359640Y-32503504D01*
X359637Y-32503503D01*
X307524Y-32475648D01*
X261842Y-32438158D01*
X224352Y-32392476D01*
X196497Y-32340363D01*
X196496Y-32340360D01*
X179341Y-32283810D01*
X173549Y-32225000D01*
X179341Y-32166190D01*
X196496Y-32109640D01*
X196497Y-32109637D01*
X224352Y-32057524D01*
X261842Y-32011842D01*
X307524Y-31974352D01*
X359637Y-31946497D01*
X359640Y-31946496D01*
X416190Y-31929341D01*
X445575Y-31926447D01*
X460266Y-31925000D01*
X1489734Y-31925000D01*
X1504425Y-31926447D01*
G37*
G36*
X-16095575Y-30826447D02*
G01*
X-16066190Y-30829341D01*
X-16009640Y-30846496D01*
X-16009637Y-30846497D01*
X-15957524Y-30874352D01*
X-15911842Y-30911842D01*
X-15874352Y-30957524D01*
X-15846497Y-31009637D01*
X-15846496Y-31009640D01*
X-15829341Y-31066190D01*
X-15823549Y-31125000D01*
X-15829341Y-31183810D01*
X-15846496Y-31240360D01*
X-15846497Y-31240363D01*
X-15874352Y-31292476D01*
X-15911842Y-31338158D01*
X-15957524Y-31375648D01*
X-16009637Y-31403503D01*
X-16009640Y-31403504D01*
X-16066190Y-31420659D01*
X-16095575Y-31423553D01*
X-16110266Y-31425000D01*
X-17139734Y-31425000D01*
X-17154425Y-31423553D01*
X-17183810Y-31420659D01*
X-17240360Y-31403504D01*
X-17240363Y-31403503D01*
X-17292476Y-31375648D01*
X-17338158Y-31338158D01*
X-17375648Y-31292476D01*
X-17403503Y-31240363D01*
X-17403504Y-31240360D01*
X-17420659Y-31183810D01*
X-17426451Y-31125000D01*
X-17420659Y-31066190D01*
X-17403504Y-31009640D01*
X-17403503Y-31009637D01*
X-17375648Y-30957524D01*
X-17338158Y-30911842D01*
X-17292476Y-30874352D01*
X-17240363Y-30846497D01*
X-17240360Y-30846496D01*
X-17183810Y-30829341D01*
X-17154425Y-30826447D01*
X-17139734Y-30825000D01*
X-16110266Y-30825000D01*
X-16095575Y-30826447D01*
G37*
G36*
X1504425Y-30826447D02*
G01*
X1533810Y-30829341D01*
X1590360Y-30846496D01*
X1590363Y-30846497D01*
X1642476Y-30874352D01*
X1688158Y-30911842D01*
X1725648Y-30957524D01*
X1753503Y-31009637D01*
X1753504Y-31009640D01*
X1770659Y-31066190D01*
X1776451Y-31125000D01*
X1770659Y-31183810D01*
X1753504Y-31240360D01*
X1753503Y-31240363D01*
X1725648Y-31292476D01*
X1688158Y-31338158D01*
X1642476Y-31375648D01*
X1590363Y-31403503D01*
X1590360Y-31403504D01*
X1533810Y-31420659D01*
X1504425Y-31423553D01*
X1489734Y-31425000D01*
X460266Y-31425000D01*
X445575Y-31423553D01*
X416190Y-31420659D01*
X359640Y-31403504D01*
X359637Y-31403503D01*
X307524Y-31375648D01*
X261842Y-31338158D01*
X224352Y-31292476D01*
X196497Y-31240363D01*
X196496Y-31240360D01*
X179341Y-31183810D01*
X173549Y-31125000D01*
X179341Y-31066190D01*
X196496Y-31009640D01*
X196497Y-31009637D01*
X224352Y-30957524D01*
X261842Y-30911842D01*
X307524Y-30874352D01*
X359637Y-30846497D01*
X359640Y-30846496D01*
X416190Y-30829341D01*
X445575Y-30826447D01*
X460266Y-30825000D01*
X1489734Y-30825000D01*
X1504425Y-30826447D01*
G37*
G36*
X-16095575Y-29726447D02*
G01*
X-16066190Y-29729341D01*
X-16009640Y-29746496D01*
X-16009637Y-29746497D01*
X-15957524Y-29774352D01*
X-15911842Y-29811842D01*
X-15874352Y-29857524D01*
X-15846497Y-29909637D01*
X-15846496Y-29909640D01*
X-15829341Y-29966190D01*
X-15823549Y-30025000D01*
X-15829341Y-30083810D01*
X-15846496Y-30140360D01*
X-15846497Y-30140363D01*
X-15874352Y-30192476D01*
X-15911842Y-30238158D01*
X-15957524Y-30275648D01*
X-16009637Y-30303503D01*
X-16009640Y-30303504D01*
X-16066190Y-30320659D01*
X-16095575Y-30323553D01*
X-16110266Y-30325000D01*
X-17139734Y-30325000D01*
X-17154425Y-30323553D01*
X-17183810Y-30320659D01*
X-17240360Y-30303504D01*
X-17240363Y-30303503D01*
X-17292476Y-30275648D01*
X-17338158Y-30238158D01*
X-17375648Y-30192476D01*
X-17403503Y-30140363D01*
X-17403504Y-30140360D01*
X-17420659Y-30083810D01*
X-17426451Y-30025000D01*
X-17420659Y-29966190D01*
X-17403504Y-29909640D01*
X-17403503Y-29909637D01*
X-17375648Y-29857524D01*
X-17338158Y-29811842D01*
X-17292476Y-29774352D01*
X-17240363Y-29746497D01*
X-17240360Y-29746496D01*
X-17183810Y-29729341D01*
X-17154425Y-29726447D01*
X-17139734Y-29725000D01*
X-16110266Y-29725000D01*
X-16095575Y-29726447D01*
G37*
G36*
X1504425Y-29726447D02*
G01*
X1533810Y-29729341D01*
X1590360Y-29746496D01*
X1590363Y-29746497D01*
X1642476Y-29774352D01*
X1688158Y-29811842D01*
X1725648Y-29857524D01*
X1753503Y-29909637D01*
X1753504Y-29909640D01*
X1770659Y-29966190D01*
X1776451Y-30025000D01*
X1770659Y-30083810D01*
X1753504Y-30140360D01*
X1753503Y-30140363D01*
X1725648Y-30192476D01*
X1688158Y-30238158D01*
X1642476Y-30275648D01*
X1590363Y-30303503D01*
X1590360Y-30303504D01*
X1533810Y-30320659D01*
X1504425Y-30323553D01*
X1489734Y-30325000D01*
X460266Y-30325000D01*
X445575Y-30323553D01*
X416190Y-30320659D01*
X359640Y-30303504D01*
X359637Y-30303503D01*
X307524Y-30275648D01*
X261842Y-30238158D01*
X224352Y-30192476D01*
X196497Y-30140363D01*
X196496Y-30140360D01*
X179341Y-30083810D01*
X173549Y-30025000D01*
X179341Y-29966190D01*
X196496Y-29909640D01*
X196497Y-29909637D01*
X224352Y-29857524D01*
X261842Y-29811842D01*
X307524Y-29774352D01*
X359637Y-29746497D01*
X359640Y-29746496D01*
X416190Y-29729341D01*
X445575Y-29726447D01*
X460266Y-29725000D01*
X1489734Y-29725000D01*
X1504425Y-29726447D01*
G37*
G36*
X4061463Y-29021226D02*
G01*
X4077299Y-29026030D01*
X4091886Y-29033827D01*
X4104677Y-29044323D01*
X4115173Y-29057114D01*
X4122970Y-29071701D01*
X4127774Y-29087537D01*
X4130000Y-29110140D01*
X4130000Y-29517860D01*
X4127774Y-29540463D01*
X4122970Y-29556299D01*
X4115173Y-29570886D01*
X4104677Y-29583677D01*
X4091886Y-29594173D01*
X4077299Y-29601970D01*
X4061463Y-29606774D01*
X4038860Y-29609000D01*
X3581140Y-29609000D01*
X3558537Y-29606774D01*
X3542701Y-29601970D01*
X3528114Y-29594173D01*
X3515323Y-29583677D01*
X3504827Y-29570886D01*
X3497030Y-29556299D01*
X3492226Y-29540463D01*
X3490000Y-29517860D01*
X3490000Y-29110140D01*
X3492226Y-29087537D01*
X3497030Y-29071701D01*
X3504827Y-29057114D01*
X3515323Y-29044323D01*
X3528114Y-29033827D01*
X3542701Y-29026030D01*
X3558537Y-29021226D01*
X3581140Y-29019000D01*
X4038860Y-29019000D01*
X4061463Y-29021226D01*
G37*
G36*
X4061463Y-28051226D02*
G01*
X4077299Y-28056030D01*
X4091886Y-28063827D01*
X4104677Y-28074323D01*
X4115173Y-28087114D01*
X4122970Y-28101701D01*
X4127774Y-28117537D01*
X4130000Y-28140140D01*
X4130000Y-28547860D01*
X4127774Y-28570463D01*
X4122970Y-28586299D01*
X4115173Y-28600886D01*
X4104677Y-28613677D01*
X4091886Y-28624173D01*
X4077299Y-28631970D01*
X4061463Y-28636774D01*
X4038860Y-28639000D01*
X3581140Y-28639000D01*
X3558537Y-28636774D01*
X3542701Y-28631970D01*
X3528114Y-28624173D01*
X3515323Y-28613677D01*
X3504827Y-28600886D01*
X3497030Y-28586299D01*
X3492226Y-28570463D01*
X3490000Y-28547860D01*
X3490000Y-28140140D01*
X3492226Y-28117537D01*
X3497030Y-28101701D01*
X3504827Y-28087114D01*
X3515323Y-28074323D01*
X3528114Y-28063827D01*
X3542701Y-28056030D01*
X3558537Y-28051226D01*
X3581140Y-28049000D01*
X4038860Y-28049000D01*
X4061463Y-28051226D01*
G37*
G36*
X-8355397Y-25775480D02*
G01*
X-8316190Y-25779341D01*
X-8259640Y-25796496D01*
X-8259637Y-25796497D01*
X-8207524Y-25824352D01*
X-8161842Y-25861842D01*
X-8124352Y-25907524D01*
X-8096497Y-25959637D01*
X-8096496Y-25959640D01*
X-8079341Y-26016190D01*
X-8075000Y-26060267D01*
X-8075000Y-27089733D01*
X-8079341Y-27133810D01*
X-8096496Y-27190359D01*
X-8096497Y-27190363D01*
X-8124352Y-27242476D01*
X-8161841Y-27288157D01*
X-8207525Y-27325648D01*
X-8259638Y-27353503D01*
X-8259641Y-27353504D01*
X-8316191Y-27370659D01*
X-8375000Y-27376451D01*
X-8375001Y-27376451D01*
X-8394603Y-27374520D01*
X-8433810Y-27370659D01*
X-8490360Y-27353504D01*
X-8490363Y-27353503D01*
X-8542476Y-27325648D01*
X-8588157Y-27288159D01*
X-8625648Y-27242475D01*
X-8653503Y-27190362D01*
X-8653504Y-27190359D01*
X-8670659Y-27133809D01*
X-8675000Y-27089732D01*
X-8674999Y-26060267D01*
X-8670658Y-26016190D01*
X-8653503Y-25959640D01*
X-8653502Y-25959637D01*
X-8625647Y-25907524D01*
X-8588157Y-25861842D01*
X-8542475Y-25824352D01*
X-8490362Y-25796497D01*
X-8490359Y-25796496D01*
X-8433809Y-25779341D01*
X-8375000Y-25773549D01*
X-8374999Y-25773549D01*
X-8355397Y-25775480D01*
G37*
G36*
X-1755397Y-25775480D02*
G01*
X-1716190Y-25779341D01*
X-1659640Y-25796496D01*
X-1659637Y-25796497D01*
X-1607524Y-25824352D01*
X-1561842Y-25861842D01*
X-1524352Y-25907524D01*
X-1496497Y-25959637D01*
X-1496496Y-25959640D01*
X-1479341Y-26016190D01*
X-1475000Y-26060267D01*
X-1475000Y-27089733D01*
X-1479341Y-27133810D01*
X-1496496Y-27190359D01*
X-1496497Y-27190363D01*
X-1524352Y-27242476D01*
X-1561841Y-27288157D01*
X-1607525Y-27325648D01*
X-1659638Y-27353503D01*
X-1659641Y-27353504D01*
X-1716191Y-27370659D01*
X-1775000Y-27376451D01*
X-1775001Y-27376451D01*
X-1794603Y-27374520D01*
X-1833810Y-27370659D01*
X-1890360Y-27353504D01*
X-1890363Y-27353503D01*
X-1942476Y-27325648D01*
X-1988157Y-27288159D01*
X-2025648Y-27242475D01*
X-2053503Y-27190362D01*
X-2053504Y-27190359D01*
X-2070659Y-27133809D01*
X-2075000Y-27089732D01*
X-2074999Y-26060267D01*
X-2070658Y-26016190D01*
X-2053503Y-25959640D01*
X-2053502Y-25959637D01*
X-2025647Y-25907524D01*
X-1988157Y-25861842D01*
X-1942475Y-25824352D01*
X-1890362Y-25796497D01*
X-1890359Y-25796496D01*
X-1833809Y-25779341D01*
X-1775000Y-25773549D01*
X-1774999Y-25773549D01*
X-1755397Y-25775480D01*
G37*
G36*
X-2855397Y-25775480D02*
G01*
X-2816190Y-25779341D01*
X-2759640Y-25796496D01*
X-2759637Y-25796497D01*
X-2707524Y-25824352D01*
X-2661842Y-25861842D01*
X-2624352Y-25907524D01*
X-2596497Y-25959637D01*
X-2596496Y-25959640D01*
X-2579341Y-26016190D01*
X-2575000Y-26060267D01*
X-2575000Y-27089733D01*
X-2579341Y-27133810D01*
X-2596496Y-27190359D01*
X-2596497Y-27190363D01*
X-2624352Y-27242476D01*
X-2661841Y-27288157D01*
X-2707525Y-27325648D01*
X-2759638Y-27353503D01*
X-2759641Y-27353504D01*
X-2816191Y-27370659D01*
X-2875000Y-27376451D01*
X-2875001Y-27376451D01*
X-2894603Y-27374520D01*
X-2933810Y-27370659D01*
X-2990360Y-27353504D01*
X-2990363Y-27353503D01*
X-3042476Y-27325648D01*
X-3088157Y-27288159D01*
X-3125648Y-27242475D01*
X-3153503Y-27190362D01*
X-3153504Y-27190359D01*
X-3170659Y-27133809D01*
X-3175000Y-27089732D01*
X-3174999Y-26060267D01*
X-3170658Y-26016190D01*
X-3153503Y-25959640D01*
X-3153502Y-25959637D01*
X-3125647Y-25907524D01*
X-3088157Y-25861842D01*
X-3042475Y-25824352D01*
X-2990362Y-25796497D01*
X-2990359Y-25796496D01*
X-2933809Y-25779341D01*
X-2875000Y-25773549D01*
X-2874999Y-25773549D01*
X-2855397Y-25775480D01*
G37*
G36*
X-3955397Y-25775480D02*
G01*
X-3916190Y-25779341D01*
X-3859640Y-25796496D01*
X-3859637Y-25796497D01*
X-3807524Y-25824352D01*
X-3761842Y-25861842D01*
X-3724352Y-25907524D01*
X-3696497Y-25959637D01*
X-3696496Y-25959640D01*
X-3679341Y-26016190D01*
X-3675000Y-26060267D01*
X-3675000Y-27089733D01*
X-3679341Y-27133810D01*
X-3696496Y-27190359D01*
X-3696497Y-27190363D01*
X-3724352Y-27242476D01*
X-3761841Y-27288157D01*
X-3807525Y-27325648D01*
X-3859638Y-27353503D01*
X-3859641Y-27353504D01*
X-3916191Y-27370659D01*
X-3975000Y-27376451D01*
X-3975001Y-27376451D01*
X-3994603Y-27374520D01*
X-4033810Y-27370659D01*
X-4090360Y-27353504D01*
X-4090363Y-27353503D01*
X-4142476Y-27325648D01*
X-4188157Y-27288159D01*
X-4225648Y-27242475D01*
X-4253503Y-27190362D01*
X-4253504Y-27190359D01*
X-4270659Y-27133809D01*
X-4275000Y-27089732D01*
X-4274999Y-26060267D01*
X-4270658Y-26016190D01*
X-4253503Y-25959640D01*
X-4253502Y-25959637D01*
X-4225647Y-25907524D01*
X-4188157Y-25861842D01*
X-4142475Y-25824352D01*
X-4090362Y-25796497D01*
X-4090359Y-25796496D01*
X-4033809Y-25779341D01*
X-3975000Y-25773549D01*
X-3974999Y-25773549D01*
X-3955397Y-25775480D01*
G37*
G36*
X-5055397Y-25775480D02*
G01*
X-5016190Y-25779341D01*
X-4959640Y-25796496D01*
X-4959637Y-25796497D01*
X-4907524Y-25824352D01*
X-4861842Y-25861842D01*
X-4824352Y-25907524D01*
X-4796497Y-25959637D01*
X-4796496Y-25959640D01*
X-4779341Y-26016190D01*
X-4775000Y-26060267D01*
X-4775000Y-27089733D01*
X-4779341Y-27133810D01*
X-4796496Y-27190359D01*
X-4796497Y-27190363D01*
X-4824352Y-27242476D01*
X-4861841Y-27288157D01*
X-4907525Y-27325648D01*
X-4959638Y-27353503D01*
X-4959641Y-27353504D01*
X-5016191Y-27370659D01*
X-5075000Y-27376451D01*
X-5075001Y-27376451D01*
X-5094603Y-27374520D01*
X-5133810Y-27370659D01*
X-5190360Y-27353504D01*
X-5190363Y-27353503D01*
X-5242476Y-27325648D01*
X-5288157Y-27288159D01*
X-5325648Y-27242475D01*
X-5353503Y-27190362D01*
X-5353504Y-27190359D01*
X-5370659Y-27133809D01*
X-5375000Y-27089732D01*
X-5374999Y-26060267D01*
X-5370658Y-26016190D01*
X-5353503Y-25959640D01*
X-5353502Y-25959637D01*
X-5325647Y-25907524D01*
X-5288157Y-25861842D01*
X-5242475Y-25824352D01*
X-5190362Y-25796497D01*
X-5190359Y-25796496D01*
X-5133809Y-25779341D01*
X-5075000Y-25773549D01*
X-5074999Y-25773549D01*
X-5055397Y-25775480D01*
G37*
G36*
X-6155397Y-25775480D02*
G01*
X-6116190Y-25779341D01*
X-6059640Y-25796496D01*
X-6059637Y-25796497D01*
X-6007524Y-25824352D01*
X-5961842Y-25861842D01*
X-5924352Y-25907524D01*
X-5896497Y-25959637D01*
X-5896496Y-25959640D01*
X-5879341Y-26016190D01*
X-5875000Y-26060267D01*
X-5875000Y-27089733D01*
X-5879341Y-27133810D01*
X-5896496Y-27190359D01*
X-5896497Y-27190363D01*
X-5924352Y-27242476D01*
X-5961841Y-27288157D01*
X-6007525Y-27325648D01*
X-6059638Y-27353503D01*
X-6059641Y-27353504D01*
X-6116191Y-27370659D01*
X-6175000Y-27376451D01*
X-6175001Y-27376451D01*
X-6194603Y-27374520D01*
X-6233810Y-27370659D01*
X-6290360Y-27353504D01*
X-6290363Y-27353503D01*
X-6342476Y-27325648D01*
X-6388157Y-27288159D01*
X-6425648Y-27242475D01*
X-6453503Y-27190362D01*
X-6453504Y-27190359D01*
X-6470659Y-27133809D01*
X-6475000Y-27089732D01*
X-6474999Y-26060267D01*
X-6470658Y-26016190D01*
X-6453503Y-25959640D01*
X-6453502Y-25959637D01*
X-6425647Y-25907524D01*
X-6388157Y-25861842D01*
X-6342475Y-25824352D01*
X-6290362Y-25796497D01*
X-6290359Y-25796496D01*
X-6233809Y-25779341D01*
X-6175000Y-25773549D01*
X-6174999Y-25773549D01*
X-6155397Y-25775480D01*
G37*
G36*
X-9455397Y-25775480D02*
G01*
X-9416190Y-25779341D01*
X-9359640Y-25796496D01*
X-9359637Y-25796497D01*
X-9307524Y-25824352D01*
X-9261842Y-25861842D01*
X-9224352Y-25907524D01*
X-9196497Y-25959637D01*
X-9196496Y-25959640D01*
X-9179341Y-26016190D01*
X-9175000Y-26060267D01*
X-9175000Y-27089733D01*
X-9179341Y-27133810D01*
X-9196496Y-27190359D01*
X-9196497Y-27190363D01*
X-9224352Y-27242476D01*
X-9261841Y-27288157D01*
X-9307525Y-27325648D01*
X-9359638Y-27353503D01*
X-9359641Y-27353504D01*
X-9416191Y-27370659D01*
X-9475000Y-27376451D01*
X-9475001Y-27376451D01*
X-9494603Y-27374520D01*
X-9533810Y-27370659D01*
X-9590360Y-27353504D01*
X-9590363Y-27353503D01*
X-9642476Y-27325648D01*
X-9688157Y-27288159D01*
X-9725648Y-27242475D01*
X-9753503Y-27190362D01*
X-9753504Y-27190359D01*
X-9770659Y-27133809D01*
X-9775000Y-27089732D01*
X-9774999Y-26060267D01*
X-9770658Y-26016190D01*
X-9753503Y-25959640D01*
X-9753502Y-25959637D01*
X-9725647Y-25907524D01*
X-9688157Y-25861842D01*
X-9642475Y-25824352D01*
X-9590362Y-25796497D01*
X-9590359Y-25796496D01*
X-9533809Y-25779341D01*
X-9475000Y-25773549D01*
X-9474999Y-25773549D01*
X-9455397Y-25775480D01*
G37*
G36*
X-7255397Y-25775480D02*
G01*
X-7216190Y-25779341D01*
X-7159640Y-25796496D01*
X-7159637Y-25796497D01*
X-7107524Y-25824352D01*
X-7061842Y-25861842D01*
X-7024352Y-25907524D01*
X-6996497Y-25959637D01*
X-6996496Y-25959640D01*
X-6979341Y-26016190D01*
X-6975000Y-26060267D01*
X-6975000Y-27089733D01*
X-6979341Y-27133810D01*
X-6996496Y-27190359D01*
X-6996497Y-27190363D01*
X-7024352Y-27242476D01*
X-7061841Y-27288157D01*
X-7107525Y-27325648D01*
X-7159638Y-27353503D01*
X-7159641Y-27353504D01*
X-7216191Y-27370659D01*
X-7275000Y-27376451D01*
X-7275001Y-27376451D01*
X-7294603Y-27374520D01*
X-7333810Y-27370659D01*
X-7390360Y-27353504D01*
X-7390363Y-27353503D01*
X-7442476Y-27325648D01*
X-7488157Y-27288159D01*
X-7525648Y-27242475D01*
X-7553503Y-27190362D01*
X-7553504Y-27190359D01*
X-7570659Y-27133809D01*
X-7575000Y-27089732D01*
X-7574999Y-26060267D01*
X-7570658Y-26016190D01*
X-7553503Y-25959640D01*
X-7553502Y-25959637D01*
X-7525647Y-25907524D01*
X-7488157Y-25861842D01*
X-7442475Y-25824352D01*
X-7390362Y-25796497D01*
X-7390359Y-25796496D01*
X-7333809Y-25779341D01*
X-7275000Y-25773549D01*
X-7274999Y-25773549D01*
X-7255397Y-25775480D01*
G37*
G36*
X-13855397Y-25775480D02*
G01*
X-13816190Y-25779341D01*
X-13759640Y-25796496D01*
X-13759637Y-25796497D01*
X-13707524Y-25824352D01*
X-13661842Y-25861842D01*
X-13624352Y-25907524D01*
X-13596497Y-25959637D01*
X-13596496Y-25959640D01*
X-13579341Y-26016190D01*
X-13575000Y-26060267D01*
X-13575000Y-27089733D01*
X-13579341Y-27133810D01*
X-13596496Y-27190359D01*
X-13596497Y-27190363D01*
X-13624352Y-27242476D01*
X-13661841Y-27288157D01*
X-13707525Y-27325648D01*
X-13759638Y-27353503D01*
X-13759641Y-27353504D01*
X-13816191Y-27370659D01*
X-13875000Y-27376451D01*
X-13875001Y-27376451D01*
X-13894603Y-27374520D01*
X-13933810Y-27370659D01*
X-13990360Y-27353504D01*
X-13990363Y-27353503D01*
X-14042476Y-27325648D01*
X-14088157Y-27288159D01*
X-14125648Y-27242475D01*
X-14153503Y-27190362D01*
X-14153504Y-27190359D01*
X-14170659Y-27133809D01*
X-14175000Y-27089732D01*
X-14174999Y-26060267D01*
X-14170658Y-26016190D01*
X-14153503Y-25959640D01*
X-14153502Y-25959637D01*
X-14125647Y-25907524D01*
X-14088157Y-25861842D01*
X-14042475Y-25824352D01*
X-13990362Y-25796497D01*
X-13990359Y-25796496D01*
X-13933809Y-25779341D01*
X-13875000Y-25773549D01*
X-13874999Y-25773549D01*
X-13855397Y-25775480D01*
G37*
G36*
X-12755397Y-25775480D02*
G01*
X-12716190Y-25779341D01*
X-12659640Y-25796496D01*
X-12659637Y-25796497D01*
X-12607524Y-25824352D01*
X-12561842Y-25861842D01*
X-12524352Y-25907524D01*
X-12496497Y-25959637D01*
X-12496496Y-25959640D01*
X-12479341Y-26016190D01*
X-12475000Y-26060267D01*
X-12475000Y-27089733D01*
X-12479341Y-27133810D01*
X-12496496Y-27190359D01*
X-12496497Y-27190363D01*
X-12524352Y-27242476D01*
X-12561841Y-27288157D01*
X-12607525Y-27325648D01*
X-12659638Y-27353503D01*
X-12659641Y-27353504D01*
X-12716191Y-27370659D01*
X-12775000Y-27376451D01*
X-12775001Y-27376451D01*
X-12794603Y-27374520D01*
X-12833810Y-27370659D01*
X-12890360Y-27353504D01*
X-12890363Y-27353503D01*
X-12942476Y-27325648D01*
X-12988157Y-27288159D01*
X-13025648Y-27242475D01*
X-13053503Y-27190362D01*
X-13053504Y-27190359D01*
X-13070659Y-27133809D01*
X-13075000Y-27089732D01*
X-13074999Y-26060267D01*
X-13070658Y-26016190D01*
X-13053503Y-25959640D01*
X-13053502Y-25959637D01*
X-13025647Y-25907524D01*
X-12988157Y-25861842D01*
X-12942475Y-25824352D01*
X-12890362Y-25796497D01*
X-12890359Y-25796496D01*
X-12833809Y-25779341D01*
X-12775000Y-25773549D01*
X-12774999Y-25773549D01*
X-12755397Y-25775480D01*
G37*
G36*
X-10555397Y-25775480D02*
G01*
X-10516190Y-25779341D01*
X-10459640Y-25796496D01*
X-10459637Y-25796497D01*
X-10407524Y-25824352D01*
X-10361842Y-25861842D01*
X-10324352Y-25907524D01*
X-10296497Y-25959637D01*
X-10296496Y-25959640D01*
X-10279341Y-26016190D01*
X-10275000Y-26060267D01*
X-10275000Y-27089733D01*
X-10279341Y-27133810D01*
X-10296496Y-27190359D01*
X-10296497Y-27190363D01*
X-10324352Y-27242476D01*
X-10361841Y-27288157D01*
X-10407525Y-27325648D01*
X-10459638Y-27353503D01*
X-10459641Y-27353504D01*
X-10516191Y-27370659D01*
X-10575000Y-27376451D01*
X-10575001Y-27376451D01*
X-10594603Y-27374520D01*
X-10633810Y-27370659D01*
X-10690360Y-27353504D01*
X-10690363Y-27353503D01*
X-10742476Y-27325648D01*
X-10788157Y-27288159D01*
X-10825648Y-27242475D01*
X-10853503Y-27190362D01*
X-10853504Y-27190359D01*
X-10870659Y-27133809D01*
X-10875000Y-27089732D01*
X-10874999Y-26060267D01*
X-10870658Y-26016190D01*
X-10853503Y-25959640D01*
X-10853502Y-25959637D01*
X-10825647Y-25907524D01*
X-10788157Y-25861842D01*
X-10742475Y-25824352D01*
X-10690362Y-25796497D01*
X-10690359Y-25796496D01*
X-10633809Y-25779341D01*
X-10575000Y-25773549D01*
X-10574999Y-25773549D01*
X-10555397Y-25775480D01*
G37*
G36*
X-11655397Y-25775480D02*
G01*
X-11616190Y-25779341D01*
X-11559640Y-25796496D01*
X-11559637Y-25796497D01*
X-11507524Y-25824352D01*
X-11461842Y-25861842D01*
X-11424352Y-25907524D01*
X-11396497Y-25959637D01*
X-11396496Y-25959640D01*
X-11379341Y-26016190D01*
X-11375000Y-26060267D01*
X-11375000Y-27089733D01*
X-11379341Y-27133810D01*
X-11396496Y-27190359D01*
X-11396497Y-27190363D01*
X-11424352Y-27242476D01*
X-11461841Y-27288157D01*
X-11507525Y-27325648D01*
X-11559638Y-27353503D01*
X-11559641Y-27353504D01*
X-11616191Y-27370659D01*
X-11675000Y-27376451D01*
X-11675001Y-27376451D01*
X-11694603Y-27374520D01*
X-11733810Y-27370659D01*
X-11790360Y-27353504D01*
X-11790363Y-27353503D01*
X-11842476Y-27325648D01*
X-11888157Y-27288159D01*
X-11925648Y-27242475D01*
X-11953503Y-27190362D01*
X-11953504Y-27190359D01*
X-11970659Y-27133809D01*
X-11975000Y-27089732D01*
X-11974999Y-26060267D01*
X-11970658Y-26016190D01*
X-11953503Y-25959640D01*
X-11953502Y-25959637D01*
X-11925647Y-25907524D01*
X-11888157Y-25861842D01*
X-11842475Y-25824352D01*
X-11790362Y-25796497D01*
X-11790359Y-25796496D01*
X-11733809Y-25779341D01*
X-11675000Y-25773549D01*
X-11674999Y-25773549D01*
X-11655397Y-25775480D01*
G37*
G36*
X18072000Y-26962000D02*
G01*
X16472000Y-26962000D01*
X16472000Y-25362000D01*
X18072000Y-25362000D01*
X18072000Y-26962000D01*
G37*
G36*
X14005351Y-25392743D02*
G01*
X14150941Y-25453048D01*
X14281970Y-25540599D01*
X14393401Y-25652030D01*
X14480952Y-25783059D01*
X14541257Y-25928649D01*
X14572000Y-26083206D01*
X14572000Y-26240794D01*
X14541257Y-26395351D01*
X14480952Y-26540941D01*
X14393401Y-26671970D01*
X14281970Y-26783401D01*
X14150941Y-26870952D01*
X14005351Y-26931257D01*
X13850794Y-26962000D01*
X13693206Y-26962000D01*
X13538649Y-26931257D01*
X13393059Y-26870952D01*
X13262030Y-26783401D01*
X13150599Y-26671970D01*
X13063048Y-26540941D01*
X13002743Y-26395351D01*
X12972000Y-26240794D01*
X12972000Y-26083206D01*
X13002743Y-25928649D01*
X13063048Y-25783059D01*
X13150599Y-25652030D01*
X13262030Y-25540599D01*
X13393059Y-25453048D01*
X13538649Y-25392743D01*
X13693206Y-25362000D01*
X13850794Y-25362000D01*
X14005351Y-25392743D01*
G37*
G36*
X5623351Y-23741743D02*
G01*
X5768941Y-23802048D01*
X5899970Y-23889599D01*
X6011401Y-24001030D01*
X6098952Y-24132059D01*
X6159257Y-24277649D01*
X6190000Y-24432206D01*
X6190000Y-24589794D01*
X6159257Y-24744351D01*
X6098952Y-24889941D01*
X6011401Y-25020970D01*
X5899970Y-25132401D01*
X5768941Y-25219952D01*
X5623351Y-25280257D01*
X5468794Y-25311000D01*
X5311206Y-25311000D01*
X5156649Y-25280257D01*
X5011059Y-25219952D01*
X4880030Y-25132401D01*
X4768599Y-25020970D01*
X4681048Y-24889941D01*
X4620743Y-24744351D01*
X4590000Y-24589794D01*
X4590000Y-24432206D01*
X4620743Y-24277649D01*
X4681048Y-24132059D01*
X4768599Y-24001030D01*
X4880030Y-23889599D01*
X5011059Y-23802048D01*
X5156649Y-23741743D01*
X5311206Y-23711000D01*
X5468794Y-23711000D01*
X5623351Y-23741743D01*
G37*
G36*
X9690000Y-25311000D02*
G01*
X8090000Y-25311000D01*
X8090000Y-23711000D01*
X9690000Y-23711000D01*
X9690000Y-25311000D01*
G37*
G36*
X-2669537Y-24703226D02*
G01*
X-2653701Y-24708030D01*
X-2639114Y-24715827D01*
X-2626323Y-24726323D01*
X-2615827Y-24739114D01*
X-2608030Y-24753701D01*
X-2603226Y-24769537D01*
X-2601000Y-24792140D01*
X-2601000Y-25199860D01*
X-2603226Y-25222463D01*
X-2608030Y-25238299D01*
X-2615827Y-25252886D01*
X-2626323Y-25265677D01*
X-2639114Y-25276173D01*
X-2653701Y-25283970D01*
X-2669537Y-25288774D01*
X-2692140Y-25291000D01*
X-3149860Y-25291000D01*
X-3172463Y-25288774D01*
X-3188299Y-25283970D01*
X-3202886Y-25276173D01*
X-3215677Y-25265677D01*
X-3226173Y-25252886D01*
X-3233970Y-25238299D01*
X-3238774Y-25222463D01*
X-3241000Y-25199860D01*
X-3241000Y-24792140D01*
X-3238774Y-24769537D01*
X-3233970Y-24753701D01*
X-3226173Y-24739114D01*
X-3215677Y-24726323D01*
X-3202886Y-24715827D01*
X-3188299Y-24708030D01*
X-3172463Y-24703226D01*
X-3149860Y-24701000D01*
X-2692140Y-24701000D01*
X-2669537Y-24703226D01*
G37*
G36*
X-3860537Y-24320226D02*
G01*
X-3844701Y-24325030D01*
X-3830114Y-24332827D01*
X-3817323Y-24343323D01*
X-3806827Y-24356114D01*
X-3799030Y-24370701D01*
X-3794226Y-24386537D01*
X-3792000Y-24409140D01*
X-3792000Y-24866860D01*
X-3794226Y-24889463D01*
X-3799030Y-24905299D01*
X-3806827Y-24919886D01*
X-3817323Y-24932677D01*
X-3830114Y-24943173D01*
X-3844701Y-24950970D01*
X-3860537Y-24955774D01*
X-3883140Y-24958000D01*
X-4290860Y-24958000D01*
X-4313463Y-24955774D01*
X-4329299Y-24950970D01*
X-4343886Y-24943173D01*
X-4356677Y-24932677D01*
X-4367173Y-24919886D01*
X-4374970Y-24905299D01*
X-4379774Y-24889463D01*
X-4382000Y-24866860D01*
X-4382000Y-24409140D01*
X-4379774Y-24386537D01*
X-4374970Y-24370701D01*
X-4367173Y-24356114D01*
X-4356677Y-24343323D01*
X-4343886Y-24332827D01*
X-4329299Y-24325030D01*
X-4313463Y-24320226D01*
X-4290860Y-24318000D01*
X-3883140Y-24318000D01*
X-3860537Y-24320226D01*
G37*
G36*
X-4830537Y-24320226D02*
G01*
X-4814701Y-24325030D01*
X-4800114Y-24332827D01*
X-4787323Y-24343323D01*
X-4776827Y-24356114D01*
X-4769030Y-24370701D01*
X-4764226Y-24386537D01*
X-4762000Y-24409140D01*
X-4762000Y-24866860D01*
X-4764226Y-24889463D01*
X-4769030Y-24905299D01*
X-4776827Y-24919886D01*
X-4787323Y-24932677D01*
X-4800114Y-24943173D01*
X-4814701Y-24950970D01*
X-4830537Y-24955774D01*
X-4853140Y-24958000D01*
X-5260860Y-24958000D01*
X-5283463Y-24955774D01*
X-5299299Y-24950970D01*
X-5313886Y-24943173D01*
X-5326677Y-24932677D01*
X-5337173Y-24919886D01*
X-5344970Y-24905299D01*
X-5349774Y-24889463D01*
X-5352000Y-24866860D01*
X-5352000Y-24409140D01*
X-5349774Y-24386537D01*
X-5344970Y-24370701D01*
X-5337173Y-24356114D01*
X-5326677Y-24343323D01*
X-5313886Y-24332827D01*
X-5299299Y-24325030D01*
X-5283463Y-24320226D01*
X-5260860Y-24318000D01*
X-4853140Y-24318000D01*
X-4830537Y-24320226D01*
G37*
G36*
X726766Y-23408821D02*
G01*
X863257Y-23465358D01*
X986097Y-23547437D01*
X1090563Y-23651903D01*
X1172642Y-23774743D01*
X1229179Y-23911234D01*
X1258000Y-24056130D01*
X1258000Y-24203870D01*
X1229179Y-24348766D01*
X1172642Y-24485257D01*
X1090563Y-24608097D01*
X986097Y-24712563D01*
X863257Y-24794642D01*
X726766Y-24851179D01*
X581870Y-24880000D01*
X434130Y-24880000D01*
X289234Y-24851179D01*
X152743Y-24794642D01*
X29903Y-24712563D01*
X-74563Y-24608097D01*
X-156642Y-24485257D01*
X-213179Y-24348766D01*
X-242000Y-24203870D01*
X-242000Y-24056130D01*
X-213179Y-23911234D01*
X-156642Y-23774743D01*
X-74563Y-23651903D01*
X29903Y-23547437D01*
X152743Y-23465358D01*
X289234Y-23408821D01*
X434130Y-23380000D01*
X581870Y-23380000D01*
X726766Y-23408821D01*
G37*
G36*
X-2669537Y-23733226D02*
G01*
X-2653701Y-23738030D01*
X-2639114Y-23745827D01*
X-2626323Y-23756323D01*
X-2615827Y-23769114D01*
X-2608030Y-23783701D01*
X-2603226Y-23799537D01*
X-2601000Y-23822140D01*
X-2601000Y-24229860D01*
X-2603226Y-24252463D01*
X-2608030Y-24268299D01*
X-2615827Y-24282886D01*
X-2626323Y-24295677D01*
X-2639114Y-24306173D01*
X-2653701Y-24313970D01*
X-2669537Y-24318774D01*
X-2692140Y-24321000D01*
X-3149860Y-24321000D01*
X-3172463Y-24318774D01*
X-3188299Y-24313970D01*
X-3202886Y-24306173D01*
X-3215677Y-24295677D01*
X-3226173Y-24282886D01*
X-3233970Y-24268299D01*
X-3238774Y-24252463D01*
X-3241000Y-24229860D01*
X-3241000Y-23822140D01*
X-3238774Y-23799537D01*
X-3233970Y-23783701D01*
X-3226173Y-23769114D01*
X-3215677Y-23756323D01*
X-3202886Y-23745827D01*
X-3188299Y-23738030D01*
X-3172463Y-23733226D01*
X-3149860Y-23731000D01*
X-2692140Y-23731000D01*
X-2669537Y-23733226D01*
G37*
G36*
X-2480200Y-22394000D02*
G01*
X-5080200Y-22394000D01*
X-5080200Y-21294000D01*
X-2480200Y-21294000D01*
X-2480200Y-22394000D01*
G37*
G36*
X-15160200Y-22394000D02*
G01*
X-17760200Y-22394000D01*
X-17760200Y-21294000D01*
X-15160200Y-21294000D01*
X-15160200Y-22394000D01*
G37*
G36*
X1673200Y-21137800D02*
G01*
X1273200Y-21137800D01*
X1273200Y-20487800D01*
X1673200Y-20487800D01*
X1673200Y-21137800D01*
G37*
G36*
X373200Y-21137800D02*
G01*
X-26800Y-21137800D01*
X-26800Y-20487800D01*
X373200Y-20487800D01*
X373200Y-21137800D01*
G37*
G36*
X3268800Y-19375000D02*
G01*
X2868800Y-19375000D01*
X2868800Y-18725000D01*
X3268800Y-18725000D01*
X3268800Y-19375000D01*
G37*
G36*
X4568800Y-19375000D02*
G01*
X4168800Y-19375000D01*
X4168800Y-18725000D01*
X4568800Y-18725000D01*
X4568800Y-19375000D01*
G37*
G36*
X3918800Y-19375000D02*
G01*
X3518800Y-19375000D01*
X3518800Y-18725000D01*
X3918800Y-18725000D01*
X3918800Y-19375000D01*
G37*
G36*
X1673200Y-19237800D02*
G01*
X1273200Y-19237800D01*
X1273200Y-18587800D01*
X1673200Y-18587800D01*
X1673200Y-19237800D01*
G37*
G36*
X1023200Y-19237800D02*
G01*
X623200Y-19237800D01*
X623200Y-18587800D01*
X1023200Y-18587800D01*
X1023200Y-19237800D01*
G37*
G36*
X373200Y-19237800D02*
G01*
X-26800Y-19237800D01*
X-26800Y-18587800D01*
X373200Y-18587800D01*
X373200Y-19237800D01*
G37*
G36*
X15405000Y-18707000D02*
G01*
X13805000Y-18707000D01*
X13805000Y-17107000D01*
X15405000Y-17107000D01*
X15405000Y-18707000D01*
G37*
G36*
X11338351Y-17137743D02*
G01*
X11483941Y-17198048D01*
X11614970Y-17285599D01*
X11726401Y-17397030D01*
X11813952Y-17528059D01*
X11874257Y-17673649D01*
X11905000Y-17828206D01*
X11905000Y-17985794D01*
X11874257Y-18140351D01*
X11813952Y-18285941D01*
X11726401Y-18416970D01*
X11614970Y-18528401D01*
X11483941Y-18615952D01*
X11338351Y-18676257D01*
X11183794Y-18707000D01*
X11026206Y-18707000D01*
X10871649Y-18676257D01*
X10726059Y-18615952D01*
X10595030Y-18528401D01*
X10483599Y-18416970D01*
X10396048Y-18285941D01*
X10335743Y-18140351D01*
X10305000Y-17985794D01*
X10305000Y-17828206D01*
X10335743Y-17673649D01*
X10396048Y-17528059D01*
X10483599Y-17397030D01*
X10595030Y-17285599D01*
X10726059Y-17198048D01*
X10871649Y-17137743D01*
X11026206Y-17107000D01*
X11183794Y-17107000D01*
X11338351Y-17137743D01*
G37*
G36*
X6245863Y-17746026D02*
G01*
X6261699Y-17750830D01*
X6276286Y-17758627D01*
X6289077Y-17769123D01*
X6299573Y-17781914D01*
X6307370Y-17796501D01*
X6312174Y-17812337D01*
X6314400Y-17834940D01*
X6314400Y-18242660D01*
X6312174Y-18265263D01*
X6307370Y-18281099D01*
X6299573Y-18295686D01*
X6289077Y-18308477D01*
X6276286Y-18318973D01*
X6261699Y-18326770D01*
X6245863Y-18331574D01*
X6223260Y-18333800D01*
X5765540Y-18333800D01*
X5742937Y-18331574D01*
X5727101Y-18326770D01*
X5712514Y-18318973D01*
X5699723Y-18308477D01*
X5689227Y-18295686D01*
X5681430Y-18281099D01*
X5676626Y-18265263D01*
X5674400Y-18242660D01*
X5674400Y-17834940D01*
X5676626Y-17812337D01*
X5681430Y-17796501D01*
X5689227Y-17781914D01*
X5699723Y-17769123D01*
X5712514Y-17758627D01*
X5727101Y-17750830D01*
X5742937Y-17746026D01*
X5765540Y-17743800D01*
X6223260Y-17743800D01*
X6245863Y-17746026D01*
G37*
G36*
X4568800Y-17475000D02*
G01*
X4168800Y-17475000D01*
X4168800Y-16825000D01*
X4568800Y-16825000D01*
X4568800Y-17475000D01*
G37*
G36*
X3268800Y-17475000D02*
G01*
X2868800Y-17475000D01*
X2868800Y-16825000D01*
X3268800Y-16825000D01*
X3268800Y-17475000D01*
G37*
G36*
X6245863Y-16776026D02*
G01*
X6261699Y-16780830D01*
X6276286Y-16788627D01*
X6289077Y-16799123D01*
X6299573Y-16811914D01*
X6307370Y-16826501D01*
X6312174Y-16842337D01*
X6314400Y-16864940D01*
X6314400Y-17272660D01*
X6312174Y-17295263D01*
X6307370Y-17311099D01*
X6299573Y-17325686D01*
X6289077Y-17338477D01*
X6276286Y-17348973D01*
X6261699Y-17356770D01*
X6245863Y-17361574D01*
X6223260Y-17363800D01*
X5765540Y-17363800D01*
X5742937Y-17361574D01*
X5727101Y-17356770D01*
X5712514Y-17348973D01*
X5699723Y-17338477D01*
X5689227Y-17325686D01*
X5681430Y-17311099D01*
X5676626Y-17295263D01*
X5674400Y-17272660D01*
X5674400Y-16864940D01*
X5676626Y-16842337D01*
X5681430Y-16826501D01*
X5689227Y-16811914D01*
X5699723Y-16799123D01*
X5712514Y-16788627D01*
X5727101Y-16780830D01*
X5742937Y-16776026D01*
X5765540Y-16773800D01*
X6223260Y-16773800D01*
X6245863Y-16776026D01*
G37*
G36*
X6276463Y-15582626D02*
G01*
X6292299Y-15587430D01*
X6306886Y-15595227D01*
X6319677Y-15605723D01*
X6330173Y-15618514D01*
X6337970Y-15633101D01*
X6342774Y-15648937D01*
X6345000Y-15671540D01*
X6345000Y-16129260D01*
X6342774Y-16151863D01*
X6337970Y-16167699D01*
X6330173Y-16182286D01*
X6319677Y-16195077D01*
X6306886Y-16205573D01*
X6292299Y-16213370D01*
X6276463Y-16218174D01*
X6253860Y-16220400D01*
X5846140Y-16220400D01*
X5823537Y-16218174D01*
X5807701Y-16213370D01*
X5793114Y-16205573D01*
X5780323Y-16195077D01*
X5769827Y-16182286D01*
X5762030Y-16167699D01*
X5757226Y-16151863D01*
X5755000Y-16129260D01*
X5755000Y-15671540D01*
X5757226Y-15648937D01*
X5762030Y-15633101D01*
X5769827Y-15618514D01*
X5780323Y-15605723D01*
X5793114Y-15595227D01*
X5807701Y-15587430D01*
X5823537Y-15582626D01*
X5846140Y-15580400D01*
X6253860Y-15580400D01*
X6276463Y-15582626D01*
G37*
G36*
X5306463Y-15582626D02*
G01*
X5322299Y-15587430D01*
X5336886Y-15595227D01*
X5349677Y-15605723D01*
X5360173Y-15618514D01*
X5367970Y-15633101D01*
X5372774Y-15648937D01*
X5375000Y-15671540D01*
X5375000Y-16129260D01*
X5372774Y-16151863D01*
X5367970Y-16167699D01*
X5360173Y-16182286D01*
X5349677Y-16195077D01*
X5336886Y-16205573D01*
X5322299Y-16213370D01*
X5306463Y-16218174D01*
X5283860Y-16220400D01*
X4876140Y-16220400D01*
X4853537Y-16218174D01*
X4837701Y-16213370D01*
X4823114Y-16205573D01*
X4810323Y-16195077D01*
X4799827Y-16182286D01*
X4792030Y-16167699D01*
X4787226Y-16151863D01*
X4785000Y-16129260D01*
X4785000Y-15671540D01*
X4787226Y-15648937D01*
X4792030Y-15633101D01*
X4799827Y-15618514D01*
X4810323Y-15605723D01*
X4823114Y-15595227D01*
X4837701Y-15587430D01*
X4853537Y-15582626D01*
X4876140Y-15580400D01*
X5283860Y-15580400D01*
X5306463Y-15582626D01*
G37*
G36*
X18760766Y-13121821D02*
G01*
X18897257Y-13178358D01*
X19020097Y-13260437D01*
X19124563Y-13364903D01*
X19206642Y-13487743D01*
X19263179Y-13624234D01*
X19292000Y-13769130D01*
X19292000Y-13916870D01*
X19263179Y-14061766D01*
X19206642Y-14198257D01*
X19124563Y-14321097D01*
X19020097Y-14425563D01*
X18897257Y-14507642D01*
X18760766Y-14564179D01*
X18615870Y-14593000D01*
X18468130Y-14593000D01*
X18323234Y-14564179D01*
X18186743Y-14507642D01*
X18063903Y-14425563D01*
X17959437Y-14321097D01*
X17877358Y-14198257D01*
X17820821Y-14061766D01*
X17792000Y-13916870D01*
X17792000Y-13769130D01*
X17820821Y-13624234D01*
X17877358Y-13487743D01*
X17959437Y-13364903D01*
X18063903Y-13260437D01*
X18186743Y-13178358D01*
X18323234Y-13121821D01*
X18468130Y-13093000D01*
X18615870Y-13093000D01*
X18760766Y-13121821D01*
G37*
G36*
X-680200Y-14044000D02*
G01*
X-2030200Y-14044000D01*
X-2030200Y-13144000D01*
X-680200Y-13144000D01*
X-680200Y-14044000D01*
G37*
G36*
X2535200Y-13558000D02*
G01*
X1935200Y-13558000D01*
X1935200Y-12858000D01*
X2535200Y-12858000D01*
X2535200Y-13558000D01*
G37*
G36*
X1135200Y-13558000D02*
G01*
X535200Y-13558000D01*
X535200Y-12858000D01*
X1135200Y-12858000D01*
X1135200Y-13558000D01*
G37*
G36*
X9649463Y-12511226D02*
G01*
X9665299Y-12516030D01*
X9679886Y-12523827D01*
X9692677Y-12534323D01*
X9703173Y-12547114D01*
X9710970Y-12561701D01*
X9715774Y-12577537D01*
X9718000Y-12600140D01*
X9718000Y-13007860D01*
X9715774Y-13030463D01*
X9710970Y-13046299D01*
X9703173Y-13060886D01*
X9692677Y-13073677D01*
X9679886Y-13084173D01*
X9665299Y-13091970D01*
X9649463Y-13096774D01*
X9626860Y-13099000D01*
X9169140Y-13099000D01*
X9146537Y-13096774D01*
X9130701Y-13091970D01*
X9116114Y-13084173D01*
X9103323Y-13073677D01*
X9092827Y-13060886D01*
X9085030Y-13046299D01*
X9080226Y-13030463D01*
X9078000Y-13007860D01*
X9078000Y-12600140D01*
X9080226Y-12577537D01*
X9085030Y-12561701D01*
X9092827Y-12547114D01*
X9103323Y-12534323D01*
X9116114Y-12523827D01*
X9130701Y-12516030D01*
X9146537Y-12511226D01*
X9169140Y-12509000D01*
X9626860Y-12509000D01*
X9649463Y-12511226D01*
G37*
G36*
X4496463Y-12433026D02*
G01*
X4512299Y-12437830D01*
X4526886Y-12445627D01*
X4539677Y-12456123D01*
X4550173Y-12468914D01*
X4557970Y-12483501D01*
X4562774Y-12499337D01*
X4565000Y-12521940D01*
X4565000Y-12979660D01*
X4562774Y-13002263D01*
X4557970Y-13018099D01*
X4550173Y-13032686D01*
X4539677Y-13045477D01*
X4526886Y-13055973D01*
X4512299Y-13063770D01*
X4496463Y-13068574D01*
X4473860Y-13070800D01*
X4066140Y-13070800D01*
X4043537Y-13068574D01*
X4027701Y-13063770D01*
X4013114Y-13055973D01*
X4000323Y-13045477D01*
X3989827Y-13032686D01*
X3982030Y-13018099D01*
X3977226Y-13002263D01*
X3975000Y-12979660D01*
X3975000Y-12521940D01*
X3977226Y-12499337D01*
X3982030Y-12483501D01*
X3989827Y-12468914D01*
X4000323Y-12456123D01*
X4013114Y-12445627D01*
X4027701Y-12437830D01*
X4043537Y-12433026D01*
X4066140Y-12430800D01*
X4473860Y-12430800D01*
X4496463Y-12433026D01*
G37*
G36*
X3526463Y-12433026D02*
G01*
X3542299Y-12437830D01*
X3556886Y-12445627D01*
X3569677Y-12456123D01*
X3580173Y-12468914D01*
X3587970Y-12483501D01*
X3592774Y-12499337D01*
X3595000Y-12521940D01*
X3595000Y-12979660D01*
X3592774Y-13002263D01*
X3587970Y-13018099D01*
X3580173Y-13032686D01*
X3569677Y-13045477D01*
X3556886Y-13055973D01*
X3542299Y-13063770D01*
X3526463Y-13068574D01*
X3503860Y-13070800D01*
X3096140Y-13070800D01*
X3073537Y-13068574D01*
X3057701Y-13063770D01*
X3043114Y-13055973D01*
X3030323Y-13045477D01*
X3019827Y-13032686D01*
X3012030Y-13018099D01*
X3007226Y-13002263D01*
X3005000Y-12979660D01*
X3005000Y-12521940D01*
X3007226Y-12499337D01*
X3012030Y-12483501D01*
X3019827Y-12468914D01*
X3030323Y-12456123D01*
X3043114Y-12445627D01*
X3057701Y-12437830D01*
X3073537Y-12433026D01*
X3096140Y-12430800D01*
X3503860Y-12430800D01*
X3526463Y-12433026D01*
G37*
G36*
X-680200Y-12774000D02*
G01*
X-2030200Y-12774000D01*
X-2030200Y-11874000D01*
X-680200Y-11874000D01*
X-680200Y-12774000D01*
G37*
G36*
X9649463Y-11541226D02*
G01*
X9665299Y-11546030D01*
X9679886Y-11553827D01*
X9692677Y-11564323D01*
X9703173Y-11577114D01*
X9710970Y-11591701D01*
X9715774Y-11607537D01*
X9718000Y-11630140D01*
X9718000Y-12037860D01*
X9715774Y-12060463D01*
X9710970Y-12076299D01*
X9703173Y-12090886D01*
X9692677Y-12103677D01*
X9679886Y-12114173D01*
X9665299Y-12121970D01*
X9649463Y-12126774D01*
X9626860Y-12129000D01*
X9169140Y-12129000D01*
X9146537Y-12126774D01*
X9130701Y-12121970D01*
X9116114Y-12114173D01*
X9103323Y-12103677D01*
X9092827Y-12090886D01*
X9085030Y-12076299D01*
X9080226Y-12060463D01*
X9078000Y-12037860D01*
X9078000Y-11630140D01*
X9080226Y-11607537D01*
X9085030Y-11591701D01*
X9092827Y-11577114D01*
X9103323Y-11564323D01*
X9116114Y-11553827D01*
X9130701Y-11546030D01*
X9146537Y-11541226D01*
X9169140Y-11539000D01*
X9626860Y-11539000D01*
X9649463Y-11541226D01*
G37*
G36*
X3528463Y-11366226D02*
G01*
X3544299Y-11371030D01*
X3558886Y-11378827D01*
X3571677Y-11389323D01*
X3582173Y-11402114D01*
X3589970Y-11416701D01*
X3594774Y-11432537D01*
X3597000Y-11455140D01*
X3597000Y-11912860D01*
X3594774Y-11935463D01*
X3589970Y-11951299D01*
X3582173Y-11965886D01*
X3571677Y-11978677D01*
X3558886Y-11989173D01*
X3544299Y-11996970D01*
X3528463Y-12001774D01*
X3505860Y-12004000D01*
X3098140Y-12004000D01*
X3075537Y-12001774D01*
X3059701Y-11996970D01*
X3045114Y-11989173D01*
X3032323Y-11978677D01*
X3021827Y-11965886D01*
X3014030Y-11951299D01*
X3009226Y-11935463D01*
X3007000Y-11912860D01*
X3007000Y-11455140D01*
X3009226Y-11432537D01*
X3014030Y-11416701D01*
X3021827Y-11402114D01*
X3032323Y-11389323D01*
X3045114Y-11378827D01*
X3059701Y-11371030D01*
X3075537Y-11366226D01*
X3098140Y-11364000D01*
X3505860Y-11364000D01*
X3528463Y-11366226D01*
G37*
G36*
X2558463Y-11366226D02*
G01*
X2574299Y-11371030D01*
X2588886Y-11378827D01*
X2601677Y-11389323D01*
X2612173Y-11402114D01*
X2619970Y-11416701D01*
X2624774Y-11432537D01*
X2627000Y-11455140D01*
X2627000Y-11912860D01*
X2624774Y-11935463D01*
X2619970Y-11951299D01*
X2612173Y-11965886D01*
X2601677Y-11978677D01*
X2588886Y-11989173D01*
X2574299Y-11996970D01*
X2558463Y-12001774D01*
X2535860Y-12004000D01*
X2128140Y-12004000D01*
X2105537Y-12001774D01*
X2089701Y-11996970D01*
X2075114Y-11989173D01*
X2062323Y-11978677D01*
X2051827Y-11965886D01*
X2044030Y-11951299D01*
X2039226Y-11935463D01*
X2037000Y-11912860D01*
X2037000Y-11455140D01*
X2039226Y-11432537D01*
X2044030Y-11416701D01*
X2051827Y-11402114D01*
X2062323Y-11389323D01*
X2075114Y-11378827D01*
X2089701Y-11371030D01*
X2105537Y-11366226D01*
X2128140Y-11364000D01*
X2535860Y-11364000D01*
X2558463Y-11366226D01*
G37*
G36*
X13684116Y-10742095D02*
G01*
X13713311Y-10750952D01*
X13740223Y-10765337D01*
X13763808Y-10784692D01*
X13783163Y-10808277D01*
X13797548Y-10835189D01*
X13806405Y-10864384D01*
X13810000Y-10900890D01*
X13810000Y-11451110D01*
X13806405Y-11487616D01*
X13797548Y-11516811D01*
X13783163Y-11543723D01*
X13763808Y-11567308D01*
X13740223Y-11586663D01*
X13713311Y-11601048D01*
X13684116Y-11609905D01*
X13647610Y-11613500D01*
X13022390Y-11613500D01*
X12985884Y-11609905D01*
X12956689Y-11601048D01*
X12929777Y-11586663D01*
X12906192Y-11567308D01*
X12886837Y-11543723D01*
X12872452Y-11516811D01*
X12863595Y-11487616D01*
X12860000Y-11451110D01*
X12860000Y-10900890D01*
X12863595Y-10864384D01*
X12872452Y-10835189D01*
X12886837Y-10808277D01*
X12906192Y-10784692D01*
X12929777Y-10765337D01*
X12956689Y-10750952D01*
X12985884Y-10742095D01*
X13022390Y-10738500D01*
X13647610Y-10738500D01*
X13684116Y-10742095D01*
G37*
G36*
X-680200Y-11504000D02*
G01*
X-2030200Y-11504000D01*
X-2030200Y-10604000D01*
X-680200Y-10604000D01*
X-680200Y-11504000D01*
G37*
G36*
X9864000Y-10875000D02*
G01*
X8964000Y-10875000D01*
X8964000Y-10075000D01*
X9864000Y-10075000D01*
X9864000Y-10875000D01*
G37*
G36*
X3528463Y-10197826D02*
G01*
X3544299Y-10202630D01*
X3558886Y-10210427D01*
X3571677Y-10220923D01*
X3582173Y-10233714D01*
X3589970Y-10248301D01*
X3594774Y-10264137D01*
X3597000Y-10286740D01*
X3597000Y-10744460D01*
X3594774Y-10767063D01*
X3589970Y-10782899D01*
X3582173Y-10797486D01*
X3571677Y-10810277D01*
X3558886Y-10820773D01*
X3544299Y-10828570D01*
X3528463Y-10833374D01*
X3505860Y-10835600D01*
X3098140Y-10835600D01*
X3075537Y-10833374D01*
X3059701Y-10828570D01*
X3045114Y-10820773D01*
X3032323Y-10810277D01*
X3021827Y-10797486D01*
X3014030Y-10782899D01*
X3009226Y-10767063D01*
X3007000Y-10744460D01*
X3007000Y-10286740D01*
X3009226Y-10264137D01*
X3014030Y-10248301D01*
X3021827Y-10233714D01*
X3032323Y-10220923D01*
X3045114Y-10210427D01*
X3059701Y-10202630D01*
X3075537Y-10197826D01*
X3098140Y-10195600D01*
X3505860Y-10195600D01*
X3528463Y-10197826D01*
G37*
G36*
X2558463Y-10197826D02*
G01*
X2574299Y-10202630D01*
X2588886Y-10210427D01*
X2601677Y-10220923D01*
X2612173Y-10233714D01*
X2619970Y-10248301D01*
X2624774Y-10264137D01*
X2627000Y-10286740D01*
X2627000Y-10744460D01*
X2624774Y-10767063D01*
X2619970Y-10782899D01*
X2612173Y-10797486D01*
X2601677Y-10810277D01*
X2588886Y-10820773D01*
X2574299Y-10828570D01*
X2558463Y-10833374D01*
X2535860Y-10835600D01*
X2128140Y-10835600D01*
X2105537Y-10833374D01*
X2089701Y-10828570D01*
X2075114Y-10820773D01*
X2062323Y-10810277D01*
X2051827Y-10797486D01*
X2044030Y-10782899D01*
X2039226Y-10767063D01*
X2037000Y-10744460D01*
X2037000Y-10286740D01*
X2039226Y-10264137D01*
X2044030Y-10248301D01*
X2051827Y-10233714D01*
X2062323Y-10220923D01*
X2075114Y-10210427D01*
X2089701Y-10202630D01*
X2105537Y-10197826D01*
X2128140Y-10195600D01*
X2535860Y-10195600D01*
X2558463Y-10197826D01*
G37*
G36*
X-680200Y-10234000D02*
G01*
X-2030200Y-10234000D01*
X-2030200Y-9334000D01*
X-680200Y-9334000D01*
X-680200Y-10234000D01*
G37*
G36*
X13684116Y-9167095D02*
G01*
X13713311Y-9175952D01*
X13740223Y-9190337D01*
X13763808Y-9209692D01*
X13783163Y-9233277D01*
X13797548Y-9260189D01*
X13806405Y-9289384D01*
X13810000Y-9325890D01*
X13810000Y-9876110D01*
X13806405Y-9912616D01*
X13797548Y-9941811D01*
X13783163Y-9968723D01*
X13763808Y-9992308D01*
X13740223Y-10011663D01*
X13713311Y-10026048D01*
X13684116Y-10034905D01*
X13647610Y-10038500D01*
X13022390Y-10038500D01*
X12985884Y-10034905D01*
X12956689Y-10026048D01*
X12929777Y-10011663D01*
X12906192Y-9992308D01*
X12886837Y-9968723D01*
X12872452Y-9941811D01*
X12863595Y-9912616D01*
X12860000Y-9876110D01*
X12860000Y-9325890D01*
X12863595Y-9289384D01*
X12872452Y-9260189D01*
X12886837Y-9233277D01*
X12906192Y-9209692D01*
X12929777Y-9190337D01*
X12956689Y-9175952D01*
X12985884Y-9167095D01*
X13022390Y-9163500D01*
X13647610Y-9163500D01*
X13684116Y-9167095D01*
G37*
G36*
X11864000Y-9925000D02*
G01*
X10964000Y-9925000D01*
X10964000Y-9125000D01*
X11864000Y-9125000D01*
X11864000Y-9925000D01*
G37*
G36*
X5860463Y-8775426D02*
G01*
X5876299Y-8780230D01*
X5890886Y-8788027D01*
X5903677Y-8798523D01*
X5914173Y-8811314D01*
X5921970Y-8825901D01*
X5926774Y-8841737D01*
X5929000Y-8864340D01*
X5929000Y-9322060D01*
X5926774Y-9344663D01*
X5921970Y-9360499D01*
X5914173Y-9375086D01*
X5903677Y-9387877D01*
X5890886Y-9398373D01*
X5876299Y-9406170D01*
X5860463Y-9410974D01*
X5837860Y-9413200D01*
X5430140Y-9413200D01*
X5407537Y-9410974D01*
X5391701Y-9406170D01*
X5377114Y-9398373D01*
X5364323Y-9387877D01*
X5353827Y-9375086D01*
X5346030Y-9360499D01*
X5341226Y-9344663D01*
X5339000Y-9322060D01*
X5339000Y-8864340D01*
X5341226Y-8841737D01*
X5346030Y-8825901D01*
X5353827Y-8811314D01*
X5364323Y-8798523D01*
X5377114Y-8788027D01*
X5391701Y-8780230D01*
X5407537Y-8775426D01*
X5430140Y-8773200D01*
X5837860Y-8773200D01*
X5860463Y-8775426D01*
G37*
G36*
X6830463Y-8775426D02*
G01*
X6846299Y-8780230D01*
X6860886Y-8788027D01*
X6873677Y-8798523D01*
X6884173Y-8811314D01*
X6891970Y-8825901D01*
X6896774Y-8841737D01*
X6899000Y-8864340D01*
X6899000Y-9322060D01*
X6896774Y-9344663D01*
X6891970Y-9360499D01*
X6884173Y-9375086D01*
X6873677Y-9387877D01*
X6860886Y-9398373D01*
X6846299Y-9406170D01*
X6830463Y-9410974D01*
X6807860Y-9413200D01*
X6400140Y-9413200D01*
X6377537Y-9410974D01*
X6361701Y-9406170D01*
X6347114Y-9398373D01*
X6334323Y-9387877D01*
X6323827Y-9375086D01*
X6316030Y-9360499D01*
X6311226Y-9344663D01*
X6309000Y-9322060D01*
X6309000Y-8864340D01*
X6311226Y-8841737D01*
X6316030Y-8825901D01*
X6323827Y-8811314D01*
X6334323Y-8798523D01*
X6347114Y-8788027D01*
X6361701Y-8780230D01*
X6377537Y-8775426D01*
X6400140Y-8773200D01*
X6807860Y-8773200D01*
X6830463Y-8775426D01*
G37*
G36*
X3042400Y-9320000D02*
G01*
X2342400Y-9320000D01*
X2342400Y-8720000D01*
X3042400Y-8720000D01*
X3042400Y-9320000D01*
G37*
G36*
X907916Y-8151495D02*
G01*
X937111Y-8160352D01*
X964023Y-8174737D01*
X987608Y-8194092D01*
X1006963Y-8217677D01*
X1021348Y-8244589D01*
X1030205Y-8273784D01*
X1033800Y-8310290D01*
X1033800Y-8860510D01*
X1030205Y-8897016D01*
X1021348Y-8926211D01*
X1006963Y-8953123D01*
X987608Y-8976708D01*
X964023Y-8996063D01*
X937111Y-9010448D01*
X907916Y-9019305D01*
X871410Y-9022900D01*
X246190Y-9022900D01*
X209684Y-9019305D01*
X180489Y-9010448D01*
X153577Y-8996063D01*
X129992Y-8976708D01*
X110637Y-8953123D01*
X96252Y-8926211D01*
X87395Y-8897016D01*
X83800Y-8860510D01*
X83800Y-8310290D01*
X87395Y-8273784D01*
X96252Y-8244589D01*
X110637Y-8217677D01*
X129992Y-8194092D01*
X153577Y-8174737D01*
X180489Y-8160352D01*
X209684Y-8151495D01*
X246190Y-8147900D01*
X871410Y-8147900D01*
X907916Y-8151495D01*
G37*
G36*
X9864000Y-8975000D02*
G01*
X8964000Y-8975000D01*
X8964000Y-8175000D01*
X9864000Y-8175000D01*
X9864000Y-8975000D01*
G37*
G36*
X-680200Y-8964000D02*
G01*
X-2030200Y-8964000D01*
X-2030200Y-8064000D01*
X-680200Y-8064000D01*
X-680200Y-8964000D01*
G37*
G36*
X5920863Y-7556226D02*
G01*
X5936699Y-7561030D01*
X5951286Y-7568827D01*
X5964077Y-7579323D01*
X5974573Y-7592114D01*
X5982370Y-7606701D01*
X5987174Y-7622537D01*
X5989400Y-7645140D01*
X5989400Y-8102860D01*
X5987174Y-8125463D01*
X5982370Y-8141299D01*
X5974573Y-8155886D01*
X5964077Y-8168677D01*
X5951286Y-8179173D01*
X5936699Y-8186970D01*
X5920863Y-8191774D01*
X5898260Y-8194000D01*
X5490540Y-8194000D01*
X5467937Y-8191774D01*
X5452101Y-8186970D01*
X5437514Y-8179173D01*
X5424723Y-8168677D01*
X5414227Y-8155886D01*
X5406430Y-8141299D01*
X5401626Y-8125463D01*
X5399400Y-8102860D01*
X5399400Y-7645140D01*
X5401626Y-7622537D01*
X5406430Y-7606701D01*
X5414227Y-7592114D01*
X5424723Y-7579323D01*
X5437514Y-7568827D01*
X5452101Y-7561030D01*
X5467937Y-7556226D01*
X5490540Y-7554000D01*
X5898260Y-7554000D01*
X5920863Y-7556226D01*
G37*
G36*
X4950863Y-7556226D02*
G01*
X4966699Y-7561030D01*
X4981286Y-7568827D01*
X4994077Y-7579323D01*
X5004573Y-7592114D01*
X5012370Y-7606701D01*
X5017174Y-7622537D01*
X5019400Y-7645140D01*
X5019400Y-8102860D01*
X5017174Y-8125463D01*
X5012370Y-8141299D01*
X5004573Y-8155886D01*
X4994077Y-8168677D01*
X4981286Y-8179173D01*
X4966699Y-8186970D01*
X4950863Y-8191774D01*
X4928260Y-8194000D01*
X4520540Y-8194000D01*
X4497937Y-8191774D01*
X4482101Y-8186970D01*
X4467514Y-8179173D01*
X4454723Y-8168677D01*
X4444227Y-8155886D01*
X4436430Y-8141299D01*
X4431626Y-8125463D01*
X4429400Y-8102860D01*
X4429400Y-7645140D01*
X4431626Y-7622537D01*
X4436430Y-7606701D01*
X4444227Y-7592114D01*
X4454723Y-7579323D01*
X4467514Y-7568827D01*
X4482101Y-7561030D01*
X4497937Y-7556226D01*
X4520540Y-7554000D01*
X4928260Y-7554000D01*
X4950863Y-7556226D01*
G37*
G36*
X3042400Y-7920000D02*
G01*
X2342400Y-7920000D01*
X2342400Y-7320000D01*
X3042400Y-7320000D01*
X3042400Y-7920000D01*
G37*
G36*
X-680200Y-7694000D02*
G01*
X-2030200Y-7694000D01*
X-2030200Y-6794000D01*
X-680200Y-6794000D01*
X-680200Y-7694000D01*
G37*
G36*
X907916Y-6576495D02*
G01*
X937111Y-6585352D01*
X964023Y-6599737D01*
X987608Y-6619092D01*
X1006963Y-6642677D01*
X1021348Y-6669589D01*
X1030205Y-6698784D01*
X1033800Y-6735290D01*
X1033800Y-7285510D01*
X1030205Y-7322016D01*
X1021348Y-7351211D01*
X1006963Y-7378123D01*
X987608Y-7401708D01*
X964023Y-7421063D01*
X937111Y-7435448D01*
X907916Y-7444305D01*
X871410Y-7447900D01*
X246190Y-7447900D01*
X209684Y-7444305D01*
X180489Y-7435448D01*
X153577Y-7421063D01*
X129992Y-7401708D01*
X110637Y-7378123D01*
X96252Y-7351211D01*
X87395Y-7322016D01*
X83800Y-7285510D01*
X83800Y-6735290D01*
X87395Y-6698784D01*
X96252Y-6669589D01*
X110637Y-6642677D01*
X129992Y-6619092D01*
X153577Y-6599737D01*
X180489Y-6585352D01*
X209684Y-6576495D01*
X246190Y-6572900D01*
X871410Y-6572900D01*
X907916Y-6576495D01*
G37*
G36*
X7338463Y-6184626D02*
G01*
X7354299Y-6189430D01*
X7368886Y-6197227D01*
X7381677Y-6207723D01*
X7392173Y-6220514D01*
X7399970Y-6235101D01*
X7404774Y-6250937D01*
X7407000Y-6273540D01*
X7407000Y-6731260D01*
X7404774Y-6753863D01*
X7399970Y-6769699D01*
X7392173Y-6784286D01*
X7381677Y-6797077D01*
X7368886Y-6807573D01*
X7354299Y-6815370D01*
X7338463Y-6820174D01*
X7315860Y-6822400D01*
X6908140Y-6822400D01*
X6885537Y-6820174D01*
X6869701Y-6815370D01*
X6855114Y-6807573D01*
X6842323Y-6797077D01*
X6831827Y-6784286D01*
X6824030Y-6769699D01*
X6819226Y-6753863D01*
X6817000Y-6731260D01*
X6817000Y-6273540D01*
X6819226Y-6250937D01*
X6824030Y-6235101D01*
X6831827Y-6220514D01*
X6842323Y-6207723D01*
X6855114Y-6197227D01*
X6869701Y-6189430D01*
X6885537Y-6184626D01*
X6908140Y-6182400D01*
X7315860Y-6182400D01*
X7338463Y-6184626D01*
G37*
G36*
X6368463Y-6184626D02*
G01*
X6384299Y-6189430D01*
X6398886Y-6197227D01*
X6411677Y-6207723D01*
X6422173Y-6220514D01*
X6429970Y-6235101D01*
X6434774Y-6250937D01*
X6437000Y-6273540D01*
X6437000Y-6731260D01*
X6434774Y-6753863D01*
X6429970Y-6769699D01*
X6422173Y-6784286D01*
X6411677Y-6797077D01*
X6398886Y-6807573D01*
X6384299Y-6815370D01*
X6368463Y-6820174D01*
X6345860Y-6822400D01*
X5938140Y-6822400D01*
X5915537Y-6820174D01*
X5899701Y-6815370D01*
X5885114Y-6807573D01*
X5872323Y-6797077D01*
X5861827Y-6784286D01*
X5854030Y-6769699D01*
X5849226Y-6753863D01*
X5847000Y-6731260D01*
X5847000Y-6273540D01*
X5849226Y-6250937D01*
X5854030Y-6235101D01*
X5861827Y-6220514D01*
X5872323Y-6207723D01*
X5885114Y-6197227D01*
X5899701Y-6189430D01*
X5915537Y-6184626D01*
X5938140Y-6182400D01*
X6345860Y-6182400D01*
X6368463Y-6184626D01*
G37*
G36*
X4008400Y-6192000D02*
G01*
X3408400Y-6192000D01*
X3408400Y-5492000D01*
X4008400Y-5492000D01*
X4008400Y-6192000D01*
G37*
G36*
X2608400Y-6192000D02*
G01*
X2008400Y-6192000D01*
X2008400Y-5492000D01*
X2608400Y-5492000D01*
X2608400Y-6192000D01*
G37*
G36*
X-15160200Y-5944000D02*
G01*
X-17760200Y-5944000D01*
X-17760200Y-4844000D01*
X-15160200Y-4844000D01*
X-15160200Y-5944000D01*
G37*
G36*
X-2480200Y-5944000D02*
G01*
X-5080200Y-5944000D01*
X-5080200Y-4844000D01*
X-2480200Y-4844000D01*
X-2480200Y-5944000D01*
G37*
G36*
X-797234Y-3088821D02*
G01*
X-660743Y-3145358D01*
X-537903Y-3227437D01*
X-433437Y-3331903D01*
X-351358Y-3454743D01*
X-294821Y-3591234D01*
X-266000Y-3736130D01*
X-266000Y-3883870D01*
X-294821Y-4028766D01*
X-351358Y-4165257D01*
X-433437Y-4288097D01*
X-537903Y-4392563D01*
X-660743Y-4474642D01*
X-797234Y-4531179D01*
X-942130Y-4560000D01*
X-1089870Y-4560000D01*
X-1234766Y-4531179D01*
X-1371257Y-4474642D01*
X-1494097Y-4392563D01*
X-1598563Y-4288097D01*
X-1680642Y-4165257D01*
X-1737179Y-4028766D01*
X-1766000Y-3883870D01*
X-1766000Y-3736130D01*
X-1737179Y-3591234D01*
X-1680642Y-3454743D01*
X-1598563Y-3331903D01*
X-1494097Y-3227437D01*
X-1371257Y-3145358D01*
X-1234766Y-3088821D01*
X-1089870Y-3060000D01*
X-942130Y-3060000D01*
X-797234Y-3088821D01*
G37*
G36*
X4057935Y-452664D02*
G01*
X4212624Y-516739D01*
X4212626Y-516740D01*
X4351844Y-609762D01*
X4470238Y-728156D01*
X4563260Y-867374D01*
X4563261Y-867376D01*
X4627336Y-1022065D01*
X4660000Y-1186281D01*
X4660000Y-1353719D01*
X4627336Y-1517935D01*
X4563261Y-1672624D01*
X4563260Y-1672626D01*
X4470238Y-1811844D01*
X4351844Y-1930238D01*
X4212626Y-2023260D01*
X4212625Y-2023261D01*
X4212624Y-2023261D01*
X4057935Y-2087336D01*
X3893719Y-2120000D01*
X3726281Y-2120000D01*
X3562065Y-2087336D01*
X3407376Y-2023261D01*
X3407375Y-2023261D01*
X3407374Y-2023260D01*
X3268156Y-1930238D01*
X3149762Y-1811844D01*
X3056740Y-1672626D01*
X3056739Y-1672624D01*
X2992664Y-1517935D01*
X2960000Y-1353719D01*
X2960000Y-1186281D01*
X2992664Y-1022065D01*
X3056739Y-867376D01*
X3056740Y-867374D01*
X3149762Y-728156D01*
X3268156Y-609762D01*
X3407374Y-516740D01*
X3407376Y-516739D01*
X3562065Y-452664D01*
X3726281Y-420000D01*
X3893719Y-420000D01*
X4057935Y-452664D01*
G37*
G36*
X9137935Y-452664D02*
G01*
X9292624Y-516739D01*
X9292626Y-516740D01*
X9431844Y-609762D01*
X9550238Y-728156D01*
X9643260Y-867374D01*
X9643261Y-867376D01*
X9707336Y-1022065D01*
X9740000Y-1186281D01*
X9740000Y-1353719D01*
X9707336Y-1517935D01*
X9643261Y-1672624D01*
X9643260Y-1672626D01*
X9550238Y-1811844D01*
X9431844Y-1930238D01*
X9292626Y-2023260D01*
X9292625Y-2023261D01*
X9292624Y-2023261D01*
X9137935Y-2087336D01*
X8973719Y-2120000D01*
X8806281Y-2120000D01*
X8642065Y-2087336D01*
X8487376Y-2023261D01*
X8487375Y-2023261D01*
X8487374Y-2023260D01*
X8348156Y-1930238D01*
X8229762Y-1811844D01*
X8136740Y-1672626D01*
X8136739Y-1672624D01*
X8072664Y-1517935D01*
X8040000Y-1353719D01*
X8040000Y-1186281D01*
X8072664Y-1022065D01*
X8136739Y-867376D01*
X8136740Y-867374D01*
X8229762Y-728156D01*
X8348156Y-609762D01*
X8487374Y-516740D01*
X8487376Y-516739D01*
X8642065Y-452664D01*
X8806281Y-420000D01*
X8973719Y-420000D01*
X9137935Y-452664D01*
G37*
G36*
X1517935Y-452664D02*
G01*
X1672624Y-516739D01*
X1672626Y-516740D01*
X1811844Y-609762D01*
X1930238Y-728156D01*
X2023260Y-867374D01*
X2023261Y-867376D01*
X2087336Y-1022065D01*
X2120000Y-1186281D01*
X2120000Y-1353719D01*
X2087336Y-1517935D01*
X2023261Y-1672624D01*
X2023260Y-1672626D01*
X1930238Y-1811844D01*
X1811844Y-1930238D01*
X1672626Y-2023260D01*
X1672625Y-2023261D01*
X1672624Y-2023261D01*
X1517935Y-2087336D01*
X1353719Y-2120000D01*
X1186281Y-2120000D01*
X1022065Y-2087336D01*
X867376Y-2023261D01*
X867375Y-2023261D01*
X867374Y-2023260D01*
X728156Y-1930238D01*
X609762Y-1811844D01*
X516740Y-1672626D01*
X516739Y-1672624D01*
X452664Y-1517935D01*
X420000Y-1353719D01*
X420000Y-1186281D01*
X452664Y-1022065D01*
X516739Y-867376D01*
X516740Y-867374D01*
X609762Y-728156D01*
X728156Y-609762D01*
X867374Y-516740D01*
X867376Y-516739D01*
X1022065Y-452664D01*
X1186281Y-420000D01*
X1353719Y-420000D01*
X1517935Y-452664D01*
G37*
G36*
X-1022065Y-452664D02*
G01*
X-867376Y-516739D01*
X-867374Y-516740D01*
X-728156Y-609762D01*
X-609762Y-728156D01*
X-516740Y-867374D01*
X-516739Y-867376D01*
X-452664Y-1022065D01*
X-420000Y-1186281D01*
X-420000Y-1353719D01*
X-452664Y-1517935D01*
X-516739Y-1672624D01*
X-516740Y-1672626D01*
X-609762Y-1811844D01*
X-728156Y-1930238D01*
X-867374Y-2023260D01*
X-867375Y-2023261D01*
X-867376Y-2023261D01*
X-1022065Y-2087336D01*
X-1186281Y-2120000D01*
X-1353719Y-2120000D01*
X-1517935Y-2087336D01*
X-1672624Y-2023261D01*
X-1672625Y-2023261D01*
X-1672626Y-2023260D01*
X-1811844Y-1930238D01*
X-1930238Y-1811844D01*
X-2023260Y-1672626D01*
X-2023261Y-1672624D01*
X-2087336Y-1517935D01*
X-2120000Y-1353719D01*
X-2120000Y-1186281D01*
X-2087336Y-1022065D01*
X-2023261Y-867376D01*
X-2023260Y-867374D01*
X-1930238Y-728156D01*
X-1811844Y-609762D01*
X-1672626Y-516740D01*
X-1672624Y-516739D01*
X-1517935Y-452664D01*
X-1353719Y-420000D01*
X-1186281Y-420000D01*
X-1022065Y-452664D01*
G37*
G36*
X11677935Y-452664D02*
G01*
X11832624Y-516739D01*
X11832626Y-516740D01*
X11971844Y-609762D01*
X12090238Y-728156D01*
X12183260Y-867374D01*
X12183261Y-867376D01*
X12247336Y-1022065D01*
X12280000Y-1186281D01*
X12280000Y-1353719D01*
X12247336Y-1517935D01*
X12183261Y-1672624D01*
X12183260Y-1672626D01*
X12090238Y-1811844D01*
X11971844Y-1930238D01*
X11832626Y-2023260D01*
X11832625Y-2023261D01*
X11832624Y-2023261D01*
X11677935Y-2087336D01*
X11513719Y-2120000D01*
X11346281Y-2120000D01*
X11182065Y-2087336D01*
X11027376Y-2023261D01*
X11027375Y-2023261D01*
X11027374Y-2023260D01*
X10888156Y-1930238D01*
X10769762Y-1811844D01*
X10676740Y-1672626D01*
X10676739Y-1672624D01*
X10612664Y-1517935D01*
X10580000Y-1353719D01*
X10580000Y-1186281D01*
X10612664Y-1022065D01*
X10676739Y-867376D01*
X10676740Y-867374D01*
X10769762Y-728156D01*
X10888156Y-609762D01*
X11027374Y-516740D01*
X11027376Y-516739D01*
X11182065Y-452664D01*
X11346281Y-420000D01*
X11513719Y-420000D01*
X11677935Y-452664D01*
G37*
G36*
X-8642065Y-452664D02*
G01*
X-8487376Y-516739D01*
X-8487374Y-516740D01*
X-8348156Y-609762D01*
X-8229762Y-728156D01*
X-8136740Y-867374D01*
X-8136739Y-867376D01*
X-8072664Y-1022065D01*
X-8040000Y-1186281D01*
X-8040000Y-1353719D01*
X-8072664Y-1517935D01*
X-8136739Y-1672624D01*
X-8136740Y-1672626D01*
X-8229762Y-1811844D01*
X-8348156Y-1930238D01*
X-8487374Y-2023260D01*
X-8487375Y-2023261D01*
X-8487376Y-2023261D01*
X-8642065Y-2087336D01*
X-8806281Y-2120000D01*
X-8973719Y-2120000D01*
X-9137935Y-2087336D01*
X-9292624Y-2023261D01*
X-9292625Y-2023261D01*
X-9292626Y-2023260D01*
X-9431844Y-1930238D01*
X-9550238Y-1811844D01*
X-9643260Y-1672626D01*
X-9643261Y-1672624D01*
X-9707336Y-1517935D01*
X-9740000Y-1353719D01*
X-9740000Y-1186281D01*
X-9707336Y-1022065D01*
X-9643261Y-867376D01*
X-9643260Y-867374D01*
X-9550238Y-728156D01*
X-9431844Y-609762D01*
X-9292626Y-516740D01*
X-9292624Y-516739D01*
X-9137935Y-452664D01*
X-8973719Y-420000D01*
X-8806281Y-420000D01*
X-8642065Y-452664D01*
G37*
G36*
X-6102065Y-452664D02*
G01*
X-5947376Y-516739D01*
X-5947374Y-516740D01*
X-5808156Y-609762D01*
X-5689762Y-728156D01*
X-5596740Y-867374D01*
X-5596739Y-867376D01*
X-5532664Y-1022065D01*
X-5500000Y-1186281D01*
X-5500000Y-1353719D01*
X-5532664Y-1517935D01*
X-5596739Y-1672624D01*
X-5596740Y-1672626D01*
X-5689762Y-1811844D01*
X-5808156Y-1930238D01*
X-5947374Y-2023260D01*
X-5947375Y-2023261D01*
X-5947376Y-2023261D01*
X-6102065Y-2087336D01*
X-6266281Y-2120000D01*
X-6433719Y-2120000D01*
X-6597935Y-2087336D01*
X-6752624Y-2023261D01*
X-6752625Y-2023261D01*
X-6752626Y-2023260D01*
X-6891844Y-1930238D01*
X-7010238Y-1811844D01*
X-7103260Y-1672626D01*
X-7103261Y-1672624D01*
X-7167336Y-1517935D01*
X-7200000Y-1353719D01*
X-7200000Y-1186281D01*
X-7167336Y-1022065D01*
X-7103261Y-867376D01*
X-7103260Y-867374D01*
X-7010238Y-728156D01*
X-6891844Y-609762D01*
X-6752626Y-516740D01*
X-6752624Y-516739D01*
X-6597935Y-452664D01*
X-6433719Y-420000D01*
X-6266281Y-420000D01*
X-6102065Y-452664D01*
G37*
G36*
X-3562065Y-452664D02*
G01*
X-3407376Y-516739D01*
X-3407374Y-516740D01*
X-3268156Y-609762D01*
X-3149762Y-728156D01*
X-3056740Y-867374D01*
X-3056739Y-867376D01*
X-2992664Y-1022065D01*
X-2960000Y-1186281D01*
X-2960000Y-1353719D01*
X-2992664Y-1517935D01*
X-3056739Y-1672624D01*
X-3056740Y-1672626D01*
X-3149762Y-1811844D01*
X-3268156Y-1930238D01*
X-3407374Y-2023260D01*
X-3407375Y-2023261D01*
X-3407376Y-2023261D01*
X-3562065Y-2087336D01*
X-3726281Y-2120000D01*
X-3893719Y-2120000D01*
X-4057935Y-2087336D01*
X-4212624Y-2023261D01*
X-4212625Y-2023261D01*
X-4212626Y-2023260D01*
X-4351844Y-1930238D01*
X-4470238Y-1811844D01*
X-4563260Y-1672626D01*
X-4563261Y-1672624D01*
X-4627336Y-1517935D01*
X-4660000Y-1353719D01*
X-4660000Y-1186281D01*
X-4627336Y-1022065D01*
X-4563261Y-867376D01*
X-4563260Y-867374D01*
X-4470238Y-728156D01*
X-4351844Y-609762D01*
X-4212626Y-516740D01*
X-4212624Y-516739D01*
X-4057935Y-452664D01*
X-3893719Y-420000D01*
X-3726281Y-420000D01*
X-3562065Y-452664D01*
G37*
G36*
X6597935Y-452664D02*
G01*
X6752624Y-516739D01*
X6752626Y-516740D01*
X6891844Y-609762D01*
X7010238Y-728156D01*
X7103260Y-867374D01*
X7103261Y-867376D01*
X7167336Y-1022065D01*
X7200000Y-1186281D01*
X7200000Y-1353719D01*
X7167336Y-1517935D01*
X7103261Y-1672624D01*
X7103260Y-1672626D01*
X7010238Y-1811844D01*
X6891844Y-1930238D01*
X6752626Y-2023260D01*
X6752625Y-2023261D01*
X6752624Y-2023261D01*
X6597935Y-2087336D01*
X6433719Y-2120000D01*
X6266281Y-2120000D01*
X6102065Y-2087336D01*
X5947376Y-2023261D01*
X5947375Y-2023261D01*
X5947374Y-2023260D01*
X5808156Y-1930238D01*
X5689762Y-1811844D01*
X5596740Y-1672626D01*
X5596739Y-1672624D01*
X5532664Y-1517935D01*
X5500000Y-1353719D01*
X5500000Y-1186281D01*
X5532664Y-1022065D01*
X5596739Y-867376D01*
X5596740Y-867374D01*
X5689762Y-728156D01*
X5808156Y-609762D01*
X5947374Y-516740D01*
X5947376Y-516739D01*
X6102065Y-452664D01*
X6266281Y-420000D01*
X6433719Y-420000D01*
X6597935Y-452664D01*
G37*
G36*
X-10580000Y-2120000D02*
G01*
X-12280000Y-2120000D01*
X-12280000Y-420000D01*
X-10580000Y-420000D01*
X-10580000Y-2120000D01*
G37*
G36*
X-8642065Y2087336D02*
G01*
X-8487376Y2023261D01*
X-8487374Y2023260D01*
X-8348156Y1930238D01*
X-8229762Y1811844D01*
X-8185982Y1746322D01*
X-8136739Y1672624D01*
X-8072664Y1517935D01*
X-8040000Y1353719D01*
X-8040000Y1186281D01*
X-8072664Y1022065D01*
X-8136739Y867376D01*
X-8136740Y867374D01*
X-8229762Y728156D01*
X-8348156Y609762D01*
X-8487374Y516740D01*
X-8487375Y516739D01*
X-8487376Y516739D01*
X-8642065Y452664D01*
X-8806281Y420000D01*
X-8973719Y420000D01*
X-9137935Y452664D01*
X-9292624Y516739D01*
X-9292625Y516739D01*
X-9292626Y516740D01*
X-9431844Y609762D01*
X-9550238Y728156D01*
X-9643260Y867374D01*
X-9643261Y867376D01*
X-9707336Y1022065D01*
X-9740000Y1186281D01*
X-9740000Y1353719D01*
X-9707336Y1517935D01*
X-9643261Y1672624D01*
X-9594018Y1746322D01*
X-9550238Y1811844D01*
X-9431844Y1930238D01*
X-9292626Y2023260D01*
X-9292624Y2023261D01*
X-9137935Y2087336D01*
X-8973719Y2120000D01*
X-8806281Y2120000D01*
X-8642065Y2087336D01*
G37*
G36*
X11677935Y2087336D02*
G01*
X11832624Y2023261D01*
X11832626Y2023260D01*
X11971844Y1930238D01*
X12090238Y1811844D01*
X12134018Y1746322D01*
X12183261Y1672624D01*
X12247336Y1517935D01*
X12280000Y1353719D01*
X12280000Y1186281D01*
X12247336Y1022065D01*
X12183261Y867376D01*
X12183260Y867374D01*
X12090238Y728156D01*
X11971844Y609762D01*
X11832626Y516740D01*
X11832625Y516739D01*
X11832624Y516739D01*
X11677935Y452664D01*
X11513719Y420000D01*
X11346281Y420000D01*
X11182065Y452664D01*
X11027376Y516739D01*
X11027375Y516739D01*
X11027374Y516740D01*
X10888156Y609762D01*
X10769762Y728156D01*
X10676740Y867374D01*
X10676739Y867376D01*
X10612664Y1022065D01*
X10580000Y1186281D01*
X10580000Y1353719D01*
X10612664Y1517935D01*
X10676739Y1672624D01*
X10725982Y1746322D01*
X10769762Y1811844D01*
X10888156Y1930238D01*
X11027374Y2023260D01*
X11027376Y2023261D01*
X11182065Y2087336D01*
X11346281Y2120000D01*
X11513719Y2120000D01*
X11677935Y2087336D01*
G37*
G36*
X9137935Y2087336D02*
G01*
X9292624Y2023261D01*
X9292626Y2023260D01*
X9431844Y1930238D01*
X9550238Y1811844D01*
X9594018Y1746322D01*
X9643261Y1672624D01*
X9707336Y1517935D01*
X9740000Y1353719D01*
X9740000Y1186281D01*
X9707336Y1022065D01*
X9643261Y867376D01*
X9643260Y867374D01*
X9550238Y728156D01*
X9431844Y609762D01*
X9292626Y516740D01*
X9292625Y516739D01*
X9292624Y516739D01*
X9137935Y452664D01*
X8973719Y420000D01*
X8806281Y420000D01*
X8642065Y452664D01*
X8487376Y516739D01*
X8487375Y516739D01*
X8487374Y516740D01*
X8348156Y609762D01*
X8229762Y728156D01*
X8136740Y867374D01*
X8136739Y867376D01*
X8072664Y1022065D01*
X8040000Y1186281D01*
X8040000Y1353719D01*
X8072664Y1517935D01*
X8136739Y1672624D01*
X8185982Y1746322D01*
X8229762Y1811844D01*
X8348156Y1930238D01*
X8487374Y2023260D01*
X8487376Y2023261D01*
X8642065Y2087336D01*
X8806281Y2120000D01*
X8973719Y2120000D01*
X9137935Y2087336D01*
G37*
G36*
X4057935Y2087336D02*
G01*
X4212624Y2023261D01*
X4212626Y2023260D01*
X4351844Y1930238D01*
X4470238Y1811844D01*
X4514018Y1746322D01*
X4563261Y1672624D01*
X4627336Y1517935D01*
X4660000Y1353719D01*
X4660000Y1186281D01*
X4627336Y1022065D01*
X4563261Y867376D01*
X4563260Y867374D01*
X4470238Y728156D01*
X4351844Y609762D01*
X4212626Y516740D01*
X4212625Y516739D01*
X4212624Y516739D01*
X4057935Y452664D01*
X3893719Y420000D01*
X3726281Y420000D01*
X3562065Y452664D01*
X3407376Y516739D01*
X3407375Y516739D01*
X3407374Y516740D01*
X3268156Y609762D01*
X3149762Y728156D01*
X3056740Y867374D01*
X3056739Y867376D01*
X2992664Y1022065D01*
X2960000Y1186281D01*
X2960000Y1353719D01*
X2992664Y1517935D01*
X3056739Y1672624D01*
X3105982Y1746322D01*
X3149762Y1811844D01*
X3268156Y1930238D01*
X3407374Y2023260D01*
X3407376Y2023261D01*
X3562065Y2087336D01*
X3726281Y2120000D01*
X3893719Y2120000D01*
X4057935Y2087336D01*
G37*
G36*
X-11182065Y2087336D02*
G01*
X-11027376Y2023261D01*
X-11027374Y2023260D01*
X-10888156Y1930238D01*
X-10769762Y1811844D01*
X-10725982Y1746322D01*
X-10676739Y1672624D01*
X-10612664Y1517935D01*
X-10580000Y1353719D01*
X-10580000Y1186281D01*
X-10612664Y1022065D01*
X-10676739Y867376D01*
X-10676740Y867374D01*
X-10769762Y728156D01*
X-10888156Y609762D01*
X-11027374Y516740D01*
X-11027375Y516739D01*
X-11027376Y516739D01*
X-11182065Y452664D01*
X-11346281Y420000D01*
X-11513719Y420000D01*
X-11677935Y452664D01*
X-11832624Y516739D01*
X-11832625Y516739D01*
X-11832626Y516740D01*
X-11971844Y609762D01*
X-12090238Y728156D01*
X-12183260Y867374D01*
X-12183261Y867376D01*
X-12247336Y1022065D01*
X-12280000Y1186281D01*
X-12280000Y1353719D01*
X-12247336Y1517935D01*
X-12183261Y1672624D01*
X-12134018Y1746322D01*
X-12090238Y1811844D01*
X-11971844Y1930238D01*
X-11832626Y2023260D01*
X-11832624Y2023261D01*
X-11677935Y2087336D01*
X-11513719Y2120000D01*
X-11346281Y2120000D01*
X-11182065Y2087336D01*
G37*
G36*
X-3562065Y2087336D02*
G01*
X-3407376Y2023261D01*
X-3407374Y2023260D01*
X-3268156Y1930238D01*
X-3149762Y1811844D01*
X-3105982Y1746322D01*
X-3056739Y1672624D01*
X-2992664Y1517935D01*
X-2960000Y1353719D01*
X-2960000Y1186281D01*
X-2992664Y1022065D01*
X-3056739Y867376D01*
X-3056740Y867374D01*
X-3149762Y728156D01*
X-3268156Y609762D01*
X-3407374Y516740D01*
X-3407375Y516739D01*
X-3407376Y516739D01*
X-3562065Y452664D01*
X-3726281Y420000D01*
X-3893719Y420000D01*
X-4057935Y452664D01*
X-4212624Y516739D01*
X-4212625Y516739D01*
X-4212626Y516740D01*
X-4351844Y609762D01*
X-4470238Y728156D01*
X-4563260Y867374D01*
X-4563261Y867376D01*
X-4627336Y1022065D01*
X-4660000Y1186281D01*
X-4660000Y1353719D01*
X-4627336Y1517935D01*
X-4563261Y1672624D01*
X-4514018Y1746322D01*
X-4470238Y1811844D01*
X-4351844Y1930238D01*
X-4212626Y2023260D01*
X-4212624Y2023261D01*
X-4057935Y2087336D01*
X-3893719Y2120000D01*
X-3726281Y2120000D01*
X-3562065Y2087336D01*
G37*
G36*
X-6102065Y2087336D02*
G01*
X-5947376Y2023261D01*
X-5947374Y2023260D01*
X-5808156Y1930238D01*
X-5689762Y1811844D01*
X-5645982Y1746322D01*
X-5596739Y1672624D01*
X-5532664Y1517935D01*
X-5500000Y1353719D01*
X-5500000Y1186281D01*
X-5532664Y1022065D01*
X-5596739Y867376D01*
X-5596740Y867374D01*
X-5689762Y728156D01*
X-5808156Y609762D01*
X-5947374Y516740D01*
X-5947375Y516739D01*
X-5947376Y516739D01*
X-6102065Y452664D01*
X-6266281Y420000D01*
X-6433719Y420000D01*
X-6597935Y452664D01*
X-6752624Y516739D01*
X-6752625Y516739D01*
X-6752626Y516740D01*
X-6891844Y609762D01*
X-7010238Y728156D01*
X-7103260Y867374D01*
X-7103261Y867376D01*
X-7167336Y1022065D01*
X-7200000Y1186281D01*
X-7200000Y1353719D01*
X-7167336Y1517935D01*
X-7103261Y1672624D01*
X-7054018Y1746322D01*
X-7010238Y1811844D01*
X-6891844Y1930238D01*
X-6752626Y2023260D01*
X-6752624Y2023261D01*
X-6597935Y2087336D01*
X-6433719Y2120000D01*
X-6266281Y2120000D01*
X-6102065Y2087336D01*
G37*
G36*
X6597935Y2087336D02*
G01*
X6752624Y2023261D01*
X6752626Y2023260D01*
X6891844Y1930238D01*
X7010238Y1811844D01*
X7054018Y1746322D01*
X7103261Y1672624D01*
X7167336Y1517935D01*
X7200000Y1353719D01*
X7200000Y1186281D01*
X7167336Y1022065D01*
X7103261Y867376D01*
X7103260Y867374D01*
X7010238Y728156D01*
X6891844Y609762D01*
X6752626Y516740D01*
X6752625Y516739D01*
X6752624Y516739D01*
X6597935Y452664D01*
X6433719Y420000D01*
X6266281Y420000D01*
X6102065Y452664D01*
X5947376Y516739D01*
X5947375Y516739D01*
X5947374Y516740D01*
X5808156Y609762D01*
X5689762Y728156D01*
X5596740Y867374D01*
X5596739Y867376D01*
X5532664Y1022065D01*
X5500000Y1186281D01*
X5500000Y1353719D01*
X5532664Y1517935D01*
X5596739Y1672624D01*
X5645982Y1746322D01*
X5689762Y1811844D01*
X5808156Y1930238D01*
X5947374Y2023260D01*
X5947376Y2023261D01*
X6102065Y2087336D01*
X6266281Y2120000D01*
X6433719Y2120000D01*
X6597935Y2087336D01*
G37*
G36*
X1517935Y2087336D02*
G01*
X1672624Y2023261D01*
X1672626Y2023260D01*
X1811844Y1930238D01*
X1930238Y1811844D01*
X1974018Y1746322D01*
X2023261Y1672624D01*
X2087336Y1517935D01*
X2120000Y1353719D01*
X2120000Y1186281D01*
X2087336Y1022065D01*
X2023261Y867376D01*
X2023260Y867374D01*
X1930238Y728156D01*
X1811844Y609762D01*
X1672626Y516740D01*
X1672625Y516739D01*
X1672624Y516739D01*
X1517935Y452664D01*
X1353719Y420000D01*
X1186281Y420000D01*
X1022065Y452664D01*
X867376Y516739D01*
X867375Y516739D01*
X867374Y516740D01*
X728156Y609762D01*
X609762Y728156D01*
X516740Y867374D01*
X516739Y867376D01*
X452664Y1022065D01*
X420000Y1186281D01*
X420000Y1353719D01*
X452664Y1517935D01*
X516739Y1672624D01*
X565982Y1746322D01*
X609762Y1811844D01*
X728156Y1930238D01*
X867374Y2023260D01*
X867376Y2023261D01*
X1022065Y2087336D01*
X1186281Y2120000D01*
X1353719Y2120000D01*
X1517935Y2087336D01*
G37*
G36*
X-1022065Y2087336D02*
G01*
X-867376Y2023261D01*
X-867374Y2023260D01*
X-728156Y1930238D01*
X-609762Y1811844D01*
X-565982Y1746322D01*
X-516739Y1672624D01*
X-452664Y1517935D01*
X-420000Y1353719D01*
X-420000Y1186281D01*
X-452664Y1022065D01*
X-516739Y867376D01*
X-516740Y867374D01*
X-609762Y728156D01*
X-728156Y609762D01*
X-867374Y516740D01*
X-867375Y516739D01*
X-867376Y516739D01*
X-1022065Y452664D01*
X-1186281Y420000D01*
X-1353719Y420000D01*
X-1517935Y452664D01*
X-1672624Y516739D01*
X-1672625Y516739D01*
X-1672626Y516740D01*
X-1811844Y609762D01*
X-1930238Y728156D01*
X-2023260Y867374D01*
X-2023261Y867376D01*
X-2087336Y1022065D01*
X-2120000Y1186281D01*
X-2120000Y1353719D01*
X-2087336Y1517935D01*
X-2023261Y1672624D01*
X-1974018Y1746322D01*
X-1930238Y1811844D01*
X-1811844Y1930238D01*
X-1672626Y2023260D01*
X-1672624Y2023261D01*
X-1517935Y2087336D01*
X-1353719Y2120000D01*
X-1186281Y2120000D01*
X-1022065Y2087336D01*
G37*
G36*
X-16862710Y3194381D02*
G01*
X-16798311Y3181571D01*
X-16616322Y3106189D01*
X-16452537Y2996751D01*
X-16313249Y2857463D01*
X-16203811Y2693678D01*
X-16128429Y2511689D01*
X-16128429Y2511688D01*
X-16090000Y2318493D01*
X-16090000Y2121507D01*
X-16109543Y2023260D01*
X-16128429Y1928311D01*
X-16203811Y1746322D01*
X-16313249Y1582537D01*
X-16452537Y1443249D01*
X-16616322Y1333811D01*
X-16798311Y1258429D01*
X-16862710Y1245619D01*
X-16991507Y1220000D01*
X-17188493Y1220000D01*
X-17317290Y1245619D01*
X-17381689Y1258429D01*
X-17563678Y1333811D01*
X-17727463Y1443249D01*
X-17866751Y1582537D01*
X-17976189Y1746322D01*
X-18051571Y1928311D01*
X-18070457Y2023260D01*
X-18090000Y2121507D01*
X-18090000Y2318493D01*
X-18051571Y2511688D01*
X-18051571Y2511689D01*
X-17976189Y2693678D01*
X-17866751Y2857463D01*
X-17727463Y2996751D01*
X-17563678Y3106189D01*
X-17381689Y3181571D01*
X-17317290Y3194381D01*
X-17188493Y3220000D01*
X-16991507Y3220000D01*
X-16862710Y3194381D01*
G37*
G36*
X-5661537Y3619774D02*
G01*
X-5645701Y3614970D01*
X-5631114Y3607173D01*
X-5618323Y3596677D01*
X-5607827Y3583886D01*
X-5600030Y3569299D01*
X-5595226Y3553463D01*
X-5593000Y3530860D01*
X-5593000Y3073140D01*
X-5595226Y3050537D01*
X-5600030Y3034701D01*
X-5607827Y3020114D01*
X-5618323Y3007323D01*
X-5631114Y2996827D01*
X-5645701Y2989030D01*
X-5661537Y2984226D01*
X-5684140Y2982000D01*
X-6091860Y2982000D01*
X-6114463Y2984226D01*
X-6130299Y2989030D01*
X-6144886Y2996827D01*
X-6157677Y3007323D01*
X-6168173Y3020114D01*
X-6175970Y3034701D01*
X-6180774Y3050537D01*
X-6183000Y3073140D01*
X-6183000Y3530860D01*
X-6180774Y3553463D01*
X-6175970Y3569299D01*
X-6168173Y3583886D01*
X-6157677Y3596677D01*
X-6144886Y3607173D01*
X-6130299Y3614970D01*
X-6114463Y3619774D01*
X-6091860Y3622000D01*
X-5684140Y3622000D01*
X-5661537Y3619774D01*
G37*
G36*
X-6631537Y3619774D02*
G01*
X-6615701Y3614970D01*
X-6601114Y3607173D01*
X-6588323Y3596677D01*
X-6577827Y3583886D01*
X-6570030Y3569299D01*
X-6565226Y3553463D01*
X-6563000Y3530860D01*
X-6563000Y3073140D01*
X-6565226Y3050537D01*
X-6570030Y3034701D01*
X-6577827Y3020114D01*
X-6588323Y3007323D01*
X-6601114Y2996827D01*
X-6615701Y2989030D01*
X-6631537Y2984226D01*
X-6654140Y2982000D01*
X-7061860Y2982000D01*
X-7084463Y2984226D01*
X-7100299Y2989030D01*
X-7114886Y2996827D01*
X-7127677Y3007323D01*
X-7138173Y3020114D01*
X-7145970Y3034701D01*
X-7150774Y3050537D01*
X-7153000Y3073140D01*
X-7153000Y3530860D01*
X-7150774Y3553463D01*
X-7145970Y3569299D01*
X-7138173Y3583886D01*
X-7127677Y3596677D01*
X-7114886Y3607173D01*
X-7100299Y3614970D01*
X-7084463Y3619774D01*
X-7061860Y3622000D01*
X-6654140Y3622000D01*
X-6631537Y3619774D01*
G37*
G36*
X-8617537Y3619774D02*
G01*
X-8601701Y3614970D01*
X-8587114Y3607173D01*
X-8574323Y3596677D01*
X-8563827Y3583886D01*
X-8556030Y3569299D01*
X-8551226Y3553463D01*
X-8549000Y3530860D01*
X-8549000Y3073140D01*
X-8551226Y3050537D01*
X-8556030Y3034701D01*
X-8563827Y3020114D01*
X-8574323Y3007323D01*
X-8587114Y2996827D01*
X-8601701Y2989030D01*
X-8617537Y2984226D01*
X-8640140Y2982000D01*
X-9047860Y2982000D01*
X-9070463Y2984226D01*
X-9086299Y2989030D01*
X-9100886Y2996827D01*
X-9113677Y3007323D01*
X-9124173Y3020114D01*
X-9131970Y3034701D01*
X-9136774Y3050537D01*
X-9139000Y3073140D01*
X-9139000Y3530860D01*
X-9136774Y3553463D01*
X-9131970Y3569299D01*
X-9124173Y3583886D01*
X-9113677Y3596677D01*
X-9100886Y3607173D01*
X-9086299Y3614970D01*
X-9070463Y3619774D01*
X-9047860Y3622000D01*
X-8640140Y3622000D01*
X-8617537Y3619774D01*
G37*
G36*
X-7647537Y3619774D02*
G01*
X-7631701Y3614970D01*
X-7617114Y3607173D01*
X-7604323Y3596677D01*
X-7593827Y3583886D01*
X-7586030Y3569299D01*
X-7581226Y3553463D01*
X-7579000Y3530860D01*
X-7579000Y3073140D01*
X-7581226Y3050537D01*
X-7586030Y3034701D01*
X-7593827Y3020114D01*
X-7604323Y3007323D01*
X-7617114Y2996827D01*
X-7631701Y2989030D01*
X-7647537Y2984226D01*
X-7670140Y2982000D01*
X-8077860Y2982000D01*
X-8100463Y2984226D01*
X-8116299Y2989030D01*
X-8130886Y2996827D01*
X-8143677Y3007323D01*
X-8154173Y3020114D01*
X-8161970Y3034701D01*
X-8166774Y3050537D01*
X-8169000Y3073140D01*
X-8169000Y3530860D01*
X-8166774Y3553463D01*
X-8161970Y3569299D01*
X-8154173Y3583886D01*
X-8143677Y3596677D01*
X-8130886Y3607173D01*
X-8116299Y3614970D01*
X-8100463Y3619774D01*
X-8077860Y3622000D01*
X-7670140Y3622000D01*
X-7647537Y3619774D01*
G37*
M02*
