G04 #@! TF.GenerationSoftware,KiCad,Pcbnew,(5.1.5)-3*
G04 #@! TF.CreationDate,2020-06-30T19:55:35+10:00*
G04 #@! TF.ProjectId,cicada-2g,63696361-6461-42d3-9267-2e6b69636164,0.1*
G04 #@! TF.SameCoordinates,PX7cee6c0PY3dfd240*
G04 #@! TF.FileFunction,Legend,Top*
G04 #@! TF.FilePolarity,Positive*
%FSLAX46Y46*%
G04 Gerber Fmt 4.6, Leading zero omitted, Abs format (unit mm)*
G04 Created by KiCad (PCBNEW (5.1.5)-3) date 2020-06-30 19:55:35*
%MOMM*%
%LPD*%
G04 APERTURE LIST*
%ADD10C,0.300000*%
%ADD11C,0.150000*%
%ADD12C,0.170000*%
%ADD13C,0.350000*%
%ADD14C,0.200000*%
%ADD15C,0.120000*%
%ADD16C,0.100000*%
G04 APERTURE END LIST*
D10*
X18282857Y-10572142D02*
X17082857Y-10422142D01*
X17082857Y-9965000D01*
X17140000Y-9857857D01*
X17197142Y-9807857D01*
X17311428Y-9765000D01*
X17482857Y-9786428D01*
X17597142Y-9857857D01*
X17654285Y-9922142D01*
X17711428Y-10043571D01*
X17711428Y-10500714D01*
X17825714Y-9315000D02*
X17825714Y-8400714D01*
X18282857Y-7257857D02*
X18282857Y-7943571D01*
X18282857Y-7600714D02*
X17082857Y-7450714D01*
X17254285Y-7586428D01*
X17368571Y-7715000D01*
X17425714Y-7836428D01*
X17082857Y-6365000D02*
X17082857Y-6250714D01*
X17140000Y-6143571D01*
X17197142Y-6093571D01*
X17311428Y-6050714D01*
X17540000Y-6022142D01*
X17825714Y-6057857D01*
X18054285Y-6143571D01*
X18168571Y-6215000D01*
X18225714Y-6279285D01*
X18282857Y-6400714D01*
X18282857Y-6515000D01*
X18225714Y-6622142D01*
X18168571Y-6672142D01*
X18054285Y-6715000D01*
X17825714Y-6743571D01*
X17540000Y-6707857D01*
X17311428Y-6622142D01*
X17197142Y-6550714D01*
X17140000Y-6486428D01*
X17082857Y-6365000D01*
X17082857Y-5222142D02*
X17082857Y-5107857D01*
X17140000Y-5000714D01*
X17197142Y-4950714D01*
X17311428Y-4907857D01*
X17540000Y-4879285D01*
X17825714Y-4915000D01*
X18054285Y-5000714D01*
X18168571Y-5072142D01*
X18225714Y-5136428D01*
X18282857Y-5257857D01*
X18282857Y-5372142D01*
X18225714Y-5479285D01*
X18168571Y-5529285D01*
X18054285Y-5572142D01*
X17825714Y-5600714D01*
X17540000Y-5565000D01*
X17311428Y-5479285D01*
X17197142Y-5407857D01*
X17140000Y-5343571D01*
X17082857Y-5222142D01*
X17082857Y-4079285D02*
X17082857Y-3965000D01*
X17140000Y-3857857D01*
X17197142Y-3807857D01*
X17311428Y-3765000D01*
X17540000Y-3736428D01*
X17825714Y-3772142D01*
X18054285Y-3857857D01*
X18168571Y-3929285D01*
X18225714Y-3993571D01*
X18282857Y-4115000D01*
X18282857Y-4229285D01*
X18225714Y-4336428D01*
X18168571Y-4386428D01*
X18054285Y-4429285D01*
X17825714Y-4457857D01*
X17540000Y-4422142D01*
X17311428Y-4336428D01*
X17197142Y-4265000D01*
X17140000Y-4200714D01*
X17082857Y-4079285D01*
X17082857Y-2936428D02*
X17082857Y-2822142D01*
X17140000Y-2715000D01*
X17197142Y-2665000D01*
X17311428Y-2622142D01*
X17540000Y-2593571D01*
X17825714Y-2629285D01*
X18054285Y-2715000D01*
X18168571Y-2786428D01*
X18225714Y-2850714D01*
X18282857Y-2972142D01*
X18282857Y-3086428D01*
X18225714Y-3193571D01*
X18168571Y-3243571D01*
X18054285Y-3286428D01*
X17825714Y-3315000D01*
X17540000Y-3279285D01*
X17311428Y-3193571D01*
X17197142Y-3122142D01*
X17140000Y-3057857D01*
X17082857Y-2936428D01*
X18282857Y-1543571D02*
X18282857Y-2229285D01*
X18282857Y-1886428D02*
X17082857Y-1736428D01*
X17254285Y-1872142D01*
X17368571Y-2000714D01*
X17425714Y-2122142D01*
X17082857Y-650714D02*
X17082857Y-536428D01*
X17140000Y-429285D01*
X17197142Y-379285D01*
X17311428Y-336428D01*
X17540000Y-307857D01*
X17825714Y-343571D01*
X18054285Y-429285D01*
X18168571Y-500714D01*
X18225714Y-565000D01*
X18282857Y-686428D01*
X18282857Y-800714D01*
X18225714Y-907857D01*
X18168571Y-957857D01*
X18054285Y-1000714D01*
X17825714Y-1029285D01*
X17540000Y-993571D01*
X17311428Y-907857D01*
X17197142Y-836428D01*
X17140000Y-772142D01*
X17082857Y-650714D01*
X17825714Y170715D02*
X17825714Y1085000D01*
X17082857Y1577858D02*
X18282857Y1827858D01*
X17082857Y2377858D01*
X17082857Y2663572D02*
X17082857Y3406429D01*
X17540000Y2949286D01*
X17540000Y3120715D01*
X17597142Y3227858D01*
X17654285Y3277858D01*
X17768571Y3320715D01*
X18054285Y3285000D01*
X18168571Y3213572D01*
X18225714Y3149286D01*
X18282857Y3027858D01*
X18282857Y2685000D01*
X18225714Y2577858D01*
X18168571Y2527858D01*
D11*
X-500000Y-58000000D02*
X-2100000Y-56600000D01*
D12*
X685714Y-58414285D02*
X285714Y-58414285D01*
X285714Y-59042857D02*
X285714Y-57842857D01*
X857142Y-57842857D01*
X1200000Y-57842857D02*
X1485714Y-59042857D01*
X1714285Y-58185714D01*
X1942857Y-59042857D01*
X2228571Y-57842857D01*
X3600000Y-57842857D02*
X3600000Y-58814285D01*
X3657142Y-58928571D01*
X3714285Y-58985714D01*
X3828571Y-59042857D01*
X4057142Y-59042857D01*
X4171428Y-58985714D01*
X4228571Y-58928571D01*
X4285714Y-58814285D01*
X4285714Y-57842857D01*
X4857142Y-59042857D02*
X4857142Y-57842857D01*
X5314285Y-57842857D01*
X5428571Y-57900000D01*
X5485714Y-57957142D01*
X5542857Y-58071428D01*
X5542857Y-58242857D01*
X5485714Y-58357142D01*
X5428571Y-58414285D01*
X5314285Y-58471428D01*
X4857142Y-58471428D01*
X6057142Y-59042857D02*
X6057142Y-57842857D01*
X6342857Y-57842857D01*
X6514285Y-57900000D01*
X6628571Y-58014285D01*
X6685714Y-58128571D01*
X6742857Y-58357142D01*
X6742857Y-58528571D01*
X6685714Y-58757142D01*
X6628571Y-58871428D01*
X6514285Y-58985714D01*
X6342857Y-59042857D01*
X6057142Y-59042857D01*
X7200000Y-58700000D02*
X7771428Y-58700000D01*
X7085714Y-59042857D02*
X7485714Y-57842857D01*
X7885714Y-59042857D01*
X8114285Y-57842857D02*
X8800000Y-57842857D01*
X8457142Y-59042857D02*
X8457142Y-57842857D01*
X9200000Y-58414285D02*
X9600000Y-58414285D01*
X9771428Y-59042857D02*
X9200000Y-59042857D01*
X9200000Y-57842857D01*
X9771428Y-57842857D01*
D11*
X10200000Y-2600000D02*
X-10150000Y-2600000D01*
X10150000Y2600000D02*
X10200000Y-2600000D01*
X-10150000Y2600000D02*
X10150000Y2600000D01*
X-10150000Y-2550000D02*
X-10150000Y2600000D01*
D10*
X-8471429Y-4678571D02*
X-9328572Y-4678571D01*
X-8900000Y-4678571D02*
X-8900000Y-3178571D01*
X-9042858Y-3392857D01*
X-9185715Y-3535714D01*
X-9328572Y-3607142D01*
D13*
X14815714Y-6421428D02*
X14887142Y-6501785D01*
X14958571Y-6725000D01*
X14958571Y-6867857D01*
X14887142Y-7073214D01*
X14744285Y-7198214D01*
X14601428Y-7251785D01*
X14315714Y-7287500D01*
X14101428Y-7260714D01*
X13815714Y-7153571D01*
X13672857Y-7064285D01*
X13530000Y-6903571D01*
X13458571Y-6680357D01*
X13458571Y-6537500D01*
X13530000Y-6332142D01*
X13601428Y-6269642D01*
X14958571Y-5796428D02*
X13958571Y-5671428D01*
X13458571Y-5608928D02*
X13530000Y-5689285D01*
X13601428Y-5626785D01*
X13530000Y-5546428D01*
X13458571Y-5608928D01*
X13601428Y-5626785D01*
X14887142Y-4430357D02*
X14958571Y-4582142D01*
X14958571Y-4867857D01*
X14887142Y-5001785D01*
X14815714Y-5064285D01*
X14672857Y-5117857D01*
X14244285Y-5064285D01*
X14101428Y-4975000D01*
X14030000Y-4894642D01*
X13958571Y-4742857D01*
X13958571Y-4457142D01*
X14030000Y-4323214D01*
X14958571Y-3153571D02*
X14172857Y-3055357D01*
X14030000Y-3108928D01*
X13958571Y-3242857D01*
X13958571Y-3528571D01*
X14030000Y-3680357D01*
X14887142Y-3144642D02*
X14958571Y-3296428D01*
X14958571Y-3653571D01*
X14887142Y-3787500D01*
X14744285Y-3841071D01*
X14601428Y-3823214D01*
X14458571Y-3733928D01*
X14387142Y-3582142D01*
X14387142Y-3225000D01*
X14315714Y-3073214D01*
X14958571Y-1796428D02*
X13458571Y-1608928D01*
X14887142Y-1787500D02*
X14958571Y-1939285D01*
X14958571Y-2225000D01*
X14887142Y-2358928D01*
X14815714Y-2421428D01*
X14672857Y-2475000D01*
X14244285Y-2421428D01*
X14101428Y-2332142D01*
X14030000Y-2251785D01*
X13958571Y-2100000D01*
X13958571Y-1814285D01*
X14030000Y-1680357D01*
X14958571Y-439285D02*
X14172857Y-341071D01*
X14030000Y-394642D01*
X13958571Y-528571D01*
X13958571Y-814285D01*
X14030000Y-966071D01*
X14887142Y-430357D02*
X14958571Y-582142D01*
X14958571Y-939285D01*
X14887142Y-1073214D01*
X14744285Y-1126785D01*
X14601428Y-1108928D01*
X14458571Y-1019642D01*
X14387142Y-867857D01*
X14387142Y-510714D01*
X14315714Y-358928D01*
X13601428Y1516072D02*
X13530000Y1596429D01*
X13458571Y1748215D01*
X13458571Y2105358D01*
X13530000Y2239286D01*
X13601428Y2301786D01*
X13744285Y2355358D01*
X13887142Y2337500D01*
X14101428Y2239286D01*
X14958571Y1275000D01*
X14958571Y2203572D01*
X13530000Y3810715D02*
X13458571Y3676786D01*
X13458571Y3462500D01*
X13530000Y3239286D01*
X13672857Y3078572D01*
X13815714Y2989286D01*
X14101428Y2882143D01*
X14315714Y2855358D01*
X14601428Y2891072D01*
X14744285Y2944643D01*
X14887142Y3069643D01*
X14958571Y3275000D01*
X14958571Y3417858D01*
X14887142Y3641072D01*
X14815714Y3721429D01*
X14315714Y3783929D01*
X14315714Y3498215D01*
D11*
X6477000Y-46609000D02*
X6731000Y-46355000D01*
X2794000Y-46609000D02*
X6477000Y-46609000D01*
X-5600000Y-45600000D02*
X-10700000Y-45600000D01*
X-3800000Y-43700000D02*
X-300000Y-43700000D01*
X-300000Y-43700000D02*
X-300000Y-46400000D01*
X-3800000Y-45000000D02*
X-3800000Y-43700000D01*
X-5600000Y-45000000D02*
X-3800000Y-45000000D01*
X-5600000Y-46400000D02*
X-5600000Y-45000000D01*
X-300000Y-46400000D02*
X-5600000Y-46400000D01*
X-14200000Y-46200000D02*
X-14200000Y-44900000D01*
X-16000000Y-46200000D02*
X-14200000Y-46200000D01*
X-16000000Y-47600000D02*
X-16000000Y-46200000D01*
X-10700000Y-47600000D02*
X-16000000Y-47600000D01*
X-10700000Y-44900000D02*
X-10700000Y-47600000D01*
X-14200000Y-44900000D02*
X-10700000Y-44900000D01*
X16650000Y-41100000D02*
X16650000Y-46125000D01*
X18850000Y-46125000D02*
X16650000Y-46125000D01*
X18850000Y-42875000D02*
X18850000Y-46125000D01*
X17725000Y-42875000D02*
X18850000Y-42875000D01*
X17725000Y-41100000D02*
X17725000Y-42875000D01*
X16650000Y-41100000D02*
X17725000Y-41100000D01*
X16750000Y-47225000D02*
X17750000Y-46225000D01*
X16750000Y-47225000D02*
X15225000Y-47225000D01*
X16750000Y-49600000D02*
X16750000Y-47225000D01*
X18125000Y-49600000D02*
X16750000Y-49600000D01*
X18125000Y-49850000D02*
X18125000Y-49600000D01*
X18125000Y-53675000D02*
X18125000Y-49850000D01*
X15225000Y-53675000D02*
X18125000Y-53675000D01*
X15225000Y-47225000D02*
X15225000Y-53675000D01*
D14*
X15762857Y-11732857D02*
X14562857Y-11732857D01*
X15762857Y-11047142D01*
X14562857Y-11047142D01*
X15134285Y-10475714D02*
X15134285Y-10075714D01*
X15762857Y-9904285D02*
X15762857Y-10475714D01*
X14562857Y-10475714D01*
X14562857Y-9904285D01*
X14562857Y-9561428D02*
X14562857Y-8875714D01*
X15762857Y-9218571D02*
X14562857Y-9218571D01*
D11*
X-11200000Y-53700000D02*
X-10500000Y-53700000D01*
X-11200000Y-53700000D02*
X-11200000Y-55600000D01*
X-4000000Y-53700000D02*
X-3400000Y-53700000D01*
X-3400000Y-53700000D02*
X-3400000Y-55600000D01*
X-8800000Y-52800000D02*
X-8600000Y-53200000D01*
X-8600000Y-53200000D02*
X-8400000Y-52800000D01*
X-8400000Y-52800000D02*
X-8800000Y-52800000D01*
D15*
X-3600000Y-47070000D02*
X-3600000Y-46570000D01*
X-2200000Y-47070000D02*
X-2200000Y-46570000D01*
X-2200000Y-47070000D02*
X-1600000Y-47070000D01*
X-1600000Y-47070000D02*
X-1400000Y-47270000D01*
X-4400000Y-47270000D02*
X-4400000Y-47070000D01*
X-4400000Y-47070000D02*
X-3600000Y-47070000D01*
X-3600000Y-50070000D02*
X-4400000Y-50070000D01*
X-4400000Y-50070000D02*
X-4400000Y-49870000D01*
X-1400000Y-49870000D02*
X-1400000Y-50070000D01*
X-1400000Y-50070000D02*
X-2200000Y-50070000D01*
X12906000Y-38667000D02*
X6906000Y-38667000D01*
X12906000Y-42867000D02*
X6906000Y-42867000D01*
D11*
X-2355200Y-16744000D02*
X-2355200Y-6244000D01*
X-855200Y-16744000D02*
X-2355200Y-16744000D01*
X-855200Y-20994000D02*
X-855200Y-16744000D01*
X-18105200Y-20994000D02*
X-855200Y-20994000D01*
X-18105200Y-6244000D02*
X-18105200Y-20994000D01*
X-2355200Y-6244000D02*
X-18105200Y-6244000D01*
D15*
X19492000Y-13843000D02*
G75*
G03X19492000Y-13843000I-950000J0D01*
G01*
X1085000Y-26575000D02*
X1085000Y-29425000D01*
X1085000Y-42385000D02*
X-1225000Y-42385000D01*
X1085000Y-42385000D02*
X1085000Y-39425000D01*
X-16735000Y-26465000D02*
X-14425000Y-26465000D01*
X-16735000Y-42385000D02*
X-16735000Y-39425000D01*
X-16735000Y-42385000D02*
X-14425000Y-42385000D01*
X-16735000Y-26465000D02*
X-16735000Y-29425000D01*
X9750000Y-50450000D02*
X4350000Y-50450000D01*
X9750000Y-47150000D02*
X4350000Y-47150000D01*
X9750000Y-50450000D02*
X9750000Y-47150000D01*
X16407250Y-43923971D02*
X16407250Y-41493971D01*
X13337250Y-42163971D02*
X13337250Y-43923971D01*
X-9210000Y-48900000D02*
X-9210000Y-51350000D01*
X-5990000Y-50700000D02*
X-5990000Y-48900000D01*
D16*
X-3160000Y-45600000D02*
G75*
G03X-3160000Y-45600000I-50000J0D01*
G01*
D15*
X12600000Y-8903500D02*
X12600000Y-11188500D01*
X14070000Y-8903500D02*
X12600000Y-8903500D01*
X14070000Y-11188500D02*
X14070000Y-8903500D01*
X835200Y-12608000D02*
X2685200Y-12608000D01*
X835200Y-13808000D02*
X2685200Y-13808000D01*
X2685200Y-13808000D02*
X2685200Y-12608000D01*
X3292400Y-7620000D02*
X3292400Y-9470000D01*
X2092400Y-7620000D02*
X2092400Y-9470000D01*
X2092400Y-9470000D02*
X3292400Y-9470000D01*
X2308400Y-5242000D02*
X4158400Y-5242000D01*
X2308400Y-6442000D02*
X4158400Y-6442000D01*
X4158400Y-6442000D02*
X4158400Y-5242000D01*
X4774000Y-42803578D02*
X4774000Y-42286422D01*
X3354000Y-42803578D02*
X3354000Y-42286422D01*
X5332000Y-42534721D02*
X5332000Y-42860279D01*
X6352000Y-42534721D02*
X6352000Y-42860279D01*
X10040000Y-44916422D02*
X10040000Y-45433578D01*
X11460000Y-44916422D02*
X11460000Y-45433578D01*
X12960000Y-44725279D02*
X12960000Y-44399721D01*
X11940000Y-44725279D02*
X11940000Y-44399721D01*
X1068800Y-7960679D02*
X1068800Y-7635121D01*
X48800Y-7960679D02*
X48800Y-7635121D01*
X19531698Y-37386000D02*
X19531698Y-36586000D01*
X19931698Y-36986000D02*
X19131698Y-36986000D01*
X11441000Y-35204000D02*
X11441000Y-34138000D01*
X11481000Y-35439000D02*
X11481000Y-33903000D01*
X11521000Y-35619000D02*
X11521000Y-33723000D01*
X11561000Y-35769000D02*
X11561000Y-33573000D01*
X11601000Y-35900000D02*
X11601000Y-33442000D01*
X11641000Y-36017000D02*
X11641000Y-33325000D01*
X11681000Y-36124000D02*
X11681000Y-33218000D01*
X11721000Y-36223000D02*
X11721000Y-33119000D01*
X11761000Y-36316000D02*
X11761000Y-33026000D01*
X11801000Y-36402000D02*
X11801000Y-32940000D01*
X11841000Y-36484000D02*
X11841000Y-32858000D01*
X11881000Y-36561000D02*
X11881000Y-32781000D01*
X11921000Y-36635000D02*
X11921000Y-32707000D01*
X11961000Y-36705000D02*
X11961000Y-32637000D01*
X12001000Y-36773000D02*
X12001000Y-32569000D01*
X12041000Y-36837000D02*
X12041000Y-32505000D01*
X12081000Y-36899000D02*
X12081000Y-32443000D01*
X12121000Y-36958000D02*
X12121000Y-32384000D01*
X12161000Y-37016000D02*
X12161000Y-32326000D01*
X12201000Y-37071000D02*
X12201000Y-32271000D01*
X12241000Y-37125000D02*
X12241000Y-32217000D01*
X12281000Y-37176000D02*
X12281000Y-32166000D01*
X12321000Y-37227000D02*
X12321000Y-32115000D01*
X12361000Y-37275000D02*
X12361000Y-32067000D01*
X12401000Y-37322000D02*
X12401000Y-32020000D01*
X12441000Y-37368000D02*
X12441000Y-31974000D01*
X12481000Y-37412000D02*
X12481000Y-31930000D01*
X12521000Y-37455000D02*
X12521000Y-31887000D01*
X12561000Y-37497000D02*
X12561000Y-31845000D01*
X12601000Y-37538000D02*
X12601000Y-31804000D01*
X12641000Y-37578000D02*
X12641000Y-31764000D01*
X12681000Y-37616000D02*
X12681000Y-31726000D01*
X12721000Y-37654000D02*
X12721000Y-31688000D01*
X12761000Y-33631000D02*
X12761000Y-31652000D01*
X12761000Y-37690000D02*
X12761000Y-35711000D01*
X12801000Y-33631000D02*
X12801000Y-31616000D01*
X12801000Y-37726000D02*
X12801000Y-35711000D01*
X12841000Y-33631000D02*
X12841000Y-31581000D01*
X12841000Y-37761000D02*
X12841000Y-35711000D01*
X12881000Y-33631000D02*
X12881000Y-31547000D01*
X12881000Y-37795000D02*
X12881000Y-35711000D01*
X12921000Y-33631000D02*
X12921000Y-31515000D01*
X12921000Y-37827000D02*
X12921000Y-35711000D01*
X12961000Y-33631000D02*
X12961000Y-31482000D01*
X12961000Y-37860000D02*
X12961000Y-35711000D01*
X13001000Y-33631000D02*
X13001000Y-31451000D01*
X13001000Y-37891000D02*
X13001000Y-35711000D01*
X13041000Y-33631000D02*
X13041000Y-31421000D01*
X13041000Y-37921000D02*
X13041000Y-35711000D01*
X13081000Y-33631000D02*
X13081000Y-31391000D01*
X13081000Y-37951000D02*
X13081000Y-35711000D01*
X13121000Y-33631000D02*
X13121000Y-31362000D01*
X13121000Y-37980000D02*
X13121000Y-35711000D01*
X13161000Y-33631000D02*
X13161000Y-31333000D01*
X13161000Y-38009000D02*
X13161000Y-35711000D01*
X13201000Y-33631000D02*
X13201000Y-31306000D01*
X13201000Y-38036000D02*
X13201000Y-35711000D01*
X13241000Y-33631000D02*
X13241000Y-31279000D01*
X13241000Y-38063000D02*
X13241000Y-35711000D01*
X13281000Y-33631000D02*
X13281000Y-31253000D01*
X13281000Y-38089000D02*
X13281000Y-35711000D01*
X13321000Y-33631000D02*
X13321000Y-31227000D01*
X13321000Y-38115000D02*
X13321000Y-35711000D01*
X13361000Y-33631000D02*
X13361000Y-31202000D01*
X13361000Y-38140000D02*
X13361000Y-35711000D01*
X13401000Y-33631000D02*
X13401000Y-31178000D01*
X13401000Y-38164000D02*
X13401000Y-35711000D01*
X13441000Y-33631000D02*
X13441000Y-31154000D01*
X13441000Y-38188000D02*
X13441000Y-35711000D01*
X13481000Y-33631000D02*
X13481000Y-31131000D01*
X13481000Y-38211000D02*
X13481000Y-35711000D01*
X13521000Y-33631000D02*
X13521000Y-31109000D01*
X13521000Y-38233000D02*
X13521000Y-35711000D01*
X13561000Y-33631000D02*
X13561000Y-31087000D01*
X13561000Y-38255000D02*
X13561000Y-35711000D01*
X13601000Y-33631000D02*
X13601000Y-31065000D01*
X13601000Y-38277000D02*
X13601000Y-35711000D01*
X13641000Y-33631000D02*
X13641000Y-31044000D01*
X13641000Y-38298000D02*
X13641000Y-35711000D01*
X13681000Y-33631000D02*
X13681000Y-31024000D01*
X13681000Y-38318000D02*
X13681000Y-35711000D01*
X13721000Y-33631000D02*
X13721000Y-31005000D01*
X13721000Y-38337000D02*
X13721000Y-35711000D01*
X13761000Y-33631000D02*
X13761000Y-30985000D01*
X13761000Y-38357000D02*
X13761000Y-35711000D01*
X13801000Y-33631000D02*
X13801000Y-30967000D01*
X13801000Y-38375000D02*
X13801000Y-35711000D01*
X13841000Y-33631000D02*
X13841000Y-30949000D01*
X13841000Y-38393000D02*
X13841000Y-35711000D01*
X13881000Y-33631000D02*
X13881000Y-30931000D01*
X13881000Y-38411000D02*
X13881000Y-35711000D01*
X13921000Y-33631000D02*
X13921000Y-30914000D01*
X13921000Y-38428000D02*
X13921000Y-35711000D01*
X13961000Y-33631000D02*
X13961000Y-30897000D01*
X13961000Y-38445000D02*
X13961000Y-35711000D01*
X14001000Y-33631000D02*
X14001000Y-30881000D01*
X14001000Y-38461000D02*
X14001000Y-35711000D01*
X14041000Y-33631000D02*
X14041000Y-30866000D01*
X14041000Y-38476000D02*
X14041000Y-35711000D01*
X14081000Y-33631000D02*
X14081000Y-30850000D01*
X14081000Y-38492000D02*
X14081000Y-35711000D01*
X14121000Y-33631000D02*
X14121000Y-30836000D01*
X14121000Y-38506000D02*
X14121000Y-35711000D01*
X14161000Y-33631000D02*
X14161000Y-30821000D01*
X14161000Y-38521000D02*
X14161000Y-35711000D01*
X14201000Y-33631000D02*
X14201000Y-30808000D01*
X14201000Y-38534000D02*
X14201000Y-35711000D01*
X14241000Y-33631000D02*
X14241000Y-30794000D01*
X14241000Y-38548000D02*
X14241000Y-35711000D01*
X14281000Y-33631000D02*
X14281000Y-30782000D01*
X14281000Y-38560000D02*
X14281000Y-35711000D01*
X14321000Y-33631000D02*
X14321000Y-30769000D01*
X14321000Y-38573000D02*
X14321000Y-35711000D01*
X14361000Y-33631000D02*
X14361000Y-30757000D01*
X14361000Y-38585000D02*
X14361000Y-35711000D01*
X14401000Y-33631000D02*
X14401000Y-30746000D01*
X14401000Y-38596000D02*
X14401000Y-35711000D01*
X14441000Y-33631000D02*
X14441000Y-30735000D01*
X14441000Y-38607000D02*
X14441000Y-35711000D01*
X14481000Y-33631000D02*
X14481000Y-30724000D01*
X14481000Y-38618000D02*
X14481000Y-35711000D01*
X14521000Y-33631000D02*
X14521000Y-30714000D01*
X14521000Y-38628000D02*
X14521000Y-35711000D01*
X14561000Y-33631000D02*
X14561000Y-30704000D01*
X14561000Y-38638000D02*
X14561000Y-35711000D01*
X14601000Y-33631000D02*
X14601000Y-30695000D01*
X14601000Y-38647000D02*
X14601000Y-35711000D01*
X14641000Y-33631000D02*
X14641000Y-30686000D01*
X14641000Y-38656000D02*
X14641000Y-35711000D01*
X14681000Y-33631000D02*
X14681000Y-30677000D01*
X14681000Y-38665000D02*
X14681000Y-35711000D01*
X14721000Y-33631000D02*
X14721000Y-30669000D01*
X14721000Y-38673000D02*
X14721000Y-35711000D01*
X14761000Y-33631000D02*
X14761000Y-30661000D01*
X14761000Y-38681000D02*
X14761000Y-35711000D01*
X14801000Y-33631000D02*
X14801000Y-30654000D01*
X14801000Y-38688000D02*
X14801000Y-35711000D01*
X14842000Y-38695000D02*
X14842000Y-30647000D01*
X14882000Y-38701000D02*
X14882000Y-30641000D01*
X14922000Y-38708000D02*
X14922000Y-30634000D01*
X14962000Y-38713000D02*
X14962000Y-30629000D01*
X15002000Y-38719000D02*
X15002000Y-30623000D01*
X15042000Y-38723000D02*
X15042000Y-30619000D01*
X15082000Y-38728000D02*
X15082000Y-30614000D01*
X15122000Y-38732000D02*
X15122000Y-30610000D01*
X15162000Y-38736000D02*
X15162000Y-30606000D01*
X15202000Y-38739000D02*
X15202000Y-30603000D01*
X15242000Y-38742000D02*
X15242000Y-30600000D01*
X15282000Y-38745000D02*
X15282000Y-30597000D01*
X15322000Y-38747000D02*
X15322000Y-30595000D01*
X15362000Y-38748000D02*
X15362000Y-30594000D01*
X15402000Y-38750000D02*
X15402000Y-30592000D01*
X15442000Y-38751000D02*
X15442000Y-30591000D01*
X15482000Y-38751000D02*
X15482000Y-30591000D01*
X15522000Y-38751000D02*
X15522000Y-30591000D01*
X19642000Y-34671000D02*
G75*
G03X19642000Y-34671000I-4120000J0D01*
G01*
X19531698Y-28877000D02*
X19531698Y-28077000D01*
X19931698Y-28477000D02*
X19131698Y-28477000D01*
X11441000Y-26695000D02*
X11441000Y-25629000D01*
X11481000Y-26930000D02*
X11481000Y-25394000D01*
X11521000Y-27110000D02*
X11521000Y-25214000D01*
X11561000Y-27260000D02*
X11561000Y-25064000D01*
X11601000Y-27391000D02*
X11601000Y-24933000D01*
X11641000Y-27508000D02*
X11641000Y-24816000D01*
X11681000Y-27615000D02*
X11681000Y-24709000D01*
X11721000Y-27714000D02*
X11721000Y-24610000D01*
X11761000Y-27807000D02*
X11761000Y-24517000D01*
X11801000Y-27893000D02*
X11801000Y-24431000D01*
X11841000Y-27975000D02*
X11841000Y-24349000D01*
X11881000Y-28052000D02*
X11881000Y-24272000D01*
X11921000Y-28126000D02*
X11921000Y-24198000D01*
X11961000Y-28196000D02*
X11961000Y-24128000D01*
X12001000Y-28264000D02*
X12001000Y-24060000D01*
X12041000Y-28328000D02*
X12041000Y-23996000D01*
X12081000Y-28390000D02*
X12081000Y-23934000D01*
X12121000Y-28449000D02*
X12121000Y-23875000D01*
X12161000Y-28507000D02*
X12161000Y-23817000D01*
X12201000Y-28562000D02*
X12201000Y-23762000D01*
X12241000Y-28616000D02*
X12241000Y-23708000D01*
X12281000Y-28667000D02*
X12281000Y-23657000D01*
X12321000Y-28718000D02*
X12321000Y-23606000D01*
X12361000Y-28766000D02*
X12361000Y-23558000D01*
X12401000Y-28813000D02*
X12401000Y-23511000D01*
X12441000Y-28859000D02*
X12441000Y-23465000D01*
X12481000Y-28903000D02*
X12481000Y-23421000D01*
X12521000Y-28946000D02*
X12521000Y-23378000D01*
X12561000Y-28988000D02*
X12561000Y-23336000D01*
X12601000Y-29029000D02*
X12601000Y-23295000D01*
X12641000Y-29069000D02*
X12641000Y-23255000D01*
X12681000Y-29107000D02*
X12681000Y-23217000D01*
X12721000Y-29145000D02*
X12721000Y-23179000D01*
X12761000Y-25122000D02*
X12761000Y-23143000D01*
X12761000Y-29181000D02*
X12761000Y-27202000D01*
X12801000Y-25122000D02*
X12801000Y-23107000D01*
X12801000Y-29217000D02*
X12801000Y-27202000D01*
X12841000Y-25122000D02*
X12841000Y-23072000D01*
X12841000Y-29252000D02*
X12841000Y-27202000D01*
X12881000Y-25122000D02*
X12881000Y-23038000D01*
X12881000Y-29286000D02*
X12881000Y-27202000D01*
X12921000Y-25122000D02*
X12921000Y-23006000D01*
X12921000Y-29318000D02*
X12921000Y-27202000D01*
X12961000Y-25122000D02*
X12961000Y-22973000D01*
X12961000Y-29351000D02*
X12961000Y-27202000D01*
X13001000Y-25122000D02*
X13001000Y-22942000D01*
X13001000Y-29382000D02*
X13001000Y-27202000D01*
X13041000Y-25122000D02*
X13041000Y-22912000D01*
X13041000Y-29412000D02*
X13041000Y-27202000D01*
X13081000Y-25122000D02*
X13081000Y-22882000D01*
X13081000Y-29442000D02*
X13081000Y-27202000D01*
X13121000Y-25122000D02*
X13121000Y-22853000D01*
X13121000Y-29471000D02*
X13121000Y-27202000D01*
X13161000Y-25122000D02*
X13161000Y-22824000D01*
X13161000Y-29500000D02*
X13161000Y-27202000D01*
X13201000Y-25122000D02*
X13201000Y-22797000D01*
X13201000Y-29527000D02*
X13201000Y-27202000D01*
X13241000Y-25122000D02*
X13241000Y-22770000D01*
X13241000Y-29554000D02*
X13241000Y-27202000D01*
X13281000Y-25122000D02*
X13281000Y-22744000D01*
X13281000Y-29580000D02*
X13281000Y-27202000D01*
X13321000Y-25122000D02*
X13321000Y-22718000D01*
X13321000Y-29606000D02*
X13321000Y-27202000D01*
X13361000Y-25122000D02*
X13361000Y-22693000D01*
X13361000Y-29631000D02*
X13361000Y-27202000D01*
X13401000Y-25122000D02*
X13401000Y-22669000D01*
X13401000Y-29655000D02*
X13401000Y-27202000D01*
X13441000Y-25122000D02*
X13441000Y-22645000D01*
X13441000Y-29679000D02*
X13441000Y-27202000D01*
X13481000Y-25122000D02*
X13481000Y-22622000D01*
X13481000Y-29702000D02*
X13481000Y-27202000D01*
X13521000Y-25122000D02*
X13521000Y-22600000D01*
X13521000Y-29724000D02*
X13521000Y-27202000D01*
X13561000Y-25122000D02*
X13561000Y-22578000D01*
X13561000Y-29746000D02*
X13561000Y-27202000D01*
X13601000Y-25122000D02*
X13601000Y-22556000D01*
X13601000Y-29768000D02*
X13601000Y-27202000D01*
X13641000Y-25122000D02*
X13641000Y-22535000D01*
X13641000Y-29789000D02*
X13641000Y-27202000D01*
X13681000Y-25122000D02*
X13681000Y-22515000D01*
X13681000Y-29809000D02*
X13681000Y-27202000D01*
X13721000Y-25122000D02*
X13721000Y-22496000D01*
X13721000Y-29828000D02*
X13721000Y-27202000D01*
X13761000Y-25122000D02*
X13761000Y-22476000D01*
X13761000Y-29848000D02*
X13761000Y-27202000D01*
X13801000Y-25122000D02*
X13801000Y-22458000D01*
X13801000Y-29866000D02*
X13801000Y-27202000D01*
X13841000Y-25122000D02*
X13841000Y-22440000D01*
X13841000Y-29884000D02*
X13841000Y-27202000D01*
X13881000Y-25122000D02*
X13881000Y-22422000D01*
X13881000Y-29902000D02*
X13881000Y-27202000D01*
X13921000Y-25122000D02*
X13921000Y-22405000D01*
X13921000Y-29919000D02*
X13921000Y-27202000D01*
X13961000Y-25122000D02*
X13961000Y-22388000D01*
X13961000Y-29936000D02*
X13961000Y-27202000D01*
X14001000Y-25122000D02*
X14001000Y-22372000D01*
X14001000Y-29952000D02*
X14001000Y-27202000D01*
X14041000Y-25122000D02*
X14041000Y-22357000D01*
X14041000Y-29967000D02*
X14041000Y-27202000D01*
X14081000Y-25122000D02*
X14081000Y-22341000D01*
X14081000Y-29983000D02*
X14081000Y-27202000D01*
X14121000Y-25122000D02*
X14121000Y-22327000D01*
X14121000Y-29997000D02*
X14121000Y-27202000D01*
X14161000Y-25122000D02*
X14161000Y-22312000D01*
X14161000Y-30012000D02*
X14161000Y-27202000D01*
X14201000Y-25122000D02*
X14201000Y-22299000D01*
X14201000Y-30025000D02*
X14201000Y-27202000D01*
X14241000Y-25122000D02*
X14241000Y-22285000D01*
X14241000Y-30039000D02*
X14241000Y-27202000D01*
X14281000Y-25122000D02*
X14281000Y-22273000D01*
X14281000Y-30051000D02*
X14281000Y-27202000D01*
X14321000Y-25122000D02*
X14321000Y-22260000D01*
X14321000Y-30064000D02*
X14321000Y-27202000D01*
X14361000Y-25122000D02*
X14361000Y-22248000D01*
X14361000Y-30076000D02*
X14361000Y-27202000D01*
X14401000Y-25122000D02*
X14401000Y-22237000D01*
X14401000Y-30087000D02*
X14401000Y-27202000D01*
X14441000Y-25122000D02*
X14441000Y-22226000D01*
X14441000Y-30098000D02*
X14441000Y-27202000D01*
X14481000Y-25122000D02*
X14481000Y-22215000D01*
X14481000Y-30109000D02*
X14481000Y-27202000D01*
X14521000Y-25122000D02*
X14521000Y-22205000D01*
X14521000Y-30119000D02*
X14521000Y-27202000D01*
X14561000Y-25122000D02*
X14561000Y-22195000D01*
X14561000Y-30129000D02*
X14561000Y-27202000D01*
X14601000Y-25122000D02*
X14601000Y-22186000D01*
X14601000Y-30138000D02*
X14601000Y-27202000D01*
X14641000Y-25122000D02*
X14641000Y-22177000D01*
X14641000Y-30147000D02*
X14641000Y-27202000D01*
X14681000Y-25122000D02*
X14681000Y-22168000D01*
X14681000Y-30156000D02*
X14681000Y-27202000D01*
X14721000Y-25122000D02*
X14721000Y-22160000D01*
X14721000Y-30164000D02*
X14721000Y-27202000D01*
X14761000Y-25122000D02*
X14761000Y-22152000D01*
X14761000Y-30172000D02*
X14761000Y-27202000D01*
X14801000Y-25122000D02*
X14801000Y-22145000D01*
X14801000Y-30179000D02*
X14801000Y-27202000D01*
X14842000Y-30186000D02*
X14842000Y-22138000D01*
X14882000Y-30192000D02*
X14882000Y-22132000D01*
X14922000Y-30199000D02*
X14922000Y-22125000D01*
X14962000Y-30204000D02*
X14962000Y-22120000D01*
X15002000Y-30210000D02*
X15002000Y-22114000D01*
X15042000Y-30214000D02*
X15042000Y-22110000D01*
X15082000Y-30219000D02*
X15082000Y-22105000D01*
X15122000Y-30223000D02*
X15122000Y-22101000D01*
X15162000Y-30227000D02*
X15162000Y-22097000D01*
X15202000Y-30230000D02*
X15202000Y-22094000D01*
X15242000Y-30233000D02*
X15242000Y-22091000D01*
X15282000Y-30236000D02*
X15282000Y-22088000D01*
X15322000Y-30238000D02*
X15322000Y-22086000D01*
X15362000Y-30239000D02*
X15362000Y-22085000D01*
X15402000Y-30241000D02*
X15402000Y-22083000D01*
X15442000Y-30242000D02*
X15442000Y-22082000D01*
X15482000Y-30242000D02*
X15482000Y-22082000D01*
X15522000Y-30242000D02*
X15522000Y-22082000D01*
X19642000Y-26162000D02*
G75*
G03X19642000Y-26162000I-4120000J0D01*
G01*
X11149698Y-35735000D02*
X11149698Y-34935000D01*
X11549698Y-35335000D02*
X10749698Y-35335000D01*
X3059000Y-33553000D02*
X3059000Y-32487000D01*
X3099000Y-33788000D02*
X3099000Y-32252000D01*
X3139000Y-33968000D02*
X3139000Y-32072000D01*
X3179000Y-34118000D02*
X3179000Y-31922000D01*
X3219000Y-34249000D02*
X3219000Y-31791000D01*
X3259000Y-34366000D02*
X3259000Y-31674000D01*
X3299000Y-34473000D02*
X3299000Y-31567000D01*
X3339000Y-34572000D02*
X3339000Y-31468000D01*
X3379000Y-34665000D02*
X3379000Y-31375000D01*
X3419000Y-34751000D02*
X3419000Y-31289000D01*
X3459000Y-34833000D02*
X3459000Y-31207000D01*
X3499000Y-34910000D02*
X3499000Y-31130000D01*
X3539000Y-34984000D02*
X3539000Y-31056000D01*
X3579000Y-35054000D02*
X3579000Y-30986000D01*
X3619000Y-35122000D02*
X3619000Y-30918000D01*
X3659000Y-35186000D02*
X3659000Y-30854000D01*
X3699000Y-35248000D02*
X3699000Y-30792000D01*
X3739000Y-35307000D02*
X3739000Y-30733000D01*
X3779000Y-35365000D02*
X3779000Y-30675000D01*
X3819000Y-35420000D02*
X3819000Y-30620000D01*
X3859000Y-35474000D02*
X3859000Y-30566000D01*
X3899000Y-35525000D02*
X3899000Y-30515000D01*
X3939000Y-35576000D02*
X3939000Y-30464000D01*
X3979000Y-35624000D02*
X3979000Y-30416000D01*
X4019000Y-35671000D02*
X4019000Y-30369000D01*
X4059000Y-35717000D02*
X4059000Y-30323000D01*
X4099000Y-35761000D02*
X4099000Y-30279000D01*
X4139000Y-35804000D02*
X4139000Y-30236000D01*
X4179000Y-35846000D02*
X4179000Y-30194000D01*
X4219000Y-35887000D02*
X4219000Y-30153000D01*
X4259000Y-35927000D02*
X4259000Y-30113000D01*
X4299000Y-35965000D02*
X4299000Y-30075000D01*
X4339000Y-36003000D02*
X4339000Y-30037000D01*
X4379000Y-31980000D02*
X4379000Y-30001000D01*
X4379000Y-36039000D02*
X4379000Y-34060000D01*
X4419000Y-31980000D02*
X4419000Y-29965000D01*
X4419000Y-36075000D02*
X4419000Y-34060000D01*
X4459000Y-31980000D02*
X4459000Y-29930000D01*
X4459000Y-36110000D02*
X4459000Y-34060000D01*
X4499000Y-31980000D02*
X4499000Y-29896000D01*
X4499000Y-36144000D02*
X4499000Y-34060000D01*
X4539000Y-31980000D02*
X4539000Y-29864000D01*
X4539000Y-36176000D02*
X4539000Y-34060000D01*
X4579000Y-31980000D02*
X4579000Y-29831000D01*
X4579000Y-36209000D02*
X4579000Y-34060000D01*
X4619000Y-31980000D02*
X4619000Y-29800000D01*
X4619000Y-36240000D02*
X4619000Y-34060000D01*
X4659000Y-31980000D02*
X4659000Y-29770000D01*
X4659000Y-36270000D02*
X4659000Y-34060000D01*
X4699000Y-31980000D02*
X4699000Y-29740000D01*
X4699000Y-36300000D02*
X4699000Y-34060000D01*
X4739000Y-31980000D02*
X4739000Y-29711000D01*
X4739000Y-36329000D02*
X4739000Y-34060000D01*
X4779000Y-31980000D02*
X4779000Y-29682000D01*
X4779000Y-36358000D02*
X4779000Y-34060000D01*
X4819000Y-31980000D02*
X4819000Y-29655000D01*
X4819000Y-36385000D02*
X4819000Y-34060000D01*
X4859000Y-31980000D02*
X4859000Y-29628000D01*
X4859000Y-36412000D02*
X4859000Y-34060000D01*
X4899000Y-31980000D02*
X4899000Y-29602000D01*
X4899000Y-36438000D02*
X4899000Y-34060000D01*
X4939000Y-31980000D02*
X4939000Y-29576000D01*
X4939000Y-36464000D02*
X4939000Y-34060000D01*
X4979000Y-31980000D02*
X4979000Y-29551000D01*
X4979000Y-36489000D02*
X4979000Y-34060000D01*
X5019000Y-31980000D02*
X5019000Y-29527000D01*
X5019000Y-36513000D02*
X5019000Y-34060000D01*
X5059000Y-31980000D02*
X5059000Y-29503000D01*
X5059000Y-36537000D02*
X5059000Y-34060000D01*
X5099000Y-31980000D02*
X5099000Y-29480000D01*
X5099000Y-36560000D02*
X5099000Y-34060000D01*
X5139000Y-31980000D02*
X5139000Y-29458000D01*
X5139000Y-36582000D02*
X5139000Y-34060000D01*
X5179000Y-31980000D02*
X5179000Y-29436000D01*
X5179000Y-36604000D02*
X5179000Y-34060000D01*
X5219000Y-31980000D02*
X5219000Y-29414000D01*
X5219000Y-36626000D02*
X5219000Y-34060000D01*
X5259000Y-31980000D02*
X5259000Y-29393000D01*
X5259000Y-36647000D02*
X5259000Y-34060000D01*
X5299000Y-31980000D02*
X5299000Y-29373000D01*
X5299000Y-36667000D02*
X5299000Y-34060000D01*
X5339000Y-31980000D02*
X5339000Y-29354000D01*
X5339000Y-36686000D02*
X5339000Y-34060000D01*
X5379000Y-31980000D02*
X5379000Y-29334000D01*
X5379000Y-36706000D02*
X5379000Y-34060000D01*
X5419000Y-31980000D02*
X5419000Y-29316000D01*
X5419000Y-36724000D02*
X5419000Y-34060000D01*
X5459000Y-31980000D02*
X5459000Y-29298000D01*
X5459000Y-36742000D02*
X5459000Y-34060000D01*
X5499000Y-31980000D02*
X5499000Y-29280000D01*
X5499000Y-36760000D02*
X5499000Y-34060000D01*
X5539000Y-31980000D02*
X5539000Y-29263000D01*
X5539000Y-36777000D02*
X5539000Y-34060000D01*
X5579000Y-31980000D02*
X5579000Y-29246000D01*
X5579000Y-36794000D02*
X5579000Y-34060000D01*
X5619000Y-31980000D02*
X5619000Y-29230000D01*
X5619000Y-36810000D02*
X5619000Y-34060000D01*
X5659000Y-31980000D02*
X5659000Y-29215000D01*
X5659000Y-36825000D02*
X5659000Y-34060000D01*
X5699000Y-31980000D02*
X5699000Y-29199000D01*
X5699000Y-36841000D02*
X5699000Y-34060000D01*
X5739000Y-31980000D02*
X5739000Y-29185000D01*
X5739000Y-36855000D02*
X5739000Y-34060000D01*
X5779000Y-31980000D02*
X5779000Y-29170000D01*
X5779000Y-36870000D02*
X5779000Y-34060000D01*
X5819000Y-31980000D02*
X5819000Y-29157000D01*
X5819000Y-36883000D02*
X5819000Y-34060000D01*
X5859000Y-31980000D02*
X5859000Y-29143000D01*
X5859000Y-36897000D02*
X5859000Y-34060000D01*
X5899000Y-31980000D02*
X5899000Y-29131000D01*
X5899000Y-36909000D02*
X5899000Y-34060000D01*
X5939000Y-31980000D02*
X5939000Y-29118000D01*
X5939000Y-36922000D02*
X5939000Y-34060000D01*
X5979000Y-31980000D02*
X5979000Y-29106000D01*
X5979000Y-36934000D02*
X5979000Y-34060000D01*
X6019000Y-31980000D02*
X6019000Y-29095000D01*
X6019000Y-36945000D02*
X6019000Y-34060000D01*
X6059000Y-31980000D02*
X6059000Y-29084000D01*
X6059000Y-36956000D02*
X6059000Y-34060000D01*
X6099000Y-31980000D02*
X6099000Y-29073000D01*
X6099000Y-36967000D02*
X6099000Y-34060000D01*
X6139000Y-31980000D02*
X6139000Y-29063000D01*
X6139000Y-36977000D02*
X6139000Y-34060000D01*
X6179000Y-31980000D02*
X6179000Y-29053000D01*
X6179000Y-36987000D02*
X6179000Y-34060000D01*
X6219000Y-31980000D02*
X6219000Y-29044000D01*
X6219000Y-36996000D02*
X6219000Y-34060000D01*
X6259000Y-31980000D02*
X6259000Y-29035000D01*
X6259000Y-37005000D02*
X6259000Y-34060000D01*
X6299000Y-31980000D02*
X6299000Y-29026000D01*
X6299000Y-37014000D02*
X6299000Y-34060000D01*
X6339000Y-31980000D02*
X6339000Y-29018000D01*
X6339000Y-37022000D02*
X6339000Y-34060000D01*
X6379000Y-31980000D02*
X6379000Y-29010000D01*
X6379000Y-37030000D02*
X6379000Y-34060000D01*
X6419000Y-31980000D02*
X6419000Y-29003000D01*
X6419000Y-37037000D02*
X6419000Y-34060000D01*
X6460000Y-37044000D02*
X6460000Y-28996000D01*
X6500000Y-37050000D02*
X6500000Y-28990000D01*
X6540000Y-37057000D02*
X6540000Y-28983000D01*
X6580000Y-37062000D02*
X6580000Y-28978000D01*
X6620000Y-37068000D02*
X6620000Y-28972000D01*
X6660000Y-37072000D02*
X6660000Y-28968000D01*
X6700000Y-37077000D02*
X6700000Y-28963000D01*
X6740000Y-37081000D02*
X6740000Y-28959000D01*
X6780000Y-37085000D02*
X6780000Y-28955000D01*
X6820000Y-37088000D02*
X6820000Y-28952000D01*
X6860000Y-37091000D02*
X6860000Y-28949000D01*
X6900000Y-37094000D02*
X6900000Y-28946000D01*
X6940000Y-37096000D02*
X6940000Y-28944000D01*
X6980000Y-37097000D02*
X6980000Y-28943000D01*
X7020000Y-37099000D02*
X7020000Y-28941000D01*
X7060000Y-37100000D02*
X7060000Y-28940000D01*
X7100000Y-37100000D02*
X7100000Y-28940000D01*
X7140000Y-37100000D02*
X7140000Y-28940000D01*
X11260000Y-33020000D02*
G75*
G03X11260000Y-33020000I-4120000J0D01*
G01*
X16864698Y-20622000D02*
X16864698Y-19822000D01*
X17264698Y-20222000D02*
X16464698Y-20222000D01*
X8774000Y-18440000D02*
X8774000Y-17374000D01*
X8814000Y-18675000D02*
X8814000Y-17139000D01*
X8854000Y-18855000D02*
X8854000Y-16959000D01*
X8894000Y-19005000D02*
X8894000Y-16809000D01*
X8934000Y-19136000D02*
X8934000Y-16678000D01*
X8974000Y-19253000D02*
X8974000Y-16561000D01*
X9014000Y-19360000D02*
X9014000Y-16454000D01*
X9054000Y-19459000D02*
X9054000Y-16355000D01*
X9094000Y-19552000D02*
X9094000Y-16262000D01*
X9134000Y-19638000D02*
X9134000Y-16176000D01*
X9174000Y-19720000D02*
X9174000Y-16094000D01*
X9214000Y-19797000D02*
X9214000Y-16017000D01*
X9254000Y-19871000D02*
X9254000Y-15943000D01*
X9294000Y-19941000D02*
X9294000Y-15873000D01*
X9334000Y-20009000D02*
X9334000Y-15805000D01*
X9374000Y-20073000D02*
X9374000Y-15741000D01*
X9414000Y-20135000D02*
X9414000Y-15679000D01*
X9454000Y-20194000D02*
X9454000Y-15620000D01*
X9494000Y-20252000D02*
X9494000Y-15562000D01*
X9534000Y-20307000D02*
X9534000Y-15507000D01*
X9574000Y-20361000D02*
X9574000Y-15453000D01*
X9614000Y-20412000D02*
X9614000Y-15402000D01*
X9654000Y-20463000D02*
X9654000Y-15351000D01*
X9694000Y-20511000D02*
X9694000Y-15303000D01*
X9734000Y-20558000D02*
X9734000Y-15256000D01*
X9774000Y-20604000D02*
X9774000Y-15210000D01*
X9814000Y-20648000D02*
X9814000Y-15166000D01*
X9854000Y-20691000D02*
X9854000Y-15123000D01*
X9894000Y-20733000D02*
X9894000Y-15081000D01*
X9934000Y-20774000D02*
X9934000Y-15040000D01*
X9974000Y-20814000D02*
X9974000Y-15000000D01*
X10014000Y-20852000D02*
X10014000Y-14962000D01*
X10054000Y-20890000D02*
X10054000Y-14924000D01*
X10094000Y-16867000D02*
X10094000Y-14888000D01*
X10094000Y-20926000D02*
X10094000Y-18947000D01*
X10134000Y-16867000D02*
X10134000Y-14852000D01*
X10134000Y-20962000D02*
X10134000Y-18947000D01*
X10174000Y-16867000D02*
X10174000Y-14817000D01*
X10174000Y-20997000D02*
X10174000Y-18947000D01*
X10214000Y-16867000D02*
X10214000Y-14783000D01*
X10214000Y-21031000D02*
X10214000Y-18947000D01*
X10254000Y-16867000D02*
X10254000Y-14751000D01*
X10254000Y-21063000D02*
X10254000Y-18947000D01*
X10294000Y-16867000D02*
X10294000Y-14718000D01*
X10294000Y-21096000D02*
X10294000Y-18947000D01*
X10334000Y-16867000D02*
X10334000Y-14687000D01*
X10334000Y-21127000D02*
X10334000Y-18947000D01*
X10374000Y-16867000D02*
X10374000Y-14657000D01*
X10374000Y-21157000D02*
X10374000Y-18947000D01*
X10414000Y-16867000D02*
X10414000Y-14627000D01*
X10414000Y-21187000D02*
X10414000Y-18947000D01*
X10454000Y-16867000D02*
X10454000Y-14598000D01*
X10454000Y-21216000D02*
X10454000Y-18947000D01*
X10494000Y-16867000D02*
X10494000Y-14569000D01*
X10494000Y-21245000D02*
X10494000Y-18947000D01*
X10534000Y-16867000D02*
X10534000Y-14542000D01*
X10534000Y-21272000D02*
X10534000Y-18947000D01*
X10574000Y-16867000D02*
X10574000Y-14515000D01*
X10574000Y-21299000D02*
X10574000Y-18947000D01*
X10614000Y-16867000D02*
X10614000Y-14489000D01*
X10614000Y-21325000D02*
X10614000Y-18947000D01*
X10654000Y-16867000D02*
X10654000Y-14463000D01*
X10654000Y-21351000D02*
X10654000Y-18947000D01*
X10694000Y-16867000D02*
X10694000Y-14438000D01*
X10694000Y-21376000D02*
X10694000Y-18947000D01*
X10734000Y-16867000D02*
X10734000Y-14414000D01*
X10734000Y-21400000D02*
X10734000Y-18947000D01*
X10774000Y-16867000D02*
X10774000Y-14390000D01*
X10774000Y-21424000D02*
X10774000Y-18947000D01*
X10814000Y-16867000D02*
X10814000Y-14367000D01*
X10814000Y-21447000D02*
X10814000Y-18947000D01*
X10854000Y-16867000D02*
X10854000Y-14345000D01*
X10854000Y-21469000D02*
X10854000Y-18947000D01*
X10894000Y-16867000D02*
X10894000Y-14323000D01*
X10894000Y-21491000D02*
X10894000Y-18947000D01*
X10934000Y-16867000D02*
X10934000Y-14301000D01*
X10934000Y-21513000D02*
X10934000Y-18947000D01*
X10974000Y-16867000D02*
X10974000Y-14280000D01*
X10974000Y-21534000D02*
X10974000Y-18947000D01*
X11014000Y-16867000D02*
X11014000Y-14260000D01*
X11014000Y-21554000D02*
X11014000Y-18947000D01*
X11054000Y-16867000D02*
X11054000Y-14241000D01*
X11054000Y-21573000D02*
X11054000Y-18947000D01*
X11094000Y-16867000D02*
X11094000Y-14221000D01*
X11094000Y-21593000D02*
X11094000Y-18947000D01*
X11134000Y-16867000D02*
X11134000Y-14203000D01*
X11134000Y-21611000D02*
X11134000Y-18947000D01*
X11174000Y-16867000D02*
X11174000Y-14185000D01*
X11174000Y-21629000D02*
X11174000Y-18947000D01*
X11214000Y-16867000D02*
X11214000Y-14167000D01*
X11214000Y-21647000D02*
X11214000Y-18947000D01*
X11254000Y-16867000D02*
X11254000Y-14150000D01*
X11254000Y-21664000D02*
X11254000Y-18947000D01*
X11294000Y-16867000D02*
X11294000Y-14133000D01*
X11294000Y-21681000D02*
X11294000Y-18947000D01*
X11334000Y-16867000D02*
X11334000Y-14117000D01*
X11334000Y-21697000D02*
X11334000Y-18947000D01*
X11374000Y-16867000D02*
X11374000Y-14102000D01*
X11374000Y-21712000D02*
X11374000Y-18947000D01*
X11414000Y-16867000D02*
X11414000Y-14086000D01*
X11414000Y-21728000D02*
X11414000Y-18947000D01*
X11454000Y-16867000D02*
X11454000Y-14072000D01*
X11454000Y-21742000D02*
X11454000Y-18947000D01*
X11494000Y-16867000D02*
X11494000Y-14057000D01*
X11494000Y-21757000D02*
X11494000Y-18947000D01*
X11534000Y-16867000D02*
X11534000Y-14044000D01*
X11534000Y-21770000D02*
X11534000Y-18947000D01*
X11574000Y-16867000D02*
X11574000Y-14030000D01*
X11574000Y-21784000D02*
X11574000Y-18947000D01*
X11614000Y-16867000D02*
X11614000Y-14018000D01*
X11614000Y-21796000D02*
X11614000Y-18947000D01*
X11654000Y-16867000D02*
X11654000Y-14005000D01*
X11654000Y-21809000D02*
X11654000Y-18947000D01*
X11694000Y-16867000D02*
X11694000Y-13993000D01*
X11694000Y-21821000D02*
X11694000Y-18947000D01*
X11734000Y-16867000D02*
X11734000Y-13982000D01*
X11734000Y-21832000D02*
X11734000Y-18947000D01*
X11774000Y-16867000D02*
X11774000Y-13971000D01*
X11774000Y-21843000D02*
X11774000Y-18947000D01*
X11814000Y-16867000D02*
X11814000Y-13960000D01*
X11814000Y-21854000D02*
X11814000Y-18947000D01*
X11854000Y-16867000D02*
X11854000Y-13950000D01*
X11854000Y-21864000D02*
X11854000Y-18947000D01*
X11894000Y-16867000D02*
X11894000Y-13940000D01*
X11894000Y-21874000D02*
X11894000Y-18947000D01*
X11934000Y-16867000D02*
X11934000Y-13931000D01*
X11934000Y-21883000D02*
X11934000Y-18947000D01*
X11974000Y-16867000D02*
X11974000Y-13922000D01*
X11974000Y-21892000D02*
X11974000Y-18947000D01*
X12014000Y-16867000D02*
X12014000Y-13913000D01*
X12014000Y-21901000D02*
X12014000Y-18947000D01*
X12054000Y-16867000D02*
X12054000Y-13905000D01*
X12054000Y-21909000D02*
X12054000Y-18947000D01*
X12094000Y-16867000D02*
X12094000Y-13897000D01*
X12094000Y-21917000D02*
X12094000Y-18947000D01*
X12134000Y-16867000D02*
X12134000Y-13890000D01*
X12134000Y-21924000D02*
X12134000Y-18947000D01*
X12175000Y-21931000D02*
X12175000Y-13883000D01*
X12215000Y-21937000D02*
X12215000Y-13877000D01*
X12255000Y-21944000D02*
X12255000Y-13870000D01*
X12295000Y-21949000D02*
X12295000Y-13865000D01*
X12335000Y-21955000D02*
X12335000Y-13859000D01*
X12375000Y-21959000D02*
X12375000Y-13855000D01*
X12415000Y-21964000D02*
X12415000Y-13850000D01*
X12455000Y-21968000D02*
X12455000Y-13846000D01*
X12495000Y-21972000D02*
X12495000Y-13842000D01*
X12535000Y-21975000D02*
X12535000Y-13839000D01*
X12575000Y-21978000D02*
X12575000Y-13836000D01*
X12615000Y-21981000D02*
X12615000Y-13833000D01*
X12655000Y-21983000D02*
X12655000Y-13831000D01*
X12695000Y-21984000D02*
X12695000Y-13830000D01*
X12735000Y-21986000D02*
X12735000Y-13828000D01*
X12775000Y-21987000D02*
X12775000Y-13827000D01*
X12815000Y-21987000D02*
X12815000Y-13827000D01*
X12855000Y-21987000D02*
X12855000Y-13827000D01*
X16975000Y-17907000D02*
G75*
G03X16975000Y-17907000I-4120000J0D01*
G01*
X11149698Y-27226000D02*
X11149698Y-26426000D01*
X11549698Y-26826000D02*
X10749698Y-26826000D01*
X3059000Y-25044000D02*
X3059000Y-23978000D01*
X3099000Y-25279000D02*
X3099000Y-23743000D01*
X3139000Y-25459000D02*
X3139000Y-23563000D01*
X3179000Y-25609000D02*
X3179000Y-23413000D01*
X3219000Y-25740000D02*
X3219000Y-23282000D01*
X3259000Y-25857000D02*
X3259000Y-23165000D01*
X3299000Y-25964000D02*
X3299000Y-23058000D01*
X3339000Y-26063000D02*
X3339000Y-22959000D01*
X3379000Y-26156000D02*
X3379000Y-22866000D01*
X3419000Y-26242000D02*
X3419000Y-22780000D01*
X3459000Y-26324000D02*
X3459000Y-22698000D01*
X3499000Y-26401000D02*
X3499000Y-22621000D01*
X3539000Y-26475000D02*
X3539000Y-22547000D01*
X3579000Y-26545000D02*
X3579000Y-22477000D01*
X3619000Y-26613000D02*
X3619000Y-22409000D01*
X3659000Y-26677000D02*
X3659000Y-22345000D01*
X3699000Y-26739000D02*
X3699000Y-22283000D01*
X3739000Y-26798000D02*
X3739000Y-22224000D01*
X3779000Y-26856000D02*
X3779000Y-22166000D01*
X3819000Y-26911000D02*
X3819000Y-22111000D01*
X3859000Y-26965000D02*
X3859000Y-22057000D01*
X3899000Y-27016000D02*
X3899000Y-22006000D01*
X3939000Y-27067000D02*
X3939000Y-21955000D01*
X3979000Y-27115000D02*
X3979000Y-21907000D01*
X4019000Y-27162000D02*
X4019000Y-21860000D01*
X4059000Y-27208000D02*
X4059000Y-21814000D01*
X4099000Y-27252000D02*
X4099000Y-21770000D01*
X4139000Y-27295000D02*
X4139000Y-21727000D01*
X4179000Y-27337000D02*
X4179000Y-21685000D01*
X4219000Y-27378000D02*
X4219000Y-21644000D01*
X4259000Y-27418000D02*
X4259000Y-21604000D01*
X4299000Y-27456000D02*
X4299000Y-21566000D01*
X4339000Y-27494000D02*
X4339000Y-21528000D01*
X4379000Y-23471000D02*
X4379000Y-21492000D01*
X4379000Y-27530000D02*
X4379000Y-25551000D01*
X4419000Y-23471000D02*
X4419000Y-21456000D01*
X4419000Y-27566000D02*
X4419000Y-25551000D01*
X4459000Y-23471000D02*
X4459000Y-21421000D01*
X4459000Y-27601000D02*
X4459000Y-25551000D01*
X4499000Y-23471000D02*
X4499000Y-21387000D01*
X4499000Y-27635000D02*
X4499000Y-25551000D01*
X4539000Y-23471000D02*
X4539000Y-21355000D01*
X4539000Y-27667000D02*
X4539000Y-25551000D01*
X4579000Y-23471000D02*
X4579000Y-21322000D01*
X4579000Y-27700000D02*
X4579000Y-25551000D01*
X4619000Y-23471000D02*
X4619000Y-21291000D01*
X4619000Y-27731000D02*
X4619000Y-25551000D01*
X4659000Y-23471000D02*
X4659000Y-21261000D01*
X4659000Y-27761000D02*
X4659000Y-25551000D01*
X4699000Y-23471000D02*
X4699000Y-21231000D01*
X4699000Y-27791000D02*
X4699000Y-25551000D01*
X4739000Y-23471000D02*
X4739000Y-21202000D01*
X4739000Y-27820000D02*
X4739000Y-25551000D01*
X4779000Y-23471000D02*
X4779000Y-21173000D01*
X4779000Y-27849000D02*
X4779000Y-25551000D01*
X4819000Y-23471000D02*
X4819000Y-21146000D01*
X4819000Y-27876000D02*
X4819000Y-25551000D01*
X4859000Y-23471000D02*
X4859000Y-21119000D01*
X4859000Y-27903000D02*
X4859000Y-25551000D01*
X4899000Y-23471000D02*
X4899000Y-21093000D01*
X4899000Y-27929000D02*
X4899000Y-25551000D01*
X4939000Y-23471000D02*
X4939000Y-21067000D01*
X4939000Y-27955000D02*
X4939000Y-25551000D01*
X4979000Y-23471000D02*
X4979000Y-21042000D01*
X4979000Y-27980000D02*
X4979000Y-25551000D01*
X5019000Y-23471000D02*
X5019000Y-21018000D01*
X5019000Y-28004000D02*
X5019000Y-25551000D01*
X5059000Y-23471000D02*
X5059000Y-20994000D01*
X5059000Y-28028000D02*
X5059000Y-25551000D01*
X5099000Y-23471000D02*
X5099000Y-20971000D01*
X5099000Y-28051000D02*
X5099000Y-25551000D01*
X5139000Y-23471000D02*
X5139000Y-20949000D01*
X5139000Y-28073000D02*
X5139000Y-25551000D01*
X5179000Y-23471000D02*
X5179000Y-20927000D01*
X5179000Y-28095000D02*
X5179000Y-25551000D01*
X5219000Y-23471000D02*
X5219000Y-20905000D01*
X5219000Y-28117000D02*
X5219000Y-25551000D01*
X5259000Y-23471000D02*
X5259000Y-20884000D01*
X5259000Y-28138000D02*
X5259000Y-25551000D01*
X5299000Y-23471000D02*
X5299000Y-20864000D01*
X5299000Y-28158000D02*
X5299000Y-25551000D01*
X5339000Y-23471000D02*
X5339000Y-20845000D01*
X5339000Y-28177000D02*
X5339000Y-25551000D01*
X5379000Y-23471000D02*
X5379000Y-20825000D01*
X5379000Y-28197000D02*
X5379000Y-25551000D01*
X5419000Y-23471000D02*
X5419000Y-20807000D01*
X5419000Y-28215000D02*
X5419000Y-25551000D01*
X5459000Y-23471000D02*
X5459000Y-20789000D01*
X5459000Y-28233000D02*
X5459000Y-25551000D01*
X5499000Y-23471000D02*
X5499000Y-20771000D01*
X5499000Y-28251000D02*
X5499000Y-25551000D01*
X5539000Y-23471000D02*
X5539000Y-20754000D01*
X5539000Y-28268000D02*
X5539000Y-25551000D01*
X5579000Y-23471000D02*
X5579000Y-20737000D01*
X5579000Y-28285000D02*
X5579000Y-25551000D01*
X5619000Y-23471000D02*
X5619000Y-20721000D01*
X5619000Y-28301000D02*
X5619000Y-25551000D01*
X5659000Y-23471000D02*
X5659000Y-20706000D01*
X5659000Y-28316000D02*
X5659000Y-25551000D01*
X5699000Y-23471000D02*
X5699000Y-20690000D01*
X5699000Y-28332000D02*
X5699000Y-25551000D01*
X5739000Y-23471000D02*
X5739000Y-20676000D01*
X5739000Y-28346000D02*
X5739000Y-25551000D01*
X5779000Y-23471000D02*
X5779000Y-20661000D01*
X5779000Y-28361000D02*
X5779000Y-25551000D01*
X5819000Y-23471000D02*
X5819000Y-20648000D01*
X5819000Y-28374000D02*
X5819000Y-25551000D01*
X5859000Y-23471000D02*
X5859000Y-20634000D01*
X5859000Y-28388000D02*
X5859000Y-25551000D01*
X5899000Y-23471000D02*
X5899000Y-20622000D01*
X5899000Y-28400000D02*
X5899000Y-25551000D01*
X5939000Y-23471000D02*
X5939000Y-20609000D01*
X5939000Y-28413000D02*
X5939000Y-25551000D01*
X5979000Y-23471000D02*
X5979000Y-20597000D01*
X5979000Y-28425000D02*
X5979000Y-25551000D01*
X6019000Y-23471000D02*
X6019000Y-20586000D01*
X6019000Y-28436000D02*
X6019000Y-25551000D01*
X6059000Y-23471000D02*
X6059000Y-20575000D01*
X6059000Y-28447000D02*
X6059000Y-25551000D01*
X6099000Y-23471000D02*
X6099000Y-20564000D01*
X6099000Y-28458000D02*
X6099000Y-25551000D01*
X6139000Y-23471000D02*
X6139000Y-20554000D01*
X6139000Y-28468000D02*
X6139000Y-25551000D01*
X6179000Y-23471000D02*
X6179000Y-20544000D01*
X6179000Y-28478000D02*
X6179000Y-25551000D01*
X6219000Y-23471000D02*
X6219000Y-20535000D01*
X6219000Y-28487000D02*
X6219000Y-25551000D01*
X6259000Y-23471000D02*
X6259000Y-20526000D01*
X6259000Y-28496000D02*
X6259000Y-25551000D01*
X6299000Y-23471000D02*
X6299000Y-20517000D01*
X6299000Y-28505000D02*
X6299000Y-25551000D01*
X6339000Y-23471000D02*
X6339000Y-20509000D01*
X6339000Y-28513000D02*
X6339000Y-25551000D01*
X6379000Y-23471000D02*
X6379000Y-20501000D01*
X6379000Y-28521000D02*
X6379000Y-25551000D01*
X6419000Y-23471000D02*
X6419000Y-20494000D01*
X6419000Y-28528000D02*
X6419000Y-25551000D01*
X6460000Y-28535000D02*
X6460000Y-20487000D01*
X6500000Y-28541000D02*
X6500000Y-20481000D01*
X6540000Y-28548000D02*
X6540000Y-20474000D01*
X6580000Y-28553000D02*
X6580000Y-20469000D01*
X6620000Y-28559000D02*
X6620000Y-20463000D01*
X6660000Y-28563000D02*
X6660000Y-20459000D01*
X6700000Y-28568000D02*
X6700000Y-20454000D01*
X6740000Y-28572000D02*
X6740000Y-20450000D01*
X6780000Y-28576000D02*
X6780000Y-20446000D01*
X6820000Y-28579000D02*
X6820000Y-20443000D01*
X6860000Y-28582000D02*
X6860000Y-20440000D01*
X6900000Y-28585000D02*
X6900000Y-20437000D01*
X6940000Y-28587000D02*
X6940000Y-20435000D01*
X6980000Y-28588000D02*
X6980000Y-20434000D01*
X7020000Y-28590000D02*
X7020000Y-20432000D01*
X7060000Y-28591000D02*
X7060000Y-20431000D01*
X7100000Y-28591000D02*
X7100000Y-20431000D01*
X7140000Y-28591000D02*
X7140000Y-20431000D01*
X11260000Y-24511000D02*
G75*
G03X11260000Y-24511000I-4120000J0D01*
G01*
X9750000Y-55371000D02*
X4350000Y-55371000D01*
X9750000Y-52071000D02*
X4350000Y-52071000D01*
X9750000Y-55371000D02*
X9750000Y-52071000D01*
X11174000Y-11105000D02*
X9714000Y-11105000D01*
X11174000Y-7945000D02*
X9014000Y-7945000D01*
X11174000Y-7945000D02*
X11174000Y-8875000D01*
X11174000Y-11105000D02*
X11174000Y-10175000D01*
X1458000Y-24130000D02*
G75*
G03X1458000Y-24130000I-950000J0D01*
G01*
X-66000Y-3810000D02*
G75*
G03X-66000Y-3810000I-950000J0D01*
G01*
X8316000Y-45466000D02*
G75*
G03X8316000Y-45466000I-950000J0D01*
G01*
X4878800Y-18800000D02*
X4878800Y-17400000D01*
X2558800Y-17400000D02*
X2558800Y-19300000D01*
X-336800Y-19162800D02*
X-336800Y-20562800D01*
X1983200Y-20562800D02*
X1983200Y-18662800D01*
X7791466Y-9444800D02*
X7753371Y-9478133D01*
X7639085Y-9511466D01*
X7562895Y-9511466D01*
X7448609Y-9478133D01*
X7372419Y-9411466D01*
X7334323Y-9344800D01*
X7296228Y-9211466D01*
X7296228Y-9111466D01*
X7334323Y-8978133D01*
X7372419Y-8911466D01*
X7448609Y-8844800D01*
X7562895Y-8811466D01*
X7639085Y-8811466D01*
X7753371Y-8844800D01*
X7791466Y-8878133D01*
X8477180Y-9044800D02*
X8477180Y-9511466D01*
X8286704Y-8778133D02*
X8096228Y-9278133D01*
X8591466Y-9278133D01*
X-2883334Y-55066666D02*
X-2383334Y-55066666D01*
X-2283334Y-55104761D01*
X-2216667Y-55180952D01*
X-2183334Y-55295238D01*
X-2183334Y-55371428D01*
X-2883334Y-54761904D02*
X-2883334Y-54266666D01*
X-2616667Y-54533333D01*
X-2616667Y-54419047D01*
X-2583334Y-54342857D01*
X-2550000Y-54304761D01*
X-2483334Y-54266666D01*
X-2316667Y-54266666D01*
X-2250000Y-54304761D01*
X-2216667Y-54342857D01*
X-2183334Y-54419047D01*
X-2183334Y-54647619D01*
X-2216667Y-54723809D01*
X-2250000Y-54761904D01*
D16*
X-8457143Y-53226190D02*
X-8742858Y-53226190D01*
X-8600000Y-53226190D02*
X-8600000Y-52726190D01*
X-8647620Y-52797619D01*
X-8695239Y-52845238D01*
X-8742858Y-52869047D01*
D15*
X-3166667Y-50686666D02*
X-3166667Y-51186666D01*
X-3204762Y-51286666D01*
X-3280953Y-51353333D01*
X-3395239Y-51386666D01*
X-3471429Y-51386666D01*
X-2442858Y-50920000D02*
X-2442858Y-51386666D01*
X-2633334Y-50653333D02*
X-2823810Y-51153333D01*
X-2328572Y-51153333D01*
D11*
X9739333Y-44219380D02*
X9263142Y-44219380D01*
X9263142Y-43219380D01*
X10501238Y-43552714D02*
X10501238Y-44219380D01*
X10263142Y-43171761D02*
X10025047Y-43886047D01*
X10644095Y-43886047D01*
X-18343620Y-12482095D02*
X-19343620Y-12482095D01*
X-19343620Y-12101142D01*
X-19296000Y-12005904D01*
X-19248381Y-11958285D01*
X-19153143Y-11910666D01*
X-19010286Y-11910666D01*
X-18915048Y-11958285D01*
X-18867429Y-12005904D01*
X-18819810Y-12101142D01*
X-18819810Y-12482095D01*
X-18343620Y-10958285D02*
X-18343620Y-11529714D01*
X-18343620Y-11244000D02*
X-19343620Y-11244000D01*
X-19200762Y-11339238D01*
X-19105524Y-11434476D01*
X-19057905Y-11529714D01*
D15*
X8571666Y-12960285D02*
X8238333Y-13226952D01*
X8571666Y-13417428D02*
X7871666Y-13417428D01*
X7871666Y-13112666D01*
X7905000Y-13036476D01*
X7938333Y-12998380D01*
X8005000Y-12960285D01*
X8105000Y-12960285D01*
X8171666Y-12998380D01*
X8205000Y-13036476D01*
X8238333Y-13112666D01*
X8238333Y-13417428D01*
X8571666Y-12198380D02*
X8571666Y-12655523D01*
X8571666Y-12426952D02*
X7871666Y-12426952D01*
X7971666Y-12503142D01*
X8038333Y-12579333D01*
X8071666Y-12655523D01*
X7871666Y-11703142D02*
X7871666Y-11626952D01*
X7905000Y-11550761D01*
X7938333Y-11512666D01*
X8005000Y-11474571D01*
X8138333Y-11436476D01*
X8305000Y-11436476D01*
X8438333Y-11474571D01*
X8505000Y-11512666D01*
X8538333Y-11550761D01*
X8571666Y-11626952D01*
X8571666Y-11703142D01*
X8538333Y-11779333D01*
X8505000Y-11817428D01*
X8438333Y-11855523D01*
X8305000Y-11893619D01*
X8138333Y-11893619D01*
X8005000Y-11855523D01*
X7938333Y-11817428D01*
X7905000Y-11779333D01*
X7871666Y-11703142D01*
X2956666Y-29343285D02*
X2623333Y-29609952D01*
X2956666Y-29800428D02*
X2256666Y-29800428D01*
X2256666Y-29495666D01*
X2290000Y-29419476D01*
X2323333Y-29381380D01*
X2390000Y-29343285D01*
X2490000Y-29343285D01*
X2556666Y-29381380D01*
X2590000Y-29419476D01*
X2623333Y-29495666D01*
X2623333Y-29800428D01*
X2956666Y-28581380D02*
X2956666Y-29038523D01*
X2956666Y-28809952D02*
X2256666Y-28809952D01*
X2356666Y-28886142D01*
X2423333Y-28962333D01*
X2456666Y-29038523D01*
X2256666Y-28314714D02*
X2256666Y-27819476D01*
X2523333Y-28086142D01*
X2523333Y-27971857D01*
X2556666Y-27895666D01*
X2590000Y-27857571D01*
X2656666Y-27819476D01*
X2823333Y-27819476D01*
X2890000Y-27857571D01*
X2923333Y-27895666D01*
X2956666Y-27971857D01*
X2956666Y-28200428D01*
X2923333Y-28276619D01*
X2890000Y-28314714D01*
X16890476Y-11746666D02*
X17347619Y-11746666D01*
X17119047Y-12446666D02*
X17119047Y-11746666D01*
X17614285Y-12446666D02*
X17614285Y-11746666D01*
X17919047Y-11746666D01*
X17995238Y-11780000D01*
X18033333Y-11813333D01*
X18071428Y-11880000D01*
X18071428Y-11980000D01*
X18033333Y-12046666D01*
X17995238Y-12080000D01*
X17919047Y-12113333D01*
X17614285Y-12113333D01*
X18376190Y-11813333D02*
X18414285Y-11780000D01*
X18490476Y-11746666D01*
X18680952Y-11746666D01*
X18757142Y-11780000D01*
X18795238Y-11813333D01*
X18833333Y-11880000D01*
X18833333Y-11946666D01*
X18795238Y-12046666D01*
X18338095Y-12446666D01*
X18833333Y-12446666D01*
X4060000Y-39757285D02*
X4093333Y-39795380D01*
X4126666Y-39909666D01*
X4126666Y-39985857D01*
X4093333Y-40100142D01*
X4026666Y-40176333D01*
X3960000Y-40214428D01*
X3826666Y-40252523D01*
X3726666Y-40252523D01*
X3593333Y-40214428D01*
X3526666Y-40176333D01*
X3460000Y-40100142D01*
X3426666Y-39985857D01*
X3426666Y-39909666D01*
X3460000Y-39795380D01*
X3493333Y-39757285D01*
X4126666Y-38995380D02*
X4126666Y-39452523D01*
X4126666Y-39223952D02*
X3426666Y-39223952D01*
X3526666Y-39300142D01*
X3593333Y-39376333D01*
X3626666Y-39452523D01*
X3426666Y-38728714D02*
X3426666Y-38195380D01*
X4126666Y-38538238D01*
X2917000Y-39757285D02*
X2950333Y-39795380D01*
X2983666Y-39909666D01*
X2983666Y-39985857D01*
X2950333Y-40100142D01*
X2883666Y-40176333D01*
X2817000Y-40214428D01*
X2683666Y-40252523D01*
X2583666Y-40252523D01*
X2450333Y-40214428D01*
X2383666Y-40176333D01*
X2317000Y-40100142D01*
X2283666Y-39985857D01*
X2283666Y-39909666D01*
X2317000Y-39795380D01*
X2350333Y-39757285D01*
X2983666Y-38995380D02*
X2983666Y-39452523D01*
X2983666Y-39223952D02*
X2283666Y-39223952D01*
X2383666Y-39300142D01*
X2450333Y-39376333D01*
X2483666Y-39452523D01*
X2283666Y-38309666D02*
X2283666Y-38462047D01*
X2317000Y-38538238D01*
X2350333Y-38576333D01*
X2450333Y-38652523D01*
X2583666Y-38690619D01*
X2850333Y-38690619D01*
X2917000Y-38652523D01*
X2950333Y-38614428D01*
X2983666Y-38538238D01*
X2983666Y-38385857D01*
X2950333Y-38309666D01*
X2917000Y-38271571D01*
X2850333Y-38233476D01*
X2683666Y-38233476D01*
X2617000Y-38271571D01*
X2583666Y-38309666D01*
X2550333Y-38385857D01*
X2550333Y-38538238D01*
X2583666Y-38614428D01*
X2617000Y-38652523D01*
X2683666Y-38690619D01*
X-11933334Y-47250000D02*
X-11971429Y-47283333D01*
X-12085715Y-47316666D01*
X-12161905Y-47316666D01*
X-12276191Y-47283333D01*
X-12352381Y-47216666D01*
X-12390477Y-47150000D01*
X-12428572Y-47016666D01*
X-12428572Y-46916666D01*
X-12390477Y-46783333D01*
X-12352381Y-46716666D01*
X-12276191Y-46650000D01*
X-12161905Y-46616666D01*
X-12085715Y-46616666D01*
X-11971429Y-46650000D01*
X-11933334Y-46683333D01*
X-11552381Y-47316666D02*
X-11400000Y-47316666D01*
X-11323810Y-47283333D01*
X-11285715Y-47250000D01*
X-11209524Y-47150000D01*
X-11171429Y-47016666D01*
X-11171429Y-46750000D01*
X-11209524Y-46683333D01*
X-11247620Y-46650000D01*
X-11323810Y-46616666D01*
X-11476191Y-46616666D01*
X-11552381Y-46650000D01*
X-11590477Y-46683333D01*
X-11628572Y-46750000D01*
X-11628572Y-46916666D01*
X-11590477Y-46983333D01*
X-11552381Y-47016666D01*
X-11476191Y-47050000D01*
X-11323810Y-47050000D01*
X-11247620Y-47016666D01*
X-11209524Y-46983333D01*
X-11171429Y-46916666D01*
X-11933334Y-45850000D02*
X-11971429Y-45883333D01*
X-12085715Y-45916666D01*
X-12161905Y-45916666D01*
X-12276191Y-45883333D01*
X-12352381Y-45816666D01*
X-12390477Y-45750000D01*
X-12428572Y-45616666D01*
X-12428572Y-45516666D01*
X-12390477Y-45383333D01*
X-12352381Y-45316666D01*
X-12276191Y-45250000D01*
X-12161905Y-45216666D01*
X-12085715Y-45216666D01*
X-11971429Y-45250000D01*
X-11933334Y-45283333D01*
X-11247620Y-45216666D02*
X-11400000Y-45216666D01*
X-11476191Y-45250000D01*
X-11514286Y-45283333D01*
X-11590477Y-45383333D01*
X-11628572Y-45516666D01*
X-11628572Y-45783333D01*
X-11590477Y-45850000D01*
X-11552381Y-45883333D01*
X-11476191Y-45916666D01*
X-11323810Y-45916666D01*
X-11247620Y-45883333D01*
X-11209524Y-45850000D01*
X-11171429Y-45783333D01*
X-11171429Y-45616666D01*
X-11209524Y-45550000D01*
X-11247620Y-45516666D01*
X-11323810Y-45483333D01*
X-11476191Y-45483333D01*
X-11552381Y-45516666D01*
X-11590477Y-45550000D01*
X-11628572Y-45616666D01*
X-13183334Y-46814285D02*
X-13516667Y-47080952D01*
X-13183334Y-47271428D02*
X-13883334Y-47271428D01*
X-13883334Y-46966666D01*
X-13850000Y-46890476D01*
X-13816667Y-46852380D01*
X-13750000Y-46814285D01*
X-13650000Y-46814285D01*
X-13583334Y-46852380D01*
X-13550000Y-46890476D01*
X-13516667Y-46966666D01*
X-13516667Y-47271428D01*
X-13183334Y-46052380D02*
X-13183334Y-46509523D01*
X-13183334Y-46280952D02*
X-13883334Y-46280952D01*
X-13783334Y-46357142D01*
X-13716667Y-46433333D01*
X-13683334Y-46509523D01*
X-13816667Y-45747619D02*
X-13850000Y-45709523D01*
X-13883334Y-45633333D01*
X-13883334Y-45442857D01*
X-13850000Y-45366666D01*
X-13816667Y-45328571D01*
X-13750000Y-45290476D01*
X-13683334Y-45290476D01*
X-13583334Y-45328571D01*
X-13183334Y-45785714D01*
X-13183334Y-45290476D01*
X-7848524Y-24508666D02*
X-7848524Y-25075333D01*
X-7810429Y-25142000D01*
X-7772334Y-25175333D01*
X-7696143Y-25208666D01*
X-7543762Y-25208666D01*
X-7467572Y-25175333D01*
X-7429477Y-25142000D01*
X-7391381Y-25075333D01*
X-7391381Y-24508666D01*
X-6667572Y-24742000D02*
X-6667572Y-25208666D01*
X-6858048Y-24475333D02*
X-7048524Y-24975333D01*
X-6553286Y-24975333D01*
X5378571Y-51616666D02*
X5378571Y-50916666D01*
X5569047Y-50916666D01*
X5683333Y-50950000D01*
X5759523Y-51016666D01*
X5797619Y-51083333D01*
X5835714Y-51216666D01*
X5835714Y-51316666D01*
X5797619Y-51450000D01*
X5759523Y-51516666D01*
X5683333Y-51583333D01*
X5569047Y-51616666D01*
X5378571Y-51616666D01*
X6597619Y-51616666D02*
X6140476Y-51616666D01*
X6369047Y-51616666D02*
X6369047Y-50916666D01*
X6292857Y-51016666D01*
X6216666Y-51083333D01*
X6140476Y-51116666D01*
X7092857Y-50916666D02*
X7169047Y-50916666D01*
X7245238Y-50950000D01*
X7283333Y-50983333D01*
X7321428Y-51050000D01*
X7359523Y-51183333D01*
X7359523Y-51350000D01*
X7321428Y-51483333D01*
X7283333Y-51550000D01*
X7245238Y-51583333D01*
X7169047Y-51616666D01*
X7092857Y-51616666D01*
X7016666Y-51583333D01*
X6978571Y-51550000D01*
X6940476Y-51483333D01*
X6902380Y-51350000D01*
X6902380Y-51183333D01*
X6940476Y-51050000D01*
X6978571Y-50983333D01*
X7016666Y-50950000D01*
X7092857Y-50916666D01*
X16241666Y-51689285D02*
X15908333Y-51955952D01*
X16241666Y-52146428D02*
X15541666Y-52146428D01*
X15541666Y-51841666D01*
X15575000Y-51765476D01*
X15608333Y-51727380D01*
X15675000Y-51689285D01*
X15775000Y-51689285D01*
X15841666Y-51727380D01*
X15875000Y-51765476D01*
X15908333Y-51841666D01*
X15908333Y-52146428D01*
X15608333Y-51384523D02*
X15575000Y-51346428D01*
X15541666Y-51270238D01*
X15541666Y-51079761D01*
X15575000Y-51003571D01*
X15608333Y-50965476D01*
X15675000Y-50927380D01*
X15741666Y-50927380D01*
X15841666Y-50965476D01*
X16241666Y-51422619D01*
X16241666Y-50927380D01*
X15541666Y-50660714D02*
X15541666Y-50165476D01*
X15808333Y-50432142D01*
X15808333Y-50317857D01*
X15841666Y-50241666D01*
X15875000Y-50203571D01*
X15941666Y-50165476D01*
X16108333Y-50165476D01*
X16175000Y-50203571D01*
X16208333Y-50241666D01*
X16241666Y-50317857D01*
X16241666Y-50546428D01*
X16208333Y-50622619D01*
X16175000Y-50660714D01*
X16241666Y-49064285D02*
X15908333Y-49330952D01*
X16241666Y-49521428D02*
X15541666Y-49521428D01*
X15541666Y-49216666D01*
X15575000Y-49140476D01*
X15608333Y-49102380D01*
X15675000Y-49064285D01*
X15775000Y-49064285D01*
X15841666Y-49102380D01*
X15875000Y-49140476D01*
X15908333Y-49216666D01*
X15908333Y-49521428D01*
X15608333Y-48759523D02*
X15575000Y-48721428D01*
X15541666Y-48645238D01*
X15541666Y-48454761D01*
X15575000Y-48378571D01*
X15608333Y-48340476D01*
X15675000Y-48302380D01*
X15741666Y-48302380D01*
X15841666Y-48340476D01*
X16241666Y-48797619D01*
X16241666Y-48302380D01*
X15608333Y-47997619D02*
X15575000Y-47959523D01*
X15541666Y-47883333D01*
X15541666Y-47692857D01*
X15575000Y-47616666D01*
X15608333Y-47578571D01*
X15675000Y-47540476D01*
X15741666Y-47540476D01*
X15841666Y-47578571D01*
X16241666Y-48035714D01*
X16241666Y-47540476D01*
X17516666Y-51664285D02*
X17183333Y-51930952D01*
X17516666Y-52121428D02*
X16816666Y-52121428D01*
X16816666Y-51816666D01*
X16850000Y-51740476D01*
X16883333Y-51702380D01*
X16950000Y-51664285D01*
X17050000Y-51664285D01*
X17116666Y-51702380D01*
X17150000Y-51740476D01*
X17183333Y-51816666D01*
X17183333Y-52121428D01*
X17516666Y-50902380D02*
X17516666Y-51359523D01*
X17516666Y-51130952D02*
X16816666Y-51130952D01*
X16916666Y-51207142D01*
X16983333Y-51283333D01*
X17016666Y-51359523D01*
X17516666Y-50521428D02*
X17516666Y-50369047D01*
X17483333Y-50292857D01*
X17450000Y-50254761D01*
X17350000Y-50178571D01*
X17216666Y-50140476D01*
X16950000Y-50140476D01*
X16883333Y-50178571D01*
X16850000Y-50216666D01*
X16816666Y-50292857D01*
X16816666Y-50445238D01*
X16850000Y-50521428D01*
X16883333Y-50559523D01*
X16950000Y-50597619D01*
X17116666Y-50597619D01*
X17183333Y-50559523D01*
X17216666Y-50521428D01*
X17250000Y-50445238D01*
X17250000Y-50292857D01*
X17216666Y-50216666D01*
X17183333Y-50178571D01*
X17116666Y-50140476D01*
X4483666Y-12000666D02*
X4217000Y-11667333D01*
X4026523Y-12000666D02*
X4026523Y-11300666D01*
X4331285Y-11300666D01*
X4407476Y-11334000D01*
X4445571Y-11367333D01*
X4483666Y-11434000D01*
X4483666Y-11534000D01*
X4445571Y-11600666D01*
X4407476Y-11634000D01*
X4331285Y-11667333D01*
X4026523Y-11667333D01*
X4864619Y-12000666D02*
X5017000Y-12000666D01*
X5093190Y-11967333D01*
X5131285Y-11934000D01*
X5207476Y-11834000D01*
X5245571Y-11700666D01*
X5245571Y-11434000D01*
X5207476Y-11367333D01*
X5169380Y-11334000D01*
X5093190Y-11300666D01*
X4940809Y-11300666D01*
X4864619Y-11334000D01*
X4826523Y-11367333D01*
X4788428Y-11434000D01*
X4788428Y-11600666D01*
X4826523Y-11667333D01*
X4864619Y-11700666D01*
X4940809Y-11734000D01*
X5093190Y-11734000D01*
X5169380Y-11700666D01*
X5207476Y-11667333D01*
X5245571Y-11600666D01*
X4483666Y-10832266D02*
X4217000Y-10498933D01*
X4026523Y-10832266D02*
X4026523Y-10132266D01*
X4331285Y-10132266D01*
X4407476Y-10165600D01*
X4445571Y-10198933D01*
X4483666Y-10265600D01*
X4483666Y-10365600D01*
X4445571Y-10432266D01*
X4407476Y-10465600D01*
X4331285Y-10498933D01*
X4026523Y-10498933D01*
X4940809Y-10432266D02*
X4864619Y-10398933D01*
X4826523Y-10365600D01*
X4788428Y-10298933D01*
X4788428Y-10265600D01*
X4826523Y-10198933D01*
X4864619Y-10165600D01*
X4940809Y-10132266D01*
X5093190Y-10132266D01*
X5169380Y-10165600D01*
X5207476Y-10198933D01*
X5245571Y-10265600D01*
X5245571Y-10298933D01*
X5207476Y-10365600D01*
X5169380Y-10398933D01*
X5093190Y-10432266D01*
X4940809Y-10432266D01*
X4864619Y-10465600D01*
X4826523Y-10498933D01*
X4788428Y-10565600D01*
X4788428Y-10698933D01*
X4826523Y-10765600D01*
X4864619Y-10798933D01*
X4940809Y-10832266D01*
X5093190Y-10832266D01*
X5169380Y-10798933D01*
X5207476Y-10765600D01*
X5245571Y-10698933D01*
X5245571Y-10565600D01*
X5207476Y-10498933D01*
X5169380Y-10465600D01*
X5093190Y-10432266D01*
X4794266Y-7276266D02*
X4527600Y-6942933D01*
X4337123Y-7276266D02*
X4337123Y-6576266D01*
X4641885Y-6576266D01*
X4718076Y-6609600D01*
X4756171Y-6642933D01*
X4794266Y-6709600D01*
X4794266Y-6809600D01*
X4756171Y-6876266D01*
X4718076Y-6909600D01*
X4641885Y-6942933D01*
X4337123Y-6942933D01*
X5060933Y-6576266D02*
X5594266Y-6576266D01*
X5251409Y-7276266D01*
X-4832334Y2985334D02*
X-5099000Y3318667D01*
X-5289477Y2985334D02*
X-5289477Y3685334D01*
X-4984715Y3685334D01*
X-4908524Y3652000D01*
X-4870429Y3618667D01*
X-4832334Y3552000D01*
X-4832334Y3452000D01*
X-4870429Y3385334D01*
X-4908524Y3352000D01*
X-4984715Y3318667D01*
X-5289477Y3318667D01*
X-4527572Y3618667D02*
X-4489477Y3652000D01*
X-4413286Y3685334D01*
X-4222810Y3685334D01*
X-4146620Y3652000D01*
X-4108524Y3618667D01*
X-4070429Y3552000D01*
X-4070429Y3485334D01*
X-4108524Y3385334D01*
X-4565667Y2985334D01*
X-4070429Y2985334D01*
X-10270334Y2985334D02*
X-10537000Y3318667D01*
X-10727477Y2985334D02*
X-10727477Y3685334D01*
X-10422715Y3685334D01*
X-10346524Y3652000D01*
X-10308429Y3618667D01*
X-10270334Y3552000D01*
X-10270334Y3452000D01*
X-10308429Y3385334D01*
X-10346524Y3352000D01*
X-10422715Y3318667D01*
X-10727477Y3318667D01*
X-9508429Y2985334D02*
X-9965572Y2985334D01*
X-9737000Y2985334D02*
X-9737000Y3685334D01*
X-9813191Y3585334D01*
X-9889381Y3518667D01*
X-9965572Y3485334D01*
X13591666Y-46583523D02*
X14158333Y-46583523D01*
X14225000Y-46545428D01*
X14258333Y-46507333D01*
X14291666Y-46431142D01*
X14291666Y-46278761D01*
X14258333Y-46202571D01*
X14225000Y-46164476D01*
X14158333Y-46126380D01*
X13591666Y-46126380D01*
X13591666Y-45821619D02*
X13591666Y-45326380D01*
X13858333Y-45593047D01*
X13858333Y-45478761D01*
X13891666Y-45402571D01*
X13925000Y-45364476D01*
X13991666Y-45326380D01*
X14158333Y-45326380D01*
X14225000Y-45364476D01*
X14258333Y-45402571D01*
X14291666Y-45478761D01*
X14291666Y-45707333D01*
X14258333Y-45783523D01*
X14225000Y-45821619D01*
X-10883334Y-50409523D02*
X-10316667Y-50409523D01*
X-10250000Y-50371428D01*
X-10216667Y-50333333D01*
X-10183334Y-50257142D01*
X-10183334Y-50104761D01*
X-10216667Y-50028571D01*
X-10250000Y-49990476D01*
X-10316667Y-49952380D01*
X-10883334Y-49952380D01*
X-10816667Y-49609523D02*
X-10850000Y-49571428D01*
X-10883334Y-49495238D01*
X-10883334Y-49304761D01*
X-10850000Y-49228571D01*
X-10816667Y-49190476D01*
X-10750000Y-49152380D01*
X-10683334Y-49152380D01*
X-10583334Y-49190476D01*
X-10183334Y-49647619D01*
X-10183334Y-49152380D01*
X-15690477Y-47316666D02*
X-15690477Y-46616666D01*
X-15500000Y-46616666D01*
X-15385715Y-46650000D01*
X-15309524Y-46716666D01*
X-15271429Y-46783333D01*
X-15233334Y-46916666D01*
X-15233334Y-47016666D01*
X-15271429Y-47150000D01*
X-15309524Y-47216666D01*
X-15385715Y-47283333D01*
X-15500000Y-47316666D01*
X-15690477Y-47316666D01*
X-14547620Y-46616666D02*
X-14700000Y-46616666D01*
X-14776191Y-46650000D01*
X-14814286Y-46683333D01*
X-14890477Y-46783333D01*
X-14928572Y-46916666D01*
X-14928572Y-47183333D01*
X-14890477Y-47250000D01*
X-14852381Y-47283333D01*
X-14776191Y-47316666D01*
X-14623810Y-47316666D01*
X-14547620Y-47283333D01*
X-14509524Y-47250000D01*
X-14471429Y-47183333D01*
X-14471429Y-47016666D01*
X-14509524Y-46950000D01*
X-14547620Y-46916666D01*
X-14623810Y-46883333D01*
X-14776191Y-46883333D01*
X-14852381Y-46916666D01*
X-14890477Y-46950000D01*
X-14928572Y-47016666D01*
X12381666Y-12401476D02*
X11681666Y-12401476D01*
X11681666Y-12211000D01*
X11715000Y-12096714D01*
X11781666Y-12020523D01*
X11848333Y-11982428D01*
X11981666Y-11944333D01*
X12081666Y-11944333D01*
X12215000Y-11982428D01*
X12281666Y-12020523D01*
X12348333Y-12096714D01*
X12381666Y-12211000D01*
X12381666Y-12401476D01*
X11915000Y-11258619D02*
X12381666Y-11258619D01*
X11648333Y-11449095D02*
X12148333Y-11639571D01*
X12148333Y-11144333D01*
X944723Y-14824666D02*
X944723Y-14124666D01*
X1135200Y-14124666D01*
X1249485Y-14158000D01*
X1325676Y-14224666D01*
X1363771Y-14291333D01*
X1401866Y-14424666D01*
X1401866Y-14524666D01*
X1363771Y-14658000D01*
X1325676Y-14724666D01*
X1249485Y-14791333D01*
X1135200Y-14824666D01*
X944723Y-14824666D01*
X1668533Y-14124666D02*
X2163771Y-14124666D01*
X1897104Y-14391333D01*
X2011390Y-14391333D01*
X2087580Y-14424666D01*
X2125676Y-14458000D01*
X2163771Y-14524666D01*
X2163771Y-14691333D01*
X2125676Y-14758000D01*
X2087580Y-14791333D01*
X2011390Y-14824666D01*
X1782819Y-14824666D01*
X1706628Y-14791333D01*
X1668533Y-14758000D01*
X4177466Y-8910476D02*
X3477466Y-8910476D01*
X3477466Y-8720000D01*
X3510800Y-8605714D01*
X3577466Y-8529523D01*
X3644133Y-8491428D01*
X3777466Y-8453333D01*
X3877466Y-8453333D01*
X4010800Y-8491428D01*
X4077466Y-8529523D01*
X4144133Y-8605714D01*
X4177466Y-8720000D01*
X4177466Y-8910476D01*
X3544133Y-8148571D02*
X3510800Y-8110476D01*
X3477466Y-8034285D01*
X3477466Y-7843809D01*
X3510800Y-7767619D01*
X3544133Y-7729523D01*
X3610800Y-7691428D01*
X3677466Y-7691428D01*
X3777466Y-7729523D01*
X4177466Y-8186666D01*
X4177466Y-7691428D01*
X2417923Y-4958666D02*
X2417923Y-4258666D01*
X2608400Y-4258666D01*
X2722685Y-4292000D01*
X2798876Y-4358666D01*
X2836971Y-4425333D01*
X2875066Y-4558666D01*
X2875066Y-4658666D01*
X2836971Y-4792000D01*
X2798876Y-4858666D01*
X2722685Y-4925333D01*
X2608400Y-4958666D01*
X2417923Y-4958666D01*
X3636971Y-4958666D02*
X3179828Y-4958666D01*
X3408400Y-4958666D02*
X3408400Y-4258666D01*
X3332209Y-4358666D01*
X3256019Y-4425333D01*
X3179828Y-4458666D01*
X4314000Y-45726285D02*
X4347333Y-45764380D01*
X4380666Y-45878666D01*
X4380666Y-45954857D01*
X4347333Y-46069142D01*
X4280666Y-46145333D01*
X4214000Y-46183428D01*
X4080666Y-46221523D01*
X3980666Y-46221523D01*
X3847333Y-46183428D01*
X3780666Y-46145333D01*
X3714000Y-46069142D01*
X3680666Y-45954857D01*
X3680666Y-45878666D01*
X3714000Y-45764380D01*
X3747333Y-45726285D01*
X3747333Y-45421523D02*
X3714000Y-45383428D01*
X3680666Y-45307238D01*
X3680666Y-45116761D01*
X3714000Y-45040571D01*
X3747333Y-45002476D01*
X3814000Y-44964380D01*
X3880666Y-44964380D01*
X3980666Y-45002476D01*
X4380666Y-45459619D01*
X4380666Y-44964380D01*
X3747333Y-44659619D02*
X3714000Y-44621523D01*
X3680666Y-44545333D01*
X3680666Y-44354857D01*
X3714000Y-44278666D01*
X3747333Y-44240571D01*
X3814000Y-44202476D01*
X3880666Y-44202476D01*
X3980666Y-44240571D01*
X4380666Y-44697714D01*
X4380666Y-44202476D01*
X5965000Y-45726285D02*
X5998333Y-45764380D01*
X6031666Y-45878666D01*
X6031666Y-45954857D01*
X5998333Y-46069142D01*
X5931666Y-46145333D01*
X5865000Y-46183428D01*
X5731666Y-46221523D01*
X5631666Y-46221523D01*
X5498333Y-46183428D01*
X5431666Y-46145333D01*
X5365000Y-46069142D01*
X5331666Y-45954857D01*
X5331666Y-45878666D01*
X5365000Y-45764380D01*
X5398333Y-45726285D01*
X5398333Y-45421523D02*
X5365000Y-45383428D01*
X5331666Y-45307238D01*
X5331666Y-45116761D01*
X5365000Y-45040571D01*
X5398333Y-45002476D01*
X5465000Y-44964380D01*
X5531666Y-44964380D01*
X5631666Y-45002476D01*
X6031666Y-45459619D01*
X6031666Y-44964380D01*
X6031666Y-44202476D02*
X6031666Y-44659619D01*
X6031666Y-44431047D02*
X5331666Y-44431047D01*
X5431666Y-44507238D01*
X5498333Y-44583428D01*
X5531666Y-44659619D01*
X16010714Y-53225000D02*
X15972619Y-53258333D01*
X15858333Y-53291666D01*
X15782142Y-53291666D01*
X15667857Y-53258333D01*
X15591666Y-53191666D01*
X15553571Y-53125000D01*
X15515476Y-52991666D01*
X15515476Y-52891666D01*
X15553571Y-52758333D01*
X15591666Y-52691666D01*
X15667857Y-52625000D01*
X15782142Y-52591666D01*
X15858333Y-52591666D01*
X15972619Y-52625000D01*
X16010714Y-52658333D01*
X16315476Y-52658333D02*
X16353571Y-52625000D01*
X16429761Y-52591666D01*
X16620238Y-52591666D01*
X16696428Y-52625000D01*
X16734523Y-52658333D01*
X16772619Y-52725000D01*
X16772619Y-52791666D01*
X16734523Y-52891666D01*
X16277380Y-53291666D01*
X16772619Y-53291666D01*
X17267857Y-52591666D02*
X17344047Y-52591666D01*
X17420238Y-52625000D01*
X17458333Y-52658333D01*
X17496428Y-52725000D01*
X17534523Y-52858333D01*
X17534523Y-53025000D01*
X17496428Y-53158333D01*
X17458333Y-53225000D01*
X17420238Y-53258333D01*
X17344047Y-53291666D01*
X17267857Y-53291666D01*
X17191666Y-53258333D01*
X17153571Y-53225000D01*
X17115476Y-53158333D01*
X17077380Y-53025000D01*
X17077380Y-52858333D01*
X17115476Y-52725000D01*
X17153571Y-52658333D01*
X17191666Y-52625000D01*
X17267857Y-52591666D01*
X11000000Y-51414285D02*
X11033333Y-51452380D01*
X11066666Y-51566666D01*
X11066666Y-51642857D01*
X11033333Y-51757142D01*
X10966666Y-51833333D01*
X10900000Y-51871428D01*
X10766666Y-51909523D01*
X10666666Y-51909523D01*
X10533333Y-51871428D01*
X10466666Y-51833333D01*
X10400000Y-51757142D01*
X10366666Y-51642857D01*
X10366666Y-51566666D01*
X10400000Y-51452380D01*
X10433333Y-51414285D01*
X11066666Y-50652380D02*
X11066666Y-51109523D01*
X11066666Y-50880952D02*
X10366666Y-50880952D01*
X10466666Y-50957142D01*
X10533333Y-51033333D01*
X10566666Y-51109523D01*
X11066666Y-50271428D02*
X11066666Y-50119047D01*
X11033333Y-50042857D01*
X11000000Y-50004761D01*
X10900000Y-49928571D01*
X10766666Y-49890476D01*
X10500000Y-49890476D01*
X10433333Y-49928571D01*
X10400000Y-49966666D01*
X10366666Y-50042857D01*
X10366666Y-50195238D01*
X10400000Y-50271428D01*
X10433333Y-50309523D01*
X10500000Y-50347619D01*
X10666666Y-50347619D01*
X10733333Y-50309523D01*
X10766666Y-50271428D01*
X10800000Y-50195238D01*
X10800000Y-50042857D01*
X10766666Y-49966666D01*
X10733333Y-49928571D01*
X10666666Y-49890476D01*
X12750000Y-50739285D02*
X12783333Y-50777380D01*
X12816666Y-50891666D01*
X12816666Y-50967857D01*
X12783333Y-51082142D01*
X12716666Y-51158333D01*
X12650000Y-51196428D01*
X12516666Y-51234523D01*
X12416666Y-51234523D01*
X12283333Y-51196428D01*
X12216666Y-51158333D01*
X12150000Y-51082142D01*
X12116666Y-50967857D01*
X12116666Y-50891666D01*
X12150000Y-50777380D01*
X12183333Y-50739285D01*
X12816666Y-49977380D02*
X12816666Y-50434523D01*
X12816666Y-50205952D02*
X12116666Y-50205952D01*
X12216666Y-50282142D01*
X12283333Y-50358333D01*
X12316666Y-50434523D01*
X12416666Y-49520238D02*
X12383333Y-49596428D01*
X12350000Y-49634523D01*
X12283333Y-49672619D01*
X12250000Y-49672619D01*
X12183333Y-49634523D01*
X12150000Y-49596428D01*
X12116666Y-49520238D01*
X12116666Y-49367857D01*
X12150000Y-49291666D01*
X12183333Y-49253571D01*
X12250000Y-49215476D01*
X12283333Y-49215476D01*
X12350000Y-49253571D01*
X12383333Y-49291666D01*
X12416666Y-49367857D01*
X12416666Y-49520238D01*
X12450000Y-49596428D01*
X12483333Y-49634523D01*
X12550000Y-49672619D01*
X12683333Y-49672619D01*
X12750000Y-49634523D01*
X12783333Y-49596428D01*
X12816666Y-49520238D01*
X12816666Y-49367857D01*
X12783333Y-49291666D01*
X12750000Y-49253571D01*
X12683333Y-49215476D01*
X12550000Y-49215476D01*
X12483333Y-49253571D01*
X12450000Y-49291666D01*
X12416666Y-49367857D01*
X3651666Y-14170800D02*
X3613571Y-14204133D01*
X3499285Y-14237466D01*
X3423095Y-14237466D01*
X3308809Y-14204133D01*
X3232619Y-14137466D01*
X3194523Y-14070800D01*
X3156428Y-13937466D01*
X3156428Y-13837466D01*
X3194523Y-13704133D01*
X3232619Y-13637466D01*
X3308809Y-13570800D01*
X3423095Y-13537466D01*
X3499285Y-13537466D01*
X3613571Y-13570800D01*
X3651666Y-13604133D01*
X3918333Y-13537466D02*
X4413571Y-13537466D01*
X4146904Y-13804133D01*
X4261190Y-13804133D01*
X4337380Y-13837466D01*
X4375476Y-13870800D01*
X4413571Y-13937466D01*
X4413571Y-14104133D01*
X4375476Y-14170800D01*
X4337380Y-14204133D01*
X4261190Y-14237466D01*
X4032619Y-14237466D01*
X3956428Y-14204133D01*
X3918333Y-14170800D01*
X6458666Y-5752400D02*
X6420571Y-5785733D01*
X6306285Y-5819066D01*
X6230095Y-5819066D01*
X6115809Y-5785733D01*
X6039619Y-5719066D01*
X6001523Y-5652400D01*
X5963428Y-5519066D01*
X5963428Y-5419066D01*
X6001523Y-5285733D01*
X6039619Y-5219066D01*
X6115809Y-5152400D01*
X6230095Y-5119066D01*
X6306285Y-5119066D01*
X6420571Y-5152400D01*
X6458666Y-5185733D01*
X6763428Y-5185733D02*
X6801523Y-5152400D01*
X6877714Y-5119066D01*
X7068190Y-5119066D01*
X7144380Y-5152400D01*
X7182476Y-5185733D01*
X7220571Y-5252400D01*
X7220571Y-5319066D01*
X7182476Y-5419066D01*
X6725333Y-5819066D01*
X7220571Y-5819066D01*
X808800Y-5619733D02*
X842133Y-5657828D01*
X875466Y-5772114D01*
X875466Y-5848304D01*
X842133Y-5962590D01*
X775466Y-6038780D01*
X708800Y-6076876D01*
X575466Y-6114971D01*
X475466Y-6114971D01*
X342133Y-6076876D01*
X275466Y-6038780D01*
X208800Y-5962590D01*
X175466Y-5848304D01*
X175466Y-5772114D01*
X208800Y-5657828D01*
X242133Y-5619733D01*
X875466Y-4857828D02*
X875466Y-5314971D01*
X875466Y-5086400D02*
X175466Y-5086400D01*
X275466Y-5162590D01*
X342133Y-5238780D01*
X375466Y-5314971D01*
X15741666Y-39874000D02*
X15703571Y-39907333D01*
X15589285Y-39940666D01*
X15513095Y-39940666D01*
X15398809Y-39907333D01*
X15322619Y-39840666D01*
X15284523Y-39774000D01*
X15246428Y-39640666D01*
X15246428Y-39540666D01*
X15284523Y-39407333D01*
X15322619Y-39340666D01*
X15398809Y-39274000D01*
X15513095Y-39240666D01*
X15589285Y-39240666D01*
X15703571Y-39274000D01*
X15741666Y-39307333D01*
X16465476Y-39240666D02*
X16084523Y-39240666D01*
X16046428Y-39574000D01*
X16084523Y-39540666D01*
X16160714Y-39507333D01*
X16351190Y-39507333D01*
X16427380Y-39540666D01*
X16465476Y-39574000D01*
X16503571Y-39640666D01*
X16503571Y-39807333D01*
X16465476Y-39874000D01*
X16427380Y-39907333D01*
X16351190Y-39940666D01*
X16160714Y-39940666D01*
X16084523Y-39907333D01*
X16046428Y-39874000D01*
X-6229334Y-23872000D02*
X-6267429Y-23905333D01*
X-6381715Y-23938666D01*
X-6457905Y-23938666D01*
X-6572191Y-23905333D01*
X-6648381Y-23838666D01*
X-6686477Y-23772000D01*
X-6724572Y-23638666D01*
X-6724572Y-23538666D01*
X-6686477Y-23405333D01*
X-6648381Y-23338666D01*
X-6572191Y-23272000D01*
X-6457905Y-23238666D01*
X-6381715Y-23238666D01*
X-6267429Y-23272000D01*
X-6229334Y-23305333D01*
X-5962667Y-23238666D02*
X-5429334Y-23238666D01*
X-5772191Y-23938666D01*
X7311200Y-18014933D02*
X7344533Y-18053028D01*
X7377866Y-18167314D01*
X7377866Y-18243504D01*
X7344533Y-18357790D01*
X7277866Y-18433980D01*
X7211200Y-18472076D01*
X7077866Y-18510171D01*
X6977866Y-18510171D01*
X6844533Y-18472076D01*
X6777866Y-18433980D01*
X6711200Y-18357790D01*
X6677866Y-18243504D01*
X6677866Y-18167314D01*
X6711200Y-18053028D01*
X6744533Y-18014933D01*
X6977866Y-17557790D02*
X6944533Y-17633980D01*
X6911200Y-17672076D01*
X6844533Y-17710171D01*
X6811200Y-17710171D01*
X6744533Y-17672076D01*
X6711200Y-17633980D01*
X6677866Y-17557790D01*
X6677866Y-17405409D01*
X6711200Y-17329219D01*
X6744533Y-17291123D01*
X6811200Y-17253028D01*
X6844533Y-17253028D01*
X6911200Y-17291123D01*
X6944533Y-17329219D01*
X6977866Y-17405409D01*
X6977866Y-17557790D01*
X7011200Y-17633980D01*
X7044533Y-17672076D01*
X7111200Y-17710171D01*
X7244533Y-17710171D01*
X7311200Y-17672076D01*
X7344533Y-17633980D01*
X7377866Y-17557790D01*
X7377866Y-17405409D01*
X7344533Y-17329219D01*
X7311200Y-17291123D01*
X7244533Y-17253028D01*
X7111200Y-17253028D01*
X7044533Y-17291123D01*
X7011200Y-17329219D01*
X6977866Y-17405409D01*
X18154714Y-22221000D02*
X18116619Y-22254333D01*
X18002333Y-22287666D01*
X17926142Y-22287666D01*
X17811857Y-22254333D01*
X17735666Y-22187666D01*
X17697571Y-22121000D01*
X17659476Y-21987666D01*
X17659476Y-21887666D01*
X17697571Y-21754333D01*
X17735666Y-21687666D01*
X17811857Y-21621000D01*
X17926142Y-21587666D01*
X18002333Y-21587666D01*
X18116619Y-21621000D01*
X18154714Y-21654333D01*
X18916619Y-22287666D02*
X18459476Y-22287666D01*
X18688047Y-22287666D02*
X18688047Y-21587666D01*
X18611857Y-21687666D01*
X18535666Y-21754333D01*
X18459476Y-21787666D01*
X19411857Y-21587666D02*
X19488047Y-21587666D01*
X19564238Y-21621000D01*
X19602333Y-21654333D01*
X19640428Y-21721000D01*
X19678523Y-21854333D01*
X19678523Y-22021000D01*
X19640428Y-22154333D01*
X19602333Y-22221000D01*
X19564238Y-22254333D01*
X19488047Y-22287666D01*
X19411857Y-22287666D01*
X19335666Y-22254333D01*
X19297571Y-22221000D01*
X19259476Y-22154333D01*
X19221380Y-22021000D01*
X19221380Y-21854333D01*
X19259476Y-21721000D01*
X19297571Y-21654333D01*
X19335666Y-21621000D01*
X19411857Y-21587666D01*
X6343714Y-38223000D02*
X6305619Y-38256333D01*
X6191333Y-38289666D01*
X6115142Y-38289666D01*
X6000857Y-38256333D01*
X5924666Y-38189666D01*
X5886571Y-38123000D01*
X5848476Y-37989666D01*
X5848476Y-37889666D01*
X5886571Y-37756333D01*
X5924666Y-37689666D01*
X6000857Y-37623000D01*
X6115142Y-37589666D01*
X6191333Y-37589666D01*
X6305619Y-37623000D01*
X6343714Y-37656333D01*
X7105619Y-38289666D02*
X6648476Y-38289666D01*
X6877047Y-38289666D02*
X6877047Y-37589666D01*
X6800857Y-37689666D01*
X6724666Y-37756333D01*
X6648476Y-37789666D01*
X7867523Y-38289666D02*
X7410380Y-38289666D01*
X7638952Y-38289666D02*
X7638952Y-37589666D01*
X7562761Y-37689666D01*
X7486571Y-37756333D01*
X7410380Y-37789666D01*
X12058714Y-13331000D02*
X12020619Y-13364333D01*
X11906333Y-13397666D01*
X11830142Y-13397666D01*
X11715857Y-13364333D01*
X11639666Y-13297666D01*
X11601571Y-13231000D01*
X11563476Y-13097666D01*
X11563476Y-12997666D01*
X11601571Y-12864333D01*
X11639666Y-12797666D01*
X11715857Y-12731000D01*
X11830142Y-12697666D01*
X11906333Y-12697666D01*
X12020619Y-12731000D01*
X12058714Y-12764333D01*
X12820619Y-13397666D02*
X12363476Y-13397666D01*
X12592047Y-13397666D02*
X12592047Y-12697666D01*
X12515857Y-12797666D01*
X12439666Y-12864333D01*
X12363476Y-12897666D01*
X13125380Y-12764333D02*
X13163476Y-12731000D01*
X13239666Y-12697666D01*
X13430142Y-12697666D01*
X13506333Y-12731000D01*
X13544428Y-12764333D01*
X13582523Y-12831000D01*
X13582523Y-12897666D01*
X13544428Y-12997666D01*
X13087285Y-13397666D01*
X13582523Y-13397666D01*
X6597714Y-19808000D02*
X6559619Y-19841333D01*
X6445333Y-19874666D01*
X6369142Y-19874666D01*
X6254857Y-19841333D01*
X6178666Y-19774666D01*
X6140571Y-19708000D01*
X6102476Y-19574666D01*
X6102476Y-19474666D01*
X6140571Y-19341333D01*
X6178666Y-19274666D01*
X6254857Y-19208000D01*
X6369142Y-19174666D01*
X6445333Y-19174666D01*
X6559619Y-19208000D01*
X6597714Y-19241333D01*
X7359619Y-19874666D02*
X6902476Y-19874666D01*
X7131047Y-19874666D02*
X7131047Y-19174666D01*
X7054857Y-19274666D01*
X6978666Y-19341333D01*
X6902476Y-19374666D01*
X8045333Y-19408000D02*
X8045333Y-19874666D01*
X7854857Y-19141333D02*
X7664380Y-19641333D01*
X8159619Y-19641333D01*
X5759523Y-56537666D02*
X5759523Y-55837666D01*
X5950000Y-55837666D01*
X6064285Y-55871000D01*
X6140476Y-55937666D01*
X6178571Y-56004333D01*
X6216666Y-56137666D01*
X6216666Y-56237666D01*
X6178571Y-56371000D01*
X6140476Y-56437666D01*
X6064285Y-56504333D01*
X5950000Y-56537666D01*
X5759523Y-56537666D01*
X6940476Y-55837666D02*
X6559523Y-55837666D01*
X6521428Y-56171000D01*
X6559523Y-56137666D01*
X6635714Y-56104333D01*
X6826190Y-56104333D01*
X6902380Y-56137666D01*
X6940476Y-56171000D01*
X6978571Y-56237666D01*
X6978571Y-56404333D01*
X6940476Y-56471000D01*
X6902380Y-56504333D01*
X6826190Y-56537666D01*
X6635714Y-56537666D01*
X6559523Y-56504333D01*
X6521428Y-56471000D01*
X10337809Y-7408333D02*
X10261619Y-7375000D01*
X10185428Y-7308333D01*
X10071142Y-7208333D01*
X9994952Y-7175000D01*
X9918761Y-7175000D01*
X9956857Y-7341666D02*
X9880666Y-7308333D01*
X9804476Y-7241666D01*
X9766380Y-7108333D01*
X9766380Y-6875000D01*
X9804476Y-6741666D01*
X9880666Y-6675000D01*
X9956857Y-6641666D01*
X10109238Y-6641666D01*
X10185428Y-6675000D01*
X10261619Y-6741666D01*
X10299714Y-6875000D01*
X10299714Y-7108333D01*
X10261619Y-7241666D01*
X10185428Y-7308333D01*
X10109238Y-7341666D01*
X9956857Y-7341666D01*
X11061619Y-7341666D02*
X10604476Y-7341666D01*
X10833047Y-7341666D02*
X10833047Y-6641666D01*
X10756857Y-6741666D01*
X10680666Y-6808333D01*
X10604476Y-6841666D01*
X-1434334Y-24644333D02*
X-1767667Y-24911000D01*
X-1434334Y-25101476D02*
X-2134334Y-25101476D01*
X-2134334Y-24796714D01*
X-2101000Y-24720523D01*
X-2067667Y-24682428D01*
X-2001000Y-24644333D01*
X-1901000Y-24644333D01*
X-1834334Y-24682428D01*
X-1801000Y-24720523D01*
X-1767667Y-24796714D01*
X-1767667Y-25101476D01*
X-2134334Y-24377666D02*
X-2134334Y-23882428D01*
X-1867667Y-24149095D01*
X-1867667Y-24034809D01*
X-1834334Y-23958619D01*
X-1801000Y-23920523D01*
X-1734334Y-23882428D01*
X-1567667Y-23882428D01*
X-1501000Y-23920523D01*
X-1467667Y-23958619D01*
X-1434334Y-24034809D01*
X-1434334Y-24263380D01*
X-1467667Y-24339571D01*
X-1501000Y-24377666D01*
X7181866Y-16267866D02*
X6915200Y-15934533D01*
X6724723Y-16267866D02*
X6724723Y-15567866D01*
X7029485Y-15567866D01*
X7105676Y-15601200D01*
X7143771Y-15634533D01*
X7181866Y-15701200D01*
X7181866Y-15801200D01*
X7143771Y-15867866D01*
X7105676Y-15901200D01*
X7029485Y-15934533D01*
X6724723Y-15934533D01*
X7867580Y-15801200D02*
X7867580Y-16267866D01*
X7677104Y-15534533D02*
X7486628Y-16034533D01*
X7981866Y-16034533D01*
X11273714Y-54191666D02*
X11007047Y-53858333D01*
X10816571Y-54191666D02*
X10816571Y-53491666D01*
X11121333Y-53491666D01*
X11197523Y-53525000D01*
X11235619Y-53558333D01*
X11273714Y-53625000D01*
X11273714Y-53725000D01*
X11235619Y-53791666D01*
X11197523Y-53825000D01*
X11121333Y-53858333D01*
X10816571Y-53858333D01*
X12035619Y-54191666D02*
X11578476Y-54191666D01*
X11807047Y-54191666D02*
X11807047Y-53491666D01*
X11730857Y-53591666D01*
X11654666Y-53658333D01*
X11578476Y-53691666D01*
X12721333Y-53725000D02*
X12721333Y-54191666D01*
X12530857Y-53458333D02*
X12340380Y-53958333D01*
X12835619Y-53958333D01*
X-509524Y-22316666D02*
X-52381Y-22316666D01*
X-280953Y-23016666D02*
X-280953Y-22316666D01*
X214285Y-23016666D02*
X214285Y-22316666D01*
X519047Y-22316666D01*
X595238Y-22350000D01*
X633333Y-22383333D01*
X671428Y-22450000D01*
X671428Y-22550000D01*
X633333Y-22616666D01*
X595238Y-22650000D01*
X519047Y-22683333D01*
X214285Y-22683333D01*
X1433333Y-23016666D02*
X976190Y-23016666D01*
X1204761Y-23016666D02*
X1204761Y-22316666D01*
X1128571Y-22416666D01*
X1052380Y-22483333D01*
X976190Y-22516666D01*
X133476Y-3426666D02*
X590619Y-3426666D01*
X362047Y-4126666D02*
X362047Y-3426666D01*
X857285Y-4126666D02*
X857285Y-3426666D01*
X1162047Y-3426666D01*
X1238238Y-3460000D01*
X1276333Y-3493333D01*
X1314428Y-3560000D01*
X1314428Y-3660000D01*
X1276333Y-3726666D01*
X1238238Y-3760000D01*
X1162047Y-3793333D01*
X857285Y-3793333D01*
X1581095Y-3426666D02*
X2076333Y-3426666D01*
X1809666Y-3693333D01*
X1923952Y-3693333D01*
X2000142Y-3726666D01*
X2038238Y-3760000D01*
X2076333Y-3826666D01*
X2076333Y-3993333D01*
X2038238Y-4060000D01*
X2000142Y-4093333D01*
X1923952Y-4126666D01*
X1695380Y-4126666D01*
X1619190Y-4093333D01*
X1581095Y-4060000D01*
X1775666Y-49015523D02*
X1775666Y-48558380D01*
X2475666Y-48786952D02*
X1775666Y-48786952D01*
X2475666Y-48291714D02*
X1775666Y-48291714D01*
X1775666Y-47986952D01*
X1809000Y-47910761D01*
X1842333Y-47872666D01*
X1909000Y-47834571D01*
X2009000Y-47834571D01*
X2075666Y-47872666D01*
X2109000Y-47910761D01*
X2142333Y-47986952D01*
X2142333Y-48291714D01*
X2009000Y-47148857D02*
X2475666Y-47148857D01*
X1742333Y-47339333D02*
X2242333Y-47529809D01*
X2242333Y-47034571D01*
X3149676Y-19885866D02*
X3149676Y-20452533D01*
X3187771Y-20519200D01*
X3225866Y-20552533D01*
X3302057Y-20585866D01*
X3454438Y-20585866D01*
X3530628Y-20552533D01*
X3568723Y-20519200D01*
X3606819Y-20452533D01*
X3606819Y-19885866D01*
X4406819Y-20585866D02*
X3949676Y-20585866D01*
X4178247Y-20585866D02*
X4178247Y-19885866D01*
X4102057Y-19985866D01*
X4025866Y-20052533D01*
X3949676Y-20085866D01*
X203276Y-17447466D02*
X203276Y-18014133D01*
X241371Y-18080800D01*
X279466Y-18114133D01*
X355657Y-18147466D01*
X508038Y-18147466D01*
X584228Y-18114133D01*
X622323Y-18080800D01*
X660419Y-18014133D01*
X660419Y-17447466D01*
X1422323Y-17447466D02*
X1041371Y-17447466D01*
X1003276Y-17780800D01*
X1041371Y-17747466D01*
X1117561Y-17714133D01*
X1308038Y-17714133D01*
X1384228Y-17747466D01*
X1422323Y-17780800D01*
X1460419Y-17847466D01*
X1460419Y-18014133D01*
X1422323Y-18080800D01*
X1384228Y-18114133D01*
X1308038Y-18147466D01*
X1117561Y-18147466D01*
X1041371Y-18114133D01*
X1003276Y-18080800D01*
M02*
