G04 #@! TF.GenerationSoftware,KiCad,Pcbnew,(5.1.5)-3*
G04 #@! TF.CreationDate,2020-06-30T19:55:35+10:00*
G04 #@! TF.ProjectId,cicada-2g,63696361-6461-42d3-9267-2e6b69636164,0.1*
G04 #@! TF.SameCoordinates,PX7cee6c0PY3dfd240*
G04 #@! TF.FileFunction,Soldermask,Bot*
G04 #@! TF.FilePolarity,Negative*
%FSLAX46Y46*%
G04 Gerber Fmt 4.6, Leading zero omitted, Abs format (unit mm)*
G04 Created by KiCad (PCBNEW (5.1.5)-3) date 2020-06-30 19:55:35*
%MOMM*%
%LPD*%
G04 APERTURE LIST*
%ADD10C,0.100000*%
G04 APERTURE END LIST*
D10*
G36*
X17802144Y-54355680D02*
G01*
X18302612Y-54562981D01*
X18753022Y-54863935D01*
X19136065Y-55246978D01*
X19437019Y-55697388D01*
X19644320Y-56197856D01*
X19750000Y-56729147D01*
X19750000Y-57270853D01*
X19644320Y-57802144D01*
X19437019Y-58302612D01*
X19136065Y-58753022D01*
X18753022Y-59136065D01*
X18302612Y-59437019D01*
X17802144Y-59644320D01*
X17270853Y-59750000D01*
X16729147Y-59750000D01*
X16197856Y-59644320D01*
X15697388Y-59437019D01*
X15246978Y-59136065D01*
X14863935Y-58753022D01*
X14562981Y-58302612D01*
X14355680Y-57802144D01*
X14250000Y-57270853D01*
X14250000Y-56729147D01*
X14355680Y-56197856D01*
X14562981Y-55697388D01*
X14863935Y-55246978D01*
X15246978Y-54863935D01*
X15697388Y-54562981D01*
X16197856Y-54355680D01*
X16729147Y-54250000D01*
X17270853Y-54250000D01*
X17802144Y-54355680D01*
G37*
G36*
X-16197856Y-54355680D02*
G01*
X-15697388Y-54562981D01*
X-15246978Y-54863935D01*
X-14863935Y-55246978D01*
X-14562981Y-55697388D01*
X-14355680Y-56197856D01*
X-14250000Y-56729147D01*
X-14250000Y-57270853D01*
X-14355680Y-57802144D01*
X-14562981Y-58302612D01*
X-14863935Y-58753022D01*
X-15246978Y-59136065D01*
X-15697388Y-59437019D01*
X-16197856Y-59644320D01*
X-16729147Y-59750000D01*
X-17270853Y-59750000D01*
X-17802144Y-59644320D01*
X-18302612Y-59437019D01*
X-18753022Y-59136065D01*
X-19136065Y-58753022D01*
X-19437019Y-58302612D01*
X-19644320Y-57802144D01*
X-19750000Y-57270853D01*
X-19750000Y-56729147D01*
X-19644320Y-56197856D01*
X-19437019Y-55697388D01*
X-19136065Y-55246978D01*
X-18753022Y-54863935D01*
X-18302612Y-54562981D01*
X-17802144Y-54355680D01*
X-17270853Y-54250000D01*
X-16729147Y-54250000D01*
X-16197856Y-54355680D01*
G37*
G36*
X11077290Y-56585619D02*
G01*
X11141689Y-56598429D01*
X11323678Y-56673811D01*
X11487463Y-56783249D01*
X11626751Y-56922537D01*
X11736189Y-57086322D01*
X11811571Y-57268311D01*
X11821747Y-57319469D01*
X11850000Y-57461507D01*
X11850000Y-57658493D01*
X11824381Y-57787290D01*
X11811571Y-57851689D01*
X11736189Y-58033678D01*
X11626751Y-58197463D01*
X11487463Y-58336751D01*
X11323678Y-58446189D01*
X11141689Y-58521571D01*
X11077290Y-58534381D01*
X10948493Y-58560000D01*
X10751507Y-58560000D01*
X10622710Y-58534381D01*
X10558311Y-58521571D01*
X10376322Y-58446189D01*
X10212537Y-58336751D01*
X10073249Y-58197463D01*
X9963811Y-58033678D01*
X9888429Y-57851689D01*
X9875619Y-57787290D01*
X9850000Y-57658493D01*
X9850000Y-57461507D01*
X9878253Y-57319469D01*
X9888429Y-57268311D01*
X9963811Y-57086322D01*
X10073249Y-56922537D01*
X10212537Y-56783249D01*
X10376322Y-56673811D01*
X10558311Y-56598429D01*
X10622710Y-56585619D01*
X10751507Y-56560000D01*
X10948493Y-56560000D01*
X11077290Y-56585619D01*
G37*
G36*
X-3531020Y-55762473D02*
G01*
X-3368532Y-55811763D01*
X-3368529Y-55811764D01*
X-3218782Y-55891805D01*
X-3087525Y-55999525D01*
X-2979805Y-56130782D01*
X-2899764Y-56280529D01*
X-2850473Y-56443020D01*
X-2838951Y-56560000D01*
X-2838000Y-56569661D01*
X-2838000Y-57030338D01*
X-2850473Y-57156981D01*
X-2884245Y-57268312D01*
X-2899764Y-57319472D01*
X-2979805Y-57469218D01*
X-3087525Y-57600475D01*
X-3218782Y-57708195D01*
X-3368529Y-57788236D01*
X-3368531Y-57788237D01*
X-3531019Y-57837527D01*
X-3700000Y-57854170D01*
X-3868980Y-57837527D01*
X-4031468Y-57788237D01*
X-4031470Y-57788236D01*
X-4181217Y-57708195D01*
X-4312474Y-57600475D01*
X-4420195Y-57469217D01*
X-4500236Y-57319471D01*
X-4515755Y-57268311D01*
X-4549527Y-57156981D01*
X-4562000Y-57030339D01*
X-4562000Y-56569662D01*
X-4561048Y-56560000D01*
X-4549527Y-56443021D01*
X-4549526Y-56443019D01*
X-4500237Y-56280532D01*
X-4500236Y-56280529D01*
X-4420195Y-56130782D01*
X-4312475Y-55999525D01*
X-4181218Y-55891805D01*
X-4031471Y-55811764D01*
X-4031469Y-55811763D01*
X-3868981Y-55762473D01*
X-3700000Y-55745830D01*
X-3531020Y-55762473D01*
G37*
G36*
X-10731020Y-55762473D02*
G01*
X-10568532Y-55811763D01*
X-10568529Y-55811764D01*
X-10418782Y-55891805D01*
X-10287525Y-55999525D01*
X-10179805Y-56130782D01*
X-10099764Y-56280529D01*
X-10050473Y-56443020D01*
X-10038951Y-56560000D01*
X-10038000Y-56569661D01*
X-10038000Y-57030338D01*
X-10050473Y-57156981D01*
X-10084245Y-57268312D01*
X-10099764Y-57319472D01*
X-10179805Y-57469218D01*
X-10287525Y-57600475D01*
X-10418782Y-57708195D01*
X-10568529Y-57788236D01*
X-10568531Y-57788237D01*
X-10731019Y-57837527D01*
X-10900000Y-57854170D01*
X-11068980Y-57837527D01*
X-11231468Y-57788237D01*
X-11231470Y-57788236D01*
X-11381217Y-57708195D01*
X-11512474Y-57600475D01*
X-11620195Y-57469217D01*
X-11700236Y-57319471D01*
X-11715755Y-57268311D01*
X-11749527Y-57156981D01*
X-11762000Y-57030339D01*
X-11762000Y-56569662D01*
X-11761048Y-56560000D01*
X-11749527Y-56443021D01*
X-11749526Y-56443019D01*
X-11700237Y-56280532D01*
X-11700236Y-56280529D01*
X-11620195Y-56130782D01*
X-11512475Y-55999525D01*
X-11381218Y-55891805D01*
X-11231471Y-55811764D01*
X-11231469Y-55811763D01*
X-11068981Y-55762473D01*
X-10900000Y-55745830D01*
X-10731020Y-55762473D01*
G37*
G36*
X-4752480Y-53184043D02*
G01*
X-4634667Y-53219781D01*
X-4526090Y-53277817D01*
X-4430920Y-53355920D01*
X-4352817Y-53451089D01*
X-4294781Y-53559666D01*
X-4259043Y-53677479D01*
X-4250000Y-53769296D01*
X-4250000Y-54030703D01*
X-4259043Y-54122520D01*
X-4294781Y-54240333D01*
X-4352817Y-54348911D01*
X-4430920Y-54444080D01*
X-4526089Y-54522183D01*
X-4634666Y-54580219D01*
X-4752479Y-54615957D01*
X-4875000Y-54628024D01*
X-4997520Y-54615957D01*
X-5115333Y-54580219D01*
X-5223910Y-54522183D01*
X-5319079Y-54444080D01*
X-5397182Y-54348911D01*
X-5455219Y-54240334D01*
X-5490957Y-54122521D01*
X-5500000Y-54030704D01*
X-5500000Y-53769297D01*
X-5490957Y-53677480D01*
X-5455219Y-53559667D01*
X-5397183Y-53451090D01*
X-5319080Y-53355920D01*
X-5223911Y-53277817D01*
X-5115334Y-53219781D01*
X-4997521Y-53184043D01*
X-4875000Y-53171976D01*
X-4752480Y-53184043D01*
G37*
G36*
X-9602480Y-53184043D02*
G01*
X-9484667Y-53219781D01*
X-9376090Y-53277817D01*
X-9280920Y-53355920D01*
X-9202817Y-53451089D01*
X-9144781Y-53559666D01*
X-9109043Y-53677479D01*
X-9100000Y-53769296D01*
X-9100000Y-54030703D01*
X-9109043Y-54122520D01*
X-9144781Y-54240333D01*
X-9202817Y-54348911D01*
X-9280920Y-54444080D01*
X-9376089Y-54522183D01*
X-9484666Y-54580219D01*
X-9602479Y-54615957D01*
X-9725000Y-54628024D01*
X-9847520Y-54615957D01*
X-9965333Y-54580219D01*
X-10073910Y-54522183D01*
X-10169079Y-54444080D01*
X-10247182Y-54348911D01*
X-10305219Y-54240334D01*
X-10340957Y-54122521D01*
X-10350000Y-54030704D01*
X-10350000Y-53769297D01*
X-10340957Y-53677480D01*
X-10305219Y-53559667D01*
X-10247183Y-53451090D01*
X-10169080Y-53355920D01*
X-10073911Y-53277817D01*
X-9965334Y-53219781D01*
X-9847521Y-53184043D01*
X-9725000Y-53171976D01*
X-9602480Y-53184043D01*
G37*
G36*
X-14592710Y-47905619D02*
G01*
X-14528311Y-47918429D01*
X-14346322Y-47993811D01*
X-14182537Y-48103249D01*
X-14043249Y-48242537D01*
X-13933811Y-48406322D01*
X-13858429Y-48588311D01*
X-13820000Y-48781509D01*
X-13820000Y-48978491D01*
X-13858429Y-49171689D01*
X-13933811Y-49353678D01*
X-14043249Y-49517463D01*
X-14182537Y-49656751D01*
X-14346322Y-49766189D01*
X-14528311Y-49841571D01*
X-14592710Y-49854381D01*
X-14721507Y-49880000D01*
X-14918493Y-49880000D01*
X-15047290Y-49854381D01*
X-15111689Y-49841571D01*
X-15293678Y-49766189D01*
X-15457463Y-49656751D01*
X-15596751Y-49517463D01*
X-15706189Y-49353678D01*
X-15781571Y-49171689D01*
X-15820000Y-48978491D01*
X-15820000Y-48781509D01*
X-15781571Y-48588311D01*
X-15706189Y-48406322D01*
X-15596751Y-48242537D01*
X-15457463Y-48103249D01*
X-15293678Y-47993811D01*
X-15111689Y-47918429D01*
X-15047290Y-47905619D01*
X-14918493Y-47880000D01*
X-14721507Y-47880000D01*
X-14592710Y-47905619D01*
G37*
G36*
X-290000Y-45690000D02*
G01*
X-2490000Y-45690000D01*
X-2490000Y-44640000D01*
X-290000Y-44640000D01*
X-290000Y-45690000D01*
G37*
G36*
X-2390000Y-44190000D02*
G01*
X-3390000Y-44190000D01*
X-3390000Y-43190000D01*
X-2390000Y-43190000D01*
X-2390000Y-44190000D01*
G37*
G36*
X610000Y-44190000D02*
G01*
X-390000Y-44190000D01*
X-390000Y-43190000D01*
X610000Y-43190000D01*
X610000Y-44190000D01*
G37*
G36*
X-290000Y-42740000D02*
G01*
X-2490000Y-42740000D01*
X-2490000Y-41690000D01*
X-290000Y-41690000D01*
X-290000Y-42740000D01*
G37*
G36*
X14005351Y-33901743D02*
G01*
X14150941Y-33962048D01*
X14281970Y-34049599D01*
X14393401Y-34161030D01*
X14480952Y-34292059D01*
X14541257Y-34437649D01*
X14572000Y-34592206D01*
X14572000Y-34749794D01*
X14541257Y-34904351D01*
X14480952Y-35049941D01*
X14393401Y-35180970D01*
X14281970Y-35292401D01*
X14150941Y-35379952D01*
X14005351Y-35440257D01*
X13850794Y-35471000D01*
X13693206Y-35471000D01*
X13538649Y-35440257D01*
X13393059Y-35379952D01*
X13262030Y-35292401D01*
X13150599Y-35180970D01*
X13063048Y-35049941D01*
X13002743Y-34904351D01*
X12972000Y-34749794D01*
X12972000Y-34592206D01*
X13002743Y-34437649D01*
X13063048Y-34292059D01*
X13150599Y-34161030D01*
X13262030Y-34049599D01*
X13393059Y-33962048D01*
X13538649Y-33901743D01*
X13693206Y-33871000D01*
X13850794Y-33871000D01*
X14005351Y-33901743D01*
G37*
G36*
X18072000Y-35471000D02*
G01*
X16472000Y-35471000D01*
X16472000Y-33871000D01*
X18072000Y-33871000D01*
X18072000Y-35471000D01*
G37*
G36*
X5623351Y-32250743D02*
G01*
X5768941Y-32311048D01*
X5899970Y-32398599D01*
X6011401Y-32510030D01*
X6098952Y-32641059D01*
X6159257Y-32786649D01*
X6190000Y-32941206D01*
X6190000Y-33098794D01*
X6159257Y-33253351D01*
X6098952Y-33398941D01*
X6011401Y-33529970D01*
X5899970Y-33641401D01*
X5768941Y-33728952D01*
X5623351Y-33789257D01*
X5468794Y-33820000D01*
X5311206Y-33820000D01*
X5156649Y-33789257D01*
X5011059Y-33728952D01*
X4880030Y-33641401D01*
X4768599Y-33529970D01*
X4681048Y-33398941D01*
X4620743Y-33253351D01*
X4590000Y-33098794D01*
X4590000Y-32941206D01*
X4620743Y-32786649D01*
X4681048Y-32641059D01*
X4768599Y-32510030D01*
X4880030Y-32398599D01*
X5011059Y-32311048D01*
X5156649Y-32250743D01*
X5311206Y-32220000D01*
X5468794Y-32220000D01*
X5623351Y-32250743D01*
G37*
G36*
X9690000Y-33820000D02*
G01*
X8090000Y-33820000D01*
X8090000Y-32220000D01*
X9690000Y-32220000D01*
X9690000Y-33820000D01*
G37*
G36*
X-13250000Y-28240000D02*
G01*
X-19750000Y-28240000D01*
X-19750000Y-40000D01*
X-13250000Y-40000D01*
X-13250000Y-28240000D01*
G37*
G36*
X18072000Y-26962000D02*
G01*
X16472000Y-26962000D01*
X16472000Y-25362000D01*
X18072000Y-25362000D01*
X18072000Y-26962000D01*
G37*
G36*
X14005351Y-25392743D02*
G01*
X14150941Y-25453048D01*
X14281970Y-25540599D01*
X14393401Y-25652030D01*
X14480952Y-25783059D01*
X14541257Y-25928649D01*
X14572000Y-26083206D01*
X14572000Y-26240794D01*
X14541257Y-26395351D01*
X14480952Y-26540941D01*
X14393401Y-26671970D01*
X14281970Y-26783401D01*
X14150941Y-26870952D01*
X14005351Y-26931257D01*
X13850794Y-26962000D01*
X13693206Y-26962000D01*
X13538649Y-26931257D01*
X13393059Y-26870952D01*
X13262030Y-26783401D01*
X13150599Y-26671970D01*
X13063048Y-26540941D01*
X13002743Y-26395351D01*
X12972000Y-26240794D01*
X12972000Y-26083206D01*
X13002743Y-25928649D01*
X13063048Y-25783059D01*
X13150599Y-25652030D01*
X13262030Y-25540599D01*
X13393059Y-25453048D01*
X13538649Y-25392743D01*
X13693206Y-25362000D01*
X13850794Y-25362000D01*
X14005351Y-25392743D01*
G37*
G36*
X9690000Y-25311000D02*
G01*
X8090000Y-25311000D01*
X8090000Y-23711000D01*
X9690000Y-23711000D01*
X9690000Y-25311000D01*
G37*
G36*
X5623351Y-23741743D02*
G01*
X5768941Y-23802048D01*
X5899970Y-23889599D01*
X6011401Y-24001030D01*
X6098952Y-24132059D01*
X6159257Y-24277649D01*
X6190000Y-24432206D01*
X6190000Y-24589794D01*
X6159257Y-24744351D01*
X6098952Y-24889941D01*
X6011401Y-25020970D01*
X5899970Y-25132401D01*
X5768941Y-25219952D01*
X5623351Y-25280257D01*
X5468794Y-25311000D01*
X5311206Y-25311000D01*
X5156649Y-25280257D01*
X5011059Y-25219952D01*
X4880030Y-25132401D01*
X4768599Y-25020970D01*
X4681048Y-24889941D01*
X4620743Y-24744351D01*
X4590000Y-24589794D01*
X4590000Y-24432206D01*
X4620743Y-24277649D01*
X4681048Y-24132059D01*
X4768599Y-24001030D01*
X4880030Y-23889599D01*
X5011059Y-23802048D01*
X5156649Y-23741743D01*
X5311206Y-23711000D01*
X5468794Y-23711000D01*
X5623351Y-23741743D01*
G37*
G36*
X11338351Y-17137743D02*
G01*
X11483941Y-17198048D01*
X11614970Y-17285599D01*
X11726401Y-17397030D01*
X11813952Y-17528059D01*
X11874257Y-17673649D01*
X11905000Y-17828206D01*
X11905000Y-17985794D01*
X11874257Y-18140351D01*
X11813952Y-18285941D01*
X11726401Y-18416970D01*
X11614970Y-18528401D01*
X11483941Y-18615952D01*
X11338351Y-18676257D01*
X11183794Y-18707000D01*
X11026206Y-18707000D01*
X10871649Y-18676257D01*
X10726059Y-18615952D01*
X10595030Y-18528401D01*
X10483599Y-18416970D01*
X10396048Y-18285941D01*
X10335743Y-18140351D01*
X10305000Y-17985794D01*
X10305000Y-17828206D01*
X10335743Y-17673649D01*
X10396048Y-17528059D01*
X10483599Y-17397030D01*
X10595030Y-17285599D01*
X10726059Y-17198048D01*
X10871649Y-17137743D01*
X11026206Y-17107000D01*
X11183794Y-17107000D01*
X11338351Y-17137743D01*
G37*
G36*
X15405000Y-18707000D02*
G01*
X13805000Y-18707000D01*
X13805000Y-17107000D01*
X15405000Y-17107000D01*
X15405000Y-18707000D01*
G37*
G36*
X1517935Y-452664D02*
G01*
X1672624Y-516739D01*
X1672626Y-516740D01*
X1811844Y-609762D01*
X1930238Y-728156D01*
X2023260Y-867374D01*
X2023261Y-867376D01*
X2087336Y-1022065D01*
X2120000Y-1186281D01*
X2120000Y-1353719D01*
X2087336Y-1517935D01*
X2023261Y-1672624D01*
X2023260Y-1672626D01*
X1930238Y-1811844D01*
X1811844Y-1930238D01*
X1672626Y-2023260D01*
X1672625Y-2023261D01*
X1672624Y-2023261D01*
X1517935Y-2087336D01*
X1353719Y-2120000D01*
X1186281Y-2120000D01*
X1022065Y-2087336D01*
X867376Y-2023261D01*
X867375Y-2023261D01*
X867374Y-2023260D01*
X728156Y-1930238D01*
X609762Y-1811844D01*
X516740Y-1672626D01*
X516739Y-1672624D01*
X452664Y-1517935D01*
X420000Y-1353719D01*
X420000Y-1186281D01*
X452664Y-1022065D01*
X516739Y-867376D01*
X516740Y-867374D01*
X609762Y-728156D01*
X728156Y-609762D01*
X867374Y-516740D01*
X867376Y-516739D01*
X1022065Y-452664D01*
X1186281Y-420000D01*
X1353719Y-420000D01*
X1517935Y-452664D01*
G37*
G36*
X11677935Y-452664D02*
G01*
X11832624Y-516739D01*
X11832626Y-516740D01*
X11971844Y-609762D01*
X12090238Y-728156D01*
X12183260Y-867374D01*
X12183261Y-867376D01*
X12247336Y-1022065D01*
X12280000Y-1186281D01*
X12280000Y-1353719D01*
X12247336Y-1517935D01*
X12183261Y-1672624D01*
X12183260Y-1672626D01*
X12090238Y-1811844D01*
X11971844Y-1930238D01*
X11832626Y-2023260D01*
X11832625Y-2023261D01*
X11832624Y-2023261D01*
X11677935Y-2087336D01*
X11513719Y-2120000D01*
X11346281Y-2120000D01*
X11182065Y-2087336D01*
X11027376Y-2023261D01*
X11027375Y-2023261D01*
X11027374Y-2023260D01*
X10888156Y-1930238D01*
X10769762Y-1811844D01*
X10676740Y-1672626D01*
X10676739Y-1672624D01*
X10612664Y-1517935D01*
X10580000Y-1353719D01*
X10580000Y-1186281D01*
X10612664Y-1022065D01*
X10676739Y-867376D01*
X10676740Y-867374D01*
X10769762Y-728156D01*
X10888156Y-609762D01*
X11027374Y-516740D01*
X11027376Y-516739D01*
X11182065Y-452664D01*
X11346281Y-420000D01*
X11513719Y-420000D01*
X11677935Y-452664D01*
G37*
G36*
X9137935Y-452664D02*
G01*
X9292624Y-516739D01*
X9292626Y-516740D01*
X9431844Y-609762D01*
X9550238Y-728156D01*
X9643260Y-867374D01*
X9643261Y-867376D01*
X9707336Y-1022065D01*
X9740000Y-1186281D01*
X9740000Y-1353719D01*
X9707336Y-1517935D01*
X9643261Y-1672624D01*
X9643260Y-1672626D01*
X9550238Y-1811844D01*
X9431844Y-1930238D01*
X9292626Y-2023260D01*
X9292625Y-2023261D01*
X9292624Y-2023261D01*
X9137935Y-2087336D01*
X8973719Y-2120000D01*
X8806281Y-2120000D01*
X8642065Y-2087336D01*
X8487376Y-2023261D01*
X8487375Y-2023261D01*
X8487374Y-2023260D01*
X8348156Y-1930238D01*
X8229762Y-1811844D01*
X8136740Y-1672626D01*
X8136739Y-1672624D01*
X8072664Y-1517935D01*
X8040000Y-1353719D01*
X8040000Y-1186281D01*
X8072664Y-1022065D01*
X8136739Y-867376D01*
X8136740Y-867374D01*
X8229762Y-728156D01*
X8348156Y-609762D01*
X8487374Y-516740D01*
X8487376Y-516739D01*
X8642065Y-452664D01*
X8806281Y-420000D01*
X8973719Y-420000D01*
X9137935Y-452664D01*
G37*
G36*
X6597935Y-452664D02*
G01*
X6752624Y-516739D01*
X6752626Y-516740D01*
X6891844Y-609762D01*
X7010238Y-728156D01*
X7103260Y-867374D01*
X7103261Y-867376D01*
X7167336Y-1022065D01*
X7200000Y-1186281D01*
X7200000Y-1353719D01*
X7167336Y-1517935D01*
X7103261Y-1672624D01*
X7103260Y-1672626D01*
X7010238Y-1811844D01*
X6891844Y-1930238D01*
X6752626Y-2023260D01*
X6752625Y-2023261D01*
X6752624Y-2023261D01*
X6597935Y-2087336D01*
X6433719Y-2120000D01*
X6266281Y-2120000D01*
X6102065Y-2087336D01*
X5947376Y-2023261D01*
X5947375Y-2023261D01*
X5947374Y-2023260D01*
X5808156Y-1930238D01*
X5689762Y-1811844D01*
X5596740Y-1672626D01*
X5596739Y-1672624D01*
X5532664Y-1517935D01*
X5500000Y-1353719D01*
X5500000Y-1186281D01*
X5532664Y-1022065D01*
X5596739Y-867376D01*
X5596740Y-867374D01*
X5689762Y-728156D01*
X5808156Y-609762D01*
X5947374Y-516740D01*
X5947376Y-516739D01*
X6102065Y-452664D01*
X6266281Y-420000D01*
X6433719Y-420000D01*
X6597935Y-452664D01*
G37*
G36*
X4057935Y-452664D02*
G01*
X4212624Y-516739D01*
X4212626Y-516740D01*
X4351844Y-609762D01*
X4470238Y-728156D01*
X4563260Y-867374D01*
X4563261Y-867376D01*
X4627336Y-1022065D01*
X4660000Y-1186281D01*
X4660000Y-1353719D01*
X4627336Y-1517935D01*
X4563261Y-1672624D01*
X4563260Y-1672626D01*
X4470238Y-1811844D01*
X4351844Y-1930238D01*
X4212626Y-2023260D01*
X4212625Y-2023261D01*
X4212624Y-2023261D01*
X4057935Y-2087336D01*
X3893719Y-2120000D01*
X3726281Y-2120000D01*
X3562065Y-2087336D01*
X3407376Y-2023261D01*
X3407375Y-2023261D01*
X3407374Y-2023260D01*
X3268156Y-1930238D01*
X3149762Y-1811844D01*
X3056740Y-1672626D01*
X3056739Y-1672624D01*
X2992664Y-1517935D01*
X2960000Y-1353719D01*
X2960000Y-1186281D01*
X2992664Y-1022065D01*
X3056739Y-867376D01*
X3056740Y-867374D01*
X3149762Y-728156D01*
X3268156Y-609762D01*
X3407374Y-516740D01*
X3407376Y-516739D01*
X3562065Y-452664D01*
X3726281Y-420000D01*
X3893719Y-420000D01*
X4057935Y-452664D01*
G37*
G36*
X-10580000Y-2120000D02*
G01*
X-12280000Y-2120000D01*
X-12280000Y-420000D01*
X-10580000Y-420000D01*
X-10580000Y-2120000D01*
G37*
G36*
X-8642065Y-452664D02*
G01*
X-8487376Y-516739D01*
X-8487374Y-516740D01*
X-8348156Y-609762D01*
X-8229762Y-728156D01*
X-8136740Y-867374D01*
X-8136739Y-867376D01*
X-8072664Y-1022065D01*
X-8040000Y-1186281D01*
X-8040000Y-1353719D01*
X-8072664Y-1517935D01*
X-8136739Y-1672624D01*
X-8136740Y-1672626D01*
X-8229762Y-1811844D01*
X-8348156Y-1930238D01*
X-8487374Y-2023260D01*
X-8487375Y-2023261D01*
X-8487376Y-2023261D01*
X-8642065Y-2087336D01*
X-8806281Y-2120000D01*
X-8973719Y-2120000D01*
X-9137935Y-2087336D01*
X-9292624Y-2023261D01*
X-9292625Y-2023261D01*
X-9292626Y-2023260D01*
X-9431844Y-1930238D01*
X-9550238Y-1811844D01*
X-9643260Y-1672626D01*
X-9643261Y-1672624D01*
X-9707336Y-1517935D01*
X-9740000Y-1353719D01*
X-9740000Y-1186281D01*
X-9707336Y-1022065D01*
X-9643261Y-867376D01*
X-9643260Y-867374D01*
X-9550238Y-728156D01*
X-9431844Y-609762D01*
X-9292626Y-516740D01*
X-9292624Y-516739D01*
X-9137935Y-452664D01*
X-8973719Y-420000D01*
X-8806281Y-420000D01*
X-8642065Y-452664D01*
G37*
G36*
X-6102065Y-452664D02*
G01*
X-5947376Y-516739D01*
X-5947374Y-516740D01*
X-5808156Y-609762D01*
X-5689762Y-728156D01*
X-5596740Y-867374D01*
X-5596739Y-867376D01*
X-5532664Y-1022065D01*
X-5500000Y-1186281D01*
X-5500000Y-1353719D01*
X-5532664Y-1517935D01*
X-5596739Y-1672624D01*
X-5596740Y-1672626D01*
X-5689762Y-1811844D01*
X-5808156Y-1930238D01*
X-5947374Y-2023260D01*
X-5947375Y-2023261D01*
X-5947376Y-2023261D01*
X-6102065Y-2087336D01*
X-6266281Y-2120000D01*
X-6433719Y-2120000D01*
X-6597935Y-2087336D01*
X-6752624Y-2023261D01*
X-6752625Y-2023261D01*
X-6752626Y-2023260D01*
X-6891844Y-1930238D01*
X-7010238Y-1811844D01*
X-7103260Y-1672626D01*
X-7103261Y-1672624D01*
X-7167336Y-1517935D01*
X-7200000Y-1353719D01*
X-7200000Y-1186281D01*
X-7167336Y-1022065D01*
X-7103261Y-867376D01*
X-7103260Y-867374D01*
X-7010238Y-728156D01*
X-6891844Y-609762D01*
X-6752626Y-516740D01*
X-6752624Y-516739D01*
X-6597935Y-452664D01*
X-6433719Y-420000D01*
X-6266281Y-420000D01*
X-6102065Y-452664D01*
G37*
G36*
X-3562065Y-452664D02*
G01*
X-3407376Y-516739D01*
X-3407374Y-516740D01*
X-3268156Y-609762D01*
X-3149762Y-728156D01*
X-3056740Y-867374D01*
X-3056739Y-867376D01*
X-2992664Y-1022065D01*
X-2960000Y-1186281D01*
X-2960000Y-1353719D01*
X-2992664Y-1517935D01*
X-3056739Y-1672624D01*
X-3056740Y-1672626D01*
X-3149762Y-1811844D01*
X-3268156Y-1930238D01*
X-3407374Y-2023260D01*
X-3407375Y-2023261D01*
X-3407376Y-2023261D01*
X-3562065Y-2087336D01*
X-3726281Y-2120000D01*
X-3893719Y-2120000D01*
X-4057935Y-2087336D01*
X-4212624Y-2023261D01*
X-4212625Y-2023261D01*
X-4212626Y-2023260D01*
X-4351844Y-1930238D01*
X-4470238Y-1811844D01*
X-4563260Y-1672626D01*
X-4563261Y-1672624D01*
X-4627336Y-1517935D01*
X-4660000Y-1353719D01*
X-4660000Y-1186281D01*
X-4627336Y-1022065D01*
X-4563261Y-867376D01*
X-4563260Y-867374D01*
X-4470238Y-728156D01*
X-4351844Y-609762D01*
X-4212626Y-516740D01*
X-4212624Y-516739D01*
X-4057935Y-452664D01*
X-3893719Y-420000D01*
X-3726281Y-420000D01*
X-3562065Y-452664D01*
G37*
G36*
X-1022065Y-452664D02*
G01*
X-867376Y-516739D01*
X-867374Y-516740D01*
X-728156Y-609762D01*
X-609762Y-728156D01*
X-516740Y-867374D01*
X-516739Y-867376D01*
X-452664Y-1022065D01*
X-420000Y-1186281D01*
X-420000Y-1353719D01*
X-452664Y-1517935D01*
X-516739Y-1672624D01*
X-516740Y-1672626D01*
X-609762Y-1811844D01*
X-728156Y-1930238D01*
X-867374Y-2023260D01*
X-867375Y-2023261D01*
X-867376Y-2023261D01*
X-1022065Y-2087336D01*
X-1186281Y-2120000D01*
X-1353719Y-2120000D01*
X-1517935Y-2087336D01*
X-1672624Y-2023261D01*
X-1672625Y-2023261D01*
X-1672626Y-2023260D01*
X-1811844Y-1930238D01*
X-1930238Y-1811844D01*
X-2023260Y-1672626D01*
X-2023261Y-1672624D01*
X-2087336Y-1517935D01*
X-2120000Y-1353719D01*
X-2120000Y-1186281D01*
X-2087336Y-1022065D01*
X-2023261Y-867376D01*
X-2023260Y-867374D01*
X-1930238Y-728156D01*
X-1811844Y-609762D01*
X-1672626Y-516740D01*
X-1672624Y-516739D01*
X-1517935Y-452664D01*
X-1353719Y-420000D01*
X-1186281Y-420000D01*
X-1022065Y-452664D01*
G37*
G36*
X1517935Y2087336D02*
G01*
X1660432Y2028311D01*
X1672626Y2023260D01*
X1811844Y1930238D01*
X1930238Y1811844D01*
X2023260Y1672626D01*
X2023261Y1672624D01*
X2087336Y1517935D01*
X2120000Y1353719D01*
X2120000Y1186281D01*
X2087336Y1022065D01*
X2023261Y867376D01*
X2023260Y867374D01*
X1930238Y728156D01*
X1811844Y609762D01*
X1672626Y516740D01*
X1672625Y516739D01*
X1672624Y516739D01*
X1517935Y452664D01*
X1353719Y420000D01*
X1186281Y420000D01*
X1022065Y452664D01*
X867376Y516739D01*
X867375Y516739D01*
X867374Y516740D01*
X728156Y609762D01*
X609762Y728156D01*
X516740Y867374D01*
X516739Y867376D01*
X452664Y1022065D01*
X420000Y1186281D01*
X420000Y1353719D01*
X452664Y1517935D01*
X516739Y1672624D01*
X516740Y1672626D01*
X609762Y1811844D01*
X728156Y1930238D01*
X867374Y2023260D01*
X879568Y2028311D01*
X1022065Y2087336D01*
X1186281Y2120000D01*
X1353719Y2120000D01*
X1517935Y2087336D01*
G37*
G36*
X11677935Y2087336D02*
G01*
X11820432Y2028311D01*
X11832626Y2023260D01*
X11971844Y1930238D01*
X12090238Y1811844D01*
X12183260Y1672626D01*
X12183261Y1672624D01*
X12247336Y1517935D01*
X12280000Y1353719D01*
X12280000Y1186281D01*
X12247336Y1022065D01*
X12183261Y867376D01*
X12183260Y867374D01*
X12090238Y728156D01*
X11971844Y609762D01*
X11832626Y516740D01*
X11832625Y516739D01*
X11832624Y516739D01*
X11677935Y452664D01*
X11513719Y420000D01*
X11346281Y420000D01*
X11182065Y452664D01*
X11027376Y516739D01*
X11027375Y516739D01*
X11027374Y516740D01*
X10888156Y609762D01*
X10769762Y728156D01*
X10676740Y867374D01*
X10676739Y867376D01*
X10612664Y1022065D01*
X10580000Y1186281D01*
X10580000Y1353719D01*
X10612664Y1517935D01*
X10676739Y1672624D01*
X10676740Y1672626D01*
X10769762Y1811844D01*
X10888156Y1930238D01*
X11027374Y2023260D01*
X11039568Y2028311D01*
X11182065Y2087336D01*
X11346281Y2120000D01*
X11513719Y2120000D01*
X11677935Y2087336D01*
G37*
G36*
X-11182065Y2087336D02*
G01*
X-11039568Y2028311D01*
X-11027374Y2023260D01*
X-10888156Y1930238D01*
X-10769762Y1811844D01*
X-10676740Y1672626D01*
X-10676739Y1672624D01*
X-10612664Y1517935D01*
X-10580000Y1353719D01*
X-10580000Y1186281D01*
X-10612664Y1022065D01*
X-10676739Y867376D01*
X-10676740Y867374D01*
X-10769762Y728156D01*
X-10888156Y609762D01*
X-11027374Y516740D01*
X-11027375Y516739D01*
X-11027376Y516739D01*
X-11182065Y452664D01*
X-11346281Y420000D01*
X-11513719Y420000D01*
X-11677935Y452664D01*
X-11832624Y516739D01*
X-11832625Y516739D01*
X-11832626Y516740D01*
X-11971844Y609762D01*
X-12090238Y728156D01*
X-12183260Y867374D01*
X-12183261Y867376D01*
X-12247336Y1022065D01*
X-12280000Y1186281D01*
X-12280000Y1353719D01*
X-12247336Y1517935D01*
X-12183261Y1672624D01*
X-12183260Y1672626D01*
X-12090238Y1811844D01*
X-11971844Y1930238D01*
X-11832626Y2023260D01*
X-11820432Y2028311D01*
X-11677935Y2087336D01*
X-11513719Y2120000D01*
X-11346281Y2120000D01*
X-11182065Y2087336D01*
G37*
G36*
X-8642065Y2087336D02*
G01*
X-8499568Y2028311D01*
X-8487374Y2023260D01*
X-8348156Y1930238D01*
X-8229762Y1811844D01*
X-8136740Y1672626D01*
X-8136739Y1672624D01*
X-8072664Y1517935D01*
X-8040000Y1353719D01*
X-8040000Y1186281D01*
X-8072664Y1022065D01*
X-8136739Y867376D01*
X-8136740Y867374D01*
X-8229762Y728156D01*
X-8348156Y609762D01*
X-8487374Y516740D01*
X-8487375Y516739D01*
X-8487376Y516739D01*
X-8642065Y452664D01*
X-8806281Y420000D01*
X-8973719Y420000D01*
X-9137935Y452664D01*
X-9292624Y516739D01*
X-9292625Y516739D01*
X-9292626Y516740D01*
X-9431844Y609762D01*
X-9550238Y728156D01*
X-9643260Y867374D01*
X-9643261Y867376D01*
X-9707336Y1022065D01*
X-9740000Y1186281D01*
X-9740000Y1353719D01*
X-9707336Y1517935D01*
X-9643261Y1672624D01*
X-9643260Y1672626D01*
X-9550238Y1811844D01*
X-9431844Y1930238D01*
X-9292626Y2023260D01*
X-9280432Y2028311D01*
X-9137935Y2087336D01*
X-8973719Y2120000D01*
X-8806281Y2120000D01*
X-8642065Y2087336D01*
G37*
G36*
X-6102065Y2087336D02*
G01*
X-5959568Y2028311D01*
X-5947374Y2023260D01*
X-5808156Y1930238D01*
X-5689762Y1811844D01*
X-5596740Y1672626D01*
X-5596739Y1672624D01*
X-5532664Y1517935D01*
X-5500000Y1353719D01*
X-5500000Y1186281D01*
X-5532664Y1022065D01*
X-5596739Y867376D01*
X-5596740Y867374D01*
X-5689762Y728156D01*
X-5808156Y609762D01*
X-5947374Y516740D01*
X-5947375Y516739D01*
X-5947376Y516739D01*
X-6102065Y452664D01*
X-6266281Y420000D01*
X-6433719Y420000D01*
X-6597935Y452664D01*
X-6752624Y516739D01*
X-6752625Y516739D01*
X-6752626Y516740D01*
X-6891844Y609762D01*
X-7010238Y728156D01*
X-7103260Y867374D01*
X-7103261Y867376D01*
X-7167336Y1022065D01*
X-7200000Y1186281D01*
X-7200000Y1353719D01*
X-7167336Y1517935D01*
X-7103261Y1672624D01*
X-7103260Y1672626D01*
X-7010238Y1811844D01*
X-6891844Y1930238D01*
X-6752626Y2023260D01*
X-6740432Y2028311D01*
X-6597935Y2087336D01*
X-6433719Y2120000D01*
X-6266281Y2120000D01*
X-6102065Y2087336D01*
G37*
G36*
X-3562065Y2087336D02*
G01*
X-3419568Y2028311D01*
X-3407374Y2023260D01*
X-3268156Y1930238D01*
X-3149762Y1811844D01*
X-3056740Y1672626D01*
X-3056739Y1672624D01*
X-2992664Y1517935D01*
X-2960000Y1353719D01*
X-2960000Y1186281D01*
X-2992664Y1022065D01*
X-3056739Y867376D01*
X-3056740Y867374D01*
X-3149762Y728156D01*
X-3268156Y609762D01*
X-3407374Y516740D01*
X-3407375Y516739D01*
X-3407376Y516739D01*
X-3562065Y452664D01*
X-3726281Y420000D01*
X-3893719Y420000D01*
X-4057935Y452664D01*
X-4212624Y516739D01*
X-4212625Y516739D01*
X-4212626Y516740D01*
X-4351844Y609762D01*
X-4470238Y728156D01*
X-4563260Y867374D01*
X-4563261Y867376D01*
X-4627336Y1022065D01*
X-4660000Y1186281D01*
X-4660000Y1353719D01*
X-4627336Y1517935D01*
X-4563261Y1672624D01*
X-4563260Y1672626D01*
X-4470238Y1811844D01*
X-4351844Y1930238D01*
X-4212626Y2023260D01*
X-4200432Y2028311D01*
X-4057935Y2087336D01*
X-3893719Y2120000D01*
X-3726281Y2120000D01*
X-3562065Y2087336D01*
G37*
G36*
X-1022065Y2087336D02*
G01*
X-879568Y2028311D01*
X-867374Y2023260D01*
X-728156Y1930238D01*
X-609762Y1811844D01*
X-516740Y1672626D01*
X-516739Y1672624D01*
X-452664Y1517935D01*
X-420000Y1353719D01*
X-420000Y1186281D01*
X-452664Y1022065D01*
X-516739Y867376D01*
X-516740Y867374D01*
X-609762Y728156D01*
X-728156Y609762D01*
X-867374Y516740D01*
X-867375Y516739D01*
X-867376Y516739D01*
X-1022065Y452664D01*
X-1186281Y420000D01*
X-1353719Y420000D01*
X-1517935Y452664D01*
X-1672624Y516739D01*
X-1672625Y516739D01*
X-1672626Y516740D01*
X-1811844Y609762D01*
X-1930238Y728156D01*
X-2023260Y867374D01*
X-2023261Y867376D01*
X-2087336Y1022065D01*
X-2120000Y1186281D01*
X-2120000Y1353719D01*
X-2087336Y1517935D01*
X-2023261Y1672624D01*
X-2023260Y1672626D01*
X-1930238Y1811844D01*
X-1811844Y1930238D01*
X-1672626Y2023260D01*
X-1660432Y2028311D01*
X-1517935Y2087336D01*
X-1353719Y2120000D01*
X-1186281Y2120000D01*
X-1022065Y2087336D01*
G37*
G36*
X4057935Y2087336D02*
G01*
X4200432Y2028311D01*
X4212626Y2023260D01*
X4351844Y1930238D01*
X4470238Y1811844D01*
X4563260Y1672626D01*
X4563261Y1672624D01*
X4627336Y1517935D01*
X4660000Y1353719D01*
X4660000Y1186281D01*
X4627336Y1022065D01*
X4563261Y867376D01*
X4563260Y867374D01*
X4470238Y728156D01*
X4351844Y609762D01*
X4212626Y516740D01*
X4212625Y516739D01*
X4212624Y516739D01*
X4057935Y452664D01*
X3893719Y420000D01*
X3726281Y420000D01*
X3562065Y452664D01*
X3407376Y516739D01*
X3407375Y516739D01*
X3407374Y516740D01*
X3268156Y609762D01*
X3149762Y728156D01*
X3056740Y867374D01*
X3056739Y867376D01*
X2992664Y1022065D01*
X2960000Y1186281D01*
X2960000Y1353719D01*
X2992664Y1517935D01*
X3056739Y1672624D01*
X3056740Y1672626D01*
X3149762Y1811844D01*
X3268156Y1930238D01*
X3407374Y2023260D01*
X3419568Y2028311D01*
X3562065Y2087336D01*
X3726281Y2120000D01*
X3893719Y2120000D01*
X4057935Y2087336D01*
G37*
G36*
X6597935Y2087336D02*
G01*
X6740432Y2028311D01*
X6752626Y2023260D01*
X6891844Y1930238D01*
X7010238Y1811844D01*
X7103260Y1672626D01*
X7103261Y1672624D01*
X7167336Y1517935D01*
X7200000Y1353719D01*
X7200000Y1186281D01*
X7167336Y1022065D01*
X7103261Y867376D01*
X7103260Y867374D01*
X7010238Y728156D01*
X6891844Y609762D01*
X6752626Y516740D01*
X6752625Y516739D01*
X6752624Y516739D01*
X6597935Y452664D01*
X6433719Y420000D01*
X6266281Y420000D01*
X6102065Y452664D01*
X5947376Y516739D01*
X5947375Y516739D01*
X5947374Y516740D01*
X5808156Y609762D01*
X5689762Y728156D01*
X5596740Y867374D01*
X5596739Y867376D01*
X5532664Y1022065D01*
X5500000Y1186281D01*
X5500000Y1353719D01*
X5532664Y1517935D01*
X5596739Y1672624D01*
X5596740Y1672626D01*
X5689762Y1811844D01*
X5808156Y1930238D01*
X5947374Y2023260D01*
X5959568Y2028311D01*
X6102065Y2087336D01*
X6266281Y2120000D01*
X6433719Y2120000D01*
X6597935Y2087336D01*
G37*
G36*
X9137935Y2087336D02*
G01*
X9280432Y2028311D01*
X9292626Y2023260D01*
X9431844Y1930238D01*
X9550238Y1811844D01*
X9643260Y1672626D01*
X9643261Y1672624D01*
X9707336Y1517935D01*
X9740000Y1353719D01*
X9740000Y1186281D01*
X9707336Y1022065D01*
X9643261Y867376D01*
X9643260Y867374D01*
X9550238Y728156D01*
X9431844Y609762D01*
X9292626Y516740D01*
X9292625Y516739D01*
X9292624Y516739D01*
X9137935Y452664D01*
X8973719Y420000D01*
X8806281Y420000D01*
X8642065Y452664D01*
X8487376Y516739D01*
X8487375Y516739D01*
X8487374Y516740D01*
X8348156Y609762D01*
X8229762Y728156D01*
X8136740Y867374D01*
X8136739Y867376D01*
X8072664Y1022065D01*
X8040000Y1186281D01*
X8040000Y1353719D01*
X8072664Y1517935D01*
X8136739Y1672624D01*
X8136740Y1672626D01*
X8229762Y1811844D01*
X8348156Y1930238D01*
X8487374Y2023260D01*
X8499568Y2028311D01*
X8642065Y2087336D01*
X8806281Y2120000D01*
X8973719Y2120000D01*
X9137935Y2087336D01*
G37*
G36*
X-15892710Y3294381D02*
G01*
X-15828311Y3281571D01*
X-15646322Y3206189D01*
X-15482537Y3096751D01*
X-15343249Y2957463D01*
X-15233811Y2793678D01*
X-15158429Y2611689D01*
X-15120000Y2418491D01*
X-15120000Y2221509D01*
X-15158429Y2028311D01*
X-15233811Y1846322D01*
X-15343249Y1682537D01*
X-15482537Y1543249D01*
X-15646322Y1433811D01*
X-15828311Y1358429D01*
X-15892710Y1345619D01*
X-16021507Y1320000D01*
X-16218493Y1320000D01*
X-16347290Y1345619D01*
X-16411689Y1358429D01*
X-16593678Y1433811D01*
X-16757463Y1543249D01*
X-16896751Y1682537D01*
X-17006189Y1846322D01*
X-17081571Y2028311D01*
X-17120000Y2221509D01*
X-17120000Y2418491D01*
X-17081571Y2611689D01*
X-17006189Y2793678D01*
X-16896751Y2957463D01*
X-16757463Y3096751D01*
X-16593678Y3206189D01*
X-16411689Y3281571D01*
X-16347290Y3294381D01*
X-16218493Y3320000D01*
X-16021507Y3320000D01*
X-15892710Y3294381D01*
G37*
M02*
