G04 #@! TF.GenerationSoftware,KiCad,Pcbnew,(5.1.5)-3*
G04 #@! TF.CreationDate,2020-06-30T19:55:35+10:00*
G04 #@! TF.ProjectId,cicada-2g,63696361-6461-42d3-9267-2e6b69636164,0.1*
G04 #@! TF.SameCoordinates,PX7cee6c0PY3dfd240*
G04 #@! TF.FileFunction,Copper,L2,Bot*
G04 #@! TF.FilePolarity,Positive*
%FSLAX46Y46*%
G04 Gerber Fmt 4.6, Leading zero omitted, Abs format (unit mm)*
G04 Created by KiCad (PCBNEW (5.1.5)-3) date 2020-06-30 19:55:35*
%MOMM*%
%LPD*%
G04 APERTURE LIST*
%ADD10C,0.010000*%
%ADD11C,1.000000*%
%ADD12O,1.050000X1.250000*%
%ADD13O,1.524000X1.900000*%
%ADD14O,1.700000X1.700000*%
%ADD15R,1.700000X1.700000*%
%ADD16R,2.200000X1.050000*%
%ADD17R,1.000000X1.000000*%
%ADD18C,5.500000*%
%ADD19C,1.600000*%
%ADD20R,1.600000X1.600000*%
%ADD21C,0.800000*%
%ADD22C,0.250000*%
%ADD23C,1.200000*%
%ADD24C,0.200000*%
G04 APERTURE END LIST*
D10*
G36*
X-13760667Y-24809740D02*
G01*
X-13797443Y-24740853D01*
X-13876009Y-24619009D01*
X-13989257Y-24453774D01*
X-14130077Y-24254716D01*
X-14291361Y-24031400D01*
X-14465999Y-23793394D01*
X-14646884Y-23550265D01*
X-14826906Y-23311580D01*
X-14998958Y-23086905D01*
X-15155929Y-22885808D01*
X-15290711Y-22717855D01*
X-15396197Y-22592613D01*
X-15455523Y-22528811D01*
X-15537772Y-22451571D01*
X-15613489Y-22392836D01*
X-15692082Y-22353234D01*
X-15782960Y-22333394D01*
X-15895531Y-22333944D01*
X-16039204Y-22355513D01*
X-16223388Y-22398730D01*
X-16457489Y-22464223D01*
X-16750919Y-22552621D01*
X-17010289Y-22632688D01*
X-17431782Y-22763197D01*
X-17784196Y-22872602D01*
X-18074146Y-22963689D01*
X-18308248Y-23039244D01*
X-18493116Y-23102051D01*
X-18635367Y-23154897D01*
X-18741617Y-23200567D01*
X-18818479Y-23241847D01*
X-18872570Y-23281521D01*
X-18910505Y-23322377D01*
X-18938901Y-23367200D01*
X-18964371Y-23418774D01*
X-18986051Y-23464631D01*
X-19008022Y-23513667D01*
X-19025642Y-23566292D01*
X-19039390Y-23631409D01*
X-19049742Y-23717919D01*
X-19057178Y-23834723D01*
X-19062173Y-23990724D01*
X-19065207Y-24194821D01*
X-19066757Y-24455918D01*
X-19067300Y-24782916D01*
X-19067343Y-24979390D01*
X-19067132Y-25343294D01*
X-19066194Y-25636721D01*
X-19064039Y-25868566D01*
X-19060181Y-26047728D01*
X-19054131Y-26183103D01*
X-19045402Y-26283588D01*
X-19033506Y-26358080D01*
X-19017955Y-26415476D01*
X-18998261Y-26464672D01*
X-18984301Y-26493858D01*
X-18901503Y-26622922D01*
X-18787225Y-26725075D01*
X-18625732Y-26810954D01*
X-18401292Y-26891198D01*
X-18392687Y-26893855D01*
X-18287154Y-26926406D01*
X-18118374Y-26978568D01*
X-17898913Y-27046451D01*
X-17744997Y-27094087D01*
X-17744997Y-26369618D01*
X-17943944Y-26324027D01*
X-18116549Y-26205756D01*
X-18131044Y-26191085D01*
X-18247473Y-26020557D01*
X-18288067Y-25830075D01*
X-18252983Y-25617822D01*
X-18192480Y-25472875D01*
X-18055285Y-25275324D01*
X-17877724Y-25145501D01*
X-17665053Y-25084980D01*
X-17665053Y-24955439D01*
X-17818503Y-24948608D01*
X-17850306Y-24942297D01*
X-18002932Y-24868180D01*
X-18145468Y-24736861D01*
X-18261583Y-24570268D01*
X-18334951Y-24390328D01*
X-18352128Y-24268405D01*
X-18335246Y-24154344D01*
X-18293001Y-24029173D01*
X-18288575Y-24019576D01*
X-18171788Y-23857835D01*
X-18009649Y-23750957D01*
X-17816279Y-23701235D01*
X-17605798Y-23710962D01*
X-17392324Y-23782431D01*
X-17270916Y-23854326D01*
X-17141419Y-23986145D01*
X-17051305Y-24175796D01*
X-17004711Y-24374793D01*
X-16983751Y-24563181D01*
X-16996823Y-24694306D01*
X-17049175Y-24784877D01*
X-17146056Y-24851602D01*
X-17155997Y-24856463D01*
X-17299672Y-24905148D01*
X-17480733Y-24939546D01*
X-17665053Y-24955439D01*
X-17665053Y-25084980D01*
X-17661915Y-25084086D01*
X-17409974Y-25091760D01*
X-17182218Y-25148635D01*
X-16983781Y-25214907D01*
X-16985809Y-25552250D01*
X-16997653Y-25786597D01*
X-17034874Y-25960327D01*
X-17104881Y-26090138D01*
X-17215083Y-26192728D01*
X-17291580Y-26241347D01*
X-17525583Y-26342175D01*
X-17744997Y-26369618D01*
X-17744997Y-27094087D01*
X-17641341Y-27126168D01*
X-17358226Y-27213829D01*
X-17062136Y-27305546D01*
X-17030747Y-27315271D01*
X-16709768Y-27414338D01*
X-16455123Y-27491626D01*
X-16257482Y-27549347D01*
X-16111106Y-27588741D01*
X-16111106Y-26779034D01*
X-16312220Y-26753333D01*
X-16472354Y-26682799D01*
X-16660351Y-26531315D01*
X-16782492Y-26342149D01*
X-16835078Y-26126982D01*
X-16814409Y-25897496D01*
X-16765278Y-25757727D01*
X-16668884Y-25563226D01*
X-16641757Y-25524897D01*
X-16641757Y-25314125D01*
X-16759303Y-25301387D01*
X-16843941Y-25249860D01*
X-16901089Y-25185141D01*
X-16978521Y-25067875D01*
X-16996124Y-24969569D01*
X-16954800Y-24860700D01*
X-16913032Y-24794135D01*
X-16836437Y-24702043D01*
X-16747722Y-24659451D01*
X-16655274Y-24647088D01*
X-16533749Y-24648734D01*
X-16474947Y-24674280D01*
X-16474947Y-24591763D01*
X-16542497Y-24587107D01*
X-16602460Y-24540213D01*
X-16657452Y-24477814D01*
X-16757093Y-24341033D01*
X-16848716Y-24179959D01*
X-16920086Y-24019932D01*
X-16958965Y-23886294D01*
X-16962678Y-23845688D01*
X-16945693Y-23746907D01*
X-16903976Y-23622871D01*
X-16888695Y-23587719D01*
X-16762375Y-23386323D01*
X-16604336Y-23243129D01*
X-16426796Y-23160269D01*
X-16241972Y-23139877D01*
X-16062082Y-23184086D01*
X-15899345Y-23295030D01*
X-15811474Y-23399643D01*
X-15743443Y-23551208D01*
X-15710268Y-23737861D01*
X-15712476Y-23930922D01*
X-15750593Y-24101712D01*
X-15796957Y-24190043D01*
X-15940965Y-24336306D01*
X-16132193Y-24465424D01*
X-16338586Y-24556293D01*
X-16365452Y-24564363D01*
X-16474947Y-24591763D01*
X-16474947Y-24674280D01*
X-16449341Y-24685405D01*
X-16388679Y-24742180D01*
X-16304875Y-24880541D01*
X-16289647Y-25023747D01*
X-16335341Y-25154508D01*
X-16434307Y-25255532D01*
X-16578894Y-25309528D01*
X-16641757Y-25314125D01*
X-16641757Y-25524897D01*
X-16579982Y-25437609D01*
X-16483959Y-25373525D01*
X-16366203Y-25363623D01*
X-16212103Y-25400550D01*
X-16120023Y-25433092D01*
X-15887745Y-25554374D01*
X-15717220Y-25716472D01*
X-15612448Y-25910642D01*
X-15577429Y-26128141D01*
X-15616164Y-26360224D01*
X-15652814Y-26454321D01*
X-15768943Y-26626055D01*
X-15925860Y-26735450D01*
X-16111106Y-26779034D01*
X-16111106Y-27588741D01*
X-16107516Y-27589708D01*
X-15995894Y-27614921D01*
X-15913288Y-27627193D01*
X-15850367Y-27628734D01*
X-15797802Y-27621755D01*
X-15767480Y-27614430D01*
X-15635422Y-27558199D01*
X-15503664Y-27471280D01*
X-15473268Y-27444940D01*
X-15470115Y-27441570D01*
X-15470115Y-25579419D01*
X-15559157Y-25561356D01*
X-15636726Y-25533630D01*
X-15737909Y-25477738D01*
X-15858984Y-25386217D01*
X-15983322Y-25275117D01*
X-16094297Y-25160490D01*
X-16175278Y-25058387D01*
X-16209637Y-24984859D01*
X-16209875Y-24980388D01*
X-16189217Y-24922103D01*
X-16135917Y-24823646D01*
X-16083939Y-24740731D01*
X-15909971Y-24526289D01*
X-15722087Y-24388718D01*
X-15517696Y-24326327D01*
X-15442544Y-24321938D01*
X-15205665Y-24354323D01*
X-14998899Y-24445458D01*
X-14836076Y-24586314D01*
X-14731024Y-24767862D01*
X-14723031Y-24791717D01*
X-14708857Y-24962660D01*
X-14761700Y-25136524D01*
X-14871193Y-25298551D01*
X-15026970Y-25433982D01*
X-15218668Y-25528061D01*
X-15246265Y-25536653D01*
X-15377777Y-25571092D01*
X-15470115Y-25579419D01*
X-15470115Y-27441570D01*
X-15397048Y-27363474D01*
X-15285998Y-27231348D01*
X-15147056Y-27057939D01*
X-14987157Y-26852624D01*
X-14813238Y-26624778D01*
X-14632233Y-26383781D01*
X-14451080Y-26139007D01*
X-14276715Y-25899834D01*
X-14116073Y-25675639D01*
X-13976090Y-25475799D01*
X-13863703Y-25309690D01*
X-13785848Y-25186690D01*
X-13749461Y-25116175D01*
X-13748637Y-25113414D01*
X-13728806Y-24958868D01*
X-13760667Y-24809740D01*
G37*
X-13760667Y-24809740D02*
X-13797443Y-24740853D01*
X-13876009Y-24619009D01*
X-13989257Y-24453774D01*
X-14130077Y-24254716D01*
X-14291361Y-24031400D01*
X-14465999Y-23793394D01*
X-14646884Y-23550265D01*
X-14826906Y-23311580D01*
X-14998958Y-23086905D01*
X-15155929Y-22885808D01*
X-15290711Y-22717855D01*
X-15396197Y-22592613D01*
X-15455523Y-22528811D01*
X-15537772Y-22451571D01*
X-15613489Y-22392836D01*
X-15692082Y-22353234D01*
X-15782960Y-22333394D01*
X-15895531Y-22333944D01*
X-16039204Y-22355513D01*
X-16223388Y-22398730D01*
X-16457489Y-22464223D01*
X-16750919Y-22552621D01*
X-17010289Y-22632688D01*
X-17431782Y-22763197D01*
X-17784196Y-22872602D01*
X-18074146Y-22963689D01*
X-18308248Y-23039244D01*
X-18493116Y-23102051D01*
X-18635367Y-23154897D01*
X-18741617Y-23200567D01*
X-18818479Y-23241847D01*
X-18872570Y-23281521D01*
X-18910505Y-23322377D01*
X-18938901Y-23367200D01*
X-18964371Y-23418774D01*
X-18986051Y-23464631D01*
X-19008022Y-23513667D01*
X-19025642Y-23566292D01*
X-19039390Y-23631409D01*
X-19049742Y-23717919D01*
X-19057178Y-23834723D01*
X-19062173Y-23990724D01*
X-19065207Y-24194821D01*
X-19066757Y-24455918D01*
X-19067300Y-24782916D01*
X-19067343Y-24979390D01*
X-19067132Y-25343294D01*
X-19066194Y-25636721D01*
X-19064039Y-25868566D01*
X-19060181Y-26047728D01*
X-19054131Y-26183103D01*
X-19045402Y-26283588D01*
X-19033506Y-26358080D01*
X-19017955Y-26415476D01*
X-18998261Y-26464672D01*
X-18984301Y-26493858D01*
X-18901503Y-26622922D01*
X-18787225Y-26725075D01*
X-18625732Y-26810954D01*
X-18401292Y-26891198D01*
X-18392687Y-26893855D01*
X-18287154Y-26926406D01*
X-18118374Y-26978568D01*
X-17898913Y-27046451D01*
X-17744997Y-27094087D01*
X-17744997Y-26369618D01*
X-17943944Y-26324027D01*
X-18116549Y-26205756D01*
X-18131044Y-26191085D01*
X-18247473Y-26020557D01*
X-18288067Y-25830075D01*
X-18252983Y-25617822D01*
X-18192480Y-25472875D01*
X-18055285Y-25275324D01*
X-17877724Y-25145501D01*
X-17665053Y-25084980D01*
X-17665053Y-24955439D01*
X-17818503Y-24948608D01*
X-17850306Y-24942297D01*
X-18002932Y-24868180D01*
X-18145468Y-24736861D01*
X-18261583Y-24570268D01*
X-18334951Y-24390328D01*
X-18352128Y-24268405D01*
X-18335246Y-24154344D01*
X-18293001Y-24029173D01*
X-18288575Y-24019576D01*
X-18171788Y-23857835D01*
X-18009649Y-23750957D01*
X-17816279Y-23701235D01*
X-17605798Y-23710962D01*
X-17392324Y-23782431D01*
X-17270916Y-23854326D01*
X-17141419Y-23986145D01*
X-17051305Y-24175796D01*
X-17004711Y-24374793D01*
X-16983751Y-24563181D01*
X-16996823Y-24694306D01*
X-17049175Y-24784877D01*
X-17146056Y-24851602D01*
X-17155997Y-24856463D01*
X-17299672Y-24905148D01*
X-17480733Y-24939546D01*
X-17665053Y-24955439D01*
X-17665053Y-25084980D01*
X-17661915Y-25084086D01*
X-17409974Y-25091760D01*
X-17182218Y-25148635D01*
X-16983781Y-25214907D01*
X-16985809Y-25552250D01*
X-16997653Y-25786597D01*
X-17034874Y-25960327D01*
X-17104881Y-26090138D01*
X-17215083Y-26192728D01*
X-17291580Y-26241347D01*
X-17525583Y-26342175D01*
X-17744997Y-26369618D01*
X-17744997Y-27094087D01*
X-17641341Y-27126168D01*
X-17358226Y-27213829D01*
X-17062136Y-27305546D01*
X-17030747Y-27315271D01*
X-16709768Y-27414338D01*
X-16455123Y-27491626D01*
X-16257482Y-27549347D01*
X-16111106Y-27588741D01*
X-16111106Y-26779034D01*
X-16312220Y-26753333D01*
X-16472354Y-26682799D01*
X-16660351Y-26531315D01*
X-16782492Y-26342149D01*
X-16835078Y-26126982D01*
X-16814409Y-25897496D01*
X-16765278Y-25757727D01*
X-16668884Y-25563226D01*
X-16641757Y-25524897D01*
X-16641757Y-25314125D01*
X-16759303Y-25301387D01*
X-16843941Y-25249860D01*
X-16901089Y-25185141D01*
X-16978521Y-25067875D01*
X-16996124Y-24969569D01*
X-16954800Y-24860700D01*
X-16913032Y-24794135D01*
X-16836437Y-24702043D01*
X-16747722Y-24659451D01*
X-16655274Y-24647088D01*
X-16533749Y-24648734D01*
X-16474947Y-24674280D01*
X-16474947Y-24591763D01*
X-16542497Y-24587107D01*
X-16602460Y-24540213D01*
X-16657452Y-24477814D01*
X-16757093Y-24341033D01*
X-16848716Y-24179959D01*
X-16920086Y-24019932D01*
X-16958965Y-23886294D01*
X-16962678Y-23845688D01*
X-16945693Y-23746907D01*
X-16903976Y-23622871D01*
X-16888695Y-23587719D01*
X-16762375Y-23386323D01*
X-16604336Y-23243129D01*
X-16426796Y-23160269D01*
X-16241972Y-23139877D01*
X-16062082Y-23184086D01*
X-15899345Y-23295030D01*
X-15811474Y-23399643D01*
X-15743443Y-23551208D01*
X-15710268Y-23737861D01*
X-15712476Y-23930922D01*
X-15750593Y-24101712D01*
X-15796957Y-24190043D01*
X-15940965Y-24336306D01*
X-16132193Y-24465424D01*
X-16338586Y-24556293D01*
X-16365452Y-24564363D01*
X-16474947Y-24591763D01*
X-16474947Y-24674280D01*
X-16449341Y-24685405D01*
X-16388679Y-24742180D01*
X-16304875Y-24880541D01*
X-16289647Y-25023747D01*
X-16335341Y-25154508D01*
X-16434307Y-25255532D01*
X-16578894Y-25309528D01*
X-16641757Y-25314125D01*
X-16641757Y-25524897D01*
X-16579982Y-25437609D01*
X-16483959Y-25373525D01*
X-16366203Y-25363623D01*
X-16212103Y-25400550D01*
X-16120023Y-25433092D01*
X-15887745Y-25554374D01*
X-15717220Y-25716472D01*
X-15612448Y-25910642D01*
X-15577429Y-26128141D01*
X-15616164Y-26360224D01*
X-15652814Y-26454321D01*
X-15768943Y-26626055D01*
X-15925860Y-26735450D01*
X-16111106Y-26779034D01*
X-16111106Y-27588741D01*
X-16107516Y-27589708D01*
X-15995894Y-27614921D01*
X-15913288Y-27627193D01*
X-15850367Y-27628734D01*
X-15797802Y-27621755D01*
X-15767480Y-27614430D01*
X-15635422Y-27558199D01*
X-15503664Y-27471280D01*
X-15473268Y-27444940D01*
X-15470115Y-27441570D01*
X-15470115Y-25579419D01*
X-15559157Y-25561356D01*
X-15636726Y-25533630D01*
X-15737909Y-25477738D01*
X-15858984Y-25386217D01*
X-15983322Y-25275117D01*
X-16094297Y-25160490D01*
X-16175278Y-25058387D01*
X-16209637Y-24984859D01*
X-16209875Y-24980388D01*
X-16189217Y-24922103D01*
X-16135917Y-24823646D01*
X-16083939Y-24740731D01*
X-15909971Y-24526289D01*
X-15722087Y-24388718D01*
X-15517696Y-24326327D01*
X-15442544Y-24321938D01*
X-15205665Y-24354323D01*
X-14998899Y-24445458D01*
X-14836076Y-24586314D01*
X-14731024Y-24767862D01*
X-14723031Y-24791717D01*
X-14708857Y-24962660D01*
X-14761700Y-25136524D01*
X-14871193Y-25298551D01*
X-15026970Y-25433982D01*
X-15218668Y-25528061D01*
X-15246265Y-25536653D01*
X-15377777Y-25571092D01*
X-15470115Y-25579419D01*
X-15470115Y-27441570D01*
X-15397048Y-27363474D01*
X-15285998Y-27231348D01*
X-15147056Y-27057939D01*
X-14987157Y-26852624D01*
X-14813238Y-26624778D01*
X-14632233Y-26383781D01*
X-14451080Y-26139007D01*
X-14276715Y-25899834D01*
X-14116073Y-25675639D01*
X-13976090Y-25475799D01*
X-13863703Y-25309690D01*
X-13785848Y-25186690D01*
X-13749461Y-25116175D01*
X-13748637Y-25113414D01*
X-13728806Y-24958868D01*
X-13760667Y-24809740D01*
G36*
X-13835017Y-8142424D02*
G01*
X-13851518Y-7848721D01*
X-13878001Y-7611865D01*
X-13890271Y-7542374D01*
X-13998512Y-7156814D01*
X-14156055Y-6819681D01*
X-14358598Y-6537273D01*
X-14601842Y-6315887D01*
X-14813013Y-6191505D01*
X-14915388Y-6146540D01*
X-15008143Y-6116411D01*
X-15111224Y-6098190D01*
X-15244575Y-6088952D01*
X-15428142Y-6085769D01*
X-15535187Y-6085532D01*
X-15748543Y-6086902D01*
X-15902506Y-6092971D01*
X-16017039Y-6106675D01*
X-16112104Y-6130950D01*
X-16207664Y-6168734D01*
X-16258216Y-6191896D01*
X-16415758Y-6280934D01*
X-16582088Y-6398050D01*
X-16680822Y-6481287D01*
X-16876492Y-6664314D01*
X-17942167Y-6108164D01*
X-19007843Y-5552015D01*
X-19040909Y-5660023D01*
X-19054055Y-5743832D01*
X-19064626Y-5889954D01*
X-19072468Y-6081366D01*
X-19077425Y-6301045D01*
X-19079344Y-6531964D01*
X-19078070Y-6757102D01*
X-19073447Y-6959433D01*
X-19065322Y-7121934D01*
X-19055073Y-7218944D01*
X-19025104Y-7399856D01*
X-17889142Y-7933319D01*
X-17610087Y-8064311D01*
X-17354120Y-8184360D01*
X-17130077Y-8289329D01*
X-16946797Y-8375081D01*
X-16813117Y-8437480D01*
X-16737877Y-8472388D01*
X-16724809Y-8478292D01*
X-16689965Y-8454074D01*
X-16629140Y-8379518D01*
X-16573847Y-8298762D01*
X-16400260Y-8067175D01*
X-16217884Y-7907448D01*
X-16014527Y-7812138D01*
X-15777996Y-7773804D01*
X-15711257Y-7772250D01*
X-15486147Y-7798099D01*
X-15317342Y-7877587D01*
X-15202130Y-8013626D01*
X-15137798Y-8209128D01*
X-15121186Y-8405726D01*
X-15118468Y-8665219D01*
X-17068546Y-8675512D01*
X-19018624Y-8685806D01*
X-19044589Y-8774731D01*
X-19055398Y-8847102D01*
X-19066110Y-8978925D01*
X-19076062Y-9151547D01*
X-19084588Y-9346314D01*
X-19091024Y-9544574D01*
X-19094705Y-9727672D01*
X-19094967Y-9876956D01*
X-19091146Y-9973772D01*
X-19088050Y-9994750D01*
X-19071637Y-10072212D01*
X-19051417Y-10184724D01*
X-19048375Y-10203110D01*
X-19024090Y-10351938D01*
X-13954664Y-10351938D01*
X-13931689Y-10203110D01*
X-13893527Y-9904069D01*
X-13863852Y-9565949D01*
X-13842915Y-9204736D01*
X-13830965Y-8836419D01*
X-13828249Y-8476986D01*
X-13835017Y-8142424D01*
G37*
X-13835017Y-8142424D02*
X-13851518Y-7848721D01*
X-13878001Y-7611865D01*
X-13890271Y-7542374D01*
X-13998512Y-7156814D01*
X-14156055Y-6819681D01*
X-14358598Y-6537273D01*
X-14601842Y-6315887D01*
X-14813013Y-6191505D01*
X-14915388Y-6146540D01*
X-15008143Y-6116411D01*
X-15111224Y-6098190D01*
X-15244575Y-6088952D01*
X-15428142Y-6085769D01*
X-15535187Y-6085532D01*
X-15748543Y-6086902D01*
X-15902506Y-6092971D01*
X-16017039Y-6106675D01*
X-16112104Y-6130950D01*
X-16207664Y-6168734D01*
X-16258216Y-6191896D01*
X-16415758Y-6280934D01*
X-16582088Y-6398050D01*
X-16680822Y-6481287D01*
X-16876492Y-6664314D01*
X-17942167Y-6108164D01*
X-19007843Y-5552015D01*
X-19040909Y-5660023D01*
X-19054055Y-5743832D01*
X-19064626Y-5889954D01*
X-19072468Y-6081366D01*
X-19077425Y-6301045D01*
X-19079344Y-6531964D01*
X-19078070Y-6757102D01*
X-19073447Y-6959433D01*
X-19065322Y-7121934D01*
X-19055073Y-7218944D01*
X-19025104Y-7399856D01*
X-17889142Y-7933319D01*
X-17610087Y-8064311D01*
X-17354120Y-8184360D01*
X-17130077Y-8289329D01*
X-16946797Y-8375081D01*
X-16813117Y-8437480D01*
X-16737877Y-8472388D01*
X-16724809Y-8478292D01*
X-16689965Y-8454074D01*
X-16629140Y-8379518D01*
X-16573847Y-8298762D01*
X-16400260Y-8067175D01*
X-16217884Y-7907448D01*
X-16014527Y-7812138D01*
X-15777996Y-7773804D01*
X-15711257Y-7772250D01*
X-15486147Y-7798099D01*
X-15317342Y-7877587D01*
X-15202130Y-8013626D01*
X-15137798Y-8209128D01*
X-15121186Y-8405726D01*
X-15118468Y-8665219D01*
X-17068546Y-8675512D01*
X-19018624Y-8685806D01*
X-19044589Y-8774731D01*
X-19055398Y-8847102D01*
X-19066110Y-8978925D01*
X-19076062Y-9151547D01*
X-19084588Y-9346314D01*
X-19091024Y-9544574D01*
X-19094705Y-9727672D01*
X-19094967Y-9876956D01*
X-19091146Y-9973772D01*
X-19088050Y-9994750D01*
X-19071637Y-10072212D01*
X-19051417Y-10184724D01*
X-19048375Y-10203110D01*
X-19024090Y-10351938D01*
X-13954664Y-10351938D01*
X-13931689Y-10203110D01*
X-13893527Y-9904069D01*
X-13863852Y-9565949D01*
X-13842915Y-9204736D01*
X-13830965Y-8836419D01*
X-13828249Y-8476986D01*
X-13835017Y-8142424D01*
G36*
X-13887743Y-11796595D02*
G01*
X-13892119Y-11581360D01*
X-13899978Y-11393670D01*
X-13911321Y-11248413D01*
X-13926148Y-11160476D01*
X-13934436Y-11143064D01*
X-13964844Y-11138553D01*
X-14030337Y-11156199D01*
X-14136508Y-11198580D01*
X-14288951Y-11268272D01*
X-14493259Y-11367851D01*
X-14755025Y-11499896D01*
X-15079844Y-11666982D01*
X-15144905Y-11700700D01*
X-16309093Y-12304617D01*
X-17666636Y-11626886D01*
X-18049688Y-11436828D01*
X-18365846Y-11282612D01*
X-18618291Y-11162795D01*
X-18810201Y-11075933D01*
X-18944756Y-11020583D01*
X-19025135Y-10995302D01*
X-19053903Y-10997249D01*
X-19065654Y-11054749D01*
X-19075581Y-11176159D01*
X-19083515Y-11346031D01*
X-19089286Y-11548916D01*
X-19092724Y-11769367D01*
X-19093660Y-11991935D01*
X-19091923Y-12201173D01*
X-19087344Y-12381632D01*
X-19079752Y-12517865D01*
X-19071360Y-12584798D01*
X-19047390Y-12684449D01*
X-19027303Y-12744022D01*
X-19023941Y-12749070D01*
X-18980541Y-12774395D01*
X-18876065Y-12829249D01*
X-18720278Y-12908818D01*
X-18522944Y-13008289D01*
X-18293827Y-13122847D01*
X-18042691Y-13247680D01*
X-17779301Y-13377974D01*
X-17513421Y-13508913D01*
X-17254815Y-13635686D01*
X-17013247Y-13753478D01*
X-16798482Y-13857475D01*
X-16620284Y-13942864D01*
X-16488416Y-14004830D01*
X-16412644Y-14038561D01*
X-16398631Y-14043344D01*
X-16341390Y-14026391D01*
X-16224649Y-13978455D01*
X-16058714Y-13904600D01*
X-15853894Y-13809888D01*
X-15620494Y-13699385D01*
X-15368821Y-13578152D01*
X-15109182Y-13451254D01*
X-14851885Y-13323755D01*
X-14607235Y-13200717D01*
X-14385540Y-13087204D01*
X-14197106Y-12988281D01*
X-14052240Y-12909010D01*
X-13961250Y-12854455D01*
X-13934554Y-12832790D01*
X-13918059Y-12764909D01*
X-13905039Y-12635252D01*
X-13895496Y-12458704D01*
X-13889432Y-12250154D01*
X-13886847Y-12024489D01*
X-13887743Y-11796595D01*
G37*
X-13887743Y-11796595D02*
X-13892119Y-11581360D01*
X-13899978Y-11393670D01*
X-13911321Y-11248413D01*
X-13926148Y-11160476D01*
X-13934436Y-11143064D01*
X-13964844Y-11138553D01*
X-14030337Y-11156199D01*
X-14136508Y-11198580D01*
X-14288951Y-11268272D01*
X-14493259Y-11367851D01*
X-14755025Y-11499896D01*
X-15079844Y-11666982D01*
X-15144905Y-11700700D01*
X-16309093Y-12304617D01*
X-17666636Y-11626886D01*
X-18049688Y-11436828D01*
X-18365846Y-11282612D01*
X-18618291Y-11162795D01*
X-18810201Y-11075933D01*
X-18944756Y-11020583D01*
X-19025135Y-10995302D01*
X-19053903Y-10997249D01*
X-19065654Y-11054749D01*
X-19075581Y-11176159D01*
X-19083515Y-11346031D01*
X-19089286Y-11548916D01*
X-19092724Y-11769367D01*
X-19093660Y-11991935D01*
X-19091923Y-12201173D01*
X-19087344Y-12381632D01*
X-19079752Y-12517865D01*
X-19071360Y-12584798D01*
X-19047390Y-12684449D01*
X-19027303Y-12744022D01*
X-19023941Y-12749070D01*
X-18980541Y-12774395D01*
X-18876065Y-12829249D01*
X-18720278Y-12908818D01*
X-18522944Y-13008289D01*
X-18293827Y-13122847D01*
X-18042691Y-13247680D01*
X-17779301Y-13377974D01*
X-17513421Y-13508913D01*
X-17254815Y-13635686D01*
X-17013247Y-13753478D01*
X-16798482Y-13857475D01*
X-16620284Y-13942864D01*
X-16488416Y-14004830D01*
X-16412644Y-14038561D01*
X-16398631Y-14043344D01*
X-16341390Y-14026391D01*
X-16224649Y-13978455D01*
X-16058714Y-13904600D01*
X-15853894Y-13809888D01*
X-15620494Y-13699385D01*
X-15368821Y-13578152D01*
X-15109182Y-13451254D01*
X-14851885Y-13323755D01*
X-14607235Y-13200717D01*
X-14385540Y-13087204D01*
X-14197106Y-12988281D01*
X-14052240Y-12909010D01*
X-13961250Y-12854455D01*
X-13934554Y-12832790D01*
X-13918059Y-12764909D01*
X-13905039Y-12635252D01*
X-13895496Y-12458704D01*
X-13889432Y-12250154D01*
X-13886847Y-12024489D01*
X-13887743Y-11796595D01*
G36*
X-13889956Y-14861263D02*
G01*
X-13894277Y-14658353D01*
X-13902053Y-14490657D01*
X-13913300Y-14376595D01*
X-13918678Y-14350454D01*
X-13949199Y-14241313D01*
X-16486101Y-14241313D01*
X-17029362Y-14241680D01*
X-17497528Y-14242833D01*
X-17894876Y-14244851D01*
X-18225685Y-14247813D01*
X-18494230Y-14251797D01*
X-18704789Y-14256882D01*
X-18861640Y-14263147D01*
X-18969060Y-14270670D01*
X-19031325Y-14279530D01*
X-19052181Y-14288525D01*
X-19062712Y-14342918D01*
X-19072443Y-14460037D01*
X-19080988Y-14623235D01*
X-19087965Y-14815865D01*
X-19092990Y-15021280D01*
X-19095678Y-15222831D01*
X-19095646Y-15403872D01*
X-19092510Y-15547755D01*
X-19085885Y-15637833D01*
X-19083585Y-15650219D01*
X-19058808Y-15757073D01*
X-19045229Y-15818891D01*
X-19026175Y-15908188D01*
X-13951284Y-15908188D01*
X-13919720Y-15759360D01*
X-13906964Y-15656666D01*
X-13897595Y-15497090D01*
X-13891629Y-15299051D01*
X-13889078Y-15080969D01*
X-13889956Y-14861263D01*
G37*
X-13889956Y-14861263D02*
X-13894277Y-14658353D01*
X-13902053Y-14490657D01*
X-13913300Y-14376595D01*
X-13918678Y-14350454D01*
X-13949199Y-14241313D01*
X-16486101Y-14241313D01*
X-17029362Y-14241680D01*
X-17497528Y-14242833D01*
X-17894876Y-14244851D01*
X-18225685Y-14247813D01*
X-18494230Y-14251797D01*
X-18704789Y-14256882D01*
X-18861640Y-14263147D01*
X-18969060Y-14270670D01*
X-19031325Y-14279530D01*
X-19052181Y-14288525D01*
X-19062712Y-14342918D01*
X-19072443Y-14460037D01*
X-19080988Y-14623235D01*
X-19087965Y-14815865D01*
X-19092990Y-15021280D01*
X-19095678Y-15222831D01*
X-19095646Y-15403872D01*
X-19092510Y-15547755D01*
X-19085885Y-15637833D01*
X-19083585Y-15650219D01*
X-19058808Y-15757073D01*
X-19045229Y-15818891D01*
X-19026175Y-15908188D01*
X-13951284Y-15908188D01*
X-13919720Y-15759360D01*
X-13906964Y-15656666D01*
X-13897595Y-15497090D01*
X-13891629Y-15299051D01*
X-13889078Y-15080969D01*
X-13889956Y-14861263D01*
G36*
X-13853166Y-2681053D02*
G01*
X-13928055Y-2272155D01*
X-14055183Y-1920100D01*
X-14236446Y-1621872D01*
X-14473735Y-1374458D01*
X-14768946Y-1174844D01*
X-15123972Y-1020014D01*
X-15178000Y-1001920D01*
X-15239281Y-984448D01*
X-15310857Y-969862D01*
X-15400569Y-957811D01*
X-15516261Y-947946D01*
X-15665774Y-939916D01*
X-15856952Y-933371D01*
X-16097636Y-927961D01*
X-16395670Y-923335D01*
X-16758894Y-919144D01*
X-17105606Y-915832D01*
X-18814931Y-900458D01*
X-18864284Y-1065184D01*
X-18892454Y-1170842D01*
X-18931029Y-1331145D01*
X-18974588Y-1522955D01*
X-19011422Y-1693189D01*
X-19056327Y-1954138D01*
X-19092043Y-2257203D01*
X-19117548Y-2581418D01*
X-19131819Y-2905818D01*
X-19133836Y-3209436D01*
X-19122577Y-3471308D01*
X-19105498Y-3623362D01*
X-19022857Y-4016041D01*
X-18907396Y-4343902D01*
X-18754958Y-4616144D01*
X-18561387Y-4841967D01*
X-18550247Y-4852492D01*
X-18301395Y-5046437D01*
X-18031060Y-5177747D01*
X-17726795Y-5250451D01*
X-17376151Y-5268580D01*
X-17331542Y-5266926D01*
X-17331542Y-3841162D01*
X-17502591Y-3821159D01*
X-17660533Y-3739637D01*
X-17791613Y-3598069D01*
X-17878507Y-3410056D01*
X-17897817Y-3303601D01*
X-17909369Y-3152235D01*
X-17913441Y-2977470D01*
X-17910312Y-2800815D01*
X-17900262Y-2643781D01*
X-17883569Y-2527877D01*
X-17866441Y-2480298D01*
X-17836742Y-2452091D01*
X-17787447Y-2433487D01*
X-17704836Y-2423097D01*
X-17575190Y-2419533D01*
X-17384790Y-2421410D01*
X-17300894Y-2423103D01*
X-16785343Y-2434282D01*
X-16786380Y-2890688D01*
X-16788807Y-3098329D01*
X-16796882Y-3246314D01*
X-16813458Y-3354314D01*
X-16841389Y-3442001D01*
X-16877278Y-3517323D01*
X-17005133Y-3690717D01*
X-17161139Y-3798172D01*
X-17331542Y-3841162D01*
X-17331542Y-5266926D01*
X-17276360Y-5264878D01*
X-16939254Y-5217491D01*
X-16650988Y-5111465D01*
X-16403377Y-4943372D01*
X-16320100Y-4864426D01*
X-16139024Y-4647006D01*
X-15996101Y-4402065D01*
X-15888078Y-4119404D01*
X-15811700Y-3788824D01*
X-15763716Y-3400128D01*
X-15744227Y-3059360D01*
X-15722999Y-2454125D01*
X-15624424Y-2454125D01*
X-15519300Y-2488010D01*
X-15403268Y-2577091D01*
X-15293986Y-2702507D01*
X-15209113Y-2845397D01*
X-15177212Y-2931814D01*
X-15152196Y-3093240D01*
X-15144129Y-3329021D01*
X-15150682Y-3585219D01*
X-15168079Y-3857913D01*
X-15196108Y-4083685D01*
X-15240237Y-4294823D01*
X-15305933Y-4523611D01*
X-15313791Y-4548367D01*
X-15321645Y-4599324D01*
X-15298017Y-4641569D01*
X-15229231Y-4687861D01*
X-15101610Y-4750957D01*
X-15091607Y-4755638D01*
X-14910370Y-4825805D01*
X-14703249Y-4885082D01*
X-14562843Y-4912876D01*
X-14371739Y-4940180D01*
X-14243535Y-4951116D01*
X-14162194Y-4937636D01*
X-14111679Y-4891693D01*
X-14075952Y-4805237D01*
X-14038976Y-4670222D01*
X-14032753Y-4646860D01*
X-13906269Y-4074489D01*
X-13840577Y-3519483D01*
X-13828624Y-3149807D01*
X-13853166Y-2681053D01*
G37*
X-13853166Y-2681053D02*
X-13928055Y-2272155D01*
X-14055183Y-1920100D01*
X-14236446Y-1621872D01*
X-14473735Y-1374458D01*
X-14768946Y-1174844D01*
X-15123972Y-1020014D01*
X-15178000Y-1001920D01*
X-15239281Y-984448D01*
X-15310857Y-969862D01*
X-15400569Y-957811D01*
X-15516261Y-947946D01*
X-15665774Y-939916D01*
X-15856952Y-933371D01*
X-16097636Y-927961D01*
X-16395670Y-923335D01*
X-16758894Y-919144D01*
X-17105606Y-915832D01*
X-18814931Y-900458D01*
X-18864284Y-1065184D01*
X-18892454Y-1170842D01*
X-18931029Y-1331145D01*
X-18974588Y-1522955D01*
X-19011422Y-1693189D01*
X-19056327Y-1954138D01*
X-19092043Y-2257203D01*
X-19117548Y-2581418D01*
X-19131819Y-2905818D01*
X-19133836Y-3209436D01*
X-19122577Y-3471308D01*
X-19105498Y-3623362D01*
X-19022857Y-4016041D01*
X-18907396Y-4343902D01*
X-18754958Y-4616144D01*
X-18561387Y-4841967D01*
X-18550247Y-4852492D01*
X-18301395Y-5046437D01*
X-18031060Y-5177747D01*
X-17726795Y-5250451D01*
X-17376151Y-5268580D01*
X-17331542Y-5266926D01*
X-17331542Y-3841162D01*
X-17502591Y-3821159D01*
X-17660533Y-3739637D01*
X-17791613Y-3598069D01*
X-17878507Y-3410056D01*
X-17897817Y-3303601D01*
X-17909369Y-3152235D01*
X-17913441Y-2977470D01*
X-17910312Y-2800815D01*
X-17900262Y-2643781D01*
X-17883569Y-2527877D01*
X-17866441Y-2480298D01*
X-17836742Y-2452091D01*
X-17787447Y-2433487D01*
X-17704836Y-2423097D01*
X-17575190Y-2419533D01*
X-17384790Y-2421410D01*
X-17300894Y-2423103D01*
X-16785343Y-2434282D01*
X-16786380Y-2890688D01*
X-16788807Y-3098329D01*
X-16796882Y-3246314D01*
X-16813458Y-3354314D01*
X-16841389Y-3442001D01*
X-16877278Y-3517323D01*
X-17005133Y-3690717D01*
X-17161139Y-3798172D01*
X-17331542Y-3841162D01*
X-17331542Y-5266926D01*
X-17276360Y-5264878D01*
X-16939254Y-5217491D01*
X-16650988Y-5111465D01*
X-16403377Y-4943372D01*
X-16320100Y-4864426D01*
X-16139024Y-4647006D01*
X-15996101Y-4402065D01*
X-15888078Y-4119404D01*
X-15811700Y-3788824D01*
X-15763716Y-3400128D01*
X-15744227Y-3059360D01*
X-15722999Y-2454125D01*
X-15624424Y-2454125D01*
X-15519300Y-2488010D01*
X-15403268Y-2577091D01*
X-15293986Y-2702507D01*
X-15209113Y-2845397D01*
X-15177212Y-2931814D01*
X-15152196Y-3093240D01*
X-15144129Y-3329021D01*
X-15150682Y-3585219D01*
X-15168079Y-3857913D01*
X-15196108Y-4083685D01*
X-15240237Y-4294823D01*
X-15305933Y-4523611D01*
X-15313791Y-4548367D01*
X-15321645Y-4599324D01*
X-15298017Y-4641569D01*
X-15229231Y-4687861D01*
X-15101610Y-4750957D01*
X-15091607Y-4755638D01*
X-14910370Y-4825805D01*
X-14703249Y-4885082D01*
X-14562843Y-4912876D01*
X-14371739Y-4940180D01*
X-14243535Y-4951116D01*
X-14162194Y-4937636D01*
X-14111679Y-4891693D01*
X-14075952Y-4805237D01*
X-14038976Y-4670222D01*
X-14032753Y-4646860D01*
X-13906269Y-4074489D01*
X-13840577Y-3519483D01*
X-13828624Y-3149807D01*
X-13853166Y-2681053D01*
G36*
X-13836580Y-18980604D02*
G01*
X-13854745Y-18736574D01*
X-13885044Y-18551393D01*
X-14016120Y-18151408D01*
X-14209616Y-17791295D01*
X-14459791Y-17478509D01*
X-14760901Y-17220506D01*
X-15034793Y-17058465D01*
X-15264521Y-16952103D01*
X-15469954Y-16873911D01*
X-15671080Y-16819869D01*
X-15887888Y-16785959D01*
X-16140368Y-16768164D01*
X-16448509Y-16762465D01*
X-16507531Y-16762410D01*
X-16786767Y-16765157D01*
X-17003481Y-16773735D01*
X-17174399Y-16789501D01*
X-17316249Y-16813809D01*
X-17400500Y-16834752D01*
X-17812732Y-16985345D01*
X-18176850Y-17192518D01*
X-18487436Y-17452025D01*
X-18739074Y-17759617D01*
X-18870515Y-17987481D01*
X-18953395Y-18175195D01*
X-19028271Y-18378844D01*
X-19081049Y-18559429D01*
X-19087244Y-18587094D01*
X-19119778Y-18811814D01*
X-19137390Y-19084561D01*
X-19140122Y-19376874D01*
X-19128020Y-19660288D01*
X-19101124Y-19906343D01*
X-19085115Y-19993142D01*
X-18959070Y-20395745D01*
X-18766784Y-20757927D01*
X-18513026Y-21074741D01*
X-18202562Y-21341237D01*
X-17840160Y-21552466D01*
X-17439905Y-21700888D01*
X-17176264Y-21756902D01*
X-16865483Y-21794941D01*
X-16538127Y-21813234D01*
X-16514178Y-21812988D01*
X-16514178Y-20147694D01*
X-16714648Y-20137939D01*
X-17058851Y-20087404D01*
X-17333287Y-20003035D01*
X-17541111Y-19882343D01*
X-17685478Y-19722842D01*
X-17769546Y-19522043D01*
X-17796463Y-19285112D01*
X-17788014Y-19110585D01*
X-17755667Y-18977548D01*
X-17701127Y-18866396D01*
X-17559635Y-18701107D01*
X-17352820Y-18569844D01*
X-17088407Y-18475569D01*
X-16774117Y-18421245D01*
X-16507531Y-18408500D01*
X-16159101Y-18430788D01*
X-15852948Y-18495586D01*
X-15597482Y-18599797D01*
X-15401112Y-18740324D01*
X-15308916Y-18850017D01*
X-15247503Y-18956983D01*
X-15214702Y-19062604D01*
X-15202379Y-19199530D01*
X-15201345Y-19281625D01*
X-15207111Y-19444442D01*
X-15229715Y-19560740D01*
X-15277118Y-19662878D01*
X-15306711Y-19709901D01*
X-15448884Y-19858626D01*
X-15653941Y-19980788D01*
X-15908658Y-20072367D01*
X-16199811Y-20129342D01*
X-16514178Y-20147694D01*
X-16514178Y-21812988D01*
X-16224759Y-21810007D01*
X-15971750Y-21786001D01*
X-15504612Y-21684845D01*
X-15097383Y-21532970D01*
X-14747007Y-21327987D01*
X-14450426Y-21067503D01*
X-14204582Y-20749130D01*
X-14006419Y-20370474D01*
X-13937552Y-20195330D01*
X-13894060Y-20024330D01*
X-13861534Y-19795990D01*
X-13840657Y-19531678D01*
X-13832111Y-19252761D01*
X-13836580Y-18980604D01*
G37*
X-13836580Y-18980604D02*
X-13854745Y-18736574D01*
X-13885044Y-18551393D01*
X-14016120Y-18151408D01*
X-14209616Y-17791295D01*
X-14459791Y-17478509D01*
X-14760901Y-17220506D01*
X-15034793Y-17058465D01*
X-15264521Y-16952103D01*
X-15469954Y-16873911D01*
X-15671080Y-16819869D01*
X-15887888Y-16785959D01*
X-16140368Y-16768164D01*
X-16448509Y-16762465D01*
X-16507531Y-16762410D01*
X-16786767Y-16765157D01*
X-17003481Y-16773735D01*
X-17174399Y-16789501D01*
X-17316249Y-16813809D01*
X-17400500Y-16834752D01*
X-17812732Y-16985345D01*
X-18176850Y-17192518D01*
X-18487436Y-17452025D01*
X-18739074Y-17759617D01*
X-18870515Y-17987481D01*
X-18953395Y-18175195D01*
X-19028271Y-18378844D01*
X-19081049Y-18559429D01*
X-19087244Y-18587094D01*
X-19119778Y-18811814D01*
X-19137390Y-19084561D01*
X-19140122Y-19376874D01*
X-19128020Y-19660288D01*
X-19101124Y-19906343D01*
X-19085115Y-19993142D01*
X-18959070Y-20395745D01*
X-18766784Y-20757927D01*
X-18513026Y-21074741D01*
X-18202562Y-21341237D01*
X-17840160Y-21552466D01*
X-17439905Y-21700888D01*
X-17176264Y-21756902D01*
X-16865483Y-21794941D01*
X-16538127Y-21813234D01*
X-16514178Y-21812988D01*
X-16514178Y-20147694D01*
X-16714648Y-20137939D01*
X-17058851Y-20087404D01*
X-17333287Y-20003035D01*
X-17541111Y-19882343D01*
X-17685478Y-19722842D01*
X-17769546Y-19522043D01*
X-17796463Y-19285112D01*
X-17788014Y-19110585D01*
X-17755667Y-18977548D01*
X-17701127Y-18866396D01*
X-17559635Y-18701107D01*
X-17352820Y-18569844D01*
X-17088407Y-18475569D01*
X-16774117Y-18421245D01*
X-16507531Y-18408500D01*
X-16159101Y-18430788D01*
X-15852948Y-18495586D01*
X-15597482Y-18599797D01*
X-15401112Y-18740324D01*
X-15308916Y-18850017D01*
X-15247503Y-18956983D01*
X-15214702Y-19062604D01*
X-15202379Y-19199530D01*
X-15201345Y-19281625D01*
X-15207111Y-19444442D01*
X-15229715Y-19560740D01*
X-15277118Y-19662878D01*
X-15306711Y-19709901D01*
X-15448884Y-19858626D01*
X-15653941Y-19980788D01*
X-15908658Y-20072367D01*
X-16199811Y-20129342D01*
X-16514178Y-20147694D01*
X-16514178Y-21812988D01*
X-16224759Y-21810007D01*
X-15971750Y-21786001D01*
X-15504612Y-21684845D01*
X-15097383Y-21532970D01*
X-14747007Y-21327987D01*
X-14450426Y-21067503D01*
X-14204582Y-20749130D01*
X-14006419Y-20370474D01*
X-13937552Y-20195330D01*
X-13894060Y-20024330D01*
X-13861534Y-19795990D01*
X-13840657Y-19531678D01*
X-13832111Y-19252761D01*
X-13836580Y-18980604D01*
D11*
X10850000Y-57560000D03*
X-14820000Y-48880000D03*
X-16120000Y2320000D03*
D12*
X-4875000Y-53900000D03*
X-9725000Y-53900000D03*
D13*
X-3700000Y-56800000D03*
X-10900000Y-56800000D03*
D14*
X11430000Y1270000D03*
X11430000Y-1270000D03*
X8890000Y1270000D03*
X8890000Y-1270000D03*
X6350000Y1270000D03*
X6350000Y-1270000D03*
X3810000Y1270000D03*
X3810000Y-1270000D03*
X1270000Y1270000D03*
X1270000Y-1270000D03*
X-1270000Y1270000D03*
X-1270000Y-1270000D03*
X-3810000Y1270000D03*
X-3810000Y-1270000D03*
X-6350000Y1270000D03*
X-6350000Y-1270000D03*
X-8890000Y1270000D03*
X-8890000Y-1270000D03*
X-11430000Y1270000D03*
D15*
X-11430000Y-1270000D03*
D16*
X-1390000Y-45165000D03*
X-1390000Y-42215000D03*
D17*
X110000Y-43690000D03*
X-2890000Y-43690000D03*
D18*
X17000000Y-57000000D03*
X-17000000Y-57000000D03*
D19*
X13772000Y-34671000D03*
D20*
X17272000Y-34671000D03*
D19*
X13772000Y-26162000D03*
D20*
X17272000Y-26162000D03*
D19*
X5390000Y-33020000D03*
D20*
X8890000Y-33020000D03*
D19*
X11105000Y-17907000D03*
D20*
X14605000Y-17907000D03*
D19*
X5390000Y-24511000D03*
D20*
X8890000Y-24511000D03*
D21*
X-50000Y-43600000D03*
X-1000000Y-42200000D03*
X14872982Y-43071179D03*
X-7600000Y-52199984D03*
X-5075000Y-43600000D03*
X-4000000Y-44600000D03*
X-5000000Y-44600000D03*
X-5700000Y-45300000D03*
X-5500000Y-46300000D03*
X-4400000Y-46800000D03*
X-4400000Y-50300000D03*
X-1400000Y-50300000D03*
X-300000Y-48500000D03*
X-300000Y-47500000D03*
X-1000000Y-46600000D03*
X-100000Y-45600000D03*
X-100000Y-44600000D03*
X-100000Y-42600000D03*
X-4000000Y-43600000D03*
X13650000Y-43070000D03*
X9240000Y-43720000D03*
X9240000Y-44720000D03*
X14900000Y-40440000D03*
X16000000Y-43040000D03*
X14970000Y-45974000D03*
X16250000Y-45710000D03*
X2810000Y-35480000D03*
X3880000Y-35470000D03*
X-460000Y-36450000D03*
X-500000Y-35240000D03*
X-3930000Y-51230000D03*
X-1840000Y-51230000D03*
X-5630000Y-48510000D03*
X-5620000Y-49520000D03*
X-5570000Y-47290000D03*
X5200000Y-12100000D03*
X6604000Y-10464800D03*
X-16600000Y-29100000D03*
X-18200000Y-30000000D03*
X-18200000Y-29000000D03*
X-18200000Y-31000000D03*
X-18300000Y-36600000D03*
X-14900000Y-36600000D03*
X-18300000Y-38800000D03*
X-14900000Y-38800000D03*
X-16600000Y-39700000D03*
X-9500000Y-28200000D03*
X-9500000Y-25100000D03*
X16891000Y-40400000D03*
X-2843794Y-51274980D03*
X-10400000Y-4000000D03*
X-8800000Y-5400000D03*
X-2500000Y-5500000D03*
X-8200000Y-22700000D03*
X-17900000Y-45500000D03*
X-17800000Y-50000000D03*
X-12400000Y-53200000D03*
X1800000Y-55900000D03*
X7600000Y-56000000D03*
X12400000Y-54700000D03*
X18700000Y-52000000D03*
X16200000Y-1200000D03*
X16200000Y3100000D03*
X19100000Y-1200000D03*
X-8400000Y-43700000D03*
X-8300000Y-40700000D03*
X2413000Y-44069000D03*
X400000Y-40600000D03*
X-4800000Y-23500000D03*
X-4800000Y-20200000D03*
X-4700000Y-7200000D03*
X-10500000Y-36100000D03*
X-6500000Y-33500000D03*
X-2200000Y-29900000D03*
X-15300000Y-45300000D03*
X-11100000Y3900000D03*
X-3800000Y4100000D03*
X4300000Y4000000D03*
X11000000Y4100000D03*
X-7700000Y-10700000D03*
X3400000Y-32800000D03*
X-6200000Y-40500000D03*
X13900000Y-50200000D03*
X11700000Y-50600000D03*
X8400000Y-50927000D03*
X19304000Y-49657000D03*
X-9900000Y-46700000D03*
X2413000Y-40640000D03*
X2413000Y-42926000D03*
X2413000Y-41783000D03*
X-6223000Y-10668000D03*
X-6985000Y-3937000D03*
X-6223000Y-14732000D03*
X-3048000Y-18669000D03*
X-2921000Y-14859000D03*
X12065000Y-24511000D03*
X13716000Y-23241000D03*
X15113000Y-21717000D03*
X10033000Y-22606000D03*
X11684000Y-21082000D03*
X13081000Y-16129000D03*
X5537200Y-18999200D03*
X6654800Y-14833600D03*
X8255000Y-6731000D03*
X7620000Y0D03*
X2540000Y0D03*
X19304000Y-19304000D03*
X19304000Y-30607000D03*
X-635000Y-30734000D03*
X19050000Y-5842000D03*
X-700000Y-6200000D03*
X-1000000Y-17800000D03*
X609600Y-9855200D03*
X6858000Y-7874000D03*
X4826000Y-10515600D03*
X1219200Y-14732000D03*
X14097000Y-46990000D03*
X8890000Y-46482000D03*
X-2900000Y-43650000D03*
X18300000Y-47200000D03*
X17500000Y-48000000D03*
X4953000Y-3810000D03*
X3810000Y-3810000D03*
X17272000Y-16891000D03*
X17272000Y-15621000D03*
X-7575000Y-49700010D03*
X-9800000Y-49450010D03*
X4350000Y-50850000D03*
X3150000Y-50850000D03*
X-9800000Y-50400000D03*
X5334000Y-14579600D03*
X5334000Y-5232400D03*
X8585200Y-5232400D03*
X7162800Y-16865600D03*
X3911600Y-15748000D03*
X18796000Y-17526000D03*
X-6660000Y-47430000D03*
X-10575000Y-43525002D03*
X-1651000Y-31750000D03*
X2794000Y-20675600D03*
D22*
X-665000Y-45165000D02*
X-100000Y-44600000D01*
X-1390000Y-45165000D02*
X-665000Y-45165000D01*
X-1000000Y-10100000D02*
X-700000Y-9800000D01*
X-1000000Y-17800000D02*
X-1000000Y-10100000D01*
X554400Y-9800000D02*
X609600Y-9855200D01*
X-700000Y-9800000D02*
X554400Y-9800000D01*
X1219200Y-14122400D02*
X4826000Y-10515600D01*
X1219200Y-14732000D02*
X1219200Y-14122400D01*
X14097000Y-46990000D02*
X9398000Y-46990000D01*
X9398000Y-46990000D02*
X8890000Y-46482000D01*
D23*
X17500000Y-48000000D02*
X18300000Y-47200000D01*
X18300000Y-47200000D02*
X18300000Y-38493000D01*
X17272000Y-37465000D02*
X17272000Y-34671000D01*
X18300000Y-38493000D02*
X17272000Y-37465000D01*
X17272000Y-34671000D02*
X17272000Y-26162000D01*
X4953000Y-3810000D02*
X3810000Y-3810000D01*
X17272000Y-26162000D02*
X17272000Y-16891000D01*
X17272000Y-16891000D02*
X17272000Y-15621000D01*
D22*
X17272000Y-3937000D02*
X17399000Y-3810000D01*
X17272000Y-4699000D02*
X17272000Y-3937000D01*
X10160000Y-5207000D02*
X10160000Y-4953000D01*
X17145000Y-5334000D02*
X10287000Y-5334000D01*
X17272000Y-5461000D02*
X17145000Y-5334000D01*
X17272000Y-5715000D02*
X17272000Y-5461000D01*
X17145000Y-5842000D02*
X17272000Y-5715000D01*
X10287000Y-5842000D02*
X17145000Y-5842000D01*
X10287000Y-6350000D02*
X10160000Y-6223000D01*
X17145000Y-6350000D02*
X10287000Y-6350000D01*
X17272000Y-6477000D02*
X17145000Y-6350000D01*
X17145000Y-6858000D02*
X17272000Y-6731000D01*
X10287000Y-6858000D02*
X17145000Y-6858000D01*
X10160000Y-6985000D02*
X10287000Y-6858000D01*
X10160000Y-7239000D02*
X10160000Y-6985000D01*
X17145000Y-7366000D02*
X10287000Y-7366000D01*
X10287000Y-7874000D02*
X17145000Y-7874000D01*
X10287000Y-8382000D02*
X10160000Y-8255000D01*
X17145000Y-8382000D02*
X10287000Y-8382000D01*
X17272000Y-8509000D02*
X17145000Y-8382000D01*
X10287000Y-11938000D02*
X17145000Y-11938000D01*
X10160000Y-6223000D02*
X10160000Y-5969000D01*
X17272000Y-11557000D02*
X17145000Y-11430000D01*
X17272000Y-12827000D02*
X17272000Y-12573000D01*
X10160000Y-13081000D02*
X10287000Y-12954000D01*
X17145000Y-4826000D02*
X17272000Y-4699000D01*
X10160000Y-14351000D02*
X10160000Y-14097000D01*
X10287000Y-14478000D02*
X10160000Y-14351000D01*
X10287000Y-13462000D02*
X10160000Y-13335000D01*
X10160000Y-12319000D02*
X10160000Y-12065000D01*
X17145000Y-7874000D02*
X17272000Y-7747000D01*
X17145000Y-13462000D02*
X10287000Y-13462000D01*
X17272000Y-6731000D02*
X17272000Y-6477000D01*
X10287000Y-12446000D02*
X10160000Y-12319000D01*
X17272000Y-14605000D02*
X17145000Y-14478000D01*
X17145000Y-8890000D02*
X17272000Y-8763000D01*
X17145000Y-11938000D02*
X17272000Y-11811000D01*
X17145000Y-14478000D02*
X10287000Y-14478000D01*
X10160000Y-12065000D02*
X10287000Y-11938000D01*
X17145000Y-12954000D02*
X17272000Y-12827000D01*
X10160000Y-14097000D02*
X10287000Y-13970000D01*
X10287000Y-4826000D02*
X17145000Y-4826000D01*
X10160000Y-4953000D02*
X10287000Y-4826000D01*
X17145000Y-12446000D02*
X10287000Y-12446000D01*
X17145000Y-10922000D02*
X17272000Y-10795000D01*
X17272000Y-13589000D02*
X17145000Y-13462000D01*
X10287000Y-8890000D02*
X17145000Y-8890000D01*
X10160000Y-11303000D02*
X10160000Y-11049000D01*
X17272000Y-11811000D02*
X17272000Y-11557000D01*
X10287000Y-5334000D02*
X10160000Y-5207000D01*
X10287000Y-12954000D02*
X17145000Y-12954000D01*
X17145000Y-13970000D02*
X17272000Y-13843000D01*
X17145000Y-11430000D02*
X10287000Y-11430000D01*
X17145000Y-9398000D02*
X10287000Y-9398000D01*
X10287000Y-11430000D02*
X10160000Y-11303000D01*
X17145000Y-9906000D02*
X17272000Y-9779000D01*
X17272000Y-13843000D02*
X17272000Y-13589000D01*
X10287000Y-9398000D02*
X10160000Y-9271000D01*
X10160000Y-5969000D02*
X10287000Y-5842000D01*
X17272000Y-7747000D02*
X17272000Y-7493000D01*
X10160000Y-8001000D02*
X10287000Y-7874000D01*
X17272000Y-10541000D02*
X17145000Y-10414000D01*
X17145000Y-10414000D02*
X10287000Y-10414000D01*
X10287000Y-10414000D02*
X10160000Y-10287000D01*
X10160000Y-10287000D02*
X10160000Y-10033000D01*
X17272000Y-7493000D02*
X17145000Y-7366000D01*
X17272000Y-8763000D02*
X17272000Y-8509000D01*
X17272000Y-12573000D02*
X17145000Y-12446000D01*
X10160000Y-11049000D02*
X10287000Y-10922000D01*
X10287000Y-13970000D02*
X17145000Y-13970000D01*
X10160000Y-10033000D02*
X10287000Y-9906000D01*
X10160000Y-13335000D02*
X10160000Y-13081000D01*
X10287000Y-9906000D02*
X17145000Y-9906000D01*
X10160000Y-8255000D02*
X10160000Y-8001000D01*
X17272000Y-15621000D02*
X17272000Y-14605000D01*
X17272000Y-10795000D02*
X17272000Y-10541000D01*
X17272000Y-9779000D02*
X17272000Y-9525000D01*
X10160000Y-9271000D02*
X10160000Y-9017000D01*
X10287000Y-7366000D02*
X10160000Y-7239000D01*
X17272000Y-9525000D02*
X17145000Y-9398000D01*
X10287000Y-10922000D02*
X17145000Y-10922000D01*
X10160000Y-9017000D02*
X10287000Y-8890000D01*
D23*
X4953000Y-3810000D02*
X5518685Y-3810000D01*
X5518685Y-3810000D02*
X17399000Y-3810000D01*
X-7900000Y-49450010D02*
X-9234315Y-49450010D01*
X-9234315Y-49450010D02*
X-9800000Y-49450010D01*
X-7825000Y-49450010D02*
X-7575000Y-49700010D01*
X-9800000Y-49450010D02*
X-7825000Y-49450010D01*
X-7175001Y-50100009D02*
X-6949991Y-50100009D01*
X-7575000Y-49700010D02*
X-7175001Y-50100009D01*
X-4575010Y-52474990D02*
X-324990Y-52474990D01*
X-6949991Y-50100009D02*
X-4575010Y-52474990D01*
X1300000Y-50850000D02*
X4350000Y-50850000D01*
X-324990Y-52474990D02*
X1300000Y-50850000D01*
X-9800000Y-49450010D02*
X-9800000Y-50400000D01*
D22*
X5334000Y-14579600D02*
X6045200Y-13868400D01*
X6045200Y-13868400D02*
X6045200Y-11480800D01*
X5878999Y-5777399D02*
X5334000Y-5232400D01*
X5878999Y-11314599D02*
X5878999Y-5777399D01*
X6045200Y-11480800D02*
X5878999Y-11314599D01*
X8585200Y-5232400D02*
X7264400Y-6553200D01*
X7264400Y-7207398D02*
X7823200Y-7766198D01*
X7264400Y-6553200D02*
X7264400Y-7207398D01*
X7823200Y-7766198D02*
X7823200Y-16205200D01*
X7823200Y-16205200D02*
X7162800Y-16865600D01*
X7162800Y-16865600D02*
X7162800Y-16865600D01*
X2590800Y-15748000D02*
X3911600Y-15748000D01*
X982002Y-16891000D02*
X1447800Y-16891000D01*
X-651999Y-18525001D02*
X982002Y-16891000D01*
X-8890000Y-3556000D02*
X-6974999Y-5471001D01*
X-8890000Y-1270000D02*
X-8890000Y-3556000D01*
X-6974999Y-5471001D02*
X-6974999Y-12898003D01*
X-6974999Y-12898003D02*
X-1348001Y-18525001D01*
X1447800Y-16891000D02*
X2590800Y-15748000D01*
X-1348001Y-18525001D02*
X-651999Y-18525001D01*
X-420001Y2119999D02*
X-1270000Y1270000D01*
X-94999Y2445001D02*
X-420001Y2119999D01*
X13628001Y2445001D02*
X-94999Y2445001D01*
X18796000Y-14732000D02*
X18161000Y-14097000D01*
X18796000Y-17526000D02*
X18796000Y-14732000D01*
X18161000Y-14097000D02*
X18161000Y-4953000D01*
X18324010Y-2251008D02*
X13628001Y2445001D01*
X18324010Y-4789990D02*
X18324010Y-2251008D01*
X18161000Y-4953000D02*
X18324010Y-4789990D01*
X-6660000Y-47430000D02*
X-10564998Y-43525002D01*
X-10564998Y-43525002D02*
X-10575000Y-43525002D01*
X-1651000Y-31750000D02*
X-1651000Y-30607000D01*
X-1651000Y-30607000D02*
X1778000Y-27178000D01*
X1778000Y-27178000D02*
X1778000Y-25654000D01*
X2540000Y-24892000D02*
X2540000Y-21336000D01*
X1778000Y-25654000D02*
X2540000Y-24892000D01*
X2794000Y-21082000D02*
X2540000Y-21336000D01*
X2794000Y-20675600D02*
X2794000Y-21082000D01*
D24*
G36*
X17509514Y4573243D02*
G01*
X17999622Y4425271D01*
X18451659Y4184920D01*
X18848399Y3861346D01*
X19174733Y3466877D01*
X19418233Y3016532D01*
X19569623Y2527470D01*
X19624995Y2000640D01*
X19625000Y1999267D01*
X19625001Y-55438736D01*
X19369090Y-55055738D01*
X18944262Y-54630910D01*
X18444717Y-54297125D01*
X17889652Y-54067209D01*
X17300399Y-53950000D01*
X16699601Y-53950000D01*
X16110348Y-54067209D01*
X15555283Y-54297125D01*
X15055738Y-54630910D01*
X14630910Y-55055738D01*
X14297125Y-55555283D01*
X14067209Y-56110348D01*
X13950000Y-56699601D01*
X13950000Y-57300399D01*
X14067209Y-57889652D01*
X14297125Y-58444717D01*
X14630910Y-58944262D01*
X15055738Y-59369090D01*
X15438735Y-59625000D01*
X-2125000Y-59625000D01*
X-2125000Y-58318419D01*
X-2123186Y-58300000D01*
X-2130426Y-58226487D01*
X-2151869Y-58155800D01*
X-2186691Y-58090653D01*
X-2233552Y-58033552D01*
X-2290653Y-57986691D01*
X-2355800Y-57951869D01*
X-2426487Y-57930426D01*
X-2481581Y-57925000D01*
X-2500000Y-57923186D01*
X-2518419Y-57925000D01*
X-3022717Y-57925000D01*
X-2874466Y-57801502D01*
X-2731622Y-57624817D01*
X-2640695Y-57451659D01*
X9750000Y-57451659D01*
X9750000Y-57668341D01*
X9792273Y-57880858D01*
X9875193Y-58081045D01*
X9995575Y-58261209D01*
X10148791Y-58414425D01*
X10328955Y-58534807D01*
X10529142Y-58617727D01*
X10741659Y-58660000D01*
X10958341Y-58660000D01*
X11170858Y-58617727D01*
X11371045Y-58534807D01*
X11551209Y-58414425D01*
X11704425Y-58261209D01*
X11824807Y-58081045D01*
X11907727Y-57880858D01*
X11950000Y-57668341D01*
X11950000Y-57451659D01*
X11907727Y-57239142D01*
X11824807Y-57038955D01*
X11704425Y-56858791D01*
X11551209Y-56705575D01*
X11371045Y-56585193D01*
X11170858Y-56502273D01*
X10958341Y-56460000D01*
X10741659Y-56460000D01*
X10529142Y-56502273D01*
X10328955Y-56585193D01*
X10148791Y-56705575D01*
X9995575Y-56858791D01*
X9875193Y-57038955D01*
X9792273Y-57239142D01*
X9750000Y-57451659D01*
X-2640695Y-57451659D01*
X-2625992Y-57423660D01*
X-2561636Y-57205760D01*
X-2641586Y-57025000D01*
X-3475000Y-57025000D01*
X-3475000Y-57045000D01*
X-3925000Y-57045000D01*
X-3925000Y-57025000D01*
X-4758414Y-57025000D01*
X-4838364Y-57205760D01*
X-4774008Y-57423660D01*
X-4668378Y-57624817D01*
X-4525534Y-57801502D01*
X-4377283Y-57925000D01*
X-10222717Y-57925000D01*
X-10074466Y-57801502D01*
X-9931622Y-57624817D01*
X-9825992Y-57423660D01*
X-9761636Y-57205760D01*
X-9841586Y-57025000D01*
X-10675000Y-57025000D01*
X-10675000Y-57045000D01*
X-11125000Y-57045000D01*
X-11125000Y-57025000D01*
X-11958414Y-57025000D01*
X-12038364Y-57205760D01*
X-11974008Y-57423660D01*
X-11868378Y-57624817D01*
X-11725534Y-57801502D01*
X-11577283Y-57925000D01*
X-11981581Y-57925000D01*
X-12000000Y-57923186D01*
X-12018419Y-57925000D01*
X-12073513Y-57930426D01*
X-12144200Y-57951869D01*
X-12209347Y-57986691D01*
X-12266448Y-58033552D01*
X-12313309Y-58090653D01*
X-12348131Y-58155800D01*
X-12369574Y-58226487D01*
X-12376814Y-58300000D01*
X-12374999Y-58318429D01*
X-12375000Y-59625000D01*
X-15438735Y-59625000D01*
X-15055738Y-59369090D01*
X-14630910Y-58944262D01*
X-14297125Y-58444717D01*
X-14067209Y-57889652D01*
X-13950000Y-57300399D01*
X-13950000Y-56699601D01*
X-14010739Y-56394240D01*
X-12038364Y-56394240D01*
X-11958414Y-56575000D01*
X-11125000Y-56575000D01*
X-11125000Y-55574108D01*
X-10675000Y-55574108D01*
X-10675000Y-56575000D01*
X-9841586Y-56575000D01*
X-9761636Y-56394240D01*
X-4838364Y-56394240D01*
X-4758414Y-56575000D01*
X-3925000Y-56575000D01*
X-3925000Y-55574108D01*
X-3475000Y-55574108D01*
X-3475000Y-56575000D01*
X-2641586Y-56575000D01*
X-2561636Y-56394240D01*
X-2625992Y-56176340D01*
X-2731622Y-55975183D01*
X-2874466Y-55798498D01*
X-3049035Y-55653076D01*
X-3248620Y-55544504D01*
X-3299434Y-55521225D01*
X-3475000Y-55574108D01*
X-3925000Y-55574108D01*
X-4100566Y-55521225D01*
X-4151380Y-55544504D01*
X-4350965Y-55653076D01*
X-4525534Y-55798498D01*
X-4668378Y-55975183D01*
X-4774008Y-56176340D01*
X-4838364Y-56394240D01*
X-9761636Y-56394240D01*
X-9825992Y-56176340D01*
X-9931622Y-55975183D01*
X-10074466Y-55798498D01*
X-10249035Y-55653076D01*
X-10448620Y-55544504D01*
X-10499434Y-55521225D01*
X-10675000Y-55574108D01*
X-11125000Y-55574108D01*
X-11300566Y-55521225D01*
X-11351380Y-55544504D01*
X-11550965Y-55653076D01*
X-11725534Y-55798498D01*
X-11868378Y-55975183D01*
X-11974008Y-56176340D01*
X-12038364Y-56394240D01*
X-14010739Y-56394240D01*
X-14067209Y-56110348D01*
X-14297125Y-55555283D01*
X-14630910Y-55055738D01*
X-15055738Y-54630910D01*
X-15555283Y-54297125D01*
X-15630990Y-54265766D01*
X-10603924Y-54265766D01*
X-10535187Y-54432129D01*
X-10435315Y-54581885D01*
X-10308146Y-54709280D01*
X-10158567Y-54809418D01*
X-10087586Y-54850974D01*
X-9950000Y-54793725D01*
X-9950000Y-54125000D01*
X-9500000Y-54125000D01*
X-9500000Y-54793725D01*
X-9362414Y-54850974D01*
X-9291433Y-54809418D01*
X-9141854Y-54709280D01*
X-9014685Y-54581885D01*
X-8914813Y-54432129D01*
X-8846076Y-54265766D01*
X-5753924Y-54265766D01*
X-5685187Y-54432129D01*
X-5585315Y-54581885D01*
X-5458146Y-54709280D01*
X-5308567Y-54809418D01*
X-5237586Y-54850974D01*
X-5100000Y-54793725D01*
X-5100000Y-54125000D01*
X-4650000Y-54125000D01*
X-4650000Y-54793725D01*
X-4512414Y-54850974D01*
X-4441433Y-54809418D01*
X-4291854Y-54709280D01*
X-4164685Y-54581885D01*
X-4064813Y-54432129D01*
X-3996076Y-54265766D01*
X-4065322Y-54125000D01*
X-4650000Y-54125000D01*
X-5100000Y-54125000D01*
X-5684678Y-54125000D01*
X-5753924Y-54265766D01*
X-8846076Y-54265766D01*
X-8915322Y-54125000D01*
X-9500000Y-54125000D01*
X-9950000Y-54125000D01*
X-10534678Y-54125000D01*
X-10603924Y-54265766D01*
X-15630990Y-54265766D01*
X-16110348Y-54067209D01*
X-16699601Y-53950000D01*
X-17300399Y-53950000D01*
X-17889652Y-54067209D01*
X-18444717Y-54297125D01*
X-18944262Y-54630910D01*
X-19369090Y-55055738D01*
X-19625000Y-55438735D01*
X-19625000Y-53534234D01*
X-10603924Y-53534234D01*
X-10534678Y-53675000D01*
X-9950000Y-53675000D01*
X-9950000Y-53006275D01*
X-9500000Y-53006275D01*
X-9500000Y-53675000D01*
X-8915322Y-53675000D01*
X-8846076Y-53534234D01*
X-8914813Y-53367871D01*
X-9014685Y-53218115D01*
X-9141854Y-53090720D01*
X-9291433Y-52990582D01*
X-9362414Y-52949026D01*
X-9500000Y-53006275D01*
X-9950000Y-53006275D01*
X-10087586Y-52949026D01*
X-10158567Y-52990582D01*
X-10308146Y-53090720D01*
X-10435315Y-53218115D01*
X-10535187Y-53367871D01*
X-10603924Y-53534234D01*
X-19625000Y-53534234D01*
X-19625000Y-48771659D01*
X-15920000Y-48771659D01*
X-15920000Y-48988341D01*
X-15877727Y-49200858D01*
X-15794807Y-49401045D01*
X-15674425Y-49581209D01*
X-15521209Y-49734425D01*
X-15341045Y-49854807D01*
X-15140858Y-49937727D01*
X-14928341Y-49980000D01*
X-14711659Y-49980000D01*
X-14499142Y-49937727D01*
X-14298955Y-49854807D01*
X-14118791Y-49734425D01*
X-13965575Y-49581209D01*
X-13877911Y-49450010D01*
X-10704354Y-49450010D01*
X-10700000Y-49494218D01*
X-10699999Y-50444207D01*
X-10686976Y-50576431D01*
X-10635513Y-50746081D01*
X-10551942Y-50902432D01*
X-10439474Y-51039475D01*
X-10302431Y-51151943D01*
X-10146080Y-51235514D01*
X-9976430Y-51286977D01*
X-9800000Y-51304354D01*
X-9623569Y-51286977D01*
X-9453919Y-51235514D01*
X-9297568Y-51151943D01*
X-9160525Y-51039475D01*
X-9048057Y-50902432D01*
X-8964486Y-50746081D01*
X-8913023Y-50576431D01*
X-8900000Y-50444207D01*
X-8900000Y-50350010D01*
X-8197792Y-50350010D01*
X-7842658Y-50705144D01*
X-7814476Y-50739484D01*
X-7677433Y-50851952D01*
X-7521082Y-50935523D01*
X-7351432Y-50986986D01*
X-7334099Y-50988693D01*
X-5322729Y-53000063D01*
X-5458146Y-53090720D01*
X-5585315Y-53218115D01*
X-5685187Y-53367871D01*
X-5753924Y-53534234D01*
X-5684678Y-53675000D01*
X-5100000Y-53675000D01*
X-5100000Y-53655000D01*
X-4650000Y-53655000D01*
X-4650000Y-53675000D01*
X-4065322Y-53675000D01*
X-3996076Y-53534234D01*
X-4061872Y-53374990D01*
X-369196Y-53374990D01*
X-324990Y-53379344D01*
X-280784Y-53374990D01*
X-280783Y-53374990D01*
X-148559Y-53361967D01*
X21091Y-53310504D01*
X177442Y-53226933D01*
X314485Y-53114465D01*
X342667Y-53080125D01*
X1672792Y-51750000D01*
X4394207Y-51750000D01*
X4526431Y-51736977D01*
X4696081Y-51685514D01*
X4852432Y-51601943D01*
X4989475Y-51489475D01*
X5101943Y-51352432D01*
X5185514Y-51196081D01*
X5236977Y-51026431D01*
X5254354Y-50850000D01*
X5236977Y-50673569D01*
X5185514Y-50503919D01*
X5101943Y-50347568D01*
X4989475Y-50210525D01*
X4852432Y-50098057D01*
X4696081Y-50014486D01*
X4526431Y-49963023D01*
X4394207Y-49950000D01*
X1344206Y-49950000D01*
X1300000Y-49945646D01*
X1255793Y-49950000D01*
X1123569Y-49963023D01*
X953919Y-50014486D01*
X797568Y-50098057D01*
X660525Y-50210525D01*
X632343Y-50244865D01*
X-697782Y-51574990D01*
X-4202218Y-51574990D01*
X-6282336Y-49494872D01*
X-6310516Y-49460534D01*
X-6447559Y-49348066D01*
X-6603910Y-49264495D01*
X-6773560Y-49213032D01*
X-6790893Y-49211325D01*
X-7157342Y-48844876D01*
X-7185525Y-48810535D01*
X-7322568Y-48698067D01*
X-7478919Y-48614496D01*
X-7648569Y-48563033D01*
X-7780793Y-48550010D01*
X-7780794Y-48550010D01*
X-7825000Y-48545656D01*
X-7869206Y-48550010D01*
X-9755794Y-48550010D01*
X-9800000Y-48545656D01*
X-9844207Y-48550010D01*
X-9976431Y-48563033D01*
X-10146081Y-48614496D01*
X-10302432Y-48698067D01*
X-10439475Y-48810535D01*
X-10551943Y-48947578D01*
X-10635514Y-49103929D01*
X-10686977Y-49273579D01*
X-10704354Y-49450010D01*
X-13877911Y-49450010D01*
X-13845193Y-49401045D01*
X-13762273Y-49200858D01*
X-13720000Y-48988341D01*
X-13720000Y-48771659D01*
X-13762273Y-48559142D01*
X-13845193Y-48358955D01*
X-13965575Y-48178791D01*
X-14118791Y-48025575D01*
X-14298955Y-47905193D01*
X-14499142Y-47822273D01*
X-14711659Y-47780000D01*
X-14928341Y-47780000D01*
X-15140858Y-47822273D01*
X-15341045Y-47905193D01*
X-15521209Y-48025575D01*
X-15674425Y-48178791D01*
X-15794807Y-48358955D01*
X-15877727Y-48559142D01*
X-15920000Y-48771659D01*
X-19625000Y-48771659D01*
X-19625000Y-43456058D01*
X-11275000Y-43456058D01*
X-11275000Y-43593946D01*
X-11248099Y-43729184D01*
X-11195332Y-43856576D01*
X-11118726Y-43971226D01*
X-11021224Y-44068728D01*
X-10906574Y-44145334D01*
X-10779182Y-44198101D01*
X-10643944Y-44225002D01*
X-10506056Y-44225002D01*
X-10472678Y-44218363D01*
X-7355020Y-47336021D01*
X-7360000Y-47361056D01*
X-7360000Y-47498944D01*
X-7333099Y-47634182D01*
X-7280332Y-47761574D01*
X-7203726Y-47876224D01*
X-7106224Y-47973726D01*
X-6991574Y-48050332D01*
X-6864182Y-48103099D01*
X-6728944Y-48130000D01*
X-6591056Y-48130000D01*
X-6455818Y-48103099D01*
X-6328426Y-48050332D01*
X-6213776Y-47973726D01*
X-6116274Y-47876224D01*
X-6039668Y-47761574D01*
X-5986901Y-47634182D01*
X-5960000Y-47498944D01*
X-5960000Y-47361056D01*
X-5986901Y-47225818D01*
X-6039668Y-47098426D01*
X-6116274Y-46983776D01*
X-6213776Y-46886274D01*
X-6328426Y-46809668D01*
X-6455818Y-46756901D01*
X-6591056Y-46730000D01*
X-6728944Y-46730000D01*
X-6753979Y-46734980D01*
X-8388959Y-45100000D01*
X-4200000Y-45100000D01*
X-4200000Y-46100000D01*
X-4198099Y-46119406D01*
X-4192428Y-46138172D01*
X-4183205Y-46155470D01*
X-4000000Y-46430278D01*
X-4000000Y-47200000D01*
X-3996449Y-47226413D01*
X-3989443Y-47244721D01*
X-3589443Y-48044721D01*
X-3583147Y-48055557D01*
X-3570711Y-48070711D01*
X-3555557Y-48083147D01*
X-3538268Y-48092388D01*
X-3519509Y-48098079D01*
X-3500000Y-48100000D01*
X-2400000Y-48100000D01*
X-2380388Y-48098058D01*
X-2361635Y-48092348D01*
X-2344356Y-48083089D01*
X-2329215Y-48070637D01*
X-2316795Y-48055470D01*
X-1318335Y-46557780D01*
X-1209792Y-46413056D01*
X8190000Y-46413056D01*
X8190000Y-46550944D01*
X8216901Y-46686182D01*
X8269668Y-46813574D01*
X8346274Y-46928224D01*
X8443776Y-47025726D01*
X8558426Y-47102332D01*
X8685818Y-47155099D01*
X8821056Y-47182000D01*
X8958944Y-47182000D01*
X8983979Y-47177020D01*
X9082721Y-47275762D01*
X9096026Y-47291974D01*
X9160740Y-47345084D01*
X9234573Y-47384548D01*
X9290383Y-47401478D01*
X9314685Y-47408850D01*
X9323098Y-47409679D01*
X9377126Y-47415000D01*
X9377132Y-47415000D01*
X9397999Y-47417055D01*
X9418866Y-47415000D01*
X13539093Y-47415000D01*
X13553274Y-47436224D01*
X13650776Y-47533726D01*
X13765426Y-47610332D01*
X13892818Y-47663099D01*
X14028056Y-47690000D01*
X14165944Y-47690000D01*
X14301182Y-47663099D01*
X14428574Y-47610332D01*
X14543224Y-47533726D01*
X14640726Y-47436224D01*
X14717332Y-47321574D01*
X14770099Y-47194182D01*
X14797000Y-47058944D01*
X14797000Y-46921056D01*
X14770099Y-46785818D01*
X14717332Y-46658426D01*
X14640726Y-46543776D01*
X14543224Y-46446274D01*
X14428574Y-46369668D01*
X14301182Y-46316901D01*
X14165944Y-46290000D01*
X14028056Y-46290000D01*
X13892818Y-46316901D01*
X13765426Y-46369668D01*
X13650776Y-46446274D01*
X13553274Y-46543776D01*
X13539093Y-46565000D01*
X9587204Y-46565000D01*
X9590000Y-46550944D01*
X9590000Y-46413056D01*
X9563099Y-46277818D01*
X9510332Y-46150426D01*
X9433726Y-46035776D01*
X9336224Y-45938274D01*
X9221574Y-45861668D01*
X9094182Y-45808901D01*
X8958944Y-45782000D01*
X8821056Y-45782000D01*
X8685818Y-45808901D01*
X8558426Y-45861668D01*
X8443776Y-45938274D01*
X8346274Y-46035776D01*
X8269668Y-46150426D01*
X8216901Y-46277818D01*
X8190000Y-46413056D01*
X-1209792Y-46413056D01*
X-1020000Y-46160000D01*
X-1007612Y-46138268D01*
X-1001921Y-46119509D01*
X-1000000Y-46100000D01*
X-1000000Y-46090162D01*
X-290000Y-46091935D01*
X-211586Y-46084212D01*
X-136186Y-46061340D01*
X-66697Y-46024197D01*
X-5789Y-45974211D01*
X44197Y-45913303D01*
X81340Y-45843814D01*
X104212Y-45768414D01*
X111935Y-45690000D01*
X110000Y-45490000D01*
X10000Y-45390000D01*
X-1000000Y-45390000D01*
X-1000000Y-44940000D01*
X10000Y-44940000D01*
X110000Y-44840000D01*
X111935Y-44640000D01*
X104212Y-44561586D01*
X81340Y-44486186D01*
X44197Y-44416697D01*
X-5789Y-44355789D01*
X-66697Y-44305803D01*
X-136186Y-44268660D01*
X-211586Y-44245788D01*
X-290000Y-44238065D01*
X-390000Y-44238315D01*
X-390000Y-43141685D01*
X-290000Y-43141935D01*
X-211586Y-43134212D01*
X-136186Y-43111340D01*
X-66697Y-43074197D01*
X-5789Y-43024211D01*
X44197Y-42963303D01*
X81340Y-42893814D01*
X104212Y-42818414D01*
X111935Y-42740000D01*
X110000Y-42540000D01*
X10000Y-42440000D01*
X-1165000Y-42440000D01*
X-1165000Y-42460000D01*
X-1615000Y-42460000D01*
X-1615000Y-42440000D01*
X-1635000Y-42440000D01*
X-1635000Y-41990000D01*
X-1615000Y-41990000D01*
X-1615000Y-41390000D01*
X-1165000Y-41390000D01*
X-1165000Y-41990000D01*
X10000Y-41990000D01*
X110000Y-41890000D01*
X111935Y-41690000D01*
X104212Y-41611586D01*
X81340Y-41536186D01*
X44197Y-41466697D01*
X-5789Y-41405789D01*
X-66697Y-41355803D01*
X-136186Y-41318660D01*
X-211586Y-41295788D01*
X-290000Y-41288065D01*
X-1065000Y-41290000D01*
X-1165000Y-41390000D01*
X-1615000Y-41390000D01*
X-1715000Y-41290000D01*
X-2169713Y-41288865D01*
X-2529289Y-40929289D01*
X-2544443Y-40916853D01*
X-2561732Y-40907612D01*
X-2580491Y-40901921D01*
X-2600000Y-40900000D01*
X-3100000Y-40900000D01*
X-3127832Y-40903951D01*
X-3146035Y-40911226D01*
X-3162470Y-40921913D01*
X-3662470Y-41321913D01*
X-3670711Y-41329289D01*
X-3683147Y-41344443D01*
X-3692388Y-41361732D01*
X-3698079Y-41380491D01*
X-3700000Y-41400000D01*
X-3700000Y-44832296D01*
X-4137139Y-45007152D01*
X-4155557Y-45016853D01*
X-4170711Y-45029289D01*
X-4183147Y-45044443D01*
X-4192388Y-45061732D01*
X-4198079Y-45080491D01*
X-4200000Y-45100000D01*
X-8388959Y-45100000D01*
X-9878321Y-43610639D01*
X-9875000Y-43593946D01*
X-9875000Y-43456058D01*
X-9901901Y-43320820D01*
X-9954668Y-43193428D01*
X-10031274Y-43078778D01*
X-10128776Y-42981276D01*
X-10243426Y-42904670D01*
X-10370818Y-42851903D01*
X-10506056Y-42825002D01*
X-10643944Y-42825002D01*
X-10779182Y-42851903D01*
X-10906574Y-42904670D01*
X-11021224Y-42981276D01*
X-11118726Y-43078778D01*
X-11195332Y-43193428D01*
X-11248099Y-43320820D01*
X-11275000Y-43456058D01*
X-19625000Y-43456058D01*
X-19625000Y-35595665D01*
X13165533Y-35595665D01*
X13257722Y-35761637D01*
X13480376Y-35841011D01*
X13714238Y-35875423D01*
X13950320Y-35863550D01*
X14179548Y-35805847D01*
X14286278Y-35761637D01*
X14378467Y-35595665D01*
X13772000Y-34989198D01*
X13165533Y-35595665D01*
X-19625000Y-35595665D01*
X-19625000Y-34613238D01*
X12567577Y-34613238D01*
X12579450Y-34849320D01*
X12637153Y-35078548D01*
X12681363Y-35185278D01*
X12847335Y-35277467D01*
X13453802Y-34671000D01*
X14090198Y-34671000D01*
X14696665Y-35277467D01*
X14862637Y-35185278D01*
X14942011Y-34962624D01*
X14976423Y-34728762D01*
X14964550Y-34492680D01*
X14906847Y-34263452D01*
X14862637Y-34156722D01*
X14696665Y-34064533D01*
X14090198Y-34671000D01*
X13453802Y-34671000D01*
X12847335Y-34064533D01*
X12681363Y-34156722D01*
X12601989Y-34379376D01*
X12567577Y-34613238D01*
X-19625000Y-34613238D01*
X-19625000Y-33944665D01*
X4783533Y-33944665D01*
X4875722Y-34110637D01*
X5098376Y-34190011D01*
X5332238Y-34224423D01*
X5568320Y-34212550D01*
X5797548Y-34154847D01*
X5904278Y-34110637D01*
X5996467Y-33944665D01*
X5390000Y-33338198D01*
X4783533Y-33944665D01*
X-19625000Y-33944665D01*
X-19625000Y-32962238D01*
X4185577Y-32962238D01*
X4197450Y-33198320D01*
X4255153Y-33427548D01*
X4299363Y-33534278D01*
X4465335Y-33626467D01*
X5071802Y-33020000D01*
X5708198Y-33020000D01*
X6314665Y-33626467D01*
X6480637Y-33534278D01*
X6560011Y-33311624D01*
X6594423Y-33077762D01*
X6582550Y-32841680D01*
X6524847Y-32612452D01*
X6480637Y-32505722D01*
X6314665Y-32413533D01*
X5708198Y-33020000D01*
X5071802Y-33020000D01*
X4465335Y-32413533D01*
X4299363Y-32505722D01*
X4219989Y-32728376D01*
X4185577Y-32962238D01*
X-19625000Y-32962238D01*
X-19625000Y-31681056D01*
X-2351000Y-31681056D01*
X-2351000Y-31818944D01*
X-2324099Y-31954182D01*
X-2271332Y-32081574D01*
X-2194726Y-32196224D01*
X-2097224Y-32293726D01*
X-1982574Y-32370332D01*
X-1855182Y-32423099D01*
X-1719944Y-32450000D01*
X-1582056Y-32450000D01*
X-1446818Y-32423099D01*
X-1319426Y-32370332D01*
X-1204776Y-32293726D01*
X-1107274Y-32196224D01*
X-1039863Y-32095335D01*
X4783533Y-32095335D01*
X5390000Y-32701802D01*
X5871802Y-32220000D01*
X7788549Y-32220000D01*
X7788549Y-33820000D01*
X7794341Y-33878810D01*
X7811496Y-33935360D01*
X7839353Y-33987477D01*
X7876842Y-34033158D01*
X7922523Y-34070647D01*
X7974640Y-34098504D01*
X8031190Y-34115659D01*
X8090000Y-34121451D01*
X9690000Y-34121451D01*
X9748810Y-34115659D01*
X9805360Y-34098504D01*
X9857477Y-34070647D01*
X9903158Y-34033158D01*
X9940647Y-33987477D01*
X9968504Y-33935360D01*
X9985659Y-33878810D01*
X9991451Y-33820000D01*
X9991451Y-33746335D01*
X13165533Y-33746335D01*
X13772000Y-34352802D01*
X14378467Y-33746335D01*
X14286278Y-33580363D01*
X14063624Y-33500989D01*
X13829762Y-33466577D01*
X13593680Y-33478450D01*
X13364452Y-33536153D01*
X13257722Y-33580363D01*
X13165533Y-33746335D01*
X9991451Y-33746335D01*
X9991451Y-32220000D01*
X9985659Y-32161190D01*
X9968504Y-32104640D01*
X9940647Y-32052523D01*
X9903158Y-32006842D01*
X9857477Y-31969353D01*
X9805360Y-31941496D01*
X9748810Y-31924341D01*
X9690000Y-31918549D01*
X8090000Y-31918549D01*
X8031190Y-31924341D01*
X7974640Y-31941496D01*
X7922523Y-31969353D01*
X7876842Y-32006842D01*
X7839353Y-32052523D01*
X7811496Y-32104640D01*
X7794341Y-32161190D01*
X7788549Y-32220000D01*
X5871802Y-32220000D01*
X5996467Y-32095335D01*
X5904278Y-31929363D01*
X5681624Y-31849989D01*
X5447762Y-31815577D01*
X5211680Y-31827450D01*
X4982452Y-31885153D01*
X4875722Y-31929363D01*
X4783533Y-32095335D01*
X-1039863Y-32095335D01*
X-1030668Y-32081574D01*
X-977901Y-31954182D01*
X-951000Y-31818944D01*
X-951000Y-31681056D01*
X-977901Y-31545818D01*
X-1030668Y-31418426D01*
X-1107274Y-31303776D01*
X-1204776Y-31206274D01*
X-1226000Y-31192093D01*
X-1226000Y-30783040D01*
X2063763Y-27493278D01*
X2079974Y-27479974D01*
X2133084Y-27415260D01*
X2172548Y-27341427D01*
X2193768Y-27271473D01*
X2196850Y-27261315D01*
X2198453Y-27245040D01*
X2203000Y-27198874D01*
X2203000Y-27198868D01*
X2205055Y-27178001D01*
X2203000Y-27157134D01*
X2203000Y-27086665D01*
X13165533Y-27086665D01*
X13257722Y-27252637D01*
X13480376Y-27332011D01*
X13714238Y-27366423D01*
X13950320Y-27354550D01*
X14179548Y-27296847D01*
X14286278Y-27252637D01*
X14378467Y-27086665D01*
X13772000Y-26480198D01*
X13165533Y-27086665D01*
X2203000Y-27086665D01*
X2203000Y-26104238D01*
X12567577Y-26104238D01*
X12579450Y-26340320D01*
X12637153Y-26569548D01*
X12681363Y-26676278D01*
X12847335Y-26768467D01*
X13453802Y-26162000D01*
X14090198Y-26162000D01*
X14696665Y-26768467D01*
X14862637Y-26676278D01*
X14942011Y-26453624D01*
X14976423Y-26219762D01*
X14964550Y-25983680D01*
X14906847Y-25754452D01*
X14862637Y-25647722D01*
X14696665Y-25555533D01*
X14090198Y-26162000D01*
X13453802Y-26162000D01*
X12847335Y-25555533D01*
X12681363Y-25647722D01*
X12601989Y-25870376D01*
X12567577Y-26104238D01*
X2203000Y-26104238D01*
X2203000Y-25830040D01*
X2597375Y-25435665D01*
X4783533Y-25435665D01*
X4875722Y-25601637D01*
X5098376Y-25681011D01*
X5332238Y-25715423D01*
X5568320Y-25703550D01*
X5797548Y-25645847D01*
X5904278Y-25601637D01*
X5996467Y-25435665D01*
X5390000Y-24829198D01*
X4783533Y-25435665D01*
X2597375Y-25435665D01*
X2825763Y-25207278D01*
X2841974Y-25193974D01*
X2856875Y-25175818D01*
X2862357Y-25169138D01*
X2895084Y-25129260D01*
X2925165Y-25072981D01*
X2934548Y-25055428D01*
X2958850Y-24975314D01*
X2959330Y-24970440D01*
X2965000Y-24912874D01*
X2965000Y-24912867D01*
X2967055Y-24892000D01*
X2965000Y-24871133D01*
X2965000Y-24453238D01*
X4185577Y-24453238D01*
X4197450Y-24689320D01*
X4255153Y-24918548D01*
X4299363Y-25025278D01*
X4465335Y-25117467D01*
X5071802Y-24511000D01*
X5708198Y-24511000D01*
X6314665Y-25117467D01*
X6480637Y-25025278D01*
X6560011Y-24802624D01*
X6594423Y-24568762D01*
X6582550Y-24332680D01*
X6524847Y-24103452D01*
X6480637Y-23996722D01*
X6314665Y-23904533D01*
X5708198Y-24511000D01*
X5071802Y-24511000D01*
X4465335Y-23904533D01*
X4299363Y-23996722D01*
X4219989Y-24219376D01*
X4185577Y-24453238D01*
X2965000Y-24453238D01*
X2965000Y-23586335D01*
X4783533Y-23586335D01*
X5390000Y-24192802D01*
X5871802Y-23711000D01*
X7788549Y-23711000D01*
X7788549Y-25311000D01*
X7794341Y-25369810D01*
X7811496Y-25426360D01*
X7839353Y-25478477D01*
X7876842Y-25524158D01*
X7922523Y-25561647D01*
X7974640Y-25589504D01*
X8031190Y-25606659D01*
X8090000Y-25612451D01*
X9690000Y-25612451D01*
X9748810Y-25606659D01*
X9805360Y-25589504D01*
X9857477Y-25561647D01*
X9903158Y-25524158D01*
X9940647Y-25478477D01*
X9968504Y-25426360D01*
X9985659Y-25369810D01*
X9991451Y-25311000D01*
X9991451Y-25237335D01*
X13165533Y-25237335D01*
X13772000Y-25843802D01*
X14378467Y-25237335D01*
X14286278Y-25071363D01*
X14063624Y-24991989D01*
X13829762Y-24957577D01*
X13593680Y-24969450D01*
X13364452Y-25027153D01*
X13257722Y-25071363D01*
X13165533Y-25237335D01*
X9991451Y-25237335D01*
X9991451Y-23711000D01*
X9985659Y-23652190D01*
X9968504Y-23595640D01*
X9940647Y-23543523D01*
X9903158Y-23497842D01*
X9857477Y-23460353D01*
X9805360Y-23432496D01*
X9748810Y-23415341D01*
X9690000Y-23409549D01*
X8090000Y-23409549D01*
X8031190Y-23415341D01*
X7974640Y-23432496D01*
X7922523Y-23460353D01*
X7876842Y-23497842D01*
X7839353Y-23543523D01*
X7811496Y-23595640D01*
X7794341Y-23652190D01*
X7788549Y-23711000D01*
X5871802Y-23711000D01*
X5996467Y-23586335D01*
X5904278Y-23420363D01*
X5681624Y-23340989D01*
X5447762Y-23306577D01*
X5211680Y-23318450D01*
X4982452Y-23376153D01*
X4875722Y-23420363D01*
X4783533Y-23586335D01*
X2965000Y-23586335D01*
X2965000Y-21512040D01*
X3079756Y-21397284D01*
X3095974Y-21383974D01*
X3149084Y-21319260D01*
X3181541Y-21258536D01*
X3240224Y-21219326D01*
X3337726Y-21121824D01*
X3414332Y-21007174D01*
X3467099Y-20879782D01*
X3494000Y-20744544D01*
X3494000Y-20606656D01*
X3467099Y-20471418D01*
X3414332Y-20344026D01*
X3337726Y-20229376D01*
X3240224Y-20131874D01*
X3125574Y-20055268D01*
X2998182Y-20002501D01*
X2862944Y-19975600D01*
X2725056Y-19975600D01*
X2589818Y-20002501D01*
X2462426Y-20055268D01*
X2347776Y-20131874D01*
X2250274Y-20229376D01*
X2173668Y-20344026D01*
X2120901Y-20471418D01*
X2094000Y-20606656D01*
X2094000Y-20744544D01*
X2120901Y-20879782D01*
X2173668Y-21007174D01*
X2212441Y-21065202D01*
X2184917Y-21098740D01*
X2145453Y-21172573D01*
X2121150Y-21252686D01*
X2112945Y-21336000D01*
X2115001Y-21356877D01*
X2115000Y-24715959D01*
X1492239Y-25338721D01*
X1476027Y-25352026D01*
X1462722Y-25368238D01*
X1462720Y-25368240D01*
X1455191Y-25377414D01*
X1422917Y-25416740D01*
X1388368Y-25481377D01*
X1383453Y-25490573D01*
X1359150Y-25570686D01*
X1350945Y-25654000D01*
X1353001Y-25674876D01*
X1353000Y-27001959D01*
X-1936761Y-30291721D01*
X-1952973Y-30305026D01*
X-2006083Y-30369740D01*
X-2045547Y-30443573D01*
X-2069850Y-30523686D01*
X-2078055Y-30607000D01*
X-2075999Y-30627876D01*
X-2076000Y-31192092D01*
X-2097224Y-31206274D01*
X-2194726Y-31303776D01*
X-2271332Y-31418426D01*
X-2324099Y-31545818D01*
X-2351000Y-31681056D01*
X-19625000Y-31681056D01*
X-19625000Y-28340000D01*
X-13250000Y-28340000D01*
X-13230491Y-28338079D01*
X-13211732Y-28332388D01*
X-13194443Y-28323147D01*
X-13179289Y-28310711D01*
X-13166853Y-28295557D01*
X-13157612Y-28278268D01*
X-13151921Y-28259509D01*
X-13150000Y-28240000D01*
X-13150000Y-420000D01*
X-12581451Y-420000D01*
X-12581451Y-2120000D01*
X-12575659Y-2178810D01*
X-12558504Y-2235360D01*
X-12530647Y-2287477D01*
X-12493158Y-2333158D01*
X-12447477Y-2370647D01*
X-12395360Y-2398504D01*
X-12338810Y-2415659D01*
X-12280000Y-2421451D01*
X-10580000Y-2421451D01*
X-10521190Y-2415659D01*
X-10464640Y-2398504D01*
X-10412523Y-2370647D01*
X-10366842Y-2333158D01*
X-10329353Y-2287477D01*
X-10301496Y-2235360D01*
X-10284341Y-2178810D01*
X-10278549Y-2120000D01*
X-10278549Y-1156735D01*
X-10040000Y-1156735D01*
X-10040000Y-1383265D01*
X-9995806Y-1605443D01*
X-9909116Y-1814729D01*
X-9783263Y-2003082D01*
X-9623082Y-2163263D01*
X-9434729Y-2289116D01*
X-9315000Y-2338710D01*
X-9314999Y-3535123D01*
X-9317055Y-3556000D01*
X-9308850Y-3639314D01*
X-9285699Y-3715628D01*
X-9284547Y-3719427D01*
X-9245083Y-3793260D01*
X-9218056Y-3826192D01*
X-9205770Y-3841162D01*
X-9191973Y-3857974D01*
X-9175761Y-3871279D01*
X-7399999Y-5647042D01*
X-7399998Y-12877126D01*
X-7402054Y-12898003D01*
X-7393849Y-12981317D01*
X-7371200Y-13055979D01*
X-7369546Y-13061430D01*
X-7330082Y-13135263D01*
X-7311857Y-13157470D01*
X-7291533Y-13182234D01*
X-7276972Y-13199977D01*
X-7260760Y-13213282D01*
X-1663280Y-18810763D01*
X-1649975Y-18826975D01*
X-1633763Y-18840280D01*
X-1633762Y-18840281D01*
X-1627468Y-18845446D01*
X-1585261Y-18880085D01*
X-1511428Y-18919549D01*
X-1466143Y-18933286D01*
X-1431316Y-18943851D01*
X-1424259Y-18944546D01*
X-1368875Y-18950001D01*
X-1368868Y-18950001D01*
X-1348001Y-18952056D01*
X-1327134Y-18950001D01*
X-672866Y-18950001D01*
X-651999Y-18952056D01*
X-631132Y-18950001D01*
X-631125Y-18950001D01*
X-568685Y-18943851D01*
X-488572Y-18919549D01*
X-414739Y-18880085D01*
X-355740Y-18831665D01*
X10498533Y-18831665D01*
X10590722Y-18997637D01*
X10813376Y-19077011D01*
X11047238Y-19111423D01*
X11283320Y-19099550D01*
X11512548Y-19041847D01*
X11619278Y-18997637D01*
X11711467Y-18831665D01*
X11105000Y-18225198D01*
X10498533Y-18831665D01*
X-355740Y-18831665D01*
X-350025Y-18826975D01*
X-336716Y-18810758D01*
X624804Y-17849238D01*
X9900577Y-17849238D01*
X9912450Y-18085320D01*
X9970153Y-18314548D01*
X10014363Y-18421278D01*
X10180335Y-18513467D01*
X10786802Y-17907000D01*
X11423198Y-17907000D01*
X12029665Y-18513467D01*
X12195637Y-18421278D01*
X12275011Y-18198624D01*
X12309423Y-17964762D01*
X12297550Y-17728680D01*
X12239847Y-17499452D01*
X12195637Y-17392722D01*
X12029665Y-17300533D01*
X11423198Y-17907000D01*
X10786802Y-17907000D01*
X10180335Y-17300533D01*
X10014363Y-17392722D01*
X9934989Y-17615376D01*
X9900577Y-17849238D01*
X624804Y-17849238D01*
X1158043Y-17316000D01*
X1426933Y-17316000D01*
X1447800Y-17318055D01*
X1468667Y-17316000D01*
X1468674Y-17316000D01*
X1531114Y-17309850D01*
X1611227Y-17285548D01*
X1685060Y-17246084D01*
X1749774Y-17192974D01*
X1763083Y-17176757D01*
X2766841Y-16173000D01*
X3353693Y-16173000D01*
X3367874Y-16194224D01*
X3465376Y-16291726D01*
X3580026Y-16368332D01*
X3707418Y-16421099D01*
X3842656Y-16448000D01*
X3980544Y-16448000D01*
X4115782Y-16421099D01*
X4243174Y-16368332D01*
X4357824Y-16291726D01*
X4455326Y-16194224D01*
X4531932Y-16079574D01*
X4584699Y-15952182D01*
X4611600Y-15816944D01*
X4611600Y-15679056D01*
X4584699Y-15543818D01*
X4531932Y-15416426D01*
X4455326Y-15301776D01*
X4357824Y-15204274D01*
X4243174Y-15127668D01*
X4115782Y-15074901D01*
X3980544Y-15048000D01*
X3842656Y-15048000D01*
X3707418Y-15074901D01*
X3580026Y-15127668D01*
X3465376Y-15204274D01*
X3367874Y-15301776D01*
X3353693Y-15323000D01*
X2611666Y-15323000D01*
X2590799Y-15320945D01*
X2569932Y-15323000D01*
X2569926Y-15323000D01*
X2515898Y-15328321D01*
X2507485Y-15329150D01*
X2495163Y-15332888D01*
X2427373Y-15353452D01*
X2353540Y-15392916D01*
X2317524Y-15422474D01*
X2305917Y-15432000D01*
X2288826Y-15446026D01*
X2275521Y-15462238D01*
X1271760Y-16466000D01*
X1002868Y-16466000D01*
X982001Y-16463945D01*
X961134Y-16466000D01*
X961128Y-16466000D01*
X912029Y-16470836D01*
X898687Y-16472150D01*
X878160Y-16478377D01*
X818575Y-16496452D01*
X744742Y-16535916D01*
X680028Y-16589026D01*
X666723Y-16605238D01*
X-326396Y-17598357D01*
X-326901Y-17595818D01*
X-379668Y-17468426D01*
X-456274Y-17353776D01*
X-553776Y-17256274D01*
X-575000Y-17242093D01*
X-575000Y-10276040D01*
X-523959Y-10225000D01*
X14810Y-10225000D01*
X65874Y-10301424D01*
X163376Y-10398926D01*
X278026Y-10475532D01*
X405418Y-10528299D01*
X540656Y-10555200D01*
X678544Y-10555200D01*
X813782Y-10528299D01*
X941174Y-10475532D01*
X1055824Y-10398926D01*
X1153326Y-10301424D01*
X1229932Y-10186774D01*
X1282699Y-10059382D01*
X1309600Y-9924144D01*
X1309600Y-9786256D01*
X1282699Y-9651018D01*
X1229932Y-9523626D01*
X1153326Y-9408976D01*
X1055824Y-9311474D01*
X941174Y-9234868D01*
X813782Y-9182101D01*
X678544Y-9155200D01*
X540656Y-9155200D01*
X405418Y-9182101D01*
X278026Y-9234868D01*
X163376Y-9311474D01*
X99850Y-9375000D01*
X-679134Y-9375000D01*
X-700001Y-9372945D01*
X-720868Y-9375000D01*
X-720874Y-9375000D01*
X-774902Y-9380321D01*
X-783315Y-9381150D01*
X-794203Y-9384453D01*
X-863427Y-9405452D01*
X-937260Y-9444916D01*
X-1001974Y-9498026D01*
X-1015279Y-9514238D01*
X-1285762Y-9784721D01*
X-1301973Y-9798026D01*
X-1315278Y-9814238D01*
X-1315280Y-9814240D01*
X-1325730Y-9826974D01*
X-1355083Y-9862740D01*
X-1387904Y-9924144D01*
X-1394547Y-9936573D01*
X-1418850Y-10016686D01*
X-1427055Y-10100000D01*
X-1424999Y-10120877D01*
X-1425000Y-17242093D01*
X-1446224Y-17256274D01*
X-1543726Y-17353776D01*
X-1620332Y-17468426D01*
X-1673099Y-17595818D01*
X-1673604Y-17598357D01*
X-6549999Y-12721963D01*
X-6549999Y-5491867D01*
X-6547944Y-5471000D01*
X-6549999Y-5450133D01*
X-6549999Y-5450127D01*
X-6556149Y-5387687D01*
X-6556333Y-5387078D01*
X-6564988Y-5358549D01*
X-6580451Y-5307574D01*
X-6619915Y-5233741D01*
X-6651827Y-5194857D01*
X-6659719Y-5185240D01*
X-6659720Y-5185239D01*
X-6673025Y-5169027D01*
X-6689236Y-5155723D01*
X-8465000Y-3379960D01*
X-8465000Y-2338710D01*
X-8345271Y-2289116D01*
X-8156918Y-2163263D01*
X-7996737Y-2003082D01*
X-7870884Y-1814729D01*
X-7816975Y-1684581D01*
X-7529258Y-1684581D01*
X-7425718Y-1906677D01*
X-7280839Y-2104306D01*
X-7100188Y-2269873D01*
X-6890708Y-2397015D01*
X-6764579Y-2449247D01*
X-6575000Y-2397774D01*
X-6575000Y-1495000D01*
X-6125000Y-1495000D01*
X-6125000Y-2397774D01*
X-5935421Y-2449247D01*
X-5809292Y-2397015D01*
X-5599812Y-2269873D01*
X-5419161Y-2104306D01*
X-5274282Y-1906677D01*
X-5170742Y-1684581D01*
X-5220406Y-1495000D01*
X-6125000Y-1495000D01*
X-6575000Y-1495000D01*
X-7479594Y-1495000D01*
X-7529258Y-1684581D01*
X-7816975Y-1684581D01*
X-7784194Y-1605443D01*
X-7740000Y-1383265D01*
X-7740000Y-1156735D01*
X-4960000Y-1156735D01*
X-4960000Y-1383265D01*
X-4915806Y-1605443D01*
X-4829116Y-1814729D01*
X-4703263Y-2003082D01*
X-4543082Y-2163263D01*
X-4354729Y-2289116D01*
X-4145443Y-2375806D01*
X-3923265Y-2420000D01*
X-3696735Y-2420000D01*
X-3474557Y-2375806D01*
X-3265271Y-2289116D01*
X-3076918Y-2163263D01*
X-2916737Y-2003082D01*
X-2790884Y-1814729D01*
X-2736975Y-1684581D01*
X-2449258Y-1684581D01*
X-2345718Y-1906677D01*
X-2200839Y-2104306D01*
X-2020188Y-2269873D01*
X-1810708Y-2397015D01*
X-1684579Y-2449247D01*
X-1495000Y-2397774D01*
X-1495000Y-1495000D01*
X-1045000Y-1495000D01*
X-1045000Y-2397774D01*
X-855421Y-2449247D01*
X-729292Y-2397015D01*
X-519812Y-2269873D01*
X-339161Y-2104306D01*
X-194282Y-1906677D01*
X-90742Y-1684581D01*
X-140406Y-1495000D01*
X-1045000Y-1495000D01*
X-1495000Y-1495000D01*
X-2399594Y-1495000D01*
X-2449258Y-1684581D01*
X-2736975Y-1684581D01*
X-2704194Y-1605443D01*
X-2660000Y-1383265D01*
X-2660000Y-1156735D01*
X120000Y-1156735D01*
X120000Y-1383265D01*
X164194Y-1605443D01*
X250884Y-1814729D01*
X376737Y-2003082D01*
X536918Y-2163263D01*
X725271Y-2289116D01*
X934557Y-2375806D01*
X1156735Y-2420000D01*
X1383265Y-2420000D01*
X1605443Y-2375806D01*
X1814729Y-2289116D01*
X2003082Y-2163263D01*
X2163263Y-2003082D01*
X2289116Y-1814729D01*
X2375806Y-1605443D01*
X2420000Y-1383265D01*
X2420000Y-1156735D01*
X2660000Y-1156735D01*
X2660000Y-1383265D01*
X2704194Y-1605443D01*
X2790884Y-1814729D01*
X2916737Y-2003082D01*
X3076918Y-2163263D01*
X3265271Y-2289116D01*
X3474557Y-2375806D01*
X3696735Y-2420000D01*
X3923265Y-2420000D01*
X4145443Y-2375806D01*
X4354729Y-2289116D01*
X4543082Y-2163263D01*
X4703263Y-2003082D01*
X4829116Y-1814729D01*
X4915806Y-1605443D01*
X4960000Y-1383265D01*
X4960000Y-1156735D01*
X5200000Y-1156735D01*
X5200000Y-1383265D01*
X5244194Y-1605443D01*
X5330884Y-1814729D01*
X5456737Y-2003082D01*
X5616918Y-2163263D01*
X5805271Y-2289116D01*
X6014557Y-2375806D01*
X6236735Y-2420000D01*
X6463265Y-2420000D01*
X6685443Y-2375806D01*
X6894729Y-2289116D01*
X7083082Y-2163263D01*
X7243263Y-2003082D01*
X7369116Y-1814729D01*
X7455806Y-1605443D01*
X7500000Y-1383265D01*
X7500000Y-1156735D01*
X7740000Y-1156735D01*
X7740000Y-1383265D01*
X7784194Y-1605443D01*
X7870884Y-1814729D01*
X7996737Y-2003082D01*
X8156918Y-2163263D01*
X8345271Y-2289116D01*
X8554557Y-2375806D01*
X8776735Y-2420000D01*
X9003265Y-2420000D01*
X9225443Y-2375806D01*
X9434729Y-2289116D01*
X9623082Y-2163263D01*
X9783263Y-2003082D01*
X9909116Y-1814729D01*
X9995806Y-1605443D01*
X10040000Y-1383265D01*
X10040000Y-1156735D01*
X10280000Y-1156735D01*
X10280000Y-1383265D01*
X10324194Y-1605443D01*
X10410884Y-1814729D01*
X10536737Y-2003082D01*
X10696918Y-2163263D01*
X10885271Y-2289116D01*
X11094557Y-2375806D01*
X11316735Y-2420000D01*
X11543265Y-2420000D01*
X11765443Y-2375806D01*
X11974729Y-2289116D01*
X12163082Y-2163263D01*
X12323263Y-2003082D01*
X12449116Y-1814729D01*
X12535806Y-1605443D01*
X12580000Y-1383265D01*
X12580000Y-1156735D01*
X12535806Y-934557D01*
X12449116Y-725271D01*
X12323263Y-536918D01*
X12163082Y-376737D01*
X11974729Y-250884D01*
X11765443Y-164194D01*
X11543265Y-120000D01*
X11316735Y-120000D01*
X11094557Y-164194D01*
X10885271Y-250884D01*
X10696918Y-376737D01*
X10536737Y-536918D01*
X10410884Y-725271D01*
X10324194Y-934557D01*
X10280000Y-1156735D01*
X10040000Y-1156735D01*
X9995806Y-934557D01*
X9909116Y-725271D01*
X9783263Y-536918D01*
X9623082Y-376737D01*
X9434729Y-250884D01*
X9225443Y-164194D01*
X9003265Y-120000D01*
X8776735Y-120000D01*
X8554557Y-164194D01*
X8345271Y-250884D01*
X8156918Y-376737D01*
X7996737Y-536918D01*
X7870884Y-725271D01*
X7784194Y-934557D01*
X7740000Y-1156735D01*
X7500000Y-1156735D01*
X7455806Y-934557D01*
X7369116Y-725271D01*
X7243263Y-536918D01*
X7083082Y-376737D01*
X6894729Y-250884D01*
X6685443Y-164194D01*
X6463265Y-120000D01*
X6236735Y-120000D01*
X6014557Y-164194D01*
X5805271Y-250884D01*
X5616918Y-376737D01*
X5456737Y-536918D01*
X5330884Y-725271D01*
X5244194Y-934557D01*
X5200000Y-1156735D01*
X4960000Y-1156735D01*
X4915806Y-934557D01*
X4829116Y-725271D01*
X4703263Y-536918D01*
X4543082Y-376737D01*
X4354729Y-250884D01*
X4145443Y-164194D01*
X3923265Y-120000D01*
X3696735Y-120000D01*
X3474557Y-164194D01*
X3265271Y-250884D01*
X3076918Y-376737D01*
X2916737Y-536918D01*
X2790884Y-725271D01*
X2704194Y-934557D01*
X2660000Y-1156735D01*
X2420000Y-1156735D01*
X2375806Y-934557D01*
X2289116Y-725271D01*
X2163263Y-536918D01*
X2003082Y-376737D01*
X1814729Y-250884D01*
X1605443Y-164194D01*
X1383265Y-120000D01*
X1156735Y-120000D01*
X934557Y-164194D01*
X725271Y-250884D01*
X536918Y-376737D01*
X376737Y-536918D01*
X250884Y-725271D01*
X164194Y-934557D01*
X120000Y-1156735D01*
X-2660000Y-1156735D01*
X-2704194Y-934557D01*
X-2736974Y-855419D01*
X-2449258Y-855419D01*
X-2399594Y-1045000D01*
X-1495000Y-1045000D01*
X-1495000Y-142226D01*
X-1045000Y-142226D01*
X-1045000Y-1045000D01*
X-140406Y-1045000D01*
X-90742Y-855419D01*
X-194282Y-633323D01*
X-339161Y-435694D01*
X-519812Y-270127D01*
X-729292Y-142985D01*
X-855421Y-90753D01*
X-1045000Y-142226D01*
X-1495000Y-142226D01*
X-1684579Y-90753D01*
X-1810708Y-142985D01*
X-2020188Y-270127D01*
X-2200839Y-435694D01*
X-2345718Y-633323D01*
X-2449258Y-855419D01*
X-2736974Y-855419D01*
X-2790884Y-725271D01*
X-2916737Y-536918D01*
X-3076918Y-376737D01*
X-3265271Y-250884D01*
X-3474557Y-164194D01*
X-3696735Y-120000D01*
X-3923265Y-120000D01*
X-4145443Y-164194D01*
X-4354729Y-250884D01*
X-4543082Y-376737D01*
X-4703263Y-536918D01*
X-4829116Y-725271D01*
X-4915806Y-934557D01*
X-4960000Y-1156735D01*
X-7740000Y-1156735D01*
X-7784194Y-934557D01*
X-7816974Y-855419D01*
X-7529258Y-855419D01*
X-7479594Y-1045000D01*
X-6575000Y-1045000D01*
X-6575000Y-142226D01*
X-6125000Y-142226D01*
X-6125000Y-1045000D01*
X-5220406Y-1045000D01*
X-5170742Y-855419D01*
X-5274282Y-633323D01*
X-5419161Y-435694D01*
X-5599812Y-270127D01*
X-5809292Y-142985D01*
X-5935421Y-90753D01*
X-6125000Y-142226D01*
X-6575000Y-142226D01*
X-6764579Y-90753D01*
X-6890708Y-142985D01*
X-7100188Y-270127D01*
X-7280839Y-435694D01*
X-7425718Y-633323D01*
X-7529258Y-855419D01*
X-7816974Y-855419D01*
X-7870884Y-725271D01*
X-7996737Y-536918D01*
X-8156918Y-376737D01*
X-8345271Y-250884D01*
X-8554557Y-164194D01*
X-8776735Y-120000D01*
X-9003265Y-120000D01*
X-9225443Y-164194D01*
X-9434729Y-250884D01*
X-9623082Y-376737D01*
X-9783263Y-536918D01*
X-9909116Y-725271D01*
X-9995806Y-934557D01*
X-10040000Y-1156735D01*
X-10278549Y-1156735D01*
X-10278549Y-420000D01*
X-10284341Y-361190D01*
X-10301496Y-304640D01*
X-10329353Y-252523D01*
X-10366842Y-206842D01*
X-10412523Y-169353D01*
X-10464640Y-141496D01*
X-10521190Y-124341D01*
X-10580000Y-118549D01*
X-12280000Y-118549D01*
X-12338810Y-124341D01*
X-12395360Y-141496D01*
X-12447477Y-169353D01*
X-12493158Y-206842D01*
X-12530647Y-252523D01*
X-12558504Y-304640D01*
X-12575659Y-361190D01*
X-12581451Y-420000D01*
X-13150000Y-420000D01*
X-13150000Y-40000D01*
X-13151921Y-20491D01*
X-13157612Y-1732D01*
X-13166853Y15557D01*
X-13179289Y30711D01*
X-13194443Y43147D01*
X-13211732Y52388D01*
X-13230491Y58079D01*
X-13250000Y60000D01*
X-19625000Y60000D01*
X-19625000Y1981662D01*
X-19581203Y2428341D01*
X-17220000Y2428341D01*
X-17220000Y2211659D01*
X-17177727Y1999142D01*
X-17094807Y1798955D01*
X-16974425Y1618791D01*
X-16821209Y1465575D01*
X-16641045Y1345193D01*
X-16440858Y1262273D01*
X-16228341Y1220000D01*
X-16011659Y1220000D01*
X-15799142Y1262273D01*
X-15598955Y1345193D01*
X-15541977Y1383265D01*
X-12580000Y1383265D01*
X-12580000Y1156735D01*
X-12535806Y934557D01*
X-12449116Y725271D01*
X-12323263Y536918D01*
X-12163082Y376737D01*
X-11974729Y250884D01*
X-11765443Y164194D01*
X-11543265Y120000D01*
X-11316735Y120000D01*
X-11094557Y164194D01*
X-10885271Y250884D01*
X-10696918Y376737D01*
X-10536737Y536918D01*
X-10410884Y725271D01*
X-10324194Y934557D01*
X-10280000Y1156735D01*
X-10280000Y1383265D01*
X-10040000Y1383265D01*
X-10040000Y1156735D01*
X-9995806Y934557D01*
X-9909116Y725271D01*
X-9783263Y536918D01*
X-9623082Y376737D01*
X-9434729Y250884D01*
X-9225443Y164194D01*
X-9003265Y120000D01*
X-8776735Y120000D01*
X-8554557Y164194D01*
X-8345271Y250884D01*
X-8156918Y376737D01*
X-7996737Y536918D01*
X-7870884Y725271D01*
X-7784194Y934557D01*
X-7740000Y1156735D01*
X-7740000Y1383265D01*
X-7500000Y1383265D01*
X-7500000Y1156735D01*
X-7455806Y934557D01*
X-7369116Y725271D01*
X-7243263Y536918D01*
X-7083082Y376737D01*
X-6894729Y250884D01*
X-6685443Y164194D01*
X-6463265Y120000D01*
X-6236735Y120000D01*
X-6014557Y164194D01*
X-5805271Y250884D01*
X-5616918Y376737D01*
X-5456737Y536918D01*
X-5330884Y725271D01*
X-5276975Y855419D01*
X-4989258Y855419D01*
X-4885718Y633323D01*
X-4740839Y435694D01*
X-4560188Y270127D01*
X-4350708Y142985D01*
X-4224579Y90753D01*
X-4035000Y142226D01*
X-4035000Y1045000D01*
X-3585000Y1045000D01*
X-3585000Y142226D01*
X-3395421Y90753D01*
X-3269292Y142985D01*
X-3059812Y270127D01*
X-2879161Y435694D01*
X-2734282Y633323D01*
X-2630742Y855419D01*
X-2680406Y1045000D01*
X-3585000Y1045000D01*
X-4035000Y1045000D01*
X-4939594Y1045000D01*
X-4989258Y855419D01*
X-5276975Y855419D01*
X-5244194Y934557D01*
X-5200000Y1156735D01*
X-5200000Y1383265D01*
X-2420000Y1383265D01*
X-2420000Y1156735D01*
X-2375806Y934557D01*
X-2289116Y725271D01*
X-2163263Y536918D01*
X-2003082Y376737D01*
X-1814729Y250884D01*
X-1605443Y164194D01*
X-1383265Y120000D01*
X-1156735Y120000D01*
X-934557Y164194D01*
X-725271Y250884D01*
X-536918Y376737D01*
X-376737Y536918D01*
X-250884Y725271D01*
X-164194Y934557D01*
X-120000Y1156735D01*
X-120000Y1383265D01*
X-164194Y1605443D01*
X-213788Y1725171D01*
X-104721Y1834238D01*
X-104717Y1834243D01*
X81042Y2020001D01*
X393656Y2020001D01*
X376737Y2003082D01*
X250884Y1814729D01*
X164194Y1605443D01*
X120000Y1383265D01*
X120000Y1156735D01*
X164194Y934557D01*
X250884Y725271D01*
X376737Y536918D01*
X536918Y376737D01*
X725271Y250884D01*
X934557Y164194D01*
X1156735Y120000D01*
X1383265Y120000D01*
X1605443Y164194D01*
X1814729Y250884D01*
X2003082Y376737D01*
X2163263Y536918D01*
X2289116Y725271D01*
X2375806Y934557D01*
X2420000Y1156735D01*
X2420000Y1383265D01*
X2375806Y1605443D01*
X2289116Y1814729D01*
X2163263Y2003082D01*
X2146344Y2020001D01*
X2933656Y2020001D01*
X2916737Y2003082D01*
X2790884Y1814729D01*
X2704194Y1605443D01*
X2660000Y1383265D01*
X2660000Y1156735D01*
X2704194Y934557D01*
X2790884Y725271D01*
X2916737Y536918D01*
X3076918Y376737D01*
X3265271Y250884D01*
X3474557Y164194D01*
X3696735Y120000D01*
X3923265Y120000D01*
X4145443Y164194D01*
X4354729Y250884D01*
X4543082Y376737D01*
X4703263Y536918D01*
X4829116Y725271D01*
X4915806Y934557D01*
X4960000Y1156735D01*
X4960000Y1383265D01*
X4915806Y1605443D01*
X4829116Y1814729D01*
X4703263Y2003082D01*
X4686344Y2020001D01*
X5473656Y2020001D01*
X5456737Y2003082D01*
X5330884Y1814729D01*
X5244194Y1605443D01*
X5200000Y1383265D01*
X5200000Y1156735D01*
X5244194Y934557D01*
X5330884Y725271D01*
X5456737Y536918D01*
X5616918Y376737D01*
X5805271Y250884D01*
X6014557Y164194D01*
X6236735Y120000D01*
X6463265Y120000D01*
X6685443Y164194D01*
X6894729Y250884D01*
X7083082Y376737D01*
X7243263Y536918D01*
X7369116Y725271D01*
X7455806Y934557D01*
X7500000Y1156735D01*
X7500000Y1383265D01*
X7455806Y1605443D01*
X7369116Y1814729D01*
X7243263Y2003082D01*
X7226344Y2020001D01*
X8013656Y2020001D01*
X7996737Y2003082D01*
X7870884Y1814729D01*
X7784194Y1605443D01*
X7740000Y1383265D01*
X7740000Y1156735D01*
X7784194Y934557D01*
X7870884Y725271D01*
X7996737Y536918D01*
X8156918Y376737D01*
X8345271Y250884D01*
X8554557Y164194D01*
X8776735Y120000D01*
X9003265Y120000D01*
X9225443Y164194D01*
X9434729Y250884D01*
X9623082Y376737D01*
X9783263Y536918D01*
X9909116Y725271D01*
X9995806Y934557D01*
X10040000Y1156735D01*
X10040000Y1383265D01*
X9995806Y1605443D01*
X9909116Y1814729D01*
X9783263Y2003082D01*
X9766344Y2020001D01*
X10553656Y2020001D01*
X10536737Y2003082D01*
X10410884Y1814729D01*
X10324194Y1605443D01*
X10280000Y1383265D01*
X10280000Y1156735D01*
X10324194Y934557D01*
X10410884Y725271D01*
X10536737Y536918D01*
X10696918Y376737D01*
X10885271Y250884D01*
X11094557Y164194D01*
X11316735Y120000D01*
X11543265Y120000D01*
X11765443Y164194D01*
X11974729Y250884D01*
X12163082Y376737D01*
X12323263Y536918D01*
X12449116Y725271D01*
X12535806Y934557D01*
X12580000Y1156735D01*
X12580000Y1383265D01*
X12535806Y1605443D01*
X12449116Y1814729D01*
X12323263Y2003082D01*
X12306344Y2020001D01*
X13451961Y2020001D01*
X17899011Y-2427049D01*
X17899011Y-3056763D01*
X17745081Y-2974486D01*
X17575431Y-2923023D01*
X17443207Y-2910000D01*
X3765793Y-2910000D01*
X3633569Y-2923023D01*
X3463919Y-2974486D01*
X3307568Y-3058057D01*
X3170525Y-3170525D01*
X3058057Y-3307568D01*
X2974486Y-3463919D01*
X2923023Y-3633569D01*
X2905646Y-3810000D01*
X2923023Y-3986431D01*
X2974486Y-4156081D01*
X3058057Y-4312432D01*
X3170525Y-4449475D01*
X3307568Y-4561943D01*
X3463919Y-4645514D01*
X3633569Y-4696977D01*
X3765793Y-4710000D01*
X4866450Y-4710000D01*
X4790274Y-4786176D01*
X4713668Y-4900826D01*
X4660901Y-5028218D01*
X4634000Y-5163456D01*
X4634000Y-5301344D01*
X4660901Y-5436582D01*
X4713668Y-5563974D01*
X4790274Y-5678624D01*
X4887776Y-5776126D01*
X5002426Y-5852732D01*
X5129818Y-5905499D01*
X5265056Y-5932400D01*
X5402944Y-5932400D01*
X5427979Y-5927420D01*
X5454000Y-5953441D01*
X5453999Y-10202536D01*
X5446332Y-10184026D01*
X5369726Y-10069376D01*
X5272224Y-9971874D01*
X5157574Y-9895268D01*
X5030182Y-9842501D01*
X4894944Y-9815600D01*
X4757056Y-9815600D01*
X4621818Y-9842501D01*
X4494426Y-9895268D01*
X4379776Y-9971874D01*
X4282274Y-10069376D01*
X4205668Y-10184026D01*
X4152901Y-10311418D01*
X4126000Y-10446656D01*
X4126000Y-10584544D01*
X4130980Y-10609579D01*
X933439Y-13807121D01*
X917227Y-13820426D01*
X903922Y-13836638D01*
X903920Y-13836640D01*
X901867Y-13839142D01*
X864117Y-13885140D01*
X827569Y-13953518D01*
X824653Y-13958973D01*
X800350Y-14039086D01*
X792145Y-14122400D01*
X794201Y-14143276D01*
X794201Y-14174092D01*
X772976Y-14188274D01*
X675474Y-14285776D01*
X598868Y-14400426D01*
X546101Y-14527818D01*
X519200Y-14663056D01*
X519200Y-14800944D01*
X546101Y-14936182D01*
X598868Y-15063574D01*
X675474Y-15178224D01*
X772976Y-15275726D01*
X887626Y-15352332D01*
X1015018Y-15405099D01*
X1150256Y-15432000D01*
X1288144Y-15432000D01*
X1423382Y-15405099D01*
X1550774Y-15352332D01*
X1665424Y-15275726D01*
X1762926Y-15178224D01*
X1839532Y-15063574D01*
X1892299Y-14936182D01*
X1919200Y-14800944D01*
X1919200Y-14663056D01*
X1892299Y-14527818D01*
X1839532Y-14400426D01*
X1762926Y-14285776D01*
X1709895Y-14232745D01*
X4732021Y-11210620D01*
X4757056Y-11215600D01*
X4894944Y-11215600D01*
X5030182Y-11188699D01*
X5157574Y-11135932D01*
X5272224Y-11059326D01*
X5369726Y-10961824D01*
X5446332Y-10847174D01*
X5453999Y-10828664D01*
X5453999Y-11293732D01*
X5451944Y-11314599D01*
X5453999Y-11335466D01*
X5453999Y-11335472D01*
X5457909Y-11375165D01*
X5460149Y-11397913D01*
X5462819Y-11406713D01*
X5484451Y-11478025D01*
X5523915Y-11551858D01*
X5577025Y-11616573D01*
X5593243Y-11629883D01*
X5620201Y-11656841D01*
X5620200Y-13692359D01*
X5427979Y-13884580D01*
X5402944Y-13879600D01*
X5265056Y-13879600D01*
X5129818Y-13906501D01*
X5002426Y-13959268D01*
X4887776Y-14035874D01*
X4790274Y-14133376D01*
X4713668Y-14248026D01*
X4660901Y-14375418D01*
X4634000Y-14510656D01*
X4634000Y-14648544D01*
X4660901Y-14783782D01*
X4713668Y-14911174D01*
X4790274Y-15025824D01*
X4887776Y-15123326D01*
X5002426Y-15199932D01*
X5129818Y-15252699D01*
X5265056Y-15279600D01*
X5402944Y-15279600D01*
X5538182Y-15252699D01*
X5665574Y-15199932D01*
X5780224Y-15123326D01*
X5877726Y-15025824D01*
X5954332Y-14911174D01*
X6007099Y-14783782D01*
X6034000Y-14648544D01*
X6034000Y-14510656D01*
X6029020Y-14485621D01*
X6330963Y-14183678D01*
X6347174Y-14170374D01*
X6361782Y-14152575D01*
X6371879Y-14140271D01*
X6400284Y-14105660D01*
X6429072Y-14051800D01*
X6439748Y-14031828D01*
X6464050Y-13951714D01*
X6464513Y-13947015D01*
X6470200Y-13889274D01*
X6470200Y-13889267D01*
X6472255Y-13868400D01*
X6470200Y-13847533D01*
X6470200Y-11501667D01*
X6472255Y-11480800D01*
X6470200Y-11459933D01*
X6470200Y-11459926D01*
X6464050Y-11397486D01*
X6456531Y-11372698D01*
X6439748Y-11317372D01*
X6425721Y-11291130D01*
X6400284Y-11243540D01*
X6347174Y-11178826D01*
X6330956Y-11165516D01*
X6303999Y-11138559D01*
X6303999Y-8304846D01*
X6314274Y-8320224D01*
X6411776Y-8417726D01*
X6526426Y-8494332D01*
X6653818Y-8547099D01*
X6789056Y-8574000D01*
X6926944Y-8574000D01*
X7062182Y-8547099D01*
X7189574Y-8494332D01*
X7304224Y-8417726D01*
X7398200Y-8323750D01*
X7398201Y-16029159D01*
X7256780Y-16170580D01*
X7231744Y-16165600D01*
X7093856Y-16165600D01*
X6958618Y-16192501D01*
X6831226Y-16245268D01*
X6716576Y-16321874D01*
X6619074Y-16419376D01*
X6542468Y-16534026D01*
X6489701Y-16661418D01*
X6462800Y-16796656D01*
X6462800Y-16934544D01*
X6489701Y-17069782D01*
X6542468Y-17197174D01*
X6619074Y-17311824D01*
X6716576Y-17409326D01*
X6831226Y-17485932D01*
X6958618Y-17538699D01*
X7093856Y-17565600D01*
X7231744Y-17565600D01*
X7366982Y-17538699D01*
X7494374Y-17485932D01*
X7609024Y-17409326D01*
X7706526Y-17311824D01*
X7783132Y-17197174D01*
X7835899Y-17069782D01*
X7853293Y-16982335D01*
X10498533Y-16982335D01*
X11105000Y-17588802D01*
X11586802Y-17107000D01*
X13503549Y-17107000D01*
X13503549Y-18707000D01*
X13509341Y-18765810D01*
X13526496Y-18822360D01*
X13554353Y-18874477D01*
X13591842Y-18920158D01*
X13637523Y-18957647D01*
X13689640Y-18985504D01*
X13746190Y-19002659D01*
X13805000Y-19008451D01*
X15405000Y-19008451D01*
X15463810Y-19002659D01*
X15520360Y-18985504D01*
X15572477Y-18957647D01*
X15618158Y-18920158D01*
X15655647Y-18874477D01*
X15683504Y-18822360D01*
X15700659Y-18765810D01*
X15706451Y-18707000D01*
X15706451Y-17107000D01*
X15700659Y-17048190D01*
X15683504Y-16991640D01*
X15655647Y-16939523D01*
X15618158Y-16893842D01*
X15572477Y-16856353D01*
X15520360Y-16828496D01*
X15463810Y-16811341D01*
X15405000Y-16805549D01*
X13805000Y-16805549D01*
X13746190Y-16811341D01*
X13689640Y-16828496D01*
X13637523Y-16856353D01*
X13591842Y-16893842D01*
X13554353Y-16939523D01*
X13526496Y-16991640D01*
X13509341Y-17048190D01*
X13503549Y-17107000D01*
X11586802Y-17107000D01*
X11711467Y-16982335D01*
X11619278Y-16816363D01*
X11396624Y-16736989D01*
X11162762Y-16702577D01*
X10926680Y-16714450D01*
X10697452Y-16772153D01*
X10590722Y-16816363D01*
X10498533Y-16982335D01*
X7853293Y-16982335D01*
X7862800Y-16934544D01*
X7862800Y-16796656D01*
X7857820Y-16771620D01*
X8108956Y-16520484D01*
X8125174Y-16507174D01*
X8178284Y-16442460D01*
X8217748Y-16368627D01*
X8242050Y-16288514D01*
X8248200Y-16226074D01*
X8248200Y-16226067D01*
X8250255Y-16205200D01*
X8248200Y-16184333D01*
X8248200Y-7787072D01*
X8250256Y-7766198D01*
X8242050Y-7682884D01*
X8217748Y-7602771D01*
X8208039Y-7584607D01*
X8178284Y-7528938D01*
X8125174Y-7464224D01*
X8108958Y-7450916D01*
X7689400Y-7031358D01*
X7689400Y-6729240D01*
X8491221Y-5927420D01*
X8516256Y-5932400D01*
X8654144Y-5932400D01*
X8789382Y-5905499D01*
X8916774Y-5852732D01*
X9031424Y-5776126D01*
X9128926Y-5678624D01*
X9205532Y-5563974D01*
X9258299Y-5436582D01*
X9285200Y-5301344D01*
X9285200Y-5163456D01*
X9258299Y-5028218D01*
X9205532Y-4900826D01*
X9128926Y-4786176D01*
X9052750Y-4710000D01*
X9809628Y-4710000D01*
X9804917Y-4715740D01*
X9765452Y-4789573D01*
X9741150Y-4869686D01*
X9735000Y-4932126D01*
X9735000Y-4932133D01*
X9732945Y-4953000D01*
X9735000Y-4973867D01*
X9735000Y-5186133D01*
X9732945Y-5207000D01*
X9735000Y-5227867D01*
X9735000Y-5227873D01*
X9739266Y-5271184D01*
X9741150Y-5290314D01*
X9746386Y-5307573D01*
X9765452Y-5370426D01*
X9804916Y-5444259D01*
X9858026Y-5508974D01*
X9874244Y-5522284D01*
X9939960Y-5588000D01*
X9874239Y-5653721D01*
X9858027Y-5667026D01*
X9804917Y-5731740D01*
X9765452Y-5805573D01*
X9741150Y-5885686D01*
X9735000Y-5948126D01*
X9735000Y-5948133D01*
X9732945Y-5969000D01*
X9735000Y-5989867D01*
X9735000Y-6202133D01*
X9732945Y-6223000D01*
X9735000Y-6243867D01*
X9735000Y-6243873D01*
X9739962Y-6294253D01*
X9741150Y-6306314D01*
X9744093Y-6316014D01*
X9765452Y-6386426D01*
X9804916Y-6460259D01*
X9858026Y-6524974D01*
X9874244Y-6538284D01*
X9939960Y-6604000D01*
X9874239Y-6669721D01*
X9858027Y-6683026D01*
X9804917Y-6747740D01*
X9765452Y-6821573D01*
X9741150Y-6901686D01*
X9735000Y-6964126D01*
X9735000Y-6964133D01*
X9732945Y-6985000D01*
X9735000Y-7005867D01*
X9735000Y-7218133D01*
X9732945Y-7239000D01*
X9735000Y-7259867D01*
X9735000Y-7259873D01*
X9738273Y-7293104D01*
X9741150Y-7322314D01*
X9743154Y-7328920D01*
X9765452Y-7402426D01*
X9804916Y-7476259D01*
X9858026Y-7540974D01*
X9874244Y-7554284D01*
X9939960Y-7620000D01*
X9874239Y-7685721D01*
X9858027Y-7699026D01*
X9844722Y-7715238D01*
X9844720Y-7715240D01*
X9838092Y-7723316D01*
X9804917Y-7763740D01*
X9765452Y-7837573D01*
X9741150Y-7917686D01*
X9735000Y-7980126D01*
X9735000Y-7980133D01*
X9732945Y-8001000D01*
X9735000Y-8021867D01*
X9735000Y-8234133D01*
X9732945Y-8255000D01*
X9735000Y-8275867D01*
X9735000Y-8275873D01*
X9739336Y-8319898D01*
X9741150Y-8338314D01*
X9743141Y-8344876D01*
X9765452Y-8418426D01*
X9804916Y-8492259D01*
X9858026Y-8556974D01*
X9874244Y-8570284D01*
X9939960Y-8636000D01*
X9874239Y-8701721D01*
X9858027Y-8715026D01*
X9844722Y-8731238D01*
X9844720Y-8731240D01*
X9840564Y-8736304D01*
X9804917Y-8779740D01*
X9765452Y-8853573D01*
X9741150Y-8933686D01*
X9735000Y-8996126D01*
X9735000Y-8996133D01*
X9732945Y-9017000D01*
X9735000Y-9037867D01*
X9735000Y-9250133D01*
X9732945Y-9271000D01*
X9735000Y-9291867D01*
X9735000Y-9291873D01*
X9738980Y-9332280D01*
X9741150Y-9354314D01*
X9746802Y-9372945D01*
X9765452Y-9434426D01*
X9804916Y-9508259D01*
X9858026Y-9572974D01*
X9874244Y-9586284D01*
X9939960Y-9652000D01*
X9874239Y-9717721D01*
X9858027Y-9731026D01*
X9804917Y-9795740D01*
X9765452Y-9869573D01*
X9741150Y-9949686D01*
X9735000Y-10012126D01*
X9735000Y-10012133D01*
X9732945Y-10033000D01*
X9735000Y-10053867D01*
X9735000Y-10266133D01*
X9732945Y-10287000D01*
X9735000Y-10307867D01*
X9735000Y-10307873D01*
X9739490Y-10353457D01*
X9741150Y-10370314D01*
X9743241Y-10377206D01*
X9765452Y-10450426D01*
X9804916Y-10524259D01*
X9858026Y-10588974D01*
X9874244Y-10602284D01*
X9939960Y-10668000D01*
X9874239Y-10733721D01*
X9858027Y-10747026D01*
X9844722Y-10763238D01*
X9844720Y-10763240D01*
X9835154Y-10774897D01*
X9804917Y-10811740D01*
X9765452Y-10885573D01*
X9741150Y-10965686D01*
X9735000Y-11028126D01*
X9735000Y-11028133D01*
X9732945Y-11049000D01*
X9735000Y-11069867D01*
X9735000Y-11282133D01*
X9732945Y-11303000D01*
X9735000Y-11323867D01*
X9735000Y-11323873D01*
X9739332Y-11367851D01*
X9741150Y-11386314D01*
X9744669Y-11397913D01*
X9765452Y-11466426D01*
X9804916Y-11540259D01*
X9858026Y-11604974D01*
X9874244Y-11618284D01*
X9939960Y-11684000D01*
X9874239Y-11749721D01*
X9858027Y-11763026D01*
X9844722Y-11779238D01*
X9844720Y-11779240D01*
X9832988Y-11793536D01*
X9804917Y-11827740D01*
X9765452Y-11901573D01*
X9741150Y-11981686D01*
X9735000Y-12044126D01*
X9735000Y-12044133D01*
X9732945Y-12065000D01*
X9735000Y-12085867D01*
X9735000Y-12298133D01*
X9732945Y-12319000D01*
X9735000Y-12339867D01*
X9735000Y-12339873D01*
X9738978Y-12380256D01*
X9741150Y-12402314D01*
X9743352Y-12409573D01*
X9765452Y-12482426D01*
X9804916Y-12556259D01*
X9858026Y-12620974D01*
X9874244Y-12634284D01*
X9939960Y-12700000D01*
X9874239Y-12765721D01*
X9858027Y-12779026D01*
X9844722Y-12795238D01*
X9844720Y-12795240D01*
X9841294Y-12799415D01*
X9804917Y-12843740D01*
X9765452Y-12917573D01*
X9741150Y-12997686D01*
X9735000Y-13060126D01*
X9735000Y-13060133D01*
X9732945Y-13081000D01*
X9735000Y-13101867D01*
X9735000Y-13314133D01*
X9732945Y-13335000D01*
X9735000Y-13355867D01*
X9735000Y-13355873D01*
X9739388Y-13400420D01*
X9741150Y-13418314D01*
X9743058Y-13424604D01*
X9765452Y-13498426D01*
X9804916Y-13572259D01*
X9858026Y-13636974D01*
X9874244Y-13650284D01*
X9939960Y-13716000D01*
X9874240Y-13781720D01*
X9858027Y-13795026D01*
X9844722Y-13811238D01*
X9844720Y-13811240D01*
X9835898Y-13821990D01*
X9804917Y-13859740D01*
X9765452Y-13933573D01*
X9741150Y-14013686D01*
X9735000Y-14076126D01*
X9735000Y-14076133D01*
X9732945Y-14097000D01*
X9735000Y-14117867D01*
X9735000Y-14330133D01*
X9732945Y-14351000D01*
X9735000Y-14371867D01*
X9735000Y-14371873D01*
X9740171Y-14424374D01*
X9741150Y-14434314D01*
X9744682Y-14445957D01*
X9765452Y-14514426D01*
X9804916Y-14588259D01*
X9858026Y-14652974D01*
X9874244Y-14666284D01*
X9971716Y-14763756D01*
X9985026Y-14779974D01*
X10049740Y-14833084D01*
X10123573Y-14872548D01*
X10181220Y-14890035D01*
X10203685Y-14896850D01*
X10209270Y-14897400D01*
X10266126Y-14903000D01*
X10266132Y-14903000D01*
X10286999Y-14905055D01*
X10307866Y-14903000D01*
X16728209Y-14903000D01*
X16632526Y-14981525D01*
X16520058Y-15118568D01*
X16436487Y-15274919D01*
X16385024Y-15444569D01*
X16372001Y-15576793D01*
X16372000Y-16935206D01*
X16372001Y-16935216D01*
X16372000Y-25078836D01*
X16356640Y-25083496D01*
X16304523Y-25111353D01*
X16258842Y-25148842D01*
X16221353Y-25194523D01*
X16193496Y-25246640D01*
X16176341Y-25303190D01*
X16170549Y-25362000D01*
X16170549Y-26962000D01*
X16176341Y-27020810D01*
X16193496Y-27077360D01*
X16221353Y-27129477D01*
X16258842Y-27175158D01*
X16304523Y-27212647D01*
X16356640Y-27240504D01*
X16372001Y-27245164D01*
X16372000Y-33587836D01*
X16356640Y-33592496D01*
X16304523Y-33620353D01*
X16258842Y-33657842D01*
X16221353Y-33703523D01*
X16193496Y-33755640D01*
X16176341Y-33812190D01*
X16170549Y-33871000D01*
X16170549Y-35471000D01*
X16176341Y-35529810D01*
X16193496Y-35586360D01*
X16221353Y-35638477D01*
X16258842Y-35684158D01*
X16304523Y-35721647D01*
X16356640Y-35749504D01*
X16372001Y-35754164D01*
X16372000Y-37420793D01*
X16367646Y-37465000D01*
X16372000Y-37509206D01*
X16385023Y-37641430D01*
X16436486Y-37811080D01*
X16520057Y-37967431D01*
X16632525Y-38104475D01*
X16666865Y-38132657D01*
X17400001Y-38865793D01*
X17400000Y-46827208D01*
X16832345Y-47394863D01*
X16748057Y-47497569D01*
X16664487Y-47653919D01*
X16613023Y-47823570D01*
X16595646Y-48000000D01*
X16613023Y-48176430D01*
X16664487Y-48346081D01*
X16748057Y-48502431D01*
X16860526Y-48639474D01*
X16997569Y-48751943D01*
X17153919Y-48835513D01*
X17323570Y-48886977D01*
X17500000Y-48904354D01*
X17676430Y-48886977D01*
X17846081Y-48835513D01*
X18002431Y-48751943D01*
X18105137Y-48667655D01*
X18905136Y-47867656D01*
X18939475Y-47839475D01*
X19051943Y-47702432D01*
X19135514Y-47546081D01*
X19186977Y-47376431D01*
X19200000Y-47244207D01*
X19200000Y-47244206D01*
X19204354Y-47200000D01*
X19200000Y-47155793D01*
X19200000Y-38537207D01*
X19204354Y-38493000D01*
X19186977Y-38316569D01*
X19135514Y-38146918D01*
X19051943Y-37990568D01*
X18967655Y-37887863D01*
X18939475Y-37853525D01*
X18905135Y-37825343D01*
X18172000Y-37092208D01*
X18172000Y-35754164D01*
X18187360Y-35749504D01*
X18239477Y-35721647D01*
X18285158Y-35684158D01*
X18322647Y-35638477D01*
X18350504Y-35586360D01*
X18367659Y-35529810D01*
X18373451Y-35471000D01*
X18373451Y-33871000D01*
X18367659Y-33812190D01*
X18350504Y-33755640D01*
X18322647Y-33703523D01*
X18285158Y-33657842D01*
X18239477Y-33620353D01*
X18187360Y-33592496D01*
X18172000Y-33587836D01*
X18172000Y-27245164D01*
X18187360Y-27240504D01*
X18239477Y-27212647D01*
X18285158Y-27175158D01*
X18322647Y-27129477D01*
X18350504Y-27077360D01*
X18367659Y-27020810D01*
X18373451Y-26962000D01*
X18373451Y-25362000D01*
X18367659Y-25303190D01*
X18350504Y-25246640D01*
X18322647Y-25194523D01*
X18285158Y-25148842D01*
X18239477Y-25111353D01*
X18187360Y-25083496D01*
X18172000Y-25078836D01*
X18172000Y-17848719D01*
X18175668Y-17857574D01*
X18252274Y-17972224D01*
X18349776Y-18069726D01*
X18464426Y-18146332D01*
X18591818Y-18199099D01*
X18727056Y-18226000D01*
X18864944Y-18226000D01*
X19000182Y-18199099D01*
X19127574Y-18146332D01*
X19242224Y-18069726D01*
X19339726Y-17972224D01*
X19416332Y-17857574D01*
X19469099Y-17730182D01*
X19496000Y-17594944D01*
X19496000Y-17457056D01*
X19469099Y-17321818D01*
X19416332Y-17194426D01*
X19339726Y-17079776D01*
X19242224Y-16982274D01*
X19221000Y-16968093D01*
X19221000Y-14752873D01*
X19223056Y-14732000D01*
X19214850Y-14648686D01*
X19190548Y-14568573D01*
X19184254Y-14556797D01*
X19151084Y-14494740D01*
X19097974Y-14430026D01*
X19081756Y-14416716D01*
X18586000Y-13920960D01*
X18586000Y-5129040D01*
X18609768Y-5105272D01*
X18625984Y-5091964D01*
X18679094Y-5027250D01*
X18718558Y-4953417D01*
X18740624Y-4880676D01*
X18742860Y-4873305D01*
X18744179Y-4859912D01*
X18749010Y-4810864D01*
X18749010Y-4810857D01*
X18751065Y-4789990D01*
X18749010Y-4769123D01*
X18749010Y-2271875D01*
X18751065Y-2251008D01*
X18749010Y-2230141D01*
X18749010Y-2230134D01*
X18742860Y-2167694D01*
X18718558Y-2087581D01*
X18679094Y-2013748D01*
X18625984Y-1949034D01*
X18609766Y-1935724D01*
X13943285Y2730757D01*
X13929975Y2746975D01*
X13865261Y2800085D01*
X13791428Y2839549D01*
X13711315Y2863851D01*
X13648875Y2870001D01*
X13648868Y2870001D01*
X13628001Y2872056D01*
X13607134Y2870001D01*
X-74133Y2870001D01*
X-95000Y2872056D01*
X-115867Y2870001D01*
X-115873Y2870001D01*
X-169901Y2864680D01*
X-178314Y2863851D01*
X-202616Y2856479D01*
X-258426Y2839549D01*
X-332259Y2800085D01*
X-396973Y2746975D01*
X-410278Y2730763D01*
X-705757Y2435283D01*
X-705762Y2435279D01*
X-814829Y2326212D01*
X-934557Y2375806D01*
X-1156735Y2420000D01*
X-1383265Y2420000D01*
X-1605443Y2375806D01*
X-1814729Y2289116D01*
X-2003082Y2163263D01*
X-2163263Y2003082D01*
X-2289116Y1814729D01*
X-2375806Y1605443D01*
X-2420000Y1383265D01*
X-5200000Y1383265D01*
X-5244194Y1605443D01*
X-5276974Y1684581D01*
X-4989258Y1684581D01*
X-4939594Y1495000D01*
X-4035000Y1495000D01*
X-4035000Y2397774D01*
X-3585000Y2397774D01*
X-3585000Y1495000D01*
X-2680406Y1495000D01*
X-2630742Y1684581D01*
X-2734282Y1906677D01*
X-2879161Y2104306D01*
X-3059812Y2269873D01*
X-3269292Y2397015D01*
X-3395421Y2449247D01*
X-3585000Y2397774D01*
X-4035000Y2397774D01*
X-4224579Y2449247D01*
X-4350708Y2397015D01*
X-4560188Y2269873D01*
X-4740839Y2104306D01*
X-4885718Y1906677D01*
X-4989258Y1684581D01*
X-5276974Y1684581D01*
X-5330884Y1814729D01*
X-5456737Y2003082D01*
X-5616918Y2163263D01*
X-5805271Y2289116D01*
X-6014557Y2375806D01*
X-6236735Y2420000D01*
X-6463265Y2420000D01*
X-6685443Y2375806D01*
X-6894729Y2289116D01*
X-7083082Y2163263D01*
X-7243263Y2003082D01*
X-7369116Y1814729D01*
X-7455806Y1605443D01*
X-7500000Y1383265D01*
X-7740000Y1383265D01*
X-7784194Y1605443D01*
X-7870884Y1814729D01*
X-7996737Y2003082D01*
X-8156918Y2163263D01*
X-8345271Y2289116D01*
X-8554557Y2375806D01*
X-8776735Y2420000D01*
X-9003265Y2420000D01*
X-9225443Y2375806D01*
X-9434729Y2289116D01*
X-9623082Y2163263D01*
X-9783263Y2003082D01*
X-9909116Y1814729D01*
X-9995806Y1605443D01*
X-10040000Y1383265D01*
X-10280000Y1383265D01*
X-10324194Y1605443D01*
X-10410884Y1814729D01*
X-10536737Y2003082D01*
X-10696918Y2163263D01*
X-10885271Y2289116D01*
X-11094557Y2375806D01*
X-11316735Y2420000D01*
X-11543265Y2420000D01*
X-11765443Y2375806D01*
X-11974729Y2289116D01*
X-12163082Y2163263D01*
X-12323263Y2003082D01*
X-12449116Y1814729D01*
X-12535806Y1605443D01*
X-12580000Y1383265D01*
X-15541977Y1383265D01*
X-15418791Y1465575D01*
X-15265575Y1618791D01*
X-15145193Y1798955D01*
X-15062273Y1999142D01*
X-15020000Y2211659D01*
X-15020000Y2428341D01*
X-15062273Y2640858D01*
X-15145193Y2841045D01*
X-15265575Y3021209D01*
X-15418791Y3174425D01*
X-15598955Y3294807D01*
X-15799142Y3377727D01*
X-16011659Y3420000D01*
X-16228341Y3420000D01*
X-16440858Y3377727D01*
X-16641045Y3294807D01*
X-16821209Y3174425D01*
X-16974425Y3021209D01*
X-17094807Y2841045D01*
X-17177727Y2640858D01*
X-17220000Y2428341D01*
X-19581203Y2428341D01*
X-19573243Y2509514D01*
X-19425271Y2999622D01*
X-19184920Y3451659D01*
X-18861346Y3848399D01*
X-18466877Y4174733D01*
X-18016532Y4418233D01*
X-17527470Y4569623D01*
X-17000640Y4624995D01*
X-16999267Y4625000D01*
X16981662Y4625000D01*
X17509514Y4573243D01*
G37*
X17509514Y4573243D02*
X17999622Y4425271D01*
X18451659Y4184920D01*
X18848399Y3861346D01*
X19174733Y3466877D01*
X19418233Y3016532D01*
X19569623Y2527470D01*
X19624995Y2000640D01*
X19625000Y1999267D01*
X19625001Y-55438736D01*
X19369090Y-55055738D01*
X18944262Y-54630910D01*
X18444717Y-54297125D01*
X17889652Y-54067209D01*
X17300399Y-53950000D01*
X16699601Y-53950000D01*
X16110348Y-54067209D01*
X15555283Y-54297125D01*
X15055738Y-54630910D01*
X14630910Y-55055738D01*
X14297125Y-55555283D01*
X14067209Y-56110348D01*
X13950000Y-56699601D01*
X13950000Y-57300399D01*
X14067209Y-57889652D01*
X14297125Y-58444717D01*
X14630910Y-58944262D01*
X15055738Y-59369090D01*
X15438735Y-59625000D01*
X-2125000Y-59625000D01*
X-2125000Y-58318419D01*
X-2123186Y-58300000D01*
X-2130426Y-58226487D01*
X-2151869Y-58155800D01*
X-2186691Y-58090653D01*
X-2233552Y-58033552D01*
X-2290653Y-57986691D01*
X-2355800Y-57951869D01*
X-2426487Y-57930426D01*
X-2481581Y-57925000D01*
X-2500000Y-57923186D01*
X-2518419Y-57925000D01*
X-3022717Y-57925000D01*
X-2874466Y-57801502D01*
X-2731622Y-57624817D01*
X-2640695Y-57451659D01*
X9750000Y-57451659D01*
X9750000Y-57668341D01*
X9792273Y-57880858D01*
X9875193Y-58081045D01*
X9995575Y-58261209D01*
X10148791Y-58414425D01*
X10328955Y-58534807D01*
X10529142Y-58617727D01*
X10741659Y-58660000D01*
X10958341Y-58660000D01*
X11170858Y-58617727D01*
X11371045Y-58534807D01*
X11551209Y-58414425D01*
X11704425Y-58261209D01*
X11824807Y-58081045D01*
X11907727Y-57880858D01*
X11950000Y-57668341D01*
X11950000Y-57451659D01*
X11907727Y-57239142D01*
X11824807Y-57038955D01*
X11704425Y-56858791D01*
X11551209Y-56705575D01*
X11371045Y-56585193D01*
X11170858Y-56502273D01*
X10958341Y-56460000D01*
X10741659Y-56460000D01*
X10529142Y-56502273D01*
X10328955Y-56585193D01*
X10148791Y-56705575D01*
X9995575Y-56858791D01*
X9875193Y-57038955D01*
X9792273Y-57239142D01*
X9750000Y-57451659D01*
X-2640695Y-57451659D01*
X-2625992Y-57423660D01*
X-2561636Y-57205760D01*
X-2641586Y-57025000D01*
X-3475000Y-57025000D01*
X-3475000Y-57045000D01*
X-3925000Y-57045000D01*
X-3925000Y-57025000D01*
X-4758414Y-57025000D01*
X-4838364Y-57205760D01*
X-4774008Y-57423660D01*
X-4668378Y-57624817D01*
X-4525534Y-57801502D01*
X-4377283Y-57925000D01*
X-10222717Y-57925000D01*
X-10074466Y-57801502D01*
X-9931622Y-57624817D01*
X-9825992Y-57423660D01*
X-9761636Y-57205760D01*
X-9841586Y-57025000D01*
X-10675000Y-57025000D01*
X-10675000Y-57045000D01*
X-11125000Y-57045000D01*
X-11125000Y-57025000D01*
X-11958414Y-57025000D01*
X-12038364Y-57205760D01*
X-11974008Y-57423660D01*
X-11868378Y-57624817D01*
X-11725534Y-57801502D01*
X-11577283Y-57925000D01*
X-11981581Y-57925000D01*
X-12000000Y-57923186D01*
X-12018419Y-57925000D01*
X-12073513Y-57930426D01*
X-12144200Y-57951869D01*
X-12209347Y-57986691D01*
X-12266448Y-58033552D01*
X-12313309Y-58090653D01*
X-12348131Y-58155800D01*
X-12369574Y-58226487D01*
X-12376814Y-58300000D01*
X-12374999Y-58318429D01*
X-12375000Y-59625000D01*
X-15438735Y-59625000D01*
X-15055738Y-59369090D01*
X-14630910Y-58944262D01*
X-14297125Y-58444717D01*
X-14067209Y-57889652D01*
X-13950000Y-57300399D01*
X-13950000Y-56699601D01*
X-14010739Y-56394240D01*
X-12038364Y-56394240D01*
X-11958414Y-56575000D01*
X-11125000Y-56575000D01*
X-11125000Y-55574108D01*
X-10675000Y-55574108D01*
X-10675000Y-56575000D01*
X-9841586Y-56575000D01*
X-9761636Y-56394240D01*
X-4838364Y-56394240D01*
X-4758414Y-56575000D01*
X-3925000Y-56575000D01*
X-3925000Y-55574108D01*
X-3475000Y-55574108D01*
X-3475000Y-56575000D01*
X-2641586Y-56575000D01*
X-2561636Y-56394240D01*
X-2625992Y-56176340D01*
X-2731622Y-55975183D01*
X-2874466Y-55798498D01*
X-3049035Y-55653076D01*
X-3248620Y-55544504D01*
X-3299434Y-55521225D01*
X-3475000Y-55574108D01*
X-3925000Y-55574108D01*
X-4100566Y-55521225D01*
X-4151380Y-55544504D01*
X-4350965Y-55653076D01*
X-4525534Y-55798498D01*
X-4668378Y-55975183D01*
X-4774008Y-56176340D01*
X-4838364Y-56394240D01*
X-9761636Y-56394240D01*
X-9825992Y-56176340D01*
X-9931622Y-55975183D01*
X-10074466Y-55798498D01*
X-10249035Y-55653076D01*
X-10448620Y-55544504D01*
X-10499434Y-55521225D01*
X-10675000Y-55574108D01*
X-11125000Y-55574108D01*
X-11300566Y-55521225D01*
X-11351380Y-55544504D01*
X-11550965Y-55653076D01*
X-11725534Y-55798498D01*
X-11868378Y-55975183D01*
X-11974008Y-56176340D01*
X-12038364Y-56394240D01*
X-14010739Y-56394240D01*
X-14067209Y-56110348D01*
X-14297125Y-55555283D01*
X-14630910Y-55055738D01*
X-15055738Y-54630910D01*
X-15555283Y-54297125D01*
X-15630990Y-54265766D01*
X-10603924Y-54265766D01*
X-10535187Y-54432129D01*
X-10435315Y-54581885D01*
X-10308146Y-54709280D01*
X-10158567Y-54809418D01*
X-10087586Y-54850974D01*
X-9950000Y-54793725D01*
X-9950000Y-54125000D01*
X-9500000Y-54125000D01*
X-9500000Y-54793725D01*
X-9362414Y-54850974D01*
X-9291433Y-54809418D01*
X-9141854Y-54709280D01*
X-9014685Y-54581885D01*
X-8914813Y-54432129D01*
X-8846076Y-54265766D01*
X-5753924Y-54265766D01*
X-5685187Y-54432129D01*
X-5585315Y-54581885D01*
X-5458146Y-54709280D01*
X-5308567Y-54809418D01*
X-5237586Y-54850974D01*
X-5100000Y-54793725D01*
X-5100000Y-54125000D01*
X-4650000Y-54125000D01*
X-4650000Y-54793725D01*
X-4512414Y-54850974D01*
X-4441433Y-54809418D01*
X-4291854Y-54709280D01*
X-4164685Y-54581885D01*
X-4064813Y-54432129D01*
X-3996076Y-54265766D01*
X-4065322Y-54125000D01*
X-4650000Y-54125000D01*
X-5100000Y-54125000D01*
X-5684678Y-54125000D01*
X-5753924Y-54265766D01*
X-8846076Y-54265766D01*
X-8915322Y-54125000D01*
X-9500000Y-54125000D01*
X-9950000Y-54125000D01*
X-10534678Y-54125000D01*
X-10603924Y-54265766D01*
X-15630990Y-54265766D01*
X-16110348Y-54067209D01*
X-16699601Y-53950000D01*
X-17300399Y-53950000D01*
X-17889652Y-54067209D01*
X-18444717Y-54297125D01*
X-18944262Y-54630910D01*
X-19369090Y-55055738D01*
X-19625000Y-55438735D01*
X-19625000Y-53534234D01*
X-10603924Y-53534234D01*
X-10534678Y-53675000D01*
X-9950000Y-53675000D01*
X-9950000Y-53006275D01*
X-9500000Y-53006275D01*
X-9500000Y-53675000D01*
X-8915322Y-53675000D01*
X-8846076Y-53534234D01*
X-8914813Y-53367871D01*
X-9014685Y-53218115D01*
X-9141854Y-53090720D01*
X-9291433Y-52990582D01*
X-9362414Y-52949026D01*
X-9500000Y-53006275D01*
X-9950000Y-53006275D01*
X-10087586Y-52949026D01*
X-10158567Y-52990582D01*
X-10308146Y-53090720D01*
X-10435315Y-53218115D01*
X-10535187Y-53367871D01*
X-10603924Y-53534234D01*
X-19625000Y-53534234D01*
X-19625000Y-48771659D01*
X-15920000Y-48771659D01*
X-15920000Y-48988341D01*
X-15877727Y-49200858D01*
X-15794807Y-49401045D01*
X-15674425Y-49581209D01*
X-15521209Y-49734425D01*
X-15341045Y-49854807D01*
X-15140858Y-49937727D01*
X-14928341Y-49980000D01*
X-14711659Y-49980000D01*
X-14499142Y-49937727D01*
X-14298955Y-49854807D01*
X-14118791Y-49734425D01*
X-13965575Y-49581209D01*
X-13877911Y-49450010D01*
X-10704354Y-49450010D01*
X-10700000Y-49494218D01*
X-10699999Y-50444207D01*
X-10686976Y-50576431D01*
X-10635513Y-50746081D01*
X-10551942Y-50902432D01*
X-10439474Y-51039475D01*
X-10302431Y-51151943D01*
X-10146080Y-51235514D01*
X-9976430Y-51286977D01*
X-9800000Y-51304354D01*
X-9623569Y-51286977D01*
X-9453919Y-51235514D01*
X-9297568Y-51151943D01*
X-9160525Y-51039475D01*
X-9048057Y-50902432D01*
X-8964486Y-50746081D01*
X-8913023Y-50576431D01*
X-8900000Y-50444207D01*
X-8900000Y-50350010D01*
X-8197792Y-50350010D01*
X-7842658Y-50705144D01*
X-7814476Y-50739484D01*
X-7677433Y-50851952D01*
X-7521082Y-50935523D01*
X-7351432Y-50986986D01*
X-7334099Y-50988693D01*
X-5322729Y-53000063D01*
X-5458146Y-53090720D01*
X-5585315Y-53218115D01*
X-5685187Y-53367871D01*
X-5753924Y-53534234D01*
X-5684678Y-53675000D01*
X-5100000Y-53675000D01*
X-5100000Y-53655000D01*
X-4650000Y-53655000D01*
X-4650000Y-53675000D01*
X-4065322Y-53675000D01*
X-3996076Y-53534234D01*
X-4061872Y-53374990D01*
X-369196Y-53374990D01*
X-324990Y-53379344D01*
X-280784Y-53374990D01*
X-280783Y-53374990D01*
X-148559Y-53361967D01*
X21091Y-53310504D01*
X177442Y-53226933D01*
X314485Y-53114465D01*
X342667Y-53080125D01*
X1672792Y-51750000D01*
X4394207Y-51750000D01*
X4526431Y-51736977D01*
X4696081Y-51685514D01*
X4852432Y-51601943D01*
X4989475Y-51489475D01*
X5101943Y-51352432D01*
X5185514Y-51196081D01*
X5236977Y-51026431D01*
X5254354Y-50850000D01*
X5236977Y-50673569D01*
X5185514Y-50503919D01*
X5101943Y-50347568D01*
X4989475Y-50210525D01*
X4852432Y-50098057D01*
X4696081Y-50014486D01*
X4526431Y-49963023D01*
X4394207Y-49950000D01*
X1344206Y-49950000D01*
X1300000Y-49945646D01*
X1255793Y-49950000D01*
X1123569Y-49963023D01*
X953919Y-50014486D01*
X797568Y-50098057D01*
X660525Y-50210525D01*
X632343Y-50244865D01*
X-697782Y-51574990D01*
X-4202218Y-51574990D01*
X-6282336Y-49494872D01*
X-6310516Y-49460534D01*
X-6447559Y-49348066D01*
X-6603910Y-49264495D01*
X-6773560Y-49213032D01*
X-6790893Y-49211325D01*
X-7157342Y-48844876D01*
X-7185525Y-48810535D01*
X-7322568Y-48698067D01*
X-7478919Y-48614496D01*
X-7648569Y-48563033D01*
X-7780793Y-48550010D01*
X-7780794Y-48550010D01*
X-7825000Y-48545656D01*
X-7869206Y-48550010D01*
X-9755794Y-48550010D01*
X-9800000Y-48545656D01*
X-9844207Y-48550010D01*
X-9976431Y-48563033D01*
X-10146081Y-48614496D01*
X-10302432Y-48698067D01*
X-10439475Y-48810535D01*
X-10551943Y-48947578D01*
X-10635514Y-49103929D01*
X-10686977Y-49273579D01*
X-10704354Y-49450010D01*
X-13877911Y-49450010D01*
X-13845193Y-49401045D01*
X-13762273Y-49200858D01*
X-13720000Y-48988341D01*
X-13720000Y-48771659D01*
X-13762273Y-48559142D01*
X-13845193Y-48358955D01*
X-13965575Y-48178791D01*
X-14118791Y-48025575D01*
X-14298955Y-47905193D01*
X-14499142Y-47822273D01*
X-14711659Y-47780000D01*
X-14928341Y-47780000D01*
X-15140858Y-47822273D01*
X-15341045Y-47905193D01*
X-15521209Y-48025575D01*
X-15674425Y-48178791D01*
X-15794807Y-48358955D01*
X-15877727Y-48559142D01*
X-15920000Y-48771659D01*
X-19625000Y-48771659D01*
X-19625000Y-43456058D01*
X-11275000Y-43456058D01*
X-11275000Y-43593946D01*
X-11248099Y-43729184D01*
X-11195332Y-43856576D01*
X-11118726Y-43971226D01*
X-11021224Y-44068728D01*
X-10906574Y-44145334D01*
X-10779182Y-44198101D01*
X-10643944Y-44225002D01*
X-10506056Y-44225002D01*
X-10472678Y-44218363D01*
X-7355020Y-47336021D01*
X-7360000Y-47361056D01*
X-7360000Y-47498944D01*
X-7333099Y-47634182D01*
X-7280332Y-47761574D01*
X-7203726Y-47876224D01*
X-7106224Y-47973726D01*
X-6991574Y-48050332D01*
X-6864182Y-48103099D01*
X-6728944Y-48130000D01*
X-6591056Y-48130000D01*
X-6455818Y-48103099D01*
X-6328426Y-48050332D01*
X-6213776Y-47973726D01*
X-6116274Y-47876224D01*
X-6039668Y-47761574D01*
X-5986901Y-47634182D01*
X-5960000Y-47498944D01*
X-5960000Y-47361056D01*
X-5986901Y-47225818D01*
X-6039668Y-47098426D01*
X-6116274Y-46983776D01*
X-6213776Y-46886274D01*
X-6328426Y-46809668D01*
X-6455818Y-46756901D01*
X-6591056Y-46730000D01*
X-6728944Y-46730000D01*
X-6753979Y-46734980D01*
X-8388959Y-45100000D01*
X-4200000Y-45100000D01*
X-4200000Y-46100000D01*
X-4198099Y-46119406D01*
X-4192428Y-46138172D01*
X-4183205Y-46155470D01*
X-4000000Y-46430278D01*
X-4000000Y-47200000D01*
X-3996449Y-47226413D01*
X-3989443Y-47244721D01*
X-3589443Y-48044721D01*
X-3583147Y-48055557D01*
X-3570711Y-48070711D01*
X-3555557Y-48083147D01*
X-3538268Y-48092388D01*
X-3519509Y-48098079D01*
X-3500000Y-48100000D01*
X-2400000Y-48100000D01*
X-2380388Y-48098058D01*
X-2361635Y-48092348D01*
X-2344356Y-48083089D01*
X-2329215Y-48070637D01*
X-2316795Y-48055470D01*
X-1318335Y-46557780D01*
X-1209792Y-46413056D01*
X8190000Y-46413056D01*
X8190000Y-46550944D01*
X8216901Y-46686182D01*
X8269668Y-46813574D01*
X8346274Y-46928224D01*
X8443776Y-47025726D01*
X8558426Y-47102332D01*
X8685818Y-47155099D01*
X8821056Y-47182000D01*
X8958944Y-47182000D01*
X8983979Y-47177020D01*
X9082721Y-47275762D01*
X9096026Y-47291974D01*
X9160740Y-47345084D01*
X9234573Y-47384548D01*
X9290383Y-47401478D01*
X9314685Y-47408850D01*
X9323098Y-47409679D01*
X9377126Y-47415000D01*
X9377132Y-47415000D01*
X9397999Y-47417055D01*
X9418866Y-47415000D01*
X13539093Y-47415000D01*
X13553274Y-47436224D01*
X13650776Y-47533726D01*
X13765426Y-47610332D01*
X13892818Y-47663099D01*
X14028056Y-47690000D01*
X14165944Y-47690000D01*
X14301182Y-47663099D01*
X14428574Y-47610332D01*
X14543224Y-47533726D01*
X14640726Y-47436224D01*
X14717332Y-47321574D01*
X14770099Y-47194182D01*
X14797000Y-47058944D01*
X14797000Y-46921056D01*
X14770099Y-46785818D01*
X14717332Y-46658426D01*
X14640726Y-46543776D01*
X14543224Y-46446274D01*
X14428574Y-46369668D01*
X14301182Y-46316901D01*
X14165944Y-46290000D01*
X14028056Y-46290000D01*
X13892818Y-46316901D01*
X13765426Y-46369668D01*
X13650776Y-46446274D01*
X13553274Y-46543776D01*
X13539093Y-46565000D01*
X9587204Y-46565000D01*
X9590000Y-46550944D01*
X9590000Y-46413056D01*
X9563099Y-46277818D01*
X9510332Y-46150426D01*
X9433726Y-46035776D01*
X9336224Y-45938274D01*
X9221574Y-45861668D01*
X9094182Y-45808901D01*
X8958944Y-45782000D01*
X8821056Y-45782000D01*
X8685818Y-45808901D01*
X8558426Y-45861668D01*
X8443776Y-45938274D01*
X8346274Y-46035776D01*
X8269668Y-46150426D01*
X8216901Y-46277818D01*
X8190000Y-46413056D01*
X-1209792Y-46413056D01*
X-1020000Y-46160000D01*
X-1007612Y-46138268D01*
X-1001921Y-46119509D01*
X-1000000Y-46100000D01*
X-1000000Y-46090162D01*
X-290000Y-46091935D01*
X-211586Y-46084212D01*
X-136186Y-46061340D01*
X-66697Y-46024197D01*
X-5789Y-45974211D01*
X44197Y-45913303D01*
X81340Y-45843814D01*
X104212Y-45768414D01*
X111935Y-45690000D01*
X110000Y-45490000D01*
X10000Y-45390000D01*
X-1000000Y-45390000D01*
X-1000000Y-44940000D01*
X10000Y-44940000D01*
X110000Y-44840000D01*
X111935Y-44640000D01*
X104212Y-44561586D01*
X81340Y-44486186D01*
X44197Y-44416697D01*
X-5789Y-44355789D01*
X-66697Y-44305803D01*
X-136186Y-44268660D01*
X-211586Y-44245788D01*
X-290000Y-44238065D01*
X-390000Y-44238315D01*
X-390000Y-43141685D01*
X-290000Y-43141935D01*
X-211586Y-43134212D01*
X-136186Y-43111340D01*
X-66697Y-43074197D01*
X-5789Y-43024211D01*
X44197Y-42963303D01*
X81340Y-42893814D01*
X104212Y-42818414D01*
X111935Y-42740000D01*
X110000Y-42540000D01*
X10000Y-42440000D01*
X-1165000Y-42440000D01*
X-1165000Y-42460000D01*
X-1615000Y-42460000D01*
X-1615000Y-42440000D01*
X-1635000Y-42440000D01*
X-1635000Y-41990000D01*
X-1615000Y-41990000D01*
X-1615000Y-41390000D01*
X-1165000Y-41390000D01*
X-1165000Y-41990000D01*
X10000Y-41990000D01*
X110000Y-41890000D01*
X111935Y-41690000D01*
X104212Y-41611586D01*
X81340Y-41536186D01*
X44197Y-41466697D01*
X-5789Y-41405789D01*
X-66697Y-41355803D01*
X-136186Y-41318660D01*
X-211586Y-41295788D01*
X-290000Y-41288065D01*
X-1065000Y-41290000D01*
X-1165000Y-41390000D01*
X-1615000Y-41390000D01*
X-1715000Y-41290000D01*
X-2169713Y-41288865D01*
X-2529289Y-40929289D01*
X-2544443Y-40916853D01*
X-2561732Y-40907612D01*
X-2580491Y-40901921D01*
X-2600000Y-40900000D01*
X-3100000Y-40900000D01*
X-3127832Y-40903951D01*
X-3146035Y-40911226D01*
X-3162470Y-40921913D01*
X-3662470Y-41321913D01*
X-3670711Y-41329289D01*
X-3683147Y-41344443D01*
X-3692388Y-41361732D01*
X-3698079Y-41380491D01*
X-3700000Y-41400000D01*
X-3700000Y-44832296D01*
X-4137139Y-45007152D01*
X-4155557Y-45016853D01*
X-4170711Y-45029289D01*
X-4183147Y-45044443D01*
X-4192388Y-45061732D01*
X-4198079Y-45080491D01*
X-4200000Y-45100000D01*
X-8388959Y-45100000D01*
X-9878321Y-43610639D01*
X-9875000Y-43593946D01*
X-9875000Y-43456058D01*
X-9901901Y-43320820D01*
X-9954668Y-43193428D01*
X-10031274Y-43078778D01*
X-10128776Y-42981276D01*
X-10243426Y-42904670D01*
X-10370818Y-42851903D01*
X-10506056Y-42825002D01*
X-10643944Y-42825002D01*
X-10779182Y-42851903D01*
X-10906574Y-42904670D01*
X-11021224Y-42981276D01*
X-11118726Y-43078778D01*
X-11195332Y-43193428D01*
X-11248099Y-43320820D01*
X-11275000Y-43456058D01*
X-19625000Y-43456058D01*
X-19625000Y-35595665D01*
X13165533Y-35595665D01*
X13257722Y-35761637D01*
X13480376Y-35841011D01*
X13714238Y-35875423D01*
X13950320Y-35863550D01*
X14179548Y-35805847D01*
X14286278Y-35761637D01*
X14378467Y-35595665D01*
X13772000Y-34989198D01*
X13165533Y-35595665D01*
X-19625000Y-35595665D01*
X-19625000Y-34613238D01*
X12567577Y-34613238D01*
X12579450Y-34849320D01*
X12637153Y-35078548D01*
X12681363Y-35185278D01*
X12847335Y-35277467D01*
X13453802Y-34671000D01*
X14090198Y-34671000D01*
X14696665Y-35277467D01*
X14862637Y-35185278D01*
X14942011Y-34962624D01*
X14976423Y-34728762D01*
X14964550Y-34492680D01*
X14906847Y-34263452D01*
X14862637Y-34156722D01*
X14696665Y-34064533D01*
X14090198Y-34671000D01*
X13453802Y-34671000D01*
X12847335Y-34064533D01*
X12681363Y-34156722D01*
X12601989Y-34379376D01*
X12567577Y-34613238D01*
X-19625000Y-34613238D01*
X-19625000Y-33944665D01*
X4783533Y-33944665D01*
X4875722Y-34110637D01*
X5098376Y-34190011D01*
X5332238Y-34224423D01*
X5568320Y-34212550D01*
X5797548Y-34154847D01*
X5904278Y-34110637D01*
X5996467Y-33944665D01*
X5390000Y-33338198D01*
X4783533Y-33944665D01*
X-19625000Y-33944665D01*
X-19625000Y-32962238D01*
X4185577Y-32962238D01*
X4197450Y-33198320D01*
X4255153Y-33427548D01*
X4299363Y-33534278D01*
X4465335Y-33626467D01*
X5071802Y-33020000D01*
X5708198Y-33020000D01*
X6314665Y-33626467D01*
X6480637Y-33534278D01*
X6560011Y-33311624D01*
X6594423Y-33077762D01*
X6582550Y-32841680D01*
X6524847Y-32612452D01*
X6480637Y-32505722D01*
X6314665Y-32413533D01*
X5708198Y-33020000D01*
X5071802Y-33020000D01*
X4465335Y-32413533D01*
X4299363Y-32505722D01*
X4219989Y-32728376D01*
X4185577Y-32962238D01*
X-19625000Y-32962238D01*
X-19625000Y-31681056D01*
X-2351000Y-31681056D01*
X-2351000Y-31818944D01*
X-2324099Y-31954182D01*
X-2271332Y-32081574D01*
X-2194726Y-32196224D01*
X-2097224Y-32293726D01*
X-1982574Y-32370332D01*
X-1855182Y-32423099D01*
X-1719944Y-32450000D01*
X-1582056Y-32450000D01*
X-1446818Y-32423099D01*
X-1319426Y-32370332D01*
X-1204776Y-32293726D01*
X-1107274Y-32196224D01*
X-1039863Y-32095335D01*
X4783533Y-32095335D01*
X5390000Y-32701802D01*
X5871802Y-32220000D01*
X7788549Y-32220000D01*
X7788549Y-33820000D01*
X7794341Y-33878810D01*
X7811496Y-33935360D01*
X7839353Y-33987477D01*
X7876842Y-34033158D01*
X7922523Y-34070647D01*
X7974640Y-34098504D01*
X8031190Y-34115659D01*
X8090000Y-34121451D01*
X9690000Y-34121451D01*
X9748810Y-34115659D01*
X9805360Y-34098504D01*
X9857477Y-34070647D01*
X9903158Y-34033158D01*
X9940647Y-33987477D01*
X9968504Y-33935360D01*
X9985659Y-33878810D01*
X9991451Y-33820000D01*
X9991451Y-33746335D01*
X13165533Y-33746335D01*
X13772000Y-34352802D01*
X14378467Y-33746335D01*
X14286278Y-33580363D01*
X14063624Y-33500989D01*
X13829762Y-33466577D01*
X13593680Y-33478450D01*
X13364452Y-33536153D01*
X13257722Y-33580363D01*
X13165533Y-33746335D01*
X9991451Y-33746335D01*
X9991451Y-32220000D01*
X9985659Y-32161190D01*
X9968504Y-32104640D01*
X9940647Y-32052523D01*
X9903158Y-32006842D01*
X9857477Y-31969353D01*
X9805360Y-31941496D01*
X9748810Y-31924341D01*
X9690000Y-31918549D01*
X8090000Y-31918549D01*
X8031190Y-31924341D01*
X7974640Y-31941496D01*
X7922523Y-31969353D01*
X7876842Y-32006842D01*
X7839353Y-32052523D01*
X7811496Y-32104640D01*
X7794341Y-32161190D01*
X7788549Y-32220000D01*
X5871802Y-32220000D01*
X5996467Y-32095335D01*
X5904278Y-31929363D01*
X5681624Y-31849989D01*
X5447762Y-31815577D01*
X5211680Y-31827450D01*
X4982452Y-31885153D01*
X4875722Y-31929363D01*
X4783533Y-32095335D01*
X-1039863Y-32095335D01*
X-1030668Y-32081574D01*
X-977901Y-31954182D01*
X-951000Y-31818944D01*
X-951000Y-31681056D01*
X-977901Y-31545818D01*
X-1030668Y-31418426D01*
X-1107274Y-31303776D01*
X-1204776Y-31206274D01*
X-1226000Y-31192093D01*
X-1226000Y-30783040D01*
X2063763Y-27493278D01*
X2079974Y-27479974D01*
X2133084Y-27415260D01*
X2172548Y-27341427D01*
X2193768Y-27271473D01*
X2196850Y-27261315D01*
X2198453Y-27245040D01*
X2203000Y-27198874D01*
X2203000Y-27198868D01*
X2205055Y-27178001D01*
X2203000Y-27157134D01*
X2203000Y-27086665D01*
X13165533Y-27086665D01*
X13257722Y-27252637D01*
X13480376Y-27332011D01*
X13714238Y-27366423D01*
X13950320Y-27354550D01*
X14179548Y-27296847D01*
X14286278Y-27252637D01*
X14378467Y-27086665D01*
X13772000Y-26480198D01*
X13165533Y-27086665D01*
X2203000Y-27086665D01*
X2203000Y-26104238D01*
X12567577Y-26104238D01*
X12579450Y-26340320D01*
X12637153Y-26569548D01*
X12681363Y-26676278D01*
X12847335Y-26768467D01*
X13453802Y-26162000D01*
X14090198Y-26162000D01*
X14696665Y-26768467D01*
X14862637Y-26676278D01*
X14942011Y-26453624D01*
X14976423Y-26219762D01*
X14964550Y-25983680D01*
X14906847Y-25754452D01*
X14862637Y-25647722D01*
X14696665Y-25555533D01*
X14090198Y-26162000D01*
X13453802Y-26162000D01*
X12847335Y-25555533D01*
X12681363Y-25647722D01*
X12601989Y-25870376D01*
X12567577Y-26104238D01*
X2203000Y-26104238D01*
X2203000Y-25830040D01*
X2597375Y-25435665D01*
X4783533Y-25435665D01*
X4875722Y-25601637D01*
X5098376Y-25681011D01*
X5332238Y-25715423D01*
X5568320Y-25703550D01*
X5797548Y-25645847D01*
X5904278Y-25601637D01*
X5996467Y-25435665D01*
X5390000Y-24829198D01*
X4783533Y-25435665D01*
X2597375Y-25435665D01*
X2825763Y-25207278D01*
X2841974Y-25193974D01*
X2856875Y-25175818D01*
X2862357Y-25169138D01*
X2895084Y-25129260D01*
X2925165Y-25072981D01*
X2934548Y-25055428D01*
X2958850Y-24975314D01*
X2959330Y-24970440D01*
X2965000Y-24912874D01*
X2965000Y-24912867D01*
X2967055Y-24892000D01*
X2965000Y-24871133D01*
X2965000Y-24453238D01*
X4185577Y-24453238D01*
X4197450Y-24689320D01*
X4255153Y-24918548D01*
X4299363Y-25025278D01*
X4465335Y-25117467D01*
X5071802Y-24511000D01*
X5708198Y-24511000D01*
X6314665Y-25117467D01*
X6480637Y-25025278D01*
X6560011Y-24802624D01*
X6594423Y-24568762D01*
X6582550Y-24332680D01*
X6524847Y-24103452D01*
X6480637Y-23996722D01*
X6314665Y-23904533D01*
X5708198Y-24511000D01*
X5071802Y-24511000D01*
X4465335Y-23904533D01*
X4299363Y-23996722D01*
X4219989Y-24219376D01*
X4185577Y-24453238D01*
X2965000Y-24453238D01*
X2965000Y-23586335D01*
X4783533Y-23586335D01*
X5390000Y-24192802D01*
X5871802Y-23711000D01*
X7788549Y-23711000D01*
X7788549Y-25311000D01*
X7794341Y-25369810D01*
X7811496Y-25426360D01*
X7839353Y-25478477D01*
X7876842Y-25524158D01*
X7922523Y-25561647D01*
X7974640Y-25589504D01*
X8031190Y-25606659D01*
X8090000Y-25612451D01*
X9690000Y-25612451D01*
X9748810Y-25606659D01*
X9805360Y-25589504D01*
X9857477Y-25561647D01*
X9903158Y-25524158D01*
X9940647Y-25478477D01*
X9968504Y-25426360D01*
X9985659Y-25369810D01*
X9991451Y-25311000D01*
X9991451Y-25237335D01*
X13165533Y-25237335D01*
X13772000Y-25843802D01*
X14378467Y-25237335D01*
X14286278Y-25071363D01*
X14063624Y-24991989D01*
X13829762Y-24957577D01*
X13593680Y-24969450D01*
X13364452Y-25027153D01*
X13257722Y-25071363D01*
X13165533Y-25237335D01*
X9991451Y-25237335D01*
X9991451Y-23711000D01*
X9985659Y-23652190D01*
X9968504Y-23595640D01*
X9940647Y-23543523D01*
X9903158Y-23497842D01*
X9857477Y-23460353D01*
X9805360Y-23432496D01*
X9748810Y-23415341D01*
X9690000Y-23409549D01*
X8090000Y-23409549D01*
X8031190Y-23415341D01*
X7974640Y-23432496D01*
X7922523Y-23460353D01*
X7876842Y-23497842D01*
X7839353Y-23543523D01*
X7811496Y-23595640D01*
X7794341Y-23652190D01*
X7788549Y-23711000D01*
X5871802Y-23711000D01*
X5996467Y-23586335D01*
X5904278Y-23420363D01*
X5681624Y-23340989D01*
X5447762Y-23306577D01*
X5211680Y-23318450D01*
X4982452Y-23376153D01*
X4875722Y-23420363D01*
X4783533Y-23586335D01*
X2965000Y-23586335D01*
X2965000Y-21512040D01*
X3079756Y-21397284D01*
X3095974Y-21383974D01*
X3149084Y-21319260D01*
X3181541Y-21258536D01*
X3240224Y-21219326D01*
X3337726Y-21121824D01*
X3414332Y-21007174D01*
X3467099Y-20879782D01*
X3494000Y-20744544D01*
X3494000Y-20606656D01*
X3467099Y-20471418D01*
X3414332Y-20344026D01*
X3337726Y-20229376D01*
X3240224Y-20131874D01*
X3125574Y-20055268D01*
X2998182Y-20002501D01*
X2862944Y-19975600D01*
X2725056Y-19975600D01*
X2589818Y-20002501D01*
X2462426Y-20055268D01*
X2347776Y-20131874D01*
X2250274Y-20229376D01*
X2173668Y-20344026D01*
X2120901Y-20471418D01*
X2094000Y-20606656D01*
X2094000Y-20744544D01*
X2120901Y-20879782D01*
X2173668Y-21007174D01*
X2212441Y-21065202D01*
X2184917Y-21098740D01*
X2145453Y-21172573D01*
X2121150Y-21252686D01*
X2112945Y-21336000D01*
X2115001Y-21356877D01*
X2115000Y-24715959D01*
X1492239Y-25338721D01*
X1476027Y-25352026D01*
X1462722Y-25368238D01*
X1462720Y-25368240D01*
X1455191Y-25377414D01*
X1422917Y-25416740D01*
X1388368Y-25481377D01*
X1383453Y-25490573D01*
X1359150Y-25570686D01*
X1350945Y-25654000D01*
X1353001Y-25674876D01*
X1353000Y-27001959D01*
X-1936761Y-30291721D01*
X-1952973Y-30305026D01*
X-2006083Y-30369740D01*
X-2045547Y-30443573D01*
X-2069850Y-30523686D01*
X-2078055Y-30607000D01*
X-2075999Y-30627876D01*
X-2076000Y-31192092D01*
X-2097224Y-31206274D01*
X-2194726Y-31303776D01*
X-2271332Y-31418426D01*
X-2324099Y-31545818D01*
X-2351000Y-31681056D01*
X-19625000Y-31681056D01*
X-19625000Y-28340000D01*
X-13250000Y-28340000D01*
X-13230491Y-28338079D01*
X-13211732Y-28332388D01*
X-13194443Y-28323147D01*
X-13179289Y-28310711D01*
X-13166853Y-28295557D01*
X-13157612Y-28278268D01*
X-13151921Y-28259509D01*
X-13150000Y-28240000D01*
X-13150000Y-420000D01*
X-12581451Y-420000D01*
X-12581451Y-2120000D01*
X-12575659Y-2178810D01*
X-12558504Y-2235360D01*
X-12530647Y-2287477D01*
X-12493158Y-2333158D01*
X-12447477Y-2370647D01*
X-12395360Y-2398504D01*
X-12338810Y-2415659D01*
X-12280000Y-2421451D01*
X-10580000Y-2421451D01*
X-10521190Y-2415659D01*
X-10464640Y-2398504D01*
X-10412523Y-2370647D01*
X-10366842Y-2333158D01*
X-10329353Y-2287477D01*
X-10301496Y-2235360D01*
X-10284341Y-2178810D01*
X-10278549Y-2120000D01*
X-10278549Y-1156735D01*
X-10040000Y-1156735D01*
X-10040000Y-1383265D01*
X-9995806Y-1605443D01*
X-9909116Y-1814729D01*
X-9783263Y-2003082D01*
X-9623082Y-2163263D01*
X-9434729Y-2289116D01*
X-9315000Y-2338710D01*
X-9314999Y-3535123D01*
X-9317055Y-3556000D01*
X-9308850Y-3639314D01*
X-9285699Y-3715628D01*
X-9284547Y-3719427D01*
X-9245083Y-3793260D01*
X-9218056Y-3826192D01*
X-9205770Y-3841162D01*
X-9191973Y-3857974D01*
X-9175761Y-3871279D01*
X-7399999Y-5647042D01*
X-7399998Y-12877126D01*
X-7402054Y-12898003D01*
X-7393849Y-12981317D01*
X-7371200Y-13055979D01*
X-7369546Y-13061430D01*
X-7330082Y-13135263D01*
X-7311857Y-13157470D01*
X-7291533Y-13182234D01*
X-7276972Y-13199977D01*
X-7260760Y-13213282D01*
X-1663280Y-18810763D01*
X-1649975Y-18826975D01*
X-1633763Y-18840280D01*
X-1633762Y-18840281D01*
X-1627468Y-18845446D01*
X-1585261Y-18880085D01*
X-1511428Y-18919549D01*
X-1466143Y-18933286D01*
X-1431316Y-18943851D01*
X-1424259Y-18944546D01*
X-1368875Y-18950001D01*
X-1368868Y-18950001D01*
X-1348001Y-18952056D01*
X-1327134Y-18950001D01*
X-672866Y-18950001D01*
X-651999Y-18952056D01*
X-631132Y-18950001D01*
X-631125Y-18950001D01*
X-568685Y-18943851D01*
X-488572Y-18919549D01*
X-414739Y-18880085D01*
X-355740Y-18831665D01*
X10498533Y-18831665D01*
X10590722Y-18997637D01*
X10813376Y-19077011D01*
X11047238Y-19111423D01*
X11283320Y-19099550D01*
X11512548Y-19041847D01*
X11619278Y-18997637D01*
X11711467Y-18831665D01*
X11105000Y-18225198D01*
X10498533Y-18831665D01*
X-355740Y-18831665D01*
X-350025Y-18826975D01*
X-336716Y-18810758D01*
X624804Y-17849238D01*
X9900577Y-17849238D01*
X9912450Y-18085320D01*
X9970153Y-18314548D01*
X10014363Y-18421278D01*
X10180335Y-18513467D01*
X10786802Y-17907000D01*
X11423198Y-17907000D01*
X12029665Y-18513467D01*
X12195637Y-18421278D01*
X12275011Y-18198624D01*
X12309423Y-17964762D01*
X12297550Y-17728680D01*
X12239847Y-17499452D01*
X12195637Y-17392722D01*
X12029665Y-17300533D01*
X11423198Y-17907000D01*
X10786802Y-17907000D01*
X10180335Y-17300533D01*
X10014363Y-17392722D01*
X9934989Y-17615376D01*
X9900577Y-17849238D01*
X624804Y-17849238D01*
X1158043Y-17316000D01*
X1426933Y-17316000D01*
X1447800Y-17318055D01*
X1468667Y-17316000D01*
X1468674Y-17316000D01*
X1531114Y-17309850D01*
X1611227Y-17285548D01*
X1685060Y-17246084D01*
X1749774Y-17192974D01*
X1763083Y-17176757D01*
X2766841Y-16173000D01*
X3353693Y-16173000D01*
X3367874Y-16194224D01*
X3465376Y-16291726D01*
X3580026Y-16368332D01*
X3707418Y-16421099D01*
X3842656Y-16448000D01*
X3980544Y-16448000D01*
X4115782Y-16421099D01*
X4243174Y-16368332D01*
X4357824Y-16291726D01*
X4455326Y-16194224D01*
X4531932Y-16079574D01*
X4584699Y-15952182D01*
X4611600Y-15816944D01*
X4611600Y-15679056D01*
X4584699Y-15543818D01*
X4531932Y-15416426D01*
X4455326Y-15301776D01*
X4357824Y-15204274D01*
X4243174Y-15127668D01*
X4115782Y-15074901D01*
X3980544Y-15048000D01*
X3842656Y-15048000D01*
X3707418Y-15074901D01*
X3580026Y-15127668D01*
X3465376Y-15204274D01*
X3367874Y-15301776D01*
X3353693Y-15323000D01*
X2611666Y-15323000D01*
X2590799Y-15320945D01*
X2569932Y-15323000D01*
X2569926Y-15323000D01*
X2515898Y-15328321D01*
X2507485Y-15329150D01*
X2495163Y-15332888D01*
X2427373Y-15353452D01*
X2353540Y-15392916D01*
X2317524Y-15422474D01*
X2305917Y-15432000D01*
X2288826Y-15446026D01*
X2275521Y-15462238D01*
X1271760Y-16466000D01*
X1002868Y-16466000D01*
X982001Y-16463945D01*
X961134Y-16466000D01*
X961128Y-16466000D01*
X912029Y-16470836D01*
X898687Y-16472150D01*
X878160Y-16478377D01*
X818575Y-16496452D01*
X744742Y-16535916D01*
X680028Y-16589026D01*
X666723Y-16605238D01*
X-326396Y-17598357D01*
X-326901Y-17595818D01*
X-379668Y-17468426D01*
X-456274Y-17353776D01*
X-553776Y-17256274D01*
X-575000Y-17242093D01*
X-575000Y-10276040D01*
X-523959Y-10225000D01*
X14810Y-10225000D01*
X65874Y-10301424D01*
X163376Y-10398926D01*
X278026Y-10475532D01*
X405418Y-10528299D01*
X540656Y-10555200D01*
X678544Y-10555200D01*
X813782Y-10528299D01*
X941174Y-10475532D01*
X1055824Y-10398926D01*
X1153326Y-10301424D01*
X1229932Y-10186774D01*
X1282699Y-10059382D01*
X1309600Y-9924144D01*
X1309600Y-9786256D01*
X1282699Y-9651018D01*
X1229932Y-9523626D01*
X1153326Y-9408976D01*
X1055824Y-9311474D01*
X941174Y-9234868D01*
X813782Y-9182101D01*
X678544Y-9155200D01*
X540656Y-9155200D01*
X405418Y-9182101D01*
X278026Y-9234868D01*
X163376Y-9311474D01*
X99850Y-9375000D01*
X-679134Y-9375000D01*
X-700001Y-9372945D01*
X-720868Y-9375000D01*
X-720874Y-9375000D01*
X-774902Y-9380321D01*
X-783315Y-9381150D01*
X-794203Y-9384453D01*
X-863427Y-9405452D01*
X-937260Y-9444916D01*
X-1001974Y-9498026D01*
X-1015279Y-9514238D01*
X-1285762Y-9784721D01*
X-1301973Y-9798026D01*
X-1315278Y-9814238D01*
X-1315280Y-9814240D01*
X-1325730Y-9826974D01*
X-1355083Y-9862740D01*
X-1387904Y-9924144D01*
X-1394547Y-9936573D01*
X-1418850Y-10016686D01*
X-1427055Y-10100000D01*
X-1424999Y-10120877D01*
X-1425000Y-17242093D01*
X-1446224Y-17256274D01*
X-1543726Y-17353776D01*
X-1620332Y-17468426D01*
X-1673099Y-17595818D01*
X-1673604Y-17598357D01*
X-6549999Y-12721963D01*
X-6549999Y-5491867D01*
X-6547944Y-5471000D01*
X-6549999Y-5450133D01*
X-6549999Y-5450127D01*
X-6556149Y-5387687D01*
X-6556333Y-5387078D01*
X-6564988Y-5358549D01*
X-6580451Y-5307574D01*
X-6619915Y-5233741D01*
X-6651827Y-5194857D01*
X-6659719Y-5185240D01*
X-6659720Y-5185239D01*
X-6673025Y-5169027D01*
X-6689236Y-5155723D01*
X-8465000Y-3379960D01*
X-8465000Y-2338710D01*
X-8345271Y-2289116D01*
X-8156918Y-2163263D01*
X-7996737Y-2003082D01*
X-7870884Y-1814729D01*
X-7816975Y-1684581D01*
X-7529258Y-1684581D01*
X-7425718Y-1906677D01*
X-7280839Y-2104306D01*
X-7100188Y-2269873D01*
X-6890708Y-2397015D01*
X-6764579Y-2449247D01*
X-6575000Y-2397774D01*
X-6575000Y-1495000D01*
X-6125000Y-1495000D01*
X-6125000Y-2397774D01*
X-5935421Y-2449247D01*
X-5809292Y-2397015D01*
X-5599812Y-2269873D01*
X-5419161Y-2104306D01*
X-5274282Y-1906677D01*
X-5170742Y-1684581D01*
X-5220406Y-1495000D01*
X-6125000Y-1495000D01*
X-6575000Y-1495000D01*
X-7479594Y-1495000D01*
X-7529258Y-1684581D01*
X-7816975Y-1684581D01*
X-7784194Y-1605443D01*
X-7740000Y-1383265D01*
X-7740000Y-1156735D01*
X-4960000Y-1156735D01*
X-4960000Y-1383265D01*
X-4915806Y-1605443D01*
X-4829116Y-1814729D01*
X-4703263Y-2003082D01*
X-4543082Y-2163263D01*
X-4354729Y-2289116D01*
X-4145443Y-2375806D01*
X-3923265Y-2420000D01*
X-3696735Y-2420000D01*
X-3474557Y-2375806D01*
X-3265271Y-2289116D01*
X-3076918Y-2163263D01*
X-2916737Y-2003082D01*
X-2790884Y-1814729D01*
X-2736975Y-1684581D01*
X-2449258Y-1684581D01*
X-2345718Y-1906677D01*
X-2200839Y-2104306D01*
X-2020188Y-2269873D01*
X-1810708Y-2397015D01*
X-1684579Y-2449247D01*
X-1495000Y-2397774D01*
X-1495000Y-1495000D01*
X-1045000Y-1495000D01*
X-1045000Y-2397774D01*
X-855421Y-2449247D01*
X-729292Y-2397015D01*
X-519812Y-2269873D01*
X-339161Y-2104306D01*
X-194282Y-1906677D01*
X-90742Y-1684581D01*
X-140406Y-1495000D01*
X-1045000Y-1495000D01*
X-1495000Y-1495000D01*
X-2399594Y-1495000D01*
X-2449258Y-1684581D01*
X-2736975Y-1684581D01*
X-2704194Y-1605443D01*
X-2660000Y-1383265D01*
X-2660000Y-1156735D01*
X120000Y-1156735D01*
X120000Y-1383265D01*
X164194Y-1605443D01*
X250884Y-1814729D01*
X376737Y-2003082D01*
X536918Y-2163263D01*
X725271Y-2289116D01*
X934557Y-2375806D01*
X1156735Y-2420000D01*
X1383265Y-2420000D01*
X1605443Y-2375806D01*
X1814729Y-2289116D01*
X2003082Y-2163263D01*
X2163263Y-2003082D01*
X2289116Y-1814729D01*
X2375806Y-1605443D01*
X2420000Y-1383265D01*
X2420000Y-1156735D01*
X2660000Y-1156735D01*
X2660000Y-1383265D01*
X2704194Y-1605443D01*
X2790884Y-1814729D01*
X2916737Y-2003082D01*
X3076918Y-2163263D01*
X3265271Y-2289116D01*
X3474557Y-2375806D01*
X3696735Y-2420000D01*
X3923265Y-2420000D01*
X4145443Y-2375806D01*
X4354729Y-2289116D01*
X4543082Y-2163263D01*
X4703263Y-2003082D01*
X4829116Y-1814729D01*
X4915806Y-1605443D01*
X4960000Y-1383265D01*
X4960000Y-1156735D01*
X5200000Y-1156735D01*
X5200000Y-1383265D01*
X5244194Y-1605443D01*
X5330884Y-1814729D01*
X5456737Y-2003082D01*
X5616918Y-2163263D01*
X5805271Y-2289116D01*
X6014557Y-2375806D01*
X6236735Y-2420000D01*
X6463265Y-2420000D01*
X6685443Y-2375806D01*
X6894729Y-2289116D01*
X7083082Y-2163263D01*
X7243263Y-2003082D01*
X7369116Y-1814729D01*
X7455806Y-1605443D01*
X7500000Y-1383265D01*
X7500000Y-1156735D01*
X7740000Y-1156735D01*
X7740000Y-1383265D01*
X7784194Y-1605443D01*
X7870884Y-1814729D01*
X7996737Y-2003082D01*
X8156918Y-2163263D01*
X8345271Y-2289116D01*
X8554557Y-2375806D01*
X8776735Y-2420000D01*
X9003265Y-2420000D01*
X9225443Y-2375806D01*
X9434729Y-2289116D01*
X9623082Y-2163263D01*
X9783263Y-2003082D01*
X9909116Y-1814729D01*
X9995806Y-1605443D01*
X10040000Y-1383265D01*
X10040000Y-1156735D01*
X10280000Y-1156735D01*
X10280000Y-1383265D01*
X10324194Y-1605443D01*
X10410884Y-1814729D01*
X10536737Y-2003082D01*
X10696918Y-2163263D01*
X10885271Y-2289116D01*
X11094557Y-2375806D01*
X11316735Y-2420000D01*
X11543265Y-2420000D01*
X11765443Y-2375806D01*
X11974729Y-2289116D01*
X12163082Y-2163263D01*
X12323263Y-2003082D01*
X12449116Y-1814729D01*
X12535806Y-1605443D01*
X12580000Y-1383265D01*
X12580000Y-1156735D01*
X12535806Y-934557D01*
X12449116Y-725271D01*
X12323263Y-536918D01*
X12163082Y-376737D01*
X11974729Y-250884D01*
X11765443Y-164194D01*
X11543265Y-120000D01*
X11316735Y-120000D01*
X11094557Y-164194D01*
X10885271Y-250884D01*
X10696918Y-376737D01*
X10536737Y-536918D01*
X10410884Y-725271D01*
X10324194Y-934557D01*
X10280000Y-1156735D01*
X10040000Y-1156735D01*
X9995806Y-934557D01*
X9909116Y-725271D01*
X9783263Y-536918D01*
X9623082Y-376737D01*
X9434729Y-250884D01*
X9225443Y-164194D01*
X9003265Y-120000D01*
X8776735Y-120000D01*
X8554557Y-164194D01*
X8345271Y-250884D01*
X8156918Y-376737D01*
X7996737Y-536918D01*
X7870884Y-725271D01*
X7784194Y-934557D01*
X7740000Y-1156735D01*
X7500000Y-1156735D01*
X7455806Y-934557D01*
X7369116Y-725271D01*
X7243263Y-536918D01*
X7083082Y-376737D01*
X6894729Y-250884D01*
X6685443Y-164194D01*
X6463265Y-120000D01*
X6236735Y-120000D01*
X6014557Y-164194D01*
X5805271Y-250884D01*
X5616918Y-376737D01*
X5456737Y-536918D01*
X5330884Y-725271D01*
X5244194Y-934557D01*
X5200000Y-1156735D01*
X4960000Y-1156735D01*
X4915806Y-934557D01*
X4829116Y-725271D01*
X4703263Y-536918D01*
X4543082Y-376737D01*
X4354729Y-250884D01*
X4145443Y-164194D01*
X3923265Y-120000D01*
X3696735Y-120000D01*
X3474557Y-164194D01*
X3265271Y-250884D01*
X3076918Y-376737D01*
X2916737Y-536918D01*
X2790884Y-725271D01*
X2704194Y-934557D01*
X2660000Y-1156735D01*
X2420000Y-1156735D01*
X2375806Y-934557D01*
X2289116Y-725271D01*
X2163263Y-536918D01*
X2003082Y-376737D01*
X1814729Y-250884D01*
X1605443Y-164194D01*
X1383265Y-120000D01*
X1156735Y-120000D01*
X934557Y-164194D01*
X725271Y-250884D01*
X536918Y-376737D01*
X376737Y-536918D01*
X250884Y-725271D01*
X164194Y-934557D01*
X120000Y-1156735D01*
X-2660000Y-1156735D01*
X-2704194Y-934557D01*
X-2736974Y-855419D01*
X-2449258Y-855419D01*
X-2399594Y-1045000D01*
X-1495000Y-1045000D01*
X-1495000Y-142226D01*
X-1045000Y-142226D01*
X-1045000Y-1045000D01*
X-140406Y-1045000D01*
X-90742Y-855419D01*
X-194282Y-633323D01*
X-339161Y-435694D01*
X-519812Y-270127D01*
X-729292Y-142985D01*
X-855421Y-90753D01*
X-1045000Y-142226D01*
X-1495000Y-142226D01*
X-1684579Y-90753D01*
X-1810708Y-142985D01*
X-2020188Y-270127D01*
X-2200839Y-435694D01*
X-2345718Y-633323D01*
X-2449258Y-855419D01*
X-2736974Y-855419D01*
X-2790884Y-725271D01*
X-2916737Y-536918D01*
X-3076918Y-376737D01*
X-3265271Y-250884D01*
X-3474557Y-164194D01*
X-3696735Y-120000D01*
X-3923265Y-120000D01*
X-4145443Y-164194D01*
X-4354729Y-250884D01*
X-4543082Y-376737D01*
X-4703263Y-536918D01*
X-4829116Y-725271D01*
X-4915806Y-934557D01*
X-4960000Y-1156735D01*
X-7740000Y-1156735D01*
X-7784194Y-934557D01*
X-7816974Y-855419D01*
X-7529258Y-855419D01*
X-7479594Y-1045000D01*
X-6575000Y-1045000D01*
X-6575000Y-142226D01*
X-6125000Y-142226D01*
X-6125000Y-1045000D01*
X-5220406Y-1045000D01*
X-5170742Y-855419D01*
X-5274282Y-633323D01*
X-5419161Y-435694D01*
X-5599812Y-270127D01*
X-5809292Y-142985D01*
X-5935421Y-90753D01*
X-6125000Y-142226D01*
X-6575000Y-142226D01*
X-6764579Y-90753D01*
X-6890708Y-142985D01*
X-7100188Y-270127D01*
X-7280839Y-435694D01*
X-7425718Y-633323D01*
X-7529258Y-855419D01*
X-7816974Y-855419D01*
X-7870884Y-725271D01*
X-7996737Y-536918D01*
X-8156918Y-376737D01*
X-8345271Y-250884D01*
X-8554557Y-164194D01*
X-8776735Y-120000D01*
X-9003265Y-120000D01*
X-9225443Y-164194D01*
X-9434729Y-250884D01*
X-9623082Y-376737D01*
X-9783263Y-536918D01*
X-9909116Y-725271D01*
X-9995806Y-934557D01*
X-10040000Y-1156735D01*
X-10278549Y-1156735D01*
X-10278549Y-420000D01*
X-10284341Y-361190D01*
X-10301496Y-304640D01*
X-10329353Y-252523D01*
X-10366842Y-206842D01*
X-10412523Y-169353D01*
X-10464640Y-141496D01*
X-10521190Y-124341D01*
X-10580000Y-118549D01*
X-12280000Y-118549D01*
X-12338810Y-124341D01*
X-12395360Y-141496D01*
X-12447477Y-169353D01*
X-12493158Y-206842D01*
X-12530647Y-252523D01*
X-12558504Y-304640D01*
X-12575659Y-361190D01*
X-12581451Y-420000D01*
X-13150000Y-420000D01*
X-13150000Y-40000D01*
X-13151921Y-20491D01*
X-13157612Y-1732D01*
X-13166853Y15557D01*
X-13179289Y30711D01*
X-13194443Y43147D01*
X-13211732Y52388D01*
X-13230491Y58079D01*
X-13250000Y60000D01*
X-19625000Y60000D01*
X-19625000Y1981662D01*
X-19581203Y2428341D01*
X-17220000Y2428341D01*
X-17220000Y2211659D01*
X-17177727Y1999142D01*
X-17094807Y1798955D01*
X-16974425Y1618791D01*
X-16821209Y1465575D01*
X-16641045Y1345193D01*
X-16440858Y1262273D01*
X-16228341Y1220000D01*
X-16011659Y1220000D01*
X-15799142Y1262273D01*
X-15598955Y1345193D01*
X-15541977Y1383265D01*
X-12580000Y1383265D01*
X-12580000Y1156735D01*
X-12535806Y934557D01*
X-12449116Y725271D01*
X-12323263Y536918D01*
X-12163082Y376737D01*
X-11974729Y250884D01*
X-11765443Y164194D01*
X-11543265Y120000D01*
X-11316735Y120000D01*
X-11094557Y164194D01*
X-10885271Y250884D01*
X-10696918Y376737D01*
X-10536737Y536918D01*
X-10410884Y725271D01*
X-10324194Y934557D01*
X-10280000Y1156735D01*
X-10280000Y1383265D01*
X-10040000Y1383265D01*
X-10040000Y1156735D01*
X-9995806Y934557D01*
X-9909116Y725271D01*
X-9783263Y536918D01*
X-9623082Y376737D01*
X-9434729Y250884D01*
X-9225443Y164194D01*
X-9003265Y120000D01*
X-8776735Y120000D01*
X-8554557Y164194D01*
X-8345271Y250884D01*
X-8156918Y376737D01*
X-7996737Y536918D01*
X-7870884Y725271D01*
X-7784194Y934557D01*
X-7740000Y1156735D01*
X-7740000Y1383265D01*
X-7500000Y1383265D01*
X-7500000Y1156735D01*
X-7455806Y934557D01*
X-7369116Y725271D01*
X-7243263Y536918D01*
X-7083082Y376737D01*
X-6894729Y250884D01*
X-6685443Y164194D01*
X-6463265Y120000D01*
X-6236735Y120000D01*
X-6014557Y164194D01*
X-5805271Y250884D01*
X-5616918Y376737D01*
X-5456737Y536918D01*
X-5330884Y725271D01*
X-5276975Y855419D01*
X-4989258Y855419D01*
X-4885718Y633323D01*
X-4740839Y435694D01*
X-4560188Y270127D01*
X-4350708Y142985D01*
X-4224579Y90753D01*
X-4035000Y142226D01*
X-4035000Y1045000D01*
X-3585000Y1045000D01*
X-3585000Y142226D01*
X-3395421Y90753D01*
X-3269292Y142985D01*
X-3059812Y270127D01*
X-2879161Y435694D01*
X-2734282Y633323D01*
X-2630742Y855419D01*
X-2680406Y1045000D01*
X-3585000Y1045000D01*
X-4035000Y1045000D01*
X-4939594Y1045000D01*
X-4989258Y855419D01*
X-5276975Y855419D01*
X-5244194Y934557D01*
X-5200000Y1156735D01*
X-5200000Y1383265D01*
X-2420000Y1383265D01*
X-2420000Y1156735D01*
X-2375806Y934557D01*
X-2289116Y725271D01*
X-2163263Y536918D01*
X-2003082Y376737D01*
X-1814729Y250884D01*
X-1605443Y164194D01*
X-1383265Y120000D01*
X-1156735Y120000D01*
X-934557Y164194D01*
X-725271Y250884D01*
X-536918Y376737D01*
X-376737Y536918D01*
X-250884Y725271D01*
X-164194Y934557D01*
X-120000Y1156735D01*
X-120000Y1383265D01*
X-164194Y1605443D01*
X-213788Y1725171D01*
X-104721Y1834238D01*
X-104717Y1834243D01*
X81042Y2020001D01*
X393656Y2020001D01*
X376737Y2003082D01*
X250884Y1814729D01*
X164194Y1605443D01*
X120000Y1383265D01*
X120000Y1156735D01*
X164194Y934557D01*
X250884Y725271D01*
X376737Y536918D01*
X536918Y376737D01*
X725271Y250884D01*
X934557Y164194D01*
X1156735Y120000D01*
X1383265Y120000D01*
X1605443Y164194D01*
X1814729Y250884D01*
X2003082Y376737D01*
X2163263Y536918D01*
X2289116Y725271D01*
X2375806Y934557D01*
X2420000Y1156735D01*
X2420000Y1383265D01*
X2375806Y1605443D01*
X2289116Y1814729D01*
X2163263Y2003082D01*
X2146344Y2020001D01*
X2933656Y2020001D01*
X2916737Y2003082D01*
X2790884Y1814729D01*
X2704194Y1605443D01*
X2660000Y1383265D01*
X2660000Y1156735D01*
X2704194Y934557D01*
X2790884Y725271D01*
X2916737Y536918D01*
X3076918Y376737D01*
X3265271Y250884D01*
X3474557Y164194D01*
X3696735Y120000D01*
X3923265Y120000D01*
X4145443Y164194D01*
X4354729Y250884D01*
X4543082Y376737D01*
X4703263Y536918D01*
X4829116Y725271D01*
X4915806Y934557D01*
X4960000Y1156735D01*
X4960000Y1383265D01*
X4915806Y1605443D01*
X4829116Y1814729D01*
X4703263Y2003082D01*
X4686344Y2020001D01*
X5473656Y2020001D01*
X5456737Y2003082D01*
X5330884Y1814729D01*
X5244194Y1605443D01*
X5200000Y1383265D01*
X5200000Y1156735D01*
X5244194Y934557D01*
X5330884Y725271D01*
X5456737Y536918D01*
X5616918Y376737D01*
X5805271Y250884D01*
X6014557Y164194D01*
X6236735Y120000D01*
X6463265Y120000D01*
X6685443Y164194D01*
X6894729Y250884D01*
X7083082Y376737D01*
X7243263Y536918D01*
X7369116Y725271D01*
X7455806Y934557D01*
X7500000Y1156735D01*
X7500000Y1383265D01*
X7455806Y1605443D01*
X7369116Y1814729D01*
X7243263Y2003082D01*
X7226344Y2020001D01*
X8013656Y2020001D01*
X7996737Y2003082D01*
X7870884Y1814729D01*
X7784194Y1605443D01*
X7740000Y1383265D01*
X7740000Y1156735D01*
X7784194Y934557D01*
X7870884Y725271D01*
X7996737Y536918D01*
X8156918Y376737D01*
X8345271Y250884D01*
X8554557Y164194D01*
X8776735Y120000D01*
X9003265Y120000D01*
X9225443Y164194D01*
X9434729Y250884D01*
X9623082Y376737D01*
X9783263Y536918D01*
X9909116Y725271D01*
X9995806Y934557D01*
X10040000Y1156735D01*
X10040000Y1383265D01*
X9995806Y1605443D01*
X9909116Y1814729D01*
X9783263Y2003082D01*
X9766344Y2020001D01*
X10553656Y2020001D01*
X10536737Y2003082D01*
X10410884Y1814729D01*
X10324194Y1605443D01*
X10280000Y1383265D01*
X10280000Y1156735D01*
X10324194Y934557D01*
X10410884Y725271D01*
X10536737Y536918D01*
X10696918Y376737D01*
X10885271Y250884D01*
X11094557Y164194D01*
X11316735Y120000D01*
X11543265Y120000D01*
X11765443Y164194D01*
X11974729Y250884D01*
X12163082Y376737D01*
X12323263Y536918D01*
X12449116Y725271D01*
X12535806Y934557D01*
X12580000Y1156735D01*
X12580000Y1383265D01*
X12535806Y1605443D01*
X12449116Y1814729D01*
X12323263Y2003082D01*
X12306344Y2020001D01*
X13451961Y2020001D01*
X17899011Y-2427049D01*
X17899011Y-3056763D01*
X17745081Y-2974486D01*
X17575431Y-2923023D01*
X17443207Y-2910000D01*
X3765793Y-2910000D01*
X3633569Y-2923023D01*
X3463919Y-2974486D01*
X3307568Y-3058057D01*
X3170525Y-3170525D01*
X3058057Y-3307568D01*
X2974486Y-3463919D01*
X2923023Y-3633569D01*
X2905646Y-3810000D01*
X2923023Y-3986431D01*
X2974486Y-4156081D01*
X3058057Y-4312432D01*
X3170525Y-4449475D01*
X3307568Y-4561943D01*
X3463919Y-4645514D01*
X3633569Y-4696977D01*
X3765793Y-4710000D01*
X4866450Y-4710000D01*
X4790274Y-4786176D01*
X4713668Y-4900826D01*
X4660901Y-5028218D01*
X4634000Y-5163456D01*
X4634000Y-5301344D01*
X4660901Y-5436582D01*
X4713668Y-5563974D01*
X4790274Y-5678624D01*
X4887776Y-5776126D01*
X5002426Y-5852732D01*
X5129818Y-5905499D01*
X5265056Y-5932400D01*
X5402944Y-5932400D01*
X5427979Y-5927420D01*
X5454000Y-5953441D01*
X5453999Y-10202536D01*
X5446332Y-10184026D01*
X5369726Y-10069376D01*
X5272224Y-9971874D01*
X5157574Y-9895268D01*
X5030182Y-9842501D01*
X4894944Y-9815600D01*
X4757056Y-9815600D01*
X4621818Y-9842501D01*
X4494426Y-9895268D01*
X4379776Y-9971874D01*
X4282274Y-10069376D01*
X4205668Y-10184026D01*
X4152901Y-10311418D01*
X4126000Y-10446656D01*
X4126000Y-10584544D01*
X4130980Y-10609579D01*
X933439Y-13807121D01*
X917227Y-13820426D01*
X903922Y-13836638D01*
X903920Y-13836640D01*
X901867Y-13839142D01*
X864117Y-13885140D01*
X827569Y-13953518D01*
X824653Y-13958973D01*
X800350Y-14039086D01*
X792145Y-14122400D01*
X794201Y-14143276D01*
X794201Y-14174092D01*
X772976Y-14188274D01*
X675474Y-14285776D01*
X598868Y-14400426D01*
X546101Y-14527818D01*
X519200Y-14663056D01*
X519200Y-14800944D01*
X546101Y-14936182D01*
X598868Y-15063574D01*
X675474Y-15178224D01*
X772976Y-15275726D01*
X887626Y-15352332D01*
X1015018Y-15405099D01*
X1150256Y-15432000D01*
X1288144Y-15432000D01*
X1423382Y-15405099D01*
X1550774Y-15352332D01*
X1665424Y-15275726D01*
X1762926Y-15178224D01*
X1839532Y-15063574D01*
X1892299Y-14936182D01*
X1919200Y-14800944D01*
X1919200Y-14663056D01*
X1892299Y-14527818D01*
X1839532Y-14400426D01*
X1762926Y-14285776D01*
X1709895Y-14232745D01*
X4732021Y-11210620D01*
X4757056Y-11215600D01*
X4894944Y-11215600D01*
X5030182Y-11188699D01*
X5157574Y-11135932D01*
X5272224Y-11059326D01*
X5369726Y-10961824D01*
X5446332Y-10847174D01*
X5453999Y-10828664D01*
X5453999Y-11293732D01*
X5451944Y-11314599D01*
X5453999Y-11335466D01*
X5453999Y-11335472D01*
X5457909Y-11375165D01*
X5460149Y-11397913D01*
X5462819Y-11406713D01*
X5484451Y-11478025D01*
X5523915Y-11551858D01*
X5577025Y-11616573D01*
X5593243Y-11629883D01*
X5620201Y-11656841D01*
X5620200Y-13692359D01*
X5427979Y-13884580D01*
X5402944Y-13879600D01*
X5265056Y-13879600D01*
X5129818Y-13906501D01*
X5002426Y-13959268D01*
X4887776Y-14035874D01*
X4790274Y-14133376D01*
X4713668Y-14248026D01*
X4660901Y-14375418D01*
X4634000Y-14510656D01*
X4634000Y-14648544D01*
X4660901Y-14783782D01*
X4713668Y-14911174D01*
X4790274Y-15025824D01*
X4887776Y-15123326D01*
X5002426Y-15199932D01*
X5129818Y-15252699D01*
X5265056Y-15279600D01*
X5402944Y-15279600D01*
X5538182Y-15252699D01*
X5665574Y-15199932D01*
X5780224Y-15123326D01*
X5877726Y-15025824D01*
X5954332Y-14911174D01*
X6007099Y-14783782D01*
X6034000Y-14648544D01*
X6034000Y-14510656D01*
X6029020Y-14485621D01*
X6330963Y-14183678D01*
X6347174Y-14170374D01*
X6361782Y-14152575D01*
X6371879Y-14140271D01*
X6400284Y-14105660D01*
X6429072Y-14051800D01*
X6439748Y-14031828D01*
X6464050Y-13951714D01*
X6464513Y-13947015D01*
X6470200Y-13889274D01*
X6470200Y-13889267D01*
X6472255Y-13868400D01*
X6470200Y-13847533D01*
X6470200Y-11501667D01*
X6472255Y-11480800D01*
X6470200Y-11459933D01*
X6470200Y-11459926D01*
X6464050Y-11397486D01*
X6456531Y-11372698D01*
X6439748Y-11317372D01*
X6425721Y-11291130D01*
X6400284Y-11243540D01*
X6347174Y-11178826D01*
X6330956Y-11165516D01*
X6303999Y-11138559D01*
X6303999Y-8304846D01*
X6314274Y-8320224D01*
X6411776Y-8417726D01*
X6526426Y-8494332D01*
X6653818Y-8547099D01*
X6789056Y-8574000D01*
X6926944Y-8574000D01*
X7062182Y-8547099D01*
X7189574Y-8494332D01*
X7304224Y-8417726D01*
X7398200Y-8323750D01*
X7398201Y-16029159D01*
X7256780Y-16170580D01*
X7231744Y-16165600D01*
X7093856Y-16165600D01*
X6958618Y-16192501D01*
X6831226Y-16245268D01*
X6716576Y-16321874D01*
X6619074Y-16419376D01*
X6542468Y-16534026D01*
X6489701Y-16661418D01*
X6462800Y-16796656D01*
X6462800Y-16934544D01*
X6489701Y-17069782D01*
X6542468Y-17197174D01*
X6619074Y-17311824D01*
X6716576Y-17409326D01*
X6831226Y-17485932D01*
X6958618Y-17538699D01*
X7093856Y-17565600D01*
X7231744Y-17565600D01*
X7366982Y-17538699D01*
X7494374Y-17485932D01*
X7609024Y-17409326D01*
X7706526Y-17311824D01*
X7783132Y-17197174D01*
X7835899Y-17069782D01*
X7853293Y-16982335D01*
X10498533Y-16982335D01*
X11105000Y-17588802D01*
X11586802Y-17107000D01*
X13503549Y-17107000D01*
X13503549Y-18707000D01*
X13509341Y-18765810D01*
X13526496Y-18822360D01*
X13554353Y-18874477D01*
X13591842Y-18920158D01*
X13637523Y-18957647D01*
X13689640Y-18985504D01*
X13746190Y-19002659D01*
X13805000Y-19008451D01*
X15405000Y-19008451D01*
X15463810Y-19002659D01*
X15520360Y-18985504D01*
X15572477Y-18957647D01*
X15618158Y-18920158D01*
X15655647Y-18874477D01*
X15683504Y-18822360D01*
X15700659Y-18765810D01*
X15706451Y-18707000D01*
X15706451Y-17107000D01*
X15700659Y-17048190D01*
X15683504Y-16991640D01*
X15655647Y-16939523D01*
X15618158Y-16893842D01*
X15572477Y-16856353D01*
X15520360Y-16828496D01*
X15463810Y-16811341D01*
X15405000Y-16805549D01*
X13805000Y-16805549D01*
X13746190Y-16811341D01*
X13689640Y-16828496D01*
X13637523Y-16856353D01*
X13591842Y-16893842D01*
X13554353Y-16939523D01*
X13526496Y-16991640D01*
X13509341Y-17048190D01*
X13503549Y-17107000D01*
X11586802Y-17107000D01*
X11711467Y-16982335D01*
X11619278Y-16816363D01*
X11396624Y-16736989D01*
X11162762Y-16702577D01*
X10926680Y-16714450D01*
X10697452Y-16772153D01*
X10590722Y-16816363D01*
X10498533Y-16982335D01*
X7853293Y-16982335D01*
X7862800Y-16934544D01*
X7862800Y-16796656D01*
X7857820Y-16771620D01*
X8108956Y-16520484D01*
X8125174Y-16507174D01*
X8178284Y-16442460D01*
X8217748Y-16368627D01*
X8242050Y-16288514D01*
X8248200Y-16226074D01*
X8248200Y-16226067D01*
X8250255Y-16205200D01*
X8248200Y-16184333D01*
X8248200Y-7787072D01*
X8250256Y-7766198D01*
X8242050Y-7682884D01*
X8217748Y-7602771D01*
X8208039Y-7584607D01*
X8178284Y-7528938D01*
X8125174Y-7464224D01*
X8108958Y-7450916D01*
X7689400Y-7031358D01*
X7689400Y-6729240D01*
X8491221Y-5927420D01*
X8516256Y-5932400D01*
X8654144Y-5932400D01*
X8789382Y-5905499D01*
X8916774Y-5852732D01*
X9031424Y-5776126D01*
X9128926Y-5678624D01*
X9205532Y-5563974D01*
X9258299Y-5436582D01*
X9285200Y-5301344D01*
X9285200Y-5163456D01*
X9258299Y-5028218D01*
X9205532Y-4900826D01*
X9128926Y-4786176D01*
X9052750Y-4710000D01*
X9809628Y-4710000D01*
X9804917Y-4715740D01*
X9765452Y-4789573D01*
X9741150Y-4869686D01*
X9735000Y-4932126D01*
X9735000Y-4932133D01*
X9732945Y-4953000D01*
X9735000Y-4973867D01*
X9735000Y-5186133D01*
X9732945Y-5207000D01*
X9735000Y-5227867D01*
X9735000Y-5227873D01*
X9739266Y-5271184D01*
X9741150Y-5290314D01*
X9746386Y-5307573D01*
X9765452Y-5370426D01*
X9804916Y-5444259D01*
X9858026Y-5508974D01*
X9874244Y-5522284D01*
X9939960Y-5588000D01*
X9874239Y-5653721D01*
X9858027Y-5667026D01*
X9804917Y-5731740D01*
X9765452Y-5805573D01*
X9741150Y-5885686D01*
X9735000Y-5948126D01*
X9735000Y-5948133D01*
X9732945Y-5969000D01*
X9735000Y-5989867D01*
X9735000Y-6202133D01*
X9732945Y-6223000D01*
X9735000Y-6243867D01*
X9735000Y-6243873D01*
X9739962Y-6294253D01*
X9741150Y-6306314D01*
X9744093Y-6316014D01*
X9765452Y-6386426D01*
X9804916Y-6460259D01*
X9858026Y-6524974D01*
X9874244Y-6538284D01*
X9939960Y-6604000D01*
X9874239Y-6669721D01*
X9858027Y-6683026D01*
X9804917Y-6747740D01*
X9765452Y-6821573D01*
X9741150Y-6901686D01*
X9735000Y-6964126D01*
X9735000Y-6964133D01*
X9732945Y-6985000D01*
X9735000Y-7005867D01*
X9735000Y-7218133D01*
X9732945Y-7239000D01*
X9735000Y-7259867D01*
X9735000Y-7259873D01*
X9738273Y-7293104D01*
X9741150Y-7322314D01*
X9743154Y-7328920D01*
X9765452Y-7402426D01*
X9804916Y-7476259D01*
X9858026Y-7540974D01*
X9874244Y-7554284D01*
X9939960Y-7620000D01*
X9874239Y-7685721D01*
X9858027Y-7699026D01*
X9844722Y-7715238D01*
X9844720Y-7715240D01*
X9838092Y-7723316D01*
X9804917Y-7763740D01*
X9765452Y-7837573D01*
X9741150Y-7917686D01*
X9735000Y-7980126D01*
X9735000Y-7980133D01*
X9732945Y-8001000D01*
X9735000Y-8021867D01*
X9735000Y-8234133D01*
X9732945Y-8255000D01*
X9735000Y-8275867D01*
X9735000Y-8275873D01*
X9739336Y-8319898D01*
X9741150Y-8338314D01*
X9743141Y-8344876D01*
X9765452Y-8418426D01*
X9804916Y-8492259D01*
X9858026Y-8556974D01*
X9874244Y-8570284D01*
X9939960Y-8636000D01*
X9874239Y-8701721D01*
X9858027Y-8715026D01*
X9844722Y-8731238D01*
X9844720Y-8731240D01*
X9840564Y-8736304D01*
X9804917Y-8779740D01*
X9765452Y-8853573D01*
X9741150Y-8933686D01*
X9735000Y-8996126D01*
X9735000Y-8996133D01*
X9732945Y-9017000D01*
X9735000Y-9037867D01*
X9735000Y-9250133D01*
X9732945Y-9271000D01*
X9735000Y-9291867D01*
X9735000Y-9291873D01*
X9738980Y-9332280D01*
X9741150Y-9354314D01*
X9746802Y-9372945D01*
X9765452Y-9434426D01*
X9804916Y-9508259D01*
X9858026Y-9572974D01*
X9874244Y-9586284D01*
X9939960Y-9652000D01*
X9874239Y-9717721D01*
X9858027Y-9731026D01*
X9804917Y-9795740D01*
X9765452Y-9869573D01*
X9741150Y-9949686D01*
X9735000Y-10012126D01*
X9735000Y-10012133D01*
X9732945Y-10033000D01*
X9735000Y-10053867D01*
X9735000Y-10266133D01*
X9732945Y-10287000D01*
X9735000Y-10307867D01*
X9735000Y-10307873D01*
X9739490Y-10353457D01*
X9741150Y-10370314D01*
X9743241Y-10377206D01*
X9765452Y-10450426D01*
X9804916Y-10524259D01*
X9858026Y-10588974D01*
X9874244Y-10602284D01*
X9939960Y-10668000D01*
X9874239Y-10733721D01*
X9858027Y-10747026D01*
X9844722Y-10763238D01*
X9844720Y-10763240D01*
X9835154Y-10774897D01*
X9804917Y-10811740D01*
X9765452Y-10885573D01*
X9741150Y-10965686D01*
X9735000Y-11028126D01*
X9735000Y-11028133D01*
X9732945Y-11049000D01*
X9735000Y-11069867D01*
X9735000Y-11282133D01*
X9732945Y-11303000D01*
X9735000Y-11323867D01*
X9735000Y-11323873D01*
X9739332Y-11367851D01*
X9741150Y-11386314D01*
X9744669Y-11397913D01*
X9765452Y-11466426D01*
X9804916Y-11540259D01*
X9858026Y-11604974D01*
X9874244Y-11618284D01*
X9939960Y-11684000D01*
X9874239Y-11749721D01*
X9858027Y-11763026D01*
X9844722Y-11779238D01*
X9844720Y-11779240D01*
X9832988Y-11793536D01*
X9804917Y-11827740D01*
X9765452Y-11901573D01*
X9741150Y-11981686D01*
X9735000Y-12044126D01*
X9735000Y-12044133D01*
X9732945Y-12065000D01*
X9735000Y-12085867D01*
X9735000Y-12298133D01*
X9732945Y-12319000D01*
X9735000Y-12339867D01*
X9735000Y-12339873D01*
X9738978Y-12380256D01*
X9741150Y-12402314D01*
X9743352Y-12409573D01*
X9765452Y-12482426D01*
X9804916Y-12556259D01*
X9858026Y-12620974D01*
X9874244Y-12634284D01*
X9939960Y-12700000D01*
X9874239Y-12765721D01*
X9858027Y-12779026D01*
X9844722Y-12795238D01*
X9844720Y-12795240D01*
X9841294Y-12799415D01*
X9804917Y-12843740D01*
X9765452Y-12917573D01*
X9741150Y-12997686D01*
X9735000Y-13060126D01*
X9735000Y-13060133D01*
X9732945Y-13081000D01*
X9735000Y-13101867D01*
X9735000Y-13314133D01*
X9732945Y-13335000D01*
X9735000Y-13355867D01*
X9735000Y-13355873D01*
X9739388Y-13400420D01*
X9741150Y-13418314D01*
X9743058Y-13424604D01*
X9765452Y-13498426D01*
X9804916Y-13572259D01*
X9858026Y-13636974D01*
X9874244Y-13650284D01*
X9939960Y-13716000D01*
X9874240Y-13781720D01*
X9858027Y-13795026D01*
X9844722Y-13811238D01*
X9844720Y-13811240D01*
X9835898Y-13821990D01*
X9804917Y-13859740D01*
X9765452Y-13933573D01*
X9741150Y-14013686D01*
X9735000Y-14076126D01*
X9735000Y-14076133D01*
X9732945Y-14097000D01*
X9735000Y-14117867D01*
X9735000Y-14330133D01*
X9732945Y-14351000D01*
X9735000Y-14371867D01*
X9735000Y-14371873D01*
X9740171Y-14424374D01*
X9741150Y-14434314D01*
X9744682Y-14445957D01*
X9765452Y-14514426D01*
X9804916Y-14588259D01*
X9858026Y-14652974D01*
X9874244Y-14666284D01*
X9971716Y-14763756D01*
X9985026Y-14779974D01*
X10049740Y-14833084D01*
X10123573Y-14872548D01*
X10181220Y-14890035D01*
X10203685Y-14896850D01*
X10209270Y-14897400D01*
X10266126Y-14903000D01*
X10266132Y-14903000D01*
X10286999Y-14905055D01*
X10307866Y-14903000D01*
X16728209Y-14903000D01*
X16632526Y-14981525D01*
X16520058Y-15118568D01*
X16436487Y-15274919D01*
X16385024Y-15444569D01*
X16372001Y-15576793D01*
X16372000Y-16935206D01*
X16372001Y-16935216D01*
X16372000Y-25078836D01*
X16356640Y-25083496D01*
X16304523Y-25111353D01*
X16258842Y-25148842D01*
X16221353Y-25194523D01*
X16193496Y-25246640D01*
X16176341Y-25303190D01*
X16170549Y-25362000D01*
X16170549Y-26962000D01*
X16176341Y-27020810D01*
X16193496Y-27077360D01*
X16221353Y-27129477D01*
X16258842Y-27175158D01*
X16304523Y-27212647D01*
X16356640Y-27240504D01*
X16372001Y-27245164D01*
X16372000Y-33587836D01*
X16356640Y-33592496D01*
X16304523Y-33620353D01*
X16258842Y-33657842D01*
X16221353Y-33703523D01*
X16193496Y-33755640D01*
X16176341Y-33812190D01*
X16170549Y-33871000D01*
X16170549Y-35471000D01*
X16176341Y-35529810D01*
X16193496Y-35586360D01*
X16221353Y-35638477D01*
X16258842Y-35684158D01*
X16304523Y-35721647D01*
X16356640Y-35749504D01*
X16372001Y-35754164D01*
X16372000Y-37420793D01*
X16367646Y-37465000D01*
X16372000Y-37509206D01*
X16385023Y-37641430D01*
X16436486Y-37811080D01*
X16520057Y-37967431D01*
X16632525Y-38104475D01*
X16666865Y-38132657D01*
X17400001Y-38865793D01*
X17400000Y-46827208D01*
X16832345Y-47394863D01*
X16748057Y-47497569D01*
X16664487Y-47653919D01*
X16613023Y-47823570D01*
X16595646Y-48000000D01*
X16613023Y-48176430D01*
X16664487Y-48346081D01*
X16748057Y-48502431D01*
X16860526Y-48639474D01*
X16997569Y-48751943D01*
X17153919Y-48835513D01*
X17323570Y-48886977D01*
X17500000Y-48904354D01*
X17676430Y-48886977D01*
X17846081Y-48835513D01*
X18002431Y-48751943D01*
X18105137Y-48667655D01*
X18905136Y-47867656D01*
X18939475Y-47839475D01*
X19051943Y-47702432D01*
X19135514Y-47546081D01*
X19186977Y-47376431D01*
X19200000Y-47244207D01*
X19200000Y-47244206D01*
X19204354Y-47200000D01*
X19200000Y-47155793D01*
X19200000Y-38537207D01*
X19204354Y-38493000D01*
X19186977Y-38316569D01*
X19135514Y-38146918D01*
X19051943Y-37990568D01*
X18967655Y-37887863D01*
X18939475Y-37853525D01*
X18905135Y-37825343D01*
X18172000Y-37092208D01*
X18172000Y-35754164D01*
X18187360Y-35749504D01*
X18239477Y-35721647D01*
X18285158Y-35684158D01*
X18322647Y-35638477D01*
X18350504Y-35586360D01*
X18367659Y-35529810D01*
X18373451Y-35471000D01*
X18373451Y-33871000D01*
X18367659Y-33812190D01*
X18350504Y-33755640D01*
X18322647Y-33703523D01*
X18285158Y-33657842D01*
X18239477Y-33620353D01*
X18187360Y-33592496D01*
X18172000Y-33587836D01*
X18172000Y-27245164D01*
X18187360Y-27240504D01*
X18239477Y-27212647D01*
X18285158Y-27175158D01*
X18322647Y-27129477D01*
X18350504Y-27077360D01*
X18367659Y-27020810D01*
X18373451Y-26962000D01*
X18373451Y-25362000D01*
X18367659Y-25303190D01*
X18350504Y-25246640D01*
X18322647Y-25194523D01*
X18285158Y-25148842D01*
X18239477Y-25111353D01*
X18187360Y-25083496D01*
X18172000Y-25078836D01*
X18172000Y-17848719D01*
X18175668Y-17857574D01*
X18252274Y-17972224D01*
X18349776Y-18069726D01*
X18464426Y-18146332D01*
X18591818Y-18199099D01*
X18727056Y-18226000D01*
X18864944Y-18226000D01*
X19000182Y-18199099D01*
X19127574Y-18146332D01*
X19242224Y-18069726D01*
X19339726Y-17972224D01*
X19416332Y-17857574D01*
X19469099Y-17730182D01*
X19496000Y-17594944D01*
X19496000Y-17457056D01*
X19469099Y-17321818D01*
X19416332Y-17194426D01*
X19339726Y-17079776D01*
X19242224Y-16982274D01*
X19221000Y-16968093D01*
X19221000Y-14752873D01*
X19223056Y-14732000D01*
X19214850Y-14648686D01*
X19190548Y-14568573D01*
X19184254Y-14556797D01*
X19151084Y-14494740D01*
X19097974Y-14430026D01*
X19081756Y-14416716D01*
X18586000Y-13920960D01*
X18586000Y-5129040D01*
X18609768Y-5105272D01*
X18625984Y-5091964D01*
X18679094Y-5027250D01*
X18718558Y-4953417D01*
X18740624Y-4880676D01*
X18742860Y-4873305D01*
X18744179Y-4859912D01*
X18749010Y-4810864D01*
X18749010Y-4810857D01*
X18751065Y-4789990D01*
X18749010Y-4769123D01*
X18749010Y-2271875D01*
X18751065Y-2251008D01*
X18749010Y-2230141D01*
X18749010Y-2230134D01*
X18742860Y-2167694D01*
X18718558Y-2087581D01*
X18679094Y-2013748D01*
X18625984Y-1949034D01*
X18609766Y-1935724D01*
X13943285Y2730757D01*
X13929975Y2746975D01*
X13865261Y2800085D01*
X13791428Y2839549D01*
X13711315Y2863851D01*
X13648875Y2870001D01*
X13648868Y2870001D01*
X13628001Y2872056D01*
X13607134Y2870001D01*
X-74133Y2870001D01*
X-95000Y2872056D01*
X-115867Y2870001D01*
X-115873Y2870001D01*
X-169901Y2864680D01*
X-178314Y2863851D01*
X-202616Y2856479D01*
X-258426Y2839549D01*
X-332259Y2800085D01*
X-396973Y2746975D01*
X-410278Y2730763D01*
X-705757Y2435283D01*
X-705762Y2435279D01*
X-814829Y2326212D01*
X-934557Y2375806D01*
X-1156735Y2420000D01*
X-1383265Y2420000D01*
X-1605443Y2375806D01*
X-1814729Y2289116D01*
X-2003082Y2163263D01*
X-2163263Y2003082D01*
X-2289116Y1814729D01*
X-2375806Y1605443D01*
X-2420000Y1383265D01*
X-5200000Y1383265D01*
X-5244194Y1605443D01*
X-5276974Y1684581D01*
X-4989258Y1684581D01*
X-4939594Y1495000D01*
X-4035000Y1495000D01*
X-4035000Y2397774D01*
X-3585000Y2397774D01*
X-3585000Y1495000D01*
X-2680406Y1495000D01*
X-2630742Y1684581D01*
X-2734282Y1906677D01*
X-2879161Y2104306D01*
X-3059812Y2269873D01*
X-3269292Y2397015D01*
X-3395421Y2449247D01*
X-3585000Y2397774D01*
X-4035000Y2397774D01*
X-4224579Y2449247D01*
X-4350708Y2397015D01*
X-4560188Y2269873D01*
X-4740839Y2104306D01*
X-4885718Y1906677D01*
X-4989258Y1684581D01*
X-5276974Y1684581D01*
X-5330884Y1814729D01*
X-5456737Y2003082D01*
X-5616918Y2163263D01*
X-5805271Y2289116D01*
X-6014557Y2375806D01*
X-6236735Y2420000D01*
X-6463265Y2420000D01*
X-6685443Y2375806D01*
X-6894729Y2289116D01*
X-7083082Y2163263D01*
X-7243263Y2003082D01*
X-7369116Y1814729D01*
X-7455806Y1605443D01*
X-7500000Y1383265D01*
X-7740000Y1383265D01*
X-7784194Y1605443D01*
X-7870884Y1814729D01*
X-7996737Y2003082D01*
X-8156918Y2163263D01*
X-8345271Y2289116D01*
X-8554557Y2375806D01*
X-8776735Y2420000D01*
X-9003265Y2420000D01*
X-9225443Y2375806D01*
X-9434729Y2289116D01*
X-9623082Y2163263D01*
X-9783263Y2003082D01*
X-9909116Y1814729D01*
X-9995806Y1605443D01*
X-10040000Y1383265D01*
X-10280000Y1383265D01*
X-10324194Y1605443D01*
X-10410884Y1814729D01*
X-10536737Y2003082D01*
X-10696918Y2163263D01*
X-10885271Y2289116D01*
X-11094557Y2375806D01*
X-11316735Y2420000D01*
X-11543265Y2420000D01*
X-11765443Y2375806D01*
X-11974729Y2289116D01*
X-12163082Y2163263D01*
X-12323263Y2003082D01*
X-12449116Y1814729D01*
X-12535806Y1605443D01*
X-12580000Y1383265D01*
X-15541977Y1383265D01*
X-15418791Y1465575D01*
X-15265575Y1618791D01*
X-15145193Y1798955D01*
X-15062273Y1999142D01*
X-15020000Y2211659D01*
X-15020000Y2428341D01*
X-15062273Y2640858D01*
X-15145193Y2841045D01*
X-15265575Y3021209D01*
X-15418791Y3174425D01*
X-15598955Y3294807D01*
X-15799142Y3377727D01*
X-16011659Y3420000D01*
X-16228341Y3420000D01*
X-16440858Y3377727D01*
X-16641045Y3294807D01*
X-16821209Y3174425D01*
X-16974425Y3021209D01*
X-17094807Y2841045D01*
X-17177727Y2640858D01*
X-17220000Y2428341D01*
X-19581203Y2428341D01*
X-19573243Y2509514D01*
X-19425271Y2999622D01*
X-19184920Y3451659D01*
X-18861346Y3848399D01*
X-18466877Y4174733D01*
X-18016532Y4418233D01*
X-17527470Y4569623D01*
X-17000640Y4624995D01*
X-16999267Y4625000D01*
X16981662Y4625000D01*
X17509514Y4573243D01*
M02*
