%FSLAX45Y45*%
G04 Gerber Fmt 4.5, Leading zero omitted, Abs format (unit mm)*
G04 Created by KiCad (PCBNEW (5.1.5)-3) date 2020-06-30 19:59:05*
%MOMM*%
%LPD*%
G04 APERTURE LIST*
%TA.AperFunction,Profile*%
%ADD10C,0.150000*%
%TD*%
%ADD11C,0.200000*%
%ADD12C,0.300000*%
G04 APERTURE END LIST*
D10*
X-250000Y-6000000D02*
X1700000Y-6000000D01*
X-250000Y-5830000D02*
X-250000Y-6000000D01*
X-1200000Y-5830000D02*
X-250000Y-5830000D01*
X-1200000Y-6000000D02*
X-1200000Y-5830000D01*
X-1700000Y-6000000D02*
G75*
G02X-2000000Y-5700000I0J300000D01*
G01*
X2000000Y-5700000D02*
G75*
G02X1700000Y-6000000I-300000J0D01*
G01*
X1700000Y500000D02*
G75*
G02X2000000Y200000I0J-300000D01*
G01*
X-2000000Y200000D02*
G75*
G02X-1700000Y500000I300000J0D01*
G01*
X-2000000Y-5700000D02*
X-2000000Y200000D01*
X-1200000Y-6000000D02*
X-1700000Y-6000000D01*
X2000000Y200000D02*
X2000000Y-5700000D01*
X-1700000Y500000D02*
X1700000Y500000D01*
D11*
X-1850000Y-3640000D02*
X-1810000Y-3680000D01*
X-1810000Y-3640000D02*
X-1850000Y-3680000D01*
X-1850000Y-3860000D02*
X-1810000Y-3900000D01*
X-1810000Y-3860000D02*
X-1850000Y-3900000D01*
X-1840000Y-2880000D02*
X-1800000Y-2920000D01*
X-1800000Y-2880000D02*
X-1840000Y-2920000D01*
X-1840000Y-2980000D02*
X-1800000Y-3020000D01*
X-1800000Y-2980000D02*
X-1840000Y-3020000D01*
X-1840000Y-3080000D02*
X-1800000Y-3120000D01*
X-1800000Y-3080000D02*
X-1840000Y-3120000D01*
X-1810000Y-4530000D02*
X-1770000Y-4570000D01*
X-1770000Y-4530000D02*
X-1810000Y-4570000D01*
X-1800000Y-4980000D02*
X-1760000Y-5020000D01*
X-1760000Y-4980000D02*
X-1800000Y-5020000D01*
X-1680000Y-2890000D02*
X-1640000Y-2930000D01*
X-1640000Y-2890000D02*
X-1680000Y-2930000D01*
X-1680000Y-3950000D02*
X-1640000Y-3990000D01*
X-1640000Y-3950000D02*
X-1680000Y-3990000D01*
X-1550000Y-4510000D02*
X-1510000Y-4550000D01*
X-1510000Y-4510000D02*
X-1550000Y-4550000D01*
X-1510000Y-3640000D02*
X-1470000Y-3680000D01*
X-1470000Y-3640000D02*
X-1510000Y-3680000D01*
X-1510000Y-3860000D02*
X-1470000Y-3900000D01*
X-1470000Y-3860000D02*
X-1510000Y-3900000D01*
X-1260000Y-5300000D02*
X-1220000Y-5340000D01*
X-1220000Y-5300000D02*
X-1260000Y-5340000D01*
X-1130000Y410000D02*
X-1090000Y370000D01*
X-1090000Y410000D02*
X-1130000Y370000D01*
X-1077500Y-4332500D02*
X-1037500Y-4372500D01*
X-1037500Y-4332500D02*
X-1077500Y-4372500D01*
X-1070000Y-3590000D02*
X-1030000Y-3630000D01*
X-1030000Y-3590000D02*
X-1070000Y-3630000D01*
X-1060000Y-380000D02*
X-1020000Y-420000D01*
X-1020000Y-380000D02*
X-1060000Y-420000D01*
X-1010000Y-4650000D02*
X-970000Y-4690000D01*
X-970000Y-4650000D02*
X-1010000Y-4690000D01*
X-1000000Y-4925001D02*
X-960000Y-4965001D01*
X-960000Y-4925001D02*
X-1000000Y-4965001D01*
X-1000000Y-5020000D02*
X-960000Y-5060000D01*
X-960000Y-5020000D02*
X-1000000Y-5060000D01*
X-970000Y-2490000D02*
X-930000Y-2530000D01*
X-930000Y-2490000D02*
X-970000Y-2530000D01*
X-970000Y-2800000D02*
X-930000Y-2840000D01*
X-930000Y-2800000D02*
X-970000Y-2840000D01*
X-900000Y-520000D02*
X-860000Y-560000D01*
X-860000Y-520000D02*
X-900000Y-560000D01*
X-860000Y-4350000D02*
X-820000Y-4390000D01*
X-820000Y-4350000D02*
X-860000Y-4390000D01*
X-850000Y-4050000D02*
X-810000Y-4090000D01*
X-810000Y-4050000D02*
X-850000Y-4090000D01*
X-840000Y-2250000D02*
X-800000Y-2290000D01*
X-800000Y-2250000D02*
X-840000Y-2290000D01*
X-790000Y-1050000D02*
X-750000Y-1090000D01*
X-750000Y-1050000D02*
X-790000Y-1090000D01*
X-780000Y-5199998D02*
X-740000Y-5239998D01*
X-740000Y-5199998D02*
X-780000Y-5239998D01*
X-777500Y-4950001D02*
X-737500Y-4990001D01*
X-737500Y-4950001D02*
X-777500Y-4990001D01*
X-718500Y-373700D02*
X-678500Y-413700D01*
X-678500Y-373700D02*
X-718500Y-413700D01*
X-686000Y-4723000D02*
X-646000Y-4763000D01*
X-646000Y-4723000D02*
X-686000Y-4763000D01*
X-670000Y-3330000D02*
X-630000Y-3370000D01*
X-630000Y-3330000D02*
X-670000Y-3370000D01*
X-642300Y-1046800D02*
X-602300Y-1086800D01*
X-602300Y-1046800D02*
X-642300Y-1086800D01*
X-642300Y-1453200D02*
X-602300Y-1493200D01*
X-602300Y-1453200D02*
X-642300Y-1493200D01*
X-640000Y-4030000D02*
X-600000Y-4070000D01*
X-600000Y-4030000D02*
X-640000Y-4070000D01*
X-590000Y-4510000D02*
X-550000Y-4550000D01*
X-550000Y-4510000D02*
X-590000Y-4550000D01*
X-583000Y-4831000D02*
X-543000Y-4871000D01*
X-543000Y-4831000D02*
X-583000Y-4871000D01*
X-582000Y-4932000D02*
X-542000Y-4972000D01*
X-542000Y-4932000D02*
X-582000Y-4972000D01*
X-577000Y-4709000D02*
X-537000Y-4749000D01*
X-537000Y-4709000D02*
X-577000Y-4749000D01*
X-570000Y-4610000D02*
X-530000Y-4650000D01*
X-530000Y-4610000D02*
X-570000Y-4650000D01*
X-527500Y-4340000D02*
X-487500Y-4380000D01*
X-487500Y-4340000D02*
X-527500Y-4380000D01*
X-520000Y-4440000D02*
X-480000Y-4480000D01*
X-480000Y-4440000D02*
X-520000Y-4480000D01*
X-500000Y-2000000D02*
X-460000Y-2040000D01*
X-460000Y-2000000D02*
X-500000Y-2040000D01*
X-500000Y-2330000D02*
X-460000Y-2370000D01*
X-460000Y-2330000D02*
X-500000Y-2370000D01*
X-490000Y-700000D02*
X-450000Y-740000D01*
X-450000Y-700000D02*
X-490000Y-740000D01*
X-460000Y-4660000D02*
X-420000Y-4700000D01*
X-420000Y-4660000D02*
X-460000Y-4700000D01*
X-460000Y-5010000D02*
X-420000Y-5050000D01*
X-420000Y-5010000D02*
X-460000Y-5050000D01*
X-420000Y-4340000D02*
X-380000Y-4380000D01*
X-380000Y-4340000D02*
X-420000Y-4380000D01*
X-420000Y-4440000D02*
X-380000Y-4480000D01*
X-380000Y-4440000D02*
X-420000Y-4480000D01*
X-413000Y-5103000D02*
X-373000Y-5143000D01*
X-373000Y-5103000D02*
X-413000Y-5143000D01*
X-400000Y430000D02*
X-360000Y390000D01*
X-360000Y430000D02*
X-400000Y390000D01*
X-324800Y-1846900D02*
X-284800Y-1886900D01*
X-284800Y-1846900D02*
X-324800Y-1886900D01*
X-312100Y-1465900D02*
X-272100Y-1505900D01*
X-272100Y-1465900D02*
X-312100Y-1505900D01*
X-310000Y-4345000D02*
X-270000Y-4385000D01*
X-270000Y-4345000D02*
X-310000Y-4385000D01*
X-304379Y-5107498D02*
X-264379Y-5147498D01*
X-264379Y-5107498D02*
X-304379Y-5147498D01*
X-270000Y-530000D02*
X-230000Y-570000D01*
X-230000Y-530000D02*
X-270000Y-570000D01*
X-240000Y-2970000D02*
X-200000Y-3010000D01*
X-200000Y-2970000D02*
X-240000Y-3010000D01*
X-204000Y-5103000D02*
X-164000Y-5143000D01*
X-164000Y-5103000D02*
X-204000Y-5143000D01*
X-185100Y-3155000D02*
X-145100Y-3195000D01*
X-145100Y-3155000D02*
X-185100Y-3195000D01*
X-160000Y-5010000D02*
X-120000Y-5050000D01*
X-120000Y-5010000D02*
X-160000Y-5050000D01*
X-120000Y-1760000D02*
X-80000Y-1800000D01*
X-80000Y-1760000D02*
X-120000Y-1800000D01*
X-120000Y-4200000D02*
X-80000Y-4240000D01*
X-80000Y-4200000D02*
X-120000Y-4240000D01*
X-120000Y-4640000D02*
X-80000Y-4680000D01*
X-80000Y-4640000D02*
X-120000Y-4680000D01*
X-90000Y-600000D02*
X-50000Y-640000D01*
X-50000Y-600000D02*
X-90000Y-640000D01*
X-83500Y-3053400D02*
X-43500Y-3093400D01*
X-43500Y-3053400D02*
X-83500Y-3093400D01*
X-70000Y-3504000D02*
X-30000Y-3544000D01*
X-30000Y-3504000D02*
X-70000Y-3544000D01*
X-66000Y-3625000D02*
X-26000Y-3665000D01*
X-26000Y-3625000D02*
X-66000Y-3665000D01*
X-50000Y-4730000D02*
X-10000Y-4770000D01*
X-10000Y-4730000D02*
X-50000Y-4770000D01*
X-50000Y-4830000D02*
X-10000Y-4870000D01*
X-10000Y-4830000D02*
X-50000Y-4870000D01*
X-30000Y-4240000D02*
X10000Y-4280000D01*
X10000Y-4240000D02*
X-30000Y-4280000D01*
X-30000Y-4440000D02*
X10000Y-4480000D01*
X10000Y-4440000D02*
X-30000Y-4480000D01*
X-30000Y-4540000D02*
X10000Y-4580000D01*
X10000Y-4540000D02*
X-30000Y-4580000D01*
X-25000Y-4340000D02*
X15000Y-4380000D01*
X15000Y-4340000D02*
X-25000Y-4380000D01*
X20000Y-4040000D02*
X60000Y-4080000D01*
X60000Y-4040000D02*
X20000Y-4080000D01*
X40960Y-965520D02*
X80960Y-1005520D01*
X80960Y-965520D02*
X40960Y-1005520D01*
X101920Y-1453200D02*
X141920Y-1493200D01*
X141920Y-1453200D02*
X101920Y-1493200D01*
X160000Y-5570000D02*
X200000Y-5610000D01*
X200000Y-5570000D02*
X160000Y-5610000D01*
X221300Y-4044000D02*
X261300Y-4084000D01*
X261300Y-4044000D02*
X221300Y-4084000D01*
X221300Y-4158300D02*
X261300Y-4198300D01*
X261300Y-4158300D02*
X221300Y-4198300D01*
X221300Y-4272600D02*
X261300Y-4312600D01*
X261300Y-4272600D02*
X221300Y-4312600D01*
X221300Y-4386900D02*
X261300Y-4426900D01*
X261300Y-4386900D02*
X221300Y-4426900D01*
X234000Y20000D02*
X274000Y-20000D01*
X274000Y20000D02*
X234000Y-20000D01*
X259400Y-2047560D02*
X299400Y-2087560D01*
X299400Y-2047560D02*
X259400Y-2087560D01*
X261000Y-3528000D02*
X301000Y-3568000D01*
X301000Y-3528000D02*
X261000Y-3568000D01*
X295000Y-5065000D02*
X335000Y-5105000D01*
X335000Y-5065000D02*
X295000Y-5105000D01*
X320000Y-3260000D02*
X360000Y-3300000D01*
X360000Y-3260000D02*
X320000Y-3300000D01*
X361000Y-361000D02*
X401000Y-401000D01*
X401000Y-361000D02*
X361000Y-401000D01*
X368000Y-3527000D02*
X408000Y-3567000D01*
X408000Y-3527000D02*
X368000Y-3567000D01*
X371160Y-1554800D02*
X411160Y-1594800D01*
X411160Y-1554800D02*
X371160Y-1594800D01*
X410000Y420000D02*
X450000Y380000D01*
X450000Y420000D02*
X410000Y380000D01*
X415000Y-5065000D02*
X455000Y-5105000D01*
X455000Y-5065000D02*
X415000Y-5105000D01*
X462600Y-1031560D02*
X502600Y-1071560D01*
X502600Y-1031560D02*
X462600Y-1071560D01*
X475300Y-361000D02*
X515300Y-401000D01*
X515300Y-361000D02*
X475300Y-401000D01*
X500000Y-1190000D02*
X540000Y-1230000D01*
X540000Y-1190000D02*
X500000Y-1230000D01*
X513400Y-503240D02*
X553400Y-543240D01*
X553400Y-503240D02*
X513400Y-543240D01*
X513400Y-1437960D02*
X553400Y-1477960D01*
X553400Y-1437960D02*
X513400Y-1477960D01*
X533720Y-1879920D02*
X573720Y-1919920D01*
X573720Y-1879920D02*
X533720Y-1919920D01*
X640400Y-1026480D02*
X680400Y-1066480D01*
X680400Y-1026480D02*
X640400Y-1066480D01*
X645480Y-1463360D02*
X685480Y-1503360D01*
X685480Y-1463360D02*
X645480Y-1503360D01*
X665800Y-767400D02*
X705800Y-807400D01*
X705800Y-767400D02*
X665800Y-807400D01*
X696280Y-1666560D02*
X736280Y-1706560D01*
X736280Y-1666560D02*
X696280Y-1706560D01*
X740000Y-5580000D02*
X780000Y-5620000D01*
X780000Y-5580000D02*
X740000Y-5620000D01*
X742000Y20000D02*
X782000Y-20000D01*
X782000Y20000D02*
X742000Y-20000D01*
X805500Y-653100D02*
X845500Y-693100D01*
X845500Y-653100D02*
X805500Y-693100D01*
X820000Y-5072700D02*
X860000Y-5112700D01*
X860000Y-5072700D02*
X820000Y-5112700D01*
X838520Y-503240D02*
X878520Y-543240D01*
X878520Y-503240D02*
X838520Y-543240D01*
X869000Y-4628200D02*
X909000Y-4668200D01*
X909000Y-4628200D02*
X869000Y-4668200D01*
X904000Y-4352000D02*
X944000Y-4392000D01*
X944000Y-4352000D02*
X904000Y-4392000D01*
X904000Y-4452000D02*
X944000Y-4492000D01*
X944000Y-4452000D02*
X904000Y-4492000D01*
X983300Y-2240600D02*
X1023300Y-2280600D01*
X1023300Y-2240600D02*
X983300Y-2280600D01*
X1080000Y430000D02*
X1120000Y390000D01*
X1120000Y430000D02*
X1080000Y390000D01*
X1148400Y-2088200D02*
X1188400Y-2128200D01*
X1188400Y-2088200D02*
X1148400Y-2128200D01*
X1150000Y-5040000D02*
X1190000Y-5080000D01*
X1190000Y-5040000D02*
X1150000Y-5080000D01*
X1186500Y-2431100D02*
X1226500Y-2471100D01*
X1226500Y-2431100D02*
X1186500Y-2471100D01*
X1220000Y-5450000D02*
X1260000Y-5490000D01*
X1260000Y-5450000D02*
X1220000Y-5490000D01*
X1288100Y-1592900D02*
X1328100Y-1632900D01*
X1328100Y-1592900D02*
X1288100Y-1632900D01*
X1345000Y-4287000D02*
X1385000Y-4327000D01*
X1385000Y-4287000D02*
X1345000Y-4327000D01*
X1351600Y-2304100D02*
X1391600Y-2344100D01*
X1391600Y-2304100D02*
X1351600Y-2344100D01*
X1370000Y-5000000D02*
X1410000Y-5040000D01*
X1410000Y-5000000D02*
X1370000Y-5040000D01*
X1389700Y-4679000D02*
X1429700Y-4719000D01*
X1429700Y-4679000D02*
X1389700Y-4719000D01*
X1467298Y-4287118D02*
X1507298Y-4327118D01*
X1507298Y-4287118D02*
X1467298Y-4327118D01*
X1470000Y-4024000D02*
X1510000Y-4064000D01*
X1510000Y-4024000D02*
X1470000Y-4064000D01*
X1477000Y-4577400D02*
X1517000Y-4617400D01*
X1517000Y-4577400D02*
X1477000Y-4617400D01*
X1491300Y-2151700D02*
X1531300Y-2191700D01*
X1531300Y-2151700D02*
X1491300Y-2191700D01*
X1580000Y-4284000D02*
X1620000Y-4324000D01*
X1620000Y-4284000D02*
X1580000Y-4324000D01*
X1600000Y330000D02*
X1640000Y290000D01*
X1640000Y330000D02*
X1600000Y290000D01*
X1600000Y-100000D02*
X1640000Y-140000D01*
X1640000Y-100000D02*
X1600000Y-140000D01*
X1605000Y-4551000D02*
X1645000Y-4591000D01*
X1645000Y-4551000D02*
X1605000Y-4591000D01*
X1669100Y-4020000D02*
X1709100Y-4060000D01*
X1709100Y-4020000D02*
X1669100Y-4060000D01*
X1707200Y-1542100D02*
X1747200Y-1582100D01*
X1747200Y-1542100D02*
X1707200Y-1582100D01*
X1707200Y-1669100D02*
X1747200Y-1709100D01*
X1747200Y-1669100D02*
X1707200Y-1709100D01*
X1730000Y-4780000D02*
X1770000Y-4820000D01*
X1770000Y-4780000D02*
X1730000Y-4820000D01*
X1810000Y-4700000D02*
X1850000Y-4740000D01*
X1850000Y-4700000D02*
X1810000Y-4740000D01*
X1850000Y-5180000D02*
X1890000Y-5220000D01*
X1890000Y-5180000D02*
X1850000Y-5220000D01*
X1859600Y-1732600D02*
X1899600Y-1772600D01*
X1899600Y-1732600D02*
X1859600Y-1772600D01*
X1885000Y-564200D02*
X1925000Y-604200D01*
X1925000Y-564200D02*
X1885000Y-604200D01*
X1890000Y-100000D02*
X1930000Y-140000D01*
X1930000Y-100000D02*
X1890000Y-140000D01*
X1910400Y-1910400D02*
X1950400Y-1950400D01*
X1950400Y-1910400D02*
X1910400Y-1950400D01*
X1910400Y-3040700D02*
X1950400Y-3080700D01*
X1950400Y-3040700D02*
X1910400Y-3080700D01*
X1910400Y-4945700D02*
X1950400Y-4985700D01*
X1950400Y-4945700D02*
X1910400Y-4985700D01*
X-1057500Y-5680000D02*
G75*
G03X-1057500Y-5680000I-32500J0D01*
G01*
X-1112500Y-5637500D02*
X-1112500Y-5722500D01*
X-1067500Y-5637500D02*
X-1067500Y-5722500D01*
X-1112500Y-5722500D02*
G75*
G03X-1067500Y-5722500I22500J0D01*
G01*
X-1067500Y-5637500D02*
G75*
G03X-1112500Y-5637500I-22500J0D01*
G01*
X-940000Y-5390000D02*
G75*
G03X-940000Y-5390000I-32500J0D01*
G01*
X-995000Y-5380000D02*
X-995000Y-5400000D01*
X-950000Y-5380000D02*
X-950000Y-5400000D01*
X-995000Y-5400000D02*
G75*
G03X-950000Y-5400000I22500J0D01*
G01*
X-950000Y-5380000D02*
G75*
G03X-995000Y-5380000I-22500J0D01*
G01*
X-455000Y-5390000D02*
G75*
G03X-455000Y-5390000I-32500J0D01*
G01*
X-510000Y-5380000D02*
X-510000Y-5400000D01*
X-465000Y-5380000D02*
X-465000Y-5400000D01*
X-510000Y-5400000D02*
G75*
G03X-465000Y-5400000I22500J0D01*
G01*
X-465000Y-5380000D02*
G75*
G03X-510000Y-5380000I-22500J0D01*
G01*
X-337500Y-5680000D02*
G75*
G03X-337500Y-5680000I-32500J0D01*
G01*
X-392500Y-5637500D02*
X-392500Y-5722500D01*
X-347500Y-5637500D02*
X-347500Y-5722500D01*
X-392500Y-5722500D02*
G75*
G03X-347500Y-5722500I22500J0D01*
G01*
X-347500Y-5637500D02*
G75*
G03X-392500Y-5637500I-22500J0D01*
G01*
X1110500Y-1750700D02*
X1110500Y-1830700D01*
X1070500Y-1790700D02*
X1150500Y-1790700D01*
X1460500Y-1750700D02*
X1460500Y-1830700D01*
X1420500Y-1790700D02*
X1500500Y-1790700D01*
X539000Y-3262000D02*
X539000Y-3342000D01*
X499000Y-3302000D02*
X579000Y-3302000D01*
X889000Y-3262000D02*
X889000Y-3342000D01*
X849000Y-3302000D02*
X929000Y-3302000D01*
X539000Y-2411100D02*
X539000Y-2491100D01*
X499000Y-2451100D02*
X579000Y-2451100D01*
X889000Y-2411100D02*
X889000Y-2491100D01*
X849000Y-2451100D02*
X929000Y-2451100D01*
X1377200Y-3427100D02*
X1377200Y-3507100D01*
X1337200Y-3467100D02*
X1417200Y-3467100D01*
X1727200Y-3427100D02*
X1727200Y-3507100D01*
X1687200Y-3467100D02*
X1767200Y-3467100D01*
X1377200Y-2576200D02*
X1377200Y-2656200D01*
X1337200Y-2616200D02*
X1417200Y-2616200D01*
X1727200Y-2576200D02*
X1727200Y-2656200D01*
X1687200Y-2616200D02*
X1767200Y-2616200D01*
X-1107644Y91644D02*
X-1107644Y162356D01*
X-1178356Y162356D01*
X-1178356Y91644D01*
X-1107644Y91644D01*
X-1107644Y-162356D02*
X-1107644Y-91644D01*
X-1178356Y-91644D01*
X-1178356Y-162356D01*
X-1107644Y-162356D01*
X-853644Y91644D02*
X-853644Y162356D01*
X-924356Y162356D01*
X-924356Y91644D01*
X-853644Y91644D01*
X-853644Y-162356D02*
X-853644Y-91644D01*
X-924356Y-91644D01*
X-924356Y-162356D01*
X-853644Y-162356D01*
X-599644Y91644D02*
X-599644Y162356D01*
X-670356Y162356D01*
X-670356Y91644D01*
X-599644Y91644D01*
X-599644Y-162356D02*
X-599644Y-91644D01*
X-670356Y-91644D01*
X-670356Y-162356D01*
X-599644Y-162356D01*
X-345644Y91644D02*
X-345644Y162356D01*
X-416356Y162356D01*
X-416356Y91644D01*
X-345644Y91644D01*
X-345644Y-162356D02*
X-345644Y-91644D01*
X-416356Y-91644D01*
X-416356Y-162356D01*
X-345644Y-162356D01*
X-91644Y91644D02*
X-91644Y162356D01*
X-162356Y162356D01*
X-162356Y91644D01*
X-91644Y91644D01*
X-91644Y-162356D02*
X-91644Y-91644D01*
X-162356Y-91644D01*
X-162356Y-162356D01*
X-91644Y-162356D01*
X162356Y91644D02*
X162356Y162356D01*
X91644Y162356D01*
X91644Y91644D01*
X162356Y91644D01*
X162356Y-162356D02*
X162356Y-91644D01*
X91644Y-91644D01*
X91644Y-162356D01*
X162356Y-162356D01*
X416356Y91644D02*
X416356Y162356D01*
X345644Y162356D01*
X345644Y91644D01*
X416356Y91644D01*
X416356Y-162356D02*
X416356Y-91644D01*
X345644Y-91644D01*
X345644Y-162356D01*
X416356Y-162356D01*
X670356Y91644D02*
X670356Y162356D01*
X599644Y162356D01*
X599644Y91644D01*
X670356Y91644D01*
X670356Y-162356D02*
X670356Y-91644D01*
X599644Y-91644D01*
X599644Y-162356D01*
X670356Y-162356D01*
X924356Y91644D02*
X924356Y162356D01*
X853644Y162356D01*
X853644Y91644D01*
X924356Y91644D01*
X924356Y-162356D02*
X924356Y-91644D01*
X853644Y-91644D01*
X853644Y-162356D01*
X924356Y-162356D01*
X1178356Y91644D02*
X1178356Y162356D01*
X1107644Y162356D01*
X1107644Y91644D01*
X1178356Y91644D01*
X1178356Y-162356D02*
X1178356Y-91644D01*
X1107644Y-91644D01*
X1107644Y-162356D01*
X1178356Y-162356D01*
X1700000Y-5860000D02*
X1860000Y-5700000D01*
X1700000Y-5540000D01*
X1540000Y-5700000D01*
X1700000Y-5860000D01*
X-1700000Y-5860000D02*
X-1540000Y-5700000D01*
X-1700000Y-5540000D01*
X-1860000Y-5700000D01*
X-1700000Y-5860000D01*
D12*
X-12813571Y6034286D02*
X-12813571Y6334286D01*
X-12742143Y6334286D01*
X-12699286Y6320000D01*
X-12670714Y6291429D01*
X-12656429Y6262857D01*
X-12642143Y6205714D01*
X-12642143Y6162857D01*
X-12656429Y6105714D01*
X-12670714Y6077143D01*
X-12699286Y6048571D01*
X-12742143Y6034286D01*
X-12813571Y6034286D01*
X-12513571Y6034286D02*
X-12513571Y6234286D01*
X-12513571Y6177143D02*
X-12499286Y6205714D01*
X-12485000Y6220000D01*
X-12456429Y6234286D01*
X-12427857Y6234286D01*
X-12327857Y6034286D02*
X-12327857Y6234286D01*
X-12327857Y6334286D02*
X-12342143Y6320000D01*
X-12327857Y6305714D01*
X-12313571Y6320000D01*
X-12327857Y6334286D01*
X-12327857Y6305714D01*
X-12142143Y6034286D02*
X-12170714Y6048571D01*
X-12185000Y6077143D01*
X-12185000Y6334286D01*
X-11985000Y6034286D02*
X-12013571Y6048571D01*
X-12027857Y6077143D01*
X-12027857Y6334286D01*
X-11642143Y6034286D02*
X-11642143Y6334286D01*
X-11542143Y6120000D01*
X-11442143Y6334286D01*
X-11442143Y6034286D01*
X-11170714Y6034286D02*
X-11170714Y6191429D01*
X-11185000Y6220000D01*
X-11213571Y6234286D01*
X-11270714Y6234286D01*
X-11299286Y6220000D01*
X-11170714Y6048571D02*
X-11199286Y6034286D01*
X-11270714Y6034286D01*
X-11299286Y6048571D01*
X-11313571Y6077143D01*
X-11313571Y6105714D01*
X-11299286Y6134286D01*
X-11270714Y6148571D01*
X-11199286Y6148571D01*
X-11170714Y6162857D01*
X-11027857Y6234286D02*
X-11027857Y5934286D01*
X-11027857Y6220000D02*
X-10999286Y6234286D01*
X-10942143Y6234286D01*
X-10913572Y6220000D01*
X-10899286Y6205714D01*
X-10885000Y6177143D01*
X-10885000Y6091429D01*
X-10899286Y6062857D01*
X-10913572Y6048571D01*
X-10942143Y6034286D01*
X-10999286Y6034286D01*
X-11027857Y6048571D01*
X-10756429Y6062857D02*
X-10742143Y6048571D01*
X-10756429Y6034286D01*
X-10770714Y6048571D01*
X-10756429Y6062857D01*
X-10756429Y6034286D01*
X-10756429Y6220000D02*
X-10742143Y6205714D01*
X-10756429Y6191429D01*
X-10770714Y6205714D01*
X-10756429Y6220000D01*
X-10756429Y6191429D01*
X-13140000Y5560000D02*
X-13100000Y5520000D01*
X-13100000Y5560000D02*
X-13140000Y5520000D01*
X-12756429Y5704286D02*
X-12727857Y5704286D01*
X-12699286Y5690000D01*
X-12685000Y5675714D01*
X-12670714Y5647143D01*
X-12656429Y5590000D01*
X-12656429Y5518572D01*
X-12670714Y5461429D01*
X-12685000Y5432857D01*
X-12699286Y5418572D01*
X-12727857Y5404286D01*
X-12756429Y5404286D01*
X-12785000Y5418572D01*
X-12799286Y5432857D01*
X-12813571Y5461429D01*
X-12827857Y5518572D01*
X-12827857Y5590000D01*
X-12813571Y5647143D01*
X-12799286Y5675714D01*
X-12785000Y5690000D01*
X-12756429Y5704286D01*
X-12527857Y5432857D02*
X-12513571Y5418572D01*
X-12527857Y5404286D01*
X-12542143Y5418572D01*
X-12527857Y5432857D01*
X-12527857Y5404286D01*
X-12256429Y5604286D02*
X-12256429Y5404286D01*
X-12327857Y5718571D02*
X-12399286Y5504286D01*
X-12213571Y5504286D01*
X-12042143Y5704286D02*
X-12013571Y5704286D01*
X-11985000Y5690000D01*
X-11970714Y5675714D01*
X-11956429Y5647143D01*
X-11942143Y5590000D01*
X-11942143Y5518572D01*
X-11956429Y5461429D01*
X-11970714Y5432857D01*
X-11985000Y5418572D01*
X-12013571Y5404286D01*
X-12042143Y5404286D01*
X-12070714Y5418572D01*
X-12085000Y5432857D01*
X-12099286Y5461429D01*
X-12113571Y5518572D01*
X-12113571Y5590000D01*
X-12099286Y5647143D01*
X-12085000Y5675714D01*
X-12070714Y5690000D01*
X-12042143Y5704286D01*
X-11813571Y5404286D02*
X-11813571Y5604286D01*
X-11813571Y5575714D02*
X-11799286Y5590000D01*
X-11770714Y5604286D01*
X-11727857Y5604286D01*
X-11699286Y5590000D01*
X-11685000Y5561429D01*
X-11685000Y5404286D01*
X-11685000Y5561429D02*
X-11670714Y5590000D01*
X-11642143Y5604286D01*
X-11599286Y5604286D01*
X-11570714Y5590000D01*
X-11556429Y5561429D01*
X-11556429Y5404286D01*
X-11413571Y5404286D02*
X-11413571Y5604286D01*
X-11413571Y5575714D02*
X-11399286Y5590000D01*
X-11370714Y5604286D01*
X-11327857Y5604286D01*
X-11299286Y5590000D01*
X-11285000Y5561429D01*
X-11285000Y5404286D01*
X-11285000Y5561429D02*
X-11270714Y5590000D01*
X-11242143Y5604286D01*
X-11199286Y5604286D01*
X-11170714Y5590000D01*
X-11156429Y5561429D01*
X-11156429Y5404286D01*
X-10570714Y5718571D02*
X-10827857Y5332857D01*
X-10185000Y5704286D02*
X-10156429Y5704286D01*
X-10127857Y5690000D01*
X-10113572Y5675714D01*
X-10099286Y5647143D01*
X-10085000Y5590000D01*
X-10085000Y5518572D01*
X-10099286Y5461429D01*
X-10113572Y5432857D01*
X-10127857Y5418572D01*
X-10156429Y5404286D01*
X-10185000Y5404286D01*
X-10213572Y5418572D01*
X-10227857Y5432857D01*
X-10242143Y5461429D01*
X-10256429Y5518572D01*
X-10256429Y5590000D01*
X-10242143Y5647143D01*
X-10227857Y5675714D01*
X-10213572Y5690000D01*
X-10185000Y5704286D01*
X-9956429Y5432857D02*
X-9942143Y5418572D01*
X-9956429Y5404286D01*
X-9970714Y5418572D01*
X-9956429Y5432857D01*
X-9956429Y5404286D01*
X-9756429Y5704286D02*
X-9727857Y5704286D01*
X-9699286Y5690000D01*
X-9685000Y5675714D01*
X-9670714Y5647143D01*
X-9656429Y5590000D01*
X-9656429Y5518572D01*
X-9670714Y5461429D01*
X-9685000Y5432857D01*
X-9699286Y5418572D01*
X-9727857Y5404286D01*
X-9756429Y5404286D01*
X-9785000Y5418572D01*
X-9799286Y5432857D01*
X-9813572Y5461429D01*
X-9827857Y5518572D01*
X-9827857Y5590000D01*
X-9813572Y5647143D01*
X-9799286Y5675714D01*
X-9785000Y5690000D01*
X-9756429Y5704286D01*
X-9370714Y5404286D02*
X-9542143Y5404286D01*
X-9456429Y5404286D02*
X-9456429Y5704286D01*
X-9485000Y5661429D01*
X-9513572Y5632857D01*
X-9542143Y5618571D01*
X-9113572Y5704286D02*
X-9170714Y5704286D01*
X-9199286Y5690000D01*
X-9213572Y5675714D01*
X-9242143Y5632857D01*
X-9256429Y5575714D01*
X-9256429Y5461429D01*
X-9242143Y5432857D01*
X-9227857Y5418572D01*
X-9199286Y5404286D01*
X-9142143Y5404286D01*
X-9113572Y5418572D01*
X-9099286Y5432857D01*
X-9085000Y5461429D01*
X-9085000Y5532857D01*
X-9099286Y5561429D01*
X-9113572Y5575714D01*
X-9142143Y5590000D01*
X-9199286Y5590000D01*
X-9227857Y5575714D01*
X-9242143Y5561429D01*
X-9256429Y5532857D01*
X-8970714Y5704286D02*
X-8970714Y5647143D01*
X-8856429Y5704286D02*
X-8856429Y5647143D01*
X-8413572Y5290000D02*
X-8427857Y5304286D01*
X-8456429Y5347143D01*
X-8470714Y5375714D01*
X-8485000Y5418572D01*
X-8499286Y5490000D01*
X-8499286Y5547143D01*
X-8485000Y5618571D01*
X-8470714Y5661429D01*
X-8456429Y5690000D01*
X-8427857Y5732857D01*
X-8413572Y5747143D01*
X-8142143Y5404286D02*
X-8313571Y5404286D01*
X-8227857Y5404286D02*
X-8227857Y5704286D01*
X-8256429Y5661429D01*
X-8285000Y5632857D01*
X-8313571Y5618571D01*
X-7885000Y5604286D02*
X-7885000Y5404286D01*
X-7956429Y5718571D02*
X-8027857Y5504286D01*
X-7842143Y5504286D01*
X-7670714Y5704286D02*
X-7642143Y5704286D01*
X-7613571Y5690000D01*
X-7599286Y5675714D01*
X-7585000Y5647143D01*
X-7570714Y5590000D01*
X-7570714Y5518572D01*
X-7585000Y5461429D01*
X-7599286Y5432857D01*
X-7613571Y5418572D01*
X-7642143Y5404286D01*
X-7670714Y5404286D01*
X-7699286Y5418572D01*
X-7713571Y5432857D01*
X-7727857Y5461429D01*
X-7742143Y5518572D01*
X-7742143Y5590000D01*
X-7727857Y5647143D01*
X-7713571Y5675714D01*
X-7699286Y5690000D01*
X-7670714Y5704286D01*
X-7213571Y5404286D02*
X-7213571Y5704286D01*
X-7085000Y5404286D02*
X-7085000Y5561429D01*
X-7099286Y5590000D01*
X-7127857Y5604286D01*
X-7170714Y5604286D01*
X-7199286Y5590000D01*
X-7213571Y5575714D01*
X-6899286Y5404286D02*
X-6927857Y5418572D01*
X-6942143Y5432857D01*
X-6956429Y5461429D01*
X-6956429Y5547143D01*
X-6942143Y5575714D01*
X-6927857Y5590000D01*
X-6899286Y5604286D01*
X-6856429Y5604286D01*
X-6827857Y5590000D01*
X-6813571Y5575714D01*
X-6799286Y5547143D01*
X-6799286Y5461429D01*
X-6813571Y5432857D01*
X-6827857Y5418572D01*
X-6856429Y5404286D01*
X-6899286Y5404286D01*
X-6627857Y5404286D02*
X-6656429Y5418572D01*
X-6670714Y5447143D01*
X-6670714Y5704286D01*
X-6399286Y5418572D02*
X-6427857Y5404286D01*
X-6485000Y5404286D01*
X-6513571Y5418572D01*
X-6527857Y5447143D01*
X-6527857Y5561429D01*
X-6513571Y5590000D01*
X-6485000Y5604286D01*
X-6427857Y5604286D01*
X-6399286Y5590000D01*
X-6385000Y5561429D01*
X-6385000Y5532857D01*
X-6527857Y5504286D01*
X-6270714Y5418572D02*
X-6242143Y5404286D01*
X-6185000Y5404286D01*
X-6156429Y5418572D01*
X-6142143Y5447143D01*
X-6142143Y5461429D01*
X-6156429Y5490000D01*
X-6185000Y5504286D01*
X-6227857Y5504286D01*
X-6256429Y5518572D01*
X-6270714Y5547143D01*
X-6270714Y5561429D01*
X-6256429Y5590000D01*
X-6227857Y5604286D01*
X-6185000Y5604286D01*
X-6156429Y5590000D01*
X-6042143Y5290000D02*
X-6027857Y5304286D01*
X-5999286Y5347143D01*
X-5985000Y5375714D01*
X-5970714Y5418572D01*
X-5956429Y5490000D01*
X-5956429Y5547143D01*
X-5970714Y5618571D01*
X-5985000Y5661429D01*
X-5999286Y5690000D01*
X-6027857Y5732857D01*
X-6042143Y5747143D01*
X-13100000Y5144000D02*
G75*
G03X-13100000Y5144000I-32500J0D01*
G01*
X-12756429Y5308286D02*
X-12727857Y5308286D01*
X-12699286Y5294000D01*
X-12685000Y5279714D01*
X-12670714Y5251143D01*
X-12656429Y5194000D01*
X-12656429Y5122572D01*
X-12670714Y5065429D01*
X-12685000Y5036857D01*
X-12699286Y5022572D01*
X-12727857Y5008286D01*
X-12756429Y5008286D01*
X-12785000Y5022572D01*
X-12799286Y5036857D01*
X-12813571Y5065429D01*
X-12827857Y5122572D01*
X-12827857Y5194000D01*
X-12813571Y5251143D01*
X-12799286Y5279714D01*
X-12785000Y5294000D01*
X-12756429Y5308286D01*
X-12527857Y5036857D02*
X-12513571Y5022572D01*
X-12527857Y5008286D01*
X-12542143Y5022572D01*
X-12527857Y5036857D01*
X-12527857Y5008286D01*
X-12256429Y5308286D02*
X-12313571Y5308286D01*
X-12342143Y5294000D01*
X-12356429Y5279714D01*
X-12385000Y5236857D01*
X-12399286Y5179714D01*
X-12399286Y5065429D01*
X-12385000Y5036857D01*
X-12370714Y5022572D01*
X-12342143Y5008286D01*
X-12285000Y5008286D01*
X-12256429Y5022572D01*
X-12242143Y5036857D01*
X-12227857Y5065429D01*
X-12227857Y5136857D01*
X-12242143Y5165429D01*
X-12256429Y5179714D01*
X-12285000Y5194000D01*
X-12342143Y5194000D01*
X-12370714Y5179714D01*
X-12385000Y5165429D01*
X-12399286Y5136857D01*
X-11956429Y5308286D02*
X-12099286Y5308286D01*
X-12113571Y5165429D01*
X-12099286Y5179714D01*
X-12070714Y5194000D01*
X-11999286Y5194000D01*
X-11970714Y5179714D01*
X-11956429Y5165429D01*
X-11942143Y5136857D01*
X-11942143Y5065429D01*
X-11956429Y5036857D01*
X-11970714Y5022572D01*
X-11999286Y5008286D01*
X-12070714Y5008286D01*
X-12099286Y5022572D01*
X-12113571Y5036857D01*
X-11813571Y5008286D02*
X-11813571Y5208286D01*
X-11813571Y5179714D02*
X-11799286Y5194000D01*
X-11770714Y5208286D01*
X-11727857Y5208286D01*
X-11699286Y5194000D01*
X-11685000Y5165429D01*
X-11685000Y5008286D01*
X-11685000Y5165429D02*
X-11670714Y5194000D01*
X-11642143Y5208286D01*
X-11599286Y5208286D01*
X-11570714Y5194000D01*
X-11556429Y5165429D01*
X-11556429Y5008286D01*
X-11413571Y5008286D02*
X-11413571Y5208286D01*
X-11413571Y5179714D02*
X-11399286Y5194000D01*
X-11370714Y5208286D01*
X-11327857Y5208286D01*
X-11299286Y5194000D01*
X-11285000Y5165429D01*
X-11285000Y5008286D01*
X-11285000Y5165429D02*
X-11270714Y5194000D01*
X-11242143Y5208286D01*
X-11199286Y5208286D01*
X-11170714Y5194000D01*
X-11156429Y5165429D01*
X-11156429Y5008286D01*
X-10570714Y5322572D02*
X-10827857Y4936857D01*
X-10185000Y5308286D02*
X-10156429Y5308286D01*
X-10127857Y5294000D01*
X-10113572Y5279714D01*
X-10099286Y5251143D01*
X-10085000Y5194000D01*
X-10085000Y5122572D01*
X-10099286Y5065429D01*
X-10113572Y5036857D01*
X-10127857Y5022572D01*
X-10156429Y5008286D01*
X-10185000Y5008286D01*
X-10213572Y5022572D01*
X-10227857Y5036857D01*
X-10242143Y5065429D01*
X-10256429Y5122572D01*
X-10256429Y5194000D01*
X-10242143Y5251143D01*
X-10227857Y5279714D01*
X-10213572Y5294000D01*
X-10185000Y5308286D01*
X-9956429Y5036857D02*
X-9942143Y5022572D01*
X-9956429Y5008286D01*
X-9970714Y5022572D01*
X-9956429Y5036857D01*
X-9956429Y5008286D01*
X-9756429Y5308286D02*
X-9727857Y5308286D01*
X-9699286Y5294000D01*
X-9685000Y5279714D01*
X-9670714Y5251143D01*
X-9656429Y5194000D01*
X-9656429Y5122572D01*
X-9670714Y5065429D01*
X-9685000Y5036857D01*
X-9699286Y5022572D01*
X-9727857Y5008286D01*
X-9756429Y5008286D01*
X-9785000Y5022572D01*
X-9799286Y5036857D01*
X-9813572Y5065429D01*
X-9827857Y5122572D01*
X-9827857Y5194000D01*
X-9813572Y5251143D01*
X-9799286Y5279714D01*
X-9785000Y5294000D01*
X-9756429Y5308286D01*
X-9542143Y5279714D02*
X-9527857Y5294000D01*
X-9499286Y5308286D01*
X-9427857Y5308286D01*
X-9399286Y5294000D01*
X-9385000Y5279714D01*
X-9370714Y5251143D01*
X-9370714Y5222572D01*
X-9385000Y5179714D01*
X-9556429Y5008286D01*
X-9370714Y5008286D01*
X-9113572Y5308286D02*
X-9170714Y5308286D01*
X-9199286Y5294000D01*
X-9213572Y5279714D01*
X-9242143Y5236857D01*
X-9256429Y5179714D01*
X-9256429Y5065429D01*
X-9242143Y5036857D01*
X-9227857Y5022572D01*
X-9199286Y5008286D01*
X-9142143Y5008286D01*
X-9113572Y5022572D01*
X-9099286Y5036857D01*
X-9085000Y5065429D01*
X-9085000Y5136857D01*
X-9099286Y5165429D01*
X-9113572Y5179714D01*
X-9142143Y5194000D01*
X-9199286Y5194000D01*
X-9227857Y5179714D01*
X-9242143Y5165429D01*
X-9256429Y5136857D01*
X-8970714Y5308286D02*
X-8970714Y5251143D01*
X-8856429Y5308286D02*
X-8856429Y5251143D01*
X-8413572Y4894000D02*
X-8427857Y4908286D01*
X-8456429Y4951143D01*
X-8470714Y4979714D01*
X-8485000Y5022572D01*
X-8499286Y5094000D01*
X-8499286Y5151143D01*
X-8485000Y5222572D01*
X-8470714Y5265429D01*
X-8456429Y5294000D01*
X-8427857Y5336857D01*
X-8413572Y5351143D01*
X-8242143Y5308286D02*
X-8213571Y5308286D01*
X-8185000Y5294000D01*
X-8170714Y5279714D01*
X-8156429Y5251143D01*
X-8142143Y5194000D01*
X-8142143Y5122572D01*
X-8156429Y5065429D01*
X-8170714Y5036857D01*
X-8185000Y5022572D01*
X-8213571Y5008286D01*
X-8242143Y5008286D01*
X-8270714Y5022572D01*
X-8285000Y5036857D01*
X-8299286Y5065429D01*
X-8313571Y5122572D01*
X-8313571Y5194000D01*
X-8299286Y5251143D01*
X-8285000Y5279714D01*
X-8270714Y5294000D01*
X-8242143Y5308286D01*
X-7785000Y5008286D02*
X-7785000Y5308286D01*
X-7656429Y5008286D02*
X-7656429Y5165429D01*
X-7670714Y5194000D01*
X-7699286Y5208286D01*
X-7742143Y5208286D01*
X-7770714Y5194000D01*
X-7785000Y5179714D01*
X-7470714Y5008286D02*
X-7499286Y5022572D01*
X-7513571Y5036857D01*
X-7527857Y5065429D01*
X-7527857Y5151143D01*
X-7513571Y5179714D01*
X-7499286Y5194000D01*
X-7470714Y5208286D01*
X-7427857Y5208286D01*
X-7399286Y5194000D01*
X-7385000Y5179714D01*
X-7370714Y5151143D01*
X-7370714Y5065429D01*
X-7385000Y5036857D01*
X-7399286Y5022572D01*
X-7427857Y5008286D01*
X-7470714Y5008286D01*
X-7199286Y5008286D02*
X-7227857Y5022572D01*
X-7242143Y5051143D01*
X-7242143Y5308286D01*
X-6970714Y5022572D02*
X-6999286Y5008286D01*
X-7056429Y5008286D01*
X-7085000Y5022572D01*
X-7099286Y5051143D01*
X-7099286Y5165429D01*
X-7085000Y5194000D01*
X-7056429Y5208286D01*
X-6999286Y5208286D01*
X-6970714Y5194000D01*
X-6956429Y5165429D01*
X-6956429Y5136857D01*
X-7099286Y5108286D01*
X-6842143Y5022572D02*
X-6813571Y5008286D01*
X-6756429Y5008286D01*
X-6727857Y5022572D01*
X-6713571Y5051143D01*
X-6713571Y5065429D01*
X-6727857Y5094000D01*
X-6756429Y5108286D01*
X-6799286Y5108286D01*
X-6827857Y5122572D01*
X-6842143Y5151143D01*
X-6842143Y5165429D01*
X-6827857Y5194000D01*
X-6799286Y5208286D01*
X-6756429Y5208286D01*
X-6727857Y5194000D01*
X-6356429Y5122572D02*
X-6127857Y5122572D01*
X-6242143Y5008286D02*
X-6242143Y5236857D01*
X-5627857Y5208286D02*
X-5627857Y5008286D01*
X-5699286Y5322572D02*
X-5770714Y5108286D01*
X-5585000Y5108286D01*
X-5256429Y5022572D02*
X-5227857Y5008286D01*
X-5170714Y5008286D01*
X-5142143Y5022572D01*
X-5127857Y5051143D01*
X-5127857Y5065429D01*
X-5142143Y5094000D01*
X-5170714Y5108286D01*
X-5213572Y5108286D01*
X-5242143Y5122572D01*
X-5256429Y5151143D01*
X-5256429Y5165429D01*
X-5242143Y5194000D01*
X-5213572Y5208286D01*
X-5170714Y5208286D01*
X-5142143Y5194000D01*
X-4956429Y5008286D02*
X-4985000Y5022572D01*
X-4999286Y5051143D01*
X-4999286Y5308286D01*
X-4799286Y5008286D02*
X-4827857Y5022572D01*
X-4842143Y5036857D01*
X-4856429Y5065429D01*
X-4856429Y5151143D01*
X-4842143Y5179714D01*
X-4827857Y5194000D01*
X-4799286Y5208286D01*
X-4756429Y5208286D01*
X-4727857Y5194000D01*
X-4713572Y5179714D01*
X-4699286Y5151143D01*
X-4699286Y5065429D01*
X-4713572Y5036857D01*
X-4727857Y5022572D01*
X-4756429Y5008286D01*
X-4799286Y5008286D01*
X-4613572Y5208286D02*
X-4499286Y5208286D01*
X-4570714Y5308286D02*
X-4570714Y5051143D01*
X-4556429Y5022572D01*
X-4527857Y5008286D01*
X-4499286Y5008286D01*
X-4413572Y5022572D02*
X-4385000Y5008286D01*
X-4327857Y5008286D01*
X-4299286Y5022572D01*
X-4285000Y5051143D01*
X-4285000Y5065429D01*
X-4299286Y5094000D01*
X-4327857Y5108286D01*
X-4370714Y5108286D01*
X-4399286Y5122572D01*
X-4413572Y5151143D01*
X-4413572Y5165429D01*
X-4399286Y5194000D01*
X-4370714Y5208286D01*
X-4327857Y5208286D01*
X-4299286Y5194000D01*
X-4185000Y4894000D02*
X-4170714Y4908286D01*
X-4142143Y4951143D01*
X-4127857Y4979714D01*
X-4113571Y5022572D01*
X-4099286Y5094000D01*
X-4099286Y5151143D01*
X-4113571Y5222572D01*
X-4127857Y5265429D01*
X-4142143Y5294000D01*
X-4170714Y5336857D01*
X-4185000Y5351143D01*
X-13140000Y4788000D02*
X-13140000Y4708000D01*
X-13180000Y4748000D02*
X-13100000Y4748000D01*
X-12756429Y4912286D02*
X-12727857Y4912286D01*
X-12699286Y4898000D01*
X-12685000Y4883714D01*
X-12670714Y4855143D01*
X-12656429Y4798000D01*
X-12656429Y4726572D01*
X-12670714Y4669429D01*
X-12685000Y4640857D01*
X-12699286Y4626572D01*
X-12727857Y4612286D01*
X-12756429Y4612286D01*
X-12785000Y4626572D01*
X-12799286Y4640857D01*
X-12813571Y4669429D01*
X-12827857Y4726572D01*
X-12827857Y4798000D01*
X-12813571Y4855143D01*
X-12799286Y4883714D01*
X-12785000Y4898000D01*
X-12756429Y4912286D01*
X-12527857Y4640857D02*
X-12513571Y4626572D01*
X-12527857Y4612286D01*
X-12542143Y4626572D01*
X-12527857Y4640857D01*
X-12527857Y4612286D01*
X-12342143Y4783714D02*
X-12370714Y4798000D01*
X-12385000Y4812286D01*
X-12399286Y4840857D01*
X-12399286Y4855143D01*
X-12385000Y4883714D01*
X-12370714Y4898000D01*
X-12342143Y4912286D01*
X-12285000Y4912286D01*
X-12256429Y4898000D01*
X-12242143Y4883714D01*
X-12227857Y4855143D01*
X-12227857Y4840857D01*
X-12242143Y4812286D01*
X-12256429Y4798000D01*
X-12285000Y4783714D01*
X-12342143Y4783714D01*
X-12370714Y4769429D01*
X-12385000Y4755143D01*
X-12399286Y4726572D01*
X-12399286Y4669429D01*
X-12385000Y4640857D01*
X-12370714Y4626572D01*
X-12342143Y4612286D01*
X-12285000Y4612286D01*
X-12256429Y4626572D01*
X-12242143Y4640857D01*
X-12227857Y4669429D01*
X-12227857Y4726572D01*
X-12242143Y4755143D01*
X-12256429Y4769429D01*
X-12285000Y4783714D01*
X-12042143Y4912286D02*
X-12013571Y4912286D01*
X-11985000Y4898000D01*
X-11970714Y4883714D01*
X-11956429Y4855143D01*
X-11942143Y4798000D01*
X-11942143Y4726572D01*
X-11956429Y4669429D01*
X-11970714Y4640857D01*
X-11985000Y4626572D01*
X-12013571Y4612286D01*
X-12042143Y4612286D01*
X-12070714Y4626572D01*
X-12085000Y4640857D01*
X-12099286Y4669429D01*
X-12113571Y4726572D01*
X-12113571Y4798000D01*
X-12099286Y4855143D01*
X-12085000Y4883714D01*
X-12070714Y4898000D01*
X-12042143Y4912286D01*
X-11813571Y4612286D02*
X-11813571Y4812286D01*
X-11813571Y4783714D02*
X-11799286Y4798000D01*
X-11770714Y4812286D01*
X-11727857Y4812286D01*
X-11699286Y4798000D01*
X-11685000Y4769429D01*
X-11685000Y4612286D01*
X-11685000Y4769429D02*
X-11670714Y4798000D01*
X-11642143Y4812286D01*
X-11599286Y4812286D01*
X-11570714Y4798000D01*
X-11556429Y4769429D01*
X-11556429Y4612286D01*
X-11413571Y4612286D02*
X-11413571Y4812286D01*
X-11413571Y4783714D02*
X-11399286Y4798000D01*
X-11370714Y4812286D01*
X-11327857Y4812286D01*
X-11299286Y4798000D01*
X-11285000Y4769429D01*
X-11285000Y4612286D01*
X-11285000Y4769429D02*
X-11270714Y4798000D01*
X-11242143Y4812286D01*
X-11199286Y4812286D01*
X-11170714Y4798000D01*
X-11156429Y4769429D01*
X-11156429Y4612286D01*
X-10570714Y4926572D02*
X-10827857Y4540857D01*
X-10185000Y4912286D02*
X-10156429Y4912286D01*
X-10127857Y4898000D01*
X-10113572Y4883714D01*
X-10099286Y4855143D01*
X-10085000Y4798000D01*
X-10085000Y4726572D01*
X-10099286Y4669429D01*
X-10113572Y4640857D01*
X-10127857Y4626572D01*
X-10156429Y4612286D01*
X-10185000Y4612286D01*
X-10213572Y4626572D01*
X-10227857Y4640857D01*
X-10242143Y4669429D01*
X-10256429Y4726572D01*
X-10256429Y4798000D01*
X-10242143Y4855143D01*
X-10227857Y4883714D01*
X-10213572Y4898000D01*
X-10185000Y4912286D01*
X-9956429Y4640857D02*
X-9942143Y4626572D01*
X-9956429Y4612286D01*
X-9970714Y4626572D01*
X-9956429Y4640857D01*
X-9956429Y4612286D01*
X-9756429Y4912286D02*
X-9727857Y4912286D01*
X-9699286Y4898000D01*
X-9685000Y4883714D01*
X-9670714Y4855143D01*
X-9656429Y4798000D01*
X-9656429Y4726572D01*
X-9670714Y4669429D01*
X-9685000Y4640857D01*
X-9699286Y4626572D01*
X-9727857Y4612286D01*
X-9756429Y4612286D01*
X-9785000Y4626572D01*
X-9799286Y4640857D01*
X-9813572Y4669429D01*
X-9827857Y4726572D01*
X-9827857Y4798000D01*
X-9813572Y4855143D01*
X-9799286Y4883714D01*
X-9785000Y4898000D01*
X-9756429Y4912286D01*
X-9556429Y4912286D02*
X-9370714Y4912286D01*
X-9470714Y4798000D01*
X-9427857Y4798000D01*
X-9399286Y4783714D01*
X-9385000Y4769429D01*
X-9370714Y4740857D01*
X-9370714Y4669429D01*
X-9385000Y4640857D01*
X-9399286Y4626572D01*
X-9427857Y4612286D01*
X-9513572Y4612286D01*
X-9542143Y4626572D01*
X-9556429Y4640857D01*
X-9085000Y4612286D02*
X-9256429Y4612286D01*
X-9170714Y4612286D02*
X-9170714Y4912286D01*
X-9199286Y4869429D01*
X-9227857Y4840857D01*
X-9256429Y4826572D01*
X-8970714Y4912286D02*
X-8970714Y4855143D01*
X-8856429Y4912286D02*
X-8856429Y4855143D01*
X-8413572Y4498000D02*
X-8427857Y4512286D01*
X-8456429Y4555143D01*
X-8470714Y4583714D01*
X-8485000Y4626572D01*
X-8499286Y4698000D01*
X-8499286Y4755143D01*
X-8485000Y4826572D01*
X-8470714Y4869429D01*
X-8456429Y4898000D01*
X-8427857Y4940857D01*
X-8413572Y4955143D01*
X-8142143Y4612286D02*
X-8313571Y4612286D01*
X-8227857Y4612286D02*
X-8227857Y4912286D01*
X-8256429Y4869429D01*
X-8285000Y4840857D01*
X-8313571Y4826572D01*
X-7956429Y4912286D02*
X-7927857Y4912286D01*
X-7899286Y4898000D01*
X-7885000Y4883714D01*
X-7870714Y4855143D01*
X-7856429Y4798000D01*
X-7856429Y4726572D01*
X-7870714Y4669429D01*
X-7885000Y4640857D01*
X-7899286Y4626572D01*
X-7927857Y4612286D01*
X-7956429Y4612286D01*
X-7985000Y4626572D01*
X-7999286Y4640857D01*
X-8013571Y4669429D01*
X-8027857Y4726572D01*
X-8027857Y4798000D01*
X-8013571Y4855143D01*
X-7999286Y4883714D01*
X-7985000Y4898000D01*
X-7956429Y4912286D01*
X-7499286Y4612286D02*
X-7499286Y4912286D01*
X-7370714Y4612286D02*
X-7370714Y4769429D01*
X-7385000Y4798000D01*
X-7413571Y4812286D01*
X-7456429Y4812286D01*
X-7485000Y4798000D01*
X-7499286Y4783714D01*
X-7185000Y4612286D02*
X-7213571Y4626572D01*
X-7227857Y4640857D01*
X-7242143Y4669429D01*
X-7242143Y4755143D01*
X-7227857Y4783714D01*
X-7213571Y4798000D01*
X-7185000Y4812286D01*
X-7142143Y4812286D01*
X-7113571Y4798000D01*
X-7099286Y4783714D01*
X-7085000Y4755143D01*
X-7085000Y4669429D01*
X-7099286Y4640857D01*
X-7113571Y4626572D01*
X-7142143Y4612286D01*
X-7185000Y4612286D01*
X-6913571Y4612286D02*
X-6942143Y4626572D01*
X-6956429Y4655143D01*
X-6956429Y4912286D01*
X-6685000Y4626572D02*
X-6713571Y4612286D01*
X-6770714Y4612286D01*
X-6799286Y4626572D01*
X-6813571Y4655143D01*
X-6813571Y4769429D01*
X-6799286Y4798000D01*
X-6770714Y4812286D01*
X-6713571Y4812286D01*
X-6685000Y4798000D01*
X-6670714Y4769429D01*
X-6670714Y4740857D01*
X-6813571Y4712286D01*
X-6556429Y4626572D02*
X-6527857Y4612286D01*
X-6470714Y4612286D01*
X-6442143Y4626572D01*
X-6427857Y4655143D01*
X-6427857Y4669429D01*
X-6442143Y4698000D01*
X-6470714Y4712286D01*
X-6513571Y4712286D01*
X-6542143Y4726572D01*
X-6556429Y4755143D01*
X-6556429Y4769429D01*
X-6542143Y4798000D01*
X-6513571Y4812286D01*
X-6470714Y4812286D01*
X-6442143Y4798000D01*
X-6327857Y4498000D02*
X-6313571Y4512286D01*
X-6285000Y4555143D01*
X-6270714Y4583714D01*
X-6256429Y4626572D01*
X-6242143Y4698000D01*
X-6242143Y4755143D01*
X-6256429Y4826572D01*
X-6270714Y4869429D01*
X-6285000Y4898000D01*
X-6313571Y4940857D01*
X-6327857Y4955143D01*
X-13114644Y4316644D02*
X-13114644Y4387356D01*
X-13185356Y4387356D01*
X-13185356Y4316644D01*
X-13114644Y4316644D01*
X-12656429Y4216286D02*
X-12827857Y4216286D01*
X-12742143Y4216286D02*
X-12742143Y4516286D01*
X-12770714Y4473429D01*
X-12799286Y4444857D01*
X-12827857Y4430572D01*
X-12527857Y4244857D02*
X-12513571Y4230572D01*
X-12527857Y4216286D01*
X-12542143Y4230572D01*
X-12527857Y4244857D01*
X-12527857Y4216286D01*
X-12327857Y4516286D02*
X-12299286Y4516286D01*
X-12270714Y4502000D01*
X-12256429Y4487714D01*
X-12242143Y4459143D01*
X-12227857Y4402000D01*
X-12227857Y4330572D01*
X-12242143Y4273429D01*
X-12256429Y4244857D01*
X-12270714Y4230572D01*
X-12299286Y4216286D01*
X-12327857Y4216286D01*
X-12356429Y4230572D01*
X-12370714Y4244857D01*
X-12385000Y4273429D01*
X-12399286Y4330572D01*
X-12399286Y4402000D01*
X-12385000Y4459143D01*
X-12370714Y4487714D01*
X-12356429Y4502000D01*
X-12327857Y4516286D01*
X-12042143Y4516286D02*
X-12013571Y4516286D01*
X-11985000Y4502000D01*
X-11970714Y4487714D01*
X-11956429Y4459143D01*
X-11942143Y4402000D01*
X-11942143Y4330572D01*
X-11956429Y4273429D01*
X-11970714Y4244857D01*
X-11985000Y4230572D01*
X-12013571Y4216286D01*
X-12042143Y4216286D01*
X-12070714Y4230572D01*
X-12085000Y4244857D01*
X-12099286Y4273429D01*
X-12113571Y4330572D01*
X-12113571Y4402000D01*
X-12099286Y4459143D01*
X-12085000Y4487714D01*
X-12070714Y4502000D01*
X-12042143Y4516286D01*
X-11813571Y4216286D02*
X-11813571Y4416286D01*
X-11813571Y4387714D02*
X-11799286Y4402000D01*
X-11770714Y4416286D01*
X-11727857Y4416286D01*
X-11699286Y4402000D01*
X-11685000Y4373429D01*
X-11685000Y4216286D01*
X-11685000Y4373429D02*
X-11670714Y4402000D01*
X-11642143Y4416286D01*
X-11599286Y4416286D01*
X-11570714Y4402000D01*
X-11556429Y4373429D01*
X-11556429Y4216286D01*
X-11413571Y4216286D02*
X-11413571Y4416286D01*
X-11413571Y4387714D02*
X-11399286Y4402000D01*
X-11370714Y4416286D01*
X-11327857Y4416286D01*
X-11299286Y4402000D01*
X-11285000Y4373429D01*
X-11285000Y4216286D01*
X-11285000Y4373429D02*
X-11270714Y4402000D01*
X-11242143Y4416286D01*
X-11199286Y4416286D01*
X-11170714Y4402000D01*
X-11156429Y4373429D01*
X-11156429Y4216286D01*
X-10570714Y4530572D02*
X-10827857Y4144857D01*
X-10185000Y4516286D02*
X-10156429Y4516286D01*
X-10127857Y4502000D01*
X-10113572Y4487714D01*
X-10099286Y4459143D01*
X-10085000Y4402000D01*
X-10085000Y4330572D01*
X-10099286Y4273429D01*
X-10113572Y4244857D01*
X-10127857Y4230572D01*
X-10156429Y4216286D01*
X-10185000Y4216286D01*
X-10213572Y4230572D01*
X-10227857Y4244857D01*
X-10242143Y4273429D01*
X-10256429Y4330572D01*
X-10256429Y4402000D01*
X-10242143Y4459143D01*
X-10227857Y4487714D01*
X-10213572Y4502000D01*
X-10185000Y4516286D01*
X-9956429Y4244857D02*
X-9942143Y4230572D01*
X-9956429Y4216286D01*
X-9970714Y4230572D01*
X-9956429Y4244857D01*
X-9956429Y4216286D01*
X-9756429Y4516286D02*
X-9727857Y4516286D01*
X-9699286Y4502000D01*
X-9685000Y4487714D01*
X-9670714Y4459143D01*
X-9656429Y4402000D01*
X-9656429Y4330572D01*
X-9670714Y4273429D01*
X-9685000Y4244857D01*
X-9699286Y4230572D01*
X-9727857Y4216286D01*
X-9756429Y4216286D01*
X-9785000Y4230572D01*
X-9799286Y4244857D01*
X-9813572Y4273429D01*
X-9827857Y4330572D01*
X-9827857Y4402000D01*
X-9813572Y4459143D01*
X-9799286Y4487714D01*
X-9785000Y4502000D01*
X-9756429Y4516286D01*
X-9556429Y4516286D02*
X-9370714Y4516286D01*
X-9470714Y4402000D01*
X-9427857Y4402000D01*
X-9399286Y4387714D01*
X-9385000Y4373429D01*
X-9370714Y4344857D01*
X-9370714Y4273429D01*
X-9385000Y4244857D01*
X-9399286Y4230572D01*
X-9427857Y4216286D01*
X-9513572Y4216286D01*
X-9542143Y4230572D01*
X-9556429Y4244857D01*
X-9227857Y4216286D02*
X-9170714Y4216286D01*
X-9142143Y4230572D01*
X-9127857Y4244857D01*
X-9099286Y4287714D01*
X-9085000Y4344857D01*
X-9085000Y4459143D01*
X-9099286Y4487714D01*
X-9113572Y4502000D01*
X-9142143Y4516286D01*
X-9199286Y4516286D01*
X-9227857Y4502000D01*
X-9242143Y4487714D01*
X-9256429Y4459143D01*
X-9256429Y4387714D01*
X-9242143Y4359143D01*
X-9227857Y4344857D01*
X-9199286Y4330572D01*
X-9142143Y4330572D01*
X-9113572Y4344857D01*
X-9099286Y4359143D01*
X-9085000Y4387714D01*
X-8970714Y4516286D02*
X-8970714Y4459143D01*
X-8856429Y4516286D02*
X-8856429Y4459143D01*
X-8413572Y4102000D02*
X-8427857Y4116286D01*
X-8456429Y4159143D01*
X-8470714Y4187714D01*
X-8485000Y4230572D01*
X-8499286Y4302000D01*
X-8499286Y4359143D01*
X-8485000Y4430572D01*
X-8470714Y4473429D01*
X-8456429Y4502000D01*
X-8427857Y4544857D01*
X-8413572Y4559143D01*
X-8313571Y4487714D02*
X-8299286Y4502000D01*
X-8270714Y4516286D01*
X-8199286Y4516286D01*
X-8170714Y4502000D01*
X-8156429Y4487714D01*
X-8142143Y4459143D01*
X-8142143Y4430572D01*
X-8156429Y4387714D01*
X-8327857Y4216286D01*
X-8142143Y4216286D01*
X-7956429Y4516286D02*
X-7927857Y4516286D01*
X-7899286Y4502000D01*
X-7885000Y4487714D01*
X-7870714Y4459143D01*
X-7856429Y4402000D01*
X-7856429Y4330572D01*
X-7870714Y4273429D01*
X-7885000Y4244857D01*
X-7899286Y4230572D01*
X-7927857Y4216286D01*
X-7956429Y4216286D01*
X-7985000Y4230572D01*
X-7999286Y4244857D01*
X-8013571Y4273429D01*
X-8027857Y4330572D01*
X-8027857Y4402000D01*
X-8013571Y4459143D01*
X-7999286Y4487714D01*
X-7985000Y4502000D01*
X-7956429Y4516286D01*
X-7499286Y4216286D02*
X-7499286Y4516286D01*
X-7370714Y4216286D02*
X-7370714Y4373429D01*
X-7385000Y4402000D01*
X-7413571Y4416286D01*
X-7456429Y4416286D01*
X-7485000Y4402000D01*
X-7499286Y4387714D01*
X-7185000Y4216286D02*
X-7213571Y4230572D01*
X-7227857Y4244857D01*
X-7242143Y4273429D01*
X-7242143Y4359143D01*
X-7227857Y4387714D01*
X-7213571Y4402000D01*
X-7185000Y4416286D01*
X-7142143Y4416286D01*
X-7113571Y4402000D01*
X-7099286Y4387714D01*
X-7085000Y4359143D01*
X-7085000Y4273429D01*
X-7099286Y4244857D01*
X-7113571Y4230572D01*
X-7142143Y4216286D01*
X-7185000Y4216286D01*
X-6913571Y4216286D02*
X-6942143Y4230572D01*
X-6956429Y4259143D01*
X-6956429Y4516286D01*
X-6685000Y4230572D02*
X-6713571Y4216286D01*
X-6770714Y4216286D01*
X-6799286Y4230572D01*
X-6813571Y4259143D01*
X-6813571Y4373429D01*
X-6799286Y4402000D01*
X-6770714Y4416286D01*
X-6713571Y4416286D01*
X-6685000Y4402000D01*
X-6670714Y4373429D01*
X-6670714Y4344857D01*
X-6813571Y4316286D01*
X-6556429Y4230572D02*
X-6527857Y4216286D01*
X-6470714Y4216286D01*
X-6442143Y4230572D01*
X-6427857Y4259143D01*
X-6427857Y4273429D01*
X-6442143Y4302000D01*
X-6470714Y4316286D01*
X-6513571Y4316286D01*
X-6542143Y4330572D01*
X-6556429Y4359143D01*
X-6556429Y4373429D01*
X-6542143Y4402000D01*
X-6513571Y4416286D01*
X-6470714Y4416286D01*
X-6442143Y4402000D01*
X-6327857Y4102000D02*
X-6313571Y4116286D01*
X-6285000Y4159143D01*
X-6270714Y4187714D01*
X-6256429Y4230572D01*
X-6242143Y4302000D01*
X-6242143Y4359143D01*
X-6256429Y4430572D01*
X-6270714Y4473429D01*
X-6285000Y4502000D01*
X-6313571Y4544857D01*
X-6327857Y4559143D01*
X-13260000Y3796000D02*
X-13100000Y3956000D01*
X-13260000Y4116000D01*
X-13420000Y3956000D01*
X-13260000Y3796000D01*
X-12842143Y4120286D02*
X-12656429Y4120286D01*
X-12756429Y4006000D01*
X-12713571Y4006000D01*
X-12685000Y3991714D01*
X-12670714Y3977429D01*
X-12656429Y3948857D01*
X-12656429Y3877429D01*
X-12670714Y3848857D01*
X-12685000Y3834571D01*
X-12713571Y3820286D01*
X-12799286Y3820286D01*
X-12827857Y3834571D01*
X-12842143Y3848857D01*
X-12527857Y3848857D02*
X-12513571Y3834571D01*
X-12527857Y3820286D01*
X-12542143Y3834571D01*
X-12527857Y3848857D01*
X-12527857Y3820286D01*
X-12399286Y4091714D02*
X-12385000Y4106000D01*
X-12356429Y4120286D01*
X-12285000Y4120286D01*
X-12256429Y4106000D01*
X-12242143Y4091714D01*
X-12227857Y4063143D01*
X-12227857Y4034571D01*
X-12242143Y3991714D01*
X-12413571Y3820286D01*
X-12227857Y3820286D01*
X-12042143Y4120286D02*
X-12013571Y4120286D01*
X-11985000Y4106000D01*
X-11970714Y4091714D01*
X-11956429Y4063143D01*
X-11942143Y4006000D01*
X-11942143Y3934571D01*
X-11956429Y3877429D01*
X-11970714Y3848857D01*
X-11985000Y3834571D01*
X-12013571Y3820286D01*
X-12042143Y3820286D01*
X-12070714Y3834571D01*
X-12085000Y3848857D01*
X-12099286Y3877429D01*
X-12113571Y3934571D01*
X-12113571Y4006000D01*
X-12099286Y4063143D01*
X-12085000Y4091714D01*
X-12070714Y4106000D01*
X-12042143Y4120286D01*
X-11813571Y3820286D02*
X-11813571Y4020286D01*
X-11813571Y3991714D02*
X-11799286Y4006000D01*
X-11770714Y4020286D01*
X-11727857Y4020286D01*
X-11699286Y4006000D01*
X-11685000Y3977429D01*
X-11685000Y3820286D01*
X-11685000Y3977429D02*
X-11670714Y4006000D01*
X-11642143Y4020286D01*
X-11599286Y4020286D01*
X-11570714Y4006000D01*
X-11556429Y3977429D01*
X-11556429Y3820286D01*
X-11413571Y3820286D02*
X-11413571Y4020286D01*
X-11413571Y3991714D02*
X-11399286Y4006000D01*
X-11370714Y4020286D01*
X-11327857Y4020286D01*
X-11299286Y4006000D01*
X-11285000Y3977429D01*
X-11285000Y3820286D01*
X-11285000Y3977429D02*
X-11270714Y4006000D01*
X-11242143Y4020286D01*
X-11199286Y4020286D01*
X-11170714Y4006000D01*
X-11156429Y3977429D01*
X-11156429Y3820286D01*
X-10570714Y4134571D02*
X-10827857Y3748857D01*
X-10185000Y4120286D02*
X-10156429Y4120286D01*
X-10127857Y4106000D01*
X-10113572Y4091714D01*
X-10099286Y4063143D01*
X-10085000Y4006000D01*
X-10085000Y3934571D01*
X-10099286Y3877429D01*
X-10113572Y3848857D01*
X-10127857Y3834571D01*
X-10156429Y3820286D01*
X-10185000Y3820286D01*
X-10213572Y3834571D01*
X-10227857Y3848857D01*
X-10242143Y3877429D01*
X-10256429Y3934571D01*
X-10256429Y4006000D01*
X-10242143Y4063143D01*
X-10227857Y4091714D01*
X-10213572Y4106000D01*
X-10185000Y4120286D01*
X-9956429Y3848857D02*
X-9942143Y3834571D01*
X-9956429Y3820286D01*
X-9970714Y3834571D01*
X-9956429Y3848857D01*
X-9956429Y3820286D01*
X-9656429Y3820286D02*
X-9827857Y3820286D01*
X-9742143Y3820286D02*
X-9742143Y4120286D01*
X-9770714Y4077429D01*
X-9799286Y4048857D01*
X-9827857Y4034571D01*
X-9542143Y4091714D02*
X-9527857Y4106000D01*
X-9499286Y4120286D01*
X-9427857Y4120286D01*
X-9399286Y4106000D01*
X-9385000Y4091714D01*
X-9370714Y4063143D01*
X-9370714Y4034571D01*
X-9385000Y3991714D01*
X-9556429Y3820286D01*
X-9370714Y3820286D01*
X-9113572Y4120286D02*
X-9170714Y4120286D01*
X-9199286Y4106000D01*
X-9213572Y4091714D01*
X-9242143Y4048857D01*
X-9256429Y3991714D01*
X-9256429Y3877429D01*
X-9242143Y3848857D01*
X-9227857Y3834571D01*
X-9199286Y3820286D01*
X-9142143Y3820286D01*
X-9113572Y3834571D01*
X-9099286Y3848857D01*
X-9085000Y3877429D01*
X-9085000Y3948857D01*
X-9099286Y3977429D01*
X-9113572Y3991714D01*
X-9142143Y4006000D01*
X-9199286Y4006000D01*
X-9227857Y3991714D01*
X-9242143Y3977429D01*
X-9256429Y3948857D01*
X-8970714Y4120286D02*
X-8970714Y4063143D01*
X-8856429Y4120286D02*
X-8856429Y4063143D01*
X-8413572Y3706000D02*
X-8427857Y3720286D01*
X-8456429Y3763143D01*
X-8470714Y3791714D01*
X-8485000Y3834571D01*
X-8499286Y3906000D01*
X-8499286Y3963143D01*
X-8485000Y4034571D01*
X-8470714Y4077429D01*
X-8456429Y4106000D01*
X-8427857Y4148857D01*
X-8413572Y4163143D01*
X-8313571Y4091714D02*
X-8299286Y4106000D01*
X-8270714Y4120286D01*
X-8199286Y4120286D01*
X-8170714Y4106000D01*
X-8156429Y4091714D01*
X-8142143Y4063143D01*
X-8142143Y4034571D01*
X-8156429Y3991714D01*
X-8327857Y3820286D01*
X-8142143Y3820286D01*
X-7785000Y3820286D02*
X-7785000Y4120286D01*
X-7656429Y3820286D02*
X-7656429Y3977429D01*
X-7670714Y4006000D01*
X-7699286Y4020286D01*
X-7742143Y4020286D01*
X-7770714Y4006000D01*
X-7785000Y3991714D01*
X-7470714Y3820286D02*
X-7499286Y3834571D01*
X-7513571Y3848857D01*
X-7527857Y3877429D01*
X-7527857Y3963143D01*
X-7513571Y3991714D01*
X-7499286Y4006000D01*
X-7470714Y4020286D01*
X-7427857Y4020286D01*
X-7399286Y4006000D01*
X-7385000Y3991714D01*
X-7370714Y3963143D01*
X-7370714Y3877429D01*
X-7385000Y3848857D01*
X-7399286Y3834571D01*
X-7427857Y3820286D01*
X-7470714Y3820286D01*
X-7199286Y3820286D02*
X-7227857Y3834571D01*
X-7242143Y3863143D01*
X-7242143Y4120286D01*
X-6970714Y3834571D02*
X-6999286Y3820286D01*
X-7056429Y3820286D01*
X-7085000Y3834571D01*
X-7099286Y3863143D01*
X-7099286Y3977429D01*
X-7085000Y4006000D01*
X-7056429Y4020286D01*
X-6999286Y4020286D01*
X-6970714Y4006000D01*
X-6956429Y3977429D01*
X-6956429Y3948857D01*
X-7099286Y3920286D01*
X-6842143Y3834571D02*
X-6813571Y3820286D01*
X-6756429Y3820286D01*
X-6727857Y3834571D01*
X-6713571Y3863143D01*
X-6713571Y3877429D01*
X-6727857Y3906000D01*
X-6756429Y3920286D01*
X-6799286Y3920286D01*
X-6827857Y3934571D01*
X-6842143Y3963143D01*
X-6842143Y3977429D01*
X-6827857Y4006000D01*
X-6799286Y4020286D01*
X-6756429Y4020286D01*
X-6727857Y4006000D01*
X-6613571Y3706000D02*
X-6599286Y3720286D01*
X-6570714Y3763143D01*
X-6556429Y3791714D01*
X-6542143Y3834571D01*
X-6527857Y3906000D01*
X-6527857Y3963143D01*
X-6542143Y4034571D01*
X-6556429Y4077429D01*
X-6570714Y4106000D01*
X-6599286Y4148857D01*
X-6613571Y4163143D01*
M02*
