G04 #@! TF.GenerationSoftware,KiCad,Pcbnew,(5.1.5)-3*
G04 #@! TF.CreationDate,2020-06-30T19:55:35+10:00*
G04 #@! TF.ProjectId,cicada-2g,63696361-6461-42d3-9267-2e6b69636164,0.1*
G04 #@! TF.SameCoordinates,PX7cee6c0PY3dfd240*
G04 #@! TF.FileFunction,Other,User*
%FSLAX46Y46*%
G04 Gerber Fmt 4.6, Leading zero omitted, Abs format (unit mm)*
G04 Created by KiCad (PCBNEW (5.1.5)-3) date 2020-06-30 19:55:35*
%MOMM*%
%LPD*%
G04 APERTURE LIST*
%ADD10C,0.050000*%
G04 APERTURE END LIST*
D10*
X13290000Y-57390000D02*
G75*
G03X13290000Y-57390000I-1250000J0D01*
G01*
X-13660000Y-50350000D02*
G75*
G03X-13660000Y-50350000I-1250000J0D01*
G01*
X-15840000Y2220000D02*
G75*
G03X-15840000Y2220000I-1250000J0D01*
G01*
X5189000Y-8623200D02*
X7049000Y-8623200D01*
X5189000Y-9563200D02*
X5189000Y-8623200D01*
X7049000Y-9563200D02*
X5189000Y-9563200D01*
X7049000Y-8623200D02*
X7049000Y-9563200D01*
X-11200000Y-53000000D02*
X-3300000Y-53000000D01*
X-3300000Y-53000000D02*
X-3300000Y-58200000D01*
X-3300000Y-58200000D02*
X-11200000Y-58200000D01*
X-11200000Y-58200000D02*
X-11200000Y-53000000D01*
X-400000Y-51070000D02*
X-400000Y-46070000D01*
X-400000Y-46070000D02*
X-5400000Y-46070000D01*
X-5400000Y-46070000D02*
X-5400000Y-51070000D01*
X-5400000Y-51070000D02*
X-400000Y-51070000D01*
X6656000Y-43017000D02*
X13156000Y-43017000D01*
X6656000Y-38517000D02*
X6656000Y-43017000D01*
X13156000Y-38517000D02*
X6656000Y-38517000D01*
X13156000Y-43017000D02*
X13156000Y-38517000D01*
X8928000Y-13249000D02*
X8928000Y-11389000D01*
X9868000Y-13249000D02*
X8928000Y-13249000D01*
X9868000Y-11389000D02*
X9868000Y-13249000D01*
X8928000Y-11389000D02*
X9868000Y-11389000D01*
X4280000Y-27899000D02*
X4280000Y-29759000D01*
X3340000Y-27899000D02*
X4280000Y-27899000D01*
X3340000Y-29759000D02*
X3340000Y-27899000D01*
X4280000Y-29759000D02*
X3340000Y-29759000D01*
X19792000Y-13843000D02*
G75*
G03X19792000Y-13843000I-1250000J0D01*
G01*
X20000000Y-57000000D02*
G75*
G03X20000000Y-57000000I-3000000J0D01*
G01*
X-14000000Y-57000000D02*
G75*
G03X-14000000Y-57000000I-3000000J0D01*
G01*
X4220000Y-36270000D02*
X4220000Y-38130000D01*
X3280000Y-36270000D02*
X4220000Y-36270000D01*
X3280000Y-38130000D02*
X3280000Y-36270000D01*
X4220000Y-38130000D02*
X3280000Y-38130000D01*
X3270000Y-36270000D02*
X3270000Y-38130000D01*
X2330000Y-36270000D02*
X3270000Y-36270000D01*
X2330000Y-38130000D02*
X2330000Y-36270000D01*
X3270000Y-38130000D02*
X2330000Y-38130000D01*
X-565000Y-46070000D02*
X-2425000Y-46070000D01*
X-565000Y-45130000D02*
X-565000Y-46070000D01*
X-2425000Y-45130000D02*
X-565000Y-45130000D01*
X-2425000Y-46070000D02*
X-2425000Y-45130000D01*
X-565000Y-45070000D02*
X-2425000Y-45070000D01*
X-565000Y-44130000D02*
X-565000Y-45070000D01*
X-2425000Y-44130000D02*
X-565000Y-44130000D01*
X-2425000Y-45070000D02*
X-2425000Y-44130000D01*
X-2430000Y-44190000D02*
X-2430000Y-46050000D01*
X-3370000Y-44190000D02*
X-2430000Y-44190000D01*
X-3370000Y-46050000D02*
X-3370000Y-44190000D01*
X-2430000Y-46050000D02*
X-3370000Y-46050000D01*
X2025000Y-25525000D02*
X2025000Y-43325000D01*
X2025000Y-43325000D02*
X-17675000Y-43325000D01*
X-17675000Y-25525000D02*
X-17675000Y-43325000D01*
X2025000Y-25525000D02*
X-17675000Y-25525000D01*
X9850000Y-47050000D02*
X9850000Y-50550000D01*
X2850000Y-47050000D02*
X9850000Y-47050000D01*
X2850000Y-50550000D02*
X2850000Y-47050000D01*
X9850000Y-50550000D02*
X2850000Y-50550000D01*
X16680000Y-44905000D02*
X16680000Y-43045000D01*
X17620000Y-44905000D02*
X16680000Y-44905000D01*
X17620000Y-43045000D02*
X17620000Y-44905000D01*
X16680000Y-43045000D02*
X17620000Y-43045000D01*
X16680000Y-43005000D02*
X16680000Y-41145000D01*
X17620000Y-43005000D02*
X16680000Y-43005000D01*
X17620000Y-41145000D02*
X17620000Y-43005000D01*
X16680000Y-41145000D02*
X17620000Y-41145000D01*
X18667246Y-43045000D02*
X18667246Y-44905000D01*
X17727246Y-43045000D02*
X18667246Y-43045000D01*
X17727246Y-44905000D02*
X17727246Y-43045000D01*
X18667246Y-44905000D02*
X17727246Y-44905000D01*
X1887000Y-11214000D02*
X3747000Y-11214000D01*
X1887000Y-12154000D02*
X1887000Y-11214000D01*
X3747000Y-12154000D02*
X1887000Y-12154000D01*
X3747000Y-11214000D02*
X3747000Y-12154000D01*
X1887000Y-10045600D02*
X3747000Y-10045600D01*
X1887000Y-10985600D02*
X1887000Y-10045600D01*
X3747000Y-10985600D02*
X1887000Y-10985600D01*
X3747000Y-10045600D02*
X3747000Y-10985600D01*
X4279400Y-7404000D02*
X6139400Y-7404000D01*
X4279400Y-8344000D02*
X4279400Y-7404000D01*
X6139400Y-8344000D02*
X4279400Y-8344000D01*
X6139400Y-7404000D02*
X6139400Y-8344000D01*
X-5443000Y2832000D02*
X-7303000Y2832000D01*
X-5443000Y3772000D02*
X-5443000Y2832000D01*
X-7303000Y3772000D02*
X-5443000Y3772000D01*
X-7303000Y2832000D02*
X-7303000Y3772000D01*
X-9289000Y3772000D02*
X-7429000Y3772000D01*
X-9289000Y2832000D02*
X-9289000Y3772000D01*
X-7429000Y2832000D02*
X-9289000Y2832000D01*
X-7429000Y3772000D02*
X-7429000Y2832000D01*
X13197250Y-45213971D02*
X13197250Y-40873971D01*
X13197250Y-45213971D02*
X16597250Y-45213971D01*
X16597250Y-40873971D02*
X13197250Y-40873971D01*
X16597250Y-40873971D02*
X16597250Y-45213971D01*
X-9400000Y-51700000D02*
X-5800000Y-51700000D01*
X-5800000Y-51700000D02*
X-5800000Y-47900000D01*
X-5800000Y-47900000D02*
X-9400000Y-47900000D01*
X-9400000Y-47900000D02*
X-9400000Y-51700000D01*
X-5230000Y-45130000D02*
X-3370000Y-45130000D01*
X-5230000Y-46070000D02*
X-5230000Y-45130000D01*
X-3370000Y-46070000D02*
X-5230000Y-46070000D01*
X-3370000Y-45130000D02*
X-3370000Y-46070000D01*
X12605000Y-11868500D02*
X12605000Y-8908500D01*
X14065000Y-11868500D02*
X12605000Y-11868500D01*
X14065000Y-8908500D02*
X14065000Y-11868500D01*
X12605000Y-8908500D02*
X14065000Y-8908500D01*
X285200Y-12508000D02*
X2785200Y-12508000D01*
X2785200Y-12508000D02*
X2785200Y-13908000D01*
X2785200Y-13908000D02*
X285200Y-13908000D01*
X285200Y-13908000D02*
X285200Y-12508000D01*
X3392400Y-7070000D02*
X3392400Y-9570000D01*
X3392400Y-9570000D02*
X1992400Y-9570000D01*
X1992400Y-9570000D02*
X1992400Y-7070000D01*
X1992400Y-7070000D02*
X3392400Y-7070000D01*
X1758400Y-5142000D02*
X4258400Y-5142000D01*
X4258400Y-5142000D02*
X4258400Y-6542000D01*
X4258400Y-6542000D02*
X1758400Y-6542000D01*
X1758400Y-6542000D02*
X1758400Y-5142000D01*
X5014000Y-40865000D02*
X5014000Y-44225000D01*
X3114000Y-40865000D02*
X5014000Y-40865000D01*
X3114000Y-44225000D02*
X3114000Y-40865000D01*
X5014000Y-44225000D02*
X3114000Y-44225000D01*
X5112000Y-44177500D02*
X5112000Y-41217500D01*
X6572000Y-44177500D02*
X5112000Y-44177500D01*
X6572000Y-41217500D02*
X6572000Y-44177500D01*
X5112000Y-41217500D02*
X6572000Y-41217500D01*
X16820000Y-45005000D02*
X18680000Y-45005000D01*
X16820000Y-45945000D02*
X16820000Y-45005000D01*
X18680000Y-45945000D02*
X16820000Y-45945000D01*
X18680000Y-45005000D02*
X18680000Y-45945000D01*
X9800000Y-46855000D02*
X9800000Y-43495000D01*
X11700000Y-46855000D02*
X9800000Y-46855000D01*
X11700000Y-43495000D02*
X11700000Y-46855000D01*
X9800000Y-43495000D02*
X11700000Y-43495000D01*
X13180000Y-43082500D02*
X13180000Y-46042500D01*
X11720000Y-43082500D02*
X13180000Y-43082500D01*
X11720000Y-46042500D02*
X11720000Y-43082500D01*
X13180000Y-46042500D02*
X11720000Y-46042500D01*
X2855000Y-12280800D02*
X4715000Y-12280800D01*
X2855000Y-13220800D02*
X2855000Y-12280800D01*
X4715000Y-13220800D02*
X2855000Y-13220800D01*
X4715000Y-12280800D02*
X4715000Y-13220800D01*
X5697000Y-6032400D02*
X7557000Y-6032400D01*
X5697000Y-6972400D02*
X5697000Y-6032400D01*
X7557000Y-6972400D02*
X5697000Y-6972400D01*
X7557000Y-6032400D02*
X7557000Y-6972400D01*
X1288800Y-6317900D02*
X1288800Y-9277900D01*
X-171200Y-6317900D02*
X1288800Y-6317900D01*
X-171200Y-9277900D02*
X-171200Y-6317900D01*
X1288800Y-9277900D02*
X-171200Y-9277900D01*
X19772000Y-34671000D02*
G75*
G03X19772000Y-34671000I-4250000J0D01*
G01*
X-5502000Y-24168000D02*
X-3642000Y-24168000D01*
X-5502000Y-25108000D02*
X-5502000Y-24168000D01*
X-3642000Y-25108000D02*
X-5502000Y-25108000D01*
X-3642000Y-24168000D02*
X-3642000Y-25108000D01*
X5524400Y-18483800D02*
X5524400Y-16623800D01*
X6464400Y-18483800D02*
X5524400Y-18483800D01*
X6464400Y-16623800D02*
X6464400Y-18483800D01*
X5524400Y-16623800D02*
X6464400Y-16623800D01*
X19772000Y-26162000D02*
G75*
G03X19772000Y-26162000I-4250000J0D01*
G01*
X11390000Y-33020000D02*
G75*
G03X11390000Y-33020000I-4250000J0D01*
G01*
X17105000Y-17907000D02*
G75*
G03X17105000Y-17907000I-4250000J0D01*
G01*
X11390000Y-24511000D02*
G75*
G03X11390000Y-24511000I-4250000J0D01*
G01*
X9850000Y-51971000D02*
X9850000Y-55471000D01*
X2850000Y-51971000D02*
X9850000Y-51971000D01*
X2850000Y-55471000D02*
X2850000Y-51971000D01*
X9850000Y-55471000D02*
X2850000Y-55471000D01*
X8714000Y-11275000D02*
X8714000Y-7775000D01*
X12114000Y-11275000D02*
X8714000Y-11275000D01*
X12114000Y-7775000D02*
X12114000Y-11275000D01*
X8714000Y-7775000D02*
X12114000Y-7775000D01*
X-3391000Y-25441000D02*
X-3391000Y-23581000D01*
X-2451000Y-25441000D02*
X-3391000Y-25441000D01*
X-2451000Y-23581000D02*
X-2451000Y-25441000D01*
X-3391000Y-23581000D02*
X-2451000Y-23581000D01*
X4635000Y-15430400D02*
X6495000Y-15430400D01*
X4635000Y-16370400D02*
X4635000Y-15430400D01*
X6495000Y-16370400D02*
X4635000Y-16370400D01*
X6495000Y-15430400D02*
X6495000Y-16370400D01*
X10858000Y-52235000D02*
X12718000Y-52235000D01*
X10858000Y-53175000D02*
X10858000Y-52235000D01*
X12718000Y-53175000D02*
X10858000Y-53175000D01*
X12718000Y-52235000D02*
X12718000Y-53175000D01*
X1758000Y-24130000D02*
G75*
G03X1758000Y-24130000I-1250000J0D01*
G01*
X234000Y-3810000D02*
G75*
G03X234000Y-3810000I-1250000J0D01*
G01*
X8616000Y-45466000D02*
G75*
G03X8616000Y-45466000I-1250000J0D01*
G01*
X5118800Y-19700000D02*
X5118800Y-16500000D01*
X2318800Y-19700000D02*
X2318800Y-16500000D01*
X2318800Y-19700000D02*
X5118800Y-19700000D01*
X5118800Y-16500000D02*
X2318800Y-16500000D01*
X-576800Y-18262800D02*
X-576800Y-21462800D01*
X2223200Y-18262800D02*
X2223200Y-21462800D01*
X2223200Y-18262800D02*
X-576800Y-18262800D01*
X-576800Y-21462800D02*
X2223200Y-21462800D01*
M02*
