G04 #@! TF.GenerationSoftware,KiCad,Pcbnew,(5.1.5)-3*
G04 #@! TF.CreationDate,2020-06-30T19:55:35+10:00*
G04 #@! TF.ProjectId,cicada-2g,63696361-6461-42d3-9267-2e6b69636164,0.1*
G04 #@! TF.SameCoordinates,PX7cee6c0PY3dfd240*
G04 #@! TF.FileFunction,Paste,Top*
G04 #@! TF.FilePolarity,Positive*
%FSLAX46Y46*%
G04 Gerber Fmt 4.6, Leading zero omitted, Abs format (unit mm)*
G04 Created by KiCad (PCBNEW (5.1.5)-3) date 2020-06-30 19:55:35*
%MOMM*%
%LPD*%
G04 APERTURE LIST*
%ADD10C,0.100000*%
%ADD11R,0.300000X1.250000*%
%ADD12R,0.150000X1.300000*%
%ADD13R,1.750000X1.800000*%
%ADD14C,0.400000*%
%ADD15R,1.700000X1.800000*%
%ADD16R,1.050000X2.200000*%
%ADD17R,1.000000X1.000000*%
%ADD18R,2.200000X3.900000*%
%ADD19R,2.600000X1.100000*%
%ADD20R,1.350000X0.900000*%
%ADD21O,1.600000X0.600000*%
%ADD22O,0.600000X1.600000*%
%ADD23R,2.500000X1.800000*%
%ADD24R,0.650000X1.220000*%
%ADD25R,0.650000X1.060000*%
%ADD26R,0.600000X0.700000*%
%ADD27R,0.700000X0.600000*%
%ADD28R,0.900000X0.800000*%
%ADD29R,0.400000X0.650000*%
G04 APERTURE END LIST*
D10*
G36*
X5795958Y-8773910D02*
G01*
X5810276Y-8776034D01*
X5824317Y-8779551D01*
X5837946Y-8784428D01*
X5851031Y-8790617D01*
X5863447Y-8798058D01*
X5875073Y-8806681D01*
X5885798Y-8816402D01*
X5895519Y-8827127D01*
X5904142Y-8838753D01*
X5911583Y-8851169D01*
X5917772Y-8864254D01*
X5922649Y-8877883D01*
X5926166Y-8891924D01*
X5928290Y-8906242D01*
X5929000Y-8920700D01*
X5929000Y-9265700D01*
X5928290Y-9280158D01*
X5926166Y-9294476D01*
X5922649Y-9308517D01*
X5917772Y-9322146D01*
X5911583Y-9335231D01*
X5904142Y-9347647D01*
X5895519Y-9359273D01*
X5885798Y-9369998D01*
X5875073Y-9379719D01*
X5863447Y-9388342D01*
X5851031Y-9395783D01*
X5837946Y-9401972D01*
X5824317Y-9406849D01*
X5810276Y-9410366D01*
X5795958Y-9412490D01*
X5781500Y-9413200D01*
X5486500Y-9413200D01*
X5472042Y-9412490D01*
X5457724Y-9410366D01*
X5443683Y-9406849D01*
X5430054Y-9401972D01*
X5416969Y-9395783D01*
X5404553Y-9388342D01*
X5392927Y-9379719D01*
X5382202Y-9369998D01*
X5372481Y-9359273D01*
X5363858Y-9347647D01*
X5356417Y-9335231D01*
X5350228Y-9322146D01*
X5345351Y-9308517D01*
X5341834Y-9294476D01*
X5339710Y-9280158D01*
X5339000Y-9265700D01*
X5339000Y-8920700D01*
X5339710Y-8906242D01*
X5341834Y-8891924D01*
X5345351Y-8877883D01*
X5350228Y-8864254D01*
X5356417Y-8851169D01*
X5363858Y-8838753D01*
X5372481Y-8827127D01*
X5382202Y-8816402D01*
X5392927Y-8806681D01*
X5404553Y-8798058D01*
X5416969Y-8790617D01*
X5430054Y-8784428D01*
X5443683Y-8779551D01*
X5457724Y-8776034D01*
X5472042Y-8773910D01*
X5486500Y-8773200D01*
X5781500Y-8773200D01*
X5795958Y-8773910D01*
G37*
G36*
X6765958Y-8773910D02*
G01*
X6780276Y-8776034D01*
X6794317Y-8779551D01*
X6807946Y-8784428D01*
X6821031Y-8790617D01*
X6833447Y-8798058D01*
X6845073Y-8806681D01*
X6855798Y-8816402D01*
X6865519Y-8827127D01*
X6874142Y-8838753D01*
X6881583Y-8851169D01*
X6887772Y-8864254D01*
X6892649Y-8877883D01*
X6896166Y-8891924D01*
X6898290Y-8906242D01*
X6899000Y-8920700D01*
X6899000Y-9265700D01*
X6898290Y-9280158D01*
X6896166Y-9294476D01*
X6892649Y-9308517D01*
X6887772Y-9322146D01*
X6881583Y-9335231D01*
X6874142Y-9347647D01*
X6865519Y-9359273D01*
X6855798Y-9369998D01*
X6845073Y-9379719D01*
X6833447Y-9388342D01*
X6821031Y-9395783D01*
X6807946Y-9401972D01*
X6794317Y-9406849D01*
X6780276Y-9410366D01*
X6765958Y-9412490D01*
X6751500Y-9413200D01*
X6456500Y-9413200D01*
X6442042Y-9412490D01*
X6427724Y-9410366D01*
X6413683Y-9406849D01*
X6400054Y-9401972D01*
X6386969Y-9395783D01*
X6374553Y-9388342D01*
X6362927Y-9379719D01*
X6352202Y-9369998D01*
X6342481Y-9359273D01*
X6333858Y-9347647D01*
X6326417Y-9335231D01*
X6320228Y-9322146D01*
X6315351Y-9308517D01*
X6311834Y-9294476D01*
X6309710Y-9280158D01*
X6309000Y-9265700D01*
X6309000Y-8920700D01*
X6309710Y-8906242D01*
X6311834Y-8891924D01*
X6315351Y-8877883D01*
X6320228Y-8864254D01*
X6326417Y-8851169D01*
X6333858Y-8838753D01*
X6342481Y-8827127D01*
X6352202Y-8816402D01*
X6362927Y-8806681D01*
X6374553Y-8798058D01*
X6386969Y-8790617D01*
X6400054Y-8784428D01*
X6413683Y-8779551D01*
X6427724Y-8776034D01*
X6442042Y-8773910D01*
X6456500Y-8773200D01*
X6751500Y-8773200D01*
X6765958Y-8773910D01*
G37*
D11*
X-6000000Y-54125000D03*
X-6650000Y-54125000D03*
X-7300000Y-54125000D03*
X-7950000Y-54125000D03*
X-8600000Y-54125000D03*
D12*
X-2725000Y-56800000D03*
X-11875000Y-56800000D03*
D13*
X-3775000Y-56800000D03*
X-10825000Y-56800000D03*
D14*
X-2850000Y-57500000D03*
X-2850000Y-56100000D03*
X-11750000Y-57500000D03*
X-11750000Y-56100000D03*
D15*
X-6150000Y-56800000D03*
X-8450000Y-56800000D03*
D16*
X-1425000Y-48570000D03*
X-4375000Y-48570000D03*
D17*
X-2900000Y-50070000D03*
X-2900000Y-47070000D03*
D18*
X8006000Y-40767000D03*
X11806000Y-40767000D03*
D19*
X-3780200Y-5394000D03*
X-16460200Y-5394000D03*
X-16460200Y-21844000D03*
X-3780200Y-21844000D03*
D20*
X-1355200Y-13594000D03*
X-1355200Y-12324000D03*
X-1355200Y-11054000D03*
X-1355200Y-9784000D03*
X-1355200Y-8514000D03*
X-1355200Y-7244000D03*
D10*
G36*
X9584958Y-12509710D02*
G01*
X9599276Y-12511834D01*
X9613317Y-12515351D01*
X9626946Y-12520228D01*
X9640031Y-12526417D01*
X9652447Y-12533858D01*
X9664073Y-12542481D01*
X9674798Y-12552202D01*
X9684519Y-12562927D01*
X9693142Y-12574553D01*
X9700583Y-12586969D01*
X9706772Y-12600054D01*
X9711649Y-12613683D01*
X9715166Y-12627724D01*
X9717290Y-12642042D01*
X9718000Y-12656500D01*
X9718000Y-12951500D01*
X9717290Y-12965958D01*
X9715166Y-12980276D01*
X9711649Y-12994317D01*
X9706772Y-13007946D01*
X9700583Y-13021031D01*
X9693142Y-13033447D01*
X9684519Y-13045073D01*
X9674798Y-13055798D01*
X9664073Y-13065519D01*
X9652447Y-13074142D01*
X9640031Y-13081583D01*
X9626946Y-13087772D01*
X9613317Y-13092649D01*
X9599276Y-13096166D01*
X9584958Y-13098290D01*
X9570500Y-13099000D01*
X9225500Y-13099000D01*
X9211042Y-13098290D01*
X9196724Y-13096166D01*
X9182683Y-13092649D01*
X9169054Y-13087772D01*
X9155969Y-13081583D01*
X9143553Y-13074142D01*
X9131927Y-13065519D01*
X9121202Y-13055798D01*
X9111481Y-13045073D01*
X9102858Y-13033447D01*
X9095417Y-13021031D01*
X9089228Y-13007946D01*
X9084351Y-12994317D01*
X9080834Y-12980276D01*
X9078710Y-12965958D01*
X9078000Y-12951500D01*
X9078000Y-12656500D01*
X9078710Y-12642042D01*
X9080834Y-12627724D01*
X9084351Y-12613683D01*
X9089228Y-12600054D01*
X9095417Y-12586969D01*
X9102858Y-12574553D01*
X9111481Y-12562927D01*
X9121202Y-12552202D01*
X9131927Y-12542481D01*
X9143553Y-12533858D01*
X9155969Y-12526417D01*
X9169054Y-12520228D01*
X9182683Y-12515351D01*
X9196724Y-12511834D01*
X9211042Y-12509710D01*
X9225500Y-12509000D01*
X9570500Y-12509000D01*
X9584958Y-12509710D01*
G37*
G36*
X9584958Y-11539710D02*
G01*
X9599276Y-11541834D01*
X9613317Y-11545351D01*
X9626946Y-11550228D01*
X9640031Y-11556417D01*
X9652447Y-11563858D01*
X9664073Y-11572481D01*
X9674798Y-11582202D01*
X9684519Y-11592927D01*
X9693142Y-11604553D01*
X9700583Y-11616969D01*
X9706772Y-11630054D01*
X9711649Y-11643683D01*
X9715166Y-11657724D01*
X9717290Y-11672042D01*
X9718000Y-11686500D01*
X9718000Y-11981500D01*
X9717290Y-11995958D01*
X9715166Y-12010276D01*
X9711649Y-12024317D01*
X9706772Y-12037946D01*
X9700583Y-12051031D01*
X9693142Y-12063447D01*
X9684519Y-12075073D01*
X9674798Y-12085798D01*
X9664073Y-12095519D01*
X9652447Y-12104142D01*
X9640031Y-12111583D01*
X9626946Y-12117772D01*
X9613317Y-12122649D01*
X9599276Y-12126166D01*
X9584958Y-12128290D01*
X9570500Y-12129000D01*
X9225500Y-12129000D01*
X9211042Y-12128290D01*
X9196724Y-12126166D01*
X9182683Y-12122649D01*
X9169054Y-12117772D01*
X9155969Y-12111583D01*
X9143553Y-12104142D01*
X9131927Y-12095519D01*
X9121202Y-12085798D01*
X9111481Y-12075073D01*
X9102858Y-12063447D01*
X9095417Y-12051031D01*
X9089228Y-12037946D01*
X9084351Y-12024317D01*
X9080834Y-12010276D01*
X9078710Y-11995958D01*
X9078000Y-11981500D01*
X9078000Y-11686500D01*
X9078710Y-11672042D01*
X9080834Y-11657724D01*
X9084351Y-11643683D01*
X9089228Y-11630054D01*
X9095417Y-11616969D01*
X9102858Y-11604553D01*
X9111481Y-11592927D01*
X9121202Y-11582202D01*
X9131927Y-11572481D01*
X9143553Y-11563858D01*
X9155969Y-11556417D01*
X9169054Y-11550228D01*
X9182683Y-11545351D01*
X9196724Y-11541834D01*
X9211042Y-11539710D01*
X9225500Y-11539000D01*
X9570500Y-11539000D01*
X9584958Y-11539710D01*
G37*
G36*
X3996958Y-28049710D02*
G01*
X4011276Y-28051834D01*
X4025317Y-28055351D01*
X4038946Y-28060228D01*
X4052031Y-28066417D01*
X4064447Y-28073858D01*
X4076073Y-28082481D01*
X4086798Y-28092202D01*
X4096519Y-28102927D01*
X4105142Y-28114553D01*
X4112583Y-28126969D01*
X4118772Y-28140054D01*
X4123649Y-28153683D01*
X4127166Y-28167724D01*
X4129290Y-28182042D01*
X4130000Y-28196500D01*
X4130000Y-28491500D01*
X4129290Y-28505958D01*
X4127166Y-28520276D01*
X4123649Y-28534317D01*
X4118772Y-28547946D01*
X4112583Y-28561031D01*
X4105142Y-28573447D01*
X4096519Y-28585073D01*
X4086798Y-28595798D01*
X4076073Y-28605519D01*
X4064447Y-28614142D01*
X4052031Y-28621583D01*
X4038946Y-28627772D01*
X4025317Y-28632649D01*
X4011276Y-28636166D01*
X3996958Y-28638290D01*
X3982500Y-28639000D01*
X3637500Y-28639000D01*
X3623042Y-28638290D01*
X3608724Y-28636166D01*
X3594683Y-28632649D01*
X3581054Y-28627772D01*
X3567969Y-28621583D01*
X3555553Y-28614142D01*
X3543927Y-28605519D01*
X3533202Y-28595798D01*
X3523481Y-28585073D01*
X3514858Y-28573447D01*
X3507417Y-28561031D01*
X3501228Y-28547946D01*
X3496351Y-28534317D01*
X3492834Y-28520276D01*
X3490710Y-28505958D01*
X3490000Y-28491500D01*
X3490000Y-28196500D01*
X3490710Y-28182042D01*
X3492834Y-28167724D01*
X3496351Y-28153683D01*
X3501228Y-28140054D01*
X3507417Y-28126969D01*
X3514858Y-28114553D01*
X3523481Y-28102927D01*
X3533202Y-28092202D01*
X3543927Y-28082481D01*
X3555553Y-28073858D01*
X3567969Y-28066417D01*
X3581054Y-28060228D01*
X3594683Y-28055351D01*
X3608724Y-28051834D01*
X3623042Y-28049710D01*
X3637500Y-28049000D01*
X3982500Y-28049000D01*
X3996958Y-28049710D01*
G37*
G36*
X3996958Y-29019710D02*
G01*
X4011276Y-29021834D01*
X4025317Y-29025351D01*
X4038946Y-29030228D01*
X4052031Y-29036417D01*
X4064447Y-29043858D01*
X4076073Y-29052481D01*
X4086798Y-29062202D01*
X4096519Y-29072927D01*
X4105142Y-29084553D01*
X4112583Y-29096969D01*
X4118772Y-29110054D01*
X4123649Y-29123683D01*
X4127166Y-29137724D01*
X4129290Y-29152042D01*
X4130000Y-29166500D01*
X4130000Y-29461500D01*
X4129290Y-29475958D01*
X4127166Y-29490276D01*
X4123649Y-29504317D01*
X4118772Y-29517946D01*
X4112583Y-29531031D01*
X4105142Y-29543447D01*
X4096519Y-29555073D01*
X4086798Y-29565798D01*
X4076073Y-29575519D01*
X4064447Y-29584142D01*
X4052031Y-29591583D01*
X4038946Y-29597772D01*
X4025317Y-29602649D01*
X4011276Y-29606166D01*
X3996958Y-29608290D01*
X3982500Y-29609000D01*
X3637500Y-29609000D01*
X3623042Y-29608290D01*
X3608724Y-29606166D01*
X3594683Y-29602649D01*
X3581054Y-29597772D01*
X3567969Y-29591583D01*
X3555553Y-29584142D01*
X3543927Y-29575519D01*
X3533202Y-29565798D01*
X3523481Y-29555073D01*
X3514858Y-29543447D01*
X3507417Y-29531031D01*
X3501228Y-29517946D01*
X3496351Y-29504317D01*
X3492834Y-29490276D01*
X3490710Y-29475958D01*
X3490000Y-29461500D01*
X3490000Y-29166500D01*
X3490710Y-29152042D01*
X3492834Y-29137724D01*
X3496351Y-29123683D01*
X3501228Y-29110054D01*
X3507417Y-29096969D01*
X3514858Y-29084553D01*
X3523481Y-29072927D01*
X3533202Y-29062202D01*
X3543927Y-29052481D01*
X3555553Y-29043858D01*
X3567969Y-29036417D01*
X3581054Y-29030228D01*
X3594683Y-29025351D01*
X3608724Y-29021834D01*
X3623042Y-29019710D01*
X3637500Y-29019000D01*
X3982500Y-29019000D01*
X3996958Y-29019710D01*
G37*
G36*
X3936958Y-36420710D02*
G01*
X3951276Y-36422834D01*
X3965317Y-36426351D01*
X3978946Y-36431228D01*
X3992031Y-36437417D01*
X4004447Y-36444858D01*
X4016073Y-36453481D01*
X4026798Y-36463202D01*
X4036519Y-36473927D01*
X4045142Y-36485553D01*
X4052583Y-36497969D01*
X4058772Y-36511054D01*
X4063649Y-36524683D01*
X4067166Y-36538724D01*
X4069290Y-36553042D01*
X4070000Y-36567500D01*
X4070000Y-36862500D01*
X4069290Y-36876958D01*
X4067166Y-36891276D01*
X4063649Y-36905317D01*
X4058772Y-36918946D01*
X4052583Y-36932031D01*
X4045142Y-36944447D01*
X4036519Y-36956073D01*
X4026798Y-36966798D01*
X4016073Y-36976519D01*
X4004447Y-36985142D01*
X3992031Y-36992583D01*
X3978946Y-36998772D01*
X3965317Y-37003649D01*
X3951276Y-37007166D01*
X3936958Y-37009290D01*
X3922500Y-37010000D01*
X3577500Y-37010000D01*
X3563042Y-37009290D01*
X3548724Y-37007166D01*
X3534683Y-37003649D01*
X3521054Y-36998772D01*
X3507969Y-36992583D01*
X3495553Y-36985142D01*
X3483927Y-36976519D01*
X3473202Y-36966798D01*
X3463481Y-36956073D01*
X3454858Y-36944447D01*
X3447417Y-36932031D01*
X3441228Y-36918946D01*
X3436351Y-36905317D01*
X3432834Y-36891276D01*
X3430710Y-36876958D01*
X3430000Y-36862500D01*
X3430000Y-36567500D01*
X3430710Y-36553042D01*
X3432834Y-36538724D01*
X3436351Y-36524683D01*
X3441228Y-36511054D01*
X3447417Y-36497969D01*
X3454858Y-36485553D01*
X3463481Y-36473927D01*
X3473202Y-36463202D01*
X3483927Y-36453481D01*
X3495553Y-36444858D01*
X3507969Y-36437417D01*
X3521054Y-36431228D01*
X3534683Y-36426351D01*
X3548724Y-36422834D01*
X3563042Y-36420710D01*
X3577500Y-36420000D01*
X3922500Y-36420000D01*
X3936958Y-36420710D01*
G37*
G36*
X3936958Y-37390710D02*
G01*
X3951276Y-37392834D01*
X3965317Y-37396351D01*
X3978946Y-37401228D01*
X3992031Y-37407417D01*
X4004447Y-37414858D01*
X4016073Y-37423481D01*
X4026798Y-37433202D01*
X4036519Y-37443927D01*
X4045142Y-37455553D01*
X4052583Y-37467969D01*
X4058772Y-37481054D01*
X4063649Y-37494683D01*
X4067166Y-37508724D01*
X4069290Y-37523042D01*
X4070000Y-37537500D01*
X4070000Y-37832500D01*
X4069290Y-37846958D01*
X4067166Y-37861276D01*
X4063649Y-37875317D01*
X4058772Y-37888946D01*
X4052583Y-37902031D01*
X4045142Y-37914447D01*
X4036519Y-37926073D01*
X4026798Y-37936798D01*
X4016073Y-37946519D01*
X4004447Y-37955142D01*
X3992031Y-37962583D01*
X3978946Y-37968772D01*
X3965317Y-37973649D01*
X3951276Y-37977166D01*
X3936958Y-37979290D01*
X3922500Y-37980000D01*
X3577500Y-37980000D01*
X3563042Y-37979290D01*
X3548724Y-37977166D01*
X3534683Y-37973649D01*
X3521054Y-37968772D01*
X3507969Y-37962583D01*
X3495553Y-37955142D01*
X3483927Y-37946519D01*
X3473202Y-37936798D01*
X3463481Y-37926073D01*
X3454858Y-37914447D01*
X3447417Y-37902031D01*
X3441228Y-37888946D01*
X3436351Y-37875317D01*
X3432834Y-37861276D01*
X3430710Y-37846958D01*
X3430000Y-37832500D01*
X3430000Y-37537500D01*
X3430710Y-37523042D01*
X3432834Y-37508724D01*
X3436351Y-37494683D01*
X3441228Y-37481054D01*
X3447417Y-37467969D01*
X3454858Y-37455553D01*
X3463481Y-37443927D01*
X3473202Y-37433202D01*
X3483927Y-37423481D01*
X3495553Y-37414858D01*
X3507969Y-37407417D01*
X3521054Y-37401228D01*
X3534683Y-37396351D01*
X3548724Y-37392834D01*
X3563042Y-37390710D01*
X3577500Y-37390000D01*
X3922500Y-37390000D01*
X3936958Y-37390710D01*
G37*
G36*
X2986958Y-36420710D02*
G01*
X3001276Y-36422834D01*
X3015317Y-36426351D01*
X3028946Y-36431228D01*
X3042031Y-36437417D01*
X3054447Y-36444858D01*
X3066073Y-36453481D01*
X3076798Y-36463202D01*
X3086519Y-36473927D01*
X3095142Y-36485553D01*
X3102583Y-36497969D01*
X3108772Y-36511054D01*
X3113649Y-36524683D01*
X3117166Y-36538724D01*
X3119290Y-36553042D01*
X3120000Y-36567500D01*
X3120000Y-36862500D01*
X3119290Y-36876958D01*
X3117166Y-36891276D01*
X3113649Y-36905317D01*
X3108772Y-36918946D01*
X3102583Y-36932031D01*
X3095142Y-36944447D01*
X3086519Y-36956073D01*
X3076798Y-36966798D01*
X3066073Y-36976519D01*
X3054447Y-36985142D01*
X3042031Y-36992583D01*
X3028946Y-36998772D01*
X3015317Y-37003649D01*
X3001276Y-37007166D01*
X2986958Y-37009290D01*
X2972500Y-37010000D01*
X2627500Y-37010000D01*
X2613042Y-37009290D01*
X2598724Y-37007166D01*
X2584683Y-37003649D01*
X2571054Y-36998772D01*
X2557969Y-36992583D01*
X2545553Y-36985142D01*
X2533927Y-36976519D01*
X2523202Y-36966798D01*
X2513481Y-36956073D01*
X2504858Y-36944447D01*
X2497417Y-36932031D01*
X2491228Y-36918946D01*
X2486351Y-36905317D01*
X2482834Y-36891276D01*
X2480710Y-36876958D01*
X2480000Y-36862500D01*
X2480000Y-36567500D01*
X2480710Y-36553042D01*
X2482834Y-36538724D01*
X2486351Y-36524683D01*
X2491228Y-36511054D01*
X2497417Y-36497969D01*
X2504858Y-36485553D01*
X2513481Y-36473927D01*
X2523202Y-36463202D01*
X2533927Y-36453481D01*
X2545553Y-36444858D01*
X2557969Y-36437417D01*
X2571054Y-36431228D01*
X2584683Y-36426351D01*
X2598724Y-36422834D01*
X2613042Y-36420710D01*
X2627500Y-36420000D01*
X2972500Y-36420000D01*
X2986958Y-36420710D01*
G37*
G36*
X2986958Y-37390710D02*
G01*
X3001276Y-37392834D01*
X3015317Y-37396351D01*
X3028946Y-37401228D01*
X3042031Y-37407417D01*
X3054447Y-37414858D01*
X3066073Y-37423481D01*
X3076798Y-37433202D01*
X3086519Y-37443927D01*
X3095142Y-37455553D01*
X3102583Y-37467969D01*
X3108772Y-37481054D01*
X3113649Y-37494683D01*
X3117166Y-37508724D01*
X3119290Y-37523042D01*
X3120000Y-37537500D01*
X3120000Y-37832500D01*
X3119290Y-37846958D01*
X3117166Y-37861276D01*
X3113649Y-37875317D01*
X3108772Y-37888946D01*
X3102583Y-37902031D01*
X3095142Y-37914447D01*
X3086519Y-37926073D01*
X3076798Y-37936798D01*
X3066073Y-37946519D01*
X3054447Y-37955142D01*
X3042031Y-37962583D01*
X3028946Y-37968772D01*
X3015317Y-37973649D01*
X3001276Y-37977166D01*
X2986958Y-37979290D01*
X2972500Y-37980000D01*
X2627500Y-37980000D01*
X2613042Y-37979290D01*
X2598724Y-37977166D01*
X2584683Y-37973649D01*
X2571054Y-37968772D01*
X2557969Y-37962583D01*
X2545553Y-37955142D01*
X2533927Y-37946519D01*
X2523202Y-37936798D01*
X2513481Y-37926073D01*
X2504858Y-37914447D01*
X2497417Y-37902031D01*
X2491228Y-37888946D01*
X2486351Y-37875317D01*
X2482834Y-37861276D01*
X2480710Y-37846958D01*
X2480000Y-37832500D01*
X2480000Y-37537500D01*
X2480710Y-37523042D01*
X2482834Y-37508724D01*
X2486351Y-37494683D01*
X2491228Y-37481054D01*
X2497417Y-37467969D01*
X2504858Y-37455553D01*
X2513481Y-37443927D01*
X2523202Y-37433202D01*
X2533927Y-37423481D01*
X2545553Y-37414858D01*
X2557969Y-37407417D01*
X2571054Y-37401228D01*
X2584683Y-37396351D01*
X2598724Y-37392834D01*
X2613042Y-37390710D01*
X2627500Y-37390000D01*
X2972500Y-37390000D01*
X2986958Y-37390710D01*
G37*
G36*
X-848042Y-45280710D02*
G01*
X-833724Y-45282834D01*
X-819683Y-45286351D01*
X-806054Y-45291228D01*
X-792969Y-45297417D01*
X-780553Y-45304858D01*
X-768927Y-45313481D01*
X-758202Y-45323202D01*
X-748481Y-45333927D01*
X-739858Y-45345553D01*
X-732417Y-45357969D01*
X-726228Y-45371054D01*
X-721351Y-45384683D01*
X-717834Y-45398724D01*
X-715710Y-45413042D01*
X-715000Y-45427500D01*
X-715000Y-45772500D01*
X-715710Y-45786958D01*
X-717834Y-45801276D01*
X-721351Y-45815317D01*
X-726228Y-45828946D01*
X-732417Y-45842031D01*
X-739858Y-45854447D01*
X-748481Y-45866073D01*
X-758202Y-45876798D01*
X-768927Y-45886519D01*
X-780553Y-45895142D01*
X-792969Y-45902583D01*
X-806054Y-45908772D01*
X-819683Y-45913649D01*
X-833724Y-45917166D01*
X-848042Y-45919290D01*
X-862500Y-45920000D01*
X-1157500Y-45920000D01*
X-1171958Y-45919290D01*
X-1186276Y-45917166D01*
X-1200317Y-45913649D01*
X-1213946Y-45908772D01*
X-1227031Y-45902583D01*
X-1239447Y-45895142D01*
X-1251073Y-45886519D01*
X-1261798Y-45876798D01*
X-1271519Y-45866073D01*
X-1280142Y-45854447D01*
X-1287583Y-45842031D01*
X-1293772Y-45828946D01*
X-1298649Y-45815317D01*
X-1302166Y-45801276D01*
X-1304290Y-45786958D01*
X-1305000Y-45772500D01*
X-1305000Y-45427500D01*
X-1304290Y-45413042D01*
X-1302166Y-45398724D01*
X-1298649Y-45384683D01*
X-1293772Y-45371054D01*
X-1287583Y-45357969D01*
X-1280142Y-45345553D01*
X-1271519Y-45333927D01*
X-1261798Y-45323202D01*
X-1251073Y-45313481D01*
X-1239447Y-45304858D01*
X-1227031Y-45297417D01*
X-1213946Y-45291228D01*
X-1200317Y-45286351D01*
X-1186276Y-45282834D01*
X-1171958Y-45280710D01*
X-1157500Y-45280000D01*
X-862500Y-45280000D01*
X-848042Y-45280710D01*
G37*
G36*
X-1818042Y-45280710D02*
G01*
X-1803724Y-45282834D01*
X-1789683Y-45286351D01*
X-1776054Y-45291228D01*
X-1762969Y-45297417D01*
X-1750553Y-45304858D01*
X-1738927Y-45313481D01*
X-1728202Y-45323202D01*
X-1718481Y-45333927D01*
X-1709858Y-45345553D01*
X-1702417Y-45357969D01*
X-1696228Y-45371054D01*
X-1691351Y-45384683D01*
X-1687834Y-45398724D01*
X-1685710Y-45413042D01*
X-1685000Y-45427500D01*
X-1685000Y-45772500D01*
X-1685710Y-45786958D01*
X-1687834Y-45801276D01*
X-1691351Y-45815317D01*
X-1696228Y-45828946D01*
X-1702417Y-45842031D01*
X-1709858Y-45854447D01*
X-1718481Y-45866073D01*
X-1728202Y-45876798D01*
X-1738927Y-45886519D01*
X-1750553Y-45895142D01*
X-1762969Y-45902583D01*
X-1776054Y-45908772D01*
X-1789683Y-45913649D01*
X-1803724Y-45917166D01*
X-1818042Y-45919290D01*
X-1832500Y-45920000D01*
X-2127500Y-45920000D01*
X-2141958Y-45919290D01*
X-2156276Y-45917166D01*
X-2170317Y-45913649D01*
X-2183946Y-45908772D01*
X-2197031Y-45902583D01*
X-2209447Y-45895142D01*
X-2221073Y-45886519D01*
X-2231798Y-45876798D01*
X-2241519Y-45866073D01*
X-2250142Y-45854447D01*
X-2257583Y-45842031D01*
X-2263772Y-45828946D01*
X-2268649Y-45815317D01*
X-2272166Y-45801276D01*
X-2274290Y-45786958D01*
X-2275000Y-45772500D01*
X-2275000Y-45427500D01*
X-2274290Y-45413042D01*
X-2272166Y-45398724D01*
X-2268649Y-45384683D01*
X-2263772Y-45371054D01*
X-2257583Y-45357969D01*
X-2250142Y-45345553D01*
X-2241519Y-45333927D01*
X-2231798Y-45323202D01*
X-2221073Y-45313481D01*
X-2209447Y-45304858D01*
X-2197031Y-45297417D01*
X-2183946Y-45291228D01*
X-2170317Y-45286351D01*
X-2156276Y-45282834D01*
X-2141958Y-45280710D01*
X-2127500Y-45280000D01*
X-1832500Y-45280000D01*
X-1818042Y-45280710D01*
G37*
G36*
X-848042Y-44280710D02*
G01*
X-833724Y-44282834D01*
X-819683Y-44286351D01*
X-806054Y-44291228D01*
X-792969Y-44297417D01*
X-780553Y-44304858D01*
X-768927Y-44313481D01*
X-758202Y-44323202D01*
X-748481Y-44333927D01*
X-739858Y-44345553D01*
X-732417Y-44357969D01*
X-726228Y-44371054D01*
X-721351Y-44384683D01*
X-717834Y-44398724D01*
X-715710Y-44413042D01*
X-715000Y-44427500D01*
X-715000Y-44772500D01*
X-715710Y-44786958D01*
X-717834Y-44801276D01*
X-721351Y-44815317D01*
X-726228Y-44828946D01*
X-732417Y-44842031D01*
X-739858Y-44854447D01*
X-748481Y-44866073D01*
X-758202Y-44876798D01*
X-768927Y-44886519D01*
X-780553Y-44895142D01*
X-792969Y-44902583D01*
X-806054Y-44908772D01*
X-819683Y-44913649D01*
X-833724Y-44917166D01*
X-848042Y-44919290D01*
X-862500Y-44920000D01*
X-1157500Y-44920000D01*
X-1171958Y-44919290D01*
X-1186276Y-44917166D01*
X-1200317Y-44913649D01*
X-1213946Y-44908772D01*
X-1227031Y-44902583D01*
X-1239447Y-44895142D01*
X-1251073Y-44886519D01*
X-1261798Y-44876798D01*
X-1271519Y-44866073D01*
X-1280142Y-44854447D01*
X-1287583Y-44842031D01*
X-1293772Y-44828946D01*
X-1298649Y-44815317D01*
X-1302166Y-44801276D01*
X-1304290Y-44786958D01*
X-1305000Y-44772500D01*
X-1305000Y-44427500D01*
X-1304290Y-44413042D01*
X-1302166Y-44398724D01*
X-1298649Y-44384683D01*
X-1293772Y-44371054D01*
X-1287583Y-44357969D01*
X-1280142Y-44345553D01*
X-1271519Y-44333927D01*
X-1261798Y-44323202D01*
X-1251073Y-44313481D01*
X-1239447Y-44304858D01*
X-1227031Y-44297417D01*
X-1213946Y-44291228D01*
X-1200317Y-44286351D01*
X-1186276Y-44282834D01*
X-1171958Y-44280710D01*
X-1157500Y-44280000D01*
X-862500Y-44280000D01*
X-848042Y-44280710D01*
G37*
G36*
X-1818042Y-44280710D02*
G01*
X-1803724Y-44282834D01*
X-1789683Y-44286351D01*
X-1776054Y-44291228D01*
X-1762969Y-44297417D01*
X-1750553Y-44304858D01*
X-1738927Y-44313481D01*
X-1728202Y-44323202D01*
X-1718481Y-44333927D01*
X-1709858Y-44345553D01*
X-1702417Y-44357969D01*
X-1696228Y-44371054D01*
X-1691351Y-44384683D01*
X-1687834Y-44398724D01*
X-1685710Y-44413042D01*
X-1685000Y-44427500D01*
X-1685000Y-44772500D01*
X-1685710Y-44786958D01*
X-1687834Y-44801276D01*
X-1691351Y-44815317D01*
X-1696228Y-44828946D01*
X-1702417Y-44842031D01*
X-1709858Y-44854447D01*
X-1718481Y-44866073D01*
X-1728202Y-44876798D01*
X-1738927Y-44886519D01*
X-1750553Y-44895142D01*
X-1762969Y-44902583D01*
X-1776054Y-44908772D01*
X-1789683Y-44913649D01*
X-1803724Y-44917166D01*
X-1818042Y-44919290D01*
X-1832500Y-44920000D01*
X-2127500Y-44920000D01*
X-2141958Y-44919290D01*
X-2156276Y-44917166D01*
X-2170317Y-44913649D01*
X-2183946Y-44908772D01*
X-2197031Y-44902583D01*
X-2209447Y-44895142D01*
X-2221073Y-44886519D01*
X-2231798Y-44876798D01*
X-2241519Y-44866073D01*
X-2250142Y-44854447D01*
X-2257583Y-44842031D01*
X-2263772Y-44828946D01*
X-2268649Y-44815317D01*
X-2272166Y-44801276D01*
X-2274290Y-44786958D01*
X-2275000Y-44772500D01*
X-2275000Y-44427500D01*
X-2274290Y-44413042D01*
X-2272166Y-44398724D01*
X-2268649Y-44384683D01*
X-2263772Y-44371054D01*
X-2257583Y-44357969D01*
X-2250142Y-44345553D01*
X-2241519Y-44333927D01*
X-2231798Y-44323202D01*
X-2221073Y-44313481D01*
X-2209447Y-44304858D01*
X-2197031Y-44297417D01*
X-2183946Y-44291228D01*
X-2170317Y-44286351D01*
X-2156276Y-44282834D01*
X-2141958Y-44280710D01*
X-2127500Y-44280000D01*
X-1832500Y-44280000D01*
X-1818042Y-44280710D01*
G37*
G36*
X-2713042Y-44340710D02*
G01*
X-2698724Y-44342834D01*
X-2684683Y-44346351D01*
X-2671054Y-44351228D01*
X-2657969Y-44357417D01*
X-2645553Y-44364858D01*
X-2633927Y-44373481D01*
X-2623202Y-44383202D01*
X-2613481Y-44393927D01*
X-2604858Y-44405553D01*
X-2597417Y-44417969D01*
X-2591228Y-44431054D01*
X-2586351Y-44444683D01*
X-2582834Y-44458724D01*
X-2580710Y-44473042D01*
X-2580000Y-44487500D01*
X-2580000Y-44782500D01*
X-2580710Y-44796958D01*
X-2582834Y-44811276D01*
X-2586351Y-44825317D01*
X-2591228Y-44838946D01*
X-2597417Y-44852031D01*
X-2604858Y-44864447D01*
X-2613481Y-44876073D01*
X-2623202Y-44886798D01*
X-2633927Y-44896519D01*
X-2645553Y-44905142D01*
X-2657969Y-44912583D01*
X-2671054Y-44918772D01*
X-2684683Y-44923649D01*
X-2698724Y-44927166D01*
X-2713042Y-44929290D01*
X-2727500Y-44930000D01*
X-3072500Y-44930000D01*
X-3086958Y-44929290D01*
X-3101276Y-44927166D01*
X-3115317Y-44923649D01*
X-3128946Y-44918772D01*
X-3142031Y-44912583D01*
X-3154447Y-44905142D01*
X-3166073Y-44896519D01*
X-3176798Y-44886798D01*
X-3186519Y-44876073D01*
X-3195142Y-44864447D01*
X-3202583Y-44852031D01*
X-3208772Y-44838946D01*
X-3213649Y-44825317D01*
X-3217166Y-44811276D01*
X-3219290Y-44796958D01*
X-3220000Y-44782500D01*
X-3220000Y-44487500D01*
X-3219290Y-44473042D01*
X-3217166Y-44458724D01*
X-3213649Y-44444683D01*
X-3208772Y-44431054D01*
X-3202583Y-44417969D01*
X-3195142Y-44405553D01*
X-3186519Y-44393927D01*
X-3176798Y-44383202D01*
X-3166073Y-44373481D01*
X-3154447Y-44364858D01*
X-3142031Y-44357417D01*
X-3128946Y-44351228D01*
X-3115317Y-44346351D01*
X-3101276Y-44342834D01*
X-3086958Y-44340710D01*
X-3072500Y-44340000D01*
X-2727500Y-44340000D01*
X-2713042Y-44340710D01*
G37*
G36*
X-2713042Y-45310710D02*
G01*
X-2698724Y-45312834D01*
X-2684683Y-45316351D01*
X-2671054Y-45321228D01*
X-2657969Y-45327417D01*
X-2645553Y-45334858D01*
X-2633927Y-45343481D01*
X-2623202Y-45353202D01*
X-2613481Y-45363927D01*
X-2604858Y-45375553D01*
X-2597417Y-45387969D01*
X-2591228Y-45401054D01*
X-2586351Y-45414683D01*
X-2582834Y-45428724D01*
X-2580710Y-45443042D01*
X-2580000Y-45457500D01*
X-2580000Y-45752500D01*
X-2580710Y-45766958D01*
X-2582834Y-45781276D01*
X-2586351Y-45795317D01*
X-2591228Y-45808946D01*
X-2597417Y-45822031D01*
X-2604858Y-45834447D01*
X-2613481Y-45846073D01*
X-2623202Y-45856798D01*
X-2633927Y-45866519D01*
X-2645553Y-45875142D01*
X-2657969Y-45882583D01*
X-2671054Y-45888772D01*
X-2684683Y-45893649D01*
X-2698724Y-45897166D01*
X-2713042Y-45899290D01*
X-2727500Y-45900000D01*
X-3072500Y-45900000D01*
X-3086958Y-45899290D01*
X-3101276Y-45897166D01*
X-3115317Y-45893649D01*
X-3128946Y-45888772D01*
X-3142031Y-45882583D01*
X-3154447Y-45875142D01*
X-3166073Y-45866519D01*
X-3176798Y-45856798D01*
X-3186519Y-45846073D01*
X-3195142Y-45834447D01*
X-3202583Y-45822031D01*
X-3208772Y-45808946D01*
X-3213649Y-45795317D01*
X-3217166Y-45781276D01*
X-3219290Y-45766958D01*
X-3220000Y-45752500D01*
X-3220000Y-45457500D01*
X-3219290Y-45443042D01*
X-3217166Y-45428724D01*
X-3213649Y-45414683D01*
X-3208772Y-45401054D01*
X-3202583Y-45387969D01*
X-3195142Y-45375553D01*
X-3186519Y-45363927D01*
X-3176798Y-45353202D01*
X-3166073Y-45343481D01*
X-3154447Y-45334858D01*
X-3142031Y-45327417D01*
X-3128946Y-45321228D01*
X-3115317Y-45316351D01*
X-3101276Y-45312834D01*
X-3086958Y-45310710D01*
X-3072500Y-45310000D01*
X-2727500Y-45310000D01*
X-2713042Y-45310710D01*
G37*
D21*
X975000Y-30025000D03*
X975000Y-31125000D03*
X975000Y-32225000D03*
X975000Y-33325000D03*
X975000Y-34425000D03*
X975000Y-35525000D03*
X975000Y-36625000D03*
X975000Y-37725000D03*
X975000Y-38825000D03*
D22*
X-1775000Y-42275000D03*
X-2875000Y-42275000D03*
X-3975000Y-42275000D03*
X-5075000Y-42275000D03*
X-6175000Y-42275000D03*
X-7275000Y-42275000D03*
X-8375000Y-42275000D03*
X-9475000Y-42275000D03*
X-10575000Y-42275000D03*
X-11675000Y-42275000D03*
X-12775000Y-42275000D03*
X-13875000Y-42275000D03*
D21*
X-16625000Y-38825000D03*
X-16625000Y-37725000D03*
X-16625000Y-36625000D03*
X-16625000Y-35525000D03*
X-16625000Y-34425000D03*
X-16625000Y-33325000D03*
X-16625000Y-32225000D03*
X-16625000Y-31125000D03*
X-16625000Y-30025000D03*
D22*
X-13875000Y-26575000D03*
X-12775000Y-26575000D03*
X-11675000Y-26575000D03*
X-10575000Y-26575000D03*
X-9475000Y-26575000D03*
X-8375000Y-26575000D03*
X-7275000Y-26575000D03*
X-6175000Y-26575000D03*
X-5075000Y-26575000D03*
X-3975000Y-26575000D03*
X-2875000Y-26575000D03*
X-1775000Y-26575000D03*
D23*
X4350000Y-48800000D03*
X8350000Y-48800000D03*
D10*
G36*
X17336958Y-44165710D02*
G01*
X17351276Y-44167834D01*
X17365317Y-44171351D01*
X17378946Y-44176228D01*
X17392031Y-44182417D01*
X17404447Y-44189858D01*
X17416073Y-44198481D01*
X17426798Y-44208202D01*
X17436519Y-44218927D01*
X17445142Y-44230553D01*
X17452583Y-44242969D01*
X17458772Y-44256054D01*
X17463649Y-44269683D01*
X17467166Y-44283724D01*
X17469290Y-44298042D01*
X17470000Y-44312500D01*
X17470000Y-44607500D01*
X17469290Y-44621958D01*
X17467166Y-44636276D01*
X17463649Y-44650317D01*
X17458772Y-44663946D01*
X17452583Y-44677031D01*
X17445142Y-44689447D01*
X17436519Y-44701073D01*
X17426798Y-44711798D01*
X17416073Y-44721519D01*
X17404447Y-44730142D01*
X17392031Y-44737583D01*
X17378946Y-44743772D01*
X17365317Y-44748649D01*
X17351276Y-44752166D01*
X17336958Y-44754290D01*
X17322500Y-44755000D01*
X16977500Y-44755000D01*
X16963042Y-44754290D01*
X16948724Y-44752166D01*
X16934683Y-44748649D01*
X16921054Y-44743772D01*
X16907969Y-44737583D01*
X16895553Y-44730142D01*
X16883927Y-44721519D01*
X16873202Y-44711798D01*
X16863481Y-44701073D01*
X16854858Y-44689447D01*
X16847417Y-44677031D01*
X16841228Y-44663946D01*
X16836351Y-44650317D01*
X16832834Y-44636276D01*
X16830710Y-44621958D01*
X16830000Y-44607500D01*
X16830000Y-44312500D01*
X16830710Y-44298042D01*
X16832834Y-44283724D01*
X16836351Y-44269683D01*
X16841228Y-44256054D01*
X16847417Y-44242969D01*
X16854858Y-44230553D01*
X16863481Y-44218927D01*
X16873202Y-44208202D01*
X16883927Y-44198481D01*
X16895553Y-44189858D01*
X16907969Y-44182417D01*
X16921054Y-44176228D01*
X16934683Y-44171351D01*
X16948724Y-44167834D01*
X16963042Y-44165710D01*
X16977500Y-44165000D01*
X17322500Y-44165000D01*
X17336958Y-44165710D01*
G37*
G36*
X17336958Y-43195710D02*
G01*
X17351276Y-43197834D01*
X17365317Y-43201351D01*
X17378946Y-43206228D01*
X17392031Y-43212417D01*
X17404447Y-43219858D01*
X17416073Y-43228481D01*
X17426798Y-43238202D01*
X17436519Y-43248927D01*
X17445142Y-43260553D01*
X17452583Y-43272969D01*
X17458772Y-43286054D01*
X17463649Y-43299683D01*
X17467166Y-43313724D01*
X17469290Y-43328042D01*
X17470000Y-43342500D01*
X17470000Y-43637500D01*
X17469290Y-43651958D01*
X17467166Y-43666276D01*
X17463649Y-43680317D01*
X17458772Y-43693946D01*
X17452583Y-43707031D01*
X17445142Y-43719447D01*
X17436519Y-43731073D01*
X17426798Y-43741798D01*
X17416073Y-43751519D01*
X17404447Y-43760142D01*
X17392031Y-43767583D01*
X17378946Y-43773772D01*
X17365317Y-43778649D01*
X17351276Y-43782166D01*
X17336958Y-43784290D01*
X17322500Y-43785000D01*
X16977500Y-43785000D01*
X16963042Y-43784290D01*
X16948724Y-43782166D01*
X16934683Y-43778649D01*
X16921054Y-43773772D01*
X16907969Y-43767583D01*
X16895553Y-43760142D01*
X16883927Y-43751519D01*
X16873202Y-43741798D01*
X16863481Y-43731073D01*
X16854858Y-43719447D01*
X16847417Y-43707031D01*
X16841228Y-43693946D01*
X16836351Y-43680317D01*
X16832834Y-43666276D01*
X16830710Y-43651958D01*
X16830000Y-43637500D01*
X16830000Y-43342500D01*
X16830710Y-43328042D01*
X16832834Y-43313724D01*
X16836351Y-43299683D01*
X16841228Y-43286054D01*
X16847417Y-43272969D01*
X16854858Y-43260553D01*
X16863481Y-43248927D01*
X16873202Y-43238202D01*
X16883927Y-43228481D01*
X16895553Y-43219858D01*
X16907969Y-43212417D01*
X16921054Y-43206228D01*
X16934683Y-43201351D01*
X16948724Y-43197834D01*
X16963042Y-43195710D01*
X16977500Y-43195000D01*
X17322500Y-43195000D01*
X17336958Y-43195710D01*
G37*
G36*
X17336958Y-42265710D02*
G01*
X17351276Y-42267834D01*
X17365317Y-42271351D01*
X17378946Y-42276228D01*
X17392031Y-42282417D01*
X17404447Y-42289858D01*
X17416073Y-42298481D01*
X17426798Y-42308202D01*
X17436519Y-42318927D01*
X17445142Y-42330553D01*
X17452583Y-42342969D01*
X17458772Y-42356054D01*
X17463649Y-42369683D01*
X17467166Y-42383724D01*
X17469290Y-42398042D01*
X17470000Y-42412500D01*
X17470000Y-42707500D01*
X17469290Y-42721958D01*
X17467166Y-42736276D01*
X17463649Y-42750317D01*
X17458772Y-42763946D01*
X17452583Y-42777031D01*
X17445142Y-42789447D01*
X17436519Y-42801073D01*
X17426798Y-42811798D01*
X17416073Y-42821519D01*
X17404447Y-42830142D01*
X17392031Y-42837583D01*
X17378946Y-42843772D01*
X17365317Y-42848649D01*
X17351276Y-42852166D01*
X17336958Y-42854290D01*
X17322500Y-42855000D01*
X16977500Y-42855000D01*
X16963042Y-42854290D01*
X16948724Y-42852166D01*
X16934683Y-42848649D01*
X16921054Y-42843772D01*
X16907969Y-42837583D01*
X16895553Y-42830142D01*
X16883927Y-42821519D01*
X16873202Y-42811798D01*
X16863481Y-42801073D01*
X16854858Y-42789447D01*
X16847417Y-42777031D01*
X16841228Y-42763946D01*
X16836351Y-42750317D01*
X16832834Y-42736276D01*
X16830710Y-42721958D01*
X16830000Y-42707500D01*
X16830000Y-42412500D01*
X16830710Y-42398042D01*
X16832834Y-42383724D01*
X16836351Y-42369683D01*
X16841228Y-42356054D01*
X16847417Y-42342969D01*
X16854858Y-42330553D01*
X16863481Y-42318927D01*
X16873202Y-42308202D01*
X16883927Y-42298481D01*
X16895553Y-42289858D01*
X16907969Y-42282417D01*
X16921054Y-42276228D01*
X16934683Y-42271351D01*
X16948724Y-42267834D01*
X16963042Y-42265710D01*
X16977500Y-42265000D01*
X17322500Y-42265000D01*
X17336958Y-42265710D01*
G37*
G36*
X17336958Y-41295710D02*
G01*
X17351276Y-41297834D01*
X17365317Y-41301351D01*
X17378946Y-41306228D01*
X17392031Y-41312417D01*
X17404447Y-41319858D01*
X17416073Y-41328481D01*
X17426798Y-41338202D01*
X17436519Y-41348927D01*
X17445142Y-41360553D01*
X17452583Y-41372969D01*
X17458772Y-41386054D01*
X17463649Y-41399683D01*
X17467166Y-41413724D01*
X17469290Y-41428042D01*
X17470000Y-41442500D01*
X17470000Y-41737500D01*
X17469290Y-41751958D01*
X17467166Y-41766276D01*
X17463649Y-41780317D01*
X17458772Y-41793946D01*
X17452583Y-41807031D01*
X17445142Y-41819447D01*
X17436519Y-41831073D01*
X17426798Y-41841798D01*
X17416073Y-41851519D01*
X17404447Y-41860142D01*
X17392031Y-41867583D01*
X17378946Y-41873772D01*
X17365317Y-41878649D01*
X17351276Y-41882166D01*
X17336958Y-41884290D01*
X17322500Y-41885000D01*
X16977500Y-41885000D01*
X16963042Y-41884290D01*
X16948724Y-41882166D01*
X16934683Y-41878649D01*
X16921054Y-41873772D01*
X16907969Y-41867583D01*
X16895553Y-41860142D01*
X16883927Y-41851519D01*
X16873202Y-41841798D01*
X16863481Y-41831073D01*
X16854858Y-41819447D01*
X16847417Y-41807031D01*
X16841228Y-41793946D01*
X16836351Y-41780317D01*
X16832834Y-41766276D01*
X16830710Y-41751958D01*
X16830000Y-41737500D01*
X16830000Y-41442500D01*
X16830710Y-41428042D01*
X16832834Y-41413724D01*
X16836351Y-41399683D01*
X16841228Y-41386054D01*
X16847417Y-41372969D01*
X16854858Y-41360553D01*
X16863481Y-41348927D01*
X16873202Y-41338202D01*
X16883927Y-41328481D01*
X16895553Y-41319858D01*
X16907969Y-41312417D01*
X16921054Y-41306228D01*
X16934683Y-41301351D01*
X16948724Y-41297834D01*
X16963042Y-41295710D01*
X16977500Y-41295000D01*
X17322500Y-41295000D01*
X17336958Y-41295710D01*
G37*
G36*
X18384204Y-43195710D02*
G01*
X18398522Y-43197834D01*
X18412563Y-43201351D01*
X18426192Y-43206228D01*
X18439277Y-43212417D01*
X18451693Y-43219858D01*
X18463319Y-43228481D01*
X18474044Y-43238202D01*
X18483765Y-43248927D01*
X18492388Y-43260553D01*
X18499829Y-43272969D01*
X18506018Y-43286054D01*
X18510895Y-43299683D01*
X18514412Y-43313724D01*
X18516536Y-43328042D01*
X18517246Y-43342500D01*
X18517246Y-43637500D01*
X18516536Y-43651958D01*
X18514412Y-43666276D01*
X18510895Y-43680317D01*
X18506018Y-43693946D01*
X18499829Y-43707031D01*
X18492388Y-43719447D01*
X18483765Y-43731073D01*
X18474044Y-43741798D01*
X18463319Y-43751519D01*
X18451693Y-43760142D01*
X18439277Y-43767583D01*
X18426192Y-43773772D01*
X18412563Y-43778649D01*
X18398522Y-43782166D01*
X18384204Y-43784290D01*
X18369746Y-43785000D01*
X18024746Y-43785000D01*
X18010288Y-43784290D01*
X17995970Y-43782166D01*
X17981929Y-43778649D01*
X17968300Y-43773772D01*
X17955215Y-43767583D01*
X17942799Y-43760142D01*
X17931173Y-43751519D01*
X17920448Y-43741798D01*
X17910727Y-43731073D01*
X17902104Y-43719447D01*
X17894663Y-43707031D01*
X17888474Y-43693946D01*
X17883597Y-43680317D01*
X17880080Y-43666276D01*
X17877956Y-43651958D01*
X17877246Y-43637500D01*
X17877246Y-43342500D01*
X17877956Y-43328042D01*
X17880080Y-43313724D01*
X17883597Y-43299683D01*
X17888474Y-43286054D01*
X17894663Y-43272969D01*
X17902104Y-43260553D01*
X17910727Y-43248927D01*
X17920448Y-43238202D01*
X17931173Y-43228481D01*
X17942799Y-43219858D01*
X17955215Y-43212417D01*
X17968300Y-43206228D01*
X17981929Y-43201351D01*
X17995970Y-43197834D01*
X18010288Y-43195710D01*
X18024746Y-43195000D01*
X18369746Y-43195000D01*
X18384204Y-43195710D01*
G37*
G36*
X18384204Y-44165710D02*
G01*
X18398522Y-44167834D01*
X18412563Y-44171351D01*
X18426192Y-44176228D01*
X18439277Y-44182417D01*
X18451693Y-44189858D01*
X18463319Y-44198481D01*
X18474044Y-44208202D01*
X18483765Y-44218927D01*
X18492388Y-44230553D01*
X18499829Y-44242969D01*
X18506018Y-44256054D01*
X18510895Y-44269683D01*
X18514412Y-44283724D01*
X18516536Y-44298042D01*
X18517246Y-44312500D01*
X18517246Y-44607500D01*
X18516536Y-44621958D01*
X18514412Y-44636276D01*
X18510895Y-44650317D01*
X18506018Y-44663946D01*
X18499829Y-44677031D01*
X18492388Y-44689447D01*
X18483765Y-44701073D01*
X18474044Y-44711798D01*
X18463319Y-44721519D01*
X18451693Y-44730142D01*
X18439277Y-44737583D01*
X18426192Y-44743772D01*
X18412563Y-44748649D01*
X18398522Y-44752166D01*
X18384204Y-44754290D01*
X18369746Y-44755000D01*
X18024746Y-44755000D01*
X18010288Y-44754290D01*
X17995970Y-44752166D01*
X17981929Y-44748649D01*
X17968300Y-44743772D01*
X17955215Y-44737583D01*
X17942799Y-44730142D01*
X17931173Y-44721519D01*
X17920448Y-44711798D01*
X17910727Y-44701073D01*
X17902104Y-44689447D01*
X17894663Y-44677031D01*
X17888474Y-44663946D01*
X17883597Y-44650317D01*
X17880080Y-44636276D01*
X17877956Y-44621958D01*
X17877246Y-44607500D01*
X17877246Y-44312500D01*
X17877956Y-44298042D01*
X17880080Y-44283724D01*
X17883597Y-44269683D01*
X17888474Y-44256054D01*
X17894663Y-44242969D01*
X17902104Y-44230553D01*
X17910727Y-44218927D01*
X17920448Y-44208202D01*
X17931173Y-44198481D01*
X17942799Y-44189858D01*
X17955215Y-44182417D01*
X17968300Y-44176228D01*
X17981929Y-44171351D01*
X17995970Y-44167834D01*
X18010288Y-44165710D01*
X18024746Y-44165000D01*
X18369746Y-44165000D01*
X18384204Y-44165710D01*
G37*
G36*
X2493958Y-11364710D02*
G01*
X2508276Y-11366834D01*
X2522317Y-11370351D01*
X2535946Y-11375228D01*
X2549031Y-11381417D01*
X2561447Y-11388858D01*
X2573073Y-11397481D01*
X2583798Y-11407202D01*
X2593519Y-11417927D01*
X2602142Y-11429553D01*
X2609583Y-11441969D01*
X2615772Y-11455054D01*
X2620649Y-11468683D01*
X2624166Y-11482724D01*
X2626290Y-11497042D01*
X2627000Y-11511500D01*
X2627000Y-11856500D01*
X2626290Y-11870958D01*
X2624166Y-11885276D01*
X2620649Y-11899317D01*
X2615772Y-11912946D01*
X2609583Y-11926031D01*
X2602142Y-11938447D01*
X2593519Y-11950073D01*
X2583798Y-11960798D01*
X2573073Y-11970519D01*
X2561447Y-11979142D01*
X2549031Y-11986583D01*
X2535946Y-11992772D01*
X2522317Y-11997649D01*
X2508276Y-12001166D01*
X2493958Y-12003290D01*
X2479500Y-12004000D01*
X2184500Y-12004000D01*
X2170042Y-12003290D01*
X2155724Y-12001166D01*
X2141683Y-11997649D01*
X2128054Y-11992772D01*
X2114969Y-11986583D01*
X2102553Y-11979142D01*
X2090927Y-11970519D01*
X2080202Y-11960798D01*
X2070481Y-11950073D01*
X2061858Y-11938447D01*
X2054417Y-11926031D01*
X2048228Y-11912946D01*
X2043351Y-11899317D01*
X2039834Y-11885276D01*
X2037710Y-11870958D01*
X2037000Y-11856500D01*
X2037000Y-11511500D01*
X2037710Y-11497042D01*
X2039834Y-11482724D01*
X2043351Y-11468683D01*
X2048228Y-11455054D01*
X2054417Y-11441969D01*
X2061858Y-11429553D01*
X2070481Y-11417927D01*
X2080202Y-11407202D01*
X2090927Y-11397481D01*
X2102553Y-11388858D01*
X2114969Y-11381417D01*
X2128054Y-11375228D01*
X2141683Y-11370351D01*
X2155724Y-11366834D01*
X2170042Y-11364710D01*
X2184500Y-11364000D01*
X2479500Y-11364000D01*
X2493958Y-11364710D01*
G37*
G36*
X3463958Y-11364710D02*
G01*
X3478276Y-11366834D01*
X3492317Y-11370351D01*
X3505946Y-11375228D01*
X3519031Y-11381417D01*
X3531447Y-11388858D01*
X3543073Y-11397481D01*
X3553798Y-11407202D01*
X3563519Y-11417927D01*
X3572142Y-11429553D01*
X3579583Y-11441969D01*
X3585772Y-11455054D01*
X3590649Y-11468683D01*
X3594166Y-11482724D01*
X3596290Y-11497042D01*
X3597000Y-11511500D01*
X3597000Y-11856500D01*
X3596290Y-11870958D01*
X3594166Y-11885276D01*
X3590649Y-11899317D01*
X3585772Y-11912946D01*
X3579583Y-11926031D01*
X3572142Y-11938447D01*
X3563519Y-11950073D01*
X3553798Y-11960798D01*
X3543073Y-11970519D01*
X3531447Y-11979142D01*
X3519031Y-11986583D01*
X3505946Y-11992772D01*
X3492317Y-11997649D01*
X3478276Y-12001166D01*
X3463958Y-12003290D01*
X3449500Y-12004000D01*
X3154500Y-12004000D01*
X3140042Y-12003290D01*
X3125724Y-12001166D01*
X3111683Y-11997649D01*
X3098054Y-11992772D01*
X3084969Y-11986583D01*
X3072553Y-11979142D01*
X3060927Y-11970519D01*
X3050202Y-11960798D01*
X3040481Y-11950073D01*
X3031858Y-11938447D01*
X3024417Y-11926031D01*
X3018228Y-11912946D01*
X3013351Y-11899317D01*
X3009834Y-11885276D01*
X3007710Y-11870958D01*
X3007000Y-11856500D01*
X3007000Y-11511500D01*
X3007710Y-11497042D01*
X3009834Y-11482724D01*
X3013351Y-11468683D01*
X3018228Y-11455054D01*
X3024417Y-11441969D01*
X3031858Y-11429553D01*
X3040481Y-11417927D01*
X3050202Y-11407202D01*
X3060927Y-11397481D01*
X3072553Y-11388858D01*
X3084969Y-11381417D01*
X3098054Y-11375228D01*
X3111683Y-11370351D01*
X3125724Y-11366834D01*
X3140042Y-11364710D01*
X3154500Y-11364000D01*
X3449500Y-11364000D01*
X3463958Y-11364710D01*
G37*
G36*
X2493958Y-10196310D02*
G01*
X2508276Y-10198434D01*
X2522317Y-10201951D01*
X2535946Y-10206828D01*
X2549031Y-10213017D01*
X2561447Y-10220458D01*
X2573073Y-10229081D01*
X2583798Y-10238802D01*
X2593519Y-10249527D01*
X2602142Y-10261153D01*
X2609583Y-10273569D01*
X2615772Y-10286654D01*
X2620649Y-10300283D01*
X2624166Y-10314324D01*
X2626290Y-10328642D01*
X2627000Y-10343100D01*
X2627000Y-10688100D01*
X2626290Y-10702558D01*
X2624166Y-10716876D01*
X2620649Y-10730917D01*
X2615772Y-10744546D01*
X2609583Y-10757631D01*
X2602142Y-10770047D01*
X2593519Y-10781673D01*
X2583798Y-10792398D01*
X2573073Y-10802119D01*
X2561447Y-10810742D01*
X2549031Y-10818183D01*
X2535946Y-10824372D01*
X2522317Y-10829249D01*
X2508276Y-10832766D01*
X2493958Y-10834890D01*
X2479500Y-10835600D01*
X2184500Y-10835600D01*
X2170042Y-10834890D01*
X2155724Y-10832766D01*
X2141683Y-10829249D01*
X2128054Y-10824372D01*
X2114969Y-10818183D01*
X2102553Y-10810742D01*
X2090927Y-10802119D01*
X2080202Y-10792398D01*
X2070481Y-10781673D01*
X2061858Y-10770047D01*
X2054417Y-10757631D01*
X2048228Y-10744546D01*
X2043351Y-10730917D01*
X2039834Y-10716876D01*
X2037710Y-10702558D01*
X2037000Y-10688100D01*
X2037000Y-10343100D01*
X2037710Y-10328642D01*
X2039834Y-10314324D01*
X2043351Y-10300283D01*
X2048228Y-10286654D01*
X2054417Y-10273569D01*
X2061858Y-10261153D01*
X2070481Y-10249527D01*
X2080202Y-10238802D01*
X2090927Y-10229081D01*
X2102553Y-10220458D01*
X2114969Y-10213017D01*
X2128054Y-10206828D01*
X2141683Y-10201951D01*
X2155724Y-10198434D01*
X2170042Y-10196310D01*
X2184500Y-10195600D01*
X2479500Y-10195600D01*
X2493958Y-10196310D01*
G37*
G36*
X3463958Y-10196310D02*
G01*
X3478276Y-10198434D01*
X3492317Y-10201951D01*
X3505946Y-10206828D01*
X3519031Y-10213017D01*
X3531447Y-10220458D01*
X3543073Y-10229081D01*
X3553798Y-10238802D01*
X3563519Y-10249527D01*
X3572142Y-10261153D01*
X3579583Y-10273569D01*
X3585772Y-10286654D01*
X3590649Y-10300283D01*
X3594166Y-10314324D01*
X3596290Y-10328642D01*
X3597000Y-10343100D01*
X3597000Y-10688100D01*
X3596290Y-10702558D01*
X3594166Y-10716876D01*
X3590649Y-10730917D01*
X3585772Y-10744546D01*
X3579583Y-10757631D01*
X3572142Y-10770047D01*
X3563519Y-10781673D01*
X3553798Y-10792398D01*
X3543073Y-10802119D01*
X3531447Y-10810742D01*
X3519031Y-10818183D01*
X3505946Y-10824372D01*
X3492317Y-10829249D01*
X3478276Y-10832766D01*
X3463958Y-10834890D01*
X3449500Y-10835600D01*
X3154500Y-10835600D01*
X3140042Y-10834890D01*
X3125724Y-10832766D01*
X3111683Y-10829249D01*
X3098054Y-10824372D01*
X3084969Y-10818183D01*
X3072553Y-10810742D01*
X3060927Y-10802119D01*
X3050202Y-10792398D01*
X3040481Y-10781673D01*
X3031858Y-10770047D01*
X3024417Y-10757631D01*
X3018228Y-10744546D01*
X3013351Y-10730917D01*
X3009834Y-10716876D01*
X3007710Y-10702558D01*
X3007000Y-10688100D01*
X3007000Y-10343100D01*
X3007710Y-10328642D01*
X3009834Y-10314324D01*
X3013351Y-10300283D01*
X3018228Y-10286654D01*
X3024417Y-10273569D01*
X3031858Y-10261153D01*
X3040481Y-10249527D01*
X3050202Y-10238802D01*
X3060927Y-10229081D01*
X3072553Y-10220458D01*
X3084969Y-10213017D01*
X3098054Y-10206828D01*
X3111683Y-10201951D01*
X3125724Y-10198434D01*
X3140042Y-10196310D01*
X3154500Y-10195600D01*
X3449500Y-10195600D01*
X3463958Y-10196310D01*
G37*
G36*
X4886358Y-7554710D02*
G01*
X4900676Y-7556834D01*
X4914717Y-7560351D01*
X4928346Y-7565228D01*
X4941431Y-7571417D01*
X4953847Y-7578858D01*
X4965473Y-7587481D01*
X4976198Y-7597202D01*
X4985919Y-7607927D01*
X4994542Y-7619553D01*
X5001983Y-7631969D01*
X5008172Y-7645054D01*
X5013049Y-7658683D01*
X5016566Y-7672724D01*
X5018690Y-7687042D01*
X5019400Y-7701500D01*
X5019400Y-8046500D01*
X5018690Y-8060958D01*
X5016566Y-8075276D01*
X5013049Y-8089317D01*
X5008172Y-8102946D01*
X5001983Y-8116031D01*
X4994542Y-8128447D01*
X4985919Y-8140073D01*
X4976198Y-8150798D01*
X4965473Y-8160519D01*
X4953847Y-8169142D01*
X4941431Y-8176583D01*
X4928346Y-8182772D01*
X4914717Y-8187649D01*
X4900676Y-8191166D01*
X4886358Y-8193290D01*
X4871900Y-8194000D01*
X4576900Y-8194000D01*
X4562442Y-8193290D01*
X4548124Y-8191166D01*
X4534083Y-8187649D01*
X4520454Y-8182772D01*
X4507369Y-8176583D01*
X4494953Y-8169142D01*
X4483327Y-8160519D01*
X4472602Y-8150798D01*
X4462881Y-8140073D01*
X4454258Y-8128447D01*
X4446817Y-8116031D01*
X4440628Y-8102946D01*
X4435751Y-8089317D01*
X4432234Y-8075276D01*
X4430110Y-8060958D01*
X4429400Y-8046500D01*
X4429400Y-7701500D01*
X4430110Y-7687042D01*
X4432234Y-7672724D01*
X4435751Y-7658683D01*
X4440628Y-7645054D01*
X4446817Y-7631969D01*
X4454258Y-7619553D01*
X4462881Y-7607927D01*
X4472602Y-7597202D01*
X4483327Y-7587481D01*
X4494953Y-7578858D01*
X4507369Y-7571417D01*
X4520454Y-7565228D01*
X4534083Y-7560351D01*
X4548124Y-7556834D01*
X4562442Y-7554710D01*
X4576900Y-7554000D01*
X4871900Y-7554000D01*
X4886358Y-7554710D01*
G37*
G36*
X5856358Y-7554710D02*
G01*
X5870676Y-7556834D01*
X5884717Y-7560351D01*
X5898346Y-7565228D01*
X5911431Y-7571417D01*
X5923847Y-7578858D01*
X5935473Y-7587481D01*
X5946198Y-7597202D01*
X5955919Y-7607927D01*
X5964542Y-7619553D01*
X5971983Y-7631969D01*
X5978172Y-7645054D01*
X5983049Y-7658683D01*
X5986566Y-7672724D01*
X5988690Y-7687042D01*
X5989400Y-7701500D01*
X5989400Y-8046500D01*
X5988690Y-8060958D01*
X5986566Y-8075276D01*
X5983049Y-8089317D01*
X5978172Y-8102946D01*
X5971983Y-8116031D01*
X5964542Y-8128447D01*
X5955919Y-8140073D01*
X5946198Y-8150798D01*
X5935473Y-8160519D01*
X5923847Y-8169142D01*
X5911431Y-8176583D01*
X5898346Y-8182772D01*
X5884717Y-8187649D01*
X5870676Y-8191166D01*
X5856358Y-8193290D01*
X5841900Y-8194000D01*
X5546900Y-8194000D01*
X5532442Y-8193290D01*
X5518124Y-8191166D01*
X5504083Y-8187649D01*
X5490454Y-8182772D01*
X5477369Y-8176583D01*
X5464953Y-8169142D01*
X5453327Y-8160519D01*
X5442602Y-8150798D01*
X5432881Y-8140073D01*
X5424258Y-8128447D01*
X5416817Y-8116031D01*
X5410628Y-8102946D01*
X5405751Y-8089317D01*
X5402234Y-8075276D01*
X5400110Y-8060958D01*
X5399400Y-8046500D01*
X5399400Y-7701500D01*
X5400110Y-7687042D01*
X5402234Y-7672724D01*
X5405751Y-7658683D01*
X5410628Y-7645054D01*
X5416817Y-7631969D01*
X5424258Y-7619553D01*
X5432881Y-7607927D01*
X5442602Y-7597202D01*
X5453327Y-7587481D01*
X5464953Y-7578858D01*
X5477369Y-7571417D01*
X5490454Y-7565228D01*
X5504083Y-7560351D01*
X5518124Y-7556834D01*
X5532442Y-7554710D01*
X5546900Y-7554000D01*
X5841900Y-7554000D01*
X5856358Y-7554710D01*
G37*
G36*
X-5726042Y3621290D02*
G01*
X-5711724Y3619166D01*
X-5697683Y3615649D01*
X-5684054Y3610772D01*
X-5670969Y3604583D01*
X-5658553Y3597142D01*
X-5646927Y3588519D01*
X-5636202Y3578798D01*
X-5626481Y3568073D01*
X-5617858Y3556447D01*
X-5610417Y3544031D01*
X-5604228Y3530946D01*
X-5599351Y3517317D01*
X-5595834Y3503276D01*
X-5593710Y3488958D01*
X-5593000Y3474500D01*
X-5593000Y3129500D01*
X-5593710Y3115042D01*
X-5595834Y3100724D01*
X-5599351Y3086683D01*
X-5604228Y3073054D01*
X-5610417Y3059969D01*
X-5617858Y3047553D01*
X-5626481Y3035927D01*
X-5636202Y3025202D01*
X-5646927Y3015481D01*
X-5658553Y3006858D01*
X-5670969Y2999417D01*
X-5684054Y2993228D01*
X-5697683Y2988351D01*
X-5711724Y2984834D01*
X-5726042Y2982710D01*
X-5740500Y2982000D01*
X-6035500Y2982000D01*
X-6049958Y2982710D01*
X-6064276Y2984834D01*
X-6078317Y2988351D01*
X-6091946Y2993228D01*
X-6105031Y2999417D01*
X-6117447Y3006858D01*
X-6129073Y3015481D01*
X-6139798Y3025202D01*
X-6149519Y3035927D01*
X-6158142Y3047553D01*
X-6165583Y3059969D01*
X-6171772Y3073054D01*
X-6176649Y3086683D01*
X-6180166Y3100724D01*
X-6182290Y3115042D01*
X-6183000Y3129500D01*
X-6183000Y3474500D01*
X-6182290Y3488958D01*
X-6180166Y3503276D01*
X-6176649Y3517317D01*
X-6171772Y3530946D01*
X-6165583Y3544031D01*
X-6158142Y3556447D01*
X-6149519Y3568073D01*
X-6139798Y3578798D01*
X-6129073Y3588519D01*
X-6117447Y3597142D01*
X-6105031Y3604583D01*
X-6091946Y3610772D01*
X-6078317Y3615649D01*
X-6064276Y3619166D01*
X-6049958Y3621290D01*
X-6035500Y3622000D01*
X-5740500Y3622000D01*
X-5726042Y3621290D01*
G37*
G36*
X-6696042Y3621290D02*
G01*
X-6681724Y3619166D01*
X-6667683Y3615649D01*
X-6654054Y3610772D01*
X-6640969Y3604583D01*
X-6628553Y3597142D01*
X-6616927Y3588519D01*
X-6606202Y3578798D01*
X-6596481Y3568073D01*
X-6587858Y3556447D01*
X-6580417Y3544031D01*
X-6574228Y3530946D01*
X-6569351Y3517317D01*
X-6565834Y3503276D01*
X-6563710Y3488958D01*
X-6563000Y3474500D01*
X-6563000Y3129500D01*
X-6563710Y3115042D01*
X-6565834Y3100724D01*
X-6569351Y3086683D01*
X-6574228Y3073054D01*
X-6580417Y3059969D01*
X-6587858Y3047553D01*
X-6596481Y3035927D01*
X-6606202Y3025202D01*
X-6616927Y3015481D01*
X-6628553Y3006858D01*
X-6640969Y2999417D01*
X-6654054Y2993228D01*
X-6667683Y2988351D01*
X-6681724Y2984834D01*
X-6696042Y2982710D01*
X-6710500Y2982000D01*
X-7005500Y2982000D01*
X-7019958Y2982710D01*
X-7034276Y2984834D01*
X-7048317Y2988351D01*
X-7061946Y2993228D01*
X-7075031Y2999417D01*
X-7087447Y3006858D01*
X-7099073Y3015481D01*
X-7109798Y3025202D01*
X-7119519Y3035927D01*
X-7128142Y3047553D01*
X-7135583Y3059969D01*
X-7141772Y3073054D01*
X-7146649Y3086683D01*
X-7150166Y3100724D01*
X-7152290Y3115042D01*
X-7153000Y3129500D01*
X-7153000Y3474500D01*
X-7152290Y3488958D01*
X-7150166Y3503276D01*
X-7146649Y3517317D01*
X-7141772Y3530946D01*
X-7135583Y3544031D01*
X-7128142Y3556447D01*
X-7119519Y3568073D01*
X-7109798Y3578798D01*
X-7099073Y3588519D01*
X-7087447Y3597142D01*
X-7075031Y3604583D01*
X-7061946Y3610772D01*
X-7048317Y3615649D01*
X-7034276Y3619166D01*
X-7019958Y3621290D01*
X-7005500Y3622000D01*
X-6710500Y3622000D01*
X-6696042Y3621290D01*
G37*
G36*
X-8682042Y3621290D02*
G01*
X-8667724Y3619166D01*
X-8653683Y3615649D01*
X-8640054Y3610772D01*
X-8626969Y3604583D01*
X-8614553Y3597142D01*
X-8602927Y3588519D01*
X-8592202Y3578798D01*
X-8582481Y3568073D01*
X-8573858Y3556447D01*
X-8566417Y3544031D01*
X-8560228Y3530946D01*
X-8555351Y3517317D01*
X-8551834Y3503276D01*
X-8549710Y3488958D01*
X-8549000Y3474500D01*
X-8549000Y3129500D01*
X-8549710Y3115042D01*
X-8551834Y3100724D01*
X-8555351Y3086683D01*
X-8560228Y3073054D01*
X-8566417Y3059969D01*
X-8573858Y3047553D01*
X-8582481Y3035927D01*
X-8592202Y3025202D01*
X-8602927Y3015481D01*
X-8614553Y3006858D01*
X-8626969Y2999417D01*
X-8640054Y2993228D01*
X-8653683Y2988351D01*
X-8667724Y2984834D01*
X-8682042Y2982710D01*
X-8696500Y2982000D01*
X-8991500Y2982000D01*
X-9005958Y2982710D01*
X-9020276Y2984834D01*
X-9034317Y2988351D01*
X-9047946Y2993228D01*
X-9061031Y2999417D01*
X-9073447Y3006858D01*
X-9085073Y3015481D01*
X-9095798Y3025202D01*
X-9105519Y3035927D01*
X-9114142Y3047553D01*
X-9121583Y3059969D01*
X-9127772Y3073054D01*
X-9132649Y3086683D01*
X-9136166Y3100724D01*
X-9138290Y3115042D01*
X-9139000Y3129500D01*
X-9139000Y3474500D01*
X-9138290Y3488958D01*
X-9136166Y3503276D01*
X-9132649Y3517317D01*
X-9127772Y3530946D01*
X-9121583Y3544031D01*
X-9114142Y3556447D01*
X-9105519Y3568073D01*
X-9095798Y3578798D01*
X-9085073Y3588519D01*
X-9073447Y3597142D01*
X-9061031Y3604583D01*
X-9047946Y3610772D01*
X-9034317Y3615649D01*
X-9020276Y3619166D01*
X-9005958Y3621290D01*
X-8991500Y3622000D01*
X-8696500Y3622000D01*
X-8682042Y3621290D01*
G37*
G36*
X-7712042Y3621290D02*
G01*
X-7697724Y3619166D01*
X-7683683Y3615649D01*
X-7670054Y3610772D01*
X-7656969Y3604583D01*
X-7644553Y3597142D01*
X-7632927Y3588519D01*
X-7622202Y3578798D01*
X-7612481Y3568073D01*
X-7603858Y3556447D01*
X-7596417Y3544031D01*
X-7590228Y3530946D01*
X-7585351Y3517317D01*
X-7581834Y3503276D01*
X-7579710Y3488958D01*
X-7579000Y3474500D01*
X-7579000Y3129500D01*
X-7579710Y3115042D01*
X-7581834Y3100724D01*
X-7585351Y3086683D01*
X-7590228Y3073054D01*
X-7596417Y3059969D01*
X-7603858Y3047553D01*
X-7612481Y3035927D01*
X-7622202Y3025202D01*
X-7632927Y3015481D01*
X-7644553Y3006858D01*
X-7656969Y2999417D01*
X-7670054Y2993228D01*
X-7683683Y2988351D01*
X-7697724Y2984834D01*
X-7712042Y2982710D01*
X-7726500Y2982000D01*
X-8021500Y2982000D01*
X-8035958Y2982710D01*
X-8050276Y2984834D01*
X-8064317Y2988351D01*
X-8077946Y2993228D01*
X-8091031Y2999417D01*
X-8103447Y3006858D01*
X-8115073Y3015481D01*
X-8125798Y3025202D01*
X-8135519Y3035927D01*
X-8144142Y3047553D01*
X-8151583Y3059969D01*
X-8157772Y3073054D01*
X-8162649Y3086683D01*
X-8166166Y3100724D01*
X-8168290Y3115042D01*
X-8169000Y3129500D01*
X-8169000Y3474500D01*
X-8168290Y3488958D01*
X-8166166Y3503276D01*
X-8162649Y3517317D01*
X-8157772Y3530946D01*
X-8151583Y3544031D01*
X-8144142Y3556447D01*
X-8135519Y3568073D01*
X-8125798Y3578798D01*
X-8115073Y3588519D01*
X-8103447Y3597142D01*
X-8091031Y3604583D01*
X-8077946Y3610772D01*
X-8064317Y3615649D01*
X-8050276Y3619166D01*
X-8035958Y3621290D01*
X-8021500Y3622000D01*
X-7726500Y3622000D01*
X-7712042Y3621290D01*
G37*
D24*
X15847250Y-44353971D03*
X13947250Y-44353971D03*
X13947250Y-41733971D03*
X14897250Y-41733971D03*
X15847250Y-41733971D03*
D25*
X-7600000Y-48700000D03*
X-8550000Y-48700000D03*
X-6650000Y-48700000D03*
X-6650000Y-50900000D03*
X-7600000Y-50900000D03*
X-8550000Y-50900000D03*
D10*
G36*
X-4623042Y-45280710D02*
G01*
X-4608724Y-45282834D01*
X-4594683Y-45286351D01*
X-4581054Y-45291228D01*
X-4567969Y-45297417D01*
X-4555553Y-45304858D01*
X-4543927Y-45313481D01*
X-4533202Y-45323202D01*
X-4523481Y-45333927D01*
X-4514858Y-45345553D01*
X-4507417Y-45357969D01*
X-4501228Y-45371054D01*
X-4496351Y-45384683D01*
X-4492834Y-45398724D01*
X-4490710Y-45413042D01*
X-4490000Y-45427500D01*
X-4490000Y-45772500D01*
X-4490710Y-45786958D01*
X-4492834Y-45801276D01*
X-4496351Y-45815317D01*
X-4501228Y-45828946D01*
X-4507417Y-45842031D01*
X-4514858Y-45854447D01*
X-4523481Y-45866073D01*
X-4533202Y-45876798D01*
X-4543927Y-45886519D01*
X-4555553Y-45895142D01*
X-4567969Y-45902583D01*
X-4581054Y-45908772D01*
X-4594683Y-45913649D01*
X-4608724Y-45917166D01*
X-4623042Y-45919290D01*
X-4637500Y-45920000D01*
X-4932500Y-45920000D01*
X-4946958Y-45919290D01*
X-4961276Y-45917166D01*
X-4975317Y-45913649D01*
X-4988946Y-45908772D01*
X-5002031Y-45902583D01*
X-5014447Y-45895142D01*
X-5026073Y-45886519D01*
X-5036798Y-45876798D01*
X-5046519Y-45866073D01*
X-5055142Y-45854447D01*
X-5062583Y-45842031D01*
X-5068772Y-45828946D01*
X-5073649Y-45815317D01*
X-5077166Y-45801276D01*
X-5079290Y-45786958D01*
X-5080000Y-45772500D01*
X-5080000Y-45427500D01*
X-5079290Y-45413042D01*
X-5077166Y-45398724D01*
X-5073649Y-45384683D01*
X-5068772Y-45371054D01*
X-5062583Y-45357969D01*
X-5055142Y-45345553D01*
X-5046519Y-45333927D01*
X-5036798Y-45323202D01*
X-5026073Y-45313481D01*
X-5014447Y-45304858D01*
X-5002031Y-45297417D01*
X-4988946Y-45291228D01*
X-4975317Y-45286351D01*
X-4961276Y-45282834D01*
X-4946958Y-45280710D01*
X-4932500Y-45280000D01*
X-4637500Y-45280000D01*
X-4623042Y-45280710D01*
G37*
G36*
X-3653042Y-45280710D02*
G01*
X-3638724Y-45282834D01*
X-3624683Y-45286351D01*
X-3611054Y-45291228D01*
X-3597969Y-45297417D01*
X-3585553Y-45304858D01*
X-3573927Y-45313481D01*
X-3563202Y-45323202D01*
X-3553481Y-45333927D01*
X-3544858Y-45345553D01*
X-3537417Y-45357969D01*
X-3531228Y-45371054D01*
X-3526351Y-45384683D01*
X-3522834Y-45398724D01*
X-3520710Y-45413042D01*
X-3520000Y-45427500D01*
X-3520000Y-45772500D01*
X-3520710Y-45786958D01*
X-3522834Y-45801276D01*
X-3526351Y-45815317D01*
X-3531228Y-45828946D01*
X-3537417Y-45842031D01*
X-3544858Y-45854447D01*
X-3553481Y-45866073D01*
X-3563202Y-45876798D01*
X-3573927Y-45886519D01*
X-3585553Y-45895142D01*
X-3597969Y-45902583D01*
X-3611054Y-45908772D01*
X-3624683Y-45913649D01*
X-3638724Y-45917166D01*
X-3653042Y-45919290D01*
X-3667500Y-45920000D01*
X-3962500Y-45920000D01*
X-3976958Y-45919290D01*
X-3991276Y-45917166D01*
X-4005317Y-45913649D01*
X-4018946Y-45908772D01*
X-4032031Y-45902583D01*
X-4044447Y-45895142D01*
X-4056073Y-45886519D01*
X-4066798Y-45876798D01*
X-4076519Y-45866073D01*
X-4085142Y-45854447D01*
X-4092583Y-45842031D01*
X-4098772Y-45828946D01*
X-4103649Y-45815317D01*
X-4107166Y-45801276D01*
X-4109290Y-45786958D01*
X-4110000Y-45772500D01*
X-4110000Y-45427500D01*
X-4109290Y-45413042D01*
X-4107166Y-45398724D01*
X-4103649Y-45384683D01*
X-4098772Y-45371054D01*
X-4092583Y-45357969D01*
X-4085142Y-45345553D01*
X-4076519Y-45333927D01*
X-4066798Y-45323202D01*
X-4056073Y-45313481D01*
X-4044447Y-45304858D01*
X-4032031Y-45297417D01*
X-4018946Y-45291228D01*
X-4005317Y-45286351D01*
X-3991276Y-45282834D01*
X-3976958Y-45280710D01*
X-3962500Y-45280000D01*
X-3667500Y-45280000D01*
X-3653042Y-45280710D01*
G37*
G36*
X13612691Y-10739553D02*
G01*
X13633926Y-10742703D01*
X13654750Y-10747919D01*
X13674962Y-10755151D01*
X13694368Y-10764330D01*
X13712781Y-10775366D01*
X13730024Y-10788154D01*
X13745930Y-10802570D01*
X13760346Y-10818476D01*
X13773134Y-10835719D01*
X13784170Y-10854132D01*
X13793349Y-10873538D01*
X13800581Y-10893750D01*
X13805797Y-10914574D01*
X13808947Y-10935809D01*
X13810000Y-10957250D01*
X13810000Y-11394750D01*
X13808947Y-11416191D01*
X13805797Y-11437426D01*
X13800581Y-11458250D01*
X13793349Y-11478462D01*
X13784170Y-11497868D01*
X13773134Y-11516281D01*
X13760346Y-11533524D01*
X13745930Y-11549430D01*
X13730024Y-11563846D01*
X13712781Y-11576634D01*
X13694368Y-11587670D01*
X13674962Y-11596849D01*
X13654750Y-11604081D01*
X13633926Y-11609297D01*
X13612691Y-11612447D01*
X13591250Y-11613500D01*
X13078750Y-11613500D01*
X13057309Y-11612447D01*
X13036074Y-11609297D01*
X13015250Y-11604081D01*
X12995038Y-11596849D01*
X12975632Y-11587670D01*
X12957219Y-11576634D01*
X12939976Y-11563846D01*
X12924070Y-11549430D01*
X12909654Y-11533524D01*
X12896866Y-11516281D01*
X12885830Y-11497868D01*
X12876651Y-11478462D01*
X12869419Y-11458250D01*
X12864203Y-11437426D01*
X12861053Y-11416191D01*
X12860000Y-11394750D01*
X12860000Y-10957250D01*
X12861053Y-10935809D01*
X12864203Y-10914574D01*
X12869419Y-10893750D01*
X12876651Y-10873538D01*
X12885830Y-10854132D01*
X12896866Y-10835719D01*
X12909654Y-10818476D01*
X12924070Y-10802570D01*
X12939976Y-10788154D01*
X12957219Y-10775366D01*
X12975632Y-10764330D01*
X12995038Y-10755151D01*
X13015250Y-10747919D01*
X13036074Y-10742703D01*
X13057309Y-10739553D01*
X13078750Y-10738500D01*
X13591250Y-10738500D01*
X13612691Y-10739553D01*
G37*
G36*
X13612691Y-9164553D02*
G01*
X13633926Y-9167703D01*
X13654750Y-9172919D01*
X13674962Y-9180151D01*
X13694368Y-9189330D01*
X13712781Y-9200366D01*
X13730024Y-9213154D01*
X13745930Y-9227570D01*
X13760346Y-9243476D01*
X13773134Y-9260719D01*
X13784170Y-9279132D01*
X13793349Y-9298538D01*
X13800581Y-9318750D01*
X13805797Y-9339574D01*
X13808947Y-9360809D01*
X13810000Y-9382250D01*
X13810000Y-9819750D01*
X13808947Y-9841191D01*
X13805797Y-9862426D01*
X13800581Y-9883250D01*
X13793349Y-9903462D01*
X13784170Y-9922868D01*
X13773134Y-9941281D01*
X13760346Y-9958524D01*
X13745930Y-9974430D01*
X13730024Y-9988846D01*
X13712781Y-10001634D01*
X13694368Y-10012670D01*
X13674962Y-10021849D01*
X13654750Y-10029081D01*
X13633926Y-10034297D01*
X13612691Y-10037447D01*
X13591250Y-10038500D01*
X13078750Y-10038500D01*
X13057309Y-10037447D01*
X13036074Y-10034297D01*
X13015250Y-10029081D01*
X12995038Y-10021849D01*
X12975632Y-10012670D01*
X12957219Y-10001634D01*
X12939976Y-9988846D01*
X12924070Y-9974430D01*
X12909654Y-9958524D01*
X12896866Y-9941281D01*
X12885830Y-9922868D01*
X12876651Y-9903462D01*
X12869419Y-9883250D01*
X12864203Y-9862426D01*
X12861053Y-9841191D01*
X12860000Y-9819750D01*
X12860000Y-9382250D01*
X12861053Y-9360809D01*
X12864203Y-9339574D01*
X12869419Y-9318750D01*
X12876651Y-9298538D01*
X12885830Y-9279132D01*
X12896866Y-9260719D01*
X12909654Y-9243476D01*
X12924070Y-9227570D01*
X12939976Y-9213154D01*
X12957219Y-9200366D01*
X12975632Y-9189330D01*
X12995038Y-9180151D01*
X13015250Y-9172919D01*
X13036074Y-9167703D01*
X13057309Y-9164553D01*
X13078750Y-9163500D01*
X13591250Y-9163500D01*
X13612691Y-9164553D01*
G37*
D26*
X2235200Y-13208000D03*
X835200Y-13208000D03*
D27*
X2692400Y-9020000D03*
X2692400Y-7620000D03*
D26*
X3708400Y-5842000D03*
X2308400Y-5842000D03*
D10*
G36*
X4544142Y-41121174D02*
G01*
X4567803Y-41124684D01*
X4591007Y-41130496D01*
X4613529Y-41138554D01*
X4635153Y-41148782D01*
X4655670Y-41161079D01*
X4674883Y-41175329D01*
X4692607Y-41191393D01*
X4708671Y-41209117D01*
X4722921Y-41228330D01*
X4735218Y-41248847D01*
X4745446Y-41270471D01*
X4753504Y-41292993D01*
X4759316Y-41316197D01*
X4762826Y-41339858D01*
X4764000Y-41363750D01*
X4764000Y-41851250D01*
X4762826Y-41875142D01*
X4759316Y-41898803D01*
X4753504Y-41922007D01*
X4745446Y-41944529D01*
X4735218Y-41966153D01*
X4722921Y-41986670D01*
X4708671Y-42005883D01*
X4692607Y-42023607D01*
X4674883Y-42039671D01*
X4655670Y-42053921D01*
X4635153Y-42066218D01*
X4613529Y-42076446D01*
X4591007Y-42084504D01*
X4567803Y-42090316D01*
X4544142Y-42093826D01*
X4520250Y-42095000D01*
X3607750Y-42095000D01*
X3583858Y-42093826D01*
X3560197Y-42090316D01*
X3536993Y-42084504D01*
X3514471Y-42076446D01*
X3492847Y-42066218D01*
X3472330Y-42053921D01*
X3453117Y-42039671D01*
X3435393Y-42023607D01*
X3419329Y-42005883D01*
X3405079Y-41986670D01*
X3392782Y-41966153D01*
X3382554Y-41944529D01*
X3374496Y-41922007D01*
X3368684Y-41898803D01*
X3365174Y-41875142D01*
X3364000Y-41851250D01*
X3364000Y-41363750D01*
X3365174Y-41339858D01*
X3368684Y-41316197D01*
X3374496Y-41292993D01*
X3382554Y-41270471D01*
X3392782Y-41248847D01*
X3405079Y-41228330D01*
X3419329Y-41209117D01*
X3435393Y-41191393D01*
X3453117Y-41175329D01*
X3472330Y-41161079D01*
X3492847Y-41148782D01*
X3514471Y-41138554D01*
X3536993Y-41130496D01*
X3560197Y-41124684D01*
X3583858Y-41121174D01*
X3607750Y-41120000D01*
X4520250Y-41120000D01*
X4544142Y-41121174D01*
G37*
G36*
X4544142Y-42996174D02*
G01*
X4567803Y-42999684D01*
X4591007Y-43005496D01*
X4613529Y-43013554D01*
X4635153Y-43023782D01*
X4655670Y-43036079D01*
X4674883Y-43050329D01*
X4692607Y-43066393D01*
X4708671Y-43084117D01*
X4722921Y-43103330D01*
X4735218Y-43123847D01*
X4745446Y-43145471D01*
X4753504Y-43167993D01*
X4759316Y-43191197D01*
X4762826Y-43214858D01*
X4764000Y-43238750D01*
X4764000Y-43726250D01*
X4762826Y-43750142D01*
X4759316Y-43773803D01*
X4753504Y-43797007D01*
X4745446Y-43819529D01*
X4735218Y-43841153D01*
X4722921Y-43861670D01*
X4708671Y-43880883D01*
X4692607Y-43898607D01*
X4674883Y-43914671D01*
X4655670Y-43928921D01*
X4635153Y-43941218D01*
X4613529Y-43951446D01*
X4591007Y-43959504D01*
X4567803Y-43965316D01*
X4544142Y-43968826D01*
X4520250Y-43970000D01*
X3607750Y-43970000D01*
X3583858Y-43968826D01*
X3560197Y-43965316D01*
X3536993Y-43959504D01*
X3514471Y-43951446D01*
X3492847Y-43941218D01*
X3472330Y-43928921D01*
X3453117Y-43914671D01*
X3435393Y-43898607D01*
X3419329Y-43880883D01*
X3405079Y-43861670D01*
X3392782Y-43841153D01*
X3382554Y-43819529D01*
X3374496Y-43797007D01*
X3368684Y-43773803D01*
X3365174Y-43750142D01*
X3364000Y-43726250D01*
X3364000Y-43238750D01*
X3365174Y-43214858D01*
X3368684Y-43191197D01*
X3374496Y-43167993D01*
X3382554Y-43145471D01*
X3392782Y-43123847D01*
X3405079Y-43103330D01*
X3419329Y-43084117D01*
X3435393Y-43066393D01*
X3453117Y-43050329D01*
X3472330Y-43036079D01*
X3492847Y-43023782D01*
X3514471Y-43013554D01*
X3536993Y-43005496D01*
X3560197Y-42999684D01*
X3583858Y-42996174D01*
X3607750Y-42995000D01*
X4520250Y-42995000D01*
X4544142Y-42996174D01*
G37*
G36*
X6119691Y-43048553D02*
G01*
X6140926Y-43051703D01*
X6161750Y-43056919D01*
X6181962Y-43064151D01*
X6201368Y-43073330D01*
X6219781Y-43084366D01*
X6237024Y-43097154D01*
X6252930Y-43111570D01*
X6267346Y-43127476D01*
X6280134Y-43144719D01*
X6291170Y-43163132D01*
X6300349Y-43182538D01*
X6307581Y-43202750D01*
X6312797Y-43223574D01*
X6315947Y-43244809D01*
X6317000Y-43266250D01*
X6317000Y-43703750D01*
X6315947Y-43725191D01*
X6312797Y-43746426D01*
X6307581Y-43767250D01*
X6300349Y-43787462D01*
X6291170Y-43806868D01*
X6280134Y-43825281D01*
X6267346Y-43842524D01*
X6252930Y-43858430D01*
X6237024Y-43872846D01*
X6219781Y-43885634D01*
X6201368Y-43896670D01*
X6181962Y-43905849D01*
X6161750Y-43913081D01*
X6140926Y-43918297D01*
X6119691Y-43921447D01*
X6098250Y-43922500D01*
X5585750Y-43922500D01*
X5564309Y-43921447D01*
X5543074Y-43918297D01*
X5522250Y-43913081D01*
X5502038Y-43905849D01*
X5482632Y-43896670D01*
X5464219Y-43885634D01*
X5446976Y-43872846D01*
X5431070Y-43858430D01*
X5416654Y-43842524D01*
X5403866Y-43825281D01*
X5392830Y-43806868D01*
X5383651Y-43787462D01*
X5376419Y-43767250D01*
X5371203Y-43746426D01*
X5368053Y-43725191D01*
X5367000Y-43703750D01*
X5367000Y-43266250D01*
X5368053Y-43244809D01*
X5371203Y-43223574D01*
X5376419Y-43202750D01*
X5383651Y-43182538D01*
X5392830Y-43163132D01*
X5403866Y-43144719D01*
X5416654Y-43127476D01*
X5431070Y-43111570D01*
X5446976Y-43097154D01*
X5464219Y-43084366D01*
X5482632Y-43073330D01*
X5502038Y-43064151D01*
X5522250Y-43056919D01*
X5543074Y-43051703D01*
X5564309Y-43048553D01*
X5585750Y-43047500D01*
X6098250Y-43047500D01*
X6119691Y-43048553D01*
G37*
G36*
X6119691Y-41473553D02*
G01*
X6140926Y-41476703D01*
X6161750Y-41481919D01*
X6181962Y-41489151D01*
X6201368Y-41498330D01*
X6219781Y-41509366D01*
X6237024Y-41522154D01*
X6252930Y-41536570D01*
X6267346Y-41552476D01*
X6280134Y-41569719D01*
X6291170Y-41588132D01*
X6300349Y-41607538D01*
X6307581Y-41627750D01*
X6312797Y-41648574D01*
X6315947Y-41669809D01*
X6317000Y-41691250D01*
X6317000Y-42128750D01*
X6315947Y-42150191D01*
X6312797Y-42171426D01*
X6307581Y-42192250D01*
X6300349Y-42212462D01*
X6291170Y-42231868D01*
X6280134Y-42250281D01*
X6267346Y-42267524D01*
X6252930Y-42283430D01*
X6237024Y-42297846D01*
X6219781Y-42310634D01*
X6201368Y-42321670D01*
X6181962Y-42330849D01*
X6161750Y-42338081D01*
X6140926Y-42343297D01*
X6119691Y-42346447D01*
X6098250Y-42347500D01*
X5585750Y-42347500D01*
X5564309Y-42346447D01*
X5543074Y-42343297D01*
X5522250Y-42338081D01*
X5502038Y-42330849D01*
X5482632Y-42321670D01*
X5464219Y-42310634D01*
X5446976Y-42297846D01*
X5431070Y-42283430D01*
X5416654Y-42267524D01*
X5403866Y-42250281D01*
X5392830Y-42231868D01*
X5383651Y-42212462D01*
X5376419Y-42192250D01*
X5371203Y-42171426D01*
X5368053Y-42150191D01*
X5367000Y-42128750D01*
X5367000Y-41691250D01*
X5368053Y-41669809D01*
X5371203Y-41648574D01*
X5376419Y-41627750D01*
X5383651Y-41607538D01*
X5392830Y-41588132D01*
X5403866Y-41569719D01*
X5416654Y-41552476D01*
X5431070Y-41536570D01*
X5446976Y-41522154D01*
X5464219Y-41509366D01*
X5482632Y-41498330D01*
X5502038Y-41489151D01*
X5522250Y-41481919D01*
X5543074Y-41476703D01*
X5564309Y-41473553D01*
X5585750Y-41472500D01*
X6098250Y-41472500D01*
X6119691Y-41473553D01*
G37*
G36*
X17426958Y-45155710D02*
G01*
X17441276Y-45157834D01*
X17455317Y-45161351D01*
X17468946Y-45166228D01*
X17482031Y-45172417D01*
X17494447Y-45179858D01*
X17506073Y-45188481D01*
X17516798Y-45198202D01*
X17526519Y-45208927D01*
X17535142Y-45220553D01*
X17542583Y-45232969D01*
X17548772Y-45246054D01*
X17553649Y-45259683D01*
X17557166Y-45273724D01*
X17559290Y-45288042D01*
X17560000Y-45302500D01*
X17560000Y-45647500D01*
X17559290Y-45661958D01*
X17557166Y-45676276D01*
X17553649Y-45690317D01*
X17548772Y-45703946D01*
X17542583Y-45717031D01*
X17535142Y-45729447D01*
X17526519Y-45741073D01*
X17516798Y-45751798D01*
X17506073Y-45761519D01*
X17494447Y-45770142D01*
X17482031Y-45777583D01*
X17468946Y-45783772D01*
X17455317Y-45788649D01*
X17441276Y-45792166D01*
X17426958Y-45794290D01*
X17412500Y-45795000D01*
X17117500Y-45795000D01*
X17103042Y-45794290D01*
X17088724Y-45792166D01*
X17074683Y-45788649D01*
X17061054Y-45783772D01*
X17047969Y-45777583D01*
X17035553Y-45770142D01*
X17023927Y-45761519D01*
X17013202Y-45751798D01*
X17003481Y-45741073D01*
X16994858Y-45729447D01*
X16987417Y-45717031D01*
X16981228Y-45703946D01*
X16976351Y-45690317D01*
X16972834Y-45676276D01*
X16970710Y-45661958D01*
X16970000Y-45647500D01*
X16970000Y-45302500D01*
X16970710Y-45288042D01*
X16972834Y-45273724D01*
X16976351Y-45259683D01*
X16981228Y-45246054D01*
X16987417Y-45232969D01*
X16994858Y-45220553D01*
X17003481Y-45208927D01*
X17013202Y-45198202D01*
X17023927Y-45188481D01*
X17035553Y-45179858D01*
X17047969Y-45172417D01*
X17061054Y-45166228D01*
X17074683Y-45161351D01*
X17088724Y-45157834D01*
X17103042Y-45155710D01*
X17117500Y-45155000D01*
X17412500Y-45155000D01*
X17426958Y-45155710D01*
G37*
G36*
X18396958Y-45155710D02*
G01*
X18411276Y-45157834D01*
X18425317Y-45161351D01*
X18438946Y-45166228D01*
X18452031Y-45172417D01*
X18464447Y-45179858D01*
X18476073Y-45188481D01*
X18486798Y-45198202D01*
X18496519Y-45208927D01*
X18505142Y-45220553D01*
X18512583Y-45232969D01*
X18518772Y-45246054D01*
X18523649Y-45259683D01*
X18527166Y-45273724D01*
X18529290Y-45288042D01*
X18530000Y-45302500D01*
X18530000Y-45647500D01*
X18529290Y-45661958D01*
X18527166Y-45676276D01*
X18523649Y-45690317D01*
X18518772Y-45703946D01*
X18512583Y-45717031D01*
X18505142Y-45729447D01*
X18496519Y-45741073D01*
X18486798Y-45751798D01*
X18476073Y-45761519D01*
X18464447Y-45770142D01*
X18452031Y-45777583D01*
X18438946Y-45783772D01*
X18425317Y-45788649D01*
X18411276Y-45792166D01*
X18396958Y-45794290D01*
X18382500Y-45795000D01*
X18087500Y-45795000D01*
X18073042Y-45794290D01*
X18058724Y-45792166D01*
X18044683Y-45788649D01*
X18031054Y-45783772D01*
X18017969Y-45777583D01*
X18005553Y-45770142D01*
X17993927Y-45761519D01*
X17983202Y-45751798D01*
X17973481Y-45741073D01*
X17964858Y-45729447D01*
X17957417Y-45717031D01*
X17951228Y-45703946D01*
X17946351Y-45690317D01*
X17942834Y-45676276D01*
X17940710Y-45661958D01*
X17940000Y-45647500D01*
X17940000Y-45302500D01*
X17940710Y-45288042D01*
X17942834Y-45273724D01*
X17946351Y-45259683D01*
X17951228Y-45246054D01*
X17957417Y-45232969D01*
X17964858Y-45220553D01*
X17973481Y-45208927D01*
X17983202Y-45198202D01*
X17993927Y-45188481D01*
X18005553Y-45179858D01*
X18017969Y-45172417D01*
X18031054Y-45166228D01*
X18044683Y-45161351D01*
X18058724Y-45157834D01*
X18073042Y-45155710D01*
X18087500Y-45155000D01*
X18382500Y-45155000D01*
X18396958Y-45155710D01*
G37*
G36*
X11230142Y-45626174D02*
G01*
X11253803Y-45629684D01*
X11277007Y-45635496D01*
X11299529Y-45643554D01*
X11321153Y-45653782D01*
X11341670Y-45666079D01*
X11360883Y-45680329D01*
X11378607Y-45696393D01*
X11394671Y-45714117D01*
X11408921Y-45733330D01*
X11421218Y-45753847D01*
X11431446Y-45775471D01*
X11439504Y-45797993D01*
X11445316Y-45821197D01*
X11448826Y-45844858D01*
X11450000Y-45868750D01*
X11450000Y-46356250D01*
X11448826Y-46380142D01*
X11445316Y-46403803D01*
X11439504Y-46427007D01*
X11431446Y-46449529D01*
X11421218Y-46471153D01*
X11408921Y-46491670D01*
X11394671Y-46510883D01*
X11378607Y-46528607D01*
X11360883Y-46544671D01*
X11341670Y-46558921D01*
X11321153Y-46571218D01*
X11299529Y-46581446D01*
X11277007Y-46589504D01*
X11253803Y-46595316D01*
X11230142Y-46598826D01*
X11206250Y-46600000D01*
X10293750Y-46600000D01*
X10269858Y-46598826D01*
X10246197Y-46595316D01*
X10222993Y-46589504D01*
X10200471Y-46581446D01*
X10178847Y-46571218D01*
X10158330Y-46558921D01*
X10139117Y-46544671D01*
X10121393Y-46528607D01*
X10105329Y-46510883D01*
X10091079Y-46491670D01*
X10078782Y-46471153D01*
X10068554Y-46449529D01*
X10060496Y-46427007D01*
X10054684Y-46403803D01*
X10051174Y-46380142D01*
X10050000Y-46356250D01*
X10050000Y-45868750D01*
X10051174Y-45844858D01*
X10054684Y-45821197D01*
X10060496Y-45797993D01*
X10068554Y-45775471D01*
X10078782Y-45753847D01*
X10091079Y-45733330D01*
X10105329Y-45714117D01*
X10121393Y-45696393D01*
X10139117Y-45680329D01*
X10158330Y-45666079D01*
X10178847Y-45653782D01*
X10200471Y-45643554D01*
X10222993Y-45635496D01*
X10246197Y-45629684D01*
X10269858Y-45626174D01*
X10293750Y-45625000D01*
X11206250Y-45625000D01*
X11230142Y-45626174D01*
G37*
G36*
X11230142Y-43751174D02*
G01*
X11253803Y-43754684D01*
X11277007Y-43760496D01*
X11299529Y-43768554D01*
X11321153Y-43778782D01*
X11341670Y-43791079D01*
X11360883Y-43805329D01*
X11378607Y-43821393D01*
X11394671Y-43839117D01*
X11408921Y-43858330D01*
X11421218Y-43878847D01*
X11431446Y-43900471D01*
X11439504Y-43922993D01*
X11445316Y-43946197D01*
X11448826Y-43969858D01*
X11450000Y-43993750D01*
X11450000Y-44481250D01*
X11448826Y-44505142D01*
X11445316Y-44528803D01*
X11439504Y-44552007D01*
X11431446Y-44574529D01*
X11421218Y-44596153D01*
X11408921Y-44616670D01*
X11394671Y-44635883D01*
X11378607Y-44653607D01*
X11360883Y-44669671D01*
X11341670Y-44683921D01*
X11321153Y-44696218D01*
X11299529Y-44706446D01*
X11277007Y-44714504D01*
X11253803Y-44720316D01*
X11230142Y-44723826D01*
X11206250Y-44725000D01*
X10293750Y-44725000D01*
X10269858Y-44723826D01*
X10246197Y-44720316D01*
X10222993Y-44714504D01*
X10200471Y-44706446D01*
X10178847Y-44696218D01*
X10158330Y-44683921D01*
X10139117Y-44669671D01*
X10121393Y-44653607D01*
X10105329Y-44635883D01*
X10091079Y-44616670D01*
X10078782Y-44596153D01*
X10068554Y-44574529D01*
X10060496Y-44552007D01*
X10054684Y-44528803D01*
X10051174Y-44505142D01*
X10050000Y-44481250D01*
X10050000Y-43993750D01*
X10051174Y-43969858D01*
X10054684Y-43946197D01*
X10060496Y-43922993D01*
X10068554Y-43900471D01*
X10078782Y-43878847D01*
X10091079Y-43858330D01*
X10105329Y-43839117D01*
X10121393Y-43821393D01*
X10139117Y-43805329D01*
X10158330Y-43791079D01*
X10178847Y-43778782D01*
X10200471Y-43768554D01*
X10222993Y-43760496D01*
X10246197Y-43754684D01*
X10269858Y-43751174D01*
X10293750Y-43750000D01*
X11206250Y-43750000D01*
X11230142Y-43751174D01*
G37*
G36*
X12727691Y-43338553D02*
G01*
X12748926Y-43341703D01*
X12769750Y-43346919D01*
X12789962Y-43354151D01*
X12809368Y-43363330D01*
X12827781Y-43374366D01*
X12845024Y-43387154D01*
X12860930Y-43401570D01*
X12875346Y-43417476D01*
X12888134Y-43434719D01*
X12899170Y-43453132D01*
X12908349Y-43472538D01*
X12915581Y-43492750D01*
X12920797Y-43513574D01*
X12923947Y-43534809D01*
X12925000Y-43556250D01*
X12925000Y-43993750D01*
X12923947Y-44015191D01*
X12920797Y-44036426D01*
X12915581Y-44057250D01*
X12908349Y-44077462D01*
X12899170Y-44096868D01*
X12888134Y-44115281D01*
X12875346Y-44132524D01*
X12860930Y-44148430D01*
X12845024Y-44162846D01*
X12827781Y-44175634D01*
X12809368Y-44186670D01*
X12789962Y-44195849D01*
X12769750Y-44203081D01*
X12748926Y-44208297D01*
X12727691Y-44211447D01*
X12706250Y-44212500D01*
X12193750Y-44212500D01*
X12172309Y-44211447D01*
X12151074Y-44208297D01*
X12130250Y-44203081D01*
X12110038Y-44195849D01*
X12090632Y-44186670D01*
X12072219Y-44175634D01*
X12054976Y-44162846D01*
X12039070Y-44148430D01*
X12024654Y-44132524D01*
X12011866Y-44115281D01*
X12000830Y-44096868D01*
X11991651Y-44077462D01*
X11984419Y-44057250D01*
X11979203Y-44036426D01*
X11976053Y-44015191D01*
X11975000Y-43993750D01*
X11975000Y-43556250D01*
X11976053Y-43534809D01*
X11979203Y-43513574D01*
X11984419Y-43492750D01*
X11991651Y-43472538D01*
X12000830Y-43453132D01*
X12011866Y-43434719D01*
X12024654Y-43417476D01*
X12039070Y-43401570D01*
X12054976Y-43387154D01*
X12072219Y-43374366D01*
X12090632Y-43363330D01*
X12110038Y-43354151D01*
X12130250Y-43346919D01*
X12151074Y-43341703D01*
X12172309Y-43338553D01*
X12193750Y-43337500D01*
X12706250Y-43337500D01*
X12727691Y-43338553D01*
G37*
G36*
X12727691Y-44913553D02*
G01*
X12748926Y-44916703D01*
X12769750Y-44921919D01*
X12789962Y-44929151D01*
X12809368Y-44938330D01*
X12827781Y-44949366D01*
X12845024Y-44962154D01*
X12860930Y-44976570D01*
X12875346Y-44992476D01*
X12888134Y-45009719D01*
X12899170Y-45028132D01*
X12908349Y-45047538D01*
X12915581Y-45067750D01*
X12920797Y-45088574D01*
X12923947Y-45109809D01*
X12925000Y-45131250D01*
X12925000Y-45568750D01*
X12923947Y-45590191D01*
X12920797Y-45611426D01*
X12915581Y-45632250D01*
X12908349Y-45652462D01*
X12899170Y-45671868D01*
X12888134Y-45690281D01*
X12875346Y-45707524D01*
X12860930Y-45723430D01*
X12845024Y-45737846D01*
X12827781Y-45750634D01*
X12809368Y-45761670D01*
X12789962Y-45770849D01*
X12769750Y-45778081D01*
X12748926Y-45783297D01*
X12727691Y-45786447D01*
X12706250Y-45787500D01*
X12193750Y-45787500D01*
X12172309Y-45786447D01*
X12151074Y-45783297D01*
X12130250Y-45778081D01*
X12110038Y-45770849D01*
X12090632Y-45761670D01*
X12072219Y-45750634D01*
X12054976Y-45737846D01*
X12039070Y-45723430D01*
X12024654Y-45707524D01*
X12011866Y-45690281D01*
X12000830Y-45671868D01*
X11991651Y-45652462D01*
X11984419Y-45632250D01*
X11979203Y-45611426D01*
X11976053Y-45590191D01*
X11975000Y-45568750D01*
X11975000Y-45131250D01*
X11976053Y-45109809D01*
X11979203Y-45088574D01*
X11984419Y-45067750D01*
X11991651Y-45047538D01*
X12000830Y-45028132D01*
X12011866Y-45009719D01*
X12024654Y-44992476D01*
X12039070Y-44976570D01*
X12054976Y-44962154D01*
X12072219Y-44949366D01*
X12090632Y-44938330D01*
X12110038Y-44929151D01*
X12130250Y-44921919D01*
X12151074Y-44916703D01*
X12172309Y-44913553D01*
X12193750Y-44912500D01*
X12706250Y-44912500D01*
X12727691Y-44913553D01*
G37*
G36*
X3461958Y-12431510D02*
G01*
X3476276Y-12433634D01*
X3490317Y-12437151D01*
X3503946Y-12442028D01*
X3517031Y-12448217D01*
X3529447Y-12455658D01*
X3541073Y-12464281D01*
X3551798Y-12474002D01*
X3561519Y-12484727D01*
X3570142Y-12496353D01*
X3577583Y-12508769D01*
X3583772Y-12521854D01*
X3588649Y-12535483D01*
X3592166Y-12549524D01*
X3594290Y-12563842D01*
X3595000Y-12578300D01*
X3595000Y-12923300D01*
X3594290Y-12937758D01*
X3592166Y-12952076D01*
X3588649Y-12966117D01*
X3583772Y-12979746D01*
X3577583Y-12992831D01*
X3570142Y-13005247D01*
X3561519Y-13016873D01*
X3551798Y-13027598D01*
X3541073Y-13037319D01*
X3529447Y-13045942D01*
X3517031Y-13053383D01*
X3503946Y-13059572D01*
X3490317Y-13064449D01*
X3476276Y-13067966D01*
X3461958Y-13070090D01*
X3447500Y-13070800D01*
X3152500Y-13070800D01*
X3138042Y-13070090D01*
X3123724Y-13067966D01*
X3109683Y-13064449D01*
X3096054Y-13059572D01*
X3082969Y-13053383D01*
X3070553Y-13045942D01*
X3058927Y-13037319D01*
X3048202Y-13027598D01*
X3038481Y-13016873D01*
X3029858Y-13005247D01*
X3022417Y-12992831D01*
X3016228Y-12979746D01*
X3011351Y-12966117D01*
X3007834Y-12952076D01*
X3005710Y-12937758D01*
X3005000Y-12923300D01*
X3005000Y-12578300D01*
X3005710Y-12563842D01*
X3007834Y-12549524D01*
X3011351Y-12535483D01*
X3016228Y-12521854D01*
X3022417Y-12508769D01*
X3029858Y-12496353D01*
X3038481Y-12484727D01*
X3048202Y-12474002D01*
X3058927Y-12464281D01*
X3070553Y-12455658D01*
X3082969Y-12448217D01*
X3096054Y-12442028D01*
X3109683Y-12437151D01*
X3123724Y-12433634D01*
X3138042Y-12431510D01*
X3152500Y-12430800D01*
X3447500Y-12430800D01*
X3461958Y-12431510D01*
G37*
G36*
X4431958Y-12431510D02*
G01*
X4446276Y-12433634D01*
X4460317Y-12437151D01*
X4473946Y-12442028D01*
X4487031Y-12448217D01*
X4499447Y-12455658D01*
X4511073Y-12464281D01*
X4521798Y-12474002D01*
X4531519Y-12484727D01*
X4540142Y-12496353D01*
X4547583Y-12508769D01*
X4553772Y-12521854D01*
X4558649Y-12535483D01*
X4562166Y-12549524D01*
X4564290Y-12563842D01*
X4565000Y-12578300D01*
X4565000Y-12923300D01*
X4564290Y-12937758D01*
X4562166Y-12952076D01*
X4558649Y-12966117D01*
X4553772Y-12979746D01*
X4547583Y-12992831D01*
X4540142Y-13005247D01*
X4531519Y-13016873D01*
X4521798Y-13027598D01*
X4511073Y-13037319D01*
X4499447Y-13045942D01*
X4487031Y-13053383D01*
X4473946Y-13059572D01*
X4460317Y-13064449D01*
X4446276Y-13067966D01*
X4431958Y-13070090D01*
X4417500Y-13070800D01*
X4122500Y-13070800D01*
X4108042Y-13070090D01*
X4093724Y-13067966D01*
X4079683Y-13064449D01*
X4066054Y-13059572D01*
X4052969Y-13053383D01*
X4040553Y-13045942D01*
X4028927Y-13037319D01*
X4018202Y-13027598D01*
X4008481Y-13016873D01*
X3999858Y-13005247D01*
X3992417Y-12992831D01*
X3986228Y-12979746D01*
X3981351Y-12966117D01*
X3977834Y-12952076D01*
X3975710Y-12937758D01*
X3975000Y-12923300D01*
X3975000Y-12578300D01*
X3975710Y-12563842D01*
X3977834Y-12549524D01*
X3981351Y-12535483D01*
X3986228Y-12521854D01*
X3992417Y-12508769D01*
X3999858Y-12496353D01*
X4008481Y-12484727D01*
X4018202Y-12474002D01*
X4028927Y-12464281D01*
X4040553Y-12455658D01*
X4052969Y-12448217D01*
X4066054Y-12442028D01*
X4079683Y-12437151D01*
X4093724Y-12433634D01*
X4108042Y-12431510D01*
X4122500Y-12430800D01*
X4417500Y-12430800D01*
X4431958Y-12431510D01*
G37*
G36*
X6303958Y-6183110D02*
G01*
X6318276Y-6185234D01*
X6332317Y-6188751D01*
X6345946Y-6193628D01*
X6359031Y-6199817D01*
X6371447Y-6207258D01*
X6383073Y-6215881D01*
X6393798Y-6225602D01*
X6403519Y-6236327D01*
X6412142Y-6247953D01*
X6419583Y-6260369D01*
X6425772Y-6273454D01*
X6430649Y-6287083D01*
X6434166Y-6301124D01*
X6436290Y-6315442D01*
X6437000Y-6329900D01*
X6437000Y-6674900D01*
X6436290Y-6689358D01*
X6434166Y-6703676D01*
X6430649Y-6717717D01*
X6425772Y-6731346D01*
X6419583Y-6744431D01*
X6412142Y-6756847D01*
X6403519Y-6768473D01*
X6393798Y-6779198D01*
X6383073Y-6788919D01*
X6371447Y-6797542D01*
X6359031Y-6804983D01*
X6345946Y-6811172D01*
X6332317Y-6816049D01*
X6318276Y-6819566D01*
X6303958Y-6821690D01*
X6289500Y-6822400D01*
X5994500Y-6822400D01*
X5980042Y-6821690D01*
X5965724Y-6819566D01*
X5951683Y-6816049D01*
X5938054Y-6811172D01*
X5924969Y-6804983D01*
X5912553Y-6797542D01*
X5900927Y-6788919D01*
X5890202Y-6779198D01*
X5880481Y-6768473D01*
X5871858Y-6756847D01*
X5864417Y-6744431D01*
X5858228Y-6731346D01*
X5853351Y-6717717D01*
X5849834Y-6703676D01*
X5847710Y-6689358D01*
X5847000Y-6674900D01*
X5847000Y-6329900D01*
X5847710Y-6315442D01*
X5849834Y-6301124D01*
X5853351Y-6287083D01*
X5858228Y-6273454D01*
X5864417Y-6260369D01*
X5871858Y-6247953D01*
X5880481Y-6236327D01*
X5890202Y-6225602D01*
X5900927Y-6215881D01*
X5912553Y-6207258D01*
X5924969Y-6199817D01*
X5938054Y-6193628D01*
X5951683Y-6188751D01*
X5965724Y-6185234D01*
X5980042Y-6183110D01*
X5994500Y-6182400D01*
X6289500Y-6182400D01*
X6303958Y-6183110D01*
G37*
G36*
X7273958Y-6183110D02*
G01*
X7288276Y-6185234D01*
X7302317Y-6188751D01*
X7315946Y-6193628D01*
X7329031Y-6199817D01*
X7341447Y-6207258D01*
X7353073Y-6215881D01*
X7363798Y-6225602D01*
X7373519Y-6236327D01*
X7382142Y-6247953D01*
X7389583Y-6260369D01*
X7395772Y-6273454D01*
X7400649Y-6287083D01*
X7404166Y-6301124D01*
X7406290Y-6315442D01*
X7407000Y-6329900D01*
X7407000Y-6674900D01*
X7406290Y-6689358D01*
X7404166Y-6703676D01*
X7400649Y-6717717D01*
X7395772Y-6731346D01*
X7389583Y-6744431D01*
X7382142Y-6756847D01*
X7373519Y-6768473D01*
X7363798Y-6779198D01*
X7353073Y-6788919D01*
X7341447Y-6797542D01*
X7329031Y-6804983D01*
X7315946Y-6811172D01*
X7302317Y-6816049D01*
X7288276Y-6819566D01*
X7273958Y-6821690D01*
X7259500Y-6822400D01*
X6964500Y-6822400D01*
X6950042Y-6821690D01*
X6935724Y-6819566D01*
X6921683Y-6816049D01*
X6908054Y-6811172D01*
X6894969Y-6804983D01*
X6882553Y-6797542D01*
X6870927Y-6788919D01*
X6860202Y-6779198D01*
X6850481Y-6768473D01*
X6841858Y-6756847D01*
X6834417Y-6744431D01*
X6828228Y-6731346D01*
X6823351Y-6717717D01*
X6819834Y-6703676D01*
X6817710Y-6689358D01*
X6817000Y-6674900D01*
X6817000Y-6329900D01*
X6817710Y-6315442D01*
X6819834Y-6301124D01*
X6823351Y-6287083D01*
X6828228Y-6273454D01*
X6834417Y-6260369D01*
X6841858Y-6247953D01*
X6850481Y-6236327D01*
X6860202Y-6225602D01*
X6870927Y-6215881D01*
X6882553Y-6207258D01*
X6894969Y-6199817D01*
X6908054Y-6193628D01*
X6921683Y-6188751D01*
X6935724Y-6185234D01*
X6950042Y-6183110D01*
X6964500Y-6182400D01*
X7259500Y-6182400D01*
X7273958Y-6183110D01*
G37*
G36*
X836491Y-6573953D02*
G01*
X857726Y-6577103D01*
X878550Y-6582319D01*
X898762Y-6589551D01*
X918168Y-6598730D01*
X936581Y-6609766D01*
X953824Y-6622554D01*
X969730Y-6636970D01*
X984146Y-6652876D01*
X996934Y-6670119D01*
X1007970Y-6688532D01*
X1017149Y-6707938D01*
X1024381Y-6728150D01*
X1029597Y-6748974D01*
X1032747Y-6770209D01*
X1033800Y-6791650D01*
X1033800Y-7229150D01*
X1032747Y-7250591D01*
X1029597Y-7271826D01*
X1024381Y-7292650D01*
X1017149Y-7312862D01*
X1007970Y-7332268D01*
X996934Y-7350681D01*
X984146Y-7367924D01*
X969730Y-7383830D01*
X953824Y-7398246D01*
X936581Y-7411034D01*
X918168Y-7422070D01*
X898762Y-7431249D01*
X878550Y-7438481D01*
X857726Y-7443697D01*
X836491Y-7446847D01*
X815050Y-7447900D01*
X302550Y-7447900D01*
X281109Y-7446847D01*
X259874Y-7443697D01*
X239050Y-7438481D01*
X218838Y-7431249D01*
X199432Y-7422070D01*
X181019Y-7411034D01*
X163776Y-7398246D01*
X147870Y-7383830D01*
X133454Y-7367924D01*
X120666Y-7350681D01*
X109630Y-7332268D01*
X100451Y-7312862D01*
X93219Y-7292650D01*
X88003Y-7271826D01*
X84853Y-7250591D01*
X83800Y-7229150D01*
X83800Y-6791650D01*
X84853Y-6770209D01*
X88003Y-6748974D01*
X93219Y-6728150D01*
X100451Y-6707938D01*
X109630Y-6688532D01*
X120666Y-6670119D01*
X133454Y-6652876D01*
X147870Y-6636970D01*
X163776Y-6622554D01*
X181019Y-6609766D01*
X199432Y-6598730D01*
X218838Y-6589551D01*
X239050Y-6582319D01*
X259874Y-6577103D01*
X281109Y-6573953D01*
X302550Y-6572900D01*
X815050Y-6572900D01*
X836491Y-6573953D01*
G37*
G36*
X836491Y-8148953D02*
G01*
X857726Y-8152103D01*
X878550Y-8157319D01*
X898762Y-8164551D01*
X918168Y-8173730D01*
X936581Y-8184766D01*
X953824Y-8197554D01*
X969730Y-8211970D01*
X984146Y-8227876D01*
X996934Y-8245119D01*
X1007970Y-8263532D01*
X1017149Y-8282938D01*
X1024381Y-8303150D01*
X1029597Y-8323974D01*
X1032747Y-8345209D01*
X1033800Y-8366650D01*
X1033800Y-8804150D01*
X1032747Y-8825591D01*
X1029597Y-8846826D01*
X1024381Y-8867650D01*
X1017149Y-8887862D01*
X1007970Y-8907268D01*
X996934Y-8925681D01*
X984146Y-8942924D01*
X969730Y-8958830D01*
X953824Y-8973246D01*
X936581Y-8986034D01*
X918168Y-8997070D01*
X898762Y-9006249D01*
X878550Y-9013481D01*
X857726Y-9018697D01*
X836491Y-9021847D01*
X815050Y-9022900D01*
X302550Y-9022900D01*
X281109Y-9021847D01*
X259874Y-9018697D01*
X239050Y-9013481D01*
X218838Y-9006249D01*
X199432Y-8997070D01*
X181019Y-8986034D01*
X163776Y-8973246D01*
X147870Y-8958830D01*
X133454Y-8942924D01*
X120666Y-8925681D01*
X109630Y-8907268D01*
X100451Y-8887862D01*
X93219Y-8867650D01*
X88003Y-8846826D01*
X84853Y-8825591D01*
X83800Y-8804150D01*
X83800Y-8366650D01*
X84853Y-8345209D01*
X88003Y-8323974D01*
X93219Y-8303150D01*
X100451Y-8282938D01*
X109630Y-8263532D01*
X120666Y-8245119D01*
X133454Y-8227876D01*
X147870Y-8211970D01*
X163776Y-8197554D01*
X181019Y-8184766D01*
X199432Y-8173730D01*
X218838Y-8164551D01*
X239050Y-8157319D01*
X259874Y-8152103D01*
X281109Y-8148953D01*
X302550Y-8147900D01*
X815050Y-8147900D01*
X836491Y-8148953D01*
G37*
G36*
X-4895042Y-24318710D02*
G01*
X-4880724Y-24320834D01*
X-4866683Y-24324351D01*
X-4853054Y-24329228D01*
X-4839969Y-24335417D01*
X-4827553Y-24342858D01*
X-4815927Y-24351481D01*
X-4805202Y-24361202D01*
X-4795481Y-24371927D01*
X-4786858Y-24383553D01*
X-4779417Y-24395969D01*
X-4773228Y-24409054D01*
X-4768351Y-24422683D01*
X-4764834Y-24436724D01*
X-4762710Y-24451042D01*
X-4762000Y-24465500D01*
X-4762000Y-24810500D01*
X-4762710Y-24824958D01*
X-4764834Y-24839276D01*
X-4768351Y-24853317D01*
X-4773228Y-24866946D01*
X-4779417Y-24880031D01*
X-4786858Y-24892447D01*
X-4795481Y-24904073D01*
X-4805202Y-24914798D01*
X-4815927Y-24924519D01*
X-4827553Y-24933142D01*
X-4839969Y-24940583D01*
X-4853054Y-24946772D01*
X-4866683Y-24951649D01*
X-4880724Y-24955166D01*
X-4895042Y-24957290D01*
X-4909500Y-24958000D01*
X-5204500Y-24958000D01*
X-5218958Y-24957290D01*
X-5233276Y-24955166D01*
X-5247317Y-24951649D01*
X-5260946Y-24946772D01*
X-5274031Y-24940583D01*
X-5286447Y-24933142D01*
X-5298073Y-24924519D01*
X-5308798Y-24914798D01*
X-5318519Y-24904073D01*
X-5327142Y-24892447D01*
X-5334583Y-24880031D01*
X-5340772Y-24866946D01*
X-5345649Y-24853317D01*
X-5349166Y-24839276D01*
X-5351290Y-24824958D01*
X-5352000Y-24810500D01*
X-5352000Y-24465500D01*
X-5351290Y-24451042D01*
X-5349166Y-24436724D01*
X-5345649Y-24422683D01*
X-5340772Y-24409054D01*
X-5334583Y-24395969D01*
X-5327142Y-24383553D01*
X-5318519Y-24371927D01*
X-5308798Y-24361202D01*
X-5298073Y-24351481D01*
X-5286447Y-24342858D01*
X-5274031Y-24335417D01*
X-5260946Y-24329228D01*
X-5247317Y-24324351D01*
X-5233276Y-24320834D01*
X-5218958Y-24318710D01*
X-5204500Y-24318000D01*
X-4909500Y-24318000D01*
X-4895042Y-24318710D01*
G37*
G36*
X-3925042Y-24318710D02*
G01*
X-3910724Y-24320834D01*
X-3896683Y-24324351D01*
X-3883054Y-24329228D01*
X-3869969Y-24335417D01*
X-3857553Y-24342858D01*
X-3845927Y-24351481D01*
X-3835202Y-24361202D01*
X-3825481Y-24371927D01*
X-3816858Y-24383553D01*
X-3809417Y-24395969D01*
X-3803228Y-24409054D01*
X-3798351Y-24422683D01*
X-3794834Y-24436724D01*
X-3792710Y-24451042D01*
X-3792000Y-24465500D01*
X-3792000Y-24810500D01*
X-3792710Y-24824958D01*
X-3794834Y-24839276D01*
X-3798351Y-24853317D01*
X-3803228Y-24866946D01*
X-3809417Y-24880031D01*
X-3816858Y-24892447D01*
X-3825481Y-24904073D01*
X-3835202Y-24914798D01*
X-3845927Y-24924519D01*
X-3857553Y-24933142D01*
X-3869969Y-24940583D01*
X-3883054Y-24946772D01*
X-3896683Y-24951649D01*
X-3910724Y-24955166D01*
X-3925042Y-24957290D01*
X-3939500Y-24958000D01*
X-4234500Y-24958000D01*
X-4248958Y-24957290D01*
X-4263276Y-24955166D01*
X-4277317Y-24951649D01*
X-4290946Y-24946772D01*
X-4304031Y-24940583D01*
X-4316447Y-24933142D01*
X-4328073Y-24924519D01*
X-4338798Y-24914798D01*
X-4348519Y-24904073D01*
X-4357142Y-24892447D01*
X-4364583Y-24880031D01*
X-4370772Y-24866946D01*
X-4375649Y-24853317D01*
X-4379166Y-24839276D01*
X-4381290Y-24824958D01*
X-4382000Y-24810500D01*
X-4382000Y-24465500D01*
X-4381290Y-24451042D01*
X-4379166Y-24436724D01*
X-4375649Y-24422683D01*
X-4370772Y-24409054D01*
X-4364583Y-24395969D01*
X-4357142Y-24383553D01*
X-4348519Y-24371927D01*
X-4338798Y-24361202D01*
X-4328073Y-24351481D01*
X-4316447Y-24342858D01*
X-4304031Y-24335417D01*
X-4290946Y-24329228D01*
X-4277317Y-24324351D01*
X-4263276Y-24320834D01*
X-4248958Y-24318710D01*
X-4234500Y-24318000D01*
X-3939500Y-24318000D01*
X-3925042Y-24318710D01*
G37*
G36*
X6181358Y-17744510D02*
G01*
X6195676Y-17746634D01*
X6209717Y-17750151D01*
X6223346Y-17755028D01*
X6236431Y-17761217D01*
X6248847Y-17768658D01*
X6260473Y-17777281D01*
X6271198Y-17787002D01*
X6280919Y-17797727D01*
X6289542Y-17809353D01*
X6296983Y-17821769D01*
X6303172Y-17834854D01*
X6308049Y-17848483D01*
X6311566Y-17862524D01*
X6313690Y-17876842D01*
X6314400Y-17891300D01*
X6314400Y-18186300D01*
X6313690Y-18200758D01*
X6311566Y-18215076D01*
X6308049Y-18229117D01*
X6303172Y-18242746D01*
X6296983Y-18255831D01*
X6289542Y-18268247D01*
X6280919Y-18279873D01*
X6271198Y-18290598D01*
X6260473Y-18300319D01*
X6248847Y-18308942D01*
X6236431Y-18316383D01*
X6223346Y-18322572D01*
X6209717Y-18327449D01*
X6195676Y-18330966D01*
X6181358Y-18333090D01*
X6166900Y-18333800D01*
X5821900Y-18333800D01*
X5807442Y-18333090D01*
X5793124Y-18330966D01*
X5779083Y-18327449D01*
X5765454Y-18322572D01*
X5752369Y-18316383D01*
X5739953Y-18308942D01*
X5728327Y-18300319D01*
X5717602Y-18290598D01*
X5707881Y-18279873D01*
X5699258Y-18268247D01*
X5691817Y-18255831D01*
X5685628Y-18242746D01*
X5680751Y-18229117D01*
X5677234Y-18215076D01*
X5675110Y-18200758D01*
X5674400Y-18186300D01*
X5674400Y-17891300D01*
X5675110Y-17876842D01*
X5677234Y-17862524D01*
X5680751Y-17848483D01*
X5685628Y-17834854D01*
X5691817Y-17821769D01*
X5699258Y-17809353D01*
X5707881Y-17797727D01*
X5717602Y-17787002D01*
X5728327Y-17777281D01*
X5739953Y-17768658D01*
X5752369Y-17761217D01*
X5765454Y-17755028D01*
X5779083Y-17750151D01*
X5793124Y-17746634D01*
X5807442Y-17744510D01*
X5821900Y-17743800D01*
X6166900Y-17743800D01*
X6181358Y-17744510D01*
G37*
G36*
X6181358Y-16774510D02*
G01*
X6195676Y-16776634D01*
X6209717Y-16780151D01*
X6223346Y-16785028D01*
X6236431Y-16791217D01*
X6248847Y-16798658D01*
X6260473Y-16807281D01*
X6271198Y-16817002D01*
X6280919Y-16827727D01*
X6289542Y-16839353D01*
X6296983Y-16851769D01*
X6303172Y-16864854D01*
X6308049Y-16878483D01*
X6311566Y-16892524D01*
X6313690Y-16906842D01*
X6314400Y-16921300D01*
X6314400Y-17216300D01*
X6313690Y-17230758D01*
X6311566Y-17245076D01*
X6308049Y-17259117D01*
X6303172Y-17272746D01*
X6296983Y-17285831D01*
X6289542Y-17298247D01*
X6280919Y-17309873D01*
X6271198Y-17320598D01*
X6260473Y-17330319D01*
X6248847Y-17338942D01*
X6236431Y-17346383D01*
X6223346Y-17352572D01*
X6209717Y-17357449D01*
X6195676Y-17360966D01*
X6181358Y-17363090D01*
X6166900Y-17363800D01*
X5821900Y-17363800D01*
X5807442Y-17363090D01*
X5793124Y-17360966D01*
X5779083Y-17357449D01*
X5765454Y-17352572D01*
X5752369Y-17346383D01*
X5739953Y-17338942D01*
X5728327Y-17330319D01*
X5717602Y-17320598D01*
X5707881Y-17309873D01*
X5699258Y-17298247D01*
X5691817Y-17285831D01*
X5685628Y-17272746D01*
X5680751Y-17259117D01*
X5677234Y-17245076D01*
X5675110Y-17230758D01*
X5674400Y-17216300D01*
X5674400Y-16921300D01*
X5675110Y-16906842D01*
X5677234Y-16892524D01*
X5680751Y-16878483D01*
X5685628Y-16864854D01*
X5691817Y-16851769D01*
X5699258Y-16839353D01*
X5707881Y-16827727D01*
X5717602Y-16817002D01*
X5728327Y-16807281D01*
X5739953Y-16798658D01*
X5752369Y-16791217D01*
X5765454Y-16785028D01*
X5779083Y-16780151D01*
X5793124Y-16776634D01*
X5807442Y-16774510D01*
X5821900Y-16773800D01*
X6166900Y-16773800D01*
X6181358Y-16774510D01*
G37*
D23*
X4350000Y-53721000D03*
X8350000Y-53721000D03*
D28*
X11414000Y-9525000D03*
X9414000Y-10475000D03*
X9414000Y-8575000D03*
D10*
G36*
X-2734042Y-24701710D02*
G01*
X-2719724Y-24703834D01*
X-2705683Y-24707351D01*
X-2692054Y-24712228D01*
X-2678969Y-24718417D01*
X-2666553Y-24725858D01*
X-2654927Y-24734481D01*
X-2644202Y-24744202D01*
X-2634481Y-24754927D01*
X-2625858Y-24766553D01*
X-2618417Y-24778969D01*
X-2612228Y-24792054D01*
X-2607351Y-24805683D01*
X-2603834Y-24819724D01*
X-2601710Y-24834042D01*
X-2601000Y-24848500D01*
X-2601000Y-25143500D01*
X-2601710Y-25157958D01*
X-2603834Y-25172276D01*
X-2607351Y-25186317D01*
X-2612228Y-25199946D01*
X-2618417Y-25213031D01*
X-2625858Y-25225447D01*
X-2634481Y-25237073D01*
X-2644202Y-25247798D01*
X-2654927Y-25257519D01*
X-2666553Y-25266142D01*
X-2678969Y-25273583D01*
X-2692054Y-25279772D01*
X-2705683Y-25284649D01*
X-2719724Y-25288166D01*
X-2734042Y-25290290D01*
X-2748500Y-25291000D01*
X-3093500Y-25291000D01*
X-3107958Y-25290290D01*
X-3122276Y-25288166D01*
X-3136317Y-25284649D01*
X-3149946Y-25279772D01*
X-3163031Y-25273583D01*
X-3175447Y-25266142D01*
X-3187073Y-25257519D01*
X-3197798Y-25247798D01*
X-3207519Y-25237073D01*
X-3216142Y-25225447D01*
X-3223583Y-25213031D01*
X-3229772Y-25199946D01*
X-3234649Y-25186317D01*
X-3238166Y-25172276D01*
X-3240290Y-25157958D01*
X-3241000Y-25143500D01*
X-3241000Y-24848500D01*
X-3240290Y-24834042D01*
X-3238166Y-24819724D01*
X-3234649Y-24805683D01*
X-3229772Y-24792054D01*
X-3223583Y-24778969D01*
X-3216142Y-24766553D01*
X-3207519Y-24754927D01*
X-3197798Y-24744202D01*
X-3187073Y-24734481D01*
X-3175447Y-24725858D01*
X-3163031Y-24718417D01*
X-3149946Y-24712228D01*
X-3136317Y-24707351D01*
X-3122276Y-24703834D01*
X-3107958Y-24701710D01*
X-3093500Y-24701000D01*
X-2748500Y-24701000D01*
X-2734042Y-24701710D01*
G37*
G36*
X-2734042Y-23731710D02*
G01*
X-2719724Y-23733834D01*
X-2705683Y-23737351D01*
X-2692054Y-23742228D01*
X-2678969Y-23748417D01*
X-2666553Y-23755858D01*
X-2654927Y-23764481D01*
X-2644202Y-23774202D01*
X-2634481Y-23784927D01*
X-2625858Y-23796553D01*
X-2618417Y-23808969D01*
X-2612228Y-23822054D01*
X-2607351Y-23835683D01*
X-2603834Y-23849724D01*
X-2601710Y-23864042D01*
X-2601000Y-23878500D01*
X-2601000Y-24173500D01*
X-2601710Y-24187958D01*
X-2603834Y-24202276D01*
X-2607351Y-24216317D01*
X-2612228Y-24229946D01*
X-2618417Y-24243031D01*
X-2625858Y-24255447D01*
X-2634481Y-24267073D01*
X-2644202Y-24277798D01*
X-2654927Y-24287519D01*
X-2666553Y-24296142D01*
X-2678969Y-24303583D01*
X-2692054Y-24309772D01*
X-2705683Y-24314649D01*
X-2719724Y-24318166D01*
X-2734042Y-24320290D01*
X-2748500Y-24321000D01*
X-3093500Y-24321000D01*
X-3107958Y-24320290D01*
X-3122276Y-24318166D01*
X-3136317Y-24314649D01*
X-3149946Y-24309772D01*
X-3163031Y-24303583D01*
X-3175447Y-24296142D01*
X-3187073Y-24287519D01*
X-3197798Y-24277798D01*
X-3207519Y-24267073D01*
X-3216142Y-24255447D01*
X-3223583Y-24243031D01*
X-3229772Y-24229946D01*
X-3234649Y-24216317D01*
X-3238166Y-24202276D01*
X-3240290Y-24187958D01*
X-3241000Y-24173500D01*
X-3241000Y-23878500D01*
X-3240290Y-23864042D01*
X-3238166Y-23849724D01*
X-3234649Y-23835683D01*
X-3229772Y-23822054D01*
X-3223583Y-23808969D01*
X-3216142Y-23796553D01*
X-3207519Y-23784927D01*
X-3197798Y-23774202D01*
X-3187073Y-23764481D01*
X-3175447Y-23755858D01*
X-3163031Y-23748417D01*
X-3149946Y-23742228D01*
X-3136317Y-23737351D01*
X-3122276Y-23733834D01*
X-3107958Y-23731710D01*
X-3093500Y-23731000D01*
X-2748500Y-23731000D01*
X-2734042Y-23731710D01*
G37*
G36*
X5241958Y-15581110D02*
G01*
X5256276Y-15583234D01*
X5270317Y-15586751D01*
X5283946Y-15591628D01*
X5297031Y-15597817D01*
X5309447Y-15605258D01*
X5321073Y-15613881D01*
X5331798Y-15623602D01*
X5341519Y-15634327D01*
X5350142Y-15645953D01*
X5357583Y-15658369D01*
X5363772Y-15671454D01*
X5368649Y-15685083D01*
X5372166Y-15699124D01*
X5374290Y-15713442D01*
X5375000Y-15727900D01*
X5375000Y-16072900D01*
X5374290Y-16087358D01*
X5372166Y-16101676D01*
X5368649Y-16115717D01*
X5363772Y-16129346D01*
X5357583Y-16142431D01*
X5350142Y-16154847D01*
X5341519Y-16166473D01*
X5331798Y-16177198D01*
X5321073Y-16186919D01*
X5309447Y-16195542D01*
X5297031Y-16202983D01*
X5283946Y-16209172D01*
X5270317Y-16214049D01*
X5256276Y-16217566D01*
X5241958Y-16219690D01*
X5227500Y-16220400D01*
X4932500Y-16220400D01*
X4918042Y-16219690D01*
X4903724Y-16217566D01*
X4889683Y-16214049D01*
X4876054Y-16209172D01*
X4862969Y-16202983D01*
X4850553Y-16195542D01*
X4838927Y-16186919D01*
X4828202Y-16177198D01*
X4818481Y-16166473D01*
X4809858Y-16154847D01*
X4802417Y-16142431D01*
X4796228Y-16129346D01*
X4791351Y-16115717D01*
X4787834Y-16101676D01*
X4785710Y-16087358D01*
X4785000Y-16072900D01*
X4785000Y-15727900D01*
X4785710Y-15713442D01*
X4787834Y-15699124D01*
X4791351Y-15685083D01*
X4796228Y-15671454D01*
X4802417Y-15658369D01*
X4809858Y-15645953D01*
X4818481Y-15634327D01*
X4828202Y-15623602D01*
X4838927Y-15613881D01*
X4850553Y-15605258D01*
X4862969Y-15597817D01*
X4876054Y-15591628D01*
X4889683Y-15586751D01*
X4903724Y-15583234D01*
X4918042Y-15581110D01*
X4932500Y-15580400D01*
X5227500Y-15580400D01*
X5241958Y-15581110D01*
G37*
G36*
X6211958Y-15581110D02*
G01*
X6226276Y-15583234D01*
X6240317Y-15586751D01*
X6253946Y-15591628D01*
X6267031Y-15597817D01*
X6279447Y-15605258D01*
X6291073Y-15613881D01*
X6301798Y-15623602D01*
X6311519Y-15634327D01*
X6320142Y-15645953D01*
X6327583Y-15658369D01*
X6333772Y-15671454D01*
X6338649Y-15685083D01*
X6342166Y-15699124D01*
X6344290Y-15713442D01*
X6345000Y-15727900D01*
X6345000Y-16072900D01*
X6344290Y-16087358D01*
X6342166Y-16101676D01*
X6338649Y-16115717D01*
X6333772Y-16129346D01*
X6327583Y-16142431D01*
X6320142Y-16154847D01*
X6311519Y-16166473D01*
X6301798Y-16177198D01*
X6291073Y-16186919D01*
X6279447Y-16195542D01*
X6267031Y-16202983D01*
X6253946Y-16209172D01*
X6240317Y-16214049D01*
X6226276Y-16217566D01*
X6211958Y-16219690D01*
X6197500Y-16220400D01*
X5902500Y-16220400D01*
X5888042Y-16219690D01*
X5873724Y-16217566D01*
X5859683Y-16214049D01*
X5846054Y-16209172D01*
X5832969Y-16202983D01*
X5820553Y-16195542D01*
X5808927Y-16186919D01*
X5798202Y-16177198D01*
X5788481Y-16166473D01*
X5779858Y-16154847D01*
X5772417Y-16142431D01*
X5766228Y-16129346D01*
X5761351Y-16115717D01*
X5757834Y-16101676D01*
X5755710Y-16087358D01*
X5755000Y-16072900D01*
X5755000Y-15727900D01*
X5755710Y-15713442D01*
X5757834Y-15699124D01*
X5761351Y-15685083D01*
X5766228Y-15671454D01*
X5772417Y-15658369D01*
X5779858Y-15645953D01*
X5788481Y-15634327D01*
X5798202Y-15623602D01*
X5808927Y-15613881D01*
X5820553Y-15605258D01*
X5832969Y-15597817D01*
X5846054Y-15591628D01*
X5859683Y-15586751D01*
X5873724Y-15583234D01*
X5888042Y-15581110D01*
X5902500Y-15580400D01*
X6197500Y-15580400D01*
X6211958Y-15581110D01*
G37*
G36*
X11464958Y-52385710D02*
G01*
X11479276Y-52387834D01*
X11493317Y-52391351D01*
X11506946Y-52396228D01*
X11520031Y-52402417D01*
X11532447Y-52409858D01*
X11544073Y-52418481D01*
X11554798Y-52428202D01*
X11564519Y-52438927D01*
X11573142Y-52450553D01*
X11580583Y-52462969D01*
X11586772Y-52476054D01*
X11591649Y-52489683D01*
X11595166Y-52503724D01*
X11597290Y-52518042D01*
X11598000Y-52532500D01*
X11598000Y-52877500D01*
X11597290Y-52891958D01*
X11595166Y-52906276D01*
X11591649Y-52920317D01*
X11586772Y-52933946D01*
X11580583Y-52947031D01*
X11573142Y-52959447D01*
X11564519Y-52971073D01*
X11554798Y-52981798D01*
X11544073Y-52991519D01*
X11532447Y-53000142D01*
X11520031Y-53007583D01*
X11506946Y-53013772D01*
X11493317Y-53018649D01*
X11479276Y-53022166D01*
X11464958Y-53024290D01*
X11450500Y-53025000D01*
X11155500Y-53025000D01*
X11141042Y-53024290D01*
X11126724Y-53022166D01*
X11112683Y-53018649D01*
X11099054Y-53013772D01*
X11085969Y-53007583D01*
X11073553Y-53000142D01*
X11061927Y-52991519D01*
X11051202Y-52981798D01*
X11041481Y-52971073D01*
X11032858Y-52959447D01*
X11025417Y-52947031D01*
X11019228Y-52933946D01*
X11014351Y-52920317D01*
X11010834Y-52906276D01*
X11008710Y-52891958D01*
X11008000Y-52877500D01*
X11008000Y-52532500D01*
X11008710Y-52518042D01*
X11010834Y-52503724D01*
X11014351Y-52489683D01*
X11019228Y-52476054D01*
X11025417Y-52462969D01*
X11032858Y-52450553D01*
X11041481Y-52438927D01*
X11051202Y-52428202D01*
X11061927Y-52418481D01*
X11073553Y-52409858D01*
X11085969Y-52402417D01*
X11099054Y-52396228D01*
X11112683Y-52391351D01*
X11126724Y-52387834D01*
X11141042Y-52385710D01*
X11155500Y-52385000D01*
X11450500Y-52385000D01*
X11464958Y-52385710D01*
G37*
G36*
X12434958Y-52385710D02*
G01*
X12449276Y-52387834D01*
X12463317Y-52391351D01*
X12476946Y-52396228D01*
X12490031Y-52402417D01*
X12502447Y-52409858D01*
X12514073Y-52418481D01*
X12524798Y-52428202D01*
X12534519Y-52438927D01*
X12543142Y-52450553D01*
X12550583Y-52462969D01*
X12556772Y-52476054D01*
X12561649Y-52489683D01*
X12565166Y-52503724D01*
X12567290Y-52518042D01*
X12568000Y-52532500D01*
X12568000Y-52877500D01*
X12567290Y-52891958D01*
X12565166Y-52906276D01*
X12561649Y-52920317D01*
X12556772Y-52933946D01*
X12550583Y-52947031D01*
X12543142Y-52959447D01*
X12534519Y-52971073D01*
X12524798Y-52981798D01*
X12514073Y-52991519D01*
X12502447Y-53000142D01*
X12490031Y-53007583D01*
X12476946Y-53013772D01*
X12463317Y-53018649D01*
X12449276Y-53022166D01*
X12434958Y-53024290D01*
X12420500Y-53025000D01*
X12125500Y-53025000D01*
X12111042Y-53024290D01*
X12096724Y-53022166D01*
X12082683Y-53018649D01*
X12069054Y-53013772D01*
X12055969Y-53007583D01*
X12043553Y-53000142D01*
X12031927Y-52991519D01*
X12021202Y-52981798D01*
X12011481Y-52971073D01*
X12002858Y-52959447D01*
X11995417Y-52947031D01*
X11989228Y-52933946D01*
X11984351Y-52920317D01*
X11980834Y-52906276D01*
X11978710Y-52891958D01*
X11978000Y-52877500D01*
X11978000Y-52532500D01*
X11978710Y-52518042D01*
X11980834Y-52503724D01*
X11984351Y-52489683D01*
X11989228Y-52476054D01*
X11995417Y-52462969D01*
X12002858Y-52450553D01*
X12011481Y-52438927D01*
X12021202Y-52428202D01*
X12031927Y-52418481D01*
X12043553Y-52409858D01*
X12055969Y-52402417D01*
X12069054Y-52396228D01*
X12082683Y-52391351D01*
X12096724Y-52387834D01*
X12111042Y-52385710D01*
X12125500Y-52385000D01*
X12420500Y-52385000D01*
X12434958Y-52385710D01*
G37*
D29*
X3068800Y-17150000D03*
X4368800Y-17150000D03*
X3718800Y-19050000D03*
X4368800Y-19050000D03*
X3068800Y-19050000D03*
X1473200Y-20812800D03*
X173200Y-20812800D03*
X823200Y-18912800D03*
X173200Y-18912800D03*
X1473200Y-18912800D03*
M02*
