M48
; DRILL file {KiCad 5.1.4-e60b266~84~ubuntu19.04.1} date Пт 04 окт 2019 13:32:46
; FORMAT={-:-/ absolute / metric / decimal}
; #@! TF.CreationDate,2019-10-04T13:32:46+08:00
; #@! TF.GenerationSoftware,Kicad,Pcbnew,5.1.4-e60b266~84~ubuntu19.04.1
; #@! TF.FileFunction,Plated,1,2,PTH
FMAT,2
METRIC
T1C0.400
T2C0.650
T3C0.800
T4C1.000
T5C3.200
%
G90
G05
T1
X-18.3Y-36.6
X-18.3Y-38.8
X-18.2Y-29.0
X-18.2Y-30.0
X-18.2Y-31.0
X-17.9Y-45.5
X-17.8Y-50.0
X-16.6Y-29.1
X-16.6Y-39.7
X-15.3Y-45.3
X-14.9Y-36.6
X-14.9Y-38.8
X-12.4Y-53.2
X-11.1Y3.9
X-10.575Y-43.525
X-10.5Y-36.1
X-10.4Y-4.0
X-9.9Y-46.7
X-9.8Y-49.45
X-9.8Y-50.4
X-9.5Y-25.1
X-9.5Y-28.2
X-8.8Y-5.4
X-8.4Y-43.7
X-8.3Y-40.7
X-8.2Y-22.7
X-7.7Y-10.7
X-7.6Y-52.2
X-7.575Y-49.7
X-6.985Y-3.937
X-6.66Y-47.43
X-6.5Y-33.5
X-6.223Y-10.668
X-6.223Y-14.732
X-6.2Y-40.5
X-5.7Y-45.3
X-5.63Y-48.51
X-5.62Y-49.52
X-5.57Y-47.29
X-5.5Y-46.3
X-5.075Y-43.6
X-5.0Y-44.6
X-4.8Y-20.2
X-4.8Y-23.5
X-4.7Y-7.2
X-4.4Y-46.8
X-4.4Y-50.3
X-4.0Y-43.6
X-4.0Y-44.6
X-3.93Y-51.23
X-3.8Y4.1
X-3.048Y-18.669
X-2.921Y-14.859
X-2.9Y-43.65
X-2.844Y-51.275
X-2.5Y-5.5
X-2.2Y-29.9
X-1.84Y-51.23
X-1.651Y-31.75
X-1.4Y-50.3
X-1.0Y-17.8
X-1.0Y-42.2
X-1.0Y-46.6
X-0.7Y-6.2
X-0.7Y-9.8
X-0.635Y-30.734
X-0.5Y-35.24
X-0.46Y-36.45
X-0.3Y-47.5
X-0.3Y-48.5
X-0.1Y-12.3
X-0.1Y-42.6
X-0.1Y-44.6
X-0.1Y-45.6
X-0.05Y-43.6
X0.4Y-40.6
X1.778Y-21.463
X1.8Y-55.9
X2.413Y-40.64
X2.413Y-41.783
X2.413Y-42.926
X2.413Y-44.069
X2.5Y-13.5
X2.54Y0.0
X2.81Y-35.48
X2.921Y-16.891
X3.15Y-50.85
X3.4Y-32.8
X3.81Y-3.81
X3.88Y-35.47
X4.0Y-9.8
X4.3Y4.0
X4.35Y-50.85
X4.953Y-3.81
X5.2Y-12.1
X5.207Y-19.558
X5.4Y-8.8
X6.604Y-15.494
X7.6Y-56.0
X7.62Y0.0
X8.255Y-6.731
X8.4Y-50.927
X8.89Y-46.482
X9.24Y-43.72
X9.24Y-44.72
X10.033Y-22.606
X11.0Y4.1
X11.684Y-21.082
X11.7Y-50.6
X12.065Y-24.511
X12.4Y-54.7
X13.081Y-16.129
X13.65Y-43.07
X13.716Y-23.241
X13.9Y-50.2
X14.097Y-46.99
X14.873Y-43.071
X14.9Y-40.44
X14.97Y-45.974
X15.113Y-21.717
X16.0Y-43.04
X16.2Y3.1
X16.2Y-1.2
X16.25Y-45.71
X16.891Y-40.4
X17.272Y-15.621
X17.272Y-16.891
X17.5Y-48.0
X18.3Y-47.2
X18.7Y-52.0
X18.796Y-17.526
X19.05Y-5.842
X19.1Y-1.2
X19.304Y-19.304
X19.304Y-30.607
X19.304Y-49.657
T3
X5.39Y-33.02
X8.89Y-33.02
X13.772Y-34.671
X17.272Y-34.671
X13.772Y-26.162
X17.272Y-26.162
X-6.35Y-1.27
X-3.81Y1.27
X-1.27Y-1.27
X11.105Y-17.907
X14.605Y-17.907
X5.39Y-24.511
X8.89Y-24.511
T4
X-11.43Y1.27
X-11.43Y-1.27
X-8.89Y1.27
X-8.89Y-1.27
X-6.35Y1.27
X-3.81Y-1.27
X-1.27Y1.27
X1.27Y1.27
X1.27Y-1.27
X3.81Y1.27
X3.81Y-1.27
X6.35Y1.27
X6.35Y-1.27
X8.89Y1.27
X8.89Y-1.27
X11.43Y1.27
X11.43Y-1.27
T5
X-17.0Y-57.0
X17.0Y-57.0
T2
G00X-10.9Y-56.375
M15
G01X-10.9Y-57.225
M16
G05
G00X-9.725Y-53.8
M15
G01X-9.725Y-54.0
M16
G05
G00X-4.875Y-53.8
M15
G01X-4.875Y-54.0
M16
G05
G00X-3.7Y-56.375
M15
G01X-3.7Y-57.225
M16
G05
T0
M30
