G04 #@! TF.GenerationSoftware,KiCad,Pcbnew,5.1.4-e60b266~84~ubuntu19.04.1*
G04 #@! TF.CreationDate,2019-10-04T13:32:44+08:00*
G04 #@! TF.ProjectId,cicada-2g,63696361-6461-42d3-9267-2e6b69636164,0.1*
G04 #@! TF.SameCoordinates,PX7cee6c0PY3dfd240*
G04 #@! TF.FileFunction,Soldermask,Bot*
G04 #@! TF.FilePolarity,Negative*
%FSLAX46Y46*%
G04 Gerber Fmt 4.6, Leading zero omitted, Abs format (unit mm)*
G04 Created by KiCad (PCBNEW 5.1.4-e60b266~84~ubuntu19.04.1) date 2019-10-04 13:32:44*
%MOMM*%
%LPD*%
G04 APERTURE LIST*
%ADD10C,0.150000*%
G04 APERTURE END LIST*
D10*
G36*
X17802144Y-54355680D02*
G01*
X18302612Y-54562981D01*
X18753022Y-54863935D01*
X19136065Y-55246978D01*
X19437019Y-55697388D01*
X19644320Y-56197856D01*
X19750000Y-56729147D01*
X19750000Y-57270853D01*
X19644320Y-57802144D01*
X19437019Y-58302612D01*
X19136065Y-58753022D01*
X18753022Y-59136065D01*
X18302612Y-59437019D01*
X17802144Y-59644320D01*
X17270853Y-59750000D01*
X16729147Y-59750000D01*
X16197856Y-59644320D01*
X15697388Y-59437019D01*
X15246978Y-59136065D01*
X14863935Y-58753022D01*
X14562981Y-58302612D01*
X14355680Y-57802144D01*
X14250000Y-57270853D01*
X14250000Y-56729147D01*
X14355680Y-56197856D01*
X14562981Y-55697388D01*
X14863935Y-55246978D01*
X15246978Y-54863935D01*
X15697388Y-54562981D01*
X16197856Y-54355680D01*
X16729147Y-54250000D01*
X17270853Y-54250000D01*
X17802144Y-54355680D01*
X17802144Y-54355680D01*
G37*
G36*
X-16197856Y-54355680D02*
G01*
X-15697388Y-54562981D01*
X-15246978Y-54863935D01*
X-14863935Y-55246978D01*
X-14562981Y-55697388D01*
X-14355680Y-56197856D01*
X-14250000Y-56729147D01*
X-14250000Y-57270853D01*
X-14355680Y-57802144D01*
X-14562981Y-58302612D01*
X-14863935Y-58753022D01*
X-15246978Y-59136065D01*
X-15697388Y-59437019D01*
X-16197856Y-59644320D01*
X-16729147Y-59750000D01*
X-17270853Y-59750000D01*
X-17802144Y-59644320D01*
X-18302612Y-59437019D01*
X-18753022Y-59136065D01*
X-19136065Y-58753022D01*
X-19437019Y-58302612D01*
X-19644320Y-57802144D01*
X-19750000Y-57270853D01*
X-19750000Y-56729147D01*
X-19644320Y-56197856D01*
X-19437019Y-55697388D01*
X-19136065Y-55246978D01*
X-18753022Y-54863935D01*
X-18302612Y-54562981D01*
X-17802144Y-54355680D01*
X-17270853Y-54250000D01*
X-16729147Y-54250000D01*
X-16197856Y-54355680D01*
X-16197856Y-54355680D01*
G37*
G36*
X-10740825Y-55811749D02*
G01*
X-10740822Y-55811750D01*
X-10740821Y-55811750D01*
X-10587759Y-55858181D01*
X-10587756Y-55858183D01*
X-10587755Y-55858183D01*
X-10446697Y-55933580D01*
X-10323051Y-56035052D01*
X-10221580Y-56158696D01*
X-10200649Y-56197855D01*
X-10146181Y-56299758D01*
X-10146181Y-56299759D01*
X-10099749Y-56452824D01*
X-10088000Y-56572115D01*
X-10088000Y-57027884D01*
X-10099749Y-57147176D01*
X-10099750Y-57147179D01*
X-10099750Y-57147180D01*
X-10146181Y-57300242D01*
X-10146183Y-57300245D01*
X-10146183Y-57300246D01*
X-10221580Y-57441304D01*
X-10323051Y-57564949D01*
X-10446696Y-57666420D01*
X-10587754Y-57741817D01*
X-10587758Y-57741819D01*
X-10740820Y-57788250D01*
X-10740821Y-57788250D01*
X-10740824Y-57788251D01*
X-10900000Y-57803928D01*
X-11059175Y-57788251D01*
X-11059178Y-57788250D01*
X-11059179Y-57788250D01*
X-11212241Y-57741819D01*
X-11212245Y-57741817D01*
X-11353303Y-57666420D01*
X-11476945Y-57564951D01*
X-11578422Y-57441301D01*
X-11653817Y-57300246D01*
X-11653817Y-57300245D01*
X-11653819Y-57300242D01*
X-11700250Y-57147180D01*
X-11700250Y-57147179D01*
X-11700251Y-57147176D01*
X-11712000Y-57027885D01*
X-11712000Y-56572116D01*
X-11700251Y-56452825D01*
X-11700250Y-56452821D01*
X-11653819Y-56299759D01*
X-11578419Y-56158696D01*
X-11578418Y-56158695D01*
X-11476948Y-56035051D01*
X-11353304Y-55933580D01*
X-11212246Y-55858183D01*
X-11212245Y-55858183D01*
X-11212242Y-55858181D01*
X-11059180Y-55811750D01*
X-11059179Y-55811750D01*
X-11059176Y-55811749D01*
X-10900000Y-55796072D01*
X-10740825Y-55811749D01*
X-10740825Y-55811749D01*
G37*
G36*
X-3540825Y-55811749D02*
G01*
X-3540822Y-55811750D01*
X-3540821Y-55811750D01*
X-3387759Y-55858181D01*
X-3387756Y-55858183D01*
X-3387755Y-55858183D01*
X-3246697Y-55933580D01*
X-3123051Y-56035052D01*
X-3021580Y-56158696D01*
X-3000649Y-56197855D01*
X-2946181Y-56299758D01*
X-2946181Y-56299759D01*
X-2899749Y-56452824D01*
X-2888000Y-56572115D01*
X-2888000Y-57027884D01*
X-2899749Y-57147176D01*
X-2899750Y-57147179D01*
X-2899750Y-57147180D01*
X-2946181Y-57300242D01*
X-2946183Y-57300245D01*
X-2946183Y-57300246D01*
X-3021580Y-57441304D01*
X-3123051Y-57564949D01*
X-3246696Y-57666420D01*
X-3387754Y-57741817D01*
X-3387758Y-57741819D01*
X-3540820Y-57788250D01*
X-3540821Y-57788250D01*
X-3540824Y-57788251D01*
X-3700000Y-57803928D01*
X-3859175Y-57788251D01*
X-3859178Y-57788250D01*
X-3859179Y-57788250D01*
X-4012241Y-57741819D01*
X-4012245Y-57741817D01*
X-4153303Y-57666420D01*
X-4276945Y-57564951D01*
X-4378422Y-57441301D01*
X-4453817Y-57300246D01*
X-4453817Y-57300245D01*
X-4453819Y-57300242D01*
X-4500250Y-57147180D01*
X-4500250Y-57147179D01*
X-4500251Y-57147176D01*
X-4512000Y-57027885D01*
X-4512000Y-56572116D01*
X-4500251Y-56452825D01*
X-4500250Y-56452821D01*
X-4453819Y-56299759D01*
X-4378419Y-56158696D01*
X-4378418Y-56158695D01*
X-4276948Y-56035051D01*
X-4153304Y-55933580D01*
X-4012246Y-55858183D01*
X-4012245Y-55858183D01*
X-4012242Y-55858181D01*
X-3859180Y-55811750D01*
X-3859179Y-55811750D01*
X-3859176Y-55811749D01*
X-3700000Y-55796072D01*
X-3540825Y-55811749D01*
X-3540825Y-55811749D01*
G37*
G36*
X-9622387Y-53232325D02*
G01*
X-9612280Y-53233320D01*
X-9558087Y-53249760D01*
X-9503893Y-53266199D01*
X-9404003Y-53319592D01*
X-9316446Y-53391446D01*
X-9244592Y-53479002D01*
X-9191199Y-53578892D01*
X-9158320Y-53687280D01*
X-9150000Y-53771754D01*
X-9150000Y-54028245D01*
X-9157131Y-54100651D01*
X-9158320Y-54112720D01*
X-9174760Y-54166913D01*
X-9191199Y-54221107D01*
X-9191200Y-54221108D01*
X-9244592Y-54320998D01*
X-9266917Y-54348201D01*
X-9316446Y-54408554D01*
X-9404002Y-54480408D01*
X-9503892Y-54533801D01*
X-9558086Y-54550241D01*
X-9612279Y-54566680D01*
X-9622386Y-54567675D01*
X-9725000Y-54577782D01*
X-9827613Y-54567675D01*
X-9837720Y-54566680D01*
X-9891913Y-54550241D01*
X-9946107Y-54533801D01*
X-10045997Y-54480408D01*
X-10133553Y-54408554D01*
X-10205407Y-54320998D01*
X-10258801Y-54221108D01*
X-10291680Y-54112720D01*
X-10300000Y-54028246D01*
X-10300000Y-53771755D01*
X-10291680Y-53687281D01*
X-10291679Y-53687279D01*
X-10258801Y-53578894D01*
X-10258801Y-53578893D01*
X-10205408Y-53479003D01*
X-10133554Y-53391446D01*
X-10045998Y-53319592D01*
X-9946108Y-53266199D01*
X-9891914Y-53249760D01*
X-9837721Y-53233320D01*
X-9827614Y-53232325D01*
X-9725000Y-53222218D01*
X-9622387Y-53232325D01*
X-9622387Y-53232325D01*
G37*
G36*
X-4772387Y-53232325D02*
G01*
X-4762280Y-53233320D01*
X-4708087Y-53249760D01*
X-4653893Y-53266199D01*
X-4554003Y-53319592D01*
X-4466446Y-53391446D01*
X-4394592Y-53479002D01*
X-4341199Y-53578892D01*
X-4308320Y-53687280D01*
X-4300000Y-53771754D01*
X-4300000Y-54028245D01*
X-4307131Y-54100651D01*
X-4308320Y-54112720D01*
X-4324760Y-54166913D01*
X-4341199Y-54221107D01*
X-4341200Y-54221108D01*
X-4394592Y-54320998D01*
X-4416917Y-54348201D01*
X-4466446Y-54408554D01*
X-4554002Y-54480408D01*
X-4653892Y-54533801D01*
X-4708086Y-54550241D01*
X-4762279Y-54566680D01*
X-4772386Y-54567675D01*
X-4875000Y-54577782D01*
X-4977613Y-54567675D01*
X-4987720Y-54566680D01*
X-5041913Y-54550241D01*
X-5096107Y-54533801D01*
X-5195997Y-54480408D01*
X-5283553Y-54408554D01*
X-5355407Y-54320998D01*
X-5408801Y-54221108D01*
X-5441680Y-54112720D01*
X-5450000Y-54028246D01*
X-5450000Y-53771755D01*
X-5441680Y-53687281D01*
X-5441679Y-53687279D01*
X-5408801Y-53578894D01*
X-5408801Y-53578893D01*
X-5355408Y-53479003D01*
X-5283554Y-53391446D01*
X-5195998Y-53319592D01*
X-5096108Y-53266199D01*
X-5041914Y-53249760D01*
X-4987721Y-53233320D01*
X-4977614Y-53232325D01*
X-4875000Y-53222218D01*
X-4772387Y-53232325D01*
X-4772387Y-53232325D01*
G37*
G36*
X-290000Y-45690000D02*
G01*
X-2490000Y-45690000D01*
X-2490000Y-44640000D01*
X-290000Y-44640000D01*
X-290000Y-45690000D01*
X-290000Y-45690000D01*
G37*
G36*
X610000Y-44190000D02*
G01*
X-390000Y-44190000D01*
X-390000Y-43190000D01*
X610000Y-43190000D01*
X610000Y-44190000D01*
X610000Y-44190000D01*
G37*
G36*
X-2390000Y-44190000D02*
G01*
X-3390000Y-44190000D01*
X-3390000Y-43190000D01*
X-2390000Y-43190000D01*
X-2390000Y-44190000D01*
X-2390000Y-44190000D01*
G37*
G36*
X-290000Y-42740000D02*
G01*
X-2490000Y-42740000D01*
X-2490000Y-41690000D01*
X-290000Y-41690000D01*
X-290000Y-42740000D01*
X-290000Y-42740000D01*
G37*
G36*
X18072000Y-35471000D02*
G01*
X16472000Y-35471000D01*
X16472000Y-33871000D01*
X18072000Y-33871000D01*
X18072000Y-35471000D01*
X18072000Y-35471000D01*
G37*
G36*
X14005351Y-33901743D02*
G01*
X14150941Y-33962048D01*
X14281970Y-34049599D01*
X14393401Y-34161030D01*
X14480952Y-34292059D01*
X14541257Y-34437649D01*
X14572000Y-34592206D01*
X14572000Y-34749794D01*
X14541257Y-34904351D01*
X14480952Y-35049941D01*
X14393401Y-35180970D01*
X14281970Y-35292401D01*
X14150941Y-35379952D01*
X14005351Y-35440257D01*
X13850794Y-35471000D01*
X13693206Y-35471000D01*
X13538649Y-35440257D01*
X13393059Y-35379952D01*
X13262030Y-35292401D01*
X13150599Y-35180970D01*
X13063048Y-35049941D01*
X13002743Y-34904351D01*
X12972000Y-34749794D01*
X12972000Y-34592206D01*
X13002743Y-34437649D01*
X13063048Y-34292059D01*
X13150599Y-34161030D01*
X13262030Y-34049599D01*
X13393059Y-33962048D01*
X13538649Y-33901743D01*
X13693206Y-33871000D01*
X13850794Y-33871000D01*
X14005351Y-33901743D01*
X14005351Y-33901743D01*
G37*
G36*
X9690000Y-33820000D02*
G01*
X8090000Y-33820000D01*
X8090000Y-32220000D01*
X9690000Y-32220000D01*
X9690000Y-33820000D01*
X9690000Y-33820000D01*
G37*
G36*
X5623351Y-32250743D02*
G01*
X5768941Y-32311048D01*
X5899970Y-32398599D01*
X6011401Y-32510030D01*
X6098952Y-32641059D01*
X6159257Y-32786649D01*
X6190000Y-32941206D01*
X6190000Y-33098794D01*
X6159257Y-33253351D01*
X6098952Y-33398941D01*
X6011401Y-33529970D01*
X5899970Y-33641401D01*
X5768941Y-33728952D01*
X5623351Y-33789257D01*
X5468794Y-33820000D01*
X5311206Y-33820000D01*
X5156649Y-33789257D01*
X5011059Y-33728952D01*
X4880030Y-33641401D01*
X4768599Y-33529970D01*
X4681048Y-33398941D01*
X4620743Y-33253351D01*
X4590000Y-33098794D01*
X4590000Y-32941206D01*
X4620743Y-32786649D01*
X4681048Y-32641059D01*
X4768599Y-32510030D01*
X4880030Y-32398599D01*
X5011059Y-32311048D01*
X5156649Y-32250743D01*
X5311206Y-32220000D01*
X5468794Y-32220000D01*
X5623351Y-32250743D01*
X5623351Y-32250743D01*
G37*
G36*
X-13250000Y-28240000D02*
G01*
X-19750000Y-28240000D01*
X-19750000Y-40000D01*
X-13250000Y-40000D01*
X-13250000Y-28240000D01*
X-13250000Y-28240000D01*
G37*
G36*
X14005351Y-25392743D02*
G01*
X14150941Y-25453048D01*
X14281970Y-25540599D01*
X14393401Y-25652030D01*
X14480952Y-25783059D01*
X14541257Y-25928649D01*
X14572000Y-26083206D01*
X14572000Y-26240794D01*
X14541257Y-26395351D01*
X14480952Y-26540941D01*
X14393401Y-26671970D01*
X14281970Y-26783401D01*
X14150941Y-26870952D01*
X14005351Y-26931257D01*
X13850794Y-26962000D01*
X13693206Y-26962000D01*
X13538649Y-26931257D01*
X13393059Y-26870952D01*
X13262030Y-26783401D01*
X13150599Y-26671970D01*
X13063048Y-26540941D01*
X13002743Y-26395351D01*
X12972000Y-26240794D01*
X12972000Y-26083206D01*
X13002743Y-25928649D01*
X13063048Y-25783059D01*
X13150599Y-25652030D01*
X13262030Y-25540599D01*
X13393059Y-25453048D01*
X13538649Y-25392743D01*
X13693206Y-25362000D01*
X13850794Y-25362000D01*
X14005351Y-25392743D01*
X14005351Y-25392743D01*
G37*
G36*
X18072000Y-26962000D02*
G01*
X16472000Y-26962000D01*
X16472000Y-25362000D01*
X18072000Y-25362000D01*
X18072000Y-26962000D01*
X18072000Y-26962000D01*
G37*
G36*
X9690000Y-25311000D02*
G01*
X8090000Y-25311000D01*
X8090000Y-23711000D01*
X9690000Y-23711000D01*
X9690000Y-25311000D01*
X9690000Y-25311000D01*
G37*
G36*
X5623351Y-23741743D02*
G01*
X5768941Y-23802048D01*
X5899970Y-23889599D01*
X6011401Y-24001030D01*
X6098952Y-24132059D01*
X6159257Y-24277649D01*
X6190000Y-24432206D01*
X6190000Y-24589794D01*
X6159257Y-24744351D01*
X6098952Y-24889941D01*
X6011401Y-25020970D01*
X5899970Y-25132401D01*
X5768941Y-25219952D01*
X5623351Y-25280257D01*
X5468794Y-25311000D01*
X5311206Y-25311000D01*
X5156649Y-25280257D01*
X5011059Y-25219952D01*
X4880030Y-25132401D01*
X4768599Y-25020970D01*
X4681048Y-24889941D01*
X4620743Y-24744351D01*
X4590000Y-24589794D01*
X4590000Y-24432206D01*
X4620743Y-24277649D01*
X4681048Y-24132059D01*
X4768599Y-24001030D01*
X4880030Y-23889599D01*
X5011059Y-23802048D01*
X5156649Y-23741743D01*
X5311206Y-23711000D01*
X5468794Y-23711000D01*
X5623351Y-23741743D01*
X5623351Y-23741743D01*
G37*
G36*
X11338351Y-17137743D02*
G01*
X11483941Y-17198048D01*
X11614970Y-17285599D01*
X11726401Y-17397030D01*
X11813952Y-17528059D01*
X11874257Y-17673649D01*
X11905000Y-17828206D01*
X11905000Y-17985794D01*
X11874257Y-18140351D01*
X11813952Y-18285941D01*
X11726401Y-18416970D01*
X11614970Y-18528401D01*
X11483941Y-18615952D01*
X11338351Y-18676257D01*
X11183794Y-18707000D01*
X11026206Y-18707000D01*
X10871649Y-18676257D01*
X10726059Y-18615952D01*
X10595030Y-18528401D01*
X10483599Y-18416970D01*
X10396048Y-18285941D01*
X10335743Y-18140351D01*
X10305000Y-17985794D01*
X10305000Y-17828206D01*
X10335743Y-17673649D01*
X10396048Y-17528059D01*
X10483599Y-17397030D01*
X10595030Y-17285599D01*
X10726059Y-17198048D01*
X10871649Y-17137743D01*
X11026206Y-17107000D01*
X11183794Y-17107000D01*
X11338351Y-17137743D01*
X11338351Y-17137743D01*
G37*
G36*
X15405000Y-18707000D02*
G01*
X13805000Y-18707000D01*
X13805000Y-17107000D01*
X15405000Y-17107000D01*
X15405000Y-18707000D01*
X15405000Y-18707000D01*
G37*
G36*
X-8723373Y-432299D02*
G01*
X-8643258Y-456602D01*
X-8563145Y-480903D01*
X-8563143Y-480904D01*
X-8415482Y-559831D01*
X-8286051Y-666051D01*
X-8179831Y-795482D01*
X-8100904Y-943143D01*
X-8052299Y-1103373D01*
X-8035888Y-1270000D01*
X-8052299Y-1436627D01*
X-8100904Y-1596857D01*
X-8179831Y-1744518D01*
X-8286051Y-1873949D01*
X-8415482Y-1980169D01*
X-8526027Y-2039257D01*
X-8563145Y-2059097D01*
X-8643258Y-2083398D01*
X-8723373Y-2107701D01*
X-8848248Y-2120000D01*
X-8931752Y-2120000D01*
X-9056627Y-2107701D01*
X-9136742Y-2083398D01*
X-9216855Y-2059097D01*
X-9253973Y-2039257D01*
X-9364518Y-1980169D01*
X-9493949Y-1873949D01*
X-9600169Y-1744518D01*
X-9679096Y-1596857D01*
X-9727701Y-1436627D01*
X-9744112Y-1270000D01*
X-9727701Y-1103373D01*
X-9679096Y-943143D01*
X-9600169Y-795482D01*
X-9493949Y-666051D01*
X-9364518Y-559831D01*
X-9216857Y-480904D01*
X-9216855Y-480903D01*
X-9136742Y-456602D01*
X-9056627Y-432299D01*
X-8931752Y-420000D01*
X-8848248Y-420000D01*
X-8723373Y-432299D01*
X-8723373Y-432299D01*
G37*
G36*
X-10580000Y-2120000D02*
G01*
X-12280000Y-2120000D01*
X-12280000Y-420000D01*
X-10580000Y-420000D01*
X-10580000Y-2120000D01*
X-10580000Y-2120000D01*
G37*
G36*
X-3643373Y-432299D02*
G01*
X-3563258Y-456602D01*
X-3483145Y-480903D01*
X-3483143Y-480904D01*
X-3335482Y-559831D01*
X-3206051Y-666051D01*
X-3099831Y-795482D01*
X-3020904Y-943143D01*
X-2972299Y-1103373D01*
X-2955888Y-1270000D01*
X-2972299Y-1436627D01*
X-3020904Y-1596857D01*
X-3099831Y-1744518D01*
X-3206051Y-1873949D01*
X-3335482Y-1980169D01*
X-3446027Y-2039257D01*
X-3483145Y-2059097D01*
X-3563258Y-2083398D01*
X-3643373Y-2107701D01*
X-3768248Y-2120000D01*
X-3851752Y-2120000D01*
X-3976627Y-2107701D01*
X-4056742Y-2083398D01*
X-4136855Y-2059097D01*
X-4173973Y-2039257D01*
X-4284518Y-1980169D01*
X-4413949Y-1873949D01*
X-4520169Y-1744518D01*
X-4599096Y-1596857D01*
X-4647701Y-1436627D01*
X-4664112Y-1270000D01*
X-4647701Y-1103373D01*
X-4599096Y-943143D01*
X-4520169Y-795482D01*
X-4413949Y-666051D01*
X-4284518Y-559831D01*
X-4136857Y-480904D01*
X-4136855Y-480903D01*
X-4056742Y-456602D01*
X-3976627Y-432299D01*
X-3851752Y-420000D01*
X-3768248Y-420000D01*
X-3643373Y-432299D01*
X-3643373Y-432299D01*
G37*
G36*
X1436627Y-432299D02*
G01*
X1516742Y-456602D01*
X1596855Y-480903D01*
X1596857Y-480904D01*
X1744518Y-559831D01*
X1873949Y-666051D01*
X1980169Y-795482D01*
X2059096Y-943143D01*
X2107701Y-1103373D01*
X2124112Y-1270000D01*
X2107701Y-1436627D01*
X2059096Y-1596857D01*
X1980169Y-1744518D01*
X1873949Y-1873949D01*
X1744518Y-1980169D01*
X1633973Y-2039257D01*
X1596855Y-2059097D01*
X1516742Y-2083398D01*
X1436627Y-2107701D01*
X1311752Y-2120000D01*
X1228248Y-2120000D01*
X1103373Y-2107701D01*
X1023258Y-2083398D01*
X943145Y-2059097D01*
X906027Y-2039257D01*
X795482Y-1980169D01*
X666051Y-1873949D01*
X559831Y-1744518D01*
X480904Y-1596857D01*
X432299Y-1436627D01*
X415888Y-1270000D01*
X432299Y-1103373D01*
X480904Y-943143D01*
X559831Y-795482D01*
X666051Y-666051D01*
X795482Y-559831D01*
X943143Y-480904D01*
X943145Y-480903D01*
X1023258Y-456602D01*
X1103373Y-432299D01*
X1228248Y-420000D01*
X1311752Y-420000D01*
X1436627Y-432299D01*
X1436627Y-432299D01*
G37*
G36*
X3976627Y-432299D02*
G01*
X4056742Y-456602D01*
X4136855Y-480903D01*
X4136857Y-480904D01*
X4284518Y-559831D01*
X4413949Y-666051D01*
X4520169Y-795482D01*
X4599096Y-943143D01*
X4647701Y-1103373D01*
X4664112Y-1270000D01*
X4647701Y-1436627D01*
X4599096Y-1596857D01*
X4520169Y-1744518D01*
X4413949Y-1873949D01*
X4284518Y-1980169D01*
X4173973Y-2039257D01*
X4136855Y-2059097D01*
X4056742Y-2083398D01*
X3976627Y-2107701D01*
X3851752Y-2120000D01*
X3768248Y-2120000D01*
X3643373Y-2107701D01*
X3563258Y-2083398D01*
X3483145Y-2059097D01*
X3446027Y-2039257D01*
X3335482Y-1980169D01*
X3206051Y-1873949D01*
X3099831Y-1744518D01*
X3020904Y-1596857D01*
X2972299Y-1436627D01*
X2955888Y-1270000D01*
X2972299Y-1103373D01*
X3020904Y-943143D01*
X3099831Y-795482D01*
X3206051Y-666051D01*
X3335482Y-559831D01*
X3483143Y-480904D01*
X3483145Y-480903D01*
X3563258Y-456602D01*
X3643373Y-432299D01*
X3768248Y-420000D01*
X3851752Y-420000D01*
X3976627Y-432299D01*
X3976627Y-432299D01*
G37*
G36*
X6516627Y-432299D02*
G01*
X6596742Y-456602D01*
X6676855Y-480903D01*
X6676857Y-480904D01*
X6824518Y-559831D01*
X6953949Y-666051D01*
X7060169Y-795482D01*
X7139096Y-943143D01*
X7187701Y-1103373D01*
X7204112Y-1270000D01*
X7187701Y-1436627D01*
X7139096Y-1596857D01*
X7060169Y-1744518D01*
X6953949Y-1873949D01*
X6824518Y-1980169D01*
X6713973Y-2039257D01*
X6676855Y-2059097D01*
X6596742Y-2083398D01*
X6516627Y-2107701D01*
X6391752Y-2120000D01*
X6308248Y-2120000D01*
X6183373Y-2107701D01*
X6103258Y-2083398D01*
X6023145Y-2059097D01*
X5986027Y-2039257D01*
X5875482Y-1980169D01*
X5746051Y-1873949D01*
X5639831Y-1744518D01*
X5560904Y-1596857D01*
X5512299Y-1436627D01*
X5495888Y-1270000D01*
X5512299Y-1103373D01*
X5560904Y-943143D01*
X5639831Y-795482D01*
X5746051Y-666051D01*
X5875482Y-559831D01*
X6023143Y-480904D01*
X6023145Y-480903D01*
X6103258Y-456602D01*
X6183373Y-432299D01*
X6308248Y-420000D01*
X6391752Y-420000D01*
X6516627Y-432299D01*
X6516627Y-432299D01*
G37*
G36*
X9056627Y-432299D02*
G01*
X9136742Y-456602D01*
X9216855Y-480903D01*
X9216857Y-480904D01*
X9364518Y-559831D01*
X9493949Y-666051D01*
X9600169Y-795482D01*
X9679096Y-943143D01*
X9727701Y-1103373D01*
X9744112Y-1270000D01*
X9727701Y-1436627D01*
X9679096Y-1596857D01*
X9600169Y-1744518D01*
X9493949Y-1873949D01*
X9364518Y-1980169D01*
X9253973Y-2039257D01*
X9216855Y-2059097D01*
X9136742Y-2083398D01*
X9056627Y-2107701D01*
X8931752Y-2120000D01*
X8848248Y-2120000D01*
X8723373Y-2107701D01*
X8643258Y-2083398D01*
X8563145Y-2059097D01*
X8526027Y-2039257D01*
X8415482Y-1980169D01*
X8286051Y-1873949D01*
X8179831Y-1744518D01*
X8100904Y-1596857D01*
X8052299Y-1436627D01*
X8035888Y-1270000D01*
X8052299Y-1103373D01*
X8100904Y-943143D01*
X8179831Y-795482D01*
X8286051Y-666051D01*
X8415482Y-559831D01*
X8563143Y-480904D01*
X8563145Y-480903D01*
X8643258Y-456602D01*
X8723373Y-432299D01*
X8848248Y-420000D01*
X8931752Y-420000D01*
X9056627Y-432299D01*
X9056627Y-432299D01*
G37*
G36*
X11596627Y-432299D02*
G01*
X11676742Y-456602D01*
X11756855Y-480903D01*
X11756857Y-480904D01*
X11904518Y-559831D01*
X12033949Y-666051D01*
X12140169Y-795482D01*
X12219096Y-943143D01*
X12267701Y-1103373D01*
X12284112Y-1270000D01*
X12267701Y-1436627D01*
X12219096Y-1596857D01*
X12140169Y-1744518D01*
X12033949Y-1873949D01*
X11904518Y-1980169D01*
X11793973Y-2039257D01*
X11756855Y-2059097D01*
X11676742Y-2083398D01*
X11596627Y-2107701D01*
X11471752Y-2120000D01*
X11388248Y-2120000D01*
X11263373Y-2107701D01*
X11183258Y-2083398D01*
X11103145Y-2059097D01*
X11066027Y-2039257D01*
X10955482Y-1980169D01*
X10826051Y-1873949D01*
X10719831Y-1744518D01*
X10640904Y-1596857D01*
X10592299Y-1436627D01*
X10575888Y-1270000D01*
X10592299Y-1103373D01*
X10640904Y-943143D01*
X10719831Y-795482D01*
X10826051Y-666051D01*
X10955482Y-559831D01*
X11103143Y-480904D01*
X11103145Y-480903D01*
X11183258Y-456602D01*
X11263373Y-432299D01*
X11388248Y-420000D01*
X11471752Y-420000D01*
X11596627Y-432299D01*
X11596627Y-432299D01*
G37*
G36*
X-1036649Y-500743D02*
G01*
X-891059Y-561048D01*
X-760030Y-648599D01*
X-648599Y-760030D01*
X-561048Y-891059D01*
X-500743Y-1036649D01*
X-470000Y-1191206D01*
X-470000Y-1348794D01*
X-500743Y-1503351D01*
X-561048Y-1648941D01*
X-648599Y-1779970D01*
X-760030Y-1891401D01*
X-891059Y-1978952D01*
X-1036649Y-2039257D01*
X-1191206Y-2070000D01*
X-1348794Y-2070000D01*
X-1503351Y-2039257D01*
X-1648941Y-1978952D01*
X-1779970Y-1891401D01*
X-1891401Y-1779970D01*
X-1978952Y-1648941D01*
X-2039257Y-1503351D01*
X-2070000Y-1348794D01*
X-2070000Y-1191206D01*
X-2039257Y-1036649D01*
X-1978952Y-891059D01*
X-1891401Y-760030D01*
X-1779970Y-648599D01*
X-1648941Y-561048D01*
X-1503351Y-500743D01*
X-1348794Y-470000D01*
X-1191206Y-470000D01*
X-1036649Y-500743D01*
X-1036649Y-500743D01*
G37*
G36*
X-6116649Y-500743D02*
G01*
X-5971059Y-561048D01*
X-5840030Y-648599D01*
X-5728599Y-760030D01*
X-5641048Y-891059D01*
X-5580743Y-1036649D01*
X-5550000Y-1191206D01*
X-5550000Y-1348794D01*
X-5580743Y-1503351D01*
X-5641048Y-1648941D01*
X-5728599Y-1779970D01*
X-5840030Y-1891401D01*
X-5971059Y-1978952D01*
X-6116649Y-2039257D01*
X-6271206Y-2070000D01*
X-6428794Y-2070000D01*
X-6583351Y-2039257D01*
X-6728941Y-1978952D01*
X-6859970Y-1891401D01*
X-6971401Y-1779970D01*
X-7058952Y-1648941D01*
X-7119257Y-1503351D01*
X-7150000Y-1348794D01*
X-7150000Y-1191206D01*
X-7119257Y-1036649D01*
X-7058952Y-891059D01*
X-6971401Y-760030D01*
X-6859970Y-648599D01*
X-6728941Y-561048D01*
X-6583351Y-500743D01*
X-6428794Y-470000D01*
X-6271206Y-470000D01*
X-6116649Y-500743D01*
X-6116649Y-500743D01*
G37*
G36*
X1436627Y2107701D02*
G01*
X1516742Y2083398D01*
X1596855Y2059097D01*
X1596857Y2059096D01*
X1744518Y1980169D01*
X1873949Y1873949D01*
X1980169Y1744518D01*
X2059096Y1596857D01*
X2107701Y1436627D01*
X2124112Y1270000D01*
X2107701Y1103373D01*
X2059096Y943143D01*
X1980169Y795482D01*
X1873949Y666051D01*
X1744518Y559831D01*
X1633973Y500743D01*
X1596855Y480903D01*
X1516742Y456601D01*
X1436627Y432299D01*
X1311752Y420000D01*
X1228248Y420000D01*
X1103373Y432299D01*
X1023258Y456602D01*
X943145Y480903D01*
X906027Y500743D01*
X795482Y559831D01*
X666051Y666051D01*
X559831Y795482D01*
X480904Y943143D01*
X432299Y1103373D01*
X415888Y1270000D01*
X432299Y1436627D01*
X480904Y1596857D01*
X559831Y1744518D01*
X666051Y1873949D01*
X795482Y1980169D01*
X943143Y2059096D01*
X943145Y2059097D01*
X1023258Y2083398D01*
X1103373Y2107701D01*
X1228248Y2120000D01*
X1311752Y2120000D01*
X1436627Y2107701D01*
X1436627Y2107701D01*
G37*
G36*
X-8723373Y2107701D02*
G01*
X-8643258Y2083398D01*
X-8563145Y2059097D01*
X-8563143Y2059096D01*
X-8415482Y1980169D01*
X-8286051Y1873949D01*
X-8179831Y1744518D01*
X-8100904Y1596857D01*
X-8052299Y1436627D01*
X-8035888Y1270000D01*
X-8052299Y1103373D01*
X-8100904Y943143D01*
X-8179831Y795482D01*
X-8286051Y666051D01*
X-8415482Y559831D01*
X-8526027Y500743D01*
X-8563145Y480903D01*
X-8643258Y456601D01*
X-8723373Y432299D01*
X-8848248Y420000D01*
X-8931752Y420000D01*
X-9056627Y432299D01*
X-9136742Y456602D01*
X-9216855Y480903D01*
X-9253973Y500743D01*
X-9364518Y559831D01*
X-9493949Y666051D01*
X-9600169Y795482D01*
X-9679096Y943143D01*
X-9727701Y1103373D01*
X-9744112Y1270000D01*
X-9727701Y1436627D01*
X-9679096Y1596857D01*
X-9600169Y1744518D01*
X-9493949Y1873949D01*
X-9364518Y1980169D01*
X-9216857Y2059096D01*
X-9216855Y2059097D01*
X-9136742Y2083398D01*
X-9056627Y2107701D01*
X-8931752Y2120000D01*
X-8848248Y2120000D01*
X-8723373Y2107701D01*
X-8723373Y2107701D01*
G37*
G36*
X3976627Y2107701D02*
G01*
X4056742Y2083398D01*
X4136855Y2059097D01*
X4136857Y2059096D01*
X4284518Y1980169D01*
X4413949Y1873949D01*
X4520169Y1744518D01*
X4599096Y1596857D01*
X4647701Y1436627D01*
X4664112Y1270000D01*
X4647701Y1103373D01*
X4599096Y943143D01*
X4520169Y795482D01*
X4413949Y666051D01*
X4284518Y559831D01*
X4173973Y500743D01*
X4136855Y480903D01*
X4056742Y456601D01*
X3976627Y432299D01*
X3851752Y420000D01*
X3768248Y420000D01*
X3643373Y432299D01*
X3563258Y456602D01*
X3483145Y480903D01*
X3446027Y500743D01*
X3335482Y559831D01*
X3206051Y666051D01*
X3099831Y795482D01*
X3020904Y943143D01*
X2972299Y1103373D01*
X2955888Y1270000D01*
X2972299Y1436627D01*
X3020904Y1596857D01*
X3099831Y1744518D01*
X3206051Y1873949D01*
X3335482Y1980169D01*
X3483143Y2059096D01*
X3483145Y2059097D01*
X3563258Y2083398D01*
X3643373Y2107701D01*
X3768248Y2120000D01*
X3851752Y2120000D01*
X3976627Y2107701D01*
X3976627Y2107701D01*
G37*
G36*
X-6183373Y2107701D02*
G01*
X-6103258Y2083398D01*
X-6023145Y2059097D01*
X-6023143Y2059096D01*
X-5875482Y1980169D01*
X-5746051Y1873949D01*
X-5639831Y1744518D01*
X-5560904Y1596857D01*
X-5512299Y1436627D01*
X-5495888Y1270000D01*
X-5512299Y1103373D01*
X-5560904Y943143D01*
X-5639831Y795482D01*
X-5746051Y666051D01*
X-5875482Y559831D01*
X-5986027Y500743D01*
X-6023145Y480903D01*
X-6103258Y456601D01*
X-6183373Y432299D01*
X-6308248Y420000D01*
X-6391752Y420000D01*
X-6516627Y432299D01*
X-6596742Y456602D01*
X-6676855Y480903D01*
X-6713973Y500743D01*
X-6824518Y559831D01*
X-6953949Y666051D01*
X-7060169Y795482D01*
X-7139096Y943143D01*
X-7187701Y1103373D01*
X-7204112Y1270000D01*
X-7187701Y1436627D01*
X-7139096Y1596857D01*
X-7060169Y1744518D01*
X-6953949Y1873949D01*
X-6824518Y1980169D01*
X-6676857Y2059096D01*
X-6676855Y2059097D01*
X-6596742Y2083398D01*
X-6516627Y2107701D01*
X-6391752Y2120000D01*
X-6308248Y2120000D01*
X-6183373Y2107701D01*
X-6183373Y2107701D01*
G37*
G36*
X6516627Y2107701D02*
G01*
X6596742Y2083398D01*
X6676855Y2059097D01*
X6676857Y2059096D01*
X6824518Y1980169D01*
X6953949Y1873949D01*
X7060169Y1744518D01*
X7139096Y1596857D01*
X7187701Y1436627D01*
X7204112Y1270000D01*
X7187701Y1103373D01*
X7139096Y943143D01*
X7060169Y795482D01*
X6953949Y666051D01*
X6824518Y559831D01*
X6713973Y500743D01*
X6676855Y480903D01*
X6596742Y456601D01*
X6516627Y432299D01*
X6391752Y420000D01*
X6308248Y420000D01*
X6183373Y432299D01*
X6103258Y456602D01*
X6023145Y480903D01*
X5986027Y500743D01*
X5875482Y559831D01*
X5746051Y666051D01*
X5639831Y795482D01*
X5560904Y943143D01*
X5512299Y1103373D01*
X5495888Y1270000D01*
X5512299Y1436627D01*
X5560904Y1596857D01*
X5639831Y1744518D01*
X5746051Y1873949D01*
X5875482Y1980169D01*
X6023143Y2059096D01*
X6023145Y2059097D01*
X6103258Y2083398D01*
X6183373Y2107701D01*
X6308248Y2120000D01*
X6391752Y2120000D01*
X6516627Y2107701D01*
X6516627Y2107701D01*
G37*
G36*
X-1103373Y2107701D02*
G01*
X-1023258Y2083398D01*
X-943145Y2059097D01*
X-943143Y2059096D01*
X-795482Y1980169D01*
X-666051Y1873949D01*
X-559831Y1744518D01*
X-480904Y1596857D01*
X-432299Y1436627D01*
X-415888Y1270000D01*
X-432299Y1103373D01*
X-480904Y943143D01*
X-559831Y795482D01*
X-666051Y666051D01*
X-795482Y559831D01*
X-906027Y500743D01*
X-943145Y480903D01*
X-1023258Y456601D01*
X-1103373Y432299D01*
X-1228248Y420000D01*
X-1311752Y420000D01*
X-1436627Y432299D01*
X-1516742Y456602D01*
X-1596855Y480903D01*
X-1633973Y500743D01*
X-1744518Y559831D01*
X-1873949Y666051D01*
X-1980169Y795482D01*
X-2059096Y943143D01*
X-2107701Y1103373D01*
X-2124112Y1270000D01*
X-2107701Y1436627D01*
X-2059096Y1596857D01*
X-1980169Y1744518D01*
X-1873949Y1873949D01*
X-1744518Y1980169D01*
X-1596857Y2059096D01*
X-1596855Y2059097D01*
X-1516742Y2083398D01*
X-1436627Y2107701D01*
X-1311752Y2120000D01*
X-1228248Y2120000D01*
X-1103373Y2107701D01*
X-1103373Y2107701D01*
G37*
G36*
X9056627Y2107701D02*
G01*
X9136742Y2083398D01*
X9216855Y2059097D01*
X9216857Y2059096D01*
X9364518Y1980169D01*
X9493949Y1873949D01*
X9600169Y1744518D01*
X9679096Y1596857D01*
X9727701Y1436627D01*
X9744112Y1270000D01*
X9727701Y1103373D01*
X9679096Y943143D01*
X9600169Y795482D01*
X9493949Y666051D01*
X9364518Y559831D01*
X9253973Y500743D01*
X9216855Y480903D01*
X9136742Y456601D01*
X9056627Y432299D01*
X8931752Y420000D01*
X8848248Y420000D01*
X8723373Y432299D01*
X8643258Y456602D01*
X8563145Y480903D01*
X8526027Y500743D01*
X8415482Y559831D01*
X8286051Y666051D01*
X8179831Y795482D01*
X8100904Y943143D01*
X8052299Y1103373D01*
X8035888Y1270000D01*
X8052299Y1436627D01*
X8100904Y1596857D01*
X8179831Y1744518D01*
X8286051Y1873949D01*
X8415482Y1980169D01*
X8563143Y2059096D01*
X8563145Y2059097D01*
X8643258Y2083398D01*
X8723373Y2107701D01*
X8848248Y2120000D01*
X8931752Y2120000D01*
X9056627Y2107701D01*
X9056627Y2107701D01*
G37*
G36*
X11596627Y2107701D02*
G01*
X11676742Y2083398D01*
X11756855Y2059097D01*
X11756857Y2059096D01*
X11904518Y1980169D01*
X12033949Y1873949D01*
X12140169Y1744518D01*
X12219096Y1596857D01*
X12267701Y1436627D01*
X12284112Y1270000D01*
X12267701Y1103373D01*
X12219096Y943143D01*
X12140169Y795482D01*
X12033949Y666051D01*
X11904518Y559831D01*
X11793973Y500743D01*
X11756855Y480903D01*
X11676742Y456601D01*
X11596627Y432299D01*
X11471752Y420000D01*
X11388248Y420000D01*
X11263373Y432299D01*
X11183258Y456602D01*
X11103145Y480903D01*
X11066027Y500743D01*
X10955482Y559831D01*
X10826051Y666051D01*
X10719831Y795482D01*
X10640904Y943143D01*
X10592299Y1103373D01*
X10575888Y1270000D01*
X10592299Y1436627D01*
X10640904Y1596857D01*
X10719831Y1744518D01*
X10826051Y1873949D01*
X10955482Y1980169D01*
X11103143Y2059096D01*
X11103145Y2059097D01*
X11183258Y2083398D01*
X11263373Y2107701D01*
X11388248Y2120000D01*
X11471752Y2120000D01*
X11596627Y2107701D01*
X11596627Y2107701D01*
G37*
G36*
X-11263373Y2107701D02*
G01*
X-11183258Y2083398D01*
X-11103145Y2059097D01*
X-11103143Y2059096D01*
X-10955482Y1980169D01*
X-10826051Y1873949D01*
X-10719831Y1744518D01*
X-10640904Y1596857D01*
X-10592299Y1436627D01*
X-10575888Y1270000D01*
X-10592299Y1103373D01*
X-10640904Y943143D01*
X-10719831Y795482D01*
X-10826051Y666051D01*
X-10955482Y559831D01*
X-11066027Y500743D01*
X-11103145Y480903D01*
X-11183258Y456601D01*
X-11263373Y432299D01*
X-11388248Y420000D01*
X-11471752Y420000D01*
X-11596627Y432299D01*
X-11676742Y456602D01*
X-11756855Y480903D01*
X-11793973Y500743D01*
X-11904518Y559831D01*
X-12033949Y666051D01*
X-12140169Y795482D01*
X-12219096Y943143D01*
X-12267701Y1103373D01*
X-12284112Y1270000D01*
X-12267701Y1436627D01*
X-12219096Y1596857D01*
X-12140169Y1744518D01*
X-12033949Y1873949D01*
X-11904518Y1980169D01*
X-11756857Y2059096D01*
X-11756855Y2059097D01*
X-11676742Y2083398D01*
X-11596627Y2107701D01*
X-11471752Y2120000D01*
X-11388248Y2120000D01*
X-11263373Y2107701D01*
X-11263373Y2107701D01*
G37*
G36*
X-3576649Y2039257D02*
G01*
X-3431059Y1978952D01*
X-3300030Y1891401D01*
X-3188599Y1779970D01*
X-3101048Y1648941D01*
X-3040743Y1503351D01*
X-3010000Y1348794D01*
X-3010000Y1191206D01*
X-3040743Y1036649D01*
X-3101048Y891059D01*
X-3188599Y760030D01*
X-3300030Y648599D01*
X-3431059Y561048D01*
X-3576649Y500743D01*
X-3731206Y470000D01*
X-3888794Y470000D01*
X-4043351Y500743D01*
X-4188941Y561048D01*
X-4319970Y648599D01*
X-4431401Y760030D01*
X-4518952Y891059D01*
X-4579257Y1036649D01*
X-4610000Y1191206D01*
X-4610000Y1348794D01*
X-4579257Y1503351D01*
X-4518952Y1648941D01*
X-4431401Y1779970D01*
X-4319970Y1891401D01*
X-4188941Y1978952D01*
X-4043351Y2039257D01*
X-3888794Y2070000D01*
X-3731206Y2070000D01*
X-3576649Y2039257D01*
X-3576649Y2039257D01*
G37*
M02*
