G04 #@! TF.GenerationSoftware,KiCad,Pcbnew,5.1.4-e60b266~84~ubuntu19.04.1*
G04 #@! TF.CreationDate,2019-10-04T13:32:44+08:00*
G04 #@! TF.ProjectId,cicada-2g,63696361-6461-42d3-9267-2e6b69636164,0.1*
G04 #@! TF.SameCoordinates,PX7cee6c0PY3dfd240*
G04 #@! TF.FileFunction,Legend,Bot*
G04 #@! TF.FilePolarity,Positive*
%FSLAX46Y46*%
G04 Gerber Fmt 4.6, Leading zero omitted, Abs format (unit mm)*
G04 Created by KiCad (PCBNEW 5.1.4-e60b266~84~ubuntu19.04.1) date 2019-10-04 13:32:44*
%MOMM*%
%LPD*%
G04 APERTURE LIST*
%ADD10C,0.120000*%
G04 APERTURE END LIST*
D10*
X110000Y-45190000D02*
X110000Y-44390000D01*
X-90000Y-45190000D02*
X110000Y-45190000D01*
X110000Y-42190000D02*
X-90000Y-42190000D01*
X110000Y-42990000D02*
X110000Y-42190000D01*
X-2890000Y-42190000D02*
X-2890000Y-42990000D01*
X-2690000Y-42190000D02*
X-2890000Y-42190000D01*
X-2890000Y-44990000D02*
X-2690000Y-45190000D01*
X-2890000Y-44390000D02*
X-2890000Y-44990000D01*
X-2890000Y-44390000D02*
X-3390000Y-44390000D01*
X-2890000Y-42990000D02*
X-3390000Y-42990000D01*
X-12760000Y2600000D02*
X-12760000Y0D01*
X-12760000Y2600000D02*
X12760000Y2600000D01*
X12760000Y2600000D02*
X12760000Y-2600000D01*
X-10160000Y-2600000D02*
X12760000Y-2600000D01*
X-10160000Y0D02*
X-10160000Y-2600000D01*
X-12760000Y0D02*
X-10160000Y0D01*
X-12760000Y-2600000D02*
X-11430000Y-2600000D01*
X-12760000Y-1270000D02*
X-12760000Y-2600000D01*
X-5273334Y-43423333D02*
X-4773334Y-43423333D01*
X-4673334Y-43385238D01*
X-4606667Y-43309047D01*
X-4573334Y-43194761D01*
X-4573334Y-43118571D01*
X-5273334Y-44185238D02*
X-5273334Y-43804285D01*
X-4940000Y-43766190D01*
X-4973334Y-43804285D01*
X-5006667Y-43880476D01*
X-5006667Y-44070952D01*
X-4973334Y-44147142D01*
X-4940000Y-44185238D01*
X-4873334Y-44223333D01*
X-4706667Y-44223333D01*
X-4640000Y-44185238D01*
X-4606667Y-44147142D01*
X-4573334Y-44070952D01*
X-4573334Y-43880476D01*
X-4606667Y-43804285D01*
X-4640000Y-43766190D01*
X-14183334Y1566667D02*
X-13683334Y1566667D01*
X-13583334Y1604762D01*
X-13516667Y1680953D01*
X-13483334Y1795239D01*
X-13483334Y1871429D01*
X-14116667Y1223810D02*
X-14150000Y1185715D01*
X-14183334Y1109524D01*
X-14183334Y919048D01*
X-14150000Y842858D01*
X-14116667Y804762D01*
X-14050000Y766667D01*
X-13983334Y766667D01*
X-13883334Y804762D01*
X-13483334Y1261905D01*
X-13483334Y766667D01*
M02*
