G04 #@! TF.GenerationSoftware,KiCad,Pcbnew,(5.1.0-10-g6006703)*
G04 #@! TF.CreationDate,2019-06-03T13:36:41+08:00*
G04 #@! TF.ProjectId,cicada-2g,63696361-6461-42d3-9267-2e6b69636164,0.1*
G04 #@! TF.SameCoordinates,PX7cee6c0PY3dfd240*
G04 #@! TF.FileFunction,Paste,Top*
G04 #@! TF.FilePolarity,Positive*
%FSLAX46Y46*%
G04 Gerber Fmt 4.6, Leading zero omitted, Abs format (unit mm)*
G04 Created by KiCad (PCBNEW (5.1.0-10-g6006703)) date 2019-06-03 13:36:41*
%MOMM*%
%LPD*%
G04 APERTURE LIST*
%ADD10C,0.150000*%
%ADD11C,0.590000*%
%ADD12R,0.800000X0.900000*%
%ADD13O,1.600000X0.600000*%
%ADD14O,0.600000X1.600000*%
%ADD15R,1.000000X1.000000*%
%ADD16R,1.050000X2.200000*%
%ADD17R,2.500000X1.800000*%
%ADD18R,0.300000X1.250000*%
%ADD19R,0.150000X1.300000*%
%ADD20R,1.750000X1.800000*%
%ADD21C,0.400000*%
%ADD22R,1.700000X1.800000*%
%ADD23R,0.650000X1.220000*%
%ADD24R,0.650000X1.060000*%
%ADD25R,2.600000X1.100000*%
%ADD26R,1.350000X0.900000*%
%ADD27R,2.200000X3.900000*%
%ADD28C,0.875000*%
%ADD29R,0.600000X0.700000*%
%ADD30C,0.975000*%
G04 APERTURE END LIST*
D10*
X-2500000Y-60000000D02*
X17000000Y-60000000D01*
X-2500000Y-58300000D02*
X-2500000Y-60000000D01*
X-12000000Y-58300000D02*
X-2500000Y-58300000D01*
X-12000000Y-60000000D02*
X-12000000Y-58300000D01*
X-17000000Y-60000000D02*
G75*
G02X-20000000Y-57000000I0J3000000D01*
G01*
X20000000Y-57000000D02*
G75*
G02X17000000Y-60000000I-3000000J0D01*
G01*
X17000000Y5000000D02*
G75*
G02X20000000Y2000000I0J-3000000D01*
G01*
X-20000000Y2000000D02*
G75*
G02X-17000000Y5000000I3000000J0D01*
G01*
X-20000000Y-57000000D02*
X-20000000Y2000000D01*
X-12000000Y-60000000D02*
X-17000000Y-60000000D01*
X20000000Y2000000D02*
X20000000Y-57000000D01*
X-17000000Y5000000D02*
X17000000Y5000000D01*
G36*
X3936958Y-36420710D02*
G01*
X3951276Y-36422834D01*
X3965317Y-36426351D01*
X3978946Y-36431228D01*
X3992031Y-36437417D01*
X4004447Y-36444858D01*
X4016073Y-36453481D01*
X4026798Y-36463202D01*
X4036519Y-36473927D01*
X4045142Y-36485553D01*
X4052583Y-36497969D01*
X4058772Y-36511054D01*
X4063649Y-36524683D01*
X4067166Y-36538724D01*
X4069290Y-36553042D01*
X4070000Y-36567500D01*
X4070000Y-36862500D01*
X4069290Y-36876958D01*
X4067166Y-36891276D01*
X4063649Y-36905317D01*
X4058772Y-36918946D01*
X4052583Y-36932031D01*
X4045142Y-36944447D01*
X4036519Y-36956073D01*
X4026798Y-36966798D01*
X4016073Y-36976519D01*
X4004447Y-36985142D01*
X3992031Y-36992583D01*
X3978946Y-36998772D01*
X3965317Y-37003649D01*
X3951276Y-37007166D01*
X3936958Y-37009290D01*
X3922500Y-37010000D01*
X3577500Y-37010000D01*
X3563042Y-37009290D01*
X3548724Y-37007166D01*
X3534683Y-37003649D01*
X3521054Y-36998772D01*
X3507969Y-36992583D01*
X3495553Y-36985142D01*
X3483927Y-36976519D01*
X3473202Y-36966798D01*
X3463481Y-36956073D01*
X3454858Y-36944447D01*
X3447417Y-36932031D01*
X3441228Y-36918946D01*
X3436351Y-36905317D01*
X3432834Y-36891276D01*
X3430710Y-36876958D01*
X3430000Y-36862500D01*
X3430000Y-36567500D01*
X3430710Y-36553042D01*
X3432834Y-36538724D01*
X3436351Y-36524683D01*
X3441228Y-36511054D01*
X3447417Y-36497969D01*
X3454858Y-36485553D01*
X3463481Y-36473927D01*
X3473202Y-36463202D01*
X3483927Y-36453481D01*
X3495553Y-36444858D01*
X3507969Y-36437417D01*
X3521054Y-36431228D01*
X3534683Y-36426351D01*
X3548724Y-36422834D01*
X3563042Y-36420710D01*
X3577500Y-36420000D01*
X3922500Y-36420000D01*
X3936958Y-36420710D01*
X3936958Y-36420710D01*
G37*
D11*
X3750000Y-36715000D03*
D10*
G36*
X3936958Y-37390710D02*
G01*
X3951276Y-37392834D01*
X3965317Y-37396351D01*
X3978946Y-37401228D01*
X3992031Y-37407417D01*
X4004447Y-37414858D01*
X4016073Y-37423481D01*
X4026798Y-37433202D01*
X4036519Y-37443927D01*
X4045142Y-37455553D01*
X4052583Y-37467969D01*
X4058772Y-37481054D01*
X4063649Y-37494683D01*
X4067166Y-37508724D01*
X4069290Y-37523042D01*
X4070000Y-37537500D01*
X4070000Y-37832500D01*
X4069290Y-37846958D01*
X4067166Y-37861276D01*
X4063649Y-37875317D01*
X4058772Y-37888946D01*
X4052583Y-37902031D01*
X4045142Y-37914447D01*
X4036519Y-37926073D01*
X4026798Y-37936798D01*
X4016073Y-37946519D01*
X4004447Y-37955142D01*
X3992031Y-37962583D01*
X3978946Y-37968772D01*
X3965317Y-37973649D01*
X3951276Y-37977166D01*
X3936958Y-37979290D01*
X3922500Y-37980000D01*
X3577500Y-37980000D01*
X3563042Y-37979290D01*
X3548724Y-37977166D01*
X3534683Y-37973649D01*
X3521054Y-37968772D01*
X3507969Y-37962583D01*
X3495553Y-37955142D01*
X3483927Y-37946519D01*
X3473202Y-37936798D01*
X3463481Y-37926073D01*
X3454858Y-37914447D01*
X3447417Y-37902031D01*
X3441228Y-37888946D01*
X3436351Y-37875317D01*
X3432834Y-37861276D01*
X3430710Y-37846958D01*
X3430000Y-37832500D01*
X3430000Y-37537500D01*
X3430710Y-37523042D01*
X3432834Y-37508724D01*
X3436351Y-37494683D01*
X3441228Y-37481054D01*
X3447417Y-37467969D01*
X3454858Y-37455553D01*
X3463481Y-37443927D01*
X3473202Y-37433202D01*
X3483927Y-37423481D01*
X3495553Y-37414858D01*
X3507969Y-37407417D01*
X3521054Y-37401228D01*
X3534683Y-37396351D01*
X3548724Y-37392834D01*
X3563042Y-37390710D01*
X3577500Y-37390000D01*
X3922500Y-37390000D01*
X3936958Y-37390710D01*
X3936958Y-37390710D01*
G37*
D11*
X3750000Y-37685000D03*
D10*
G36*
X2986958Y-36420710D02*
G01*
X3001276Y-36422834D01*
X3015317Y-36426351D01*
X3028946Y-36431228D01*
X3042031Y-36437417D01*
X3054447Y-36444858D01*
X3066073Y-36453481D01*
X3076798Y-36463202D01*
X3086519Y-36473927D01*
X3095142Y-36485553D01*
X3102583Y-36497969D01*
X3108772Y-36511054D01*
X3113649Y-36524683D01*
X3117166Y-36538724D01*
X3119290Y-36553042D01*
X3120000Y-36567500D01*
X3120000Y-36862500D01*
X3119290Y-36876958D01*
X3117166Y-36891276D01*
X3113649Y-36905317D01*
X3108772Y-36918946D01*
X3102583Y-36932031D01*
X3095142Y-36944447D01*
X3086519Y-36956073D01*
X3076798Y-36966798D01*
X3066073Y-36976519D01*
X3054447Y-36985142D01*
X3042031Y-36992583D01*
X3028946Y-36998772D01*
X3015317Y-37003649D01*
X3001276Y-37007166D01*
X2986958Y-37009290D01*
X2972500Y-37010000D01*
X2627500Y-37010000D01*
X2613042Y-37009290D01*
X2598724Y-37007166D01*
X2584683Y-37003649D01*
X2571054Y-36998772D01*
X2557969Y-36992583D01*
X2545553Y-36985142D01*
X2533927Y-36976519D01*
X2523202Y-36966798D01*
X2513481Y-36956073D01*
X2504858Y-36944447D01*
X2497417Y-36932031D01*
X2491228Y-36918946D01*
X2486351Y-36905317D01*
X2482834Y-36891276D01*
X2480710Y-36876958D01*
X2480000Y-36862500D01*
X2480000Y-36567500D01*
X2480710Y-36553042D01*
X2482834Y-36538724D01*
X2486351Y-36524683D01*
X2491228Y-36511054D01*
X2497417Y-36497969D01*
X2504858Y-36485553D01*
X2513481Y-36473927D01*
X2523202Y-36463202D01*
X2533927Y-36453481D01*
X2545553Y-36444858D01*
X2557969Y-36437417D01*
X2571054Y-36431228D01*
X2584683Y-36426351D01*
X2598724Y-36422834D01*
X2613042Y-36420710D01*
X2627500Y-36420000D01*
X2972500Y-36420000D01*
X2986958Y-36420710D01*
X2986958Y-36420710D01*
G37*
D11*
X2800000Y-36715000D03*
D10*
G36*
X2986958Y-37390710D02*
G01*
X3001276Y-37392834D01*
X3015317Y-37396351D01*
X3028946Y-37401228D01*
X3042031Y-37407417D01*
X3054447Y-37414858D01*
X3066073Y-37423481D01*
X3076798Y-37433202D01*
X3086519Y-37443927D01*
X3095142Y-37455553D01*
X3102583Y-37467969D01*
X3108772Y-37481054D01*
X3113649Y-37494683D01*
X3117166Y-37508724D01*
X3119290Y-37523042D01*
X3120000Y-37537500D01*
X3120000Y-37832500D01*
X3119290Y-37846958D01*
X3117166Y-37861276D01*
X3113649Y-37875317D01*
X3108772Y-37888946D01*
X3102583Y-37902031D01*
X3095142Y-37914447D01*
X3086519Y-37926073D01*
X3076798Y-37936798D01*
X3066073Y-37946519D01*
X3054447Y-37955142D01*
X3042031Y-37962583D01*
X3028946Y-37968772D01*
X3015317Y-37973649D01*
X3001276Y-37977166D01*
X2986958Y-37979290D01*
X2972500Y-37980000D01*
X2627500Y-37980000D01*
X2613042Y-37979290D01*
X2598724Y-37977166D01*
X2584683Y-37973649D01*
X2571054Y-37968772D01*
X2557969Y-37962583D01*
X2545553Y-37955142D01*
X2533927Y-37946519D01*
X2523202Y-37936798D01*
X2513481Y-37926073D01*
X2504858Y-37914447D01*
X2497417Y-37902031D01*
X2491228Y-37888946D01*
X2486351Y-37875317D01*
X2482834Y-37861276D01*
X2480710Y-37846958D01*
X2480000Y-37832500D01*
X2480000Y-37537500D01*
X2480710Y-37523042D01*
X2482834Y-37508724D01*
X2486351Y-37494683D01*
X2491228Y-37481054D01*
X2497417Y-37467969D01*
X2504858Y-37455553D01*
X2513481Y-37443927D01*
X2523202Y-37433202D01*
X2533927Y-37423481D01*
X2545553Y-37414858D01*
X2557969Y-37407417D01*
X2571054Y-37401228D01*
X2584683Y-37396351D01*
X2598724Y-37392834D01*
X2613042Y-37390710D01*
X2627500Y-37390000D01*
X2972500Y-37390000D01*
X2986958Y-37390710D01*
X2986958Y-37390710D01*
G37*
D11*
X2800000Y-37685000D03*
D10*
G36*
X-848042Y-45280710D02*
G01*
X-833724Y-45282834D01*
X-819683Y-45286351D01*
X-806054Y-45291228D01*
X-792969Y-45297417D01*
X-780553Y-45304858D01*
X-768927Y-45313481D01*
X-758202Y-45323202D01*
X-748481Y-45333927D01*
X-739858Y-45345553D01*
X-732417Y-45357969D01*
X-726228Y-45371054D01*
X-721351Y-45384683D01*
X-717834Y-45398724D01*
X-715710Y-45413042D01*
X-715000Y-45427500D01*
X-715000Y-45772500D01*
X-715710Y-45786958D01*
X-717834Y-45801276D01*
X-721351Y-45815317D01*
X-726228Y-45828946D01*
X-732417Y-45842031D01*
X-739858Y-45854447D01*
X-748481Y-45866073D01*
X-758202Y-45876798D01*
X-768927Y-45886519D01*
X-780553Y-45895142D01*
X-792969Y-45902583D01*
X-806054Y-45908772D01*
X-819683Y-45913649D01*
X-833724Y-45917166D01*
X-848042Y-45919290D01*
X-862500Y-45920000D01*
X-1157500Y-45920000D01*
X-1171958Y-45919290D01*
X-1186276Y-45917166D01*
X-1200317Y-45913649D01*
X-1213946Y-45908772D01*
X-1227031Y-45902583D01*
X-1239447Y-45895142D01*
X-1251073Y-45886519D01*
X-1261798Y-45876798D01*
X-1271519Y-45866073D01*
X-1280142Y-45854447D01*
X-1287583Y-45842031D01*
X-1293772Y-45828946D01*
X-1298649Y-45815317D01*
X-1302166Y-45801276D01*
X-1304290Y-45786958D01*
X-1305000Y-45772500D01*
X-1305000Y-45427500D01*
X-1304290Y-45413042D01*
X-1302166Y-45398724D01*
X-1298649Y-45384683D01*
X-1293772Y-45371054D01*
X-1287583Y-45357969D01*
X-1280142Y-45345553D01*
X-1271519Y-45333927D01*
X-1261798Y-45323202D01*
X-1251073Y-45313481D01*
X-1239447Y-45304858D01*
X-1227031Y-45297417D01*
X-1213946Y-45291228D01*
X-1200317Y-45286351D01*
X-1186276Y-45282834D01*
X-1171958Y-45280710D01*
X-1157500Y-45280000D01*
X-862500Y-45280000D01*
X-848042Y-45280710D01*
X-848042Y-45280710D01*
G37*
D11*
X-1010000Y-45600000D03*
D10*
G36*
X-1818042Y-45280710D02*
G01*
X-1803724Y-45282834D01*
X-1789683Y-45286351D01*
X-1776054Y-45291228D01*
X-1762969Y-45297417D01*
X-1750553Y-45304858D01*
X-1738927Y-45313481D01*
X-1728202Y-45323202D01*
X-1718481Y-45333927D01*
X-1709858Y-45345553D01*
X-1702417Y-45357969D01*
X-1696228Y-45371054D01*
X-1691351Y-45384683D01*
X-1687834Y-45398724D01*
X-1685710Y-45413042D01*
X-1685000Y-45427500D01*
X-1685000Y-45772500D01*
X-1685710Y-45786958D01*
X-1687834Y-45801276D01*
X-1691351Y-45815317D01*
X-1696228Y-45828946D01*
X-1702417Y-45842031D01*
X-1709858Y-45854447D01*
X-1718481Y-45866073D01*
X-1728202Y-45876798D01*
X-1738927Y-45886519D01*
X-1750553Y-45895142D01*
X-1762969Y-45902583D01*
X-1776054Y-45908772D01*
X-1789683Y-45913649D01*
X-1803724Y-45917166D01*
X-1818042Y-45919290D01*
X-1832500Y-45920000D01*
X-2127500Y-45920000D01*
X-2141958Y-45919290D01*
X-2156276Y-45917166D01*
X-2170317Y-45913649D01*
X-2183946Y-45908772D01*
X-2197031Y-45902583D01*
X-2209447Y-45895142D01*
X-2221073Y-45886519D01*
X-2231798Y-45876798D01*
X-2241519Y-45866073D01*
X-2250142Y-45854447D01*
X-2257583Y-45842031D01*
X-2263772Y-45828946D01*
X-2268649Y-45815317D01*
X-2272166Y-45801276D01*
X-2274290Y-45786958D01*
X-2275000Y-45772500D01*
X-2275000Y-45427500D01*
X-2274290Y-45413042D01*
X-2272166Y-45398724D01*
X-2268649Y-45384683D01*
X-2263772Y-45371054D01*
X-2257583Y-45357969D01*
X-2250142Y-45345553D01*
X-2241519Y-45333927D01*
X-2231798Y-45323202D01*
X-2221073Y-45313481D01*
X-2209447Y-45304858D01*
X-2197031Y-45297417D01*
X-2183946Y-45291228D01*
X-2170317Y-45286351D01*
X-2156276Y-45282834D01*
X-2141958Y-45280710D01*
X-2127500Y-45280000D01*
X-1832500Y-45280000D01*
X-1818042Y-45280710D01*
X-1818042Y-45280710D01*
G37*
D11*
X-1980000Y-45600000D03*
D10*
G36*
X-848042Y-44280710D02*
G01*
X-833724Y-44282834D01*
X-819683Y-44286351D01*
X-806054Y-44291228D01*
X-792969Y-44297417D01*
X-780553Y-44304858D01*
X-768927Y-44313481D01*
X-758202Y-44323202D01*
X-748481Y-44333927D01*
X-739858Y-44345553D01*
X-732417Y-44357969D01*
X-726228Y-44371054D01*
X-721351Y-44384683D01*
X-717834Y-44398724D01*
X-715710Y-44413042D01*
X-715000Y-44427500D01*
X-715000Y-44772500D01*
X-715710Y-44786958D01*
X-717834Y-44801276D01*
X-721351Y-44815317D01*
X-726228Y-44828946D01*
X-732417Y-44842031D01*
X-739858Y-44854447D01*
X-748481Y-44866073D01*
X-758202Y-44876798D01*
X-768927Y-44886519D01*
X-780553Y-44895142D01*
X-792969Y-44902583D01*
X-806054Y-44908772D01*
X-819683Y-44913649D01*
X-833724Y-44917166D01*
X-848042Y-44919290D01*
X-862500Y-44920000D01*
X-1157500Y-44920000D01*
X-1171958Y-44919290D01*
X-1186276Y-44917166D01*
X-1200317Y-44913649D01*
X-1213946Y-44908772D01*
X-1227031Y-44902583D01*
X-1239447Y-44895142D01*
X-1251073Y-44886519D01*
X-1261798Y-44876798D01*
X-1271519Y-44866073D01*
X-1280142Y-44854447D01*
X-1287583Y-44842031D01*
X-1293772Y-44828946D01*
X-1298649Y-44815317D01*
X-1302166Y-44801276D01*
X-1304290Y-44786958D01*
X-1305000Y-44772500D01*
X-1305000Y-44427500D01*
X-1304290Y-44413042D01*
X-1302166Y-44398724D01*
X-1298649Y-44384683D01*
X-1293772Y-44371054D01*
X-1287583Y-44357969D01*
X-1280142Y-44345553D01*
X-1271519Y-44333927D01*
X-1261798Y-44323202D01*
X-1251073Y-44313481D01*
X-1239447Y-44304858D01*
X-1227031Y-44297417D01*
X-1213946Y-44291228D01*
X-1200317Y-44286351D01*
X-1186276Y-44282834D01*
X-1171958Y-44280710D01*
X-1157500Y-44280000D01*
X-862500Y-44280000D01*
X-848042Y-44280710D01*
X-848042Y-44280710D01*
G37*
D11*
X-1010000Y-44600000D03*
D10*
G36*
X-1818042Y-44280710D02*
G01*
X-1803724Y-44282834D01*
X-1789683Y-44286351D01*
X-1776054Y-44291228D01*
X-1762969Y-44297417D01*
X-1750553Y-44304858D01*
X-1738927Y-44313481D01*
X-1728202Y-44323202D01*
X-1718481Y-44333927D01*
X-1709858Y-44345553D01*
X-1702417Y-44357969D01*
X-1696228Y-44371054D01*
X-1691351Y-44384683D01*
X-1687834Y-44398724D01*
X-1685710Y-44413042D01*
X-1685000Y-44427500D01*
X-1685000Y-44772500D01*
X-1685710Y-44786958D01*
X-1687834Y-44801276D01*
X-1691351Y-44815317D01*
X-1696228Y-44828946D01*
X-1702417Y-44842031D01*
X-1709858Y-44854447D01*
X-1718481Y-44866073D01*
X-1728202Y-44876798D01*
X-1738927Y-44886519D01*
X-1750553Y-44895142D01*
X-1762969Y-44902583D01*
X-1776054Y-44908772D01*
X-1789683Y-44913649D01*
X-1803724Y-44917166D01*
X-1818042Y-44919290D01*
X-1832500Y-44920000D01*
X-2127500Y-44920000D01*
X-2141958Y-44919290D01*
X-2156276Y-44917166D01*
X-2170317Y-44913649D01*
X-2183946Y-44908772D01*
X-2197031Y-44902583D01*
X-2209447Y-44895142D01*
X-2221073Y-44886519D01*
X-2231798Y-44876798D01*
X-2241519Y-44866073D01*
X-2250142Y-44854447D01*
X-2257583Y-44842031D01*
X-2263772Y-44828946D01*
X-2268649Y-44815317D01*
X-2272166Y-44801276D01*
X-2274290Y-44786958D01*
X-2275000Y-44772500D01*
X-2275000Y-44427500D01*
X-2274290Y-44413042D01*
X-2272166Y-44398724D01*
X-2268649Y-44384683D01*
X-2263772Y-44371054D01*
X-2257583Y-44357969D01*
X-2250142Y-44345553D01*
X-2241519Y-44333927D01*
X-2231798Y-44323202D01*
X-2221073Y-44313481D01*
X-2209447Y-44304858D01*
X-2197031Y-44297417D01*
X-2183946Y-44291228D01*
X-2170317Y-44286351D01*
X-2156276Y-44282834D01*
X-2141958Y-44280710D01*
X-2127500Y-44280000D01*
X-1832500Y-44280000D01*
X-1818042Y-44280710D01*
X-1818042Y-44280710D01*
G37*
D11*
X-1980000Y-44600000D03*
D10*
G36*
X-2713042Y-44340710D02*
G01*
X-2698724Y-44342834D01*
X-2684683Y-44346351D01*
X-2671054Y-44351228D01*
X-2657969Y-44357417D01*
X-2645553Y-44364858D01*
X-2633927Y-44373481D01*
X-2623202Y-44383202D01*
X-2613481Y-44393927D01*
X-2604858Y-44405553D01*
X-2597417Y-44417969D01*
X-2591228Y-44431054D01*
X-2586351Y-44444683D01*
X-2582834Y-44458724D01*
X-2580710Y-44473042D01*
X-2580000Y-44487500D01*
X-2580000Y-44782500D01*
X-2580710Y-44796958D01*
X-2582834Y-44811276D01*
X-2586351Y-44825317D01*
X-2591228Y-44838946D01*
X-2597417Y-44852031D01*
X-2604858Y-44864447D01*
X-2613481Y-44876073D01*
X-2623202Y-44886798D01*
X-2633927Y-44896519D01*
X-2645553Y-44905142D01*
X-2657969Y-44912583D01*
X-2671054Y-44918772D01*
X-2684683Y-44923649D01*
X-2698724Y-44927166D01*
X-2713042Y-44929290D01*
X-2727500Y-44930000D01*
X-3072500Y-44930000D01*
X-3086958Y-44929290D01*
X-3101276Y-44927166D01*
X-3115317Y-44923649D01*
X-3128946Y-44918772D01*
X-3142031Y-44912583D01*
X-3154447Y-44905142D01*
X-3166073Y-44896519D01*
X-3176798Y-44886798D01*
X-3186519Y-44876073D01*
X-3195142Y-44864447D01*
X-3202583Y-44852031D01*
X-3208772Y-44838946D01*
X-3213649Y-44825317D01*
X-3217166Y-44811276D01*
X-3219290Y-44796958D01*
X-3220000Y-44782500D01*
X-3220000Y-44487500D01*
X-3219290Y-44473042D01*
X-3217166Y-44458724D01*
X-3213649Y-44444683D01*
X-3208772Y-44431054D01*
X-3202583Y-44417969D01*
X-3195142Y-44405553D01*
X-3186519Y-44393927D01*
X-3176798Y-44383202D01*
X-3166073Y-44373481D01*
X-3154447Y-44364858D01*
X-3142031Y-44357417D01*
X-3128946Y-44351228D01*
X-3115317Y-44346351D01*
X-3101276Y-44342834D01*
X-3086958Y-44340710D01*
X-3072500Y-44340000D01*
X-2727500Y-44340000D01*
X-2713042Y-44340710D01*
X-2713042Y-44340710D01*
G37*
D11*
X-2900000Y-44635000D03*
D10*
G36*
X-2713042Y-45310710D02*
G01*
X-2698724Y-45312834D01*
X-2684683Y-45316351D01*
X-2671054Y-45321228D01*
X-2657969Y-45327417D01*
X-2645553Y-45334858D01*
X-2633927Y-45343481D01*
X-2623202Y-45353202D01*
X-2613481Y-45363927D01*
X-2604858Y-45375553D01*
X-2597417Y-45387969D01*
X-2591228Y-45401054D01*
X-2586351Y-45414683D01*
X-2582834Y-45428724D01*
X-2580710Y-45443042D01*
X-2580000Y-45457500D01*
X-2580000Y-45752500D01*
X-2580710Y-45766958D01*
X-2582834Y-45781276D01*
X-2586351Y-45795317D01*
X-2591228Y-45808946D01*
X-2597417Y-45822031D01*
X-2604858Y-45834447D01*
X-2613481Y-45846073D01*
X-2623202Y-45856798D01*
X-2633927Y-45866519D01*
X-2645553Y-45875142D01*
X-2657969Y-45882583D01*
X-2671054Y-45888772D01*
X-2684683Y-45893649D01*
X-2698724Y-45897166D01*
X-2713042Y-45899290D01*
X-2727500Y-45900000D01*
X-3072500Y-45900000D01*
X-3086958Y-45899290D01*
X-3101276Y-45897166D01*
X-3115317Y-45893649D01*
X-3128946Y-45888772D01*
X-3142031Y-45882583D01*
X-3154447Y-45875142D01*
X-3166073Y-45866519D01*
X-3176798Y-45856798D01*
X-3186519Y-45846073D01*
X-3195142Y-45834447D01*
X-3202583Y-45822031D01*
X-3208772Y-45808946D01*
X-3213649Y-45795317D01*
X-3217166Y-45781276D01*
X-3219290Y-45766958D01*
X-3220000Y-45752500D01*
X-3220000Y-45457500D01*
X-3219290Y-45443042D01*
X-3217166Y-45428724D01*
X-3213649Y-45414683D01*
X-3208772Y-45401054D01*
X-3202583Y-45387969D01*
X-3195142Y-45375553D01*
X-3186519Y-45363927D01*
X-3176798Y-45353202D01*
X-3166073Y-45343481D01*
X-3154447Y-45334858D01*
X-3142031Y-45327417D01*
X-3128946Y-45321228D01*
X-3115317Y-45316351D01*
X-3101276Y-45312834D01*
X-3086958Y-45310710D01*
X-3072500Y-45310000D01*
X-2727500Y-45310000D01*
X-2713042Y-45310710D01*
X-2713042Y-45310710D01*
G37*
D11*
X-2900000Y-45605000D03*
D10*
G36*
X9446958Y-13380710D02*
G01*
X9461276Y-13382834D01*
X9475317Y-13386351D01*
X9488946Y-13391228D01*
X9502031Y-13397417D01*
X9514447Y-13404858D01*
X9526073Y-13413481D01*
X9536798Y-13423202D01*
X9546519Y-13433927D01*
X9555142Y-13445553D01*
X9562583Y-13457969D01*
X9568772Y-13471054D01*
X9573649Y-13484683D01*
X9577166Y-13498724D01*
X9579290Y-13513042D01*
X9580000Y-13527500D01*
X9580000Y-13872500D01*
X9579290Y-13886958D01*
X9577166Y-13901276D01*
X9573649Y-13915317D01*
X9568772Y-13928946D01*
X9562583Y-13942031D01*
X9555142Y-13954447D01*
X9546519Y-13966073D01*
X9536798Y-13976798D01*
X9526073Y-13986519D01*
X9514447Y-13995142D01*
X9502031Y-14002583D01*
X9488946Y-14008772D01*
X9475317Y-14013649D01*
X9461276Y-14017166D01*
X9446958Y-14019290D01*
X9432500Y-14020000D01*
X9137500Y-14020000D01*
X9123042Y-14019290D01*
X9108724Y-14017166D01*
X9094683Y-14013649D01*
X9081054Y-14008772D01*
X9067969Y-14002583D01*
X9055553Y-13995142D01*
X9043927Y-13986519D01*
X9033202Y-13976798D01*
X9023481Y-13966073D01*
X9014858Y-13954447D01*
X9007417Y-13942031D01*
X9001228Y-13928946D01*
X8996351Y-13915317D01*
X8992834Y-13901276D01*
X8990710Y-13886958D01*
X8990000Y-13872500D01*
X8990000Y-13527500D01*
X8990710Y-13513042D01*
X8992834Y-13498724D01*
X8996351Y-13484683D01*
X9001228Y-13471054D01*
X9007417Y-13457969D01*
X9014858Y-13445553D01*
X9023481Y-13433927D01*
X9033202Y-13423202D01*
X9043927Y-13413481D01*
X9055553Y-13404858D01*
X9067969Y-13397417D01*
X9081054Y-13391228D01*
X9094683Y-13386351D01*
X9108724Y-13382834D01*
X9123042Y-13380710D01*
X9137500Y-13380000D01*
X9432500Y-13380000D01*
X9446958Y-13380710D01*
X9446958Y-13380710D01*
G37*
D11*
X9285000Y-13700000D03*
D10*
G36*
X8476958Y-13380710D02*
G01*
X8491276Y-13382834D01*
X8505317Y-13386351D01*
X8518946Y-13391228D01*
X8532031Y-13397417D01*
X8544447Y-13404858D01*
X8556073Y-13413481D01*
X8566798Y-13423202D01*
X8576519Y-13433927D01*
X8585142Y-13445553D01*
X8592583Y-13457969D01*
X8598772Y-13471054D01*
X8603649Y-13484683D01*
X8607166Y-13498724D01*
X8609290Y-13513042D01*
X8610000Y-13527500D01*
X8610000Y-13872500D01*
X8609290Y-13886958D01*
X8607166Y-13901276D01*
X8603649Y-13915317D01*
X8598772Y-13928946D01*
X8592583Y-13942031D01*
X8585142Y-13954447D01*
X8576519Y-13966073D01*
X8566798Y-13976798D01*
X8556073Y-13986519D01*
X8544447Y-13995142D01*
X8532031Y-14002583D01*
X8518946Y-14008772D01*
X8505317Y-14013649D01*
X8491276Y-14017166D01*
X8476958Y-14019290D01*
X8462500Y-14020000D01*
X8167500Y-14020000D01*
X8153042Y-14019290D01*
X8138724Y-14017166D01*
X8124683Y-14013649D01*
X8111054Y-14008772D01*
X8097969Y-14002583D01*
X8085553Y-13995142D01*
X8073927Y-13986519D01*
X8063202Y-13976798D01*
X8053481Y-13966073D01*
X8044858Y-13954447D01*
X8037417Y-13942031D01*
X8031228Y-13928946D01*
X8026351Y-13915317D01*
X8022834Y-13901276D01*
X8020710Y-13886958D01*
X8020000Y-13872500D01*
X8020000Y-13527500D01*
X8020710Y-13513042D01*
X8022834Y-13498724D01*
X8026351Y-13484683D01*
X8031228Y-13471054D01*
X8037417Y-13457969D01*
X8044858Y-13445553D01*
X8053481Y-13433927D01*
X8063202Y-13423202D01*
X8073927Y-13413481D01*
X8085553Y-13404858D01*
X8097969Y-13397417D01*
X8111054Y-13391228D01*
X8124683Y-13386351D01*
X8138724Y-13382834D01*
X8153042Y-13380710D01*
X8167500Y-13380000D01*
X8462500Y-13380000D01*
X8476958Y-13380710D01*
X8476958Y-13380710D01*
G37*
D11*
X8315000Y-13700000D03*
D10*
G36*
X9913506Y-18380710D02*
G01*
X9927824Y-18382834D01*
X9941865Y-18386351D01*
X9955494Y-18391228D01*
X9968579Y-18397417D01*
X9980995Y-18404858D01*
X9992621Y-18413481D01*
X10003346Y-18423202D01*
X10013067Y-18433927D01*
X10021690Y-18445553D01*
X10029131Y-18457969D01*
X10035320Y-18471054D01*
X10040197Y-18484683D01*
X10043714Y-18498724D01*
X10045838Y-18513042D01*
X10046548Y-18527500D01*
X10046548Y-18872500D01*
X10045838Y-18886958D01*
X10043714Y-18901276D01*
X10040197Y-18915317D01*
X10035320Y-18928946D01*
X10029131Y-18942031D01*
X10021690Y-18954447D01*
X10013067Y-18966073D01*
X10003346Y-18976798D01*
X9992621Y-18986519D01*
X9980995Y-18995142D01*
X9968579Y-19002583D01*
X9955494Y-19008772D01*
X9941865Y-19013649D01*
X9927824Y-19017166D01*
X9913506Y-19019290D01*
X9899048Y-19020000D01*
X9604048Y-19020000D01*
X9589590Y-19019290D01*
X9575272Y-19017166D01*
X9561231Y-19013649D01*
X9547602Y-19008772D01*
X9534517Y-19002583D01*
X9522101Y-18995142D01*
X9510475Y-18986519D01*
X9499750Y-18976798D01*
X9490029Y-18966073D01*
X9481406Y-18954447D01*
X9473965Y-18942031D01*
X9467776Y-18928946D01*
X9462899Y-18915317D01*
X9459382Y-18901276D01*
X9457258Y-18886958D01*
X9456548Y-18872500D01*
X9456548Y-18527500D01*
X9457258Y-18513042D01*
X9459382Y-18498724D01*
X9462899Y-18484683D01*
X9467776Y-18471054D01*
X9473965Y-18457969D01*
X9481406Y-18445553D01*
X9490029Y-18433927D01*
X9499750Y-18423202D01*
X9510475Y-18413481D01*
X9522101Y-18404858D01*
X9534517Y-18397417D01*
X9547602Y-18391228D01*
X9561231Y-18386351D01*
X9575272Y-18382834D01*
X9589590Y-18380710D01*
X9604048Y-18380000D01*
X9899048Y-18380000D01*
X9913506Y-18380710D01*
X9913506Y-18380710D01*
G37*
D11*
X9751548Y-18700000D03*
D10*
G36*
X8943506Y-18380710D02*
G01*
X8957824Y-18382834D01*
X8971865Y-18386351D01*
X8985494Y-18391228D01*
X8998579Y-18397417D01*
X9010995Y-18404858D01*
X9022621Y-18413481D01*
X9033346Y-18423202D01*
X9043067Y-18433927D01*
X9051690Y-18445553D01*
X9059131Y-18457969D01*
X9065320Y-18471054D01*
X9070197Y-18484683D01*
X9073714Y-18498724D01*
X9075838Y-18513042D01*
X9076548Y-18527500D01*
X9076548Y-18872500D01*
X9075838Y-18886958D01*
X9073714Y-18901276D01*
X9070197Y-18915317D01*
X9065320Y-18928946D01*
X9059131Y-18942031D01*
X9051690Y-18954447D01*
X9043067Y-18966073D01*
X9033346Y-18976798D01*
X9022621Y-18986519D01*
X9010995Y-18995142D01*
X8998579Y-19002583D01*
X8985494Y-19008772D01*
X8971865Y-19013649D01*
X8957824Y-19017166D01*
X8943506Y-19019290D01*
X8929048Y-19020000D01*
X8634048Y-19020000D01*
X8619590Y-19019290D01*
X8605272Y-19017166D01*
X8591231Y-19013649D01*
X8577602Y-19008772D01*
X8564517Y-19002583D01*
X8552101Y-18995142D01*
X8540475Y-18986519D01*
X8529750Y-18976798D01*
X8520029Y-18966073D01*
X8511406Y-18954447D01*
X8503965Y-18942031D01*
X8497776Y-18928946D01*
X8492899Y-18915317D01*
X8489382Y-18901276D01*
X8487258Y-18886958D01*
X8486548Y-18872500D01*
X8486548Y-18527500D01*
X8487258Y-18513042D01*
X8489382Y-18498724D01*
X8492899Y-18484683D01*
X8497776Y-18471054D01*
X8503965Y-18457969D01*
X8511406Y-18445553D01*
X8520029Y-18433927D01*
X8529750Y-18423202D01*
X8540475Y-18413481D01*
X8552101Y-18404858D01*
X8564517Y-18397417D01*
X8577602Y-18391228D01*
X8591231Y-18386351D01*
X8605272Y-18382834D01*
X8619590Y-18380710D01*
X8634048Y-18380000D01*
X8929048Y-18380000D01*
X8943506Y-18380710D01*
X8943506Y-18380710D01*
G37*
D11*
X8781548Y-18700000D03*
D10*
G36*
X6376958Y-13380710D02*
G01*
X6391276Y-13382834D01*
X6405317Y-13386351D01*
X6418946Y-13391228D01*
X6432031Y-13397417D01*
X6444447Y-13404858D01*
X6456073Y-13413481D01*
X6466798Y-13423202D01*
X6476519Y-13433927D01*
X6485142Y-13445553D01*
X6492583Y-13457969D01*
X6498772Y-13471054D01*
X6503649Y-13484683D01*
X6507166Y-13498724D01*
X6509290Y-13513042D01*
X6510000Y-13527500D01*
X6510000Y-13872500D01*
X6509290Y-13886958D01*
X6507166Y-13901276D01*
X6503649Y-13915317D01*
X6498772Y-13928946D01*
X6492583Y-13942031D01*
X6485142Y-13954447D01*
X6476519Y-13966073D01*
X6466798Y-13976798D01*
X6456073Y-13986519D01*
X6444447Y-13995142D01*
X6432031Y-14002583D01*
X6418946Y-14008772D01*
X6405317Y-14013649D01*
X6391276Y-14017166D01*
X6376958Y-14019290D01*
X6362500Y-14020000D01*
X6067500Y-14020000D01*
X6053042Y-14019290D01*
X6038724Y-14017166D01*
X6024683Y-14013649D01*
X6011054Y-14008772D01*
X5997969Y-14002583D01*
X5985553Y-13995142D01*
X5973927Y-13986519D01*
X5963202Y-13976798D01*
X5953481Y-13966073D01*
X5944858Y-13954447D01*
X5937417Y-13942031D01*
X5931228Y-13928946D01*
X5926351Y-13915317D01*
X5922834Y-13901276D01*
X5920710Y-13886958D01*
X5920000Y-13872500D01*
X5920000Y-13527500D01*
X5920710Y-13513042D01*
X5922834Y-13498724D01*
X5926351Y-13484683D01*
X5931228Y-13471054D01*
X5937417Y-13457969D01*
X5944858Y-13445553D01*
X5953481Y-13433927D01*
X5963202Y-13423202D01*
X5973927Y-13413481D01*
X5985553Y-13404858D01*
X5997969Y-13397417D01*
X6011054Y-13391228D01*
X6024683Y-13386351D01*
X6038724Y-13382834D01*
X6053042Y-13380710D01*
X6067500Y-13380000D01*
X6362500Y-13380000D01*
X6376958Y-13380710D01*
X6376958Y-13380710D01*
G37*
D11*
X6215000Y-13700000D03*
D10*
G36*
X7346958Y-13380710D02*
G01*
X7361276Y-13382834D01*
X7375317Y-13386351D01*
X7388946Y-13391228D01*
X7402031Y-13397417D01*
X7414447Y-13404858D01*
X7426073Y-13413481D01*
X7436798Y-13423202D01*
X7446519Y-13433927D01*
X7455142Y-13445553D01*
X7462583Y-13457969D01*
X7468772Y-13471054D01*
X7473649Y-13484683D01*
X7477166Y-13498724D01*
X7479290Y-13513042D01*
X7480000Y-13527500D01*
X7480000Y-13872500D01*
X7479290Y-13886958D01*
X7477166Y-13901276D01*
X7473649Y-13915317D01*
X7468772Y-13928946D01*
X7462583Y-13942031D01*
X7455142Y-13954447D01*
X7446519Y-13966073D01*
X7436798Y-13976798D01*
X7426073Y-13986519D01*
X7414447Y-13995142D01*
X7402031Y-14002583D01*
X7388946Y-14008772D01*
X7375317Y-14013649D01*
X7361276Y-14017166D01*
X7346958Y-14019290D01*
X7332500Y-14020000D01*
X7037500Y-14020000D01*
X7023042Y-14019290D01*
X7008724Y-14017166D01*
X6994683Y-14013649D01*
X6981054Y-14008772D01*
X6967969Y-14002583D01*
X6955553Y-13995142D01*
X6943927Y-13986519D01*
X6933202Y-13976798D01*
X6923481Y-13966073D01*
X6914858Y-13954447D01*
X6907417Y-13942031D01*
X6901228Y-13928946D01*
X6896351Y-13915317D01*
X6892834Y-13901276D01*
X6890710Y-13886958D01*
X6890000Y-13872500D01*
X6890000Y-13527500D01*
X6890710Y-13513042D01*
X6892834Y-13498724D01*
X6896351Y-13484683D01*
X6901228Y-13471054D01*
X6907417Y-13457969D01*
X6914858Y-13445553D01*
X6923481Y-13433927D01*
X6933202Y-13423202D01*
X6943927Y-13413481D01*
X6955553Y-13404858D01*
X6967969Y-13397417D01*
X6981054Y-13391228D01*
X6994683Y-13386351D01*
X7008724Y-13382834D01*
X7023042Y-13380710D01*
X7037500Y-13380000D01*
X7332500Y-13380000D01*
X7346958Y-13380710D01*
X7346958Y-13380710D01*
G37*
D11*
X7185000Y-13700000D03*
D10*
G36*
X4076958Y-18380710D02*
G01*
X4091276Y-18382834D01*
X4105317Y-18386351D01*
X4118946Y-18391228D01*
X4132031Y-18397417D01*
X4144447Y-18404858D01*
X4156073Y-18413481D01*
X4166798Y-18423202D01*
X4176519Y-18433927D01*
X4185142Y-18445553D01*
X4192583Y-18457969D01*
X4198772Y-18471054D01*
X4203649Y-18484683D01*
X4207166Y-18498724D01*
X4209290Y-18513042D01*
X4210000Y-18527500D01*
X4210000Y-18872500D01*
X4209290Y-18886958D01*
X4207166Y-18901276D01*
X4203649Y-18915317D01*
X4198772Y-18928946D01*
X4192583Y-18942031D01*
X4185142Y-18954447D01*
X4176519Y-18966073D01*
X4166798Y-18976798D01*
X4156073Y-18986519D01*
X4144447Y-18995142D01*
X4132031Y-19002583D01*
X4118946Y-19008772D01*
X4105317Y-19013649D01*
X4091276Y-19017166D01*
X4076958Y-19019290D01*
X4062500Y-19020000D01*
X3767500Y-19020000D01*
X3753042Y-19019290D01*
X3738724Y-19017166D01*
X3724683Y-19013649D01*
X3711054Y-19008772D01*
X3697969Y-19002583D01*
X3685553Y-18995142D01*
X3673927Y-18986519D01*
X3663202Y-18976798D01*
X3653481Y-18966073D01*
X3644858Y-18954447D01*
X3637417Y-18942031D01*
X3631228Y-18928946D01*
X3626351Y-18915317D01*
X3622834Y-18901276D01*
X3620710Y-18886958D01*
X3620000Y-18872500D01*
X3620000Y-18527500D01*
X3620710Y-18513042D01*
X3622834Y-18498724D01*
X3626351Y-18484683D01*
X3631228Y-18471054D01*
X3637417Y-18457969D01*
X3644858Y-18445553D01*
X3653481Y-18433927D01*
X3663202Y-18423202D01*
X3673927Y-18413481D01*
X3685553Y-18404858D01*
X3697969Y-18397417D01*
X3711054Y-18391228D01*
X3724683Y-18386351D01*
X3738724Y-18382834D01*
X3753042Y-18380710D01*
X3767500Y-18380000D01*
X4062500Y-18380000D01*
X4076958Y-18380710D01*
X4076958Y-18380710D01*
G37*
D11*
X3915000Y-18700000D03*
D10*
G36*
X5046958Y-18380710D02*
G01*
X5061276Y-18382834D01*
X5075317Y-18386351D01*
X5088946Y-18391228D01*
X5102031Y-18397417D01*
X5114447Y-18404858D01*
X5126073Y-18413481D01*
X5136798Y-18423202D01*
X5146519Y-18433927D01*
X5155142Y-18445553D01*
X5162583Y-18457969D01*
X5168772Y-18471054D01*
X5173649Y-18484683D01*
X5177166Y-18498724D01*
X5179290Y-18513042D01*
X5180000Y-18527500D01*
X5180000Y-18872500D01*
X5179290Y-18886958D01*
X5177166Y-18901276D01*
X5173649Y-18915317D01*
X5168772Y-18928946D01*
X5162583Y-18942031D01*
X5155142Y-18954447D01*
X5146519Y-18966073D01*
X5136798Y-18976798D01*
X5126073Y-18986519D01*
X5114447Y-18995142D01*
X5102031Y-19002583D01*
X5088946Y-19008772D01*
X5075317Y-19013649D01*
X5061276Y-19017166D01*
X5046958Y-19019290D01*
X5032500Y-19020000D01*
X4737500Y-19020000D01*
X4723042Y-19019290D01*
X4708724Y-19017166D01*
X4694683Y-19013649D01*
X4681054Y-19008772D01*
X4667969Y-19002583D01*
X4655553Y-18995142D01*
X4643927Y-18986519D01*
X4633202Y-18976798D01*
X4623481Y-18966073D01*
X4614858Y-18954447D01*
X4607417Y-18942031D01*
X4601228Y-18928946D01*
X4596351Y-18915317D01*
X4592834Y-18901276D01*
X4590710Y-18886958D01*
X4590000Y-18872500D01*
X4590000Y-18527500D01*
X4590710Y-18513042D01*
X4592834Y-18498724D01*
X4596351Y-18484683D01*
X4601228Y-18471054D01*
X4607417Y-18457969D01*
X4614858Y-18445553D01*
X4623481Y-18433927D01*
X4633202Y-18423202D01*
X4643927Y-18413481D01*
X4655553Y-18404858D01*
X4667969Y-18397417D01*
X4681054Y-18391228D01*
X4694683Y-18386351D01*
X4708724Y-18382834D01*
X4723042Y-18380710D01*
X4737500Y-18380000D01*
X5032500Y-18380000D01*
X5046958Y-18380710D01*
X5046958Y-18380710D01*
G37*
D11*
X4885000Y-18700000D03*
D12*
X4400000Y-15300000D03*
X5350000Y-17300000D03*
X3450000Y-17300000D03*
X9300000Y-15300000D03*
X10250000Y-17300000D03*
X8350000Y-17300000D03*
D13*
X975000Y-30025000D03*
X975000Y-31125000D03*
X975000Y-32225000D03*
X975000Y-33325000D03*
X975000Y-34425000D03*
X975000Y-35525000D03*
X975000Y-36625000D03*
X975000Y-37725000D03*
X975000Y-38825000D03*
D14*
X-1775000Y-42275000D03*
X-2875000Y-42275000D03*
X-3975000Y-42275000D03*
X-5075000Y-42275000D03*
X-6175000Y-42275000D03*
X-7275000Y-42275000D03*
X-8375000Y-42275000D03*
X-9475000Y-42275000D03*
X-10575000Y-42275000D03*
X-11675000Y-42275000D03*
X-12775000Y-42275000D03*
X-13875000Y-42275000D03*
D13*
X-16625000Y-38825000D03*
X-16625000Y-37725000D03*
X-16625000Y-36625000D03*
X-16625000Y-35525000D03*
X-16625000Y-34425000D03*
X-16625000Y-33325000D03*
X-16625000Y-32225000D03*
X-16625000Y-31125000D03*
X-16625000Y-30025000D03*
D14*
X-13875000Y-26575000D03*
X-12775000Y-26575000D03*
X-11675000Y-26575000D03*
X-10575000Y-26575000D03*
X-9475000Y-26575000D03*
X-8375000Y-26575000D03*
X-7275000Y-26575000D03*
X-6175000Y-26575000D03*
X-5075000Y-26575000D03*
X-3975000Y-26575000D03*
X-2875000Y-26575000D03*
X-1775000Y-26575000D03*
D15*
X-2900000Y-47070000D03*
X-2900000Y-50070000D03*
D16*
X-4375000Y-48570000D03*
X-1425000Y-48570000D03*
D17*
X4350000Y-48800000D03*
X8350000Y-48800000D03*
D18*
X-6000000Y-54125000D03*
X-6650000Y-54125000D03*
X-7300000Y-54125000D03*
X-7950000Y-54125000D03*
X-8600000Y-54125000D03*
D19*
X-2725000Y-56800000D03*
X-11875000Y-56800000D03*
D20*
X-3775000Y-56800000D03*
X-10825000Y-56800000D03*
D21*
X-2850000Y-57500000D03*
X-2850000Y-56100000D03*
X-11750000Y-57500000D03*
X-11750000Y-56100000D03*
D22*
X-6150000Y-56800000D03*
X-8450000Y-56800000D03*
D10*
G36*
X17336958Y-44165710D02*
G01*
X17351276Y-44167834D01*
X17365317Y-44171351D01*
X17378946Y-44176228D01*
X17392031Y-44182417D01*
X17404447Y-44189858D01*
X17416073Y-44198481D01*
X17426798Y-44208202D01*
X17436519Y-44218927D01*
X17445142Y-44230553D01*
X17452583Y-44242969D01*
X17458772Y-44256054D01*
X17463649Y-44269683D01*
X17467166Y-44283724D01*
X17469290Y-44298042D01*
X17470000Y-44312500D01*
X17470000Y-44607500D01*
X17469290Y-44621958D01*
X17467166Y-44636276D01*
X17463649Y-44650317D01*
X17458772Y-44663946D01*
X17452583Y-44677031D01*
X17445142Y-44689447D01*
X17436519Y-44701073D01*
X17426798Y-44711798D01*
X17416073Y-44721519D01*
X17404447Y-44730142D01*
X17392031Y-44737583D01*
X17378946Y-44743772D01*
X17365317Y-44748649D01*
X17351276Y-44752166D01*
X17336958Y-44754290D01*
X17322500Y-44755000D01*
X16977500Y-44755000D01*
X16963042Y-44754290D01*
X16948724Y-44752166D01*
X16934683Y-44748649D01*
X16921054Y-44743772D01*
X16907969Y-44737583D01*
X16895553Y-44730142D01*
X16883927Y-44721519D01*
X16873202Y-44711798D01*
X16863481Y-44701073D01*
X16854858Y-44689447D01*
X16847417Y-44677031D01*
X16841228Y-44663946D01*
X16836351Y-44650317D01*
X16832834Y-44636276D01*
X16830710Y-44621958D01*
X16830000Y-44607500D01*
X16830000Y-44312500D01*
X16830710Y-44298042D01*
X16832834Y-44283724D01*
X16836351Y-44269683D01*
X16841228Y-44256054D01*
X16847417Y-44242969D01*
X16854858Y-44230553D01*
X16863481Y-44218927D01*
X16873202Y-44208202D01*
X16883927Y-44198481D01*
X16895553Y-44189858D01*
X16907969Y-44182417D01*
X16921054Y-44176228D01*
X16934683Y-44171351D01*
X16948724Y-44167834D01*
X16963042Y-44165710D01*
X16977500Y-44165000D01*
X17322500Y-44165000D01*
X17336958Y-44165710D01*
X17336958Y-44165710D01*
G37*
D11*
X17150000Y-44460000D03*
D10*
G36*
X17336958Y-43195710D02*
G01*
X17351276Y-43197834D01*
X17365317Y-43201351D01*
X17378946Y-43206228D01*
X17392031Y-43212417D01*
X17404447Y-43219858D01*
X17416073Y-43228481D01*
X17426798Y-43238202D01*
X17436519Y-43248927D01*
X17445142Y-43260553D01*
X17452583Y-43272969D01*
X17458772Y-43286054D01*
X17463649Y-43299683D01*
X17467166Y-43313724D01*
X17469290Y-43328042D01*
X17470000Y-43342500D01*
X17470000Y-43637500D01*
X17469290Y-43651958D01*
X17467166Y-43666276D01*
X17463649Y-43680317D01*
X17458772Y-43693946D01*
X17452583Y-43707031D01*
X17445142Y-43719447D01*
X17436519Y-43731073D01*
X17426798Y-43741798D01*
X17416073Y-43751519D01*
X17404447Y-43760142D01*
X17392031Y-43767583D01*
X17378946Y-43773772D01*
X17365317Y-43778649D01*
X17351276Y-43782166D01*
X17336958Y-43784290D01*
X17322500Y-43785000D01*
X16977500Y-43785000D01*
X16963042Y-43784290D01*
X16948724Y-43782166D01*
X16934683Y-43778649D01*
X16921054Y-43773772D01*
X16907969Y-43767583D01*
X16895553Y-43760142D01*
X16883927Y-43751519D01*
X16873202Y-43741798D01*
X16863481Y-43731073D01*
X16854858Y-43719447D01*
X16847417Y-43707031D01*
X16841228Y-43693946D01*
X16836351Y-43680317D01*
X16832834Y-43666276D01*
X16830710Y-43651958D01*
X16830000Y-43637500D01*
X16830000Y-43342500D01*
X16830710Y-43328042D01*
X16832834Y-43313724D01*
X16836351Y-43299683D01*
X16841228Y-43286054D01*
X16847417Y-43272969D01*
X16854858Y-43260553D01*
X16863481Y-43248927D01*
X16873202Y-43238202D01*
X16883927Y-43228481D01*
X16895553Y-43219858D01*
X16907969Y-43212417D01*
X16921054Y-43206228D01*
X16934683Y-43201351D01*
X16948724Y-43197834D01*
X16963042Y-43195710D01*
X16977500Y-43195000D01*
X17322500Y-43195000D01*
X17336958Y-43195710D01*
X17336958Y-43195710D01*
G37*
D11*
X17150000Y-43490000D03*
D10*
G36*
X17336958Y-42265710D02*
G01*
X17351276Y-42267834D01*
X17365317Y-42271351D01*
X17378946Y-42276228D01*
X17392031Y-42282417D01*
X17404447Y-42289858D01*
X17416073Y-42298481D01*
X17426798Y-42308202D01*
X17436519Y-42318927D01*
X17445142Y-42330553D01*
X17452583Y-42342969D01*
X17458772Y-42356054D01*
X17463649Y-42369683D01*
X17467166Y-42383724D01*
X17469290Y-42398042D01*
X17470000Y-42412500D01*
X17470000Y-42707500D01*
X17469290Y-42721958D01*
X17467166Y-42736276D01*
X17463649Y-42750317D01*
X17458772Y-42763946D01*
X17452583Y-42777031D01*
X17445142Y-42789447D01*
X17436519Y-42801073D01*
X17426798Y-42811798D01*
X17416073Y-42821519D01*
X17404447Y-42830142D01*
X17392031Y-42837583D01*
X17378946Y-42843772D01*
X17365317Y-42848649D01*
X17351276Y-42852166D01*
X17336958Y-42854290D01*
X17322500Y-42855000D01*
X16977500Y-42855000D01*
X16963042Y-42854290D01*
X16948724Y-42852166D01*
X16934683Y-42848649D01*
X16921054Y-42843772D01*
X16907969Y-42837583D01*
X16895553Y-42830142D01*
X16883927Y-42821519D01*
X16873202Y-42811798D01*
X16863481Y-42801073D01*
X16854858Y-42789447D01*
X16847417Y-42777031D01*
X16841228Y-42763946D01*
X16836351Y-42750317D01*
X16832834Y-42736276D01*
X16830710Y-42721958D01*
X16830000Y-42707500D01*
X16830000Y-42412500D01*
X16830710Y-42398042D01*
X16832834Y-42383724D01*
X16836351Y-42369683D01*
X16841228Y-42356054D01*
X16847417Y-42342969D01*
X16854858Y-42330553D01*
X16863481Y-42318927D01*
X16873202Y-42308202D01*
X16883927Y-42298481D01*
X16895553Y-42289858D01*
X16907969Y-42282417D01*
X16921054Y-42276228D01*
X16934683Y-42271351D01*
X16948724Y-42267834D01*
X16963042Y-42265710D01*
X16977500Y-42265000D01*
X17322500Y-42265000D01*
X17336958Y-42265710D01*
X17336958Y-42265710D01*
G37*
D11*
X17150000Y-42560000D03*
D10*
G36*
X17336958Y-41295710D02*
G01*
X17351276Y-41297834D01*
X17365317Y-41301351D01*
X17378946Y-41306228D01*
X17392031Y-41312417D01*
X17404447Y-41319858D01*
X17416073Y-41328481D01*
X17426798Y-41338202D01*
X17436519Y-41348927D01*
X17445142Y-41360553D01*
X17452583Y-41372969D01*
X17458772Y-41386054D01*
X17463649Y-41399683D01*
X17467166Y-41413724D01*
X17469290Y-41428042D01*
X17470000Y-41442500D01*
X17470000Y-41737500D01*
X17469290Y-41751958D01*
X17467166Y-41766276D01*
X17463649Y-41780317D01*
X17458772Y-41793946D01*
X17452583Y-41807031D01*
X17445142Y-41819447D01*
X17436519Y-41831073D01*
X17426798Y-41841798D01*
X17416073Y-41851519D01*
X17404447Y-41860142D01*
X17392031Y-41867583D01*
X17378946Y-41873772D01*
X17365317Y-41878649D01*
X17351276Y-41882166D01*
X17336958Y-41884290D01*
X17322500Y-41885000D01*
X16977500Y-41885000D01*
X16963042Y-41884290D01*
X16948724Y-41882166D01*
X16934683Y-41878649D01*
X16921054Y-41873772D01*
X16907969Y-41867583D01*
X16895553Y-41860142D01*
X16883927Y-41851519D01*
X16873202Y-41841798D01*
X16863481Y-41831073D01*
X16854858Y-41819447D01*
X16847417Y-41807031D01*
X16841228Y-41793946D01*
X16836351Y-41780317D01*
X16832834Y-41766276D01*
X16830710Y-41751958D01*
X16830000Y-41737500D01*
X16830000Y-41442500D01*
X16830710Y-41428042D01*
X16832834Y-41413724D01*
X16836351Y-41399683D01*
X16841228Y-41386054D01*
X16847417Y-41372969D01*
X16854858Y-41360553D01*
X16863481Y-41348927D01*
X16873202Y-41338202D01*
X16883927Y-41328481D01*
X16895553Y-41319858D01*
X16907969Y-41312417D01*
X16921054Y-41306228D01*
X16934683Y-41301351D01*
X16948724Y-41297834D01*
X16963042Y-41295710D01*
X16977500Y-41295000D01*
X17322500Y-41295000D01*
X17336958Y-41295710D01*
X17336958Y-41295710D01*
G37*
D11*
X17150000Y-41590000D03*
D10*
G36*
X18384204Y-43195710D02*
G01*
X18398522Y-43197834D01*
X18412563Y-43201351D01*
X18426192Y-43206228D01*
X18439277Y-43212417D01*
X18451693Y-43219858D01*
X18463319Y-43228481D01*
X18474044Y-43238202D01*
X18483765Y-43248927D01*
X18492388Y-43260553D01*
X18499829Y-43272969D01*
X18506018Y-43286054D01*
X18510895Y-43299683D01*
X18514412Y-43313724D01*
X18516536Y-43328042D01*
X18517246Y-43342500D01*
X18517246Y-43637500D01*
X18516536Y-43651958D01*
X18514412Y-43666276D01*
X18510895Y-43680317D01*
X18506018Y-43693946D01*
X18499829Y-43707031D01*
X18492388Y-43719447D01*
X18483765Y-43731073D01*
X18474044Y-43741798D01*
X18463319Y-43751519D01*
X18451693Y-43760142D01*
X18439277Y-43767583D01*
X18426192Y-43773772D01*
X18412563Y-43778649D01*
X18398522Y-43782166D01*
X18384204Y-43784290D01*
X18369746Y-43785000D01*
X18024746Y-43785000D01*
X18010288Y-43784290D01*
X17995970Y-43782166D01*
X17981929Y-43778649D01*
X17968300Y-43773772D01*
X17955215Y-43767583D01*
X17942799Y-43760142D01*
X17931173Y-43751519D01*
X17920448Y-43741798D01*
X17910727Y-43731073D01*
X17902104Y-43719447D01*
X17894663Y-43707031D01*
X17888474Y-43693946D01*
X17883597Y-43680317D01*
X17880080Y-43666276D01*
X17877956Y-43651958D01*
X17877246Y-43637500D01*
X17877246Y-43342500D01*
X17877956Y-43328042D01*
X17880080Y-43313724D01*
X17883597Y-43299683D01*
X17888474Y-43286054D01*
X17894663Y-43272969D01*
X17902104Y-43260553D01*
X17910727Y-43248927D01*
X17920448Y-43238202D01*
X17931173Y-43228481D01*
X17942799Y-43219858D01*
X17955215Y-43212417D01*
X17968300Y-43206228D01*
X17981929Y-43201351D01*
X17995970Y-43197834D01*
X18010288Y-43195710D01*
X18024746Y-43195000D01*
X18369746Y-43195000D01*
X18384204Y-43195710D01*
X18384204Y-43195710D01*
G37*
D11*
X18197246Y-43490000D03*
D10*
G36*
X18384204Y-44165710D02*
G01*
X18398522Y-44167834D01*
X18412563Y-44171351D01*
X18426192Y-44176228D01*
X18439277Y-44182417D01*
X18451693Y-44189858D01*
X18463319Y-44198481D01*
X18474044Y-44208202D01*
X18483765Y-44218927D01*
X18492388Y-44230553D01*
X18499829Y-44242969D01*
X18506018Y-44256054D01*
X18510895Y-44269683D01*
X18514412Y-44283724D01*
X18516536Y-44298042D01*
X18517246Y-44312500D01*
X18517246Y-44607500D01*
X18516536Y-44621958D01*
X18514412Y-44636276D01*
X18510895Y-44650317D01*
X18506018Y-44663946D01*
X18499829Y-44677031D01*
X18492388Y-44689447D01*
X18483765Y-44701073D01*
X18474044Y-44711798D01*
X18463319Y-44721519D01*
X18451693Y-44730142D01*
X18439277Y-44737583D01*
X18426192Y-44743772D01*
X18412563Y-44748649D01*
X18398522Y-44752166D01*
X18384204Y-44754290D01*
X18369746Y-44755000D01*
X18024746Y-44755000D01*
X18010288Y-44754290D01*
X17995970Y-44752166D01*
X17981929Y-44748649D01*
X17968300Y-44743772D01*
X17955215Y-44737583D01*
X17942799Y-44730142D01*
X17931173Y-44721519D01*
X17920448Y-44711798D01*
X17910727Y-44701073D01*
X17902104Y-44689447D01*
X17894663Y-44677031D01*
X17888474Y-44663946D01*
X17883597Y-44650317D01*
X17880080Y-44636276D01*
X17877956Y-44621958D01*
X17877246Y-44607500D01*
X17877246Y-44312500D01*
X17877956Y-44298042D01*
X17880080Y-44283724D01*
X17883597Y-44269683D01*
X17888474Y-44256054D01*
X17894663Y-44242969D01*
X17902104Y-44230553D01*
X17910727Y-44218927D01*
X17920448Y-44208202D01*
X17931173Y-44198481D01*
X17942799Y-44189858D01*
X17955215Y-44182417D01*
X17968300Y-44176228D01*
X17981929Y-44171351D01*
X17995970Y-44167834D01*
X18010288Y-44165710D01*
X18024746Y-44165000D01*
X18369746Y-44165000D01*
X18384204Y-44165710D01*
X18384204Y-44165710D01*
G37*
D11*
X18197246Y-44460000D03*
D10*
G36*
X15390232Y-18192906D02*
G01*
X15404550Y-18195030D01*
X15418591Y-18198547D01*
X15432220Y-18203424D01*
X15445305Y-18209613D01*
X15457721Y-18217054D01*
X15469347Y-18225677D01*
X15480072Y-18235398D01*
X15489793Y-18246123D01*
X15498416Y-18257749D01*
X15505857Y-18270165D01*
X15512046Y-18283250D01*
X15516923Y-18296879D01*
X15520440Y-18310920D01*
X15522564Y-18325238D01*
X15523274Y-18339696D01*
X15523274Y-18684696D01*
X15522564Y-18699154D01*
X15520440Y-18713472D01*
X15516923Y-18727513D01*
X15512046Y-18741142D01*
X15505857Y-18754227D01*
X15498416Y-18766643D01*
X15489793Y-18778269D01*
X15480072Y-18788994D01*
X15469347Y-18798715D01*
X15457721Y-18807338D01*
X15445305Y-18814779D01*
X15432220Y-18820968D01*
X15418591Y-18825845D01*
X15404550Y-18829362D01*
X15390232Y-18831486D01*
X15375774Y-18832196D01*
X15080774Y-18832196D01*
X15066316Y-18831486D01*
X15051998Y-18829362D01*
X15037957Y-18825845D01*
X15024328Y-18820968D01*
X15011243Y-18814779D01*
X14998827Y-18807338D01*
X14987201Y-18798715D01*
X14976476Y-18788994D01*
X14966755Y-18778269D01*
X14958132Y-18766643D01*
X14950691Y-18754227D01*
X14944502Y-18741142D01*
X14939625Y-18727513D01*
X14936108Y-18713472D01*
X14933984Y-18699154D01*
X14933274Y-18684696D01*
X14933274Y-18339696D01*
X14933984Y-18325238D01*
X14936108Y-18310920D01*
X14939625Y-18296879D01*
X14944502Y-18283250D01*
X14950691Y-18270165D01*
X14958132Y-18257749D01*
X14966755Y-18246123D01*
X14976476Y-18235398D01*
X14987201Y-18225677D01*
X14998827Y-18217054D01*
X15011243Y-18209613D01*
X15024328Y-18203424D01*
X15037957Y-18198547D01*
X15051998Y-18195030D01*
X15066316Y-18192906D01*
X15080774Y-18192196D01*
X15375774Y-18192196D01*
X15390232Y-18192906D01*
X15390232Y-18192906D01*
G37*
D11*
X15228274Y-18512196D03*
D10*
G36*
X14420232Y-18192906D02*
G01*
X14434550Y-18195030D01*
X14448591Y-18198547D01*
X14462220Y-18203424D01*
X14475305Y-18209613D01*
X14487721Y-18217054D01*
X14499347Y-18225677D01*
X14510072Y-18235398D01*
X14519793Y-18246123D01*
X14528416Y-18257749D01*
X14535857Y-18270165D01*
X14542046Y-18283250D01*
X14546923Y-18296879D01*
X14550440Y-18310920D01*
X14552564Y-18325238D01*
X14553274Y-18339696D01*
X14553274Y-18684696D01*
X14552564Y-18699154D01*
X14550440Y-18713472D01*
X14546923Y-18727513D01*
X14542046Y-18741142D01*
X14535857Y-18754227D01*
X14528416Y-18766643D01*
X14519793Y-18778269D01*
X14510072Y-18788994D01*
X14499347Y-18798715D01*
X14487721Y-18807338D01*
X14475305Y-18814779D01*
X14462220Y-18820968D01*
X14448591Y-18825845D01*
X14434550Y-18829362D01*
X14420232Y-18831486D01*
X14405774Y-18832196D01*
X14110774Y-18832196D01*
X14096316Y-18831486D01*
X14081998Y-18829362D01*
X14067957Y-18825845D01*
X14054328Y-18820968D01*
X14041243Y-18814779D01*
X14028827Y-18807338D01*
X14017201Y-18798715D01*
X14006476Y-18788994D01*
X13996755Y-18778269D01*
X13988132Y-18766643D01*
X13980691Y-18754227D01*
X13974502Y-18741142D01*
X13969625Y-18727513D01*
X13966108Y-18713472D01*
X13963984Y-18699154D01*
X13963274Y-18684696D01*
X13963274Y-18339696D01*
X13963984Y-18325238D01*
X13966108Y-18310920D01*
X13969625Y-18296879D01*
X13974502Y-18283250D01*
X13980691Y-18270165D01*
X13988132Y-18257749D01*
X13996755Y-18246123D01*
X14006476Y-18235398D01*
X14017201Y-18225677D01*
X14028827Y-18217054D01*
X14041243Y-18209613D01*
X14054328Y-18203424D01*
X14067957Y-18198547D01*
X14081998Y-18195030D01*
X14096316Y-18192906D01*
X14110774Y-18192196D01*
X14405774Y-18192196D01*
X14420232Y-18192906D01*
X14420232Y-18192906D01*
G37*
D11*
X14258274Y-18512196D03*
D10*
G36*
X15030230Y-13802908D02*
G01*
X15044548Y-13805032D01*
X15058589Y-13808549D01*
X15072218Y-13813426D01*
X15085303Y-13819615D01*
X15097719Y-13827056D01*
X15109345Y-13835679D01*
X15120070Y-13845400D01*
X15129791Y-13856125D01*
X15138414Y-13867751D01*
X15145855Y-13880167D01*
X15152044Y-13893252D01*
X15156921Y-13906881D01*
X15160438Y-13920922D01*
X15162562Y-13935240D01*
X15163272Y-13949698D01*
X15163272Y-14244698D01*
X15162562Y-14259156D01*
X15160438Y-14273474D01*
X15156921Y-14287515D01*
X15152044Y-14301144D01*
X15145855Y-14314229D01*
X15138414Y-14326645D01*
X15129791Y-14338271D01*
X15120070Y-14348996D01*
X15109345Y-14358717D01*
X15097719Y-14367340D01*
X15085303Y-14374781D01*
X15072218Y-14380970D01*
X15058589Y-14385847D01*
X15044548Y-14389364D01*
X15030230Y-14391488D01*
X15015772Y-14392198D01*
X14670772Y-14392198D01*
X14656314Y-14391488D01*
X14641996Y-14389364D01*
X14627955Y-14385847D01*
X14614326Y-14380970D01*
X14601241Y-14374781D01*
X14588825Y-14367340D01*
X14577199Y-14358717D01*
X14566474Y-14348996D01*
X14556753Y-14338271D01*
X14548130Y-14326645D01*
X14540689Y-14314229D01*
X14534500Y-14301144D01*
X14529623Y-14287515D01*
X14526106Y-14273474D01*
X14523982Y-14259156D01*
X14523272Y-14244698D01*
X14523272Y-13949698D01*
X14523982Y-13935240D01*
X14526106Y-13920922D01*
X14529623Y-13906881D01*
X14534500Y-13893252D01*
X14540689Y-13880167D01*
X14548130Y-13867751D01*
X14556753Y-13856125D01*
X14566474Y-13845400D01*
X14577199Y-13835679D01*
X14588825Y-13827056D01*
X14601241Y-13819615D01*
X14614326Y-13813426D01*
X14627955Y-13808549D01*
X14641996Y-13805032D01*
X14656314Y-13802908D01*
X14670772Y-13802198D01*
X15015772Y-13802198D01*
X15030230Y-13802908D01*
X15030230Y-13802908D01*
G37*
D11*
X14843272Y-14097198D03*
D10*
G36*
X15030230Y-12832908D02*
G01*
X15044548Y-12835032D01*
X15058589Y-12838549D01*
X15072218Y-12843426D01*
X15085303Y-12849615D01*
X15097719Y-12857056D01*
X15109345Y-12865679D01*
X15120070Y-12875400D01*
X15129791Y-12886125D01*
X15138414Y-12897751D01*
X15145855Y-12910167D01*
X15152044Y-12923252D01*
X15156921Y-12936881D01*
X15160438Y-12950922D01*
X15162562Y-12965240D01*
X15163272Y-12979698D01*
X15163272Y-13274698D01*
X15162562Y-13289156D01*
X15160438Y-13303474D01*
X15156921Y-13317515D01*
X15152044Y-13331144D01*
X15145855Y-13344229D01*
X15138414Y-13356645D01*
X15129791Y-13368271D01*
X15120070Y-13378996D01*
X15109345Y-13388717D01*
X15097719Y-13397340D01*
X15085303Y-13404781D01*
X15072218Y-13410970D01*
X15058589Y-13415847D01*
X15044548Y-13419364D01*
X15030230Y-13421488D01*
X15015772Y-13422198D01*
X14670772Y-13422198D01*
X14656314Y-13421488D01*
X14641996Y-13419364D01*
X14627955Y-13415847D01*
X14614326Y-13410970D01*
X14601241Y-13404781D01*
X14588825Y-13397340D01*
X14577199Y-13388717D01*
X14566474Y-13378996D01*
X14556753Y-13368271D01*
X14548130Y-13356645D01*
X14540689Y-13344229D01*
X14534500Y-13331144D01*
X14529623Y-13317515D01*
X14526106Y-13303474D01*
X14523982Y-13289156D01*
X14523272Y-13274698D01*
X14523272Y-12979698D01*
X14523982Y-12965240D01*
X14526106Y-12950922D01*
X14529623Y-12936881D01*
X14534500Y-12923252D01*
X14540689Y-12910167D01*
X14548130Y-12897751D01*
X14556753Y-12886125D01*
X14566474Y-12875400D01*
X14577199Y-12865679D01*
X14588825Y-12857056D01*
X14601241Y-12849615D01*
X14614326Y-12843426D01*
X14627955Y-12838549D01*
X14641996Y-12835032D01*
X14656314Y-12832908D01*
X14670772Y-12832198D01*
X15015772Y-12832198D01*
X15030230Y-12832908D01*
X15030230Y-12832908D01*
G37*
D11*
X14843272Y-13127198D03*
D10*
G36*
X2476958Y-10780710D02*
G01*
X2491276Y-10782834D01*
X2505317Y-10786351D01*
X2518946Y-10791228D01*
X2532031Y-10797417D01*
X2544447Y-10804858D01*
X2556073Y-10813481D01*
X2566798Y-10823202D01*
X2576519Y-10833927D01*
X2585142Y-10845553D01*
X2592583Y-10857969D01*
X2598772Y-10871054D01*
X2603649Y-10884683D01*
X2607166Y-10898724D01*
X2609290Y-10913042D01*
X2610000Y-10927500D01*
X2610000Y-11272500D01*
X2609290Y-11286958D01*
X2607166Y-11301276D01*
X2603649Y-11315317D01*
X2598772Y-11328946D01*
X2592583Y-11342031D01*
X2585142Y-11354447D01*
X2576519Y-11366073D01*
X2566798Y-11376798D01*
X2556073Y-11386519D01*
X2544447Y-11395142D01*
X2532031Y-11402583D01*
X2518946Y-11408772D01*
X2505317Y-11413649D01*
X2491276Y-11417166D01*
X2476958Y-11419290D01*
X2462500Y-11420000D01*
X2167500Y-11420000D01*
X2153042Y-11419290D01*
X2138724Y-11417166D01*
X2124683Y-11413649D01*
X2111054Y-11408772D01*
X2097969Y-11402583D01*
X2085553Y-11395142D01*
X2073927Y-11386519D01*
X2063202Y-11376798D01*
X2053481Y-11366073D01*
X2044858Y-11354447D01*
X2037417Y-11342031D01*
X2031228Y-11328946D01*
X2026351Y-11315317D01*
X2022834Y-11301276D01*
X2020710Y-11286958D01*
X2020000Y-11272500D01*
X2020000Y-10927500D01*
X2020710Y-10913042D01*
X2022834Y-10898724D01*
X2026351Y-10884683D01*
X2031228Y-10871054D01*
X2037417Y-10857969D01*
X2044858Y-10845553D01*
X2053481Y-10833927D01*
X2063202Y-10823202D01*
X2073927Y-10813481D01*
X2085553Y-10804858D01*
X2097969Y-10797417D01*
X2111054Y-10791228D01*
X2124683Y-10786351D01*
X2138724Y-10782834D01*
X2153042Y-10780710D01*
X2167500Y-10780000D01*
X2462500Y-10780000D01*
X2476958Y-10780710D01*
X2476958Y-10780710D01*
G37*
D11*
X2315000Y-11100000D03*
D10*
G36*
X3446958Y-10780710D02*
G01*
X3461276Y-10782834D01*
X3475317Y-10786351D01*
X3488946Y-10791228D01*
X3502031Y-10797417D01*
X3514447Y-10804858D01*
X3526073Y-10813481D01*
X3536798Y-10823202D01*
X3546519Y-10833927D01*
X3555142Y-10845553D01*
X3562583Y-10857969D01*
X3568772Y-10871054D01*
X3573649Y-10884683D01*
X3577166Y-10898724D01*
X3579290Y-10913042D01*
X3580000Y-10927500D01*
X3580000Y-11272500D01*
X3579290Y-11286958D01*
X3577166Y-11301276D01*
X3573649Y-11315317D01*
X3568772Y-11328946D01*
X3562583Y-11342031D01*
X3555142Y-11354447D01*
X3546519Y-11366073D01*
X3536798Y-11376798D01*
X3526073Y-11386519D01*
X3514447Y-11395142D01*
X3502031Y-11402583D01*
X3488946Y-11408772D01*
X3475317Y-11413649D01*
X3461276Y-11417166D01*
X3446958Y-11419290D01*
X3432500Y-11420000D01*
X3137500Y-11420000D01*
X3123042Y-11419290D01*
X3108724Y-11417166D01*
X3094683Y-11413649D01*
X3081054Y-11408772D01*
X3067969Y-11402583D01*
X3055553Y-11395142D01*
X3043927Y-11386519D01*
X3033202Y-11376798D01*
X3023481Y-11366073D01*
X3014858Y-11354447D01*
X3007417Y-11342031D01*
X3001228Y-11328946D01*
X2996351Y-11315317D01*
X2992834Y-11301276D01*
X2990710Y-11286958D01*
X2990000Y-11272500D01*
X2990000Y-10927500D01*
X2990710Y-10913042D01*
X2992834Y-10898724D01*
X2996351Y-10884683D01*
X3001228Y-10871054D01*
X3007417Y-10857969D01*
X3014858Y-10845553D01*
X3023481Y-10833927D01*
X3033202Y-10823202D01*
X3043927Y-10813481D01*
X3055553Y-10804858D01*
X3067969Y-10797417D01*
X3081054Y-10791228D01*
X3094683Y-10786351D01*
X3108724Y-10782834D01*
X3123042Y-10780710D01*
X3137500Y-10780000D01*
X3432500Y-10780000D01*
X3446958Y-10780710D01*
X3446958Y-10780710D01*
G37*
D11*
X3285000Y-11100000D03*
D10*
G36*
X2476958Y-9480710D02*
G01*
X2491276Y-9482834D01*
X2505317Y-9486351D01*
X2518946Y-9491228D01*
X2532031Y-9497417D01*
X2544447Y-9504858D01*
X2556073Y-9513481D01*
X2566798Y-9523202D01*
X2576519Y-9533927D01*
X2585142Y-9545553D01*
X2592583Y-9557969D01*
X2598772Y-9571054D01*
X2603649Y-9584683D01*
X2607166Y-9598724D01*
X2609290Y-9613042D01*
X2610000Y-9627500D01*
X2610000Y-9972500D01*
X2609290Y-9986958D01*
X2607166Y-10001276D01*
X2603649Y-10015317D01*
X2598772Y-10028946D01*
X2592583Y-10042031D01*
X2585142Y-10054447D01*
X2576519Y-10066073D01*
X2566798Y-10076798D01*
X2556073Y-10086519D01*
X2544447Y-10095142D01*
X2532031Y-10102583D01*
X2518946Y-10108772D01*
X2505317Y-10113649D01*
X2491276Y-10117166D01*
X2476958Y-10119290D01*
X2462500Y-10120000D01*
X2167500Y-10120000D01*
X2153042Y-10119290D01*
X2138724Y-10117166D01*
X2124683Y-10113649D01*
X2111054Y-10108772D01*
X2097969Y-10102583D01*
X2085553Y-10095142D01*
X2073927Y-10086519D01*
X2063202Y-10076798D01*
X2053481Y-10066073D01*
X2044858Y-10054447D01*
X2037417Y-10042031D01*
X2031228Y-10028946D01*
X2026351Y-10015317D01*
X2022834Y-10001276D01*
X2020710Y-9986958D01*
X2020000Y-9972500D01*
X2020000Y-9627500D01*
X2020710Y-9613042D01*
X2022834Y-9598724D01*
X2026351Y-9584683D01*
X2031228Y-9571054D01*
X2037417Y-9557969D01*
X2044858Y-9545553D01*
X2053481Y-9533927D01*
X2063202Y-9523202D01*
X2073927Y-9513481D01*
X2085553Y-9504858D01*
X2097969Y-9497417D01*
X2111054Y-9491228D01*
X2124683Y-9486351D01*
X2138724Y-9482834D01*
X2153042Y-9480710D01*
X2167500Y-9480000D01*
X2462500Y-9480000D01*
X2476958Y-9480710D01*
X2476958Y-9480710D01*
G37*
D11*
X2315000Y-9800000D03*
D10*
G36*
X3446958Y-9480710D02*
G01*
X3461276Y-9482834D01*
X3475317Y-9486351D01*
X3488946Y-9491228D01*
X3502031Y-9497417D01*
X3514447Y-9504858D01*
X3526073Y-9513481D01*
X3536798Y-9523202D01*
X3546519Y-9533927D01*
X3555142Y-9545553D01*
X3562583Y-9557969D01*
X3568772Y-9571054D01*
X3573649Y-9584683D01*
X3577166Y-9598724D01*
X3579290Y-9613042D01*
X3580000Y-9627500D01*
X3580000Y-9972500D01*
X3579290Y-9986958D01*
X3577166Y-10001276D01*
X3573649Y-10015317D01*
X3568772Y-10028946D01*
X3562583Y-10042031D01*
X3555142Y-10054447D01*
X3546519Y-10066073D01*
X3536798Y-10076798D01*
X3526073Y-10086519D01*
X3514447Y-10095142D01*
X3502031Y-10102583D01*
X3488946Y-10108772D01*
X3475317Y-10113649D01*
X3461276Y-10117166D01*
X3446958Y-10119290D01*
X3432500Y-10120000D01*
X3137500Y-10120000D01*
X3123042Y-10119290D01*
X3108724Y-10117166D01*
X3094683Y-10113649D01*
X3081054Y-10108772D01*
X3067969Y-10102583D01*
X3055553Y-10095142D01*
X3043927Y-10086519D01*
X3033202Y-10076798D01*
X3023481Y-10066073D01*
X3014858Y-10054447D01*
X3007417Y-10042031D01*
X3001228Y-10028946D01*
X2996351Y-10015317D01*
X2992834Y-10001276D01*
X2990710Y-9986958D01*
X2990000Y-9972500D01*
X2990000Y-9627500D01*
X2990710Y-9613042D01*
X2992834Y-9598724D01*
X2996351Y-9584683D01*
X3001228Y-9571054D01*
X3007417Y-9557969D01*
X3014858Y-9545553D01*
X3023481Y-9533927D01*
X3033202Y-9523202D01*
X3043927Y-9513481D01*
X3055553Y-9504858D01*
X3067969Y-9497417D01*
X3081054Y-9491228D01*
X3094683Y-9486351D01*
X3108724Y-9482834D01*
X3123042Y-9480710D01*
X3137500Y-9480000D01*
X3432500Y-9480000D01*
X3446958Y-9480710D01*
X3446958Y-9480710D01*
G37*
D11*
X3285000Y-9800000D03*
D10*
G36*
X3576958Y-6980710D02*
G01*
X3591276Y-6982834D01*
X3605317Y-6986351D01*
X3618946Y-6991228D01*
X3632031Y-6997417D01*
X3644447Y-7004858D01*
X3656073Y-7013481D01*
X3666798Y-7023202D01*
X3676519Y-7033927D01*
X3685142Y-7045553D01*
X3692583Y-7057969D01*
X3698772Y-7071054D01*
X3703649Y-7084683D01*
X3707166Y-7098724D01*
X3709290Y-7113042D01*
X3710000Y-7127500D01*
X3710000Y-7472500D01*
X3709290Y-7486958D01*
X3707166Y-7501276D01*
X3703649Y-7515317D01*
X3698772Y-7528946D01*
X3692583Y-7542031D01*
X3685142Y-7554447D01*
X3676519Y-7566073D01*
X3666798Y-7576798D01*
X3656073Y-7586519D01*
X3644447Y-7595142D01*
X3632031Y-7602583D01*
X3618946Y-7608772D01*
X3605317Y-7613649D01*
X3591276Y-7617166D01*
X3576958Y-7619290D01*
X3562500Y-7620000D01*
X3267500Y-7620000D01*
X3253042Y-7619290D01*
X3238724Y-7617166D01*
X3224683Y-7613649D01*
X3211054Y-7608772D01*
X3197969Y-7602583D01*
X3185553Y-7595142D01*
X3173927Y-7586519D01*
X3163202Y-7576798D01*
X3153481Y-7566073D01*
X3144858Y-7554447D01*
X3137417Y-7542031D01*
X3131228Y-7528946D01*
X3126351Y-7515317D01*
X3122834Y-7501276D01*
X3120710Y-7486958D01*
X3120000Y-7472500D01*
X3120000Y-7127500D01*
X3120710Y-7113042D01*
X3122834Y-7098724D01*
X3126351Y-7084683D01*
X3131228Y-7071054D01*
X3137417Y-7057969D01*
X3144858Y-7045553D01*
X3153481Y-7033927D01*
X3163202Y-7023202D01*
X3173927Y-7013481D01*
X3185553Y-7004858D01*
X3197969Y-6997417D01*
X3211054Y-6991228D01*
X3224683Y-6986351D01*
X3238724Y-6982834D01*
X3253042Y-6980710D01*
X3267500Y-6980000D01*
X3562500Y-6980000D01*
X3576958Y-6980710D01*
X3576958Y-6980710D01*
G37*
D11*
X3415000Y-7300000D03*
D10*
G36*
X4546958Y-6980710D02*
G01*
X4561276Y-6982834D01*
X4575317Y-6986351D01*
X4588946Y-6991228D01*
X4602031Y-6997417D01*
X4614447Y-7004858D01*
X4626073Y-7013481D01*
X4636798Y-7023202D01*
X4646519Y-7033927D01*
X4655142Y-7045553D01*
X4662583Y-7057969D01*
X4668772Y-7071054D01*
X4673649Y-7084683D01*
X4677166Y-7098724D01*
X4679290Y-7113042D01*
X4680000Y-7127500D01*
X4680000Y-7472500D01*
X4679290Y-7486958D01*
X4677166Y-7501276D01*
X4673649Y-7515317D01*
X4668772Y-7528946D01*
X4662583Y-7542031D01*
X4655142Y-7554447D01*
X4646519Y-7566073D01*
X4636798Y-7576798D01*
X4626073Y-7586519D01*
X4614447Y-7595142D01*
X4602031Y-7602583D01*
X4588946Y-7608772D01*
X4575317Y-7613649D01*
X4561276Y-7617166D01*
X4546958Y-7619290D01*
X4532500Y-7620000D01*
X4237500Y-7620000D01*
X4223042Y-7619290D01*
X4208724Y-7617166D01*
X4194683Y-7613649D01*
X4181054Y-7608772D01*
X4167969Y-7602583D01*
X4155553Y-7595142D01*
X4143927Y-7586519D01*
X4133202Y-7576798D01*
X4123481Y-7566073D01*
X4114858Y-7554447D01*
X4107417Y-7542031D01*
X4101228Y-7528946D01*
X4096351Y-7515317D01*
X4092834Y-7501276D01*
X4090710Y-7486958D01*
X4090000Y-7472500D01*
X4090000Y-7127500D01*
X4090710Y-7113042D01*
X4092834Y-7098724D01*
X4096351Y-7084683D01*
X4101228Y-7071054D01*
X4107417Y-7057969D01*
X4114858Y-7045553D01*
X4123481Y-7033927D01*
X4133202Y-7023202D01*
X4143927Y-7013481D01*
X4155553Y-7004858D01*
X4167969Y-6997417D01*
X4181054Y-6991228D01*
X4194683Y-6986351D01*
X4208724Y-6982834D01*
X4223042Y-6980710D01*
X4237500Y-6980000D01*
X4532500Y-6980000D01*
X4546958Y-6980710D01*
X4546958Y-6980710D01*
G37*
D11*
X4385000Y-7300000D03*
D10*
G36*
X-14013042Y779290D02*
G01*
X-13998724Y777166D01*
X-13984683Y773649D01*
X-13971054Y768772D01*
X-13957969Y762583D01*
X-13945553Y755142D01*
X-13933927Y746519D01*
X-13923202Y736798D01*
X-13913481Y726073D01*
X-13904858Y714447D01*
X-13897417Y702031D01*
X-13891228Y688946D01*
X-13886351Y675317D01*
X-13882834Y661276D01*
X-13880710Y646958D01*
X-13880000Y632500D01*
X-13880000Y337500D01*
X-13880710Y323042D01*
X-13882834Y308724D01*
X-13886351Y294683D01*
X-13891228Y281054D01*
X-13897417Y267969D01*
X-13904858Y255553D01*
X-13913481Y243927D01*
X-13923202Y233202D01*
X-13933927Y223481D01*
X-13945553Y214858D01*
X-13957969Y207417D01*
X-13971054Y201228D01*
X-13984683Y196351D01*
X-13998724Y192834D01*
X-14013042Y190710D01*
X-14027500Y190000D01*
X-14372500Y190000D01*
X-14386958Y190710D01*
X-14401276Y192834D01*
X-14415317Y196351D01*
X-14428946Y201228D01*
X-14442031Y207417D01*
X-14454447Y214858D01*
X-14466073Y223481D01*
X-14476798Y233202D01*
X-14486519Y243927D01*
X-14495142Y255553D01*
X-14502583Y267969D01*
X-14508772Y281054D01*
X-14513649Y294683D01*
X-14517166Y308724D01*
X-14519290Y323042D01*
X-14520000Y337500D01*
X-14520000Y632500D01*
X-14519290Y646958D01*
X-14517166Y661276D01*
X-14513649Y675317D01*
X-14508772Y688946D01*
X-14502583Y702031D01*
X-14495142Y714447D01*
X-14486519Y726073D01*
X-14476798Y736798D01*
X-14466073Y746519D01*
X-14454447Y755142D01*
X-14442031Y762583D01*
X-14428946Y768772D01*
X-14415317Y773649D01*
X-14401276Y777166D01*
X-14386958Y779290D01*
X-14372500Y780000D01*
X-14027500Y780000D01*
X-14013042Y779290D01*
X-14013042Y779290D01*
G37*
D11*
X-14200000Y485000D03*
D10*
G36*
X-14013042Y-190710D02*
G01*
X-13998724Y-192834D01*
X-13984683Y-196351D01*
X-13971054Y-201228D01*
X-13957969Y-207417D01*
X-13945553Y-214858D01*
X-13933927Y-223481D01*
X-13923202Y-233202D01*
X-13913481Y-243927D01*
X-13904858Y-255553D01*
X-13897417Y-267969D01*
X-13891228Y-281054D01*
X-13886351Y-294683D01*
X-13882834Y-308724D01*
X-13880710Y-323042D01*
X-13880000Y-337500D01*
X-13880000Y-632500D01*
X-13880710Y-646958D01*
X-13882834Y-661276D01*
X-13886351Y-675317D01*
X-13891228Y-688946D01*
X-13897417Y-702031D01*
X-13904858Y-714447D01*
X-13913481Y-726073D01*
X-13923202Y-736798D01*
X-13933927Y-746519D01*
X-13945553Y-755142D01*
X-13957969Y-762583D01*
X-13971054Y-768772D01*
X-13984683Y-773649D01*
X-13998724Y-777166D01*
X-14013042Y-779290D01*
X-14027500Y-780000D01*
X-14372500Y-780000D01*
X-14386958Y-779290D01*
X-14401276Y-777166D01*
X-14415317Y-773649D01*
X-14428946Y-768772D01*
X-14442031Y-762583D01*
X-14454447Y-755142D01*
X-14466073Y-746519D01*
X-14476798Y-736798D01*
X-14486519Y-726073D01*
X-14495142Y-714447D01*
X-14502583Y-702031D01*
X-14508772Y-688946D01*
X-14513649Y-675317D01*
X-14517166Y-661276D01*
X-14519290Y-646958D01*
X-14520000Y-632500D01*
X-14520000Y-337500D01*
X-14519290Y-323042D01*
X-14517166Y-308724D01*
X-14513649Y-294683D01*
X-14508772Y-281054D01*
X-14502583Y-267969D01*
X-14495142Y-255553D01*
X-14486519Y-243927D01*
X-14476798Y-233202D01*
X-14466073Y-223481D01*
X-14454447Y-214858D01*
X-14442031Y-207417D01*
X-14428946Y-201228D01*
X-14415317Y-196351D01*
X-14401276Y-192834D01*
X-14386958Y-190710D01*
X-14372500Y-190000D01*
X-14027500Y-190000D01*
X-14013042Y-190710D01*
X-14013042Y-190710D01*
G37*
D11*
X-14200000Y-485000D03*
D10*
G36*
X-12613042Y779290D02*
G01*
X-12598724Y777166D01*
X-12584683Y773649D01*
X-12571054Y768772D01*
X-12557969Y762583D01*
X-12545553Y755142D01*
X-12533927Y746519D01*
X-12523202Y736798D01*
X-12513481Y726073D01*
X-12504858Y714447D01*
X-12497417Y702031D01*
X-12491228Y688946D01*
X-12486351Y675317D01*
X-12482834Y661276D01*
X-12480710Y646958D01*
X-12480000Y632500D01*
X-12480000Y337500D01*
X-12480710Y323042D01*
X-12482834Y308724D01*
X-12486351Y294683D01*
X-12491228Y281054D01*
X-12497417Y267969D01*
X-12504858Y255553D01*
X-12513481Y243927D01*
X-12523202Y233202D01*
X-12533927Y223481D01*
X-12545553Y214858D01*
X-12557969Y207417D01*
X-12571054Y201228D01*
X-12584683Y196351D01*
X-12598724Y192834D01*
X-12613042Y190710D01*
X-12627500Y190000D01*
X-12972500Y190000D01*
X-12986958Y190710D01*
X-13001276Y192834D01*
X-13015317Y196351D01*
X-13028946Y201228D01*
X-13042031Y207417D01*
X-13054447Y214858D01*
X-13066073Y223481D01*
X-13076798Y233202D01*
X-13086519Y243927D01*
X-13095142Y255553D01*
X-13102583Y267969D01*
X-13108772Y281054D01*
X-13113649Y294683D01*
X-13117166Y308724D01*
X-13119290Y323042D01*
X-13120000Y337500D01*
X-13120000Y632500D01*
X-13119290Y646958D01*
X-13117166Y661276D01*
X-13113649Y675317D01*
X-13108772Y688946D01*
X-13102583Y702031D01*
X-13095142Y714447D01*
X-13086519Y726073D01*
X-13076798Y736798D01*
X-13066073Y746519D01*
X-13054447Y755142D01*
X-13042031Y762583D01*
X-13028946Y768772D01*
X-13015317Y773649D01*
X-13001276Y777166D01*
X-12986958Y779290D01*
X-12972500Y780000D01*
X-12627500Y780000D01*
X-12613042Y779290D01*
X-12613042Y779290D01*
G37*
D11*
X-12800000Y485000D03*
D10*
G36*
X-12613042Y-190710D02*
G01*
X-12598724Y-192834D01*
X-12584683Y-196351D01*
X-12571054Y-201228D01*
X-12557969Y-207417D01*
X-12545553Y-214858D01*
X-12533927Y-223481D01*
X-12523202Y-233202D01*
X-12513481Y-243927D01*
X-12504858Y-255553D01*
X-12497417Y-267969D01*
X-12491228Y-281054D01*
X-12486351Y-294683D01*
X-12482834Y-308724D01*
X-12480710Y-323042D01*
X-12480000Y-337500D01*
X-12480000Y-632500D01*
X-12480710Y-646958D01*
X-12482834Y-661276D01*
X-12486351Y-675317D01*
X-12491228Y-688946D01*
X-12497417Y-702031D01*
X-12504858Y-714447D01*
X-12513481Y-726073D01*
X-12523202Y-736798D01*
X-12533927Y-746519D01*
X-12545553Y-755142D01*
X-12557969Y-762583D01*
X-12571054Y-768772D01*
X-12584683Y-773649D01*
X-12598724Y-777166D01*
X-12613042Y-779290D01*
X-12627500Y-780000D01*
X-12972500Y-780000D01*
X-12986958Y-779290D01*
X-13001276Y-777166D01*
X-13015317Y-773649D01*
X-13028946Y-768772D01*
X-13042031Y-762583D01*
X-13054447Y-755142D01*
X-13066073Y-746519D01*
X-13076798Y-736798D01*
X-13086519Y-726073D01*
X-13095142Y-714447D01*
X-13102583Y-702031D01*
X-13108772Y-688946D01*
X-13113649Y-675317D01*
X-13117166Y-661276D01*
X-13119290Y-646958D01*
X-13120000Y-632500D01*
X-13120000Y-337500D01*
X-13119290Y-323042D01*
X-13117166Y-308724D01*
X-13113649Y-294683D01*
X-13108772Y-281054D01*
X-13102583Y-267969D01*
X-13095142Y-255553D01*
X-13086519Y-243927D01*
X-13076798Y-233202D01*
X-13066073Y-223481D01*
X-13054447Y-214858D01*
X-13042031Y-207417D01*
X-13028946Y-201228D01*
X-13015317Y-196351D01*
X-13001276Y-192834D01*
X-12986958Y-190710D01*
X-12972500Y-190000D01*
X-12627500Y-190000D01*
X-12613042Y-190710D01*
X-12613042Y-190710D01*
G37*
D11*
X-12800000Y-485000D03*
D23*
X15847250Y-44353971D03*
X13947250Y-44353971D03*
X13947250Y-41733971D03*
X14897250Y-41733971D03*
X15847250Y-41733971D03*
D24*
X-7600000Y-48700000D03*
X-8550000Y-48700000D03*
X-6650000Y-48700000D03*
X-6650000Y-50900000D03*
X-7600000Y-50900000D03*
X-8550000Y-50900000D03*
D12*
X14843274Y-15312199D03*
X15793274Y-17312199D03*
X13893274Y-17312199D03*
D25*
X-4925000Y-5500000D03*
X-17605000Y-5500000D03*
X-17605000Y-21950000D03*
X-4925000Y-21950000D03*
D26*
X-2500000Y-13700000D03*
X-2500000Y-12430000D03*
X-2500000Y-11160000D03*
X-2500000Y-9890000D03*
X-2500000Y-8620000D03*
X-2500000Y-7350000D03*
D27*
X10650000Y-37775000D03*
X14450000Y-37775000D03*
D10*
G36*
X-4623042Y-45280710D02*
G01*
X-4608724Y-45282834D01*
X-4594683Y-45286351D01*
X-4581054Y-45291228D01*
X-4567969Y-45297417D01*
X-4555553Y-45304858D01*
X-4543927Y-45313481D01*
X-4533202Y-45323202D01*
X-4523481Y-45333927D01*
X-4514858Y-45345553D01*
X-4507417Y-45357969D01*
X-4501228Y-45371054D01*
X-4496351Y-45384683D01*
X-4492834Y-45398724D01*
X-4490710Y-45413042D01*
X-4490000Y-45427500D01*
X-4490000Y-45772500D01*
X-4490710Y-45786958D01*
X-4492834Y-45801276D01*
X-4496351Y-45815317D01*
X-4501228Y-45828946D01*
X-4507417Y-45842031D01*
X-4514858Y-45854447D01*
X-4523481Y-45866073D01*
X-4533202Y-45876798D01*
X-4543927Y-45886519D01*
X-4555553Y-45895142D01*
X-4567969Y-45902583D01*
X-4581054Y-45908772D01*
X-4594683Y-45913649D01*
X-4608724Y-45917166D01*
X-4623042Y-45919290D01*
X-4637500Y-45920000D01*
X-4932500Y-45920000D01*
X-4946958Y-45919290D01*
X-4961276Y-45917166D01*
X-4975317Y-45913649D01*
X-4988946Y-45908772D01*
X-5002031Y-45902583D01*
X-5014447Y-45895142D01*
X-5026073Y-45886519D01*
X-5036798Y-45876798D01*
X-5046519Y-45866073D01*
X-5055142Y-45854447D01*
X-5062583Y-45842031D01*
X-5068772Y-45828946D01*
X-5073649Y-45815317D01*
X-5077166Y-45801276D01*
X-5079290Y-45786958D01*
X-5080000Y-45772500D01*
X-5080000Y-45427500D01*
X-5079290Y-45413042D01*
X-5077166Y-45398724D01*
X-5073649Y-45384683D01*
X-5068772Y-45371054D01*
X-5062583Y-45357969D01*
X-5055142Y-45345553D01*
X-5046519Y-45333927D01*
X-5036798Y-45323202D01*
X-5026073Y-45313481D01*
X-5014447Y-45304858D01*
X-5002031Y-45297417D01*
X-4988946Y-45291228D01*
X-4975317Y-45286351D01*
X-4961276Y-45282834D01*
X-4946958Y-45280710D01*
X-4932500Y-45280000D01*
X-4637500Y-45280000D01*
X-4623042Y-45280710D01*
X-4623042Y-45280710D01*
G37*
D11*
X-4785000Y-45600000D03*
D10*
G36*
X-3653042Y-45280710D02*
G01*
X-3638724Y-45282834D01*
X-3624683Y-45286351D01*
X-3611054Y-45291228D01*
X-3597969Y-45297417D01*
X-3585553Y-45304858D01*
X-3573927Y-45313481D01*
X-3563202Y-45323202D01*
X-3553481Y-45333927D01*
X-3544858Y-45345553D01*
X-3537417Y-45357969D01*
X-3531228Y-45371054D01*
X-3526351Y-45384683D01*
X-3522834Y-45398724D01*
X-3520710Y-45413042D01*
X-3520000Y-45427500D01*
X-3520000Y-45772500D01*
X-3520710Y-45786958D01*
X-3522834Y-45801276D01*
X-3526351Y-45815317D01*
X-3531228Y-45828946D01*
X-3537417Y-45842031D01*
X-3544858Y-45854447D01*
X-3553481Y-45866073D01*
X-3563202Y-45876798D01*
X-3573927Y-45886519D01*
X-3585553Y-45895142D01*
X-3597969Y-45902583D01*
X-3611054Y-45908772D01*
X-3624683Y-45913649D01*
X-3638724Y-45917166D01*
X-3653042Y-45919290D01*
X-3667500Y-45920000D01*
X-3962500Y-45920000D01*
X-3976958Y-45919290D01*
X-3991276Y-45917166D01*
X-4005317Y-45913649D01*
X-4018946Y-45908772D01*
X-4032031Y-45902583D01*
X-4044447Y-45895142D01*
X-4056073Y-45886519D01*
X-4066798Y-45876798D01*
X-4076519Y-45866073D01*
X-4085142Y-45854447D01*
X-4092583Y-45842031D01*
X-4098772Y-45828946D01*
X-4103649Y-45815317D01*
X-4107166Y-45801276D01*
X-4109290Y-45786958D01*
X-4110000Y-45772500D01*
X-4110000Y-45427500D01*
X-4109290Y-45413042D01*
X-4107166Y-45398724D01*
X-4103649Y-45384683D01*
X-4098772Y-45371054D01*
X-4092583Y-45357969D01*
X-4085142Y-45345553D01*
X-4076519Y-45333927D01*
X-4066798Y-45323202D01*
X-4056073Y-45313481D01*
X-4044447Y-45304858D01*
X-4032031Y-45297417D01*
X-4018946Y-45291228D01*
X-4005317Y-45286351D01*
X-3991276Y-45282834D01*
X-3976958Y-45280710D01*
X-3962500Y-45280000D01*
X-3667500Y-45280000D01*
X-3653042Y-45280710D01*
X-3653042Y-45280710D01*
G37*
D11*
X-3815000Y-45600000D03*
D10*
G36*
X15118782Y-9873124D02*
G01*
X15140017Y-9876274D01*
X15160841Y-9881490D01*
X15181053Y-9888722D01*
X15200459Y-9897901D01*
X15218872Y-9908937D01*
X15236115Y-9921725D01*
X15252021Y-9936141D01*
X15266437Y-9952047D01*
X15279225Y-9969290D01*
X15290261Y-9987703D01*
X15299440Y-10007109D01*
X15306672Y-10027321D01*
X15311888Y-10048145D01*
X15315038Y-10069380D01*
X15316091Y-10090821D01*
X15316091Y-10528321D01*
X15315038Y-10549762D01*
X15311888Y-10570997D01*
X15306672Y-10591821D01*
X15299440Y-10612033D01*
X15290261Y-10631439D01*
X15279225Y-10649852D01*
X15266437Y-10667095D01*
X15252021Y-10683001D01*
X15236115Y-10697417D01*
X15218872Y-10710205D01*
X15200459Y-10721241D01*
X15181053Y-10730420D01*
X15160841Y-10737652D01*
X15140017Y-10742868D01*
X15118782Y-10746018D01*
X15097341Y-10747071D01*
X14584841Y-10747071D01*
X14563400Y-10746018D01*
X14542165Y-10742868D01*
X14521341Y-10737652D01*
X14501129Y-10730420D01*
X14481723Y-10721241D01*
X14463310Y-10710205D01*
X14446067Y-10697417D01*
X14430161Y-10683001D01*
X14415745Y-10667095D01*
X14402957Y-10649852D01*
X14391921Y-10631439D01*
X14382742Y-10612033D01*
X14375510Y-10591821D01*
X14370294Y-10570997D01*
X14367144Y-10549762D01*
X14366091Y-10528321D01*
X14366091Y-10090821D01*
X14367144Y-10069380D01*
X14370294Y-10048145D01*
X14375510Y-10027321D01*
X14382742Y-10007109D01*
X14391921Y-9987703D01*
X14402957Y-9969290D01*
X14415745Y-9952047D01*
X14430161Y-9936141D01*
X14446067Y-9921725D01*
X14463310Y-9908937D01*
X14481723Y-9897901D01*
X14501129Y-9888722D01*
X14521341Y-9881490D01*
X14542165Y-9876274D01*
X14563400Y-9873124D01*
X14584841Y-9872071D01*
X15097341Y-9872071D01*
X15118782Y-9873124D01*
X15118782Y-9873124D01*
G37*
D28*
X14841091Y-10309571D03*
D10*
G36*
X15118782Y-11448124D02*
G01*
X15140017Y-11451274D01*
X15160841Y-11456490D01*
X15181053Y-11463722D01*
X15200459Y-11472901D01*
X15218872Y-11483937D01*
X15236115Y-11496725D01*
X15252021Y-11511141D01*
X15266437Y-11527047D01*
X15279225Y-11544290D01*
X15290261Y-11562703D01*
X15299440Y-11582109D01*
X15306672Y-11602321D01*
X15311888Y-11623145D01*
X15315038Y-11644380D01*
X15316091Y-11665821D01*
X15316091Y-12103321D01*
X15315038Y-12124762D01*
X15311888Y-12145997D01*
X15306672Y-12166821D01*
X15299440Y-12187033D01*
X15290261Y-12206439D01*
X15279225Y-12224852D01*
X15266437Y-12242095D01*
X15252021Y-12258001D01*
X15236115Y-12272417D01*
X15218872Y-12285205D01*
X15200459Y-12296241D01*
X15181053Y-12305420D01*
X15160841Y-12312652D01*
X15140017Y-12317868D01*
X15118782Y-12321018D01*
X15097341Y-12322071D01*
X14584841Y-12322071D01*
X14563400Y-12321018D01*
X14542165Y-12317868D01*
X14521341Y-12312652D01*
X14501129Y-12305420D01*
X14481723Y-12296241D01*
X14463310Y-12285205D01*
X14446067Y-12272417D01*
X14430161Y-12258001D01*
X14415745Y-12242095D01*
X14402957Y-12224852D01*
X14391921Y-12206439D01*
X14382742Y-12187033D01*
X14375510Y-12166821D01*
X14370294Y-12145997D01*
X14367144Y-12124762D01*
X14366091Y-12103321D01*
X14366091Y-11665821D01*
X14367144Y-11644380D01*
X14370294Y-11623145D01*
X14375510Y-11602321D01*
X14382742Y-11582109D01*
X14391921Y-11562703D01*
X14402957Y-11544290D01*
X14415745Y-11527047D01*
X14430161Y-11511141D01*
X14446067Y-11496725D01*
X14463310Y-11483937D01*
X14481723Y-11472901D01*
X14501129Y-11463722D01*
X14521341Y-11456490D01*
X14542165Y-11451274D01*
X14563400Y-11448124D01*
X14584841Y-11447071D01*
X15097341Y-11447071D01*
X15118782Y-11448124D01*
X15118782Y-11448124D01*
G37*
D28*
X14841091Y-11884571D03*
D29*
X2300000Y-12300000D03*
X900000Y-12300000D03*
X2300000Y-8600000D03*
X900000Y-8600000D03*
X3400000Y-6100000D03*
X2000000Y-6100000D03*
D10*
G36*
X11230142Y-40351174D02*
G01*
X11253803Y-40354684D01*
X11277007Y-40360496D01*
X11299529Y-40368554D01*
X11321153Y-40378782D01*
X11341670Y-40391079D01*
X11360883Y-40405329D01*
X11378607Y-40421393D01*
X11394671Y-40439117D01*
X11408921Y-40458330D01*
X11421218Y-40478847D01*
X11431446Y-40500471D01*
X11439504Y-40522993D01*
X11445316Y-40546197D01*
X11448826Y-40569858D01*
X11450000Y-40593750D01*
X11450000Y-41081250D01*
X11448826Y-41105142D01*
X11445316Y-41128803D01*
X11439504Y-41152007D01*
X11431446Y-41174529D01*
X11421218Y-41196153D01*
X11408921Y-41216670D01*
X11394671Y-41235883D01*
X11378607Y-41253607D01*
X11360883Y-41269671D01*
X11341670Y-41283921D01*
X11321153Y-41296218D01*
X11299529Y-41306446D01*
X11277007Y-41314504D01*
X11253803Y-41320316D01*
X11230142Y-41323826D01*
X11206250Y-41325000D01*
X10293750Y-41325000D01*
X10269858Y-41323826D01*
X10246197Y-41320316D01*
X10222993Y-41314504D01*
X10200471Y-41306446D01*
X10178847Y-41296218D01*
X10158330Y-41283921D01*
X10139117Y-41269671D01*
X10121393Y-41253607D01*
X10105329Y-41235883D01*
X10091079Y-41216670D01*
X10078782Y-41196153D01*
X10068554Y-41174529D01*
X10060496Y-41152007D01*
X10054684Y-41128803D01*
X10051174Y-41105142D01*
X10050000Y-41081250D01*
X10050000Y-40593750D01*
X10051174Y-40569858D01*
X10054684Y-40546197D01*
X10060496Y-40522993D01*
X10068554Y-40500471D01*
X10078782Y-40478847D01*
X10091079Y-40458330D01*
X10105329Y-40439117D01*
X10121393Y-40421393D01*
X10139117Y-40405329D01*
X10158330Y-40391079D01*
X10178847Y-40378782D01*
X10200471Y-40368554D01*
X10222993Y-40360496D01*
X10246197Y-40354684D01*
X10269858Y-40351174D01*
X10293750Y-40350000D01*
X11206250Y-40350000D01*
X11230142Y-40351174D01*
X11230142Y-40351174D01*
G37*
D30*
X10750000Y-40837500D03*
D10*
G36*
X11230142Y-42226174D02*
G01*
X11253803Y-42229684D01*
X11277007Y-42235496D01*
X11299529Y-42243554D01*
X11321153Y-42253782D01*
X11341670Y-42266079D01*
X11360883Y-42280329D01*
X11378607Y-42296393D01*
X11394671Y-42314117D01*
X11408921Y-42333330D01*
X11421218Y-42353847D01*
X11431446Y-42375471D01*
X11439504Y-42397993D01*
X11445316Y-42421197D01*
X11448826Y-42444858D01*
X11450000Y-42468750D01*
X11450000Y-42956250D01*
X11448826Y-42980142D01*
X11445316Y-43003803D01*
X11439504Y-43027007D01*
X11431446Y-43049529D01*
X11421218Y-43071153D01*
X11408921Y-43091670D01*
X11394671Y-43110883D01*
X11378607Y-43128607D01*
X11360883Y-43144671D01*
X11341670Y-43158921D01*
X11321153Y-43171218D01*
X11299529Y-43181446D01*
X11277007Y-43189504D01*
X11253803Y-43195316D01*
X11230142Y-43198826D01*
X11206250Y-43200000D01*
X10293750Y-43200000D01*
X10269858Y-43198826D01*
X10246197Y-43195316D01*
X10222993Y-43189504D01*
X10200471Y-43181446D01*
X10178847Y-43171218D01*
X10158330Y-43158921D01*
X10139117Y-43144671D01*
X10121393Y-43128607D01*
X10105329Y-43110883D01*
X10091079Y-43091670D01*
X10078782Y-43071153D01*
X10068554Y-43049529D01*
X10060496Y-43027007D01*
X10054684Y-43003803D01*
X10051174Y-42980142D01*
X10050000Y-42956250D01*
X10050000Y-42468750D01*
X10051174Y-42444858D01*
X10054684Y-42421197D01*
X10060496Y-42397993D01*
X10068554Y-42375471D01*
X10078782Y-42353847D01*
X10091079Y-42333330D01*
X10105329Y-42314117D01*
X10121393Y-42296393D01*
X10139117Y-42280329D01*
X10158330Y-42266079D01*
X10178847Y-42253782D01*
X10200471Y-42243554D01*
X10222993Y-42235496D01*
X10246197Y-42229684D01*
X10269858Y-42226174D01*
X10293750Y-42225000D01*
X11206250Y-42225000D01*
X11230142Y-42226174D01*
X11230142Y-42226174D01*
G37*
D30*
X10750000Y-42712500D03*
D10*
G36*
X12727691Y-41926053D02*
G01*
X12748926Y-41929203D01*
X12769750Y-41934419D01*
X12789962Y-41941651D01*
X12809368Y-41950830D01*
X12827781Y-41961866D01*
X12845024Y-41974654D01*
X12860930Y-41989070D01*
X12875346Y-42004976D01*
X12888134Y-42022219D01*
X12899170Y-42040632D01*
X12908349Y-42060038D01*
X12915581Y-42080250D01*
X12920797Y-42101074D01*
X12923947Y-42122309D01*
X12925000Y-42143750D01*
X12925000Y-42581250D01*
X12923947Y-42602691D01*
X12920797Y-42623926D01*
X12915581Y-42644750D01*
X12908349Y-42664962D01*
X12899170Y-42684368D01*
X12888134Y-42702781D01*
X12875346Y-42720024D01*
X12860930Y-42735930D01*
X12845024Y-42750346D01*
X12827781Y-42763134D01*
X12809368Y-42774170D01*
X12789962Y-42783349D01*
X12769750Y-42790581D01*
X12748926Y-42795797D01*
X12727691Y-42798947D01*
X12706250Y-42800000D01*
X12193750Y-42800000D01*
X12172309Y-42798947D01*
X12151074Y-42795797D01*
X12130250Y-42790581D01*
X12110038Y-42783349D01*
X12090632Y-42774170D01*
X12072219Y-42763134D01*
X12054976Y-42750346D01*
X12039070Y-42735930D01*
X12024654Y-42720024D01*
X12011866Y-42702781D01*
X12000830Y-42684368D01*
X11991651Y-42664962D01*
X11984419Y-42644750D01*
X11979203Y-42623926D01*
X11976053Y-42602691D01*
X11975000Y-42581250D01*
X11975000Y-42143750D01*
X11976053Y-42122309D01*
X11979203Y-42101074D01*
X11984419Y-42080250D01*
X11991651Y-42060038D01*
X12000830Y-42040632D01*
X12011866Y-42022219D01*
X12024654Y-42004976D01*
X12039070Y-41989070D01*
X12054976Y-41974654D01*
X12072219Y-41961866D01*
X12090632Y-41950830D01*
X12110038Y-41941651D01*
X12130250Y-41934419D01*
X12151074Y-41929203D01*
X12172309Y-41926053D01*
X12193750Y-41925000D01*
X12706250Y-41925000D01*
X12727691Y-41926053D01*
X12727691Y-41926053D01*
G37*
D28*
X12450000Y-42362500D03*
D10*
G36*
X12727691Y-40351053D02*
G01*
X12748926Y-40354203D01*
X12769750Y-40359419D01*
X12789962Y-40366651D01*
X12809368Y-40375830D01*
X12827781Y-40386866D01*
X12845024Y-40399654D01*
X12860930Y-40414070D01*
X12875346Y-40429976D01*
X12888134Y-40447219D01*
X12899170Y-40465632D01*
X12908349Y-40485038D01*
X12915581Y-40505250D01*
X12920797Y-40526074D01*
X12923947Y-40547309D01*
X12925000Y-40568750D01*
X12925000Y-41006250D01*
X12923947Y-41027691D01*
X12920797Y-41048926D01*
X12915581Y-41069750D01*
X12908349Y-41089962D01*
X12899170Y-41109368D01*
X12888134Y-41127781D01*
X12875346Y-41145024D01*
X12860930Y-41160930D01*
X12845024Y-41175346D01*
X12827781Y-41188134D01*
X12809368Y-41199170D01*
X12789962Y-41208349D01*
X12769750Y-41215581D01*
X12748926Y-41220797D01*
X12727691Y-41223947D01*
X12706250Y-41225000D01*
X12193750Y-41225000D01*
X12172309Y-41223947D01*
X12151074Y-41220797D01*
X12130250Y-41215581D01*
X12110038Y-41208349D01*
X12090632Y-41199170D01*
X12072219Y-41188134D01*
X12054976Y-41175346D01*
X12039070Y-41160930D01*
X12024654Y-41145024D01*
X12011866Y-41127781D01*
X12000830Y-41109368D01*
X11991651Y-41089962D01*
X11984419Y-41069750D01*
X11979203Y-41048926D01*
X11976053Y-41027691D01*
X11975000Y-41006250D01*
X11975000Y-40568750D01*
X11976053Y-40547309D01*
X11979203Y-40526074D01*
X11984419Y-40505250D01*
X11991651Y-40485038D01*
X12000830Y-40465632D01*
X12011866Y-40447219D01*
X12024654Y-40429976D01*
X12039070Y-40414070D01*
X12054976Y-40399654D01*
X12072219Y-40386866D01*
X12090632Y-40375830D01*
X12110038Y-40366651D01*
X12130250Y-40359419D01*
X12151074Y-40354203D01*
X12172309Y-40351053D01*
X12193750Y-40350000D01*
X12706250Y-40350000D01*
X12727691Y-40351053D01*
X12727691Y-40351053D01*
G37*
D28*
X12450000Y-40787500D03*
D10*
G36*
X17426958Y-45155710D02*
G01*
X17441276Y-45157834D01*
X17455317Y-45161351D01*
X17468946Y-45166228D01*
X17482031Y-45172417D01*
X17494447Y-45179858D01*
X17506073Y-45188481D01*
X17516798Y-45198202D01*
X17526519Y-45208927D01*
X17535142Y-45220553D01*
X17542583Y-45232969D01*
X17548772Y-45246054D01*
X17553649Y-45259683D01*
X17557166Y-45273724D01*
X17559290Y-45288042D01*
X17560000Y-45302500D01*
X17560000Y-45647500D01*
X17559290Y-45661958D01*
X17557166Y-45676276D01*
X17553649Y-45690317D01*
X17548772Y-45703946D01*
X17542583Y-45717031D01*
X17535142Y-45729447D01*
X17526519Y-45741073D01*
X17516798Y-45751798D01*
X17506073Y-45761519D01*
X17494447Y-45770142D01*
X17482031Y-45777583D01*
X17468946Y-45783772D01*
X17455317Y-45788649D01*
X17441276Y-45792166D01*
X17426958Y-45794290D01*
X17412500Y-45795000D01*
X17117500Y-45795000D01*
X17103042Y-45794290D01*
X17088724Y-45792166D01*
X17074683Y-45788649D01*
X17061054Y-45783772D01*
X17047969Y-45777583D01*
X17035553Y-45770142D01*
X17023927Y-45761519D01*
X17013202Y-45751798D01*
X17003481Y-45741073D01*
X16994858Y-45729447D01*
X16987417Y-45717031D01*
X16981228Y-45703946D01*
X16976351Y-45690317D01*
X16972834Y-45676276D01*
X16970710Y-45661958D01*
X16970000Y-45647500D01*
X16970000Y-45302500D01*
X16970710Y-45288042D01*
X16972834Y-45273724D01*
X16976351Y-45259683D01*
X16981228Y-45246054D01*
X16987417Y-45232969D01*
X16994858Y-45220553D01*
X17003481Y-45208927D01*
X17013202Y-45198202D01*
X17023927Y-45188481D01*
X17035553Y-45179858D01*
X17047969Y-45172417D01*
X17061054Y-45166228D01*
X17074683Y-45161351D01*
X17088724Y-45157834D01*
X17103042Y-45155710D01*
X17117500Y-45155000D01*
X17412500Y-45155000D01*
X17426958Y-45155710D01*
X17426958Y-45155710D01*
G37*
D11*
X17265000Y-45475000D03*
D10*
G36*
X18396958Y-45155710D02*
G01*
X18411276Y-45157834D01*
X18425317Y-45161351D01*
X18438946Y-45166228D01*
X18452031Y-45172417D01*
X18464447Y-45179858D01*
X18476073Y-45188481D01*
X18486798Y-45198202D01*
X18496519Y-45208927D01*
X18505142Y-45220553D01*
X18512583Y-45232969D01*
X18518772Y-45246054D01*
X18523649Y-45259683D01*
X18527166Y-45273724D01*
X18529290Y-45288042D01*
X18530000Y-45302500D01*
X18530000Y-45647500D01*
X18529290Y-45661958D01*
X18527166Y-45676276D01*
X18523649Y-45690317D01*
X18518772Y-45703946D01*
X18512583Y-45717031D01*
X18505142Y-45729447D01*
X18496519Y-45741073D01*
X18486798Y-45751798D01*
X18476073Y-45761519D01*
X18464447Y-45770142D01*
X18452031Y-45777583D01*
X18438946Y-45783772D01*
X18425317Y-45788649D01*
X18411276Y-45792166D01*
X18396958Y-45794290D01*
X18382500Y-45795000D01*
X18087500Y-45795000D01*
X18073042Y-45794290D01*
X18058724Y-45792166D01*
X18044683Y-45788649D01*
X18031054Y-45783772D01*
X18017969Y-45777583D01*
X18005553Y-45770142D01*
X17993927Y-45761519D01*
X17983202Y-45751798D01*
X17973481Y-45741073D01*
X17964858Y-45729447D01*
X17957417Y-45717031D01*
X17951228Y-45703946D01*
X17946351Y-45690317D01*
X17942834Y-45676276D01*
X17940710Y-45661958D01*
X17940000Y-45647500D01*
X17940000Y-45302500D01*
X17940710Y-45288042D01*
X17942834Y-45273724D01*
X17946351Y-45259683D01*
X17951228Y-45246054D01*
X17957417Y-45232969D01*
X17964858Y-45220553D01*
X17973481Y-45208927D01*
X17983202Y-45198202D01*
X17993927Y-45188481D01*
X18005553Y-45179858D01*
X18017969Y-45172417D01*
X18031054Y-45166228D01*
X18044683Y-45161351D01*
X18058724Y-45157834D01*
X18073042Y-45155710D01*
X18087500Y-45155000D01*
X18382500Y-45155000D01*
X18396958Y-45155710D01*
X18396958Y-45155710D01*
G37*
D11*
X18235000Y-45475000D03*
D10*
G36*
X11230142Y-45626174D02*
G01*
X11253803Y-45629684D01*
X11277007Y-45635496D01*
X11299529Y-45643554D01*
X11321153Y-45653782D01*
X11341670Y-45666079D01*
X11360883Y-45680329D01*
X11378607Y-45696393D01*
X11394671Y-45714117D01*
X11408921Y-45733330D01*
X11421218Y-45753847D01*
X11431446Y-45775471D01*
X11439504Y-45797993D01*
X11445316Y-45821197D01*
X11448826Y-45844858D01*
X11450000Y-45868750D01*
X11450000Y-46356250D01*
X11448826Y-46380142D01*
X11445316Y-46403803D01*
X11439504Y-46427007D01*
X11431446Y-46449529D01*
X11421218Y-46471153D01*
X11408921Y-46491670D01*
X11394671Y-46510883D01*
X11378607Y-46528607D01*
X11360883Y-46544671D01*
X11341670Y-46558921D01*
X11321153Y-46571218D01*
X11299529Y-46581446D01*
X11277007Y-46589504D01*
X11253803Y-46595316D01*
X11230142Y-46598826D01*
X11206250Y-46600000D01*
X10293750Y-46600000D01*
X10269858Y-46598826D01*
X10246197Y-46595316D01*
X10222993Y-46589504D01*
X10200471Y-46581446D01*
X10178847Y-46571218D01*
X10158330Y-46558921D01*
X10139117Y-46544671D01*
X10121393Y-46528607D01*
X10105329Y-46510883D01*
X10091079Y-46491670D01*
X10078782Y-46471153D01*
X10068554Y-46449529D01*
X10060496Y-46427007D01*
X10054684Y-46403803D01*
X10051174Y-46380142D01*
X10050000Y-46356250D01*
X10050000Y-45868750D01*
X10051174Y-45844858D01*
X10054684Y-45821197D01*
X10060496Y-45797993D01*
X10068554Y-45775471D01*
X10078782Y-45753847D01*
X10091079Y-45733330D01*
X10105329Y-45714117D01*
X10121393Y-45696393D01*
X10139117Y-45680329D01*
X10158330Y-45666079D01*
X10178847Y-45653782D01*
X10200471Y-45643554D01*
X10222993Y-45635496D01*
X10246197Y-45629684D01*
X10269858Y-45626174D01*
X10293750Y-45625000D01*
X11206250Y-45625000D01*
X11230142Y-45626174D01*
X11230142Y-45626174D01*
G37*
D30*
X10750000Y-46112500D03*
D10*
G36*
X11230142Y-43751174D02*
G01*
X11253803Y-43754684D01*
X11277007Y-43760496D01*
X11299529Y-43768554D01*
X11321153Y-43778782D01*
X11341670Y-43791079D01*
X11360883Y-43805329D01*
X11378607Y-43821393D01*
X11394671Y-43839117D01*
X11408921Y-43858330D01*
X11421218Y-43878847D01*
X11431446Y-43900471D01*
X11439504Y-43922993D01*
X11445316Y-43946197D01*
X11448826Y-43969858D01*
X11450000Y-43993750D01*
X11450000Y-44481250D01*
X11448826Y-44505142D01*
X11445316Y-44528803D01*
X11439504Y-44552007D01*
X11431446Y-44574529D01*
X11421218Y-44596153D01*
X11408921Y-44616670D01*
X11394671Y-44635883D01*
X11378607Y-44653607D01*
X11360883Y-44669671D01*
X11341670Y-44683921D01*
X11321153Y-44696218D01*
X11299529Y-44706446D01*
X11277007Y-44714504D01*
X11253803Y-44720316D01*
X11230142Y-44723826D01*
X11206250Y-44725000D01*
X10293750Y-44725000D01*
X10269858Y-44723826D01*
X10246197Y-44720316D01*
X10222993Y-44714504D01*
X10200471Y-44706446D01*
X10178847Y-44696218D01*
X10158330Y-44683921D01*
X10139117Y-44669671D01*
X10121393Y-44653607D01*
X10105329Y-44635883D01*
X10091079Y-44616670D01*
X10078782Y-44596153D01*
X10068554Y-44574529D01*
X10060496Y-44552007D01*
X10054684Y-44528803D01*
X10051174Y-44505142D01*
X10050000Y-44481250D01*
X10050000Y-43993750D01*
X10051174Y-43969858D01*
X10054684Y-43946197D01*
X10060496Y-43922993D01*
X10068554Y-43900471D01*
X10078782Y-43878847D01*
X10091079Y-43858330D01*
X10105329Y-43839117D01*
X10121393Y-43821393D01*
X10139117Y-43805329D01*
X10158330Y-43791079D01*
X10178847Y-43778782D01*
X10200471Y-43768554D01*
X10222993Y-43760496D01*
X10246197Y-43754684D01*
X10269858Y-43751174D01*
X10293750Y-43750000D01*
X11206250Y-43750000D01*
X11230142Y-43751174D01*
X11230142Y-43751174D01*
G37*
D30*
X10750000Y-44237500D03*
D10*
G36*
X12727691Y-43338553D02*
G01*
X12748926Y-43341703D01*
X12769750Y-43346919D01*
X12789962Y-43354151D01*
X12809368Y-43363330D01*
X12827781Y-43374366D01*
X12845024Y-43387154D01*
X12860930Y-43401570D01*
X12875346Y-43417476D01*
X12888134Y-43434719D01*
X12899170Y-43453132D01*
X12908349Y-43472538D01*
X12915581Y-43492750D01*
X12920797Y-43513574D01*
X12923947Y-43534809D01*
X12925000Y-43556250D01*
X12925000Y-43993750D01*
X12923947Y-44015191D01*
X12920797Y-44036426D01*
X12915581Y-44057250D01*
X12908349Y-44077462D01*
X12899170Y-44096868D01*
X12888134Y-44115281D01*
X12875346Y-44132524D01*
X12860930Y-44148430D01*
X12845024Y-44162846D01*
X12827781Y-44175634D01*
X12809368Y-44186670D01*
X12789962Y-44195849D01*
X12769750Y-44203081D01*
X12748926Y-44208297D01*
X12727691Y-44211447D01*
X12706250Y-44212500D01*
X12193750Y-44212500D01*
X12172309Y-44211447D01*
X12151074Y-44208297D01*
X12130250Y-44203081D01*
X12110038Y-44195849D01*
X12090632Y-44186670D01*
X12072219Y-44175634D01*
X12054976Y-44162846D01*
X12039070Y-44148430D01*
X12024654Y-44132524D01*
X12011866Y-44115281D01*
X12000830Y-44096868D01*
X11991651Y-44077462D01*
X11984419Y-44057250D01*
X11979203Y-44036426D01*
X11976053Y-44015191D01*
X11975000Y-43993750D01*
X11975000Y-43556250D01*
X11976053Y-43534809D01*
X11979203Y-43513574D01*
X11984419Y-43492750D01*
X11991651Y-43472538D01*
X12000830Y-43453132D01*
X12011866Y-43434719D01*
X12024654Y-43417476D01*
X12039070Y-43401570D01*
X12054976Y-43387154D01*
X12072219Y-43374366D01*
X12090632Y-43363330D01*
X12110038Y-43354151D01*
X12130250Y-43346919D01*
X12151074Y-43341703D01*
X12172309Y-43338553D01*
X12193750Y-43337500D01*
X12706250Y-43337500D01*
X12727691Y-43338553D01*
X12727691Y-43338553D01*
G37*
D28*
X12450000Y-43775000D03*
D10*
G36*
X12727691Y-44913553D02*
G01*
X12748926Y-44916703D01*
X12769750Y-44921919D01*
X12789962Y-44929151D01*
X12809368Y-44938330D01*
X12827781Y-44949366D01*
X12845024Y-44962154D01*
X12860930Y-44976570D01*
X12875346Y-44992476D01*
X12888134Y-45009719D01*
X12899170Y-45028132D01*
X12908349Y-45047538D01*
X12915581Y-45067750D01*
X12920797Y-45088574D01*
X12923947Y-45109809D01*
X12925000Y-45131250D01*
X12925000Y-45568750D01*
X12923947Y-45590191D01*
X12920797Y-45611426D01*
X12915581Y-45632250D01*
X12908349Y-45652462D01*
X12899170Y-45671868D01*
X12888134Y-45690281D01*
X12875346Y-45707524D01*
X12860930Y-45723430D01*
X12845024Y-45737846D01*
X12827781Y-45750634D01*
X12809368Y-45761670D01*
X12789962Y-45770849D01*
X12769750Y-45778081D01*
X12748926Y-45783297D01*
X12727691Y-45786447D01*
X12706250Y-45787500D01*
X12193750Y-45787500D01*
X12172309Y-45786447D01*
X12151074Y-45783297D01*
X12130250Y-45778081D01*
X12110038Y-45770849D01*
X12090632Y-45761670D01*
X12072219Y-45750634D01*
X12054976Y-45737846D01*
X12039070Y-45723430D01*
X12024654Y-45707524D01*
X12011866Y-45690281D01*
X12000830Y-45671868D01*
X11991651Y-45652462D01*
X11984419Y-45632250D01*
X11979203Y-45611426D01*
X11976053Y-45590191D01*
X11975000Y-45568750D01*
X11975000Y-45131250D01*
X11976053Y-45109809D01*
X11979203Y-45088574D01*
X11984419Y-45067750D01*
X11991651Y-45047538D01*
X12000830Y-45028132D01*
X12011866Y-45009719D01*
X12024654Y-44992476D01*
X12039070Y-44976570D01*
X12054976Y-44962154D01*
X12072219Y-44949366D01*
X12090632Y-44938330D01*
X12110038Y-44929151D01*
X12130250Y-44921919D01*
X12151074Y-44916703D01*
X12172309Y-44913553D01*
X12193750Y-44912500D01*
X12706250Y-44912500D01*
X12727691Y-44913553D01*
X12727691Y-44913553D01*
G37*
D28*
X12450000Y-45350000D03*
D10*
G36*
X3476958Y-8480710D02*
G01*
X3491276Y-8482834D01*
X3505317Y-8486351D01*
X3518946Y-8491228D01*
X3532031Y-8497417D01*
X3544447Y-8504858D01*
X3556073Y-8513481D01*
X3566798Y-8523202D01*
X3576519Y-8533927D01*
X3585142Y-8545553D01*
X3592583Y-8557969D01*
X3598772Y-8571054D01*
X3603649Y-8584683D01*
X3607166Y-8598724D01*
X3609290Y-8613042D01*
X3610000Y-8627500D01*
X3610000Y-8972500D01*
X3609290Y-8986958D01*
X3607166Y-9001276D01*
X3603649Y-9015317D01*
X3598772Y-9028946D01*
X3592583Y-9042031D01*
X3585142Y-9054447D01*
X3576519Y-9066073D01*
X3566798Y-9076798D01*
X3556073Y-9086519D01*
X3544447Y-9095142D01*
X3532031Y-9102583D01*
X3518946Y-9108772D01*
X3505317Y-9113649D01*
X3491276Y-9117166D01*
X3476958Y-9119290D01*
X3462500Y-9120000D01*
X3167500Y-9120000D01*
X3153042Y-9119290D01*
X3138724Y-9117166D01*
X3124683Y-9113649D01*
X3111054Y-9108772D01*
X3097969Y-9102583D01*
X3085553Y-9095142D01*
X3073927Y-9086519D01*
X3063202Y-9076798D01*
X3053481Y-9066073D01*
X3044858Y-9054447D01*
X3037417Y-9042031D01*
X3031228Y-9028946D01*
X3026351Y-9015317D01*
X3022834Y-9001276D01*
X3020710Y-8986958D01*
X3020000Y-8972500D01*
X3020000Y-8627500D01*
X3020710Y-8613042D01*
X3022834Y-8598724D01*
X3026351Y-8584683D01*
X3031228Y-8571054D01*
X3037417Y-8557969D01*
X3044858Y-8545553D01*
X3053481Y-8533927D01*
X3063202Y-8523202D01*
X3073927Y-8513481D01*
X3085553Y-8504858D01*
X3097969Y-8497417D01*
X3111054Y-8491228D01*
X3124683Y-8486351D01*
X3138724Y-8482834D01*
X3153042Y-8480710D01*
X3167500Y-8480000D01*
X3462500Y-8480000D01*
X3476958Y-8480710D01*
X3476958Y-8480710D01*
G37*
D11*
X3315000Y-8800000D03*
D10*
G36*
X4446958Y-8480710D02*
G01*
X4461276Y-8482834D01*
X4475317Y-8486351D01*
X4488946Y-8491228D01*
X4502031Y-8497417D01*
X4514447Y-8504858D01*
X4526073Y-8513481D01*
X4536798Y-8523202D01*
X4546519Y-8533927D01*
X4555142Y-8545553D01*
X4562583Y-8557969D01*
X4568772Y-8571054D01*
X4573649Y-8584683D01*
X4577166Y-8598724D01*
X4579290Y-8613042D01*
X4580000Y-8627500D01*
X4580000Y-8972500D01*
X4579290Y-8986958D01*
X4577166Y-9001276D01*
X4573649Y-9015317D01*
X4568772Y-9028946D01*
X4562583Y-9042031D01*
X4555142Y-9054447D01*
X4546519Y-9066073D01*
X4536798Y-9076798D01*
X4526073Y-9086519D01*
X4514447Y-9095142D01*
X4502031Y-9102583D01*
X4488946Y-9108772D01*
X4475317Y-9113649D01*
X4461276Y-9117166D01*
X4446958Y-9119290D01*
X4432500Y-9120000D01*
X4137500Y-9120000D01*
X4123042Y-9119290D01*
X4108724Y-9117166D01*
X4094683Y-9113649D01*
X4081054Y-9108772D01*
X4067969Y-9102583D01*
X4055553Y-9095142D01*
X4043927Y-9086519D01*
X4033202Y-9076798D01*
X4023481Y-9066073D01*
X4014858Y-9054447D01*
X4007417Y-9042031D01*
X4001228Y-9028946D01*
X3996351Y-9015317D01*
X3992834Y-9001276D01*
X3990710Y-8986958D01*
X3990000Y-8972500D01*
X3990000Y-8627500D01*
X3990710Y-8613042D01*
X3992834Y-8598724D01*
X3996351Y-8584683D01*
X4001228Y-8571054D01*
X4007417Y-8557969D01*
X4014858Y-8545553D01*
X4023481Y-8533927D01*
X4033202Y-8523202D01*
X4043927Y-8513481D01*
X4055553Y-8504858D01*
X4067969Y-8497417D01*
X4081054Y-8491228D01*
X4094683Y-8486351D01*
X4108724Y-8482834D01*
X4123042Y-8480710D01*
X4137500Y-8480000D01*
X4432500Y-8480000D01*
X4446958Y-8480710D01*
X4446958Y-8480710D01*
G37*
D11*
X4285000Y-8800000D03*
D10*
G36*
X3461958Y-11780710D02*
G01*
X3476276Y-11782834D01*
X3490317Y-11786351D01*
X3503946Y-11791228D01*
X3517031Y-11797417D01*
X3529447Y-11804858D01*
X3541073Y-11813481D01*
X3551798Y-11823202D01*
X3561519Y-11833927D01*
X3570142Y-11845553D01*
X3577583Y-11857969D01*
X3583772Y-11871054D01*
X3588649Y-11884683D01*
X3592166Y-11898724D01*
X3594290Y-11913042D01*
X3595000Y-11927500D01*
X3595000Y-12272500D01*
X3594290Y-12286958D01*
X3592166Y-12301276D01*
X3588649Y-12315317D01*
X3583772Y-12328946D01*
X3577583Y-12342031D01*
X3570142Y-12354447D01*
X3561519Y-12366073D01*
X3551798Y-12376798D01*
X3541073Y-12386519D01*
X3529447Y-12395142D01*
X3517031Y-12402583D01*
X3503946Y-12408772D01*
X3490317Y-12413649D01*
X3476276Y-12417166D01*
X3461958Y-12419290D01*
X3447500Y-12420000D01*
X3152500Y-12420000D01*
X3138042Y-12419290D01*
X3123724Y-12417166D01*
X3109683Y-12413649D01*
X3096054Y-12408772D01*
X3082969Y-12402583D01*
X3070553Y-12395142D01*
X3058927Y-12386519D01*
X3048202Y-12376798D01*
X3038481Y-12366073D01*
X3029858Y-12354447D01*
X3022417Y-12342031D01*
X3016228Y-12328946D01*
X3011351Y-12315317D01*
X3007834Y-12301276D01*
X3005710Y-12286958D01*
X3005000Y-12272500D01*
X3005000Y-11927500D01*
X3005710Y-11913042D01*
X3007834Y-11898724D01*
X3011351Y-11884683D01*
X3016228Y-11871054D01*
X3022417Y-11857969D01*
X3029858Y-11845553D01*
X3038481Y-11833927D01*
X3048202Y-11823202D01*
X3058927Y-11813481D01*
X3070553Y-11804858D01*
X3082969Y-11797417D01*
X3096054Y-11791228D01*
X3109683Y-11786351D01*
X3123724Y-11782834D01*
X3138042Y-11780710D01*
X3152500Y-11780000D01*
X3447500Y-11780000D01*
X3461958Y-11780710D01*
X3461958Y-11780710D01*
G37*
D11*
X3300000Y-12100000D03*
D10*
G36*
X4431958Y-11780710D02*
G01*
X4446276Y-11782834D01*
X4460317Y-11786351D01*
X4473946Y-11791228D01*
X4487031Y-11797417D01*
X4499447Y-11804858D01*
X4511073Y-11813481D01*
X4521798Y-11823202D01*
X4531519Y-11833927D01*
X4540142Y-11845553D01*
X4547583Y-11857969D01*
X4553772Y-11871054D01*
X4558649Y-11884683D01*
X4562166Y-11898724D01*
X4564290Y-11913042D01*
X4565000Y-11927500D01*
X4565000Y-12272500D01*
X4564290Y-12286958D01*
X4562166Y-12301276D01*
X4558649Y-12315317D01*
X4553772Y-12328946D01*
X4547583Y-12342031D01*
X4540142Y-12354447D01*
X4531519Y-12366073D01*
X4521798Y-12376798D01*
X4511073Y-12386519D01*
X4499447Y-12395142D01*
X4487031Y-12402583D01*
X4473946Y-12408772D01*
X4460317Y-12413649D01*
X4446276Y-12417166D01*
X4431958Y-12419290D01*
X4417500Y-12420000D01*
X4122500Y-12420000D01*
X4108042Y-12419290D01*
X4093724Y-12417166D01*
X4079683Y-12413649D01*
X4066054Y-12408772D01*
X4052969Y-12402583D01*
X4040553Y-12395142D01*
X4028927Y-12386519D01*
X4018202Y-12376798D01*
X4008481Y-12366073D01*
X3999858Y-12354447D01*
X3992417Y-12342031D01*
X3986228Y-12328946D01*
X3981351Y-12315317D01*
X3977834Y-12301276D01*
X3975710Y-12286958D01*
X3975000Y-12272500D01*
X3975000Y-11927500D01*
X3975710Y-11913042D01*
X3977834Y-11898724D01*
X3981351Y-11884683D01*
X3986228Y-11871054D01*
X3992417Y-11857969D01*
X3999858Y-11845553D01*
X4008481Y-11833927D01*
X4018202Y-11823202D01*
X4028927Y-11813481D01*
X4040553Y-11804858D01*
X4052969Y-11797417D01*
X4066054Y-11791228D01*
X4079683Y-11786351D01*
X4093724Y-11782834D01*
X4108042Y-11780710D01*
X4122500Y-11780000D01*
X4417500Y-11780000D01*
X4431958Y-11780710D01*
X4431958Y-11780710D01*
G37*
D11*
X4270000Y-12100000D03*
D10*
G36*
X4561958Y-5980710D02*
G01*
X4576276Y-5982834D01*
X4590317Y-5986351D01*
X4603946Y-5991228D01*
X4617031Y-5997417D01*
X4629447Y-6004858D01*
X4641073Y-6013481D01*
X4651798Y-6023202D01*
X4661519Y-6033927D01*
X4670142Y-6045553D01*
X4677583Y-6057969D01*
X4683772Y-6071054D01*
X4688649Y-6084683D01*
X4692166Y-6098724D01*
X4694290Y-6113042D01*
X4695000Y-6127500D01*
X4695000Y-6472500D01*
X4694290Y-6486958D01*
X4692166Y-6501276D01*
X4688649Y-6515317D01*
X4683772Y-6528946D01*
X4677583Y-6542031D01*
X4670142Y-6554447D01*
X4661519Y-6566073D01*
X4651798Y-6576798D01*
X4641073Y-6586519D01*
X4629447Y-6595142D01*
X4617031Y-6602583D01*
X4603946Y-6608772D01*
X4590317Y-6613649D01*
X4576276Y-6617166D01*
X4561958Y-6619290D01*
X4547500Y-6620000D01*
X4252500Y-6620000D01*
X4238042Y-6619290D01*
X4223724Y-6617166D01*
X4209683Y-6613649D01*
X4196054Y-6608772D01*
X4182969Y-6602583D01*
X4170553Y-6595142D01*
X4158927Y-6586519D01*
X4148202Y-6576798D01*
X4138481Y-6566073D01*
X4129858Y-6554447D01*
X4122417Y-6542031D01*
X4116228Y-6528946D01*
X4111351Y-6515317D01*
X4107834Y-6501276D01*
X4105710Y-6486958D01*
X4105000Y-6472500D01*
X4105000Y-6127500D01*
X4105710Y-6113042D01*
X4107834Y-6098724D01*
X4111351Y-6084683D01*
X4116228Y-6071054D01*
X4122417Y-6057969D01*
X4129858Y-6045553D01*
X4138481Y-6033927D01*
X4148202Y-6023202D01*
X4158927Y-6013481D01*
X4170553Y-6004858D01*
X4182969Y-5997417D01*
X4196054Y-5991228D01*
X4209683Y-5986351D01*
X4223724Y-5982834D01*
X4238042Y-5980710D01*
X4252500Y-5980000D01*
X4547500Y-5980000D01*
X4561958Y-5980710D01*
X4561958Y-5980710D01*
G37*
D11*
X4400000Y-6300000D03*
D10*
G36*
X5531958Y-5980710D02*
G01*
X5546276Y-5982834D01*
X5560317Y-5986351D01*
X5573946Y-5991228D01*
X5587031Y-5997417D01*
X5599447Y-6004858D01*
X5611073Y-6013481D01*
X5621798Y-6023202D01*
X5631519Y-6033927D01*
X5640142Y-6045553D01*
X5647583Y-6057969D01*
X5653772Y-6071054D01*
X5658649Y-6084683D01*
X5662166Y-6098724D01*
X5664290Y-6113042D01*
X5665000Y-6127500D01*
X5665000Y-6472500D01*
X5664290Y-6486958D01*
X5662166Y-6501276D01*
X5658649Y-6515317D01*
X5653772Y-6528946D01*
X5647583Y-6542031D01*
X5640142Y-6554447D01*
X5631519Y-6566073D01*
X5621798Y-6576798D01*
X5611073Y-6586519D01*
X5599447Y-6595142D01*
X5587031Y-6602583D01*
X5573946Y-6608772D01*
X5560317Y-6613649D01*
X5546276Y-6617166D01*
X5531958Y-6619290D01*
X5517500Y-6620000D01*
X5222500Y-6620000D01*
X5208042Y-6619290D01*
X5193724Y-6617166D01*
X5179683Y-6613649D01*
X5166054Y-6608772D01*
X5152969Y-6602583D01*
X5140553Y-6595142D01*
X5128927Y-6586519D01*
X5118202Y-6576798D01*
X5108481Y-6566073D01*
X5099858Y-6554447D01*
X5092417Y-6542031D01*
X5086228Y-6528946D01*
X5081351Y-6515317D01*
X5077834Y-6501276D01*
X5075710Y-6486958D01*
X5075000Y-6472500D01*
X5075000Y-6127500D01*
X5075710Y-6113042D01*
X5077834Y-6098724D01*
X5081351Y-6084683D01*
X5086228Y-6071054D01*
X5092417Y-6057969D01*
X5099858Y-6045553D01*
X5108481Y-6033927D01*
X5118202Y-6023202D01*
X5128927Y-6013481D01*
X5140553Y-6004858D01*
X5152969Y-5997417D01*
X5166054Y-5991228D01*
X5179683Y-5986351D01*
X5193724Y-5982834D01*
X5208042Y-5980710D01*
X5222500Y-5980000D01*
X5517500Y-5980000D01*
X5531958Y-5980710D01*
X5531958Y-5980710D01*
G37*
D11*
X5370000Y-6300000D03*
D10*
G36*
X-422309Y-6776053D02*
G01*
X-401074Y-6779203D01*
X-380250Y-6784419D01*
X-360038Y-6791651D01*
X-340632Y-6800830D01*
X-322219Y-6811866D01*
X-304976Y-6824654D01*
X-289070Y-6839070D01*
X-274654Y-6854976D01*
X-261866Y-6872219D01*
X-250830Y-6890632D01*
X-241651Y-6910038D01*
X-234419Y-6930250D01*
X-229203Y-6951074D01*
X-226053Y-6972309D01*
X-225000Y-6993750D01*
X-225000Y-7431250D01*
X-226053Y-7452691D01*
X-229203Y-7473926D01*
X-234419Y-7494750D01*
X-241651Y-7514962D01*
X-250830Y-7534368D01*
X-261866Y-7552781D01*
X-274654Y-7570024D01*
X-289070Y-7585930D01*
X-304976Y-7600346D01*
X-322219Y-7613134D01*
X-340632Y-7624170D01*
X-360038Y-7633349D01*
X-380250Y-7640581D01*
X-401074Y-7645797D01*
X-422309Y-7648947D01*
X-443750Y-7650000D01*
X-956250Y-7650000D01*
X-977691Y-7648947D01*
X-998926Y-7645797D01*
X-1019750Y-7640581D01*
X-1039962Y-7633349D01*
X-1059368Y-7624170D01*
X-1077781Y-7613134D01*
X-1095024Y-7600346D01*
X-1110930Y-7585930D01*
X-1125346Y-7570024D01*
X-1138134Y-7552781D01*
X-1149170Y-7534368D01*
X-1158349Y-7514962D01*
X-1165581Y-7494750D01*
X-1170797Y-7473926D01*
X-1173947Y-7452691D01*
X-1175000Y-7431250D01*
X-1175000Y-6993750D01*
X-1173947Y-6972309D01*
X-1170797Y-6951074D01*
X-1165581Y-6930250D01*
X-1158349Y-6910038D01*
X-1149170Y-6890632D01*
X-1138134Y-6872219D01*
X-1125346Y-6854976D01*
X-1110930Y-6839070D01*
X-1095024Y-6824654D01*
X-1077781Y-6811866D01*
X-1059368Y-6800830D01*
X-1039962Y-6791651D01*
X-1019750Y-6784419D01*
X-998926Y-6779203D01*
X-977691Y-6776053D01*
X-956250Y-6775000D01*
X-443750Y-6775000D01*
X-422309Y-6776053D01*
X-422309Y-6776053D01*
G37*
D28*
X-700000Y-7212500D03*
D10*
G36*
X-422309Y-8351053D02*
G01*
X-401074Y-8354203D01*
X-380250Y-8359419D01*
X-360038Y-8366651D01*
X-340632Y-8375830D01*
X-322219Y-8386866D01*
X-304976Y-8399654D01*
X-289070Y-8414070D01*
X-274654Y-8429976D01*
X-261866Y-8447219D01*
X-250830Y-8465632D01*
X-241651Y-8485038D01*
X-234419Y-8505250D01*
X-229203Y-8526074D01*
X-226053Y-8547309D01*
X-225000Y-8568750D01*
X-225000Y-9006250D01*
X-226053Y-9027691D01*
X-229203Y-9048926D01*
X-234419Y-9069750D01*
X-241651Y-9089962D01*
X-250830Y-9109368D01*
X-261866Y-9127781D01*
X-274654Y-9145024D01*
X-289070Y-9160930D01*
X-304976Y-9175346D01*
X-322219Y-9188134D01*
X-340632Y-9199170D01*
X-360038Y-9208349D01*
X-380250Y-9215581D01*
X-401074Y-9220797D01*
X-422309Y-9223947D01*
X-443750Y-9225000D01*
X-956250Y-9225000D01*
X-977691Y-9223947D01*
X-998926Y-9220797D01*
X-1019750Y-9215581D01*
X-1039962Y-9208349D01*
X-1059368Y-9199170D01*
X-1077781Y-9188134D01*
X-1095024Y-9175346D01*
X-1110930Y-9160930D01*
X-1125346Y-9145024D01*
X-1138134Y-9127781D01*
X-1149170Y-9109368D01*
X-1158349Y-9089962D01*
X-1165581Y-9069750D01*
X-1170797Y-9048926D01*
X-1173947Y-9027691D01*
X-1175000Y-9006250D01*
X-1175000Y-8568750D01*
X-1173947Y-8547309D01*
X-1170797Y-8526074D01*
X-1165581Y-8505250D01*
X-1158349Y-8485038D01*
X-1149170Y-8465632D01*
X-1138134Y-8447219D01*
X-1125346Y-8429976D01*
X-1110930Y-8414070D01*
X-1095024Y-8399654D01*
X-1077781Y-8386866D01*
X-1059368Y-8375830D01*
X-1039962Y-8366651D01*
X-1019750Y-8359419D01*
X-998926Y-8354203D01*
X-977691Y-8351053D01*
X-956250Y-8350000D01*
X-443750Y-8350000D01*
X-422309Y-8351053D01*
X-422309Y-8351053D01*
G37*
D28*
X-700000Y-8787500D03*
M02*
