G04 #@! TF.GenerationSoftware,KiCad,Pcbnew,(5.1.0-10-g6006703)*
G04 #@! TF.CreationDate,2019-04-13T18:37:01+08:00*
G04 #@! TF.ProjectId,cicada,63696361-6461-42e6-9b69-6361645f7063,0.1*
G04 #@! TF.SameCoordinates,PX7cee6c0PY3dfd240*
G04 #@! TF.FileFunction,Soldermask,Bot*
G04 #@! TF.FilePolarity,Negative*
%FSLAX46Y46*%
G04 Gerber Fmt 4.6, Leading zero omitted, Abs format (unit mm)*
G04 Created by KiCad (PCBNEW (5.1.0-10-g6006703)) date 2019-04-13 18:37:01*
%MOMM*%
%LPD*%
G04 APERTURE LIST*
%ADD10C,0.150000*%
G04 APERTURE END LIST*
D10*
G36*
X17802144Y-54355680D02*
G01*
X18302612Y-54562981D01*
X18753022Y-54863935D01*
X19136065Y-55246978D01*
X19437019Y-55697388D01*
X19644320Y-56197856D01*
X19750000Y-56729147D01*
X19750000Y-57270853D01*
X19644320Y-57802144D01*
X19437019Y-58302612D01*
X19136065Y-58753022D01*
X18753022Y-59136065D01*
X18302612Y-59437019D01*
X17802144Y-59644320D01*
X17270853Y-59750000D01*
X16729147Y-59750000D01*
X16197856Y-59644320D01*
X15697388Y-59437019D01*
X15246978Y-59136065D01*
X14863935Y-58753022D01*
X14562981Y-58302612D01*
X14355680Y-57802144D01*
X14250000Y-57270853D01*
X14250000Y-56729147D01*
X14355680Y-56197856D01*
X14562981Y-55697388D01*
X14863935Y-55246978D01*
X15246978Y-54863935D01*
X15697388Y-54562981D01*
X16197856Y-54355680D01*
X16729147Y-54250000D01*
X17270853Y-54250000D01*
X17802144Y-54355680D01*
X17802144Y-54355680D01*
G37*
G36*
X-16197856Y-54355680D02*
G01*
X-15697388Y-54562981D01*
X-15246978Y-54863935D01*
X-14863935Y-55246978D01*
X-14562981Y-55697388D01*
X-14355680Y-56197856D01*
X-14250000Y-56729147D01*
X-14250000Y-57270853D01*
X-14355680Y-57802144D01*
X-14562981Y-58302612D01*
X-14863935Y-58753022D01*
X-15246978Y-59136065D01*
X-15697388Y-59437019D01*
X-16197856Y-59644320D01*
X-16729147Y-59750000D01*
X-17270853Y-59750000D01*
X-17802144Y-59644320D01*
X-18302612Y-59437019D01*
X-18753022Y-59136065D01*
X-19136065Y-58753022D01*
X-19437019Y-58302612D01*
X-19644320Y-57802144D01*
X-19750000Y-57270853D01*
X-19750000Y-56729147D01*
X-19644320Y-56197856D01*
X-19437019Y-55697388D01*
X-19136065Y-55246978D01*
X-18753022Y-54863935D01*
X-18302612Y-54562981D01*
X-17802144Y-54355680D01*
X-17270853Y-54250000D01*
X-16729147Y-54250000D01*
X-16197856Y-54355680D01*
X-16197856Y-54355680D01*
G37*
G36*
X-540825Y-55811749D02*
G01*
X-540822Y-55811750D01*
X-540821Y-55811750D01*
X-387759Y-55858181D01*
X-387756Y-55858183D01*
X-387755Y-55858183D01*
X-246697Y-55933580D01*
X-123051Y-56035052D01*
X-21580Y-56158696D01*
X-649Y-56197855D01*
X53819Y-56299758D01*
X53819Y-56299759D01*
X100251Y-56452824D01*
X112000Y-56572115D01*
X112000Y-57027884D01*
X100251Y-57147176D01*
X100250Y-57147179D01*
X100250Y-57147180D01*
X53819Y-57300242D01*
X53817Y-57300245D01*
X53817Y-57300246D01*
X-21580Y-57441304D01*
X-123051Y-57564949D01*
X-246696Y-57666420D01*
X-387754Y-57741817D01*
X-387758Y-57741819D01*
X-540820Y-57788250D01*
X-540821Y-57788250D01*
X-540824Y-57788251D01*
X-700000Y-57803928D01*
X-859175Y-57788251D01*
X-859178Y-57788250D01*
X-859179Y-57788250D01*
X-1012241Y-57741819D01*
X-1012245Y-57741817D01*
X-1153303Y-57666420D01*
X-1276945Y-57564951D01*
X-1378422Y-57441301D01*
X-1453817Y-57300246D01*
X-1453817Y-57300245D01*
X-1453819Y-57300242D01*
X-1500250Y-57147180D01*
X-1500250Y-57147179D01*
X-1500251Y-57147176D01*
X-1512000Y-57027885D01*
X-1512000Y-56572116D01*
X-1500251Y-56452825D01*
X-1500250Y-56452821D01*
X-1453819Y-56299759D01*
X-1378419Y-56158696D01*
X-1378418Y-56158695D01*
X-1276948Y-56035051D01*
X-1153304Y-55933580D01*
X-1012246Y-55858183D01*
X-1012245Y-55858183D01*
X-1012242Y-55858181D01*
X-859180Y-55811750D01*
X-859179Y-55811750D01*
X-859176Y-55811749D01*
X-700000Y-55796072D01*
X-540825Y-55811749D01*
X-540825Y-55811749D01*
G37*
G36*
X-7740825Y-55811749D02*
G01*
X-7740822Y-55811750D01*
X-7740821Y-55811750D01*
X-7587759Y-55858181D01*
X-7587756Y-55858183D01*
X-7587755Y-55858183D01*
X-7446697Y-55933580D01*
X-7323051Y-56035052D01*
X-7221580Y-56158696D01*
X-7200649Y-56197855D01*
X-7146181Y-56299758D01*
X-7146181Y-56299759D01*
X-7099749Y-56452824D01*
X-7088000Y-56572115D01*
X-7088000Y-57027884D01*
X-7099749Y-57147176D01*
X-7099750Y-57147179D01*
X-7099750Y-57147180D01*
X-7146181Y-57300242D01*
X-7146183Y-57300245D01*
X-7146183Y-57300246D01*
X-7221580Y-57441304D01*
X-7323051Y-57564949D01*
X-7446696Y-57666420D01*
X-7587754Y-57741817D01*
X-7587758Y-57741819D01*
X-7740820Y-57788250D01*
X-7740821Y-57788250D01*
X-7740824Y-57788251D01*
X-7900000Y-57803928D01*
X-8059175Y-57788251D01*
X-8059178Y-57788250D01*
X-8059179Y-57788250D01*
X-8212241Y-57741819D01*
X-8212245Y-57741817D01*
X-8353303Y-57666420D01*
X-8476945Y-57564951D01*
X-8578422Y-57441301D01*
X-8653817Y-57300246D01*
X-8653817Y-57300245D01*
X-8653819Y-57300242D01*
X-8700250Y-57147180D01*
X-8700250Y-57147179D01*
X-8700251Y-57147176D01*
X-8712000Y-57027885D01*
X-8712000Y-56572116D01*
X-8700251Y-56452825D01*
X-8700250Y-56452821D01*
X-8653819Y-56299759D01*
X-8578419Y-56158696D01*
X-8578418Y-56158695D01*
X-8476948Y-56035051D01*
X-8353304Y-55933580D01*
X-8212246Y-55858183D01*
X-8212245Y-55858183D01*
X-8212242Y-55858181D01*
X-8059180Y-55811750D01*
X-8059179Y-55811750D01*
X-8059176Y-55811749D01*
X-7900000Y-55796072D01*
X-7740825Y-55811749D01*
X-7740825Y-55811749D01*
G37*
G36*
X-6622387Y-53232325D02*
G01*
X-6612280Y-53233320D01*
X-6558087Y-53249760D01*
X-6503893Y-53266199D01*
X-6404003Y-53319592D01*
X-6316446Y-53391446D01*
X-6244592Y-53479002D01*
X-6191199Y-53578892D01*
X-6158320Y-53687280D01*
X-6150000Y-53771754D01*
X-6150000Y-54028245D01*
X-6157131Y-54100651D01*
X-6158320Y-54112720D01*
X-6174760Y-54166913D01*
X-6191199Y-54221107D01*
X-6191200Y-54221108D01*
X-6244592Y-54320998D01*
X-6266917Y-54348201D01*
X-6316446Y-54408554D01*
X-6404002Y-54480408D01*
X-6503892Y-54533801D01*
X-6558086Y-54550241D01*
X-6612279Y-54566680D01*
X-6622386Y-54567675D01*
X-6725000Y-54577782D01*
X-6827613Y-54567675D01*
X-6837720Y-54566680D01*
X-6891913Y-54550241D01*
X-6946107Y-54533801D01*
X-7045997Y-54480408D01*
X-7133553Y-54408554D01*
X-7205407Y-54320998D01*
X-7258801Y-54221108D01*
X-7291680Y-54112720D01*
X-7300000Y-54028246D01*
X-7300000Y-53771755D01*
X-7291680Y-53687281D01*
X-7291679Y-53687279D01*
X-7258801Y-53578894D01*
X-7258801Y-53578893D01*
X-7205408Y-53479003D01*
X-7133554Y-53391446D01*
X-7045998Y-53319592D01*
X-6946108Y-53266199D01*
X-6891914Y-53249760D01*
X-6837721Y-53233320D01*
X-6827614Y-53232325D01*
X-6725000Y-53222218D01*
X-6622387Y-53232325D01*
X-6622387Y-53232325D01*
G37*
G36*
X-1772387Y-53232325D02*
G01*
X-1762280Y-53233320D01*
X-1708087Y-53249760D01*
X-1653893Y-53266199D01*
X-1554003Y-53319592D01*
X-1466446Y-53391446D01*
X-1394592Y-53479002D01*
X-1341199Y-53578892D01*
X-1308320Y-53687280D01*
X-1300000Y-53771754D01*
X-1300000Y-54028245D01*
X-1307131Y-54100651D01*
X-1308320Y-54112720D01*
X-1324760Y-54166913D01*
X-1341199Y-54221107D01*
X-1341200Y-54221108D01*
X-1394592Y-54320998D01*
X-1416917Y-54348201D01*
X-1466446Y-54408554D01*
X-1554002Y-54480408D01*
X-1653892Y-54533801D01*
X-1708086Y-54550241D01*
X-1762279Y-54566680D01*
X-1772386Y-54567675D01*
X-1875000Y-54577782D01*
X-1977613Y-54567675D01*
X-1987720Y-54566680D01*
X-2041913Y-54550241D01*
X-2096107Y-54533801D01*
X-2195997Y-54480408D01*
X-2283553Y-54408554D01*
X-2355407Y-54320998D01*
X-2408801Y-54221108D01*
X-2441680Y-54112720D01*
X-2450000Y-54028246D01*
X-2450000Y-53771755D01*
X-2441680Y-53687281D01*
X-2441679Y-53687279D01*
X-2408801Y-53578894D01*
X-2408801Y-53578893D01*
X-2355408Y-53479003D01*
X-2283554Y-53391446D01*
X-2195998Y-53319592D01*
X-2096108Y-53266199D01*
X-2041914Y-53249760D01*
X-1987721Y-53233320D01*
X-1977614Y-53232325D01*
X-1875000Y-53222218D01*
X-1772387Y-53232325D01*
X-1772387Y-53232325D01*
G37*
G36*
X5400000Y-52100000D02*
G01*
X3800000Y-52100000D01*
X3800000Y-50500000D01*
X5400000Y-50500000D01*
X5400000Y-52100000D01*
X5400000Y-52100000D01*
G37*
G36*
X7333351Y-50530743D02*
G01*
X7478941Y-50591048D01*
X7609970Y-50678599D01*
X7721401Y-50790030D01*
X7808952Y-50921059D01*
X7869257Y-51066649D01*
X7900000Y-51221206D01*
X7900000Y-51378794D01*
X7869257Y-51533351D01*
X7808952Y-51678941D01*
X7721401Y-51809970D01*
X7609970Y-51921401D01*
X7478941Y-52008952D01*
X7333351Y-52069257D01*
X7178794Y-52100000D01*
X7021206Y-52100000D01*
X6866649Y-52069257D01*
X6721059Y-52008952D01*
X6590030Y-51921401D01*
X6478599Y-51809970D01*
X6391048Y-51678941D01*
X6330743Y-51533351D01*
X6300000Y-51378794D01*
X6300000Y-51221206D01*
X6330743Y-51066649D01*
X6391048Y-50921059D01*
X6478599Y-50790030D01*
X6590030Y-50678599D01*
X6721059Y-50591048D01*
X6866649Y-50530743D01*
X7021206Y-50500000D01*
X7178794Y-50500000D01*
X7333351Y-50530743D01*
X7333351Y-50530743D01*
G37*
G36*
X-4275000Y-51230000D02*
G01*
X-4925000Y-51230000D01*
X-4925000Y-50170000D01*
X-4275000Y-50170000D01*
X-4275000Y-51230000D01*
X-4275000Y-51230000D01*
G37*
G36*
X-3325000Y-51230000D02*
G01*
X-3975000Y-51230000D01*
X-3975000Y-50170000D01*
X-3325000Y-50170000D01*
X-3325000Y-51230000D01*
X-3325000Y-51230000D01*
G37*
G36*
X-5225000Y-51230000D02*
G01*
X-5875000Y-51230000D01*
X-5875000Y-50170000D01*
X-5225000Y-50170000D01*
X-5225000Y-51230000D01*
X-5225000Y-51230000D01*
G37*
G36*
X-3325000Y-49030000D02*
G01*
X-3975000Y-49030000D01*
X-3975000Y-47970000D01*
X-3325000Y-47970000D01*
X-3325000Y-49030000D01*
X-3325000Y-49030000D01*
G37*
G36*
X-4275000Y-49030000D02*
G01*
X-4925000Y-49030000D01*
X-4925000Y-47970000D01*
X-4275000Y-47970000D01*
X-4275000Y-49030000D01*
X-4275000Y-49030000D01*
G37*
G36*
X-5225000Y-49030000D02*
G01*
X-5875000Y-49030000D01*
X-5875000Y-47970000D01*
X-5225000Y-47970000D01*
X-5225000Y-49030000D01*
X-5225000Y-49030000D01*
G37*
G36*
X15333351Y-41730743D02*
G01*
X15478941Y-41791048D01*
X15609970Y-41878599D01*
X15721401Y-41990030D01*
X15808952Y-42121059D01*
X15869257Y-42266649D01*
X15900000Y-42421206D01*
X15900000Y-42578794D01*
X15869257Y-42733351D01*
X15808952Y-42878941D01*
X15721401Y-43009970D01*
X15609970Y-43121401D01*
X15478941Y-43208952D01*
X15333351Y-43269257D01*
X15178794Y-43300000D01*
X15021206Y-43300000D01*
X14866649Y-43269257D01*
X14721059Y-43208952D01*
X14590030Y-43121401D01*
X14478599Y-43009970D01*
X14391048Y-42878941D01*
X14330743Y-42733351D01*
X14300000Y-42578794D01*
X14300000Y-42421206D01*
X14330743Y-42266649D01*
X14391048Y-42121059D01*
X14478599Y-41990030D01*
X14590030Y-41878599D01*
X14721059Y-41791048D01*
X14866649Y-41730743D01*
X15021206Y-41700000D01*
X15178794Y-41700000D01*
X15333351Y-41730743D01*
X15333351Y-41730743D01*
G37*
G36*
X-15666649Y-40630743D02*
G01*
X-15521059Y-40691048D01*
X-15390030Y-40778599D01*
X-15278599Y-40890030D01*
X-15191048Y-41021059D01*
X-15130743Y-41166649D01*
X-15100000Y-41321206D01*
X-15100000Y-41478794D01*
X-15130743Y-41633351D01*
X-15191048Y-41778941D01*
X-15278599Y-41909970D01*
X-15390030Y-42021401D01*
X-15521059Y-42108952D01*
X-15666649Y-42169257D01*
X-15821206Y-42200000D01*
X-15978794Y-42200000D01*
X-16133351Y-42169257D01*
X-16278941Y-42108952D01*
X-16409970Y-42021401D01*
X-16521401Y-41909970D01*
X-16608952Y-41778941D01*
X-16669257Y-41633351D01*
X-16700000Y-41478794D01*
X-16700000Y-41321206D01*
X-16669257Y-41166649D01*
X-16608952Y-41021059D01*
X-16521401Y-40890030D01*
X-16409970Y-40778599D01*
X-16278941Y-40691048D01*
X-16133351Y-40630743D01*
X-15978794Y-40600000D01*
X-15821206Y-40600000D01*
X-15666649Y-40630743D01*
X-15666649Y-40630743D01*
G37*
G36*
X15900000Y-40800000D02*
G01*
X14300000Y-40800000D01*
X14300000Y-39200000D01*
X15900000Y-39200000D01*
X15900000Y-40800000D01*
X15900000Y-40800000D01*
G37*
G36*
X-15100000Y-39700000D02*
G01*
X-16700000Y-39700000D01*
X-16700000Y-38100000D01*
X-15100000Y-38100000D01*
X-15100000Y-39700000D01*
X-15100000Y-39700000D01*
G37*
G36*
X-7900000Y-39600000D02*
G01*
X-10100000Y-39600000D01*
X-10100000Y-38550000D01*
X-7900000Y-38550000D01*
X-7900000Y-39600000D01*
X-7900000Y-39600000D01*
G37*
G36*
X-10000000Y-38100000D02*
G01*
X-11000000Y-38100000D01*
X-11000000Y-37100000D01*
X-10000000Y-37100000D01*
X-10000000Y-38100000D01*
X-10000000Y-38100000D01*
G37*
G36*
X-7000000Y-38100000D02*
G01*
X-8000000Y-38100000D01*
X-8000000Y-37100000D01*
X-7000000Y-37100000D01*
X-7000000Y-38100000D01*
X-7000000Y-38100000D01*
G37*
G36*
X-7900000Y-36650000D02*
G01*
X-10100000Y-36650000D01*
X-10100000Y-35600000D01*
X-7900000Y-35600000D01*
X-7900000Y-36650000D01*
X-7900000Y-36650000D01*
G37*
G36*
X17865731Y-33603795D02*
G01*
X17896879Y-33613244D01*
X17925593Y-33628592D01*
X17950757Y-33649243D01*
X17971408Y-33674407D01*
X17986756Y-33703121D01*
X17996205Y-33734269D01*
X18000000Y-33772806D01*
X18000000Y-34927194D01*
X17996205Y-34965731D01*
X17986756Y-34996879D01*
X17971408Y-35025593D01*
X17950757Y-35050757D01*
X17925593Y-35071408D01*
X17896879Y-35086756D01*
X17865731Y-35096205D01*
X17827194Y-35100000D01*
X14772806Y-35100000D01*
X14734269Y-35096205D01*
X14703121Y-35086756D01*
X14674407Y-35071408D01*
X14649243Y-35050757D01*
X14628592Y-35025593D01*
X14613244Y-34996879D01*
X14603795Y-34965731D01*
X14600000Y-34927194D01*
X14600000Y-33772806D01*
X14603795Y-33734269D01*
X14613244Y-33703121D01*
X14628592Y-33674407D01*
X14649243Y-33649243D01*
X14674407Y-33628592D01*
X14703121Y-33613244D01*
X14734269Y-33603795D01*
X14772806Y-33600000D01*
X17827194Y-33600000D01*
X17865731Y-33603795D01*
X17865731Y-33603795D01*
G37*
G36*
X-1281234Y-32578821D02*
G01*
X-1144743Y-32635358D01*
X-1021903Y-32717437D01*
X-917437Y-32821903D01*
X-835358Y-32944743D01*
X-778821Y-33081234D01*
X-750000Y-33226130D01*
X-750000Y-33373870D01*
X-778821Y-33518766D01*
X-835358Y-33655257D01*
X-917437Y-33778097D01*
X-1021903Y-33882563D01*
X-1144743Y-33964642D01*
X-1281234Y-34021179D01*
X-1426130Y-34050000D01*
X-1573870Y-34050000D01*
X-1718766Y-34021179D01*
X-1855257Y-33964642D01*
X-1978097Y-33882563D01*
X-2082563Y-33778097D01*
X-2164642Y-33655257D01*
X-2221179Y-33518766D01*
X-2250000Y-33373870D01*
X-2250000Y-33226130D01*
X-2221179Y-33081234D01*
X-2164642Y-32944743D01*
X-2082563Y-32821903D01*
X-1978097Y-32717437D01*
X-1855257Y-32635358D01*
X-1718766Y-32578821D01*
X-1573870Y-32550000D01*
X-1426130Y-32550000D01*
X-1281234Y-32578821D01*
X-1281234Y-32578821D01*
G37*
G36*
X-5800000Y-33250000D02*
G01*
X-8300000Y-33250000D01*
X-8300000Y-31450000D01*
X-5800000Y-31450000D01*
X-5800000Y-33250000D01*
X-5800000Y-33250000D01*
G37*
G36*
X-9800000Y-33250000D02*
G01*
X-12300000Y-33250000D01*
X-12300000Y-31450000D01*
X-9800000Y-31450000D01*
X-9800000Y-33250000D01*
X-9800000Y-33250000D01*
G37*
G36*
X12148963Y-31504196D02*
G01*
X12184021Y-31514831D01*
X12216332Y-31532102D01*
X12244655Y-31555345D01*
X12267898Y-31583668D01*
X12285169Y-31615979D01*
X12295804Y-31651037D01*
X12300000Y-31693641D01*
X12300000Y-32306359D01*
X12295804Y-32348963D01*
X12285169Y-32384021D01*
X12267898Y-32416332D01*
X12244655Y-32444655D01*
X12216332Y-32467898D01*
X12184021Y-32485169D01*
X12148963Y-32495804D01*
X12106359Y-32500000D01*
X8993641Y-32500000D01*
X8951037Y-32495804D01*
X8915979Y-32485169D01*
X8883668Y-32467898D01*
X8855345Y-32444655D01*
X8832102Y-32416332D01*
X8814831Y-32384021D01*
X8804196Y-32348963D01*
X8800000Y-32306359D01*
X8800000Y-31693641D01*
X8804196Y-31651037D01*
X8814831Y-31615979D01*
X8832102Y-31583668D01*
X8855345Y-31555345D01*
X8883668Y-31532102D01*
X8915979Y-31514831D01*
X8951037Y-31504196D01*
X8993641Y-31500000D01*
X12106359Y-31500000D01*
X12148963Y-31504196D01*
X12148963Y-31504196D01*
G37*
G36*
X175126Y-31272183D02*
G01*
X-724874Y-31272183D01*
X-724874Y-30472183D01*
X175126Y-30472183D01*
X175126Y-31272183D01*
X175126Y-31272183D01*
G37*
G36*
X1176589Y-30014409D02*
G01*
X1192425Y-30019213D01*
X1207012Y-30027010D01*
X1219803Y-30037506D01*
X1230299Y-30050297D01*
X1238096Y-30064884D01*
X1242900Y-30080720D01*
X1245126Y-30103323D01*
X1245126Y-30511043D01*
X1242900Y-30533646D01*
X1238096Y-30549482D01*
X1230299Y-30564069D01*
X1219803Y-30576860D01*
X1207012Y-30587356D01*
X1192425Y-30595153D01*
X1176589Y-30599957D01*
X1153986Y-30602183D01*
X696266Y-30602183D01*
X673663Y-30599957D01*
X657827Y-30595153D01*
X643240Y-30587356D01*
X630449Y-30576860D01*
X619953Y-30564069D01*
X612156Y-30549482D01*
X607352Y-30533646D01*
X605126Y-30511043D01*
X605126Y-30103323D01*
X607352Y-30080720D01*
X612156Y-30064884D01*
X619953Y-30050297D01*
X630449Y-30037506D01*
X643240Y-30027010D01*
X657827Y-30019213D01*
X673663Y-30014409D01*
X696266Y-30012183D01*
X1153986Y-30012183D01*
X1176589Y-30014409D01*
X1176589Y-30014409D01*
G37*
G36*
X12148963Y-29504196D02*
G01*
X12184021Y-29514831D01*
X12216332Y-29532102D01*
X12244655Y-29555345D01*
X12267898Y-29583668D01*
X12285169Y-29615979D01*
X12295804Y-29651037D01*
X12300000Y-29693641D01*
X12300000Y-30306359D01*
X12295804Y-30348963D01*
X12285169Y-30384021D01*
X12267898Y-30416332D01*
X12244655Y-30444655D01*
X12216332Y-30467898D01*
X12184021Y-30485169D01*
X12148963Y-30495804D01*
X12106359Y-30500000D01*
X8993641Y-30500000D01*
X8951037Y-30495804D01*
X8915979Y-30485169D01*
X8883668Y-30467898D01*
X8855345Y-30444655D01*
X8832102Y-30416332D01*
X8814831Y-30384021D01*
X8804196Y-30348963D01*
X8800000Y-30306359D01*
X8800000Y-29693641D01*
X8804196Y-29651037D01*
X8814831Y-29615979D01*
X8832102Y-29583668D01*
X8855345Y-29555345D01*
X8883668Y-29532102D01*
X8915979Y-29514831D01*
X8951037Y-29504196D01*
X8993641Y-29500000D01*
X12106359Y-29500000D01*
X12148963Y-29504196D01*
X12148963Y-29504196D01*
G37*
G36*
X6500000Y-30400000D02*
G01*
X5900000Y-30400000D01*
X5900000Y-29700000D01*
X6500000Y-29700000D01*
X6500000Y-30400000D01*
X6500000Y-30400000D01*
G37*
G36*
X7900000Y-30400000D02*
G01*
X7300000Y-30400000D01*
X7300000Y-29700000D01*
X7900000Y-29700000D01*
X7900000Y-30400000D01*
X7900000Y-30400000D01*
G37*
G36*
X-1824874Y-30322183D02*
G01*
X-2724874Y-30322183D01*
X-2724874Y-29522183D01*
X-1824874Y-29522183D01*
X-1824874Y-30322183D01*
X-1824874Y-30322183D01*
G37*
G36*
X-4233410Y-29604407D02*
G01*
X-4217574Y-29609211D01*
X-4202987Y-29617008D01*
X-4190196Y-29627504D01*
X-4179700Y-29640295D01*
X-4171903Y-29654882D01*
X-4167099Y-29670718D01*
X-4164873Y-29693321D01*
X-4164873Y-30151041D01*
X-4167099Y-30173644D01*
X-4171903Y-30189480D01*
X-4179700Y-30204067D01*
X-4190196Y-30216858D01*
X-4202987Y-30227354D01*
X-4217574Y-30235151D01*
X-4233410Y-30239955D01*
X-4256013Y-30242181D01*
X-4663733Y-30242181D01*
X-4686336Y-30239955D01*
X-4702172Y-30235151D01*
X-4716759Y-30227354D01*
X-4729550Y-30216858D01*
X-4740046Y-30204067D01*
X-4747843Y-30189480D01*
X-4752647Y-30173644D01*
X-4754873Y-30151041D01*
X-4754873Y-29693321D01*
X-4752647Y-29670718D01*
X-4747843Y-29654882D01*
X-4740046Y-29640295D01*
X-4729550Y-29627504D01*
X-4716759Y-29617008D01*
X-4702172Y-29609211D01*
X-4686336Y-29604407D01*
X-4663733Y-29602181D01*
X-4256013Y-29602181D01*
X-4233410Y-29604407D01*
X-4233410Y-29604407D01*
G37*
G36*
X-3263410Y-29604407D02*
G01*
X-3247574Y-29609211D01*
X-3232987Y-29617008D01*
X-3220196Y-29627504D01*
X-3209700Y-29640295D01*
X-3201903Y-29654882D01*
X-3197099Y-29670718D01*
X-3194873Y-29693321D01*
X-3194873Y-30151041D01*
X-3197099Y-30173644D01*
X-3201903Y-30189480D01*
X-3209700Y-30204067D01*
X-3220196Y-30216858D01*
X-3232987Y-30227354D01*
X-3247574Y-30235151D01*
X-3263410Y-30239955D01*
X-3286013Y-30242181D01*
X-3693733Y-30242181D01*
X-3716336Y-30239955D01*
X-3732172Y-30235151D01*
X-3746759Y-30227354D01*
X-3759550Y-30216858D01*
X-3770046Y-30204067D01*
X-3777843Y-30189480D01*
X-3782647Y-30173644D01*
X-3784873Y-30151041D01*
X-3784873Y-29693321D01*
X-3782647Y-29670718D01*
X-3777843Y-29654882D01*
X-3770046Y-29640295D01*
X-3759550Y-29627504D01*
X-3746759Y-29617008D01*
X-3732172Y-29609211D01*
X-3716336Y-29604407D01*
X-3693733Y-29602181D01*
X-3286013Y-29602181D01*
X-3263410Y-29604407D01*
X-3263410Y-29604407D01*
G37*
G36*
X1176589Y-29044409D02*
G01*
X1192425Y-29049213D01*
X1207012Y-29057010D01*
X1219803Y-29067506D01*
X1230299Y-29080297D01*
X1238096Y-29094884D01*
X1242900Y-29110720D01*
X1245126Y-29133323D01*
X1245126Y-29541043D01*
X1242900Y-29563646D01*
X1238096Y-29579482D01*
X1230299Y-29594069D01*
X1219803Y-29606860D01*
X1207012Y-29617356D01*
X1192425Y-29625153D01*
X1176589Y-29629957D01*
X1153986Y-29632183D01*
X696266Y-29632183D01*
X673663Y-29629957D01*
X657827Y-29625153D01*
X643240Y-29617356D01*
X630449Y-29606860D01*
X619953Y-29594069D01*
X612156Y-29579482D01*
X607352Y-29563646D01*
X605126Y-29541043D01*
X605126Y-29133323D01*
X607352Y-29110720D01*
X612156Y-29094884D01*
X619953Y-29080297D01*
X630449Y-29067506D01*
X643240Y-29057010D01*
X657827Y-29049213D01*
X673663Y-29044409D01*
X696266Y-29042183D01*
X1153986Y-29042183D01*
X1176589Y-29044409D01*
X1176589Y-29044409D01*
G37*
G36*
X175126Y-29372183D02*
G01*
X-724874Y-29372183D01*
X-724874Y-28572183D01*
X175126Y-28572183D01*
X175126Y-29372183D01*
X175126Y-29372183D01*
G37*
G36*
X12148963Y-27504196D02*
G01*
X12184021Y-27514831D01*
X12216332Y-27532102D01*
X12244655Y-27555345D01*
X12267898Y-27583668D01*
X12285169Y-27615979D01*
X12295804Y-27651037D01*
X12300000Y-27693641D01*
X12300000Y-28306359D01*
X12295804Y-28348963D01*
X12285169Y-28384021D01*
X12267898Y-28416332D01*
X12244655Y-28444655D01*
X12216332Y-28467898D01*
X12184021Y-28485169D01*
X12148963Y-28495804D01*
X12106359Y-28500000D01*
X8993641Y-28500000D01*
X8951037Y-28495804D01*
X8915979Y-28485169D01*
X8883668Y-28467898D01*
X8855345Y-28444655D01*
X8832102Y-28416332D01*
X8814831Y-28384021D01*
X8804196Y-28348963D01*
X8800000Y-28306359D01*
X8800000Y-27693641D01*
X8804196Y-27651037D01*
X8814831Y-27615979D01*
X8832102Y-27583668D01*
X8855345Y-27555345D01*
X8883668Y-27532102D01*
X8915979Y-27514831D01*
X8951037Y-27504196D01*
X8993641Y-27500000D01*
X12106359Y-27500000D01*
X12148963Y-27504196D01*
X12148963Y-27504196D01*
G37*
G36*
X7900000Y-28400000D02*
G01*
X7300000Y-28400000D01*
X7300000Y-27700000D01*
X7900000Y-27700000D01*
X7900000Y-28400000D01*
X7900000Y-28400000D01*
G37*
G36*
X6500000Y-28400000D02*
G01*
X5900000Y-28400000D01*
X5900000Y-27700000D01*
X6500000Y-27700000D01*
X6500000Y-28400000D01*
X6500000Y-28400000D01*
G37*
G36*
X-16905000Y-26750000D02*
G01*
X-19505000Y-26750000D01*
X-19505000Y-25650000D01*
X-16905000Y-25650000D01*
X-16905000Y-26750000D01*
X-16905000Y-26750000D01*
G37*
G36*
X-4225000Y-26750000D02*
G01*
X-6825000Y-26750000D01*
X-6825000Y-25650000D01*
X-4225000Y-25650000D01*
X-4225000Y-26750000D01*
X-4225000Y-26750000D01*
G37*
G36*
X12148963Y-25504196D02*
G01*
X12184021Y-25514831D01*
X12216332Y-25532102D01*
X12244655Y-25555345D01*
X12267898Y-25583668D01*
X12285169Y-25615979D01*
X12295804Y-25651037D01*
X12300000Y-25693641D01*
X12300000Y-26306359D01*
X12295804Y-26348963D01*
X12285169Y-26384021D01*
X12267898Y-26416332D01*
X12244655Y-26444655D01*
X12216332Y-26467898D01*
X12184021Y-26485169D01*
X12148963Y-26495804D01*
X12106359Y-26500000D01*
X8993641Y-26500000D01*
X8951037Y-26495804D01*
X8915979Y-26485169D01*
X8883668Y-26467898D01*
X8855345Y-26444655D01*
X8832102Y-26416332D01*
X8814831Y-26384021D01*
X8804196Y-26348963D01*
X8800000Y-26306359D01*
X8800000Y-25693641D01*
X8804196Y-25651037D01*
X8814831Y-25615979D01*
X8832102Y-25583668D01*
X8855345Y-25555345D01*
X8883668Y-25532102D01*
X8915979Y-25514831D01*
X8951037Y-25504196D01*
X8993641Y-25500000D01*
X12106359Y-25500000D01*
X12148963Y-25504196D01*
X12148963Y-25504196D01*
G37*
G36*
X3100000Y-25950000D02*
G01*
X2500000Y-25950000D01*
X2500000Y-25250000D01*
X3100000Y-25250000D01*
X3100000Y-25950000D01*
X3100000Y-25950000D01*
G37*
G36*
X1700000Y-25950000D02*
G01*
X1100000Y-25950000D01*
X1100000Y-25250000D01*
X1700000Y-25250000D01*
X1700000Y-25950000D01*
X1700000Y-25950000D01*
G37*
G36*
X4996463Y-25082226D02*
G01*
X5012299Y-25087030D01*
X5026886Y-25094827D01*
X5039677Y-25105323D01*
X5050173Y-25118114D01*
X5057970Y-25132701D01*
X5062774Y-25148537D01*
X5065000Y-25171140D01*
X5065000Y-25628860D01*
X5062774Y-25651463D01*
X5057970Y-25667299D01*
X5050173Y-25681886D01*
X5039677Y-25694677D01*
X5026886Y-25705173D01*
X5012299Y-25712970D01*
X4996463Y-25717774D01*
X4973860Y-25720000D01*
X4566140Y-25720000D01*
X4543537Y-25717774D01*
X4527701Y-25712970D01*
X4513114Y-25705173D01*
X4500323Y-25694677D01*
X4489827Y-25681886D01*
X4482030Y-25667299D01*
X4477226Y-25651463D01*
X4475000Y-25628860D01*
X4475000Y-25171140D01*
X4477226Y-25148537D01*
X4482030Y-25132701D01*
X4489827Y-25118114D01*
X4500323Y-25105323D01*
X4513114Y-25094827D01*
X4527701Y-25087030D01*
X4543537Y-25082226D01*
X4566140Y-25080000D01*
X4973860Y-25080000D01*
X4996463Y-25082226D01*
X4996463Y-25082226D01*
G37*
G36*
X4026463Y-25082226D02*
G01*
X4042299Y-25087030D01*
X4056886Y-25094827D01*
X4069677Y-25105323D01*
X4080173Y-25118114D01*
X4087970Y-25132701D01*
X4092774Y-25148537D01*
X4095000Y-25171140D01*
X4095000Y-25628860D01*
X4092774Y-25651463D01*
X4087970Y-25667299D01*
X4080173Y-25681886D01*
X4069677Y-25694677D01*
X4056886Y-25705173D01*
X4042299Y-25712970D01*
X4026463Y-25717774D01*
X4003860Y-25720000D01*
X3596140Y-25720000D01*
X3573537Y-25717774D01*
X3557701Y-25712970D01*
X3543114Y-25705173D01*
X3530323Y-25694677D01*
X3519827Y-25681886D01*
X3512030Y-25667299D01*
X3507226Y-25651463D01*
X3505000Y-25628860D01*
X3505000Y-25171140D01*
X3507226Y-25148537D01*
X3512030Y-25132701D01*
X3519827Y-25118114D01*
X3530323Y-25105323D01*
X3543114Y-25094827D01*
X3557701Y-25087030D01*
X3573537Y-25082226D01*
X3596140Y-25080000D01*
X4003860Y-25080000D01*
X4026463Y-25082226D01*
X4026463Y-25082226D01*
G37*
G36*
X-950884Y-24053595D02*
G01*
X-921689Y-24062452D01*
X-894777Y-24076837D01*
X-871192Y-24096192D01*
X-851837Y-24119777D01*
X-837452Y-24146689D01*
X-828595Y-24175884D01*
X-825000Y-24212390D01*
X-825000Y-24762610D01*
X-828595Y-24799116D01*
X-837452Y-24828311D01*
X-851837Y-24855223D01*
X-871192Y-24878808D01*
X-894777Y-24898163D01*
X-921689Y-24912548D01*
X-950884Y-24921405D01*
X-987390Y-24925000D01*
X-1612610Y-24925000D01*
X-1649116Y-24921405D01*
X-1678311Y-24912548D01*
X-1705223Y-24898163D01*
X-1728808Y-24878808D01*
X-1748163Y-24855223D01*
X-1762548Y-24828311D01*
X-1771405Y-24799116D01*
X-1775000Y-24762610D01*
X-1775000Y-24212390D01*
X-1771405Y-24175884D01*
X-1762548Y-24146689D01*
X-1748163Y-24119777D01*
X-1728808Y-24096192D01*
X-1705223Y-24076837D01*
X-1678311Y-24062452D01*
X-1649116Y-24053595D01*
X-1612610Y-24050000D01*
X-987390Y-24050000D01*
X-950884Y-24053595D01*
X-950884Y-24053595D01*
G37*
G36*
X-2425000Y-24800000D02*
G01*
X-3775000Y-24800000D01*
X-3775000Y-23900000D01*
X-2425000Y-23900000D01*
X-2425000Y-24800000D01*
X-2425000Y-24800000D01*
G37*
G36*
X3041463Y-24082226D02*
G01*
X3057299Y-24087030D01*
X3071886Y-24094827D01*
X3084677Y-24105323D01*
X3095173Y-24118114D01*
X3102970Y-24132701D01*
X3107774Y-24148537D01*
X3110000Y-24171140D01*
X3110000Y-24628860D01*
X3107774Y-24651463D01*
X3102970Y-24667299D01*
X3095173Y-24681886D01*
X3084677Y-24694677D01*
X3071886Y-24705173D01*
X3057299Y-24712970D01*
X3041463Y-24717774D01*
X3018860Y-24720000D01*
X2611140Y-24720000D01*
X2588537Y-24717774D01*
X2572701Y-24712970D01*
X2558114Y-24705173D01*
X2545323Y-24694677D01*
X2534827Y-24681886D01*
X2527030Y-24667299D01*
X2522226Y-24651463D01*
X2520000Y-24628860D01*
X2520000Y-24171140D01*
X2522226Y-24148537D01*
X2527030Y-24132701D01*
X2534827Y-24118114D01*
X2545323Y-24105323D01*
X2558114Y-24094827D01*
X2572701Y-24087030D01*
X2588537Y-24082226D01*
X2611140Y-24080000D01*
X3018860Y-24080000D01*
X3041463Y-24082226D01*
X3041463Y-24082226D01*
G37*
G36*
X4011463Y-24082226D02*
G01*
X4027299Y-24087030D01*
X4041886Y-24094827D01*
X4054677Y-24105323D01*
X4065173Y-24118114D01*
X4072970Y-24132701D01*
X4077774Y-24148537D01*
X4080000Y-24171140D01*
X4080000Y-24628860D01*
X4077774Y-24651463D01*
X4072970Y-24667299D01*
X4065173Y-24681886D01*
X4054677Y-24694677D01*
X4041886Y-24705173D01*
X4027299Y-24712970D01*
X4011463Y-24717774D01*
X3988860Y-24720000D01*
X3581140Y-24720000D01*
X3558537Y-24717774D01*
X3542701Y-24712970D01*
X3528114Y-24705173D01*
X3515323Y-24694677D01*
X3504827Y-24681886D01*
X3497030Y-24667299D01*
X3492226Y-24651463D01*
X3490000Y-24628860D01*
X3490000Y-24171140D01*
X3492226Y-24148537D01*
X3497030Y-24132701D01*
X3504827Y-24118114D01*
X3515323Y-24105323D01*
X3528114Y-24094827D01*
X3542701Y-24087030D01*
X3558537Y-24082226D01*
X3581140Y-24080000D01*
X3988860Y-24080000D01*
X4011463Y-24082226D01*
X4011463Y-24082226D01*
G37*
G36*
X17865731Y-22903795D02*
G01*
X17896879Y-22913244D01*
X17925593Y-22928592D01*
X17950757Y-22949243D01*
X17971408Y-22974407D01*
X17986756Y-23003121D01*
X17996205Y-23034269D01*
X18000000Y-23072806D01*
X18000000Y-24227194D01*
X17996205Y-24265731D01*
X17986756Y-24296879D01*
X17971408Y-24325593D01*
X17950757Y-24350757D01*
X17925593Y-24371408D01*
X17896879Y-24386756D01*
X17865731Y-24396205D01*
X17827194Y-24400000D01*
X14772806Y-24400000D01*
X14734269Y-24396205D01*
X14703121Y-24386756D01*
X14674407Y-24371408D01*
X14649243Y-24350757D01*
X14628592Y-24325593D01*
X14613244Y-24296879D01*
X14603795Y-24265731D01*
X14600000Y-24227194D01*
X14600000Y-23072806D01*
X14603795Y-23034269D01*
X14613244Y-23003121D01*
X14628592Y-22974407D01*
X14649243Y-22949243D01*
X14674407Y-22928592D01*
X14703121Y-22913244D01*
X14734269Y-22903795D01*
X14772806Y-22900000D01*
X17827194Y-22900000D01*
X17865731Y-22903795D01*
X17865731Y-22903795D01*
G37*
G36*
X-2425000Y-23530000D02*
G01*
X-3775000Y-23530000D01*
X-3775000Y-22630000D01*
X-2425000Y-22630000D01*
X-2425000Y-23530000D01*
X-2425000Y-23530000D01*
G37*
G36*
X600000Y-23450000D02*
G01*
X0Y-23450000D01*
X0Y-22750000D01*
X600000Y-22750000D01*
X600000Y-23450000D01*
X600000Y-23450000D01*
G37*
G36*
X2000000Y-23450000D02*
G01*
X1400000Y-23450000D01*
X1400000Y-22750000D01*
X2000000Y-22750000D01*
X2000000Y-23450000D01*
X2000000Y-23450000D01*
G37*
G36*
X-950884Y-22478595D02*
G01*
X-921689Y-22487452D01*
X-894777Y-22501837D01*
X-871192Y-22521192D01*
X-851837Y-22544777D01*
X-837452Y-22571689D01*
X-828595Y-22600884D01*
X-825000Y-22637390D01*
X-825000Y-23187610D01*
X-828595Y-23224116D01*
X-837452Y-23253311D01*
X-851837Y-23280223D01*
X-871192Y-23303808D01*
X-894777Y-23323163D01*
X-921689Y-23337548D01*
X-950884Y-23346405D01*
X-987390Y-23350000D01*
X-1612610Y-23350000D01*
X-1649116Y-23346405D01*
X-1678311Y-23337548D01*
X-1705223Y-23323163D01*
X-1728808Y-23303808D01*
X-1748163Y-23280223D01*
X-1762548Y-23253311D01*
X-1771405Y-23224116D01*
X-1775000Y-23187610D01*
X-1775000Y-22637390D01*
X-1771405Y-22600884D01*
X-1762548Y-22571689D01*
X-1748163Y-22544777D01*
X-1728808Y-22521192D01*
X-1705223Y-22501837D01*
X-1678311Y-22487452D01*
X-1649116Y-22478595D01*
X-1612610Y-22475000D01*
X-987390Y-22475000D01*
X-950884Y-22478595D01*
X-950884Y-22478595D01*
G37*
G36*
X3911463Y-22582226D02*
G01*
X3927299Y-22587030D01*
X3941886Y-22594827D01*
X3954677Y-22605323D01*
X3965173Y-22618114D01*
X3972970Y-22632701D01*
X3977774Y-22648537D01*
X3980000Y-22671140D01*
X3980000Y-23128860D01*
X3977774Y-23151463D01*
X3972970Y-23167299D01*
X3965173Y-23181886D01*
X3954677Y-23194677D01*
X3941886Y-23205173D01*
X3927299Y-23212970D01*
X3911463Y-23217774D01*
X3888860Y-23220000D01*
X3481140Y-23220000D01*
X3458537Y-23217774D01*
X3442701Y-23212970D01*
X3428114Y-23205173D01*
X3415323Y-23194677D01*
X3404827Y-23181886D01*
X3397030Y-23167299D01*
X3392226Y-23151463D01*
X3390000Y-23128860D01*
X3390000Y-22671140D01*
X3392226Y-22648537D01*
X3397030Y-22632701D01*
X3404827Y-22618114D01*
X3415323Y-22605323D01*
X3428114Y-22594827D01*
X3442701Y-22587030D01*
X3458537Y-22582226D01*
X3481140Y-22580000D01*
X3888860Y-22580000D01*
X3911463Y-22582226D01*
X3911463Y-22582226D01*
G37*
G36*
X2941463Y-22582226D02*
G01*
X2957299Y-22587030D01*
X2971886Y-22594827D01*
X2984677Y-22605323D01*
X2995173Y-22618114D01*
X3002970Y-22632701D01*
X3007774Y-22648537D01*
X3010000Y-22671140D01*
X3010000Y-23128860D01*
X3007774Y-23151463D01*
X3002970Y-23167299D01*
X2995173Y-23181886D01*
X2984677Y-23194677D01*
X2971886Y-23205173D01*
X2957299Y-23212970D01*
X2941463Y-23217774D01*
X2918860Y-23220000D01*
X2511140Y-23220000D01*
X2488537Y-23217774D01*
X2472701Y-23212970D01*
X2458114Y-23205173D01*
X2445323Y-23194677D01*
X2434827Y-23181886D01*
X2427030Y-23167299D01*
X2422226Y-23151463D01*
X2420000Y-23128860D01*
X2420000Y-22671140D01*
X2422226Y-22648537D01*
X2427030Y-22632701D01*
X2434827Y-22618114D01*
X2445323Y-22605323D01*
X2458114Y-22594827D01*
X2472701Y-22587030D01*
X2488537Y-22582226D01*
X2511140Y-22580000D01*
X2918860Y-22580000D01*
X2941463Y-22582226D01*
X2941463Y-22582226D01*
G37*
G36*
X-2425000Y-22260000D02*
G01*
X-3775000Y-22260000D01*
X-3775000Y-21360000D01*
X-2425000Y-21360000D01*
X-2425000Y-22260000D01*
X-2425000Y-22260000D01*
G37*
G36*
X2911463Y-21582226D02*
G01*
X2927299Y-21587030D01*
X2941886Y-21594827D01*
X2954677Y-21605323D01*
X2965173Y-21618114D01*
X2972970Y-21632701D01*
X2977774Y-21648537D01*
X2980000Y-21671140D01*
X2980000Y-22128860D01*
X2977774Y-22151463D01*
X2972970Y-22167299D01*
X2965173Y-22181886D01*
X2954677Y-22194677D01*
X2941886Y-22205173D01*
X2927299Y-22212970D01*
X2911463Y-22217774D01*
X2888860Y-22220000D01*
X2481140Y-22220000D01*
X2458537Y-22217774D01*
X2442701Y-22212970D01*
X2428114Y-22205173D01*
X2415323Y-22194677D01*
X2404827Y-22181886D01*
X2397030Y-22167299D01*
X2392226Y-22151463D01*
X2390000Y-22128860D01*
X2390000Y-21671140D01*
X2392226Y-21648537D01*
X2397030Y-21632701D01*
X2404827Y-21618114D01*
X2415323Y-21605323D01*
X2428114Y-21594827D01*
X2442701Y-21587030D01*
X2458537Y-21582226D01*
X2481140Y-21580000D01*
X2888860Y-21580000D01*
X2911463Y-21582226D01*
X2911463Y-21582226D01*
G37*
G36*
X1941463Y-21582226D02*
G01*
X1957299Y-21587030D01*
X1971886Y-21594827D01*
X1984677Y-21605323D01*
X1995173Y-21618114D01*
X2002970Y-21632701D01*
X2007774Y-21648537D01*
X2010000Y-21671140D01*
X2010000Y-22128860D01*
X2007774Y-22151463D01*
X2002970Y-22167299D01*
X1995173Y-22181886D01*
X1984677Y-22194677D01*
X1971886Y-22205173D01*
X1957299Y-22212970D01*
X1941463Y-22217774D01*
X1918860Y-22220000D01*
X1511140Y-22220000D01*
X1488537Y-22217774D01*
X1472701Y-22212970D01*
X1458114Y-22205173D01*
X1445323Y-22194677D01*
X1434827Y-22181886D01*
X1427030Y-22167299D01*
X1422226Y-22151463D01*
X1420000Y-22128860D01*
X1420000Y-21671140D01*
X1422226Y-21648537D01*
X1427030Y-21632701D01*
X1434827Y-21618114D01*
X1445323Y-21605323D01*
X1458114Y-21594827D01*
X1472701Y-21587030D01*
X1488537Y-21582226D01*
X1511140Y-21580000D01*
X1918860Y-21580000D01*
X1941463Y-21582226D01*
X1941463Y-21582226D01*
G37*
G36*
X12150000Y-21950000D02*
G01*
X11250000Y-21950000D01*
X11250000Y-21150000D01*
X12150000Y-21150000D01*
X12150000Y-21950000D01*
X12150000Y-21950000D01*
G37*
G36*
X13151463Y-20635729D02*
G01*
X13167299Y-20640533D01*
X13181886Y-20648330D01*
X13194677Y-20658826D01*
X13205173Y-20671617D01*
X13212970Y-20686204D01*
X13217774Y-20702040D01*
X13220000Y-20724643D01*
X13220000Y-21132363D01*
X13217774Y-21154966D01*
X13212970Y-21170802D01*
X13205173Y-21185389D01*
X13194677Y-21198180D01*
X13181886Y-21208676D01*
X13167299Y-21216473D01*
X13151463Y-21221277D01*
X13128860Y-21223503D01*
X12671140Y-21223503D01*
X12648537Y-21221277D01*
X12632701Y-21216473D01*
X12618114Y-21208676D01*
X12605323Y-21198180D01*
X12594827Y-21185389D01*
X12587030Y-21170802D01*
X12582226Y-21154966D01*
X12580000Y-21132363D01*
X12580000Y-20724643D01*
X12582226Y-20702040D01*
X12587030Y-20686204D01*
X12594827Y-20671617D01*
X12605323Y-20658826D01*
X12618114Y-20648330D01*
X12632701Y-20640533D01*
X12648537Y-20635729D01*
X12671140Y-20633503D01*
X13128860Y-20633503D01*
X13151463Y-20635729D01*
X13151463Y-20635729D01*
G37*
G36*
X10150000Y-21000000D02*
G01*
X9250000Y-21000000D01*
X9250000Y-20200000D01*
X10150000Y-20200000D01*
X10150000Y-21000000D01*
X10150000Y-21000000D01*
G37*
G36*
X-2425000Y-20990000D02*
G01*
X-3775000Y-20990000D01*
X-3775000Y-20090000D01*
X-2425000Y-20090000D01*
X-2425000Y-20990000D01*
X-2425000Y-20990000D01*
G37*
G36*
X8711463Y-20282226D02*
G01*
X8727299Y-20287030D01*
X8741886Y-20294827D01*
X8754677Y-20305323D01*
X8765173Y-20318114D01*
X8772970Y-20332701D01*
X8777774Y-20348537D01*
X8780000Y-20371140D01*
X8780000Y-20828860D01*
X8777774Y-20851463D01*
X8772970Y-20867299D01*
X8765173Y-20881886D01*
X8754677Y-20894677D01*
X8741886Y-20905173D01*
X8727299Y-20912970D01*
X8711463Y-20917774D01*
X8688860Y-20920000D01*
X8281140Y-20920000D01*
X8258537Y-20917774D01*
X8242701Y-20912970D01*
X8228114Y-20905173D01*
X8215323Y-20894677D01*
X8204827Y-20881886D01*
X8197030Y-20867299D01*
X8192226Y-20851463D01*
X8190000Y-20828860D01*
X8190000Y-20371140D01*
X8192226Y-20348537D01*
X8197030Y-20332701D01*
X8204827Y-20318114D01*
X8215323Y-20305323D01*
X8228114Y-20294827D01*
X8242701Y-20287030D01*
X8258537Y-20282226D01*
X8281140Y-20280000D01*
X8688860Y-20280000D01*
X8711463Y-20282226D01*
X8711463Y-20282226D01*
G37*
G36*
X7741463Y-20282226D02*
G01*
X7757299Y-20287030D01*
X7771886Y-20294827D01*
X7784677Y-20305323D01*
X7795173Y-20318114D01*
X7802970Y-20332701D01*
X7807774Y-20348537D01*
X7810000Y-20371140D01*
X7810000Y-20828860D01*
X7807774Y-20851463D01*
X7802970Y-20867299D01*
X7795173Y-20881886D01*
X7784677Y-20894677D01*
X7771886Y-20905173D01*
X7757299Y-20912970D01*
X7741463Y-20917774D01*
X7718860Y-20920000D01*
X7311140Y-20920000D01*
X7288537Y-20917774D01*
X7272701Y-20912970D01*
X7258114Y-20905173D01*
X7245323Y-20894677D01*
X7234827Y-20881886D01*
X7227030Y-20867299D01*
X7222226Y-20851463D01*
X7220000Y-20828860D01*
X7220000Y-20371140D01*
X7222226Y-20348537D01*
X7227030Y-20332701D01*
X7234827Y-20318114D01*
X7245323Y-20305323D01*
X7258114Y-20294827D01*
X7272701Y-20287030D01*
X7288537Y-20282226D01*
X7311140Y-20280000D01*
X7718860Y-20280000D01*
X7741463Y-20282226D01*
X7741463Y-20282226D01*
G37*
G36*
X2911463Y-20282226D02*
G01*
X2927299Y-20287030D01*
X2941886Y-20294827D01*
X2954677Y-20305323D01*
X2965173Y-20318114D01*
X2972970Y-20332701D01*
X2977774Y-20348537D01*
X2980000Y-20371140D01*
X2980000Y-20828860D01*
X2977774Y-20851463D01*
X2972970Y-20867299D01*
X2965173Y-20881886D01*
X2954677Y-20894677D01*
X2941886Y-20905173D01*
X2927299Y-20912970D01*
X2911463Y-20917774D01*
X2888860Y-20920000D01*
X2481140Y-20920000D01*
X2458537Y-20917774D01*
X2442701Y-20912970D01*
X2428114Y-20905173D01*
X2415323Y-20894677D01*
X2404827Y-20881886D01*
X2397030Y-20867299D01*
X2392226Y-20851463D01*
X2390000Y-20828860D01*
X2390000Y-20371140D01*
X2392226Y-20348537D01*
X2397030Y-20332701D01*
X2404827Y-20318114D01*
X2415323Y-20305323D01*
X2428114Y-20294827D01*
X2442701Y-20287030D01*
X2458537Y-20282226D01*
X2481140Y-20280000D01*
X2888860Y-20280000D01*
X2911463Y-20282226D01*
X2911463Y-20282226D01*
G37*
G36*
X1941463Y-20282226D02*
G01*
X1957299Y-20287030D01*
X1971886Y-20294827D01*
X1984677Y-20305323D01*
X1995173Y-20318114D01*
X2002970Y-20332701D01*
X2007774Y-20348537D01*
X2010000Y-20371140D01*
X2010000Y-20828860D01*
X2007774Y-20851463D01*
X2002970Y-20867299D01*
X1995173Y-20881886D01*
X1984677Y-20894677D01*
X1971886Y-20905173D01*
X1957299Y-20912970D01*
X1941463Y-20917774D01*
X1918860Y-20920000D01*
X1511140Y-20920000D01*
X1488537Y-20917774D01*
X1472701Y-20912970D01*
X1458114Y-20905173D01*
X1445323Y-20894677D01*
X1434827Y-20881886D01*
X1427030Y-20867299D01*
X1422226Y-20851463D01*
X1420000Y-20828860D01*
X1420000Y-20371140D01*
X1422226Y-20348537D01*
X1427030Y-20332701D01*
X1434827Y-20318114D01*
X1445323Y-20305323D01*
X1458114Y-20294827D01*
X1472701Y-20287030D01*
X1488537Y-20282226D01*
X1511140Y-20280000D01*
X1918860Y-20280000D01*
X1941463Y-20282226D01*
X1941463Y-20282226D01*
G37*
G36*
X13151463Y-19665729D02*
G01*
X13167299Y-19670533D01*
X13181886Y-19678330D01*
X13194677Y-19688826D01*
X13205173Y-19701617D01*
X13212970Y-19716204D01*
X13217774Y-19732040D01*
X13220000Y-19754643D01*
X13220000Y-20162363D01*
X13217774Y-20184966D01*
X13212970Y-20200802D01*
X13205173Y-20215389D01*
X13194677Y-20228180D01*
X13181886Y-20238676D01*
X13167299Y-20246473D01*
X13151463Y-20251277D01*
X13128860Y-20253503D01*
X12671140Y-20253503D01*
X12648537Y-20251277D01*
X12632701Y-20246473D01*
X12618114Y-20238676D01*
X12605323Y-20228180D01*
X12594827Y-20215389D01*
X12587030Y-20200802D01*
X12582226Y-20184966D01*
X12580000Y-20162363D01*
X12580000Y-19754643D01*
X12582226Y-19732040D01*
X12587030Y-19716204D01*
X12594827Y-19701617D01*
X12605323Y-19688826D01*
X12618114Y-19678330D01*
X12632701Y-19670533D01*
X12648537Y-19665729D01*
X12671140Y-19663503D01*
X13128860Y-19663503D01*
X13151463Y-19665729D01*
X13151463Y-19665729D01*
G37*
G36*
X12150000Y-20050000D02*
G01*
X11250000Y-20050000D01*
X11250000Y-19250000D01*
X12150000Y-19250000D01*
X12150000Y-20050000D01*
X12150000Y-20050000D01*
G37*
G36*
X3896463Y-19282226D02*
G01*
X3912299Y-19287030D01*
X3926886Y-19294827D01*
X3939677Y-19305323D01*
X3950173Y-19318114D01*
X3957970Y-19332701D01*
X3962774Y-19348537D01*
X3965000Y-19371140D01*
X3965000Y-19828860D01*
X3962774Y-19851463D01*
X3957970Y-19867299D01*
X3950173Y-19881886D01*
X3939677Y-19894677D01*
X3926886Y-19905173D01*
X3912299Y-19912970D01*
X3896463Y-19917774D01*
X3873860Y-19920000D01*
X3466140Y-19920000D01*
X3443537Y-19917774D01*
X3427701Y-19912970D01*
X3413114Y-19905173D01*
X3400323Y-19894677D01*
X3389827Y-19881886D01*
X3382030Y-19867299D01*
X3377226Y-19851463D01*
X3375000Y-19828860D01*
X3375000Y-19371140D01*
X3377226Y-19348537D01*
X3382030Y-19332701D01*
X3389827Y-19318114D01*
X3400323Y-19305323D01*
X3413114Y-19294827D01*
X3427701Y-19287030D01*
X3443537Y-19282226D01*
X3466140Y-19280000D01*
X3873860Y-19280000D01*
X3896463Y-19282226D01*
X3896463Y-19282226D01*
G37*
G36*
X2926463Y-19282226D02*
G01*
X2942299Y-19287030D01*
X2956886Y-19294827D01*
X2969677Y-19305323D01*
X2980173Y-19318114D01*
X2987970Y-19332701D01*
X2992774Y-19348537D01*
X2995000Y-19371140D01*
X2995000Y-19828860D01*
X2992774Y-19851463D01*
X2987970Y-19867299D01*
X2980173Y-19881886D01*
X2969677Y-19894677D01*
X2956886Y-19905173D01*
X2942299Y-19912970D01*
X2926463Y-19917774D01*
X2903860Y-19920000D01*
X2496140Y-19920000D01*
X2473537Y-19917774D01*
X2457701Y-19912970D01*
X2443114Y-19905173D01*
X2430323Y-19894677D01*
X2419827Y-19881886D01*
X2412030Y-19867299D01*
X2407226Y-19851463D01*
X2405000Y-19828860D01*
X2405000Y-19371140D01*
X2407226Y-19348537D01*
X2412030Y-19332701D01*
X2419827Y-19318114D01*
X2430323Y-19305323D01*
X2443114Y-19294827D01*
X2457701Y-19287030D01*
X2473537Y-19282226D01*
X2496140Y-19280000D01*
X2903860Y-19280000D01*
X2926463Y-19282226D01*
X2926463Y-19282226D01*
G37*
G36*
X600000Y-19750000D02*
G01*
X0Y-19750000D01*
X0Y-19050000D01*
X600000Y-19050000D01*
X600000Y-19750000D01*
X600000Y-19750000D01*
G37*
G36*
X2000000Y-19750000D02*
G01*
X1400000Y-19750000D01*
X1400000Y-19050000D01*
X2000000Y-19050000D01*
X2000000Y-19750000D01*
X2000000Y-19750000D01*
G37*
G36*
X-2425000Y-19720000D02*
G01*
X-3775000Y-19720000D01*
X-3775000Y-18820000D01*
X-2425000Y-18820000D01*
X-2425000Y-19720000D01*
X-2425000Y-19720000D01*
G37*
G36*
X-2425000Y-18450000D02*
G01*
X-3775000Y-18450000D01*
X-3775000Y-17550000D01*
X-2425000Y-17550000D01*
X-2425000Y-18450000D01*
X-2425000Y-18450000D01*
G37*
G36*
X12150000Y-18350000D02*
G01*
X11250000Y-18350000D01*
X11250000Y-17550000D01*
X12150000Y-17550000D01*
X12150000Y-18350000D01*
X12150000Y-18350000D01*
G37*
G36*
X13151463Y-17192226D02*
G01*
X13167299Y-17197030D01*
X13181886Y-17204827D01*
X13194677Y-17215323D01*
X13205173Y-17228114D01*
X13212970Y-17242701D01*
X13217774Y-17258537D01*
X13220000Y-17281140D01*
X13220000Y-17688860D01*
X13217774Y-17711463D01*
X13212970Y-17727299D01*
X13205173Y-17741886D01*
X13194677Y-17754677D01*
X13181886Y-17765173D01*
X13167299Y-17772970D01*
X13151463Y-17777774D01*
X13128860Y-17780000D01*
X12671140Y-17780000D01*
X12648537Y-17777774D01*
X12632701Y-17772970D01*
X12618114Y-17765173D01*
X12605323Y-17754677D01*
X12594827Y-17741886D01*
X12587030Y-17727299D01*
X12582226Y-17711463D01*
X12580000Y-17688860D01*
X12580000Y-17281140D01*
X12582226Y-17258537D01*
X12587030Y-17242701D01*
X12594827Y-17228114D01*
X12605323Y-17215323D01*
X12618114Y-17204827D01*
X12632701Y-17197030D01*
X12648537Y-17192226D01*
X12671140Y-17190000D01*
X13128860Y-17190000D01*
X13151463Y-17192226D01*
X13151463Y-17192226D01*
G37*
G36*
X10150000Y-17400000D02*
G01*
X9250000Y-17400000D01*
X9250000Y-16600000D01*
X10150000Y-16600000D01*
X10150000Y-17400000D01*
X10150000Y-17400000D01*
G37*
G36*
X8711463Y-16682226D02*
G01*
X8727299Y-16687030D01*
X8741886Y-16694827D01*
X8754677Y-16705323D01*
X8765173Y-16718114D01*
X8772970Y-16732701D01*
X8777774Y-16748537D01*
X8780000Y-16771140D01*
X8780000Y-17228860D01*
X8777774Y-17251463D01*
X8772970Y-17267299D01*
X8765173Y-17281886D01*
X8754677Y-17294677D01*
X8741886Y-17305173D01*
X8727299Y-17312970D01*
X8711463Y-17317774D01*
X8688860Y-17320000D01*
X8281140Y-17320000D01*
X8258537Y-17317774D01*
X8242701Y-17312970D01*
X8228114Y-17305173D01*
X8215323Y-17294677D01*
X8204827Y-17281886D01*
X8197030Y-17267299D01*
X8192226Y-17251463D01*
X8190000Y-17228860D01*
X8190000Y-16771140D01*
X8192226Y-16748537D01*
X8197030Y-16732701D01*
X8204827Y-16718114D01*
X8215323Y-16705323D01*
X8228114Y-16694827D01*
X8242701Y-16687030D01*
X8258537Y-16682226D01*
X8281140Y-16680000D01*
X8688860Y-16680000D01*
X8711463Y-16682226D01*
X8711463Y-16682226D01*
G37*
G36*
X7741463Y-16682226D02*
G01*
X7757299Y-16687030D01*
X7771886Y-16694827D01*
X7784677Y-16705323D01*
X7795173Y-16718114D01*
X7802970Y-16732701D01*
X7807774Y-16748537D01*
X7810000Y-16771140D01*
X7810000Y-17228860D01*
X7807774Y-17251463D01*
X7802970Y-17267299D01*
X7795173Y-17281886D01*
X7784677Y-17294677D01*
X7771886Y-17305173D01*
X7757299Y-17312970D01*
X7741463Y-17317774D01*
X7718860Y-17320000D01*
X7311140Y-17320000D01*
X7288537Y-17317774D01*
X7272701Y-17312970D01*
X7258114Y-17305173D01*
X7245323Y-17294677D01*
X7234827Y-17281886D01*
X7227030Y-17267299D01*
X7222226Y-17251463D01*
X7220000Y-17228860D01*
X7220000Y-16771140D01*
X7222226Y-16748537D01*
X7227030Y-16732701D01*
X7234827Y-16718114D01*
X7245323Y-16705323D01*
X7258114Y-16694827D01*
X7272701Y-16687030D01*
X7288537Y-16682226D01*
X7311140Y-16680000D01*
X7718860Y-16680000D01*
X7741463Y-16682226D01*
X7741463Y-16682226D01*
G37*
G36*
X13151463Y-16222226D02*
G01*
X13167299Y-16227030D01*
X13181886Y-16234827D01*
X13194677Y-16245323D01*
X13205173Y-16258114D01*
X13212970Y-16272701D01*
X13217774Y-16288537D01*
X13220000Y-16311140D01*
X13220000Y-16718860D01*
X13217774Y-16741463D01*
X13212970Y-16757299D01*
X13205173Y-16771886D01*
X13194677Y-16784677D01*
X13181886Y-16795173D01*
X13167299Y-16802970D01*
X13151463Y-16807774D01*
X13128860Y-16810000D01*
X12671140Y-16810000D01*
X12648537Y-16807774D01*
X12632701Y-16802970D01*
X12618114Y-16795173D01*
X12605323Y-16784677D01*
X12594827Y-16771886D01*
X12587030Y-16757299D01*
X12582226Y-16741463D01*
X12580000Y-16718860D01*
X12580000Y-16311140D01*
X12582226Y-16288537D01*
X12587030Y-16272701D01*
X12594827Y-16258114D01*
X12605323Y-16245323D01*
X12618114Y-16234827D01*
X12632701Y-16227030D01*
X12648537Y-16222226D01*
X12671140Y-16220000D01*
X13128860Y-16220000D01*
X13151463Y-16222226D01*
X13151463Y-16222226D01*
G37*
G36*
X3941463Y-15982226D02*
G01*
X3957299Y-15987030D01*
X3971886Y-15994827D01*
X3984677Y-16005323D01*
X3995173Y-16018114D01*
X4002970Y-16032701D01*
X4007774Y-16048537D01*
X4010000Y-16071140D01*
X4010000Y-16528860D01*
X4007774Y-16551463D01*
X4002970Y-16567299D01*
X3995173Y-16581886D01*
X3984677Y-16594677D01*
X3971886Y-16605173D01*
X3957299Y-16612970D01*
X3941463Y-16617774D01*
X3918860Y-16620000D01*
X3511140Y-16620000D01*
X3488537Y-16617774D01*
X3472701Y-16612970D01*
X3458114Y-16605173D01*
X3445323Y-16594677D01*
X3434827Y-16581886D01*
X3427030Y-16567299D01*
X3422226Y-16551463D01*
X3420000Y-16528860D01*
X3420000Y-16071140D01*
X3422226Y-16048537D01*
X3427030Y-16032701D01*
X3434827Y-16018114D01*
X3445323Y-16005323D01*
X3458114Y-15994827D01*
X3472701Y-15987030D01*
X3488537Y-15982226D01*
X3511140Y-15980000D01*
X3918860Y-15980000D01*
X3941463Y-15982226D01*
X3941463Y-15982226D01*
G37*
G36*
X4911463Y-15982226D02*
G01*
X4927299Y-15987030D01*
X4941886Y-15994827D01*
X4954677Y-16005323D01*
X4965173Y-16018114D01*
X4972970Y-16032701D01*
X4977774Y-16048537D01*
X4980000Y-16071140D01*
X4980000Y-16528860D01*
X4977774Y-16551463D01*
X4972970Y-16567299D01*
X4965173Y-16581886D01*
X4954677Y-16594677D01*
X4941886Y-16605173D01*
X4927299Y-16612970D01*
X4911463Y-16617774D01*
X4888860Y-16620000D01*
X4481140Y-16620000D01*
X4458537Y-16617774D01*
X4442701Y-16612970D01*
X4428114Y-16605173D01*
X4415323Y-16594677D01*
X4404827Y-16581886D01*
X4397030Y-16567299D01*
X4392226Y-16551463D01*
X4390000Y-16528860D01*
X4390000Y-16071140D01*
X4392226Y-16048537D01*
X4397030Y-16032701D01*
X4404827Y-16018114D01*
X4415323Y-16005323D01*
X4428114Y-15994827D01*
X4442701Y-15987030D01*
X4458537Y-15982226D01*
X4481140Y-15980000D01*
X4888860Y-15980000D01*
X4911463Y-15982226D01*
X4911463Y-15982226D01*
G37*
G36*
X12150000Y-16450000D02*
G01*
X11250000Y-16450000D01*
X11250000Y-15650000D01*
X12150000Y-15650000D01*
X12150000Y-16450000D01*
X12150000Y-16450000D01*
G37*
G36*
X3600000Y-15550000D02*
G01*
X2800000Y-15550000D01*
X2800000Y-14650000D01*
X3600000Y-14650000D01*
X3600000Y-15550000D01*
X3600000Y-15550000D01*
G37*
G36*
X6151463Y-13577226D02*
G01*
X6167299Y-13582030D01*
X6181886Y-13589827D01*
X6194677Y-13600323D01*
X6205173Y-13613114D01*
X6212970Y-13627701D01*
X6217774Y-13643537D01*
X6220000Y-13666140D01*
X6220000Y-14073860D01*
X6217774Y-14096463D01*
X6212970Y-14112299D01*
X6205173Y-14126886D01*
X6194677Y-14139677D01*
X6181886Y-14150173D01*
X6167299Y-14157970D01*
X6151463Y-14162774D01*
X6128860Y-14165000D01*
X5671140Y-14165000D01*
X5648537Y-14162774D01*
X5632701Y-14157970D01*
X5618114Y-14150173D01*
X5605323Y-14139677D01*
X5594827Y-14126886D01*
X5587030Y-14112299D01*
X5582226Y-14096463D01*
X5580000Y-14073860D01*
X5580000Y-13666140D01*
X5582226Y-13643537D01*
X5587030Y-13627701D01*
X5594827Y-13613114D01*
X5605323Y-13600323D01*
X5618114Y-13589827D01*
X5632701Y-13582030D01*
X5648537Y-13577226D01*
X5671140Y-13575000D01*
X6128860Y-13575000D01*
X6151463Y-13577226D01*
X6151463Y-13577226D01*
G37*
G36*
X4550000Y-13550000D02*
G01*
X3750000Y-13550000D01*
X3750000Y-12650000D01*
X4550000Y-12650000D01*
X4550000Y-13550000D01*
X4550000Y-13550000D01*
G37*
G36*
X2650000Y-13550000D02*
G01*
X1850000Y-13550000D01*
X1850000Y-12650000D01*
X2650000Y-12650000D01*
X2650000Y-13550000D01*
X2650000Y-13550000D01*
G37*
G36*
X256463Y-12582226D02*
G01*
X272299Y-12587030D01*
X286886Y-12594827D01*
X299677Y-12605323D01*
X310173Y-12618114D01*
X317970Y-12632701D01*
X322774Y-12648537D01*
X325000Y-12671140D01*
X325000Y-13128860D01*
X322774Y-13151463D01*
X317970Y-13167299D01*
X310173Y-13181886D01*
X299677Y-13194677D01*
X286886Y-13205173D01*
X272299Y-13212970D01*
X256463Y-13217774D01*
X233860Y-13220000D01*
X-173860Y-13220000D01*
X-196463Y-13217774D01*
X-212299Y-13212970D01*
X-226886Y-13205173D01*
X-239677Y-13194677D01*
X-250173Y-13181886D01*
X-257970Y-13167299D01*
X-262774Y-13151463D01*
X-265000Y-13128860D01*
X-265000Y-12671140D01*
X-262774Y-12648537D01*
X-257970Y-12632701D01*
X-250173Y-12618114D01*
X-239677Y-12605323D01*
X-226886Y-12594827D01*
X-212299Y-12587030D01*
X-196463Y-12582226D01*
X-173860Y-12580000D01*
X233860Y-12580000D01*
X256463Y-12582226D01*
X256463Y-12582226D01*
G37*
G36*
X8241463Y-12582226D02*
G01*
X8257299Y-12587030D01*
X8271886Y-12594827D01*
X8284677Y-12605323D01*
X8295173Y-12618114D01*
X8302970Y-12632701D01*
X8307774Y-12648537D01*
X8310000Y-12671140D01*
X8310000Y-13128860D01*
X8307774Y-13151463D01*
X8302970Y-13167299D01*
X8295173Y-13181886D01*
X8284677Y-13194677D01*
X8271886Y-13205173D01*
X8257299Y-13212970D01*
X8241463Y-13217774D01*
X8218860Y-13220000D01*
X7811140Y-13220000D01*
X7788537Y-13217774D01*
X7772701Y-13212970D01*
X7758114Y-13205173D01*
X7745323Y-13194677D01*
X7734827Y-13181886D01*
X7727030Y-13167299D01*
X7722226Y-13151463D01*
X7720000Y-13128860D01*
X7720000Y-12671140D01*
X7722226Y-12648537D01*
X7727030Y-12632701D01*
X7734827Y-12618114D01*
X7745323Y-12605323D01*
X7758114Y-12594827D01*
X7772701Y-12587030D01*
X7788537Y-12582226D01*
X7811140Y-12580000D01*
X8218860Y-12580000D01*
X8241463Y-12582226D01*
X8241463Y-12582226D01*
G37*
G36*
X9211463Y-12582226D02*
G01*
X9227299Y-12587030D01*
X9241886Y-12594827D01*
X9254677Y-12605323D01*
X9265173Y-12618114D01*
X9272970Y-12632701D01*
X9277774Y-12648537D01*
X9280000Y-12671140D01*
X9280000Y-13128860D01*
X9277774Y-13151463D01*
X9272970Y-13167299D01*
X9265173Y-13181886D01*
X9254677Y-13194677D01*
X9241886Y-13205173D01*
X9227299Y-13212970D01*
X9211463Y-13217774D01*
X9188860Y-13220000D01*
X8781140Y-13220000D01*
X8758537Y-13217774D01*
X8742701Y-13212970D01*
X8728114Y-13205173D01*
X8715323Y-13194677D01*
X8704827Y-13181886D01*
X8697030Y-13167299D01*
X8692226Y-13151463D01*
X8690000Y-13128860D01*
X8690000Y-12671140D01*
X8692226Y-12648537D01*
X8697030Y-12632701D01*
X8704827Y-12618114D01*
X8715323Y-12605323D01*
X8728114Y-12594827D01*
X8742701Y-12587030D01*
X8758537Y-12582226D01*
X8781140Y-12580000D01*
X9188860Y-12580000D01*
X9211463Y-12582226D01*
X9211463Y-12582226D01*
G37*
G36*
X1226463Y-12582226D02*
G01*
X1242299Y-12587030D01*
X1256886Y-12594827D01*
X1269677Y-12605323D01*
X1280173Y-12618114D01*
X1287970Y-12632701D01*
X1292774Y-12648537D01*
X1295000Y-12671140D01*
X1295000Y-13128860D01*
X1292774Y-13151463D01*
X1287970Y-13167299D01*
X1280173Y-13181886D01*
X1269677Y-13194677D01*
X1256886Y-13205173D01*
X1242299Y-13212970D01*
X1226463Y-13217774D01*
X1203860Y-13220000D01*
X796140Y-13220000D01*
X773537Y-13217774D01*
X757701Y-13212970D01*
X743114Y-13205173D01*
X730323Y-13194677D01*
X719827Y-13181886D01*
X712030Y-13167299D01*
X707226Y-13151463D01*
X705000Y-13128860D01*
X705000Y-12671140D01*
X707226Y-12648537D01*
X712030Y-12632701D01*
X719827Y-12618114D01*
X730323Y-12605323D01*
X743114Y-12594827D01*
X757701Y-12587030D01*
X773537Y-12582226D01*
X796140Y-12580000D01*
X1203860Y-12580000D01*
X1226463Y-12582226D01*
X1226463Y-12582226D01*
G37*
G36*
X6151463Y-12607226D02*
G01*
X6167299Y-12612030D01*
X6181886Y-12619827D01*
X6194677Y-12630323D01*
X6205173Y-12643114D01*
X6212970Y-12657701D01*
X6217774Y-12673537D01*
X6220000Y-12696140D01*
X6220000Y-13103860D01*
X6217774Y-13126463D01*
X6212970Y-13142299D01*
X6205173Y-13156886D01*
X6194677Y-13169677D01*
X6181886Y-13180173D01*
X6167299Y-13187970D01*
X6151463Y-13192774D01*
X6128860Y-13195000D01*
X5671140Y-13195000D01*
X5648537Y-13192774D01*
X5632701Y-13187970D01*
X5618114Y-13180173D01*
X5605323Y-13169677D01*
X5594827Y-13156886D01*
X5587030Y-13142299D01*
X5582226Y-13126463D01*
X5580000Y-13103860D01*
X5580000Y-12696140D01*
X5582226Y-12673537D01*
X5587030Y-12657701D01*
X5594827Y-12643114D01*
X5605323Y-12630323D01*
X5618114Y-12619827D01*
X5632701Y-12612030D01*
X5648537Y-12607226D01*
X5671140Y-12605000D01*
X6128860Y-12605000D01*
X6151463Y-12607226D01*
X6151463Y-12607226D01*
G37*
G36*
X3451463Y-11642226D02*
G01*
X3467299Y-11647030D01*
X3481886Y-11654827D01*
X3494677Y-11665323D01*
X3505173Y-11678114D01*
X3512970Y-11692701D01*
X3517774Y-11708537D01*
X3520000Y-11731140D01*
X3520000Y-12138860D01*
X3517774Y-12161463D01*
X3512970Y-12177299D01*
X3505173Y-12191886D01*
X3494677Y-12204677D01*
X3481886Y-12215173D01*
X3467299Y-12222970D01*
X3451463Y-12227774D01*
X3428860Y-12230000D01*
X2971140Y-12230000D01*
X2948537Y-12227774D01*
X2932701Y-12222970D01*
X2918114Y-12215173D01*
X2905323Y-12204677D01*
X2894827Y-12191886D01*
X2887030Y-12177299D01*
X2882226Y-12161463D01*
X2880000Y-12138860D01*
X2880000Y-11731140D01*
X2882226Y-11708537D01*
X2887030Y-11692701D01*
X2894827Y-11678114D01*
X2905323Y-11665323D01*
X2918114Y-11654827D01*
X2932701Y-11647030D01*
X2948537Y-11642226D01*
X2971140Y-11640000D01*
X3428860Y-11640000D01*
X3451463Y-11642226D01*
X3451463Y-11642226D01*
G37*
G36*
X9400000Y-12150000D02*
G01*
X8600000Y-12150000D01*
X8600000Y-11250000D01*
X9400000Y-11250000D01*
X9400000Y-12150000D01*
X9400000Y-12150000D01*
G37*
G36*
X5850000Y-12150000D02*
G01*
X5050000Y-12150000D01*
X5050000Y-11250000D01*
X5850000Y-11250000D01*
X5850000Y-12150000D01*
X5850000Y-12150000D01*
G37*
G36*
X1360660Y-12144974D02*
G01*
X560660Y-12144974D01*
X560660Y-11244974D01*
X1360660Y-11244974D01*
X1360660Y-12144974D01*
X1360660Y-12144974D01*
G37*
G36*
X3451463Y-10672226D02*
G01*
X3467299Y-10677030D01*
X3481886Y-10684827D01*
X3494677Y-10695323D01*
X3505173Y-10708114D01*
X3512970Y-10722701D01*
X3517774Y-10738537D01*
X3520000Y-10761140D01*
X3520000Y-11168860D01*
X3517774Y-11191463D01*
X3512970Y-11207299D01*
X3505173Y-11221886D01*
X3494677Y-11234677D01*
X3481886Y-11245173D01*
X3467299Y-11252970D01*
X3451463Y-11257774D01*
X3428860Y-11260000D01*
X2971140Y-11260000D01*
X2948537Y-11257774D01*
X2932701Y-11252970D01*
X2918114Y-11245173D01*
X2905323Y-11234677D01*
X2894827Y-11221886D01*
X2887030Y-11207299D01*
X2882226Y-11191463D01*
X2880000Y-11168860D01*
X2880000Y-10761140D01*
X2882226Y-10738537D01*
X2887030Y-10722701D01*
X2894827Y-10708114D01*
X2905323Y-10695323D01*
X2918114Y-10684827D01*
X2932701Y-10677030D01*
X2948537Y-10672226D01*
X2971140Y-10670000D01*
X3428860Y-10670000D01*
X3451463Y-10672226D01*
X3451463Y-10672226D01*
G37*
G36*
X-4225000Y-10300000D02*
G01*
X-6825000Y-10300000D01*
X-6825000Y-9200000D01*
X-4225000Y-9200000D01*
X-4225000Y-10300000D01*
X-4225000Y-10300000D01*
G37*
G36*
X-16905000Y-10300000D02*
G01*
X-19505000Y-10300000D01*
X-19505000Y-9200000D01*
X-16905000Y-9200000D01*
X-16905000Y-10300000D01*
X-16905000Y-10300000D01*
G37*
G36*
X8450000Y-10150000D02*
G01*
X7650000Y-10150000D01*
X7650000Y-9250000D01*
X8450000Y-9250000D01*
X8450000Y-10150000D01*
X8450000Y-10150000D01*
G37*
G36*
X10350000Y-10150000D02*
G01*
X9550000Y-10150000D01*
X9550000Y-9250000D01*
X10350000Y-9250000D01*
X10350000Y-10150000D01*
X10350000Y-10150000D01*
G37*
G36*
X6800000Y-10150000D02*
G01*
X6000000Y-10150000D01*
X6000000Y-9250000D01*
X6800000Y-9250000D01*
X6800000Y-10150000D01*
X6800000Y-10150000D01*
G37*
G36*
X4900000Y-10150000D02*
G01*
X4100000Y-10150000D01*
X4100000Y-9250000D01*
X4900000Y-9250000D01*
X4900000Y-10150000D01*
X4900000Y-10150000D01*
G37*
G36*
X410660Y-10144974D02*
G01*
X-389340Y-10144974D01*
X-389340Y-9244974D01*
X410660Y-9244974D01*
X410660Y-10144974D01*
X410660Y-10144974D01*
G37*
G36*
X2310660Y-10144974D02*
G01*
X1510660Y-10144974D01*
X1510660Y-9244974D01*
X2310660Y-9244974D01*
X2310660Y-10144974D01*
X2310660Y-10144974D01*
G37*
G36*
X8741463Y-8182226D02*
G01*
X8757299Y-8187030D01*
X8771886Y-8194827D01*
X8784677Y-8205323D01*
X8795173Y-8218114D01*
X8802970Y-8232701D01*
X8807774Y-8248537D01*
X8810000Y-8271140D01*
X8810000Y-8728860D01*
X8807774Y-8751463D01*
X8802970Y-8767299D01*
X8795173Y-8781886D01*
X8784677Y-8794677D01*
X8771886Y-8805173D01*
X8757299Y-8812970D01*
X8741463Y-8817774D01*
X8718860Y-8820000D01*
X8311140Y-8820000D01*
X8288537Y-8817774D01*
X8272701Y-8812970D01*
X8258114Y-8805173D01*
X8245323Y-8794677D01*
X8234827Y-8781886D01*
X8227030Y-8767299D01*
X8222226Y-8751463D01*
X8220000Y-8728860D01*
X8220000Y-8271140D01*
X8222226Y-8248537D01*
X8227030Y-8232701D01*
X8234827Y-8218114D01*
X8245323Y-8205323D01*
X8258114Y-8194827D01*
X8272701Y-8187030D01*
X8288537Y-8182226D01*
X8311140Y-8180000D01*
X8718860Y-8180000D01*
X8741463Y-8182226D01*
X8741463Y-8182226D01*
G37*
G36*
X702124Y-8182226D02*
G01*
X717960Y-8187030D01*
X732547Y-8194827D01*
X745338Y-8205323D01*
X755834Y-8218114D01*
X763631Y-8232701D01*
X768435Y-8248537D01*
X770661Y-8271140D01*
X770661Y-8728860D01*
X768435Y-8751463D01*
X763631Y-8767299D01*
X755834Y-8781886D01*
X745338Y-8794677D01*
X732547Y-8805173D01*
X717960Y-8812970D01*
X702124Y-8817774D01*
X679521Y-8820000D01*
X271801Y-8820000D01*
X249198Y-8817774D01*
X233362Y-8812970D01*
X218775Y-8805173D01*
X205984Y-8794677D01*
X195488Y-8781886D01*
X187691Y-8767299D01*
X182887Y-8751463D01*
X180661Y-8728860D01*
X180661Y-8271140D01*
X182887Y-8248537D01*
X187691Y-8232701D01*
X195488Y-8218114D01*
X205984Y-8205323D01*
X218775Y-8194827D01*
X233362Y-8187030D01*
X249198Y-8182226D01*
X271801Y-8180000D01*
X679521Y-8180000D01*
X702124Y-8182226D01*
X702124Y-8182226D01*
G37*
G36*
X1672124Y-8182226D02*
G01*
X1687960Y-8187030D01*
X1702547Y-8194827D01*
X1715338Y-8205323D01*
X1725834Y-8218114D01*
X1733631Y-8232701D01*
X1738435Y-8248537D01*
X1740661Y-8271140D01*
X1740661Y-8728860D01*
X1738435Y-8751463D01*
X1733631Y-8767299D01*
X1725834Y-8781886D01*
X1715338Y-8794677D01*
X1702547Y-8805173D01*
X1687960Y-8812970D01*
X1672124Y-8817774D01*
X1649521Y-8820000D01*
X1241801Y-8820000D01*
X1219198Y-8817774D01*
X1203362Y-8812970D01*
X1188775Y-8805173D01*
X1175984Y-8794677D01*
X1165488Y-8781886D01*
X1157691Y-8767299D01*
X1152887Y-8751463D01*
X1150661Y-8728860D01*
X1150661Y-8271140D01*
X1152887Y-8248537D01*
X1157691Y-8232701D01*
X1165488Y-8218114D01*
X1175984Y-8205323D01*
X1188775Y-8194827D01*
X1203362Y-8187030D01*
X1219198Y-8182226D01*
X1241801Y-8180000D01*
X1649521Y-8180000D01*
X1672124Y-8182226D01*
X1672124Y-8182226D01*
G37*
G36*
X9711463Y-8182226D02*
G01*
X9727299Y-8187030D01*
X9741886Y-8194827D01*
X9754677Y-8205323D01*
X9765173Y-8218114D01*
X9772970Y-8232701D01*
X9777774Y-8248537D01*
X9780000Y-8271140D01*
X9780000Y-8728860D01*
X9777774Y-8751463D01*
X9772970Y-8767299D01*
X9765173Y-8781886D01*
X9754677Y-8794677D01*
X9741886Y-8805173D01*
X9727299Y-8812970D01*
X9711463Y-8817774D01*
X9688860Y-8820000D01*
X9281140Y-8820000D01*
X9258537Y-8817774D01*
X9242701Y-8812970D01*
X9228114Y-8805173D01*
X9215323Y-8794677D01*
X9204827Y-8781886D01*
X9197030Y-8767299D01*
X9192226Y-8751463D01*
X9190000Y-8728860D01*
X9190000Y-8271140D01*
X9192226Y-8248537D01*
X9197030Y-8232701D01*
X9204827Y-8218114D01*
X9215323Y-8205323D01*
X9228114Y-8194827D01*
X9242701Y-8187030D01*
X9258537Y-8182226D01*
X9281140Y-8180000D01*
X9688860Y-8180000D01*
X9711463Y-8182226D01*
X9711463Y-8182226D01*
G37*
G36*
X6011463Y-8082226D02*
G01*
X6027299Y-8087030D01*
X6041886Y-8094827D01*
X6054677Y-8105323D01*
X6065173Y-8118114D01*
X6072970Y-8132701D01*
X6077774Y-8148537D01*
X6080000Y-8171140D01*
X6080000Y-8628860D01*
X6077774Y-8651463D01*
X6072970Y-8667299D01*
X6065173Y-8681886D01*
X6054677Y-8694677D01*
X6041886Y-8705173D01*
X6027299Y-8712970D01*
X6011463Y-8717774D01*
X5988860Y-8720000D01*
X5581140Y-8720000D01*
X5558537Y-8717774D01*
X5542701Y-8712970D01*
X5528114Y-8705173D01*
X5515323Y-8694677D01*
X5504827Y-8681886D01*
X5497030Y-8667299D01*
X5492226Y-8651463D01*
X5490000Y-8628860D01*
X5490000Y-8171140D01*
X5492226Y-8148537D01*
X5497030Y-8132701D01*
X5504827Y-8118114D01*
X5515323Y-8105323D01*
X5528114Y-8094827D01*
X5542701Y-8087030D01*
X5558537Y-8082226D01*
X5581140Y-8080000D01*
X5988860Y-8080000D01*
X6011463Y-8082226D01*
X6011463Y-8082226D01*
G37*
G36*
X5041463Y-8082226D02*
G01*
X5057299Y-8087030D01*
X5071886Y-8094827D01*
X5084677Y-8105323D01*
X5095173Y-8118114D01*
X5102970Y-8132701D01*
X5107774Y-8148537D01*
X5110000Y-8171140D01*
X5110000Y-8628860D01*
X5107774Y-8651463D01*
X5102970Y-8667299D01*
X5095173Y-8681886D01*
X5084677Y-8694677D01*
X5071886Y-8705173D01*
X5057299Y-8712970D01*
X5041463Y-8717774D01*
X5018860Y-8720000D01*
X4611140Y-8720000D01*
X4588537Y-8717774D01*
X4572701Y-8712970D01*
X4558114Y-8705173D01*
X4545323Y-8694677D01*
X4534827Y-8681886D01*
X4527030Y-8667299D01*
X4522226Y-8651463D01*
X4520000Y-8628860D01*
X4520000Y-8171140D01*
X4522226Y-8148537D01*
X4527030Y-8132701D01*
X4534827Y-8118114D01*
X4545323Y-8105323D01*
X4558114Y-8094827D01*
X4572701Y-8087030D01*
X4588537Y-8082226D01*
X4611140Y-8080000D01*
X5018860Y-8080000D01*
X5041463Y-8082226D01*
X5041463Y-8082226D01*
G37*
G36*
X5968579Y-6670000D02*
G01*
X5168579Y-6670000D01*
X5168579Y-5770000D01*
X5968579Y-5770000D01*
X5968579Y-6670000D01*
X5968579Y-6670000D01*
G37*
G36*
X3408579Y-6200000D02*
G01*
X2708579Y-6200000D01*
X2708579Y-5600000D01*
X3408579Y-5600000D01*
X3408579Y-6200000D01*
X3408579Y-6200000D01*
G37*
G36*
X3408579Y-4800000D02*
G01*
X2708579Y-4800000D01*
X2708579Y-4200000D01*
X3408579Y-4200000D01*
X3408579Y-4800000D01*
X3408579Y-4800000D01*
G37*
G36*
X6918579Y-4670000D02*
G01*
X6118579Y-4670000D01*
X6118579Y-3770000D01*
X6918579Y-3770000D01*
X6918579Y-4670000D01*
X6918579Y-4670000D01*
G37*
G36*
X5018579Y-4670000D02*
G01*
X4218579Y-4670000D01*
X4218579Y-3770000D01*
X5018579Y-3770000D01*
X5018579Y-4670000D01*
X5018579Y-4670000D01*
G37*
G36*
X3976627Y-432299D02*
G01*
X4056742Y-456602D01*
X4136855Y-480903D01*
X4136857Y-480904D01*
X4284518Y-559831D01*
X4413949Y-666051D01*
X4520169Y-795482D01*
X4599096Y-943143D01*
X4647701Y-1103373D01*
X4664112Y-1270000D01*
X4647701Y-1436627D01*
X4599096Y-1596857D01*
X4520169Y-1744518D01*
X4413949Y-1873949D01*
X4284518Y-1980169D01*
X4136857Y-2059096D01*
X4136855Y-2059097D01*
X4056742Y-2083398D01*
X3976627Y-2107701D01*
X3851752Y-2120000D01*
X3768248Y-2120000D01*
X3643373Y-2107701D01*
X3563258Y-2083398D01*
X3483145Y-2059097D01*
X3483143Y-2059096D01*
X3335482Y-1980169D01*
X3206051Y-1873949D01*
X3099831Y-1744518D01*
X3020904Y-1596857D01*
X2972299Y-1436627D01*
X2955888Y-1270000D01*
X2972299Y-1103373D01*
X3020904Y-943143D01*
X3099831Y-795482D01*
X3206051Y-666051D01*
X3335482Y-559831D01*
X3483143Y-480904D01*
X3483145Y-480903D01*
X3563258Y-456602D01*
X3643373Y-432299D01*
X3768248Y-420000D01*
X3851752Y-420000D01*
X3976627Y-432299D01*
X3976627Y-432299D01*
G37*
G36*
X9056627Y-432299D02*
G01*
X9136742Y-456602D01*
X9216855Y-480903D01*
X9216857Y-480904D01*
X9364518Y-559831D01*
X9493949Y-666051D01*
X9600169Y-795482D01*
X9679096Y-943143D01*
X9727701Y-1103373D01*
X9744112Y-1270000D01*
X9727701Y-1436627D01*
X9679096Y-1596857D01*
X9600169Y-1744518D01*
X9493949Y-1873949D01*
X9364518Y-1980169D01*
X9216857Y-2059096D01*
X9216855Y-2059097D01*
X9136742Y-2083398D01*
X9056627Y-2107701D01*
X8931752Y-2120000D01*
X8848248Y-2120000D01*
X8723373Y-2107701D01*
X8643258Y-2083398D01*
X8563145Y-2059097D01*
X8563143Y-2059096D01*
X8415482Y-1980169D01*
X8286051Y-1873949D01*
X8179831Y-1744518D01*
X8100904Y-1596857D01*
X8052299Y-1436627D01*
X8035888Y-1270000D01*
X8052299Y-1103373D01*
X8100904Y-943143D01*
X8179831Y-795482D01*
X8286051Y-666051D01*
X8415482Y-559831D01*
X8563143Y-480904D01*
X8563145Y-480903D01*
X8643258Y-456602D01*
X8723373Y-432299D01*
X8848248Y-420000D01*
X8931752Y-420000D01*
X9056627Y-432299D01*
X9056627Y-432299D01*
G37*
G36*
X6516627Y-432299D02*
G01*
X6596742Y-456602D01*
X6676855Y-480903D01*
X6676857Y-480904D01*
X6824518Y-559831D01*
X6953949Y-666051D01*
X7060169Y-795482D01*
X7139096Y-943143D01*
X7187701Y-1103373D01*
X7204112Y-1270000D01*
X7187701Y-1436627D01*
X7139096Y-1596857D01*
X7060169Y-1744518D01*
X6953949Y-1873949D01*
X6824518Y-1980169D01*
X6676857Y-2059096D01*
X6676855Y-2059097D01*
X6596742Y-2083398D01*
X6516627Y-2107701D01*
X6391752Y-2120000D01*
X6308248Y-2120000D01*
X6183373Y-2107701D01*
X6103258Y-2083398D01*
X6023145Y-2059097D01*
X6023143Y-2059096D01*
X5875482Y-1980169D01*
X5746051Y-1873949D01*
X5639831Y-1744518D01*
X5560904Y-1596857D01*
X5512299Y-1436627D01*
X5495888Y-1270000D01*
X5512299Y-1103373D01*
X5560904Y-943143D01*
X5639831Y-795482D01*
X5746051Y-666051D01*
X5875482Y-559831D01*
X6023143Y-480904D01*
X6023145Y-480903D01*
X6103258Y-456602D01*
X6183373Y-432299D01*
X6308248Y-420000D01*
X6391752Y-420000D01*
X6516627Y-432299D01*
X6516627Y-432299D01*
G37*
G36*
X1436627Y-432299D02*
G01*
X1516742Y-456602D01*
X1596855Y-480903D01*
X1596857Y-480904D01*
X1744518Y-559831D01*
X1873949Y-666051D01*
X1980169Y-795482D01*
X2059096Y-943143D01*
X2107701Y-1103373D01*
X2124112Y-1270000D01*
X2107701Y-1436627D01*
X2059096Y-1596857D01*
X1980169Y-1744518D01*
X1873949Y-1873949D01*
X1744518Y-1980169D01*
X1596857Y-2059096D01*
X1596855Y-2059097D01*
X1516742Y-2083398D01*
X1436627Y-2107701D01*
X1311752Y-2120000D01*
X1228248Y-2120000D01*
X1103373Y-2107701D01*
X1023258Y-2083398D01*
X943145Y-2059097D01*
X943143Y-2059096D01*
X795482Y-1980169D01*
X666051Y-1873949D01*
X559831Y-1744518D01*
X480904Y-1596857D01*
X432299Y-1436627D01*
X415888Y-1270000D01*
X432299Y-1103373D01*
X480904Y-943143D01*
X559831Y-795482D01*
X666051Y-666051D01*
X795482Y-559831D01*
X943143Y-480904D01*
X943145Y-480903D01*
X1023258Y-456602D01*
X1103373Y-432299D01*
X1228248Y-420000D01*
X1311752Y-420000D01*
X1436627Y-432299D01*
X1436627Y-432299D01*
G37*
G36*
X-3643373Y-432299D02*
G01*
X-3563258Y-456602D01*
X-3483145Y-480903D01*
X-3483143Y-480904D01*
X-3335482Y-559831D01*
X-3206051Y-666051D01*
X-3099831Y-795482D01*
X-3020904Y-943143D01*
X-2972299Y-1103373D01*
X-2955888Y-1270000D01*
X-2972299Y-1436627D01*
X-3020904Y-1596857D01*
X-3099831Y-1744518D01*
X-3206051Y-1873949D01*
X-3335482Y-1980169D01*
X-3483143Y-2059096D01*
X-3483145Y-2059097D01*
X-3563258Y-2083398D01*
X-3643373Y-2107701D01*
X-3768248Y-2120000D01*
X-3851752Y-2120000D01*
X-3976627Y-2107701D01*
X-4056742Y-2083398D01*
X-4136855Y-2059097D01*
X-4136857Y-2059096D01*
X-4284518Y-1980169D01*
X-4413949Y-1873949D01*
X-4520169Y-1744518D01*
X-4599096Y-1596857D01*
X-4647701Y-1436627D01*
X-4664112Y-1270000D01*
X-4647701Y-1103373D01*
X-4599096Y-943143D01*
X-4520169Y-795482D01*
X-4413949Y-666051D01*
X-4284518Y-559831D01*
X-4136857Y-480904D01*
X-4136855Y-480903D01*
X-4056742Y-456602D01*
X-3976627Y-432299D01*
X-3851752Y-420000D01*
X-3768248Y-420000D01*
X-3643373Y-432299D01*
X-3643373Y-432299D01*
G37*
G36*
X-6183373Y-432299D02*
G01*
X-6103258Y-456602D01*
X-6023145Y-480903D01*
X-6023143Y-480904D01*
X-5875482Y-559831D01*
X-5746051Y-666051D01*
X-5639831Y-795482D01*
X-5560904Y-943143D01*
X-5512299Y-1103373D01*
X-5495888Y-1270000D01*
X-5512299Y-1436627D01*
X-5560904Y-1596857D01*
X-5639831Y-1744518D01*
X-5746051Y-1873949D01*
X-5875482Y-1980169D01*
X-6023143Y-2059096D01*
X-6023145Y-2059097D01*
X-6103258Y-2083398D01*
X-6183373Y-2107701D01*
X-6308248Y-2120000D01*
X-6391752Y-2120000D01*
X-6516627Y-2107701D01*
X-6596742Y-2083398D01*
X-6676855Y-2059097D01*
X-6676857Y-2059096D01*
X-6824518Y-1980169D01*
X-6953949Y-1873949D01*
X-7060169Y-1744518D01*
X-7139096Y-1596857D01*
X-7187701Y-1436627D01*
X-7204112Y-1270000D01*
X-7187701Y-1103373D01*
X-7139096Y-943143D01*
X-7060169Y-795482D01*
X-6953949Y-666051D01*
X-6824518Y-559831D01*
X-6676857Y-480904D01*
X-6676855Y-480903D01*
X-6596742Y-456602D01*
X-6516627Y-432299D01*
X-6391752Y-420000D01*
X-6308248Y-420000D01*
X-6183373Y-432299D01*
X-6183373Y-432299D01*
G37*
G36*
X-8040000Y-2120000D02*
G01*
X-9740000Y-2120000D01*
X-9740000Y-420000D01*
X-8040000Y-420000D01*
X-8040000Y-2120000D01*
X-8040000Y-2120000D01*
G37*
G36*
X-1103373Y-432299D02*
G01*
X-1023258Y-456602D01*
X-943145Y-480903D01*
X-943143Y-480904D01*
X-795482Y-559831D01*
X-666051Y-666051D01*
X-559831Y-795482D01*
X-480904Y-943143D01*
X-432299Y-1103373D01*
X-415888Y-1270000D01*
X-432299Y-1436627D01*
X-480904Y-1596857D01*
X-559831Y-1744518D01*
X-666051Y-1873949D01*
X-795482Y-1980169D01*
X-943143Y-2059096D01*
X-943145Y-2059097D01*
X-1023258Y-2083398D01*
X-1103373Y-2107701D01*
X-1228248Y-2120000D01*
X-1311752Y-2120000D01*
X-1436627Y-2107701D01*
X-1516742Y-2083398D01*
X-1596855Y-2059097D01*
X-1596857Y-2059096D01*
X-1744518Y-1980169D01*
X-1873949Y-1873949D01*
X-1980169Y-1744518D01*
X-2059096Y-1596857D01*
X-2107701Y-1436627D01*
X-2124112Y-1270000D01*
X-2107701Y-1103373D01*
X-2059096Y-943143D01*
X-1980169Y-795482D01*
X-1873949Y-666051D01*
X-1744518Y-559831D01*
X-1596857Y-480904D01*
X-1596855Y-480903D01*
X-1516742Y-456602D01*
X-1436627Y-432299D01*
X-1311752Y-420000D01*
X-1228248Y-420000D01*
X-1103373Y-432299D01*
X-1103373Y-432299D01*
G37*
G36*
X-14800000Y-2100000D02*
G01*
X-16400000Y-2100000D01*
X-16400000Y-500000D01*
X-14800000Y-500000D01*
X-14800000Y-2100000D01*
X-14800000Y-2100000D01*
G37*
G36*
X-11048537Y807774D02*
G01*
X-11032701Y802970D01*
X-11018114Y795173D01*
X-11005323Y784677D01*
X-10994827Y771886D01*
X-10987030Y757299D01*
X-10982226Y741463D01*
X-10980000Y718860D01*
X-10980000Y311140D01*
X-10982226Y288537D01*
X-10987030Y272701D01*
X-10994827Y258114D01*
X-11005323Y245323D01*
X-11018114Y234827D01*
X-11032701Y227030D01*
X-11048537Y222226D01*
X-11071140Y220000D01*
X-11528860Y220000D01*
X-11551463Y222226D01*
X-11567299Y227030D01*
X-11581886Y234827D01*
X-11594677Y245323D01*
X-11605173Y258114D01*
X-11612970Y272701D01*
X-11617774Y288537D01*
X-11620000Y311140D01*
X-11620000Y718860D01*
X-11617774Y741463D01*
X-11612970Y757299D01*
X-11605173Y771886D01*
X-11594677Y784677D01*
X-11581886Y795173D01*
X-11567299Y802970D01*
X-11551463Y807774D01*
X-11528860Y810000D01*
X-11071140Y810000D01*
X-11048537Y807774D01*
X-11048537Y807774D01*
G37*
G36*
X-12048537Y807774D02*
G01*
X-12032701Y802970D01*
X-12018114Y795173D01*
X-12005323Y784677D01*
X-11994827Y771886D01*
X-11987030Y757299D01*
X-11982226Y741463D01*
X-11980000Y718860D01*
X-11980000Y311140D01*
X-11982226Y288537D01*
X-11987030Y272701D01*
X-11994827Y258114D01*
X-12005323Y245323D01*
X-12018114Y234827D01*
X-12032701Y227030D01*
X-12048537Y222226D01*
X-12071140Y220000D01*
X-12528860Y220000D01*
X-12551463Y222226D01*
X-12567299Y227030D01*
X-12581886Y234827D01*
X-12594677Y245323D01*
X-12605173Y258114D01*
X-12612970Y272701D01*
X-12617774Y288537D01*
X-12620000Y311140D01*
X-12620000Y718860D01*
X-12617774Y741463D01*
X-12612970Y757299D01*
X-12605173Y771886D01*
X-12594677Y784677D01*
X-12581886Y795173D01*
X-12567299Y802970D01*
X-12551463Y807774D01*
X-12528860Y810000D01*
X-12071140Y810000D01*
X-12048537Y807774D01*
X-12048537Y807774D01*
G37*
G36*
X-15366649Y1969257D02*
G01*
X-15221059Y1908952D01*
X-15090030Y1821401D01*
X-14978599Y1709970D01*
X-14891048Y1578941D01*
X-14830743Y1433351D01*
X-14800000Y1278794D01*
X-14800000Y1121206D01*
X-14830743Y966649D01*
X-14891048Y821059D01*
X-14978599Y690030D01*
X-15090030Y578599D01*
X-15221059Y491048D01*
X-15366649Y430743D01*
X-15521206Y400000D01*
X-15678794Y400000D01*
X-15833351Y430743D01*
X-15978941Y491048D01*
X-16109970Y578599D01*
X-16221401Y690030D01*
X-16308952Y821059D01*
X-16369257Y966649D01*
X-16400000Y1121206D01*
X-16400000Y1278794D01*
X-16369257Y1433351D01*
X-16308952Y1578941D01*
X-16221401Y1709970D01*
X-16109970Y1821401D01*
X-15978941Y1908952D01*
X-15833351Y1969257D01*
X-15678794Y2000000D01*
X-15521206Y2000000D01*
X-15366649Y1969257D01*
X-15366649Y1969257D01*
G37*
G36*
X6516627Y2107701D02*
G01*
X6596742Y2083398D01*
X6676855Y2059097D01*
X6676857Y2059096D01*
X6824518Y1980169D01*
X6953949Y1873949D01*
X7060169Y1744518D01*
X7076242Y1714447D01*
X7139097Y1596855D01*
X7144531Y1578941D01*
X7187701Y1436627D01*
X7204112Y1270000D01*
X7187701Y1103373D01*
X7187700Y1103371D01*
X7146227Y966649D01*
X7139096Y943143D01*
X7060169Y795482D01*
X6953949Y666051D01*
X6824518Y559831D01*
X6695837Y491049D01*
X6676855Y480903D01*
X6596742Y456601D01*
X6516627Y432299D01*
X6391752Y420000D01*
X6308248Y420000D01*
X6183373Y432299D01*
X6103258Y456602D01*
X6023145Y480903D01*
X6004163Y491049D01*
X5875482Y559831D01*
X5746051Y666051D01*
X5639831Y795482D01*
X5560904Y943143D01*
X5553774Y966649D01*
X5512300Y1103371D01*
X5512299Y1103373D01*
X5495888Y1270000D01*
X5512299Y1436627D01*
X5555469Y1578941D01*
X5560903Y1596855D01*
X5623758Y1714447D01*
X5639831Y1744518D01*
X5746051Y1873949D01*
X5875482Y1980169D01*
X6023143Y2059096D01*
X6023145Y2059097D01*
X6103258Y2083398D01*
X6183373Y2107701D01*
X6308248Y2120000D01*
X6391752Y2120000D01*
X6516627Y2107701D01*
X6516627Y2107701D01*
G37*
G36*
X9056627Y2107701D02*
G01*
X9136742Y2083398D01*
X9216855Y2059097D01*
X9216857Y2059096D01*
X9364518Y1980169D01*
X9493949Y1873949D01*
X9600169Y1744518D01*
X9616242Y1714447D01*
X9679097Y1596855D01*
X9684531Y1578941D01*
X9727701Y1436627D01*
X9744112Y1270000D01*
X9727701Y1103373D01*
X9727700Y1103371D01*
X9686227Y966649D01*
X9679096Y943143D01*
X9600169Y795482D01*
X9493949Y666051D01*
X9364518Y559831D01*
X9235837Y491049D01*
X9216855Y480903D01*
X9136742Y456601D01*
X9056627Y432299D01*
X8931752Y420000D01*
X8848248Y420000D01*
X8723373Y432299D01*
X8643258Y456602D01*
X8563145Y480903D01*
X8544163Y491049D01*
X8415482Y559831D01*
X8286051Y666051D01*
X8179831Y795482D01*
X8100904Y943143D01*
X8093774Y966649D01*
X8052300Y1103371D01*
X8052299Y1103373D01*
X8035888Y1270000D01*
X8052299Y1436627D01*
X8095469Y1578941D01*
X8100903Y1596855D01*
X8163758Y1714447D01*
X8179831Y1744518D01*
X8286051Y1873949D01*
X8415482Y1980169D01*
X8563143Y2059096D01*
X8563145Y2059097D01*
X8643258Y2083398D01*
X8723373Y2107701D01*
X8848248Y2120000D01*
X8931752Y2120000D01*
X9056627Y2107701D01*
X9056627Y2107701D01*
G37*
G36*
X3976627Y2107701D02*
G01*
X4056742Y2083398D01*
X4136855Y2059097D01*
X4136857Y2059096D01*
X4284518Y1980169D01*
X4413949Y1873949D01*
X4520169Y1744518D01*
X4536242Y1714447D01*
X4599097Y1596855D01*
X4604531Y1578941D01*
X4647701Y1436627D01*
X4664112Y1270000D01*
X4647701Y1103373D01*
X4647700Y1103371D01*
X4606227Y966649D01*
X4599096Y943143D01*
X4520169Y795482D01*
X4413949Y666051D01*
X4284518Y559831D01*
X4155837Y491049D01*
X4136855Y480903D01*
X4056742Y456601D01*
X3976627Y432299D01*
X3851752Y420000D01*
X3768248Y420000D01*
X3643373Y432299D01*
X3563258Y456602D01*
X3483145Y480903D01*
X3464163Y491049D01*
X3335482Y559831D01*
X3206051Y666051D01*
X3099831Y795482D01*
X3020904Y943143D01*
X3013774Y966649D01*
X2972300Y1103371D01*
X2972299Y1103373D01*
X2955888Y1270000D01*
X2972299Y1436627D01*
X3015469Y1578941D01*
X3020903Y1596855D01*
X3083758Y1714447D01*
X3099831Y1744518D01*
X3206051Y1873949D01*
X3335482Y1980169D01*
X3483143Y2059096D01*
X3483145Y2059097D01*
X3563258Y2083398D01*
X3643373Y2107701D01*
X3768248Y2120000D01*
X3851752Y2120000D01*
X3976627Y2107701D01*
X3976627Y2107701D01*
G37*
G36*
X1436627Y2107701D02*
G01*
X1516742Y2083398D01*
X1596855Y2059097D01*
X1596857Y2059096D01*
X1744518Y1980169D01*
X1873949Y1873949D01*
X1980169Y1744518D01*
X1996242Y1714447D01*
X2059097Y1596855D01*
X2064531Y1578941D01*
X2107701Y1436627D01*
X2124112Y1270000D01*
X2107701Y1103373D01*
X2107700Y1103371D01*
X2066227Y966649D01*
X2059096Y943143D01*
X1980169Y795482D01*
X1873949Y666051D01*
X1744518Y559831D01*
X1615837Y491049D01*
X1596855Y480903D01*
X1516742Y456601D01*
X1436627Y432299D01*
X1311752Y420000D01*
X1228248Y420000D01*
X1103373Y432299D01*
X1023258Y456602D01*
X943145Y480903D01*
X924163Y491049D01*
X795482Y559831D01*
X666051Y666051D01*
X559831Y795482D01*
X480904Y943143D01*
X473774Y966649D01*
X432300Y1103371D01*
X432299Y1103373D01*
X415888Y1270000D01*
X432299Y1436627D01*
X475469Y1578941D01*
X480903Y1596855D01*
X543758Y1714447D01*
X559831Y1744518D01*
X666051Y1873949D01*
X795482Y1980169D01*
X943143Y2059096D01*
X943145Y2059097D01*
X1023258Y2083398D01*
X1103373Y2107701D01*
X1228248Y2120000D01*
X1311752Y2120000D01*
X1436627Y2107701D01*
X1436627Y2107701D01*
G37*
G36*
X-1103373Y2107701D02*
G01*
X-1023258Y2083398D01*
X-943145Y2059097D01*
X-943143Y2059096D01*
X-795482Y1980169D01*
X-666051Y1873949D01*
X-559831Y1744518D01*
X-543758Y1714447D01*
X-480903Y1596855D01*
X-475469Y1578941D01*
X-432299Y1436627D01*
X-415888Y1270000D01*
X-432299Y1103373D01*
X-432300Y1103371D01*
X-473773Y966649D01*
X-480904Y943143D01*
X-559831Y795482D01*
X-666051Y666051D01*
X-795482Y559831D01*
X-924163Y491049D01*
X-943145Y480903D01*
X-1023258Y456601D01*
X-1103373Y432299D01*
X-1228248Y420000D01*
X-1311752Y420000D01*
X-1436627Y432299D01*
X-1516742Y456602D01*
X-1596855Y480903D01*
X-1615837Y491049D01*
X-1744518Y559831D01*
X-1873949Y666051D01*
X-1980169Y795482D01*
X-2059096Y943143D01*
X-2066226Y966649D01*
X-2107700Y1103371D01*
X-2107701Y1103373D01*
X-2124112Y1270000D01*
X-2107701Y1436627D01*
X-2064531Y1578941D01*
X-2059097Y1596855D01*
X-1996242Y1714447D01*
X-1980169Y1744518D01*
X-1873949Y1873949D01*
X-1744518Y1980169D01*
X-1596857Y2059096D01*
X-1596855Y2059097D01*
X-1516742Y2083398D01*
X-1436627Y2107701D01*
X-1311752Y2120000D01*
X-1228248Y2120000D01*
X-1103373Y2107701D01*
X-1103373Y2107701D01*
G37*
G36*
X-3643373Y2107701D02*
G01*
X-3563258Y2083398D01*
X-3483145Y2059097D01*
X-3483143Y2059096D01*
X-3335482Y1980169D01*
X-3206051Y1873949D01*
X-3099831Y1744518D01*
X-3083758Y1714447D01*
X-3020903Y1596855D01*
X-3015469Y1578941D01*
X-2972299Y1436627D01*
X-2955888Y1270000D01*
X-2972299Y1103373D01*
X-2972300Y1103371D01*
X-3013773Y966649D01*
X-3020904Y943143D01*
X-3099831Y795482D01*
X-3206051Y666051D01*
X-3335482Y559831D01*
X-3464163Y491049D01*
X-3483145Y480903D01*
X-3563258Y456601D01*
X-3643373Y432299D01*
X-3768248Y420000D01*
X-3851752Y420000D01*
X-3976627Y432299D01*
X-4056742Y456602D01*
X-4136855Y480903D01*
X-4155837Y491049D01*
X-4284518Y559831D01*
X-4413949Y666051D01*
X-4520169Y795482D01*
X-4599096Y943143D01*
X-4606226Y966649D01*
X-4647700Y1103371D01*
X-4647701Y1103373D01*
X-4664112Y1270000D01*
X-4647701Y1436627D01*
X-4604531Y1578941D01*
X-4599097Y1596855D01*
X-4536242Y1714447D01*
X-4520169Y1744518D01*
X-4413949Y1873949D01*
X-4284518Y1980169D01*
X-4136857Y2059096D01*
X-4136855Y2059097D01*
X-4056742Y2083398D01*
X-3976627Y2107701D01*
X-3851752Y2120000D01*
X-3768248Y2120000D01*
X-3643373Y2107701D01*
X-3643373Y2107701D01*
G37*
G36*
X-8723373Y2107701D02*
G01*
X-8643258Y2083398D01*
X-8563145Y2059097D01*
X-8563143Y2059096D01*
X-8415482Y1980169D01*
X-8286051Y1873949D01*
X-8179831Y1744518D01*
X-8163758Y1714447D01*
X-8100903Y1596855D01*
X-8095469Y1578941D01*
X-8052299Y1436627D01*
X-8035888Y1270000D01*
X-8052299Y1103373D01*
X-8052300Y1103371D01*
X-8093773Y966649D01*
X-8100904Y943143D01*
X-8179831Y795482D01*
X-8286051Y666051D01*
X-8415482Y559831D01*
X-8544163Y491049D01*
X-8563145Y480903D01*
X-8643258Y456601D01*
X-8723373Y432299D01*
X-8848248Y420000D01*
X-8931752Y420000D01*
X-9056627Y432299D01*
X-9136742Y456602D01*
X-9216855Y480903D01*
X-9235837Y491049D01*
X-9364518Y559831D01*
X-9493949Y666051D01*
X-9600169Y795482D01*
X-9679096Y943143D01*
X-9686226Y966649D01*
X-9727700Y1103371D01*
X-9727701Y1103373D01*
X-9744112Y1270000D01*
X-9727701Y1436627D01*
X-9684531Y1578941D01*
X-9679097Y1596855D01*
X-9616242Y1714447D01*
X-9600169Y1744518D01*
X-9493949Y1873949D01*
X-9364518Y1980169D01*
X-9216857Y2059096D01*
X-9216855Y2059097D01*
X-9136742Y2083398D01*
X-9056627Y2107701D01*
X-8931752Y2120000D01*
X-8848248Y2120000D01*
X-8723373Y2107701D01*
X-8723373Y2107701D01*
G37*
G36*
X-6183373Y2107701D02*
G01*
X-6103258Y2083398D01*
X-6023145Y2059097D01*
X-6023143Y2059096D01*
X-5875482Y1980169D01*
X-5746051Y1873949D01*
X-5639831Y1744518D01*
X-5623758Y1714447D01*
X-5560903Y1596855D01*
X-5555469Y1578941D01*
X-5512299Y1436627D01*
X-5495888Y1270000D01*
X-5512299Y1103373D01*
X-5512300Y1103371D01*
X-5553773Y966649D01*
X-5560904Y943143D01*
X-5639831Y795482D01*
X-5746051Y666051D01*
X-5875482Y559831D01*
X-6004163Y491049D01*
X-6023145Y480903D01*
X-6103258Y456601D01*
X-6183373Y432299D01*
X-6308248Y420000D01*
X-6391752Y420000D01*
X-6516627Y432299D01*
X-6596742Y456602D01*
X-6676855Y480903D01*
X-6695837Y491049D01*
X-6824518Y559831D01*
X-6953949Y666051D01*
X-7060169Y795482D01*
X-7139096Y943143D01*
X-7146226Y966649D01*
X-7187700Y1103371D01*
X-7187701Y1103373D01*
X-7204112Y1270000D01*
X-7187701Y1436627D01*
X-7144531Y1578941D01*
X-7139097Y1596855D01*
X-7076242Y1714447D01*
X-7060169Y1744518D01*
X-6953949Y1873949D01*
X-6824518Y1980169D01*
X-6676857Y2059096D01*
X-6676855Y2059097D01*
X-6596742Y2083398D01*
X-6516627Y2107701D01*
X-6391752Y2120000D01*
X-6308248Y2120000D01*
X-6183373Y2107701D01*
X-6183373Y2107701D01*
G37*
G36*
X-12048537Y1777774D02*
G01*
X-12032701Y1772970D01*
X-12018114Y1765173D01*
X-12005323Y1754677D01*
X-11994827Y1741886D01*
X-11987030Y1727299D01*
X-11982226Y1711463D01*
X-11980000Y1688860D01*
X-11980000Y1281140D01*
X-11982226Y1258537D01*
X-11987030Y1242701D01*
X-11994827Y1228114D01*
X-12005323Y1215323D01*
X-12018114Y1204827D01*
X-12032701Y1197030D01*
X-12048537Y1192226D01*
X-12071140Y1190000D01*
X-12528860Y1190000D01*
X-12551463Y1192226D01*
X-12567299Y1197030D01*
X-12581886Y1204827D01*
X-12594677Y1215323D01*
X-12605173Y1228114D01*
X-12612970Y1242701D01*
X-12617774Y1258537D01*
X-12620000Y1281140D01*
X-12620000Y1688860D01*
X-12617774Y1711463D01*
X-12612970Y1727299D01*
X-12605173Y1741886D01*
X-12594677Y1754677D01*
X-12581886Y1765173D01*
X-12567299Y1772970D01*
X-12551463Y1777774D01*
X-12528860Y1780000D01*
X-12071140Y1780000D01*
X-12048537Y1777774D01*
X-12048537Y1777774D01*
G37*
G36*
X-11048537Y1777774D02*
G01*
X-11032701Y1772970D01*
X-11018114Y1765173D01*
X-11005323Y1754677D01*
X-10994827Y1741886D01*
X-10987030Y1727299D01*
X-10982226Y1711463D01*
X-10980000Y1688860D01*
X-10980000Y1281140D01*
X-10982226Y1258537D01*
X-10987030Y1242701D01*
X-10994827Y1228114D01*
X-11005323Y1215323D01*
X-11018114Y1204827D01*
X-11032701Y1197030D01*
X-11048537Y1192226D01*
X-11071140Y1190000D01*
X-11528860Y1190000D01*
X-11551463Y1192226D01*
X-11567299Y1197030D01*
X-11581886Y1204827D01*
X-11594677Y1215323D01*
X-11605173Y1228114D01*
X-11612970Y1242701D01*
X-11617774Y1258537D01*
X-11620000Y1281140D01*
X-11620000Y1688860D01*
X-11617774Y1711463D01*
X-11612970Y1727299D01*
X-11605173Y1741886D01*
X-11594677Y1754677D01*
X-11581886Y1765173D01*
X-11567299Y1772970D01*
X-11551463Y1777774D01*
X-11528860Y1780000D01*
X-11071140Y1780000D01*
X-11048537Y1777774D01*
X-11048537Y1777774D01*
G37*
M02*
