G04 #@! TF.GenerationSoftware,KiCad,Pcbnew,(5.1.0-10-g6006703)*
G04 #@! TF.CreationDate,2019-04-13T18:37:01+08:00*
G04 #@! TF.ProjectId,cicada,63696361-6461-42e6-9b69-6361645f7063,0.1*
G04 #@! TF.SameCoordinates,PX7cee6c0PY3dfd240*
G04 #@! TF.FileFunction,Paste,Bot*
G04 #@! TF.FilePolarity,Positive*
%FSLAX46Y46*%
G04 Gerber Fmt 4.6, Leading zero omitted, Abs format (unit mm)*
G04 Created by KiCad (PCBNEW (5.1.0-10-g6006703)) date 2019-04-13 18:37:01*
%MOMM*%
%LPD*%
G04 APERTURE LIST*
%ADD10R,2.200000X1.050000*%
%ADD11R,1.000000X1.000000*%
%ADD12R,2.500000X1.800000*%
%ADD13C,0.150000*%
%ADD14C,1.500000*%
%ADD15C,1.000000*%
%ADD16C,0.590000*%
%ADD17R,0.650000X1.060000*%
%ADD18R,0.800000X0.900000*%
%ADD19R,0.900000X0.800000*%
%ADD20R,2.600000X1.100000*%
%ADD21R,1.350000X0.900000*%
%ADD22R,0.600000X0.700000*%
%ADD23R,0.700000X0.600000*%
%ADD24C,0.875000*%
G04 APERTURE END LIST*
D10*
X-9000000Y-39075000D03*
X-9000000Y-36125000D03*
D11*
X-7500000Y-37600000D03*
X-10500000Y-37600000D03*
D12*
X-11050000Y-32350000D03*
X-7050000Y-32350000D03*
D13*
G36*
X17774504Y-33601204D02*
G01*
X17798773Y-33604804D01*
X17822571Y-33610765D01*
X17845671Y-33619030D01*
X17867849Y-33629520D01*
X17888893Y-33642133D01*
X17908598Y-33656747D01*
X17926777Y-33673223D01*
X17943253Y-33691402D01*
X17957867Y-33711107D01*
X17970480Y-33732151D01*
X17980970Y-33754329D01*
X17989235Y-33777429D01*
X17995196Y-33801227D01*
X17998796Y-33825496D01*
X18000000Y-33850000D01*
X18000000Y-34850000D01*
X17998796Y-34874504D01*
X17995196Y-34898773D01*
X17989235Y-34922571D01*
X17980970Y-34945671D01*
X17970480Y-34967849D01*
X17957867Y-34988893D01*
X17943253Y-35008598D01*
X17926777Y-35026777D01*
X17908598Y-35043253D01*
X17888893Y-35057867D01*
X17867849Y-35070480D01*
X17845671Y-35080970D01*
X17822571Y-35089235D01*
X17798773Y-35095196D01*
X17774504Y-35098796D01*
X17750000Y-35100000D01*
X14850000Y-35100000D01*
X14825496Y-35098796D01*
X14801227Y-35095196D01*
X14777429Y-35089235D01*
X14754329Y-35080970D01*
X14732151Y-35070480D01*
X14711107Y-35057867D01*
X14691402Y-35043253D01*
X14673223Y-35026777D01*
X14656747Y-35008598D01*
X14642133Y-34988893D01*
X14629520Y-34967849D01*
X14619030Y-34945671D01*
X14610765Y-34922571D01*
X14604804Y-34898773D01*
X14601204Y-34874504D01*
X14600000Y-34850000D01*
X14600000Y-33850000D01*
X14601204Y-33825496D01*
X14604804Y-33801227D01*
X14610765Y-33777429D01*
X14619030Y-33754329D01*
X14629520Y-33732151D01*
X14642133Y-33711107D01*
X14656747Y-33691402D01*
X14673223Y-33673223D01*
X14691402Y-33656747D01*
X14711107Y-33642133D01*
X14732151Y-33629520D01*
X14754329Y-33619030D01*
X14777429Y-33610765D01*
X14801227Y-33604804D01*
X14825496Y-33601204D01*
X14850000Y-33600000D01*
X17750000Y-33600000D01*
X17774504Y-33601204D01*
X17774504Y-33601204D01*
G37*
D14*
X16300000Y-34350000D03*
D13*
G36*
X17774504Y-22901204D02*
G01*
X17798773Y-22904804D01*
X17822571Y-22910765D01*
X17845671Y-22919030D01*
X17867849Y-22929520D01*
X17888893Y-22942133D01*
X17908598Y-22956747D01*
X17926777Y-22973223D01*
X17943253Y-22991402D01*
X17957867Y-23011107D01*
X17970480Y-23032151D01*
X17980970Y-23054329D01*
X17989235Y-23077429D01*
X17995196Y-23101227D01*
X17998796Y-23125496D01*
X18000000Y-23150000D01*
X18000000Y-24150000D01*
X17998796Y-24174504D01*
X17995196Y-24198773D01*
X17989235Y-24222571D01*
X17980970Y-24245671D01*
X17970480Y-24267849D01*
X17957867Y-24288893D01*
X17943253Y-24308598D01*
X17926777Y-24326777D01*
X17908598Y-24343253D01*
X17888893Y-24357867D01*
X17867849Y-24370480D01*
X17845671Y-24380970D01*
X17822571Y-24389235D01*
X17798773Y-24395196D01*
X17774504Y-24398796D01*
X17750000Y-24400000D01*
X14850000Y-24400000D01*
X14825496Y-24398796D01*
X14801227Y-24395196D01*
X14777429Y-24389235D01*
X14754329Y-24380970D01*
X14732151Y-24370480D01*
X14711107Y-24357867D01*
X14691402Y-24343253D01*
X14673223Y-24326777D01*
X14656747Y-24308598D01*
X14642133Y-24288893D01*
X14629520Y-24267849D01*
X14619030Y-24245671D01*
X14610765Y-24222571D01*
X14604804Y-24198773D01*
X14601204Y-24174504D01*
X14600000Y-24150000D01*
X14600000Y-23150000D01*
X14601204Y-23125496D01*
X14604804Y-23101227D01*
X14610765Y-23077429D01*
X14619030Y-23054329D01*
X14629520Y-23032151D01*
X14642133Y-23011107D01*
X14656747Y-22991402D01*
X14673223Y-22973223D01*
X14691402Y-22956747D01*
X14711107Y-22942133D01*
X14732151Y-22929520D01*
X14754329Y-22919030D01*
X14777429Y-22910765D01*
X14801227Y-22904804D01*
X14825496Y-22901204D01*
X14850000Y-22900000D01*
X17750000Y-22900000D01*
X17774504Y-22901204D01*
X17774504Y-22901204D01*
G37*
D14*
X16300000Y-23650000D03*
D13*
G36*
X12074504Y-31501204D02*
G01*
X12098773Y-31504804D01*
X12122571Y-31510765D01*
X12145671Y-31519030D01*
X12167849Y-31529520D01*
X12188893Y-31542133D01*
X12208598Y-31556747D01*
X12226777Y-31573223D01*
X12243253Y-31591402D01*
X12257867Y-31611107D01*
X12270480Y-31632151D01*
X12280970Y-31654329D01*
X12289235Y-31677429D01*
X12295196Y-31701227D01*
X12298796Y-31725496D01*
X12300000Y-31750000D01*
X12300000Y-32250000D01*
X12298796Y-32274504D01*
X12295196Y-32298773D01*
X12289235Y-32322571D01*
X12280970Y-32345671D01*
X12270480Y-32367849D01*
X12257867Y-32388893D01*
X12243253Y-32408598D01*
X12226777Y-32426777D01*
X12208598Y-32443253D01*
X12188893Y-32457867D01*
X12167849Y-32470480D01*
X12145671Y-32480970D01*
X12122571Y-32489235D01*
X12098773Y-32495196D01*
X12074504Y-32498796D01*
X12050000Y-32500000D01*
X9050000Y-32500000D01*
X9025496Y-32498796D01*
X9001227Y-32495196D01*
X8977429Y-32489235D01*
X8954329Y-32480970D01*
X8932151Y-32470480D01*
X8911107Y-32457867D01*
X8891402Y-32443253D01*
X8873223Y-32426777D01*
X8856747Y-32408598D01*
X8842133Y-32388893D01*
X8829520Y-32367849D01*
X8819030Y-32345671D01*
X8810765Y-32322571D01*
X8804804Y-32298773D01*
X8801204Y-32274504D01*
X8800000Y-32250000D01*
X8800000Y-31750000D01*
X8801204Y-31725496D01*
X8804804Y-31701227D01*
X8810765Y-31677429D01*
X8819030Y-31654329D01*
X8829520Y-31632151D01*
X8842133Y-31611107D01*
X8856747Y-31591402D01*
X8873223Y-31573223D01*
X8891402Y-31556747D01*
X8911107Y-31542133D01*
X8932151Y-31529520D01*
X8954329Y-31519030D01*
X8977429Y-31510765D01*
X9001227Y-31504804D01*
X9025496Y-31501204D01*
X9050000Y-31500000D01*
X12050000Y-31500000D01*
X12074504Y-31501204D01*
X12074504Y-31501204D01*
G37*
D15*
X10550000Y-32000000D03*
D13*
G36*
X12074504Y-29501204D02*
G01*
X12098773Y-29504804D01*
X12122571Y-29510765D01*
X12145671Y-29519030D01*
X12167849Y-29529520D01*
X12188893Y-29542133D01*
X12208598Y-29556747D01*
X12226777Y-29573223D01*
X12243253Y-29591402D01*
X12257867Y-29611107D01*
X12270480Y-29632151D01*
X12280970Y-29654329D01*
X12289235Y-29677429D01*
X12295196Y-29701227D01*
X12298796Y-29725496D01*
X12300000Y-29750000D01*
X12300000Y-30250000D01*
X12298796Y-30274504D01*
X12295196Y-30298773D01*
X12289235Y-30322571D01*
X12280970Y-30345671D01*
X12270480Y-30367849D01*
X12257867Y-30388893D01*
X12243253Y-30408598D01*
X12226777Y-30426777D01*
X12208598Y-30443253D01*
X12188893Y-30457867D01*
X12167849Y-30470480D01*
X12145671Y-30480970D01*
X12122571Y-30489235D01*
X12098773Y-30495196D01*
X12074504Y-30498796D01*
X12050000Y-30500000D01*
X9050000Y-30500000D01*
X9025496Y-30498796D01*
X9001227Y-30495196D01*
X8977429Y-30489235D01*
X8954329Y-30480970D01*
X8932151Y-30470480D01*
X8911107Y-30457867D01*
X8891402Y-30443253D01*
X8873223Y-30426777D01*
X8856747Y-30408598D01*
X8842133Y-30388893D01*
X8829520Y-30367849D01*
X8819030Y-30345671D01*
X8810765Y-30322571D01*
X8804804Y-30298773D01*
X8801204Y-30274504D01*
X8800000Y-30250000D01*
X8800000Y-29750000D01*
X8801204Y-29725496D01*
X8804804Y-29701227D01*
X8810765Y-29677429D01*
X8819030Y-29654329D01*
X8829520Y-29632151D01*
X8842133Y-29611107D01*
X8856747Y-29591402D01*
X8873223Y-29573223D01*
X8891402Y-29556747D01*
X8911107Y-29542133D01*
X8932151Y-29529520D01*
X8954329Y-29519030D01*
X8977429Y-29510765D01*
X9001227Y-29504804D01*
X9025496Y-29501204D01*
X9050000Y-29500000D01*
X12050000Y-29500000D01*
X12074504Y-29501204D01*
X12074504Y-29501204D01*
G37*
D15*
X10550000Y-30000000D03*
D13*
G36*
X12074504Y-27501204D02*
G01*
X12098773Y-27504804D01*
X12122571Y-27510765D01*
X12145671Y-27519030D01*
X12167849Y-27529520D01*
X12188893Y-27542133D01*
X12208598Y-27556747D01*
X12226777Y-27573223D01*
X12243253Y-27591402D01*
X12257867Y-27611107D01*
X12270480Y-27632151D01*
X12280970Y-27654329D01*
X12289235Y-27677429D01*
X12295196Y-27701227D01*
X12298796Y-27725496D01*
X12300000Y-27750000D01*
X12300000Y-28250000D01*
X12298796Y-28274504D01*
X12295196Y-28298773D01*
X12289235Y-28322571D01*
X12280970Y-28345671D01*
X12270480Y-28367849D01*
X12257867Y-28388893D01*
X12243253Y-28408598D01*
X12226777Y-28426777D01*
X12208598Y-28443253D01*
X12188893Y-28457867D01*
X12167849Y-28470480D01*
X12145671Y-28480970D01*
X12122571Y-28489235D01*
X12098773Y-28495196D01*
X12074504Y-28498796D01*
X12050000Y-28500000D01*
X9050000Y-28500000D01*
X9025496Y-28498796D01*
X9001227Y-28495196D01*
X8977429Y-28489235D01*
X8954329Y-28480970D01*
X8932151Y-28470480D01*
X8911107Y-28457867D01*
X8891402Y-28443253D01*
X8873223Y-28426777D01*
X8856747Y-28408598D01*
X8842133Y-28388893D01*
X8829520Y-28367849D01*
X8819030Y-28345671D01*
X8810765Y-28322571D01*
X8804804Y-28298773D01*
X8801204Y-28274504D01*
X8800000Y-28250000D01*
X8800000Y-27750000D01*
X8801204Y-27725496D01*
X8804804Y-27701227D01*
X8810765Y-27677429D01*
X8819030Y-27654329D01*
X8829520Y-27632151D01*
X8842133Y-27611107D01*
X8856747Y-27591402D01*
X8873223Y-27573223D01*
X8891402Y-27556747D01*
X8911107Y-27542133D01*
X8932151Y-27529520D01*
X8954329Y-27519030D01*
X8977429Y-27510765D01*
X9001227Y-27504804D01*
X9025496Y-27501204D01*
X9050000Y-27500000D01*
X12050000Y-27500000D01*
X12074504Y-27501204D01*
X12074504Y-27501204D01*
G37*
D15*
X10550000Y-28000000D03*
D13*
G36*
X12074504Y-25501204D02*
G01*
X12098773Y-25504804D01*
X12122571Y-25510765D01*
X12145671Y-25519030D01*
X12167849Y-25529520D01*
X12188893Y-25542133D01*
X12208598Y-25556747D01*
X12226777Y-25573223D01*
X12243253Y-25591402D01*
X12257867Y-25611107D01*
X12270480Y-25632151D01*
X12280970Y-25654329D01*
X12289235Y-25677429D01*
X12295196Y-25701227D01*
X12298796Y-25725496D01*
X12300000Y-25750000D01*
X12300000Y-26250000D01*
X12298796Y-26274504D01*
X12295196Y-26298773D01*
X12289235Y-26322571D01*
X12280970Y-26345671D01*
X12270480Y-26367849D01*
X12257867Y-26388893D01*
X12243253Y-26408598D01*
X12226777Y-26426777D01*
X12208598Y-26443253D01*
X12188893Y-26457867D01*
X12167849Y-26470480D01*
X12145671Y-26480970D01*
X12122571Y-26489235D01*
X12098773Y-26495196D01*
X12074504Y-26498796D01*
X12050000Y-26500000D01*
X9050000Y-26500000D01*
X9025496Y-26498796D01*
X9001227Y-26495196D01*
X8977429Y-26489235D01*
X8954329Y-26480970D01*
X8932151Y-26470480D01*
X8911107Y-26457867D01*
X8891402Y-26443253D01*
X8873223Y-26426777D01*
X8856747Y-26408598D01*
X8842133Y-26388893D01*
X8829520Y-26367849D01*
X8819030Y-26345671D01*
X8810765Y-26322571D01*
X8804804Y-26298773D01*
X8801204Y-26274504D01*
X8800000Y-26250000D01*
X8800000Y-25750000D01*
X8801204Y-25725496D01*
X8804804Y-25701227D01*
X8810765Y-25677429D01*
X8819030Y-25654329D01*
X8829520Y-25632151D01*
X8842133Y-25611107D01*
X8856747Y-25591402D01*
X8873223Y-25573223D01*
X8891402Y-25556747D01*
X8911107Y-25542133D01*
X8932151Y-25529520D01*
X8954329Y-25519030D01*
X8977429Y-25510765D01*
X9001227Y-25504804D01*
X9025496Y-25501204D01*
X9050000Y-25500000D01*
X12050000Y-25500000D01*
X12074504Y-25501204D01*
X12074504Y-25501204D01*
G37*
D15*
X10550000Y-26000000D03*
D13*
G36*
X1161958Y-12580710D02*
G01*
X1176276Y-12582834D01*
X1190317Y-12586351D01*
X1203946Y-12591228D01*
X1217031Y-12597417D01*
X1229447Y-12604858D01*
X1241073Y-12613481D01*
X1251798Y-12623202D01*
X1261519Y-12633927D01*
X1270142Y-12645553D01*
X1277583Y-12657969D01*
X1283772Y-12671054D01*
X1288649Y-12684683D01*
X1292166Y-12698724D01*
X1294290Y-12713042D01*
X1295000Y-12727500D01*
X1295000Y-13072500D01*
X1294290Y-13086958D01*
X1292166Y-13101276D01*
X1288649Y-13115317D01*
X1283772Y-13128946D01*
X1277583Y-13142031D01*
X1270142Y-13154447D01*
X1261519Y-13166073D01*
X1251798Y-13176798D01*
X1241073Y-13186519D01*
X1229447Y-13195142D01*
X1217031Y-13202583D01*
X1203946Y-13208772D01*
X1190317Y-13213649D01*
X1176276Y-13217166D01*
X1161958Y-13219290D01*
X1147500Y-13220000D01*
X852500Y-13220000D01*
X838042Y-13219290D01*
X823724Y-13217166D01*
X809683Y-13213649D01*
X796054Y-13208772D01*
X782969Y-13202583D01*
X770553Y-13195142D01*
X758927Y-13186519D01*
X748202Y-13176798D01*
X738481Y-13166073D01*
X729858Y-13154447D01*
X722417Y-13142031D01*
X716228Y-13128946D01*
X711351Y-13115317D01*
X707834Y-13101276D01*
X705710Y-13086958D01*
X705000Y-13072500D01*
X705000Y-12727500D01*
X705710Y-12713042D01*
X707834Y-12698724D01*
X711351Y-12684683D01*
X716228Y-12671054D01*
X722417Y-12657969D01*
X729858Y-12645553D01*
X738481Y-12633927D01*
X748202Y-12623202D01*
X758927Y-12613481D01*
X770553Y-12604858D01*
X782969Y-12597417D01*
X796054Y-12591228D01*
X809683Y-12586351D01*
X823724Y-12582834D01*
X838042Y-12580710D01*
X852500Y-12580000D01*
X1147500Y-12580000D01*
X1161958Y-12580710D01*
X1161958Y-12580710D01*
G37*
D16*
X1000000Y-12900000D03*
D13*
G36*
X191958Y-12580710D02*
G01*
X206276Y-12582834D01*
X220317Y-12586351D01*
X233946Y-12591228D01*
X247031Y-12597417D01*
X259447Y-12604858D01*
X271073Y-12613481D01*
X281798Y-12623202D01*
X291519Y-12633927D01*
X300142Y-12645553D01*
X307583Y-12657969D01*
X313772Y-12671054D01*
X318649Y-12684683D01*
X322166Y-12698724D01*
X324290Y-12713042D01*
X325000Y-12727500D01*
X325000Y-13072500D01*
X324290Y-13086958D01*
X322166Y-13101276D01*
X318649Y-13115317D01*
X313772Y-13128946D01*
X307583Y-13142031D01*
X300142Y-13154447D01*
X291519Y-13166073D01*
X281798Y-13176798D01*
X271073Y-13186519D01*
X259447Y-13195142D01*
X247031Y-13202583D01*
X233946Y-13208772D01*
X220317Y-13213649D01*
X206276Y-13217166D01*
X191958Y-13219290D01*
X177500Y-13220000D01*
X-117500Y-13220000D01*
X-131958Y-13219290D01*
X-146276Y-13217166D01*
X-160317Y-13213649D01*
X-173946Y-13208772D01*
X-187031Y-13202583D01*
X-199447Y-13195142D01*
X-211073Y-13186519D01*
X-221798Y-13176798D01*
X-231519Y-13166073D01*
X-240142Y-13154447D01*
X-247583Y-13142031D01*
X-253772Y-13128946D01*
X-258649Y-13115317D01*
X-262166Y-13101276D01*
X-264290Y-13086958D01*
X-265000Y-13072500D01*
X-265000Y-12727500D01*
X-264290Y-12713042D01*
X-262166Y-12698724D01*
X-258649Y-12684683D01*
X-253772Y-12671054D01*
X-247583Y-12657969D01*
X-240142Y-12645553D01*
X-231519Y-12633927D01*
X-221798Y-12623202D01*
X-211073Y-12613481D01*
X-199447Y-12604858D01*
X-187031Y-12597417D01*
X-173946Y-12591228D01*
X-160317Y-12586351D01*
X-146276Y-12582834D01*
X-131958Y-12580710D01*
X-117500Y-12580000D01*
X177500Y-12580000D01*
X191958Y-12580710D01*
X191958Y-12580710D01*
G37*
D16*
X30000Y-12900000D03*
D13*
G36*
X1607619Y-8180710D02*
G01*
X1621937Y-8182834D01*
X1635978Y-8186351D01*
X1649607Y-8191228D01*
X1662692Y-8197417D01*
X1675108Y-8204858D01*
X1686734Y-8213481D01*
X1697459Y-8223202D01*
X1707180Y-8233927D01*
X1715803Y-8245553D01*
X1723244Y-8257969D01*
X1729433Y-8271054D01*
X1734310Y-8284683D01*
X1737827Y-8298724D01*
X1739951Y-8313042D01*
X1740661Y-8327500D01*
X1740661Y-8672500D01*
X1739951Y-8686958D01*
X1737827Y-8701276D01*
X1734310Y-8715317D01*
X1729433Y-8728946D01*
X1723244Y-8742031D01*
X1715803Y-8754447D01*
X1707180Y-8766073D01*
X1697459Y-8776798D01*
X1686734Y-8786519D01*
X1675108Y-8795142D01*
X1662692Y-8802583D01*
X1649607Y-8808772D01*
X1635978Y-8813649D01*
X1621937Y-8817166D01*
X1607619Y-8819290D01*
X1593161Y-8820000D01*
X1298161Y-8820000D01*
X1283703Y-8819290D01*
X1269385Y-8817166D01*
X1255344Y-8813649D01*
X1241715Y-8808772D01*
X1228630Y-8802583D01*
X1216214Y-8795142D01*
X1204588Y-8786519D01*
X1193863Y-8776798D01*
X1184142Y-8766073D01*
X1175519Y-8754447D01*
X1168078Y-8742031D01*
X1161889Y-8728946D01*
X1157012Y-8715317D01*
X1153495Y-8701276D01*
X1151371Y-8686958D01*
X1150661Y-8672500D01*
X1150661Y-8327500D01*
X1151371Y-8313042D01*
X1153495Y-8298724D01*
X1157012Y-8284683D01*
X1161889Y-8271054D01*
X1168078Y-8257969D01*
X1175519Y-8245553D01*
X1184142Y-8233927D01*
X1193863Y-8223202D01*
X1204588Y-8213481D01*
X1216214Y-8204858D01*
X1228630Y-8197417D01*
X1241715Y-8191228D01*
X1255344Y-8186351D01*
X1269385Y-8182834D01*
X1283703Y-8180710D01*
X1298161Y-8180000D01*
X1593161Y-8180000D01*
X1607619Y-8180710D01*
X1607619Y-8180710D01*
G37*
D16*
X1445661Y-8500000D03*
D13*
G36*
X637619Y-8180710D02*
G01*
X651937Y-8182834D01*
X665978Y-8186351D01*
X679607Y-8191228D01*
X692692Y-8197417D01*
X705108Y-8204858D01*
X716734Y-8213481D01*
X727459Y-8223202D01*
X737180Y-8233927D01*
X745803Y-8245553D01*
X753244Y-8257969D01*
X759433Y-8271054D01*
X764310Y-8284683D01*
X767827Y-8298724D01*
X769951Y-8313042D01*
X770661Y-8327500D01*
X770661Y-8672500D01*
X769951Y-8686958D01*
X767827Y-8701276D01*
X764310Y-8715317D01*
X759433Y-8728946D01*
X753244Y-8742031D01*
X745803Y-8754447D01*
X737180Y-8766073D01*
X727459Y-8776798D01*
X716734Y-8786519D01*
X705108Y-8795142D01*
X692692Y-8802583D01*
X679607Y-8808772D01*
X665978Y-8813649D01*
X651937Y-8817166D01*
X637619Y-8819290D01*
X623161Y-8820000D01*
X328161Y-8820000D01*
X313703Y-8819290D01*
X299385Y-8817166D01*
X285344Y-8813649D01*
X271715Y-8808772D01*
X258630Y-8802583D01*
X246214Y-8795142D01*
X234588Y-8786519D01*
X223863Y-8776798D01*
X214142Y-8766073D01*
X205519Y-8754447D01*
X198078Y-8742031D01*
X191889Y-8728946D01*
X187012Y-8715317D01*
X183495Y-8701276D01*
X181371Y-8686958D01*
X180661Y-8672500D01*
X180661Y-8327500D01*
X181371Y-8313042D01*
X183495Y-8298724D01*
X187012Y-8284683D01*
X191889Y-8271054D01*
X198078Y-8257969D01*
X205519Y-8245553D01*
X214142Y-8233927D01*
X223863Y-8223202D01*
X234588Y-8213481D01*
X246214Y-8204858D01*
X258630Y-8197417D01*
X271715Y-8191228D01*
X285344Y-8186351D01*
X299385Y-8182834D01*
X313703Y-8180710D01*
X328161Y-8180000D01*
X623161Y-8180000D01*
X637619Y-8180710D01*
X637619Y-8180710D01*
G37*
D16*
X475661Y-8500000D03*
D13*
G36*
X9146958Y-12580710D02*
G01*
X9161276Y-12582834D01*
X9175317Y-12586351D01*
X9188946Y-12591228D01*
X9202031Y-12597417D01*
X9214447Y-12604858D01*
X9226073Y-12613481D01*
X9236798Y-12623202D01*
X9246519Y-12633927D01*
X9255142Y-12645553D01*
X9262583Y-12657969D01*
X9268772Y-12671054D01*
X9273649Y-12684683D01*
X9277166Y-12698724D01*
X9279290Y-12713042D01*
X9280000Y-12727500D01*
X9280000Y-13072500D01*
X9279290Y-13086958D01*
X9277166Y-13101276D01*
X9273649Y-13115317D01*
X9268772Y-13128946D01*
X9262583Y-13142031D01*
X9255142Y-13154447D01*
X9246519Y-13166073D01*
X9236798Y-13176798D01*
X9226073Y-13186519D01*
X9214447Y-13195142D01*
X9202031Y-13202583D01*
X9188946Y-13208772D01*
X9175317Y-13213649D01*
X9161276Y-13217166D01*
X9146958Y-13219290D01*
X9132500Y-13220000D01*
X8837500Y-13220000D01*
X8823042Y-13219290D01*
X8808724Y-13217166D01*
X8794683Y-13213649D01*
X8781054Y-13208772D01*
X8767969Y-13202583D01*
X8755553Y-13195142D01*
X8743927Y-13186519D01*
X8733202Y-13176798D01*
X8723481Y-13166073D01*
X8714858Y-13154447D01*
X8707417Y-13142031D01*
X8701228Y-13128946D01*
X8696351Y-13115317D01*
X8692834Y-13101276D01*
X8690710Y-13086958D01*
X8690000Y-13072500D01*
X8690000Y-12727500D01*
X8690710Y-12713042D01*
X8692834Y-12698724D01*
X8696351Y-12684683D01*
X8701228Y-12671054D01*
X8707417Y-12657969D01*
X8714858Y-12645553D01*
X8723481Y-12633927D01*
X8733202Y-12623202D01*
X8743927Y-12613481D01*
X8755553Y-12604858D01*
X8767969Y-12597417D01*
X8781054Y-12591228D01*
X8794683Y-12586351D01*
X8808724Y-12582834D01*
X8823042Y-12580710D01*
X8837500Y-12580000D01*
X9132500Y-12580000D01*
X9146958Y-12580710D01*
X9146958Y-12580710D01*
G37*
D16*
X8985000Y-12900000D03*
D13*
G36*
X8176958Y-12580710D02*
G01*
X8191276Y-12582834D01*
X8205317Y-12586351D01*
X8218946Y-12591228D01*
X8232031Y-12597417D01*
X8244447Y-12604858D01*
X8256073Y-12613481D01*
X8266798Y-12623202D01*
X8276519Y-12633927D01*
X8285142Y-12645553D01*
X8292583Y-12657969D01*
X8298772Y-12671054D01*
X8303649Y-12684683D01*
X8307166Y-12698724D01*
X8309290Y-12713042D01*
X8310000Y-12727500D01*
X8310000Y-13072500D01*
X8309290Y-13086958D01*
X8307166Y-13101276D01*
X8303649Y-13115317D01*
X8298772Y-13128946D01*
X8292583Y-13142031D01*
X8285142Y-13154447D01*
X8276519Y-13166073D01*
X8266798Y-13176798D01*
X8256073Y-13186519D01*
X8244447Y-13195142D01*
X8232031Y-13202583D01*
X8218946Y-13208772D01*
X8205317Y-13213649D01*
X8191276Y-13217166D01*
X8176958Y-13219290D01*
X8162500Y-13220000D01*
X7867500Y-13220000D01*
X7853042Y-13219290D01*
X7838724Y-13217166D01*
X7824683Y-13213649D01*
X7811054Y-13208772D01*
X7797969Y-13202583D01*
X7785553Y-13195142D01*
X7773927Y-13186519D01*
X7763202Y-13176798D01*
X7753481Y-13166073D01*
X7744858Y-13154447D01*
X7737417Y-13142031D01*
X7731228Y-13128946D01*
X7726351Y-13115317D01*
X7722834Y-13101276D01*
X7720710Y-13086958D01*
X7720000Y-13072500D01*
X7720000Y-12727500D01*
X7720710Y-12713042D01*
X7722834Y-12698724D01*
X7726351Y-12684683D01*
X7731228Y-12671054D01*
X7737417Y-12657969D01*
X7744858Y-12645553D01*
X7753481Y-12633927D01*
X7763202Y-12623202D01*
X7773927Y-12613481D01*
X7785553Y-12604858D01*
X7797969Y-12597417D01*
X7811054Y-12591228D01*
X7824683Y-12586351D01*
X7838724Y-12582834D01*
X7853042Y-12580710D01*
X7867500Y-12580000D01*
X8162500Y-12580000D01*
X8176958Y-12580710D01*
X8176958Y-12580710D01*
G37*
D16*
X8015000Y-12900000D03*
D13*
G36*
X9646958Y-8180710D02*
G01*
X9661276Y-8182834D01*
X9675317Y-8186351D01*
X9688946Y-8191228D01*
X9702031Y-8197417D01*
X9714447Y-8204858D01*
X9726073Y-8213481D01*
X9736798Y-8223202D01*
X9746519Y-8233927D01*
X9755142Y-8245553D01*
X9762583Y-8257969D01*
X9768772Y-8271054D01*
X9773649Y-8284683D01*
X9777166Y-8298724D01*
X9779290Y-8313042D01*
X9780000Y-8327500D01*
X9780000Y-8672500D01*
X9779290Y-8686958D01*
X9777166Y-8701276D01*
X9773649Y-8715317D01*
X9768772Y-8728946D01*
X9762583Y-8742031D01*
X9755142Y-8754447D01*
X9746519Y-8766073D01*
X9736798Y-8776798D01*
X9726073Y-8786519D01*
X9714447Y-8795142D01*
X9702031Y-8802583D01*
X9688946Y-8808772D01*
X9675317Y-8813649D01*
X9661276Y-8817166D01*
X9646958Y-8819290D01*
X9632500Y-8820000D01*
X9337500Y-8820000D01*
X9323042Y-8819290D01*
X9308724Y-8817166D01*
X9294683Y-8813649D01*
X9281054Y-8808772D01*
X9267969Y-8802583D01*
X9255553Y-8795142D01*
X9243927Y-8786519D01*
X9233202Y-8776798D01*
X9223481Y-8766073D01*
X9214858Y-8754447D01*
X9207417Y-8742031D01*
X9201228Y-8728946D01*
X9196351Y-8715317D01*
X9192834Y-8701276D01*
X9190710Y-8686958D01*
X9190000Y-8672500D01*
X9190000Y-8327500D01*
X9190710Y-8313042D01*
X9192834Y-8298724D01*
X9196351Y-8284683D01*
X9201228Y-8271054D01*
X9207417Y-8257969D01*
X9214858Y-8245553D01*
X9223481Y-8233927D01*
X9233202Y-8223202D01*
X9243927Y-8213481D01*
X9255553Y-8204858D01*
X9267969Y-8197417D01*
X9281054Y-8191228D01*
X9294683Y-8186351D01*
X9308724Y-8182834D01*
X9323042Y-8180710D01*
X9337500Y-8180000D01*
X9632500Y-8180000D01*
X9646958Y-8180710D01*
X9646958Y-8180710D01*
G37*
D16*
X9485000Y-8500000D03*
D13*
G36*
X8676958Y-8180710D02*
G01*
X8691276Y-8182834D01*
X8705317Y-8186351D01*
X8718946Y-8191228D01*
X8732031Y-8197417D01*
X8744447Y-8204858D01*
X8756073Y-8213481D01*
X8766798Y-8223202D01*
X8776519Y-8233927D01*
X8785142Y-8245553D01*
X8792583Y-8257969D01*
X8798772Y-8271054D01*
X8803649Y-8284683D01*
X8807166Y-8298724D01*
X8809290Y-8313042D01*
X8810000Y-8327500D01*
X8810000Y-8672500D01*
X8809290Y-8686958D01*
X8807166Y-8701276D01*
X8803649Y-8715317D01*
X8798772Y-8728946D01*
X8792583Y-8742031D01*
X8785142Y-8754447D01*
X8776519Y-8766073D01*
X8766798Y-8776798D01*
X8756073Y-8786519D01*
X8744447Y-8795142D01*
X8732031Y-8802583D01*
X8718946Y-8808772D01*
X8705317Y-8813649D01*
X8691276Y-8817166D01*
X8676958Y-8819290D01*
X8662500Y-8820000D01*
X8367500Y-8820000D01*
X8353042Y-8819290D01*
X8338724Y-8817166D01*
X8324683Y-8813649D01*
X8311054Y-8808772D01*
X8297969Y-8802583D01*
X8285553Y-8795142D01*
X8273927Y-8786519D01*
X8263202Y-8776798D01*
X8253481Y-8766073D01*
X8244858Y-8754447D01*
X8237417Y-8742031D01*
X8231228Y-8728946D01*
X8226351Y-8715317D01*
X8222834Y-8701276D01*
X8220710Y-8686958D01*
X8220000Y-8672500D01*
X8220000Y-8327500D01*
X8220710Y-8313042D01*
X8222834Y-8298724D01*
X8226351Y-8284683D01*
X8231228Y-8271054D01*
X8237417Y-8257969D01*
X8244858Y-8245553D01*
X8253481Y-8233927D01*
X8263202Y-8223202D01*
X8273927Y-8213481D01*
X8285553Y-8204858D01*
X8297969Y-8197417D01*
X8311054Y-8191228D01*
X8324683Y-8186351D01*
X8338724Y-8182834D01*
X8353042Y-8180710D01*
X8367500Y-8180000D01*
X8662500Y-8180000D01*
X8676958Y-8180710D01*
X8676958Y-8180710D01*
G37*
D16*
X8515000Y-8500000D03*
D13*
G36*
X3876958Y-15980710D02*
G01*
X3891276Y-15982834D01*
X3905317Y-15986351D01*
X3918946Y-15991228D01*
X3932031Y-15997417D01*
X3944447Y-16004858D01*
X3956073Y-16013481D01*
X3966798Y-16023202D01*
X3976519Y-16033927D01*
X3985142Y-16045553D01*
X3992583Y-16057969D01*
X3998772Y-16071054D01*
X4003649Y-16084683D01*
X4007166Y-16098724D01*
X4009290Y-16113042D01*
X4010000Y-16127500D01*
X4010000Y-16472500D01*
X4009290Y-16486958D01*
X4007166Y-16501276D01*
X4003649Y-16515317D01*
X3998772Y-16528946D01*
X3992583Y-16542031D01*
X3985142Y-16554447D01*
X3976519Y-16566073D01*
X3966798Y-16576798D01*
X3956073Y-16586519D01*
X3944447Y-16595142D01*
X3932031Y-16602583D01*
X3918946Y-16608772D01*
X3905317Y-16613649D01*
X3891276Y-16617166D01*
X3876958Y-16619290D01*
X3862500Y-16620000D01*
X3567500Y-16620000D01*
X3553042Y-16619290D01*
X3538724Y-16617166D01*
X3524683Y-16613649D01*
X3511054Y-16608772D01*
X3497969Y-16602583D01*
X3485553Y-16595142D01*
X3473927Y-16586519D01*
X3463202Y-16576798D01*
X3453481Y-16566073D01*
X3444858Y-16554447D01*
X3437417Y-16542031D01*
X3431228Y-16528946D01*
X3426351Y-16515317D01*
X3422834Y-16501276D01*
X3420710Y-16486958D01*
X3420000Y-16472500D01*
X3420000Y-16127500D01*
X3420710Y-16113042D01*
X3422834Y-16098724D01*
X3426351Y-16084683D01*
X3431228Y-16071054D01*
X3437417Y-16057969D01*
X3444858Y-16045553D01*
X3453481Y-16033927D01*
X3463202Y-16023202D01*
X3473927Y-16013481D01*
X3485553Y-16004858D01*
X3497969Y-15997417D01*
X3511054Y-15991228D01*
X3524683Y-15986351D01*
X3538724Y-15982834D01*
X3553042Y-15980710D01*
X3567500Y-15980000D01*
X3862500Y-15980000D01*
X3876958Y-15980710D01*
X3876958Y-15980710D01*
G37*
D16*
X3715000Y-16300000D03*
D13*
G36*
X4846958Y-15980710D02*
G01*
X4861276Y-15982834D01*
X4875317Y-15986351D01*
X4888946Y-15991228D01*
X4902031Y-15997417D01*
X4914447Y-16004858D01*
X4926073Y-16013481D01*
X4936798Y-16023202D01*
X4946519Y-16033927D01*
X4955142Y-16045553D01*
X4962583Y-16057969D01*
X4968772Y-16071054D01*
X4973649Y-16084683D01*
X4977166Y-16098724D01*
X4979290Y-16113042D01*
X4980000Y-16127500D01*
X4980000Y-16472500D01*
X4979290Y-16486958D01*
X4977166Y-16501276D01*
X4973649Y-16515317D01*
X4968772Y-16528946D01*
X4962583Y-16542031D01*
X4955142Y-16554447D01*
X4946519Y-16566073D01*
X4936798Y-16576798D01*
X4926073Y-16586519D01*
X4914447Y-16595142D01*
X4902031Y-16602583D01*
X4888946Y-16608772D01*
X4875317Y-16613649D01*
X4861276Y-16617166D01*
X4846958Y-16619290D01*
X4832500Y-16620000D01*
X4537500Y-16620000D01*
X4523042Y-16619290D01*
X4508724Y-16617166D01*
X4494683Y-16613649D01*
X4481054Y-16608772D01*
X4467969Y-16602583D01*
X4455553Y-16595142D01*
X4443927Y-16586519D01*
X4433202Y-16576798D01*
X4423481Y-16566073D01*
X4414858Y-16554447D01*
X4407417Y-16542031D01*
X4401228Y-16528946D01*
X4396351Y-16515317D01*
X4392834Y-16501276D01*
X4390710Y-16486958D01*
X4390000Y-16472500D01*
X4390000Y-16127500D01*
X4390710Y-16113042D01*
X4392834Y-16098724D01*
X4396351Y-16084683D01*
X4401228Y-16071054D01*
X4407417Y-16057969D01*
X4414858Y-16045553D01*
X4423481Y-16033927D01*
X4433202Y-16023202D01*
X4443927Y-16013481D01*
X4455553Y-16004858D01*
X4467969Y-15997417D01*
X4481054Y-15991228D01*
X4494683Y-15986351D01*
X4508724Y-15982834D01*
X4523042Y-15980710D01*
X4537500Y-15980000D01*
X4832500Y-15980000D01*
X4846958Y-15980710D01*
X4846958Y-15980710D01*
G37*
D16*
X4685000Y-16300000D03*
D13*
G36*
X3386958Y-10670710D02*
G01*
X3401276Y-10672834D01*
X3415317Y-10676351D01*
X3428946Y-10681228D01*
X3442031Y-10687417D01*
X3454447Y-10694858D01*
X3466073Y-10703481D01*
X3476798Y-10713202D01*
X3486519Y-10723927D01*
X3495142Y-10735553D01*
X3502583Y-10747969D01*
X3508772Y-10761054D01*
X3513649Y-10774683D01*
X3517166Y-10788724D01*
X3519290Y-10803042D01*
X3520000Y-10817500D01*
X3520000Y-11112500D01*
X3519290Y-11126958D01*
X3517166Y-11141276D01*
X3513649Y-11155317D01*
X3508772Y-11168946D01*
X3502583Y-11182031D01*
X3495142Y-11194447D01*
X3486519Y-11206073D01*
X3476798Y-11216798D01*
X3466073Y-11226519D01*
X3454447Y-11235142D01*
X3442031Y-11242583D01*
X3428946Y-11248772D01*
X3415317Y-11253649D01*
X3401276Y-11257166D01*
X3386958Y-11259290D01*
X3372500Y-11260000D01*
X3027500Y-11260000D01*
X3013042Y-11259290D01*
X2998724Y-11257166D01*
X2984683Y-11253649D01*
X2971054Y-11248772D01*
X2957969Y-11242583D01*
X2945553Y-11235142D01*
X2933927Y-11226519D01*
X2923202Y-11216798D01*
X2913481Y-11206073D01*
X2904858Y-11194447D01*
X2897417Y-11182031D01*
X2891228Y-11168946D01*
X2886351Y-11155317D01*
X2882834Y-11141276D01*
X2880710Y-11126958D01*
X2880000Y-11112500D01*
X2880000Y-10817500D01*
X2880710Y-10803042D01*
X2882834Y-10788724D01*
X2886351Y-10774683D01*
X2891228Y-10761054D01*
X2897417Y-10747969D01*
X2904858Y-10735553D01*
X2913481Y-10723927D01*
X2923202Y-10713202D01*
X2933927Y-10703481D01*
X2945553Y-10694858D01*
X2957969Y-10687417D01*
X2971054Y-10681228D01*
X2984683Y-10676351D01*
X2998724Y-10672834D01*
X3013042Y-10670710D01*
X3027500Y-10670000D01*
X3372500Y-10670000D01*
X3386958Y-10670710D01*
X3386958Y-10670710D01*
G37*
D16*
X3200000Y-10965000D03*
D13*
G36*
X3386958Y-11640710D02*
G01*
X3401276Y-11642834D01*
X3415317Y-11646351D01*
X3428946Y-11651228D01*
X3442031Y-11657417D01*
X3454447Y-11664858D01*
X3466073Y-11673481D01*
X3476798Y-11683202D01*
X3486519Y-11693927D01*
X3495142Y-11705553D01*
X3502583Y-11717969D01*
X3508772Y-11731054D01*
X3513649Y-11744683D01*
X3517166Y-11758724D01*
X3519290Y-11773042D01*
X3520000Y-11787500D01*
X3520000Y-12082500D01*
X3519290Y-12096958D01*
X3517166Y-12111276D01*
X3513649Y-12125317D01*
X3508772Y-12138946D01*
X3502583Y-12152031D01*
X3495142Y-12164447D01*
X3486519Y-12176073D01*
X3476798Y-12186798D01*
X3466073Y-12196519D01*
X3454447Y-12205142D01*
X3442031Y-12212583D01*
X3428946Y-12218772D01*
X3415317Y-12223649D01*
X3401276Y-12227166D01*
X3386958Y-12229290D01*
X3372500Y-12230000D01*
X3027500Y-12230000D01*
X3013042Y-12229290D01*
X2998724Y-12227166D01*
X2984683Y-12223649D01*
X2971054Y-12218772D01*
X2957969Y-12212583D01*
X2945553Y-12205142D01*
X2933927Y-12196519D01*
X2923202Y-12186798D01*
X2913481Y-12176073D01*
X2904858Y-12164447D01*
X2897417Y-12152031D01*
X2891228Y-12138946D01*
X2886351Y-12125317D01*
X2882834Y-12111276D01*
X2880710Y-12096958D01*
X2880000Y-12082500D01*
X2880000Y-11787500D01*
X2880710Y-11773042D01*
X2882834Y-11758724D01*
X2886351Y-11744683D01*
X2891228Y-11731054D01*
X2897417Y-11717969D01*
X2904858Y-11705553D01*
X2913481Y-11693927D01*
X2923202Y-11683202D01*
X2933927Y-11673481D01*
X2945553Y-11664858D01*
X2957969Y-11657417D01*
X2971054Y-11651228D01*
X2984683Y-11646351D01*
X2998724Y-11642834D01*
X3013042Y-11640710D01*
X3027500Y-11640000D01*
X3372500Y-11640000D01*
X3386958Y-11640710D01*
X3386958Y-11640710D01*
G37*
D16*
X3200000Y-11935000D03*
D13*
G36*
X6086958Y-12605710D02*
G01*
X6101276Y-12607834D01*
X6115317Y-12611351D01*
X6128946Y-12616228D01*
X6142031Y-12622417D01*
X6154447Y-12629858D01*
X6166073Y-12638481D01*
X6176798Y-12648202D01*
X6186519Y-12658927D01*
X6195142Y-12670553D01*
X6202583Y-12682969D01*
X6208772Y-12696054D01*
X6213649Y-12709683D01*
X6217166Y-12723724D01*
X6219290Y-12738042D01*
X6220000Y-12752500D01*
X6220000Y-13047500D01*
X6219290Y-13061958D01*
X6217166Y-13076276D01*
X6213649Y-13090317D01*
X6208772Y-13103946D01*
X6202583Y-13117031D01*
X6195142Y-13129447D01*
X6186519Y-13141073D01*
X6176798Y-13151798D01*
X6166073Y-13161519D01*
X6154447Y-13170142D01*
X6142031Y-13177583D01*
X6128946Y-13183772D01*
X6115317Y-13188649D01*
X6101276Y-13192166D01*
X6086958Y-13194290D01*
X6072500Y-13195000D01*
X5727500Y-13195000D01*
X5713042Y-13194290D01*
X5698724Y-13192166D01*
X5684683Y-13188649D01*
X5671054Y-13183772D01*
X5657969Y-13177583D01*
X5645553Y-13170142D01*
X5633927Y-13161519D01*
X5623202Y-13151798D01*
X5613481Y-13141073D01*
X5604858Y-13129447D01*
X5597417Y-13117031D01*
X5591228Y-13103946D01*
X5586351Y-13090317D01*
X5582834Y-13076276D01*
X5580710Y-13061958D01*
X5580000Y-13047500D01*
X5580000Y-12752500D01*
X5580710Y-12738042D01*
X5582834Y-12723724D01*
X5586351Y-12709683D01*
X5591228Y-12696054D01*
X5597417Y-12682969D01*
X5604858Y-12670553D01*
X5613481Y-12658927D01*
X5623202Y-12648202D01*
X5633927Y-12638481D01*
X5645553Y-12629858D01*
X5657969Y-12622417D01*
X5671054Y-12616228D01*
X5684683Y-12611351D01*
X5698724Y-12607834D01*
X5713042Y-12605710D01*
X5727500Y-12605000D01*
X6072500Y-12605000D01*
X6086958Y-12605710D01*
X6086958Y-12605710D01*
G37*
D16*
X5900000Y-12900000D03*
D13*
G36*
X6086958Y-13575710D02*
G01*
X6101276Y-13577834D01*
X6115317Y-13581351D01*
X6128946Y-13586228D01*
X6142031Y-13592417D01*
X6154447Y-13599858D01*
X6166073Y-13608481D01*
X6176798Y-13618202D01*
X6186519Y-13628927D01*
X6195142Y-13640553D01*
X6202583Y-13652969D01*
X6208772Y-13666054D01*
X6213649Y-13679683D01*
X6217166Y-13693724D01*
X6219290Y-13708042D01*
X6220000Y-13722500D01*
X6220000Y-14017500D01*
X6219290Y-14031958D01*
X6217166Y-14046276D01*
X6213649Y-14060317D01*
X6208772Y-14073946D01*
X6202583Y-14087031D01*
X6195142Y-14099447D01*
X6186519Y-14111073D01*
X6176798Y-14121798D01*
X6166073Y-14131519D01*
X6154447Y-14140142D01*
X6142031Y-14147583D01*
X6128946Y-14153772D01*
X6115317Y-14158649D01*
X6101276Y-14162166D01*
X6086958Y-14164290D01*
X6072500Y-14165000D01*
X5727500Y-14165000D01*
X5713042Y-14164290D01*
X5698724Y-14162166D01*
X5684683Y-14158649D01*
X5671054Y-14153772D01*
X5657969Y-14147583D01*
X5645553Y-14140142D01*
X5633927Y-14131519D01*
X5623202Y-14121798D01*
X5613481Y-14111073D01*
X5604858Y-14099447D01*
X5597417Y-14087031D01*
X5591228Y-14073946D01*
X5586351Y-14060317D01*
X5582834Y-14046276D01*
X5580710Y-14031958D01*
X5580000Y-14017500D01*
X5580000Y-13722500D01*
X5580710Y-13708042D01*
X5582834Y-13693724D01*
X5586351Y-13679683D01*
X5591228Y-13666054D01*
X5597417Y-13652969D01*
X5604858Y-13640553D01*
X5613481Y-13628927D01*
X5623202Y-13618202D01*
X5633927Y-13608481D01*
X5645553Y-13599858D01*
X5657969Y-13592417D01*
X5671054Y-13586228D01*
X5684683Y-13581351D01*
X5698724Y-13577834D01*
X5713042Y-13575710D01*
X5727500Y-13575000D01*
X6072500Y-13575000D01*
X6086958Y-13575710D01*
X6086958Y-13575710D01*
G37*
D16*
X5900000Y-13870000D03*
D13*
G36*
X5946958Y-8080710D02*
G01*
X5961276Y-8082834D01*
X5975317Y-8086351D01*
X5988946Y-8091228D01*
X6002031Y-8097417D01*
X6014447Y-8104858D01*
X6026073Y-8113481D01*
X6036798Y-8123202D01*
X6046519Y-8133927D01*
X6055142Y-8145553D01*
X6062583Y-8157969D01*
X6068772Y-8171054D01*
X6073649Y-8184683D01*
X6077166Y-8198724D01*
X6079290Y-8213042D01*
X6080000Y-8227500D01*
X6080000Y-8572500D01*
X6079290Y-8586958D01*
X6077166Y-8601276D01*
X6073649Y-8615317D01*
X6068772Y-8628946D01*
X6062583Y-8642031D01*
X6055142Y-8654447D01*
X6046519Y-8666073D01*
X6036798Y-8676798D01*
X6026073Y-8686519D01*
X6014447Y-8695142D01*
X6002031Y-8702583D01*
X5988946Y-8708772D01*
X5975317Y-8713649D01*
X5961276Y-8717166D01*
X5946958Y-8719290D01*
X5932500Y-8720000D01*
X5637500Y-8720000D01*
X5623042Y-8719290D01*
X5608724Y-8717166D01*
X5594683Y-8713649D01*
X5581054Y-8708772D01*
X5567969Y-8702583D01*
X5555553Y-8695142D01*
X5543927Y-8686519D01*
X5533202Y-8676798D01*
X5523481Y-8666073D01*
X5514858Y-8654447D01*
X5507417Y-8642031D01*
X5501228Y-8628946D01*
X5496351Y-8615317D01*
X5492834Y-8601276D01*
X5490710Y-8586958D01*
X5490000Y-8572500D01*
X5490000Y-8227500D01*
X5490710Y-8213042D01*
X5492834Y-8198724D01*
X5496351Y-8184683D01*
X5501228Y-8171054D01*
X5507417Y-8157969D01*
X5514858Y-8145553D01*
X5523481Y-8133927D01*
X5533202Y-8123202D01*
X5543927Y-8113481D01*
X5555553Y-8104858D01*
X5567969Y-8097417D01*
X5581054Y-8091228D01*
X5594683Y-8086351D01*
X5608724Y-8082834D01*
X5623042Y-8080710D01*
X5637500Y-8080000D01*
X5932500Y-8080000D01*
X5946958Y-8080710D01*
X5946958Y-8080710D01*
G37*
D16*
X5785000Y-8400000D03*
D13*
G36*
X4976958Y-8080710D02*
G01*
X4991276Y-8082834D01*
X5005317Y-8086351D01*
X5018946Y-8091228D01*
X5032031Y-8097417D01*
X5044447Y-8104858D01*
X5056073Y-8113481D01*
X5066798Y-8123202D01*
X5076519Y-8133927D01*
X5085142Y-8145553D01*
X5092583Y-8157969D01*
X5098772Y-8171054D01*
X5103649Y-8184683D01*
X5107166Y-8198724D01*
X5109290Y-8213042D01*
X5110000Y-8227500D01*
X5110000Y-8572500D01*
X5109290Y-8586958D01*
X5107166Y-8601276D01*
X5103649Y-8615317D01*
X5098772Y-8628946D01*
X5092583Y-8642031D01*
X5085142Y-8654447D01*
X5076519Y-8666073D01*
X5066798Y-8676798D01*
X5056073Y-8686519D01*
X5044447Y-8695142D01*
X5032031Y-8702583D01*
X5018946Y-8708772D01*
X5005317Y-8713649D01*
X4991276Y-8717166D01*
X4976958Y-8719290D01*
X4962500Y-8720000D01*
X4667500Y-8720000D01*
X4653042Y-8719290D01*
X4638724Y-8717166D01*
X4624683Y-8713649D01*
X4611054Y-8708772D01*
X4597969Y-8702583D01*
X4585553Y-8695142D01*
X4573927Y-8686519D01*
X4563202Y-8676798D01*
X4553481Y-8666073D01*
X4544858Y-8654447D01*
X4537417Y-8642031D01*
X4531228Y-8628946D01*
X4526351Y-8615317D01*
X4522834Y-8601276D01*
X4520710Y-8586958D01*
X4520000Y-8572500D01*
X4520000Y-8227500D01*
X4520710Y-8213042D01*
X4522834Y-8198724D01*
X4526351Y-8184683D01*
X4531228Y-8171054D01*
X4537417Y-8157969D01*
X4544858Y-8145553D01*
X4553481Y-8133927D01*
X4563202Y-8123202D01*
X4573927Y-8113481D01*
X4585553Y-8104858D01*
X4597969Y-8097417D01*
X4611054Y-8091228D01*
X4624683Y-8086351D01*
X4638724Y-8082834D01*
X4653042Y-8080710D01*
X4667500Y-8080000D01*
X4962500Y-8080000D01*
X4976958Y-8080710D01*
X4976958Y-8080710D01*
G37*
D16*
X4815000Y-8400000D03*
D13*
G36*
X1112084Y-30012893D02*
G01*
X1126402Y-30015017D01*
X1140443Y-30018534D01*
X1154072Y-30023411D01*
X1167157Y-30029600D01*
X1179573Y-30037041D01*
X1191199Y-30045664D01*
X1201924Y-30055385D01*
X1211645Y-30066110D01*
X1220268Y-30077736D01*
X1227709Y-30090152D01*
X1233898Y-30103237D01*
X1238775Y-30116866D01*
X1242292Y-30130907D01*
X1244416Y-30145225D01*
X1245126Y-30159683D01*
X1245126Y-30454683D01*
X1244416Y-30469141D01*
X1242292Y-30483459D01*
X1238775Y-30497500D01*
X1233898Y-30511129D01*
X1227709Y-30524214D01*
X1220268Y-30536630D01*
X1211645Y-30548256D01*
X1201924Y-30558981D01*
X1191199Y-30568702D01*
X1179573Y-30577325D01*
X1167157Y-30584766D01*
X1154072Y-30590955D01*
X1140443Y-30595832D01*
X1126402Y-30599349D01*
X1112084Y-30601473D01*
X1097626Y-30602183D01*
X752626Y-30602183D01*
X738168Y-30601473D01*
X723850Y-30599349D01*
X709809Y-30595832D01*
X696180Y-30590955D01*
X683095Y-30584766D01*
X670679Y-30577325D01*
X659053Y-30568702D01*
X648328Y-30558981D01*
X638607Y-30548256D01*
X629984Y-30536630D01*
X622543Y-30524214D01*
X616354Y-30511129D01*
X611477Y-30497500D01*
X607960Y-30483459D01*
X605836Y-30469141D01*
X605126Y-30454683D01*
X605126Y-30159683D01*
X605836Y-30145225D01*
X607960Y-30130907D01*
X611477Y-30116866D01*
X616354Y-30103237D01*
X622543Y-30090152D01*
X629984Y-30077736D01*
X638607Y-30066110D01*
X648328Y-30055385D01*
X659053Y-30045664D01*
X670679Y-30037041D01*
X683095Y-30029600D01*
X696180Y-30023411D01*
X709809Y-30018534D01*
X723850Y-30015017D01*
X738168Y-30012893D01*
X752626Y-30012183D01*
X1097626Y-30012183D01*
X1112084Y-30012893D01*
X1112084Y-30012893D01*
G37*
D16*
X925126Y-30307183D03*
D13*
G36*
X1112084Y-29042893D02*
G01*
X1126402Y-29045017D01*
X1140443Y-29048534D01*
X1154072Y-29053411D01*
X1167157Y-29059600D01*
X1179573Y-29067041D01*
X1191199Y-29075664D01*
X1201924Y-29085385D01*
X1211645Y-29096110D01*
X1220268Y-29107736D01*
X1227709Y-29120152D01*
X1233898Y-29133237D01*
X1238775Y-29146866D01*
X1242292Y-29160907D01*
X1244416Y-29175225D01*
X1245126Y-29189683D01*
X1245126Y-29484683D01*
X1244416Y-29499141D01*
X1242292Y-29513459D01*
X1238775Y-29527500D01*
X1233898Y-29541129D01*
X1227709Y-29554214D01*
X1220268Y-29566630D01*
X1211645Y-29578256D01*
X1201924Y-29588981D01*
X1191199Y-29598702D01*
X1179573Y-29607325D01*
X1167157Y-29614766D01*
X1154072Y-29620955D01*
X1140443Y-29625832D01*
X1126402Y-29629349D01*
X1112084Y-29631473D01*
X1097626Y-29632183D01*
X752626Y-29632183D01*
X738168Y-29631473D01*
X723850Y-29629349D01*
X709809Y-29625832D01*
X696180Y-29620955D01*
X683095Y-29614766D01*
X670679Y-29607325D01*
X659053Y-29598702D01*
X648328Y-29588981D01*
X638607Y-29578256D01*
X629984Y-29566630D01*
X622543Y-29554214D01*
X616354Y-29541129D01*
X611477Y-29527500D01*
X607960Y-29513459D01*
X605836Y-29499141D01*
X605126Y-29484683D01*
X605126Y-29189683D01*
X605836Y-29175225D01*
X607960Y-29160907D01*
X611477Y-29146866D01*
X616354Y-29133237D01*
X622543Y-29120152D01*
X629984Y-29107736D01*
X638607Y-29096110D01*
X648328Y-29085385D01*
X659053Y-29075664D01*
X670679Y-29067041D01*
X683095Y-29059600D01*
X696180Y-29053411D01*
X709809Y-29048534D01*
X723850Y-29045017D01*
X738168Y-29042893D01*
X752626Y-29042183D01*
X1097626Y-29042183D01*
X1112084Y-29042893D01*
X1112084Y-29042893D01*
G37*
D16*
X925126Y-29337183D03*
D13*
G36*
X-3327915Y-29602891D02*
G01*
X-3313597Y-29605015D01*
X-3299556Y-29608532D01*
X-3285927Y-29613409D01*
X-3272842Y-29619598D01*
X-3260426Y-29627039D01*
X-3248800Y-29635662D01*
X-3238075Y-29645383D01*
X-3228354Y-29656108D01*
X-3219731Y-29667734D01*
X-3212290Y-29680150D01*
X-3206101Y-29693235D01*
X-3201224Y-29706864D01*
X-3197707Y-29720905D01*
X-3195583Y-29735223D01*
X-3194873Y-29749681D01*
X-3194873Y-30094681D01*
X-3195583Y-30109139D01*
X-3197707Y-30123457D01*
X-3201224Y-30137498D01*
X-3206101Y-30151127D01*
X-3212290Y-30164212D01*
X-3219731Y-30176628D01*
X-3228354Y-30188254D01*
X-3238075Y-30198979D01*
X-3248800Y-30208700D01*
X-3260426Y-30217323D01*
X-3272842Y-30224764D01*
X-3285927Y-30230953D01*
X-3299556Y-30235830D01*
X-3313597Y-30239347D01*
X-3327915Y-30241471D01*
X-3342373Y-30242181D01*
X-3637373Y-30242181D01*
X-3651831Y-30241471D01*
X-3666149Y-30239347D01*
X-3680190Y-30235830D01*
X-3693819Y-30230953D01*
X-3706904Y-30224764D01*
X-3719320Y-30217323D01*
X-3730946Y-30208700D01*
X-3741671Y-30198979D01*
X-3751392Y-30188254D01*
X-3760015Y-30176628D01*
X-3767456Y-30164212D01*
X-3773645Y-30151127D01*
X-3778522Y-30137498D01*
X-3782039Y-30123457D01*
X-3784163Y-30109139D01*
X-3784873Y-30094681D01*
X-3784873Y-29749681D01*
X-3784163Y-29735223D01*
X-3782039Y-29720905D01*
X-3778522Y-29706864D01*
X-3773645Y-29693235D01*
X-3767456Y-29680150D01*
X-3760015Y-29667734D01*
X-3751392Y-29656108D01*
X-3741671Y-29645383D01*
X-3730946Y-29635662D01*
X-3719320Y-29627039D01*
X-3706904Y-29619598D01*
X-3693819Y-29613409D01*
X-3680190Y-29608532D01*
X-3666149Y-29605015D01*
X-3651831Y-29602891D01*
X-3637373Y-29602181D01*
X-3342373Y-29602181D01*
X-3327915Y-29602891D01*
X-3327915Y-29602891D01*
G37*
D16*
X-3489873Y-29922181D03*
D13*
G36*
X-4297915Y-29602891D02*
G01*
X-4283597Y-29605015D01*
X-4269556Y-29608532D01*
X-4255927Y-29613409D01*
X-4242842Y-29619598D01*
X-4230426Y-29627039D01*
X-4218800Y-29635662D01*
X-4208075Y-29645383D01*
X-4198354Y-29656108D01*
X-4189731Y-29667734D01*
X-4182290Y-29680150D01*
X-4176101Y-29693235D01*
X-4171224Y-29706864D01*
X-4167707Y-29720905D01*
X-4165583Y-29735223D01*
X-4164873Y-29749681D01*
X-4164873Y-30094681D01*
X-4165583Y-30109139D01*
X-4167707Y-30123457D01*
X-4171224Y-30137498D01*
X-4176101Y-30151127D01*
X-4182290Y-30164212D01*
X-4189731Y-30176628D01*
X-4198354Y-30188254D01*
X-4208075Y-30198979D01*
X-4218800Y-30208700D01*
X-4230426Y-30217323D01*
X-4242842Y-30224764D01*
X-4255927Y-30230953D01*
X-4269556Y-30235830D01*
X-4283597Y-30239347D01*
X-4297915Y-30241471D01*
X-4312373Y-30242181D01*
X-4607373Y-30242181D01*
X-4621831Y-30241471D01*
X-4636149Y-30239347D01*
X-4650190Y-30235830D01*
X-4663819Y-30230953D01*
X-4676904Y-30224764D01*
X-4689320Y-30217323D01*
X-4700946Y-30208700D01*
X-4711671Y-30198979D01*
X-4721392Y-30188254D01*
X-4730015Y-30176628D01*
X-4737456Y-30164212D01*
X-4743645Y-30151127D01*
X-4748522Y-30137498D01*
X-4752039Y-30123457D01*
X-4754163Y-30109139D01*
X-4754873Y-30094681D01*
X-4754873Y-29749681D01*
X-4754163Y-29735223D01*
X-4752039Y-29720905D01*
X-4748522Y-29706864D01*
X-4743645Y-29693235D01*
X-4737456Y-29680150D01*
X-4730015Y-29667734D01*
X-4721392Y-29656108D01*
X-4711671Y-29645383D01*
X-4700946Y-29635662D01*
X-4689320Y-29627039D01*
X-4676904Y-29619598D01*
X-4663819Y-29613409D01*
X-4650190Y-29608532D01*
X-4636149Y-29605015D01*
X-4621831Y-29602891D01*
X-4607373Y-29602181D01*
X-4312373Y-29602181D01*
X-4297915Y-29602891D01*
X-4297915Y-29602891D01*
G37*
D16*
X-4459873Y-29922181D03*
D13*
G36*
X1876958Y-20280710D02*
G01*
X1891276Y-20282834D01*
X1905317Y-20286351D01*
X1918946Y-20291228D01*
X1932031Y-20297417D01*
X1944447Y-20304858D01*
X1956073Y-20313481D01*
X1966798Y-20323202D01*
X1976519Y-20333927D01*
X1985142Y-20345553D01*
X1992583Y-20357969D01*
X1998772Y-20371054D01*
X2003649Y-20384683D01*
X2007166Y-20398724D01*
X2009290Y-20413042D01*
X2010000Y-20427500D01*
X2010000Y-20772500D01*
X2009290Y-20786958D01*
X2007166Y-20801276D01*
X2003649Y-20815317D01*
X1998772Y-20828946D01*
X1992583Y-20842031D01*
X1985142Y-20854447D01*
X1976519Y-20866073D01*
X1966798Y-20876798D01*
X1956073Y-20886519D01*
X1944447Y-20895142D01*
X1932031Y-20902583D01*
X1918946Y-20908772D01*
X1905317Y-20913649D01*
X1891276Y-20917166D01*
X1876958Y-20919290D01*
X1862500Y-20920000D01*
X1567500Y-20920000D01*
X1553042Y-20919290D01*
X1538724Y-20917166D01*
X1524683Y-20913649D01*
X1511054Y-20908772D01*
X1497969Y-20902583D01*
X1485553Y-20895142D01*
X1473927Y-20886519D01*
X1463202Y-20876798D01*
X1453481Y-20866073D01*
X1444858Y-20854447D01*
X1437417Y-20842031D01*
X1431228Y-20828946D01*
X1426351Y-20815317D01*
X1422834Y-20801276D01*
X1420710Y-20786958D01*
X1420000Y-20772500D01*
X1420000Y-20427500D01*
X1420710Y-20413042D01*
X1422834Y-20398724D01*
X1426351Y-20384683D01*
X1431228Y-20371054D01*
X1437417Y-20357969D01*
X1444858Y-20345553D01*
X1453481Y-20333927D01*
X1463202Y-20323202D01*
X1473927Y-20313481D01*
X1485553Y-20304858D01*
X1497969Y-20297417D01*
X1511054Y-20291228D01*
X1524683Y-20286351D01*
X1538724Y-20282834D01*
X1553042Y-20280710D01*
X1567500Y-20280000D01*
X1862500Y-20280000D01*
X1876958Y-20280710D01*
X1876958Y-20280710D01*
G37*
D16*
X1715000Y-20600000D03*
D13*
G36*
X2846958Y-20280710D02*
G01*
X2861276Y-20282834D01*
X2875317Y-20286351D01*
X2888946Y-20291228D01*
X2902031Y-20297417D01*
X2914447Y-20304858D01*
X2926073Y-20313481D01*
X2936798Y-20323202D01*
X2946519Y-20333927D01*
X2955142Y-20345553D01*
X2962583Y-20357969D01*
X2968772Y-20371054D01*
X2973649Y-20384683D01*
X2977166Y-20398724D01*
X2979290Y-20413042D01*
X2980000Y-20427500D01*
X2980000Y-20772500D01*
X2979290Y-20786958D01*
X2977166Y-20801276D01*
X2973649Y-20815317D01*
X2968772Y-20828946D01*
X2962583Y-20842031D01*
X2955142Y-20854447D01*
X2946519Y-20866073D01*
X2936798Y-20876798D01*
X2926073Y-20886519D01*
X2914447Y-20895142D01*
X2902031Y-20902583D01*
X2888946Y-20908772D01*
X2875317Y-20913649D01*
X2861276Y-20917166D01*
X2846958Y-20919290D01*
X2832500Y-20920000D01*
X2537500Y-20920000D01*
X2523042Y-20919290D01*
X2508724Y-20917166D01*
X2494683Y-20913649D01*
X2481054Y-20908772D01*
X2467969Y-20902583D01*
X2455553Y-20895142D01*
X2443927Y-20886519D01*
X2433202Y-20876798D01*
X2423481Y-20866073D01*
X2414858Y-20854447D01*
X2407417Y-20842031D01*
X2401228Y-20828946D01*
X2396351Y-20815317D01*
X2392834Y-20801276D01*
X2390710Y-20786958D01*
X2390000Y-20772500D01*
X2390000Y-20427500D01*
X2390710Y-20413042D01*
X2392834Y-20398724D01*
X2396351Y-20384683D01*
X2401228Y-20371054D01*
X2407417Y-20357969D01*
X2414858Y-20345553D01*
X2423481Y-20333927D01*
X2433202Y-20323202D01*
X2443927Y-20313481D01*
X2455553Y-20304858D01*
X2467969Y-20297417D01*
X2481054Y-20291228D01*
X2494683Y-20286351D01*
X2508724Y-20282834D01*
X2523042Y-20280710D01*
X2537500Y-20280000D01*
X2832500Y-20280000D01*
X2846958Y-20280710D01*
X2846958Y-20280710D01*
G37*
D16*
X2685000Y-20600000D03*
D13*
G36*
X1876958Y-21580710D02*
G01*
X1891276Y-21582834D01*
X1905317Y-21586351D01*
X1918946Y-21591228D01*
X1932031Y-21597417D01*
X1944447Y-21604858D01*
X1956073Y-21613481D01*
X1966798Y-21623202D01*
X1976519Y-21633927D01*
X1985142Y-21645553D01*
X1992583Y-21657969D01*
X1998772Y-21671054D01*
X2003649Y-21684683D01*
X2007166Y-21698724D01*
X2009290Y-21713042D01*
X2010000Y-21727500D01*
X2010000Y-22072500D01*
X2009290Y-22086958D01*
X2007166Y-22101276D01*
X2003649Y-22115317D01*
X1998772Y-22128946D01*
X1992583Y-22142031D01*
X1985142Y-22154447D01*
X1976519Y-22166073D01*
X1966798Y-22176798D01*
X1956073Y-22186519D01*
X1944447Y-22195142D01*
X1932031Y-22202583D01*
X1918946Y-22208772D01*
X1905317Y-22213649D01*
X1891276Y-22217166D01*
X1876958Y-22219290D01*
X1862500Y-22220000D01*
X1567500Y-22220000D01*
X1553042Y-22219290D01*
X1538724Y-22217166D01*
X1524683Y-22213649D01*
X1511054Y-22208772D01*
X1497969Y-22202583D01*
X1485553Y-22195142D01*
X1473927Y-22186519D01*
X1463202Y-22176798D01*
X1453481Y-22166073D01*
X1444858Y-22154447D01*
X1437417Y-22142031D01*
X1431228Y-22128946D01*
X1426351Y-22115317D01*
X1422834Y-22101276D01*
X1420710Y-22086958D01*
X1420000Y-22072500D01*
X1420000Y-21727500D01*
X1420710Y-21713042D01*
X1422834Y-21698724D01*
X1426351Y-21684683D01*
X1431228Y-21671054D01*
X1437417Y-21657969D01*
X1444858Y-21645553D01*
X1453481Y-21633927D01*
X1463202Y-21623202D01*
X1473927Y-21613481D01*
X1485553Y-21604858D01*
X1497969Y-21597417D01*
X1511054Y-21591228D01*
X1524683Y-21586351D01*
X1538724Y-21582834D01*
X1553042Y-21580710D01*
X1567500Y-21580000D01*
X1862500Y-21580000D01*
X1876958Y-21580710D01*
X1876958Y-21580710D01*
G37*
D16*
X1715000Y-21900000D03*
D13*
G36*
X2846958Y-21580710D02*
G01*
X2861276Y-21582834D01*
X2875317Y-21586351D01*
X2888946Y-21591228D01*
X2902031Y-21597417D01*
X2914447Y-21604858D01*
X2926073Y-21613481D01*
X2936798Y-21623202D01*
X2946519Y-21633927D01*
X2955142Y-21645553D01*
X2962583Y-21657969D01*
X2968772Y-21671054D01*
X2973649Y-21684683D01*
X2977166Y-21698724D01*
X2979290Y-21713042D01*
X2980000Y-21727500D01*
X2980000Y-22072500D01*
X2979290Y-22086958D01*
X2977166Y-22101276D01*
X2973649Y-22115317D01*
X2968772Y-22128946D01*
X2962583Y-22142031D01*
X2955142Y-22154447D01*
X2946519Y-22166073D01*
X2936798Y-22176798D01*
X2926073Y-22186519D01*
X2914447Y-22195142D01*
X2902031Y-22202583D01*
X2888946Y-22208772D01*
X2875317Y-22213649D01*
X2861276Y-22217166D01*
X2846958Y-22219290D01*
X2832500Y-22220000D01*
X2537500Y-22220000D01*
X2523042Y-22219290D01*
X2508724Y-22217166D01*
X2494683Y-22213649D01*
X2481054Y-22208772D01*
X2467969Y-22202583D01*
X2455553Y-22195142D01*
X2443927Y-22186519D01*
X2433202Y-22176798D01*
X2423481Y-22166073D01*
X2414858Y-22154447D01*
X2407417Y-22142031D01*
X2401228Y-22128946D01*
X2396351Y-22115317D01*
X2392834Y-22101276D01*
X2390710Y-22086958D01*
X2390000Y-22072500D01*
X2390000Y-21727500D01*
X2390710Y-21713042D01*
X2392834Y-21698724D01*
X2396351Y-21684683D01*
X2401228Y-21671054D01*
X2407417Y-21657969D01*
X2414858Y-21645553D01*
X2423481Y-21633927D01*
X2433202Y-21623202D01*
X2443927Y-21613481D01*
X2455553Y-21604858D01*
X2467969Y-21597417D01*
X2481054Y-21591228D01*
X2494683Y-21586351D01*
X2508724Y-21582834D01*
X2523042Y-21580710D01*
X2537500Y-21580000D01*
X2832500Y-21580000D01*
X2846958Y-21580710D01*
X2846958Y-21580710D01*
G37*
D16*
X2685000Y-21900000D03*
D13*
G36*
X2976958Y-24080710D02*
G01*
X2991276Y-24082834D01*
X3005317Y-24086351D01*
X3018946Y-24091228D01*
X3032031Y-24097417D01*
X3044447Y-24104858D01*
X3056073Y-24113481D01*
X3066798Y-24123202D01*
X3076519Y-24133927D01*
X3085142Y-24145553D01*
X3092583Y-24157969D01*
X3098772Y-24171054D01*
X3103649Y-24184683D01*
X3107166Y-24198724D01*
X3109290Y-24213042D01*
X3110000Y-24227500D01*
X3110000Y-24572500D01*
X3109290Y-24586958D01*
X3107166Y-24601276D01*
X3103649Y-24615317D01*
X3098772Y-24628946D01*
X3092583Y-24642031D01*
X3085142Y-24654447D01*
X3076519Y-24666073D01*
X3066798Y-24676798D01*
X3056073Y-24686519D01*
X3044447Y-24695142D01*
X3032031Y-24702583D01*
X3018946Y-24708772D01*
X3005317Y-24713649D01*
X2991276Y-24717166D01*
X2976958Y-24719290D01*
X2962500Y-24720000D01*
X2667500Y-24720000D01*
X2653042Y-24719290D01*
X2638724Y-24717166D01*
X2624683Y-24713649D01*
X2611054Y-24708772D01*
X2597969Y-24702583D01*
X2585553Y-24695142D01*
X2573927Y-24686519D01*
X2563202Y-24676798D01*
X2553481Y-24666073D01*
X2544858Y-24654447D01*
X2537417Y-24642031D01*
X2531228Y-24628946D01*
X2526351Y-24615317D01*
X2522834Y-24601276D01*
X2520710Y-24586958D01*
X2520000Y-24572500D01*
X2520000Y-24227500D01*
X2520710Y-24213042D01*
X2522834Y-24198724D01*
X2526351Y-24184683D01*
X2531228Y-24171054D01*
X2537417Y-24157969D01*
X2544858Y-24145553D01*
X2553481Y-24133927D01*
X2563202Y-24123202D01*
X2573927Y-24113481D01*
X2585553Y-24104858D01*
X2597969Y-24097417D01*
X2611054Y-24091228D01*
X2624683Y-24086351D01*
X2638724Y-24082834D01*
X2653042Y-24080710D01*
X2667500Y-24080000D01*
X2962500Y-24080000D01*
X2976958Y-24080710D01*
X2976958Y-24080710D01*
G37*
D16*
X2815000Y-24400000D03*
D13*
G36*
X3946958Y-24080710D02*
G01*
X3961276Y-24082834D01*
X3975317Y-24086351D01*
X3988946Y-24091228D01*
X4002031Y-24097417D01*
X4014447Y-24104858D01*
X4026073Y-24113481D01*
X4036798Y-24123202D01*
X4046519Y-24133927D01*
X4055142Y-24145553D01*
X4062583Y-24157969D01*
X4068772Y-24171054D01*
X4073649Y-24184683D01*
X4077166Y-24198724D01*
X4079290Y-24213042D01*
X4080000Y-24227500D01*
X4080000Y-24572500D01*
X4079290Y-24586958D01*
X4077166Y-24601276D01*
X4073649Y-24615317D01*
X4068772Y-24628946D01*
X4062583Y-24642031D01*
X4055142Y-24654447D01*
X4046519Y-24666073D01*
X4036798Y-24676798D01*
X4026073Y-24686519D01*
X4014447Y-24695142D01*
X4002031Y-24702583D01*
X3988946Y-24708772D01*
X3975317Y-24713649D01*
X3961276Y-24717166D01*
X3946958Y-24719290D01*
X3932500Y-24720000D01*
X3637500Y-24720000D01*
X3623042Y-24719290D01*
X3608724Y-24717166D01*
X3594683Y-24713649D01*
X3581054Y-24708772D01*
X3567969Y-24702583D01*
X3555553Y-24695142D01*
X3543927Y-24686519D01*
X3533202Y-24676798D01*
X3523481Y-24666073D01*
X3514858Y-24654447D01*
X3507417Y-24642031D01*
X3501228Y-24628946D01*
X3496351Y-24615317D01*
X3492834Y-24601276D01*
X3490710Y-24586958D01*
X3490000Y-24572500D01*
X3490000Y-24227500D01*
X3490710Y-24213042D01*
X3492834Y-24198724D01*
X3496351Y-24184683D01*
X3501228Y-24171054D01*
X3507417Y-24157969D01*
X3514858Y-24145553D01*
X3523481Y-24133927D01*
X3533202Y-24123202D01*
X3543927Y-24113481D01*
X3555553Y-24104858D01*
X3567969Y-24097417D01*
X3581054Y-24091228D01*
X3594683Y-24086351D01*
X3608724Y-24082834D01*
X3623042Y-24080710D01*
X3637500Y-24080000D01*
X3932500Y-24080000D01*
X3946958Y-24080710D01*
X3946958Y-24080710D01*
G37*
D16*
X3785000Y-24400000D03*
D13*
G36*
X8646958Y-16680710D02*
G01*
X8661276Y-16682834D01*
X8675317Y-16686351D01*
X8688946Y-16691228D01*
X8702031Y-16697417D01*
X8714447Y-16704858D01*
X8726073Y-16713481D01*
X8736798Y-16723202D01*
X8746519Y-16733927D01*
X8755142Y-16745553D01*
X8762583Y-16757969D01*
X8768772Y-16771054D01*
X8773649Y-16784683D01*
X8777166Y-16798724D01*
X8779290Y-16813042D01*
X8780000Y-16827500D01*
X8780000Y-17172500D01*
X8779290Y-17186958D01*
X8777166Y-17201276D01*
X8773649Y-17215317D01*
X8768772Y-17228946D01*
X8762583Y-17242031D01*
X8755142Y-17254447D01*
X8746519Y-17266073D01*
X8736798Y-17276798D01*
X8726073Y-17286519D01*
X8714447Y-17295142D01*
X8702031Y-17302583D01*
X8688946Y-17308772D01*
X8675317Y-17313649D01*
X8661276Y-17317166D01*
X8646958Y-17319290D01*
X8632500Y-17320000D01*
X8337500Y-17320000D01*
X8323042Y-17319290D01*
X8308724Y-17317166D01*
X8294683Y-17313649D01*
X8281054Y-17308772D01*
X8267969Y-17302583D01*
X8255553Y-17295142D01*
X8243927Y-17286519D01*
X8233202Y-17276798D01*
X8223481Y-17266073D01*
X8214858Y-17254447D01*
X8207417Y-17242031D01*
X8201228Y-17228946D01*
X8196351Y-17215317D01*
X8192834Y-17201276D01*
X8190710Y-17186958D01*
X8190000Y-17172500D01*
X8190000Y-16827500D01*
X8190710Y-16813042D01*
X8192834Y-16798724D01*
X8196351Y-16784683D01*
X8201228Y-16771054D01*
X8207417Y-16757969D01*
X8214858Y-16745553D01*
X8223481Y-16733927D01*
X8233202Y-16723202D01*
X8243927Y-16713481D01*
X8255553Y-16704858D01*
X8267969Y-16697417D01*
X8281054Y-16691228D01*
X8294683Y-16686351D01*
X8308724Y-16682834D01*
X8323042Y-16680710D01*
X8337500Y-16680000D01*
X8632500Y-16680000D01*
X8646958Y-16680710D01*
X8646958Y-16680710D01*
G37*
D16*
X8485000Y-17000000D03*
D13*
G36*
X7676958Y-16680710D02*
G01*
X7691276Y-16682834D01*
X7705317Y-16686351D01*
X7718946Y-16691228D01*
X7732031Y-16697417D01*
X7744447Y-16704858D01*
X7756073Y-16713481D01*
X7766798Y-16723202D01*
X7776519Y-16733927D01*
X7785142Y-16745553D01*
X7792583Y-16757969D01*
X7798772Y-16771054D01*
X7803649Y-16784683D01*
X7807166Y-16798724D01*
X7809290Y-16813042D01*
X7810000Y-16827500D01*
X7810000Y-17172500D01*
X7809290Y-17186958D01*
X7807166Y-17201276D01*
X7803649Y-17215317D01*
X7798772Y-17228946D01*
X7792583Y-17242031D01*
X7785142Y-17254447D01*
X7776519Y-17266073D01*
X7766798Y-17276798D01*
X7756073Y-17286519D01*
X7744447Y-17295142D01*
X7732031Y-17302583D01*
X7718946Y-17308772D01*
X7705317Y-17313649D01*
X7691276Y-17317166D01*
X7676958Y-17319290D01*
X7662500Y-17320000D01*
X7367500Y-17320000D01*
X7353042Y-17319290D01*
X7338724Y-17317166D01*
X7324683Y-17313649D01*
X7311054Y-17308772D01*
X7297969Y-17302583D01*
X7285553Y-17295142D01*
X7273927Y-17286519D01*
X7263202Y-17276798D01*
X7253481Y-17266073D01*
X7244858Y-17254447D01*
X7237417Y-17242031D01*
X7231228Y-17228946D01*
X7226351Y-17215317D01*
X7222834Y-17201276D01*
X7220710Y-17186958D01*
X7220000Y-17172500D01*
X7220000Y-16827500D01*
X7220710Y-16813042D01*
X7222834Y-16798724D01*
X7226351Y-16784683D01*
X7231228Y-16771054D01*
X7237417Y-16757969D01*
X7244858Y-16745553D01*
X7253481Y-16733927D01*
X7263202Y-16723202D01*
X7273927Y-16713481D01*
X7285553Y-16704858D01*
X7297969Y-16697417D01*
X7311054Y-16691228D01*
X7324683Y-16686351D01*
X7338724Y-16682834D01*
X7353042Y-16680710D01*
X7367500Y-16680000D01*
X7662500Y-16680000D01*
X7676958Y-16680710D01*
X7676958Y-16680710D01*
G37*
D16*
X7515000Y-17000000D03*
D13*
G36*
X13086958Y-17190710D02*
G01*
X13101276Y-17192834D01*
X13115317Y-17196351D01*
X13128946Y-17201228D01*
X13142031Y-17207417D01*
X13154447Y-17214858D01*
X13166073Y-17223481D01*
X13176798Y-17233202D01*
X13186519Y-17243927D01*
X13195142Y-17255553D01*
X13202583Y-17267969D01*
X13208772Y-17281054D01*
X13213649Y-17294683D01*
X13217166Y-17308724D01*
X13219290Y-17323042D01*
X13220000Y-17337500D01*
X13220000Y-17632500D01*
X13219290Y-17646958D01*
X13217166Y-17661276D01*
X13213649Y-17675317D01*
X13208772Y-17688946D01*
X13202583Y-17702031D01*
X13195142Y-17714447D01*
X13186519Y-17726073D01*
X13176798Y-17736798D01*
X13166073Y-17746519D01*
X13154447Y-17755142D01*
X13142031Y-17762583D01*
X13128946Y-17768772D01*
X13115317Y-17773649D01*
X13101276Y-17777166D01*
X13086958Y-17779290D01*
X13072500Y-17780000D01*
X12727500Y-17780000D01*
X12713042Y-17779290D01*
X12698724Y-17777166D01*
X12684683Y-17773649D01*
X12671054Y-17768772D01*
X12657969Y-17762583D01*
X12645553Y-17755142D01*
X12633927Y-17746519D01*
X12623202Y-17736798D01*
X12613481Y-17726073D01*
X12604858Y-17714447D01*
X12597417Y-17702031D01*
X12591228Y-17688946D01*
X12586351Y-17675317D01*
X12582834Y-17661276D01*
X12580710Y-17646958D01*
X12580000Y-17632500D01*
X12580000Y-17337500D01*
X12580710Y-17323042D01*
X12582834Y-17308724D01*
X12586351Y-17294683D01*
X12591228Y-17281054D01*
X12597417Y-17267969D01*
X12604858Y-17255553D01*
X12613481Y-17243927D01*
X12623202Y-17233202D01*
X12633927Y-17223481D01*
X12645553Y-17214858D01*
X12657969Y-17207417D01*
X12671054Y-17201228D01*
X12684683Y-17196351D01*
X12698724Y-17192834D01*
X12713042Y-17190710D01*
X12727500Y-17190000D01*
X13072500Y-17190000D01*
X13086958Y-17190710D01*
X13086958Y-17190710D01*
G37*
D16*
X12900000Y-17485000D03*
D13*
G36*
X13086958Y-16220710D02*
G01*
X13101276Y-16222834D01*
X13115317Y-16226351D01*
X13128946Y-16231228D01*
X13142031Y-16237417D01*
X13154447Y-16244858D01*
X13166073Y-16253481D01*
X13176798Y-16263202D01*
X13186519Y-16273927D01*
X13195142Y-16285553D01*
X13202583Y-16297969D01*
X13208772Y-16311054D01*
X13213649Y-16324683D01*
X13217166Y-16338724D01*
X13219290Y-16353042D01*
X13220000Y-16367500D01*
X13220000Y-16662500D01*
X13219290Y-16676958D01*
X13217166Y-16691276D01*
X13213649Y-16705317D01*
X13208772Y-16718946D01*
X13202583Y-16732031D01*
X13195142Y-16744447D01*
X13186519Y-16756073D01*
X13176798Y-16766798D01*
X13166073Y-16776519D01*
X13154447Y-16785142D01*
X13142031Y-16792583D01*
X13128946Y-16798772D01*
X13115317Y-16803649D01*
X13101276Y-16807166D01*
X13086958Y-16809290D01*
X13072500Y-16810000D01*
X12727500Y-16810000D01*
X12713042Y-16809290D01*
X12698724Y-16807166D01*
X12684683Y-16803649D01*
X12671054Y-16798772D01*
X12657969Y-16792583D01*
X12645553Y-16785142D01*
X12633927Y-16776519D01*
X12623202Y-16766798D01*
X12613481Y-16756073D01*
X12604858Y-16744447D01*
X12597417Y-16732031D01*
X12591228Y-16718946D01*
X12586351Y-16705317D01*
X12582834Y-16691276D01*
X12580710Y-16676958D01*
X12580000Y-16662500D01*
X12580000Y-16367500D01*
X12580710Y-16353042D01*
X12582834Y-16338724D01*
X12586351Y-16324683D01*
X12591228Y-16311054D01*
X12597417Y-16297969D01*
X12604858Y-16285553D01*
X12613481Y-16273927D01*
X12623202Y-16263202D01*
X12633927Y-16253481D01*
X12645553Y-16244858D01*
X12657969Y-16237417D01*
X12671054Y-16231228D01*
X12684683Y-16226351D01*
X12698724Y-16222834D01*
X12713042Y-16220710D01*
X12727500Y-16220000D01*
X13072500Y-16220000D01*
X13086958Y-16220710D01*
X13086958Y-16220710D01*
G37*
D16*
X12900000Y-16515000D03*
D13*
G36*
X8646958Y-20280710D02*
G01*
X8661276Y-20282834D01*
X8675317Y-20286351D01*
X8688946Y-20291228D01*
X8702031Y-20297417D01*
X8714447Y-20304858D01*
X8726073Y-20313481D01*
X8736798Y-20323202D01*
X8746519Y-20333927D01*
X8755142Y-20345553D01*
X8762583Y-20357969D01*
X8768772Y-20371054D01*
X8773649Y-20384683D01*
X8777166Y-20398724D01*
X8779290Y-20413042D01*
X8780000Y-20427500D01*
X8780000Y-20772500D01*
X8779290Y-20786958D01*
X8777166Y-20801276D01*
X8773649Y-20815317D01*
X8768772Y-20828946D01*
X8762583Y-20842031D01*
X8755142Y-20854447D01*
X8746519Y-20866073D01*
X8736798Y-20876798D01*
X8726073Y-20886519D01*
X8714447Y-20895142D01*
X8702031Y-20902583D01*
X8688946Y-20908772D01*
X8675317Y-20913649D01*
X8661276Y-20917166D01*
X8646958Y-20919290D01*
X8632500Y-20920000D01*
X8337500Y-20920000D01*
X8323042Y-20919290D01*
X8308724Y-20917166D01*
X8294683Y-20913649D01*
X8281054Y-20908772D01*
X8267969Y-20902583D01*
X8255553Y-20895142D01*
X8243927Y-20886519D01*
X8233202Y-20876798D01*
X8223481Y-20866073D01*
X8214858Y-20854447D01*
X8207417Y-20842031D01*
X8201228Y-20828946D01*
X8196351Y-20815317D01*
X8192834Y-20801276D01*
X8190710Y-20786958D01*
X8190000Y-20772500D01*
X8190000Y-20427500D01*
X8190710Y-20413042D01*
X8192834Y-20398724D01*
X8196351Y-20384683D01*
X8201228Y-20371054D01*
X8207417Y-20357969D01*
X8214858Y-20345553D01*
X8223481Y-20333927D01*
X8233202Y-20323202D01*
X8243927Y-20313481D01*
X8255553Y-20304858D01*
X8267969Y-20297417D01*
X8281054Y-20291228D01*
X8294683Y-20286351D01*
X8308724Y-20282834D01*
X8323042Y-20280710D01*
X8337500Y-20280000D01*
X8632500Y-20280000D01*
X8646958Y-20280710D01*
X8646958Y-20280710D01*
G37*
D16*
X8485000Y-20600000D03*
D13*
G36*
X7676958Y-20280710D02*
G01*
X7691276Y-20282834D01*
X7705317Y-20286351D01*
X7718946Y-20291228D01*
X7732031Y-20297417D01*
X7744447Y-20304858D01*
X7756073Y-20313481D01*
X7766798Y-20323202D01*
X7776519Y-20333927D01*
X7785142Y-20345553D01*
X7792583Y-20357969D01*
X7798772Y-20371054D01*
X7803649Y-20384683D01*
X7807166Y-20398724D01*
X7809290Y-20413042D01*
X7810000Y-20427500D01*
X7810000Y-20772500D01*
X7809290Y-20786958D01*
X7807166Y-20801276D01*
X7803649Y-20815317D01*
X7798772Y-20828946D01*
X7792583Y-20842031D01*
X7785142Y-20854447D01*
X7776519Y-20866073D01*
X7766798Y-20876798D01*
X7756073Y-20886519D01*
X7744447Y-20895142D01*
X7732031Y-20902583D01*
X7718946Y-20908772D01*
X7705317Y-20913649D01*
X7691276Y-20917166D01*
X7676958Y-20919290D01*
X7662500Y-20920000D01*
X7367500Y-20920000D01*
X7353042Y-20919290D01*
X7338724Y-20917166D01*
X7324683Y-20913649D01*
X7311054Y-20908772D01*
X7297969Y-20902583D01*
X7285553Y-20895142D01*
X7273927Y-20886519D01*
X7263202Y-20876798D01*
X7253481Y-20866073D01*
X7244858Y-20854447D01*
X7237417Y-20842031D01*
X7231228Y-20828946D01*
X7226351Y-20815317D01*
X7222834Y-20801276D01*
X7220710Y-20786958D01*
X7220000Y-20772500D01*
X7220000Y-20427500D01*
X7220710Y-20413042D01*
X7222834Y-20398724D01*
X7226351Y-20384683D01*
X7231228Y-20371054D01*
X7237417Y-20357969D01*
X7244858Y-20345553D01*
X7253481Y-20333927D01*
X7263202Y-20323202D01*
X7273927Y-20313481D01*
X7285553Y-20304858D01*
X7297969Y-20297417D01*
X7311054Y-20291228D01*
X7324683Y-20286351D01*
X7338724Y-20282834D01*
X7353042Y-20280710D01*
X7367500Y-20280000D01*
X7662500Y-20280000D01*
X7676958Y-20280710D01*
X7676958Y-20280710D01*
G37*
D16*
X7515000Y-20600000D03*
D13*
G36*
X13086958Y-20634213D02*
G01*
X13101276Y-20636337D01*
X13115317Y-20639854D01*
X13128946Y-20644731D01*
X13142031Y-20650920D01*
X13154447Y-20658361D01*
X13166073Y-20666984D01*
X13176798Y-20676705D01*
X13186519Y-20687430D01*
X13195142Y-20699056D01*
X13202583Y-20711472D01*
X13208772Y-20724557D01*
X13213649Y-20738186D01*
X13217166Y-20752227D01*
X13219290Y-20766545D01*
X13220000Y-20781003D01*
X13220000Y-21076003D01*
X13219290Y-21090461D01*
X13217166Y-21104779D01*
X13213649Y-21118820D01*
X13208772Y-21132449D01*
X13202583Y-21145534D01*
X13195142Y-21157950D01*
X13186519Y-21169576D01*
X13176798Y-21180301D01*
X13166073Y-21190022D01*
X13154447Y-21198645D01*
X13142031Y-21206086D01*
X13128946Y-21212275D01*
X13115317Y-21217152D01*
X13101276Y-21220669D01*
X13086958Y-21222793D01*
X13072500Y-21223503D01*
X12727500Y-21223503D01*
X12713042Y-21222793D01*
X12698724Y-21220669D01*
X12684683Y-21217152D01*
X12671054Y-21212275D01*
X12657969Y-21206086D01*
X12645553Y-21198645D01*
X12633927Y-21190022D01*
X12623202Y-21180301D01*
X12613481Y-21169576D01*
X12604858Y-21157950D01*
X12597417Y-21145534D01*
X12591228Y-21132449D01*
X12586351Y-21118820D01*
X12582834Y-21104779D01*
X12580710Y-21090461D01*
X12580000Y-21076003D01*
X12580000Y-20781003D01*
X12580710Y-20766545D01*
X12582834Y-20752227D01*
X12586351Y-20738186D01*
X12591228Y-20724557D01*
X12597417Y-20711472D01*
X12604858Y-20699056D01*
X12613481Y-20687430D01*
X12623202Y-20676705D01*
X12633927Y-20666984D01*
X12645553Y-20658361D01*
X12657969Y-20650920D01*
X12671054Y-20644731D01*
X12684683Y-20639854D01*
X12698724Y-20636337D01*
X12713042Y-20634213D01*
X12727500Y-20633503D01*
X13072500Y-20633503D01*
X13086958Y-20634213D01*
X13086958Y-20634213D01*
G37*
D16*
X12900000Y-20928503D03*
D13*
G36*
X13086958Y-19664213D02*
G01*
X13101276Y-19666337D01*
X13115317Y-19669854D01*
X13128946Y-19674731D01*
X13142031Y-19680920D01*
X13154447Y-19688361D01*
X13166073Y-19696984D01*
X13176798Y-19706705D01*
X13186519Y-19717430D01*
X13195142Y-19729056D01*
X13202583Y-19741472D01*
X13208772Y-19754557D01*
X13213649Y-19768186D01*
X13217166Y-19782227D01*
X13219290Y-19796545D01*
X13220000Y-19811003D01*
X13220000Y-20106003D01*
X13219290Y-20120461D01*
X13217166Y-20134779D01*
X13213649Y-20148820D01*
X13208772Y-20162449D01*
X13202583Y-20175534D01*
X13195142Y-20187950D01*
X13186519Y-20199576D01*
X13176798Y-20210301D01*
X13166073Y-20220022D01*
X13154447Y-20228645D01*
X13142031Y-20236086D01*
X13128946Y-20242275D01*
X13115317Y-20247152D01*
X13101276Y-20250669D01*
X13086958Y-20252793D01*
X13072500Y-20253503D01*
X12727500Y-20253503D01*
X12713042Y-20252793D01*
X12698724Y-20250669D01*
X12684683Y-20247152D01*
X12671054Y-20242275D01*
X12657969Y-20236086D01*
X12645553Y-20228645D01*
X12633927Y-20220022D01*
X12623202Y-20210301D01*
X12613481Y-20199576D01*
X12604858Y-20187950D01*
X12597417Y-20175534D01*
X12591228Y-20162449D01*
X12586351Y-20148820D01*
X12582834Y-20134779D01*
X12580710Y-20120461D01*
X12580000Y-20106003D01*
X12580000Y-19811003D01*
X12580710Y-19796545D01*
X12582834Y-19782227D01*
X12586351Y-19768186D01*
X12591228Y-19754557D01*
X12597417Y-19741472D01*
X12604858Y-19729056D01*
X12613481Y-19717430D01*
X12623202Y-19706705D01*
X12633927Y-19696984D01*
X12645553Y-19688361D01*
X12657969Y-19680920D01*
X12671054Y-19674731D01*
X12684683Y-19669854D01*
X12698724Y-19666337D01*
X12713042Y-19664213D01*
X12727500Y-19663503D01*
X13072500Y-19663503D01*
X13086958Y-19664213D01*
X13086958Y-19664213D01*
G37*
D16*
X12900000Y-19958503D03*
D13*
G36*
X-12113042Y1779290D02*
G01*
X-12098724Y1777166D01*
X-12084683Y1773649D01*
X-12071054Y1768772D01*
X-12057969Y1762583D01*
X-12045553Y1755142D01*
X-12033927Y1746519D01*
X-12023202Y1736798D01*
X-12013481Y1726073D01*
X-12004858Y1714447D01*
X-11997417Y1702031D01*
X-11991228Y1688946D01*
X-11986351Y1675317D01*
X-11982834Y1661276D01*
X-11980710Y1646958D01*
X-11980000Y1632500D01*
X-11980000Y1337500D01*
X-11980710Y1323042D01*
X-11982834Y1308724D01*
X-11986351Y1294683D01*
X-11991228Y1281054D01*
X-11997417Y1267969D01*
X-12004858Y1255553D01*
X-12013481Y1243927D01*
X-12023202Y1233202D01*
X-12033927Y1223481D01*
X-12045553Y1214858D01*
X-12057969Y1207417D01*
X-12071054Y1201228D01*
X-12084683Y1196351D01*
X-12098724Y1192834D01*
X-12113042Y1190710D01*
X-12127500Y1190000D01*
X-12472500Y1190000D01*
X-12486958Y1190710D01*
X-12501276Y1192834D01*
X-12515317Y1196351D01*
X-12528946Y1201228D01*
X-12542031Y1207417D01*
X-12554447Y1214858D01*
X-12566073Y1223481D01*
X-12576798Y1233202D01*
X-12586519Y1243927D01*
X-12595142Y1255553D01*
X-12602583Y1267969D01*
X-12608772Y1281054D01*
X-12613649Y1294683D01*
X-12617166Y1308724D01*
X-12619290Y1323042D01*
X-12620000Y1337500D01*
X-12620000Y1632500D01*
X-12619290Y1646958D01*
X-12617166Y1661276D01*
X-12613649Y1675317D01*
X-12608772Y1688946D01*
X-12602583Y1702031D01*
X-12595142Y1714447D01*
X-12586519Y1726073D01*
X-12576798Y1736798D01*
X-12566073Y1746519D01*
X-12554447Y1755142D01*
X-12542031Y1762583D01*
X-12528946Y1768772D01*
X-12515317Y1773649D01*
X-12501276Y1777166D01*
X-12486958Y1779290D01*
X-12472500Y1780000D01*
X-12127500Y1780000D01*
X-12113042Y1779290D01*
X-12113042Y1779290D01*
G37*
D16*
X-12300000Y1485000D03*
D13*
G36*
X-12113042Y809290D02*
G01*
X-12098724Y807166D01*
X-12084683Y803649D01*
X-12071054Y798772D01*
X-12057969Y792583D01*
X-12045553Y785142D01*
X-12033927Y776519D01*
X-12023202Y766798D01*
X-12013481Y756073D01*
X-12004858Y744447D01*
X-11997417Y732031D01*
X-11991228Y718946D01*
X-11986351Y705317D01*
X-11982834Y691276D01*
X-11980710Y676958D01*
X-11980000Y662500D01*
X-11980000Y367500D01*
X-11980710Y353042D01*
X-11982834Y338724D01*
X-11986351Y324683D01*
X-11991228Y311054D01*
X-11997417Y297969D01*
X-12004858Y285553D01*
X-12013481Y273927D01*
X-12023202Y263202D01*
X-12033927Y253481D01*
X-12045553Y244858D01*
X-12057969Y237417D01*
X-12071054Y231228D01*
X-12084683Y226351D01*
X-12098724Y222834D01*
X-12113042Y220710D01*
X-12127500Y220000D01*
X-12472500Y220000D01*
X-12486958Y220710D01*
X-12501276Y222834D01*
X-12515317Y226351D01*
X-12528946Y231228D01*
X-12542031Y237417D01*
X-12554447Y244858D01*
X-12566073Y253481D01*
X-12576798Y263202D01*
X-12586519Y273927D01*
X-12595142Y285553D01*
X-12602583Y297969D01*
X-12608772Y311054D01*
X-12613649Y324683D01*
X-12617166Y338724D01*
X-12619290Y353042D01*
X-12620000Y367500D01*
X-12620000Y662500D01*
X-12619290Y676958D01*
X-12617166Y691276D01*
X-12613649Y705317D01*
X-12608772Y718946D01*
X-12602583Y732031D01*
X-12595142Y744447D01*
X-12586519Y756073D01*
X-12576798Y766798D01*
X-12566073Y776519D01*
X-12554447Y785142D01*
X-12542031Y792583D01*
X-12528946Y798772D01*
X-12515317Y803649D01*
X-12501276Y807166D01*
X-12486958Y809290D01*
X-12472500Y810000D01*
X-12127500Y810000D01*
X-12113042Y809290D01*
X-12113042Y809290D01*
G37*
D16*
X-12300000Y515000D03*
D13*
G36*
X-11113042Y1779290D02*
G01*
X-11098724Y1777166D01*
X-11084683Y1773649D01*
X-11071054Y1768772D01*
X-11057969Y1762583D01*
X-11045553Y1755142D01*
X-11033927Y1746519D01*
X-11023202Y1736798D01*
X-11013481Y1726073D01*
X-11004858Y1714447D01*
X-10997417Y1702031D01*
X-10991228Y1688946D01*
X-10986351Y1675317D01*
X-10982834Y1661276D01*
X-10980710Y1646958D01*
X-10980000Y1632500D01*
X-10980000Y1337500D01*
X-10980710Y1323042D01*
X-10982834Y1308724D01*
X-10986351Y1294683D01*
X-10991228Y1281054D01*
X-10997417Y1267969D01*
X-11004858Y1255553D01*
X-11013481Y1243927D01*
X-11023202Y1233202D01*
X-11033927Y1223481D01*
X-11045553Y1214858D01*
X-11057969Y1207417D01*
X-11071054Y1201228D01*
X-11084683Y1196351D01*
X-11098724Y1192834D01*
X-11113042Y1190710D01*
X-11127500Y1190000D01*
X-11472500Y1190000D01*
X-11486958Y1190710D01*
X-11501276Y1192834D01*
X-11515317Y1196351D01*
X-11528946Y1201228D01*
X-11542031Y1207417D01*
X-11554447Y1214858D01*
X-11566073Y1223481D01*
X-11576798Y1233202D01*
X-11586519Y1243927D01*
X-11595142Y1255553D01*
X-11602583Y1267969D01*
X-11608772Y1281054D01*
X-11613649Y1294683D01*
X-11617166Y1308724D01*
X-11619290Y1323042D01*
X-11620000Y1337500D01*
X-11620000Y1632500D01*
X-11619290Y1646958D01*
X-11617166Y1661276D01*
X-11613649Y1675317D01*
X-11608772Y1688946D01*
X-11602583Y1702031D01*
X-11595142Y1714447D01*
X-11586519Y1726073D01*
X-11576798Y1736798D01*
X-11566073Y1746519D01*
X-11554447Y1755142D01*
X-11542031Y1762583D01*
X-11528946Y1768772D01*
X-11515317Y1773649D01*
X-11501276Y1777166D01*
X-11486958Y1779290D01*
X-11472500Y1780000D01*
X-11127500Y1780000D01*
X-11113042Y1779290D01*
X-11113042Y1779290D01*
G37*
D16*
X-11300000Y1485000D03*
D13*
G36*
X-11113042Y809290D02*
G01*
X-11098724Y807166D01*
X-11084683Y803649D01*
X-11071054Y798772D01*
X-11057969Y792583D01*
X-11045553Y785142D01*
X-11033927Y776519D01*
X-11023202Y766798D01*
X-11013481Y756073D01*
X-11004858Y744447D01*
X-10997417Y732031D01*
X-10991228Y718946D01*
X-10986351Y705317D01*
X-10982834Y691276D01*
X-10980710Y676958D01*
X-10980000Y662500D01*
X-10980000Y367500D01*
X-10980710Y353042D01*
X-10982834Y338724D01*
X-10986351Y324683D01*
X-10991228Y311054D01*
X-10997417Y297969D01*
X-11004858Y285553D01*
X-11013481Y273927D01*
X-11023202Y263202D01*
X-11033927Y253481D01*
X-11045553Y244858D01*
X-11057969Y237417D01*
X-11071054Y231228D01*
X-11084683Y226351D01*
X-11098724Y222834D01*
X-11113042Y220710D01*
X-11127500Y220000D01*
X-11472500Y220000D01*
X-11486958Y220710D01*
X-11501276Y222834D01*
X-11515317Y226351D01*
X-11528946Y231228D01*
X-11542031Y237417D01*
X-11554447Y244858D01*
X-11566073Y253481D01*
X-11576798Y263202D01*
X-11586519Y273927D01*
X-11595142Y285553D01*
X-11602583Y297969D01*
X-11608772Y311054D01*
X-11613649Y324683D01*
X-11617166Y338724D01*
X-11619290Y353042D01*
X-11620000Y367500D01*
X-11620000Y662500D01*
X-11619290Y676958D01*
X-11617166Y691276D01*
X-11613649Y705317D01*
X-11608772Y718946D01*
X-11602583Y732031D01*
X-11595142Y744447D01*
X-11586519Y756073D01*
X-11576798Y766798D01*
X-11566073Y776519D01*
X-11554447Y785142D01*
X-11542031Y792583D01*
X-11528946Y798772D01*
X-11515317Y803649D01*
X-11501276Y807166D01*
X-11486958Y809290D01*
X-11472500Y810000D01*
X-11127500Y810000D01*
X-11113042Y809290D01*
X-11113042Y809290D01*
G37*
D16*
X-11300000Y515000D03*
D17*
X-4600000Y-50700000D03*
X-5550000Y-50700000D03*
X-3650000Y-50700000D03*
X-3650000Y-48500000D03*
X-4600000Y-48500000D03*
X-5550000Y-48500000D03*
D18*
X960660Y-11694974D03*
X1910660Y-9694974D03*
X10660Y-9694974D03*
X9000000Y-11700000D03*
X9950000Y-9700000D03*
X8050000Y-9700000D03*
X3200000Y-15100000D03*
X4150000Y-13100000D03*
X2250000Y-13100000D03*
X5450000Y-11700000D03*
X6400000Y-9700000D03*
X4500000Y-9700000D03*
D19*
X9700000Y-20600000D03*
X11700000Y-21550000D03*
X11700000Y-19650000D03*
D18*
X5568579Y-6220000D03*
X6518579Y-4220000D03*
X4618579Y-4220000D03*
D19*
X9700000Y-17000000D03*
X11700000Y-17950000D03*
X11700000Y-16050000D03*
X-2274874Y-29922183D03*
X-274874Y-30872183D03*
X-274874Y-28972183D03*
D20*
X-5525000Y-26200000D03*
X-18205000Y-26200000D03*
X-18205000Y-9750000D03*
X-5525000Y-9750000D03*
D21*
X-3100000Y-18000000D03*
X-3100000Y-19270000D03*
X-3100000Y-20540000D03*
X-3100000Y-21810000D03*
X-3100000Y-23080000D03*
X-3100000Y-24350000D03*
D22*
X7600000Y-28050000D03*
X6200000Y-28050000D03*
X7600000Y-30050000D03*
X6200000Y-30050000D03*
D23*
X3058579Y-4500000D03*
X3058579Y-5900000D03*
D22*
X1700000Y-19400000D03*
X300000Y-19400000D03*
X1700000Y-23100000D03*
X300000Y-23100000D03*
X2800000Y-25600000D03*
X1400000Y-25600000D03*
D13*
G36*
X2876958Y-22580710D02*
G01*
X2891276Y-22582834D01*
X2905317Y-22586351D01*
X2918946Y-22591228D01*
X2932031Y-22597417D01*
X2944447Y-22604858D01*
X2956073Y-22613481D01*
X2966798Y-22623202D01*
X2976519Y-22633927D01*
X2985142Y-22645553D01*
X2992583Y-22657969D01*
X2998772Y-22671054D01*
X3003649Y-22684683D01*
X3007166Y-22698724D01*
X3009290Y-22713042D01*
X3010000Y-22727500D01*
X3010000Y-23072500D01*
X3009290Y-23086958D01*
X3007166Y-23101276D01*
X3003649Y-23115317D01*
X2998772Y-23128946D01*
X2992583Y-23142031D01*
X2985142Y-23154447D01*
X2976519Y-23166073D01*
X2966798Y-23176798D01*
X2956073Y-23186519D01*
X2944447Y-23195142D01*
X2932031Y-23202583D01*
X2918946Y-23208772D01*
X2905317Y-23213649D01*
X2891276Y-23217166D01*
X2876958Y-23219290D01*
X2862500Y-23220000D01*
X2567500Y-23220000D01*
X2553042Y-23219290D01*
X2538724Y-23217166D01*
X2524683Y-23213649D01*
X2511054Y-23208772D01*
X2497969Y-23202583D01*
X2485553Y-23195142D01*
X2473927Y-23186519D01*
X2463202Y-23176798D01*
X2453481Y-23166073D01*
X2444858Y-23154447D01*
X2437417Y-23142031D01*
X2431228Y-23128946D01*
X2426351Y-23115317D01*
X2422834Y-23101276D01*
X2420710Y-23086958D01*
X2420000Y-23072500D01*
X2420000Y-22727500D01*
X2420710Y-22713042D01*
X2422834Y-22698724D01*
X2426351Y-22684683D01*
X2431228Y-22671054D01*
X2437417Y-22657969D01*
X2444858Y-22645553D01*
X2453481Y-22633927D01*
X2463202Y-22623202D01*
X2473927Y-22613481D01*
X2485553Y-22604858D01*
X2497969Y-22597417D01*
X2511054Y-22591228D01*
X2524683Y-22586351D01*
X2538724Y-22582834D01*
X2553042Y-22580710D01*
X2567500Y-22580000D01*
X2862500Y-22580000D01*
X2876958Y-22580710D01*
X2876958Y-22580710D01*
G37*
D16*
X2715000Y-22900000D03*
D13*
G36*
X3846958Y-22580710D02*
G01*
X3861276Y-22582834D01*
X3875317Y-22586351D01*
X3888946Y-22591228D01*
X3902031Y-22597417D01*
X3914447Y-22604858D01*
X3926073Y-22613481D01*
X3936798Y-22623202D01*
X3946519Y-22633927D01*
X3955142Y-22645553D01*
X3962583Y-22657969D01*
X3968772Y-22671054D01*
X3973649Y-22684683D01*
X3977166Y-22698724D01*
X3979290Y-22713042D01*
X3980000Y-22727500D01*
X3980000Y-23072500D01*
X3979290Y-23086958D01*
X3977166Y-23101276D01*
X3973649Y-23115317D01*
X3968772Y-23128946D01*
X3962583Y-23142031D01*
X3955142Y-23154447D01*
X3946519Y-23166073D01*
X3936798Y-23176798D01*
X3926073Y-23186519D01*
X3914447Y-23195142D01*
X3902031Y-23202583D01*
X3888946Y-23208772D01*
X3875317Y-23213649D01*
X3861276Y-23217166D01*
X3846958Y-23219290D01*
X3832500Y-23220000D01*
X3537500Y-23220000D01*
X3523042Y-23219290D01*
X3508724Y-23217166D01*
X3494683Y-23213649D01*
X3481054Y-23208772D01*
X3467969Y-23202583D01*
X3455553Y-23195142D01*
X3443927Y-23186519D01*
X3433202Y-23176798D01*
X3423481Y-23166073D01*
X3414858Y-23154447D01*
X3407417Y-23142031D01*
X3401228Y-23128946D01*
X3396351Y-23115317D01*
X3392834Y-23101276D01*
X3390710Y-23086958D01*
X3390000Y-23072500D01*
X3390000Y-22727500D01*
X3390710Y-22713042D01*
X3392834Y-22698724D01*
X3396351Y-22684683D01*
X3401228Y-22671054D01*
X3407417Y-22657969D01*
X3414858Y-22645553D01*
X3423481Y-22633927D01*
X3433202Y-22623202D01*
X3443927Y-22613481D01*
X3455553Y-22604858D01*
X3467969Y-22597417D01*
X3481054Y-22591228D01*
X3494683Y-22586351D01*
X3508724Y-22582834D01*
X3523042Y-22580710D01*
X3537500Y-22580000D01*
X3832500Y-22580000D01*
X3846958Y-22580710D01*
X3846958Y-22580710D01*
G37*
D16*
X3685000Y-22900000D03*
D13*
G36*
X2861958Y-19280710D02*
G01*
X2876276Y-19282834D01*
X2890317Y-19286351D01*
X2903946Y-19291228D01*
X2917031Y-19297417D01*
X2929447Y-19304858D01*
X2941073Y-19313481D01*
X2951798Y-19323202D01*
X2961519Y-19333927D01*
X2970142Y-19345553D01*
X2977583Y-19357969D01*
X2983772Y-19371054D01*
X2988649Y-19384683D01*
X2992166Y-19398724D01*
X2994290Y-19413042D01*
X2995000Y-19427500D01*
X2995000Y-19772500D01*
X2994290Y-19786958D01*
X2992166Y-19801276D01*
X2988649Y-19815317D01*
X2983772Y-19828946D01*
X2977583Y-19842031D01*
X2970142Y-19854447D01*
X2961519Y-19866073D01*
X2951798Y-19876798D01*
X2941073Y-19886519D01*
X2929447Y-19895142D01*
X2917031Y-19902583D01*
X2903946Y-19908772D01*
X2890317Y-19913649D01*
X2876276Y-19917166D01*
X2861958Y-19919290D01*
X2847500Y-19920000D01*
X2552500Y-19920000D01*
X2538042Y-19919290D01*
X2523724Y-19917166D01*
X2509683Y-19913649D01*
X2496054Y-19908772D01*
X2482969Y-19902583D01*
X2470553Y-19895142D01*
X2458927Y-19886519D01*
X2448202Y-19876798D01*
X2438481Y-19866073D01*
X2429858Y-19854447D01*
X2422417Y-19842031D01*
X2416228Y-19828946D01*
X2411351Y-19815317D01*
X2407834Y-19801276D01*
X2405710Y-19786958D01*
X2405000Y-19772500D01*
X2405000Y-19427500D01*
X2405710Y-19413042D01*
X2407834Y-19398724D01*
X2411351Y-19384683D01*
X2416228Y-19371054D01*
X2422417Y-19357969D01*
X2429858Y-19345553D01*
X2438481Y-19333927D01*
X2448202Y-19323202D01*
X2458927Y-19313481D01*
X2470553Y-19304858D01*
X2482969Y-19297417D01*
X2496054Y-19291228D01*
X2509683Y-19286351D01*
X2523724Y-19282834D01*
X2538042Y-19280710D01*
X2552500Y-19280000D01*
X2847500Y-19280000D01*
X2861958Y-19280710D01*
X2861958Y-19280710D01*
G37*
D16*
X2700000Y-19600000D03*
D13*
G36*
X3831958Y-19280710D02*
G01*
X3846276Y-19282834D01*
X3860317Y-19286351D01*
X3873946Y-19291228D01*
X3887031Y-19297417D01*
X3899447Y-19304858D01*
X3911073Y-19313481D01*
X3921798Y-19323202D01*
X3931519Y-19333927D01*
X3940142Y-19345553D01*
X3947583Y-19357969D01*
X3953772Y-19371054D01*
X3958649Y-19384683D01*
X3962166Y-19398724D01*
X3964290Y-19413042D01*
X3965000Y-19427500D01*
X3965000Y-19772500D01*
X3964290Y-19786958D01*
X3962166Y-19801276D01*
X3958649Y-19815317D01*
X3953772Y-19828946D01*
X3947583Y-19842031D01*
X3940142Y-19854447D01*
X3931519Y-19866073D01*
X3921798Y-19876798D01*
X3911073Y-19886519D01*
X3899447Y-19895142D01*
X3887031Y-19902583D01*
X3873946Y-19908772D01*
X3860317Y-19913649D01*
X3846276Y-19917166D01*
X3831958Y-19919290D01*
X3817500Y-19920000D01*
X3522500Y-19920000D01*
X3508042Y-19919290D01*
X3493724Y-19917166D01*
X3479683Y-19913649D01*
X3466054Y-19908772D01*
X3452969Y-19902583D01*
X3440553Y-19895142D01*
X3428927Y-19886519D01*
X3418202Y-19876798D01*
X3408481Y-19866073D01*
X3399858Y-19854447D01*
X3392417Y-19842031D01*
X3386228Y-19828946D01*
X3381351Y-19815317D01*
X3377834Y-19801276D01*
X3375710Y-19786958D01*
X3375000Y-19772500D01*
X3375000Y-19427500D01*
X3375710Y-19413042D01*
X3377834Y-19398724D01*
X3381351Y-19384683D01*
X3386228Y-19371054D01*
X3392417Y-19357969D01*
X3399858Y-19345553D01*
X3408481Y-19333927D01*
X3418202Y-19323202D01*
X3428927Y-19313481D01*
X3440553Y-19304858D01*
X3452969Y-19297417D01*
X3466054Y-19291228D01*
X3479683Y-19286351D01*
X3493724Y-19282834D01*
X3508042Y-19280710D01*
X3522500Y-19280000D01*
X3817500Y-19280000D01*
X3831958Y-19280710D01*
X3831958Y-19280710D01*
G37*
D16*
X3670000Y-19600000D03*
D13*
G36*
X3961958Y-25080710D02*
G01*
X3976276Y-25082834D01*
X3990317Y-25086351D01*
X4003946Y-25091228D01*
X4017031Y-25097417D01*
X4029447Y-25104858D01*
X4041073Y-25113481D01*
X4051798Y-25123202D01*
X4061519Y-25133927D01*
X4070142Y-25145553D01*
X4077583Y-25157969D01*
X4083772Y-25171054D01*
X4088649Y-25184683D01*
X4092166Y-25198724D01*
X4094290Y-25213042D01*
X4095000Y-25227500D01*
X4095000Y-25572500D01*
X4094290Y-25586958D01*
X4092166Y-25601276D01*
X4088649Y-25615317D01*
X4083772Y-25628946D01*
X4077583Y-25642031D01*
X4070142Y-25654447D01*
X4061519Y-25666073D01*
X4051798Y-25676798D01*
X4041073Y-25686519D01*
X4029447Y-25695142D01*
X4017031Y-25702583D01*
X4003946Y-25708772D01*
X3990317Y-25713649D01*
X3976276Y-25717166D01*
X3961958Y-25719290D01*
X3947500Y-25720000D01*
X3652500Y-25720000D01*
X3638042Y-25719290D01*
X3623724Y-25717166D01*
X3609683Y-25713649D01*
X3596054Y-25708772D01*
X3582969Y-25702583D01*
X3570553Y-25695142D01*
X3558927Y-25686519D01*
X3548202Y-25676798D01*
X3538481Y-25666073D01*
X3529858Y-25654447D01*
X3522417Y-25642031D01*
X3516228Y-25628946D01*
X3511351Y-25615317D01*
X3507834Y-25601276D01*
X3505710Y-25586958D01*
X3505000Y-25572500D01*
X3505000Y-25227500D01*
X3505710Y-25213042D01*
X3507834Y-25198724D01*
X3511351Y-25184683D01*
X3516228Y-25171054D01*
X3522417Y-25157969D01*
X3529858Y-25145553D01*
X3538481Y-25133927D01*
X3548202Y-25123202D01*
X3558927Y-25113481D01*
X3570553Y-25104858D01*
X3582969Y-25097417D01*
X3596054Y-25091228D01*
X3609683Y-25086351D01*
X3623724Y-25082834D01*
X3638042Y-25080710D01*
X3652500Y-25080000D01*
X3947500Y-25080000D01*
X3961958Y-25080710D01*
X3961958Y-25080710D01*
G37*
D16*
X3800000Y-25400000D03*
D13*
G36*
X4931958Y-25080710D02*
G01*
X4946276Y-25082834D01*
X4960317Y-25086351D01*
X4973946Y-25091228D01*
X4987031Y-25097417D01*
X4999447Y-25104858D01*
X5011073Y-25113481D01*
X5021798Y-25123202D01*
X5031519Y-25133927D01*
X5040142Y-25145553D01*
X5047583Y-25157969D01*
X5053772Y-25171054D01*
X5058649Y-25184683D01*
X5062166Y-25198724D01*
X5064290Y-25213042D01*
X5065000Y-25227500D01*
X5065000Y-25572500D01*
X5064290Y-25586958D01*
X5062166Y-25601276D01*
X5058649Y-25615317D01*
X5053772Y-25628946D01*
X5047583Y-25642031D01*
X5040142Y-25654447D01*
X5031519Y-25666073D01*
X5021798Y-25676798D01*
X5011073Y-25686519D01*
X4999447Y-25695142D01*
X4987031Y-25702583D01*
X4973946Y-25708772D01*
X4960317Y-25713649D01*
X4946276Y-25717166D01*
X4931958Y-25719290D01*
X4917500Y-25720000D01*
X4622500Y-25720000D01*
X4608042Y-25719290D01*
X4593724Y-25717166D01*
X4579683Y-25713649D01*
X4566054Y-25708772D01*
X4552969Y-25702583D01*
X4540553Y-25695142D01*
X4528927Y-25686519D01*
X4518202Y-25676798D01*
X4508481Y-25666073D01*
X4499858Y-25654447D01*
X4492417Y-25642031D01*
X4486228Y-25628946D01*
X4481351Y-25615317D01*
X4477834Y-25601276D01*
X4475710Y-25586958D01*
X4475000Y-25572500D01*
X4475000Y-25227500D01*
X4475710Y-25213042D01*
X4477834Y-25198724D01*
X4481351Y-25184683D01*
X4486228Y-25171054D01*
X4492417Y-25157969D01*
X4499858Y-25145553D01*
X4508481Y-25133927D01*
X4518202Y-25123202D01*
X4528927Y-25113481D01*
X4540553Y-25104858D01*
X4552969Y-25097417D01*
X4566054Y-25091228D01*
X4579683Y-25086351D01*
X4593724Y-25082834D01*
X4608042Y-25080710D01*
X4622500Y-25080000D01*
X4917500Y-25080000D01*
X4931958Y-25080710D01*
X4931958Y-25080710D01*
G37*
D16*
X4770000Y-25400000D03*
D13*
G36*
X-1022309Y-24051053D02*
G01*
X-1001074Y-24054203D01*
X-980250Y-24059419D01*
X-960038Y-24066651D01*
X-940632Y-24075830D01*
X-922219Y-24086866D01*
X-904976Y-24099654D01*
X-889070Y-24114070D01*
X-874654Y-24129976D01*
X-861866Y-24147219D01*
X-850830Y-24165632D01*
X-841651Y-24185038D01*
X-834419Y-24205250D01*
X-829203Y-24226074D01*
X-826053Y-24247309D01*
X-825000Y-24268750D01*
X-825000Y-24706250D01*
X-826053Y-24727691D01*
X-829203Y-24748926D01*
X-834419Y-24769750D01*
X-841651Y-24789962D01*
X-850830Y-24809368D01*
X-861866Y-24827781D01*
X-874654Y-24845024D01*
X-889070Y-24860930D01*
X-904976Y-24875346D01*
X-922219Y-24888134D01*
X-940632Y-24899170D01*
X-960038Y-24908349D01*
X-980250Y-24915581D01*
X-1001074Y-24920797D01*
X-1022309Y-24923947D01*
X-1043750Y-24925000D01*
X-1556250Y-24925000D01*
X-1577691Y-24923947D01*
X-1598926Y-24920797D01*
X-1619750Y-24915581D01*
X-1639962Y-24908349D01*
X-1659368Y-24899170D01*
X-1677781Y-24888134D01*
X-1695024Y-24875346D01*
X-1710930Y-24860930D01*
X-1725346Y-24845024D01*
X-1738134Y-24827781D01*
X-1749170Y-24809368D01*
X-1758349Y-24789962D01*
X-1765581Y-24769750D01*
X-1770797Y-24748926D01*
X-1773947Y-24727691D01*
X-1775000Y-24706250D01*
X-1775000Y-24268750D01*
X-1773947Y-24247309D01*
X-1770797Y-24226074D01*
X-1765581Y-24205250D01*
X-1758349Y-24185038D01*
X-1749170Y-24165632D01*
X-1738134Y-24147219D01*
X-1725346Y-24129976D01*
X-1710930Y-24114070D01*
X-1695024Y-24099654D01*
X-1677781Y-24086866D01*
X-1659368Y-24075830D01*
X-1639962Y-24066651D01*
X-1619750Y-24059419D01*
X-1598926Y-24054203D01*
X-1577691Y-24051053D01*
X-1556250Y-24050000D01*
X-1043750Y-24050000D01*
X-1022309Y-24051053D01*
X-1022309Y-24051053D01*
G37*
D24*
X-1300000Y-24487500D03*
D13*
G36*
X-1022309Y-22476053D02*
G01*
X-1001074Y-22479203D01*
X-980250Y-22484419D01*
X-960038Y-22491651D01*
X-940632Y-22500830D01*
X-922219Y-22511866D01*
X-904976Y-22524654D01*
X-889070Y-22539070D01*
X-874654Y-22554976D01*
X-861866Y-22572219D01*
X-850830Y-22590632D01*
X-841651Y-22610038D01*
X-834419Y-22630250D01*
X-829203Y-22651074D01*
X-826053Y-22672309D01*
X-825000Y-22693750D01*
X-825000Y-23131250D01*
X-826053Y-23152691D01*
X-829203Y-23173926D01*
X-834419Y-23194750D01*
X-841651Y-23214962D01*
X-850830Y-23234368D01*
X-861866Y-23252781D01*
X-874654Y-23270024D01*
X-889070Y-23285930D01*
X-904976Y-23300346D01*
X-922219Y-23313134D01*
X-940632Y-23324170D01*
X-960038Y-23333349D01*
X-980250Y-23340581D01*
X-1001074Y-23345797D01*
X-1022309Y-23348947D01*
X-1043750Y-23350000D01*
X-1556250Y-23350000D01*
X-1577691Y-23348947D01*
X-1598926Y-23345797D01*
X-1619750Y-23340581D01*
X-1639962Y-23333349D01*
X-1659368Y-23324170D01*
X-1677781Y-23313134D01*
X-1695024Y-23300346D01*
X-1710930Y-23285930D01*
X-1725346Y-23270024D01*
X-1738134Y-23252781D01*
X-1749170Y-23234368D01*
X-1758349Y-23214962D01*
X-1765581Y-23194750D01*
X-1770797Y-23173926D01*
X-1773947Y-23152691D01*
X-1775000Y-23131250D01*
X-1775000Y-22693750D01*
X-1773947Y-22672309D01*
X-1770797Y-22651074D01*
X-1765581Y-22630250D01*
X-1758349Y-22610038D01*
X-1749170Y-22590632D01*
X-1738134Y-22572219D01*
X-1725346Y-22554976D01*
X-1710930Y-22539070D01*
X-1695024Y-22524654D01*
X-1677781Y-22511866D01*
X-1659368Y-22500830D01*
X-1639962Y-22491651D01*
X-1619750Y-22484419D01*
X-1598926Y-22479203D01*
X-1577691Y-22476053D01*
X-1556250Y-22475000D01*
X-1043750Y-22475000D01*
X-1022309Y-22476053D01*
X-1022309Y-22476053D01*
G37*
D24*
X-1300000Y-22912500D03*
M02*
