M48
; DRILL file {KiCad (5.1.0-10-g6006703)} date Sat 13 Apr 2019 06:37:02 PM CST
; FORMAT={-:-/ absolute / metric / decimal}
; #@! TF.CreationDate,2019-04-13T18:37:02+08:00
; #@! TF.GenerationSoftware,Kicad,Pcbnew,(5.1.0-10-g6006703)
FMAT,2
METRIC
T1C0.400
T2C0.650
T3C0.800
T4C1.000
T5C3.200
%
G90
G05
T1
X-17.75Y-24.25
X-17.7Y-25.6
X-17.7Y-32.5
X-17.4Y-12.9
X-16.6Y-27.1
X-16.6Y-28.4
X-16.6Y-29.5
X-16.6Y-30.9
X-16.05Y-5.1
X-13.75Y-33.1
X-13.3Y-28.5
X-13.3Y-29.5
X-13.2Y-27.1
X-13.2Y-30.9
X-13.1Y-44.25
X-12.8Y-20.5
X-11.975Y-42.525
X-11.95Y-45.95
X-11.6Y-37.625
X-11.525Y-35.625
X-11.525Y-36.625
X-11.525Y-38.625
X-11.525Y-39.625
X-11.525Y-40.625
X-11.525Y-41.625
X-11.4Y-34.625
X-11.3Y-49.1
X-10.6Y-30.7
X-10.6Y-26.85
X-10.5Y-37.6
X-10.5Y-46.85
X-10.475Y-34.275
X-9.532Y-26.893
X-9.5Y-30.7
X-9.475Y-34.275
X-9.05Y-46.0
X-8.8Y-49.7
X-8.625Y-37.6
X-8.6Y-39.3
X-8.55Y-42.35
X-8.498Y-8.202
X-8.25Y-19.55
X-7.9Y-22.55
X-7.85Y-44.25
X-7.624Y-34.3
X-7.5Y-37.8
X-7.5Y-38.9
X-7.5Y-40.0
X-7.5Y-41.5
X-6.975Y-11.05
X-6.5Y-8.0
X-6.0Y-49.6
X-5.775Y-43.296
X-5.7Y-37.95
X-5.6Y-52.75
X-5.5Y-23.1
X-5.5Y-45.1
X-5.46Y-51.76
X-5.45Y-15.3
X-4.6Y-47.25
X-4.5Y-7.9
X-4.5Y-44.4
X-4.0Y-46.0
X-3.65Y-32.5
X-3.6Y-52.1
X-3.5Y-7.55
X-3.5Y-49.65
X-3.3Y-39.8
X-3.3Y-44.1
X-3.1Y-26.1
X-2.15Y-9.55
X-2.1Y-40.2
X-1.95Y-44.1
X-1.5Y-33.3
X-1.3Y-26.1
X-0.8Y-37.75
X-0.8Y-43.95
X-0.7Y-19.4
X-0.2Y-11.7
X0.1Y-49.1
X0.3Y-24.3
X0.3Y-44.1
X0.4Y-41.5
X0.5Y-4.4
X0.5Y-7.5
X1.191Y-26.425
X1.5Y-7.5
X1.95Y-32.45
X2.248Y-11.452
X2.35Y-33.85
X2.9Y-43.0
X3.15Y-31.25
X3.2Y-9.5
X3.5Y-7.7
X3.575Y-18.7
X4.2Y-15.1
X4.4Y-10.7
X4.5Y-38.5
X4.6Y-43.0
X5.0Y-57.2
X5.425Y-22.9
X5.7Y-38.45
X5.7Y-44.2
X5.75Y-41.3
X6.15Y-31.45
X6.3Y-11.7
X6.5Y-34.2
X6.5Y-37.45
X6.6Y-39.4
X6.6Y-42.4
X6.65Y-18.25
X7.0Y-7.7
X7.15Y-26.45
X7.225Y-8.826
X7.45Y-4.0
X7.45Y-22.4
X7.5Y-34.2
X7.5Y-37.45
X7.86Y-11.575
X7.9Y-31.2
X8.5Y-4.3
X8.5Y-34.2
X8.5Y-47.0
X9.5Y-34.2
X9.55Y-37.6
X9.55Y-38.6
X9.55Y-39.6
X9.55Y-40.6
X9.55Y-41.6
X9.6Y-4.3
X9.7Y-13.95
X9.95Y-42.5
X10.5Y-5.5
X10.5Y-6.5
X10.65Y-13.4
X11.125Y-39.135
X11.3Y-44.2
X12.5Y0.35
X12.5Y-0.75
X12.9Y-23.5
X13.0Y-18.7
X13.25Y-11.5
X13.25Y-12.5
X13.25Y-13.5
X13.25Y-14.5
X13.3Y-26.0
X13.3Y-27.1
X13.3Y-28.5
X13.3Y-29.5
X13.3Y-30.9
X15.2Y2.35
X15.2Y-5.3
X16.6Y-27.1
X16.6Y-28.5
X16.6Y-29.5
X16.6Y-30.9
X16.65Y-11.5
X16.7Y-2.2
X16.7Y-6.5
X16.7Y-7.5
X16.7Y-8.5
X16.7Y-9.5
X16.7Y-10.5
X16.75Y-13.5
X16.75Y-14.5
X17.7Y-25.5
X17.7Y-32.5
X17.9Y0.35
X17.9Y-0.75
X17.9Y-2.5
X17.9Y-13.2
X18.2Y-3.65
X18.2Y-4.6
X18.6Y-12.5
X18.7Y-5.5
X18.7Y-6.5
X18.7Y-7.5
X18.7Y-8.5
X18.7Y-9.5
X18.7Y-10.5
X18.7Y-11.5
T3
X-15.6Y1.2
X-15.6Y-1.3
X4.6Y-51.3
X7.1Y-51.3
X15.1Y-40.0
X15.1Y-42.5
X-15.9Y-38.9
X-15.9Y-41.4
T4
X-8.89Y1.27
X-8.89Y-1.27
X-6.35Y1.27
X-6.35Y-1.27
X-3.81Y1.27
X-3.81Y-1.27
X-1.27Y1.27
X-1.27Y-1.27
X1.27Y1.27
X1.27Y-1.27
X3.81Y1.27
X3.81Y-1.27
X6.35Y1.27
X6.35Y-1.27
X8.89Y1.27
X8.89Y-1.27
T5
X17.0Y-57.0
X-17.0Y-57.0
T2
G00X-7.9Y-56.375
M15
G01X-7.9Y-57.225
M16
G05
G00X-6.725Y-53.8
M15
G01X-6.725Y-54.0
M16
G05
G00X-1.875Y-53.8
M15
G01X-1.875Y-54.0
M16
G05
G00X-0.7Y-56.375
M15
G01X-0.7Y-57.225
M16
G05
T0
M30
