G04 #@! TF.GenerationSoftware,KiCad,Pcbnew,(5.1.0-10-g6006703)*
G04 #@! TF.CreationDate,2019-04-20T21:28:09+08:00*
G04 #@! TF.ProjectId,cicada-2g,63696361-6461-42d3-9267-2e6b69636164,0.1*
G04 #@! TF.SameCoordinates,PX7cee6c0PY3dfd240*
G04 #@! TF.FileFunction,Legend,Top*
G04 #@! TF.FilePolarity,Positive*
%FSLAX46Y46*%
G04 Gerber Fmt 4.6, Leading zero omitted, Abs format (unit mm)*
G04 Created by KiCad (PCBNEW (5.1.0-10-g6006703)) date 2019-04-20 21:28:09*
%MOMM*%
%LPD*%
G04 APERTURE LIST*
%ADD10C,0.150000*%
%ADD11C,0.200000*%
%ADD12C,0.350000*%
%ADD13C,0.120000*%
%ADD14C,0.100000*%
G04 APERTURE END LIST*
D10*
X-5600000Y-45600000D02*
X-10700000Y-45600000D01*
X-3800000Y-43700000D02*
X-300000Y-43700000D01*
X-300000Y-43700000D02*
X-300000Y-46400000D01*
X-3800000Y-45000000D02*
X-3800000Y-43700000D01*
X-5600000Y-45000000D02*
X-3800000Y-45000000D01*
X-5600000Y-46400000D02*
X-5600000Y-45000000D01*
X-300000Y-46400000D02*
X-5600000Y-46400000D01*
X-14200000Y-46200000D02*
X-14200000Y-44900000D01*
X-16000000Y-46200000D02*
X-14200000Y-46200000D01*
X-16000000Y-47600000D02*
X-16000000Y-46200000D01*
X-10700000Y-47600000D02*
X-16000000Y-47600000D01*
X-10700000Y-44900000D02*
X-10700000Y-47600000D01*
X-14200000Y-44900000D02*
X-10700000Y-44900000D01*
X16650000Y-41100000D02*
X16650000Y-46125000D01*
X18850000Y-46125000D02*
X16650000Y-46125000D01*
X18850000Y-42875000D02*
X18850000Y-46125000D01*
X17725000Y-42875000D02*
X18850000Y-42875000D01*
X17725000Y-41100000D02*
X17725000Y-42875000D01*
X16650000Y-41100000D02*
X17725000Y-41100000D01*
X16750000Y-47225000D02*
X17750000Y-46225000D01*
X16750000Y-47225000D02*
X15225000Y-47225000D01*
X16750000Y-49600000D02*
X16750000Y-47225000D01*
X18125000Y-49600000D02*
X16750000Y-49600000D01*
X18125000Y-49850000D02*
X18125000Y-49600000D01*
X18125000Y-53675000D02*
X18125000Y-49850000D01*
X15225000Y-53675000D02*
X18125000Y-53675000D01*
X15225000Y-47225000D02*
X15225000Y-53675000D01*
D11*
X17592857Y-12092857D02*
X16392857Y-12092857D01*
X17592857Y-11407142D01*
X16392857Y-11407142D01*
X16964285Y-10835714D02*
X16964285Y-10435714D01*
X17592857Y-10264285D02*
X17592857Y-10835714D01*
X16392857Y-10835714D01*
X16392857Y-10264285D01*
X16392857Y-9921428D02*
X16392857Y-9235714D01*
X17592857Y-9578571D02*
X16392857Y-9578571D01*
D10*
X-2500000Y-60000000D02*
X17000000Y-60000000D01*
X-2500000Y-58300000D02*
X-2500000Y-60000000D01*
X-12000000Y-58300000D02*
X-2500000Y-58300000D01*
X-12000000Y-60000000D02*
X-12000000Y-58300000D01*
D12*
X14439285Y-5417738D02*
X14534523Y-5524880D01*
X14629761Y-5822500D01*
X14629761Y-6012976D01*
X14534523Y-6286785D01*
X14344047Y-6453452D01*
X14153571Y-6524880D01*
X13772619Y-6572500D01*
X13486904Y-6536785D01*
X13105952Y-6393928D01*
X12915476Y-6274880D01*
X12725000Y-6060595D01*
X12629761Y-5762976D01*
X12629761Y-5572500D01*
X12725000Y-5298690D01*
X12820238Y-5215357D01*
X14629761Y-4584404D02*
X13296428Y-4417738D01*
X12629761Y-4334404D02*
X12725000Y-4441547D01*
X12820238Y-4358214D01*
X12725000Y-4251071D01*
X12629761Y-4334404D01*
X12820238Y-4358214D01*
X14534523Y-2762976D02*
X14629761Y-2965357D01*
X14629761Y-3346309D01*
X14534523Y-3524880D01*
X14439285Y-3608214D01*
X14248809Y-3679642D01*
X13677380Y-3608214D01*
X13486904Y-3489166D01*
X13391666Y-3382023D01*
X13296428Y-3179642D01*
X13296428Y-2798690D01*
X13391666Y-2620119D01*
X14629761Y-1060595D02*
X13582142Y-929642D01*
X13391666Y-1001071D01*
X13296428Y-1179642D01*
X13296428Y-1560595D01*
X13391666Y-1762976D01*
X14534523Y-1048690D02*
X14629761Y-1251071D01*
X14629761Y-1727261D01*
X14534523Y-1905833D01*
X14344047Y-1977261D01*
X14153571Y-1953452D01*
X13963095Y-1834404D01*
X13867857Y-1632023D01*
X13867857Y-1155833D01*
X13772619Y-953452D01*
X14629761Y748929D02*
X12629761Y998929D01*
X14534523Y760834D02*
X14629761Y558453D01*
X14629761Y177500D01*
X14534523Y-1071D01*
X14439285Y-84404D01*
X14248809Y-155833D01*
X13677380Y-84404D01*
X13486904Y34643D01*
X13391666Y141786D01*
X13296428Y344167D01*
X13296428Y725120D01*
X13391666Y903691D01*
X14629761Y2558453D02*
X13582142Y2689405D01*
X13391666Y2617977D01*
X13296428Y2439405D01*
X13296428Y2058453D01*
X13391666Y1856072D01*
X14534523Y2570358D02*
X14629761Y2367977D01*
X14629761Y1891786D01*
X14534523Y1713215D01*
X14344047Y1641786D01*
X14153571Y1665596D01*
X13963095Y1784643D01*
X13867857Y1987024D01*
X13867857Y2463215D01*
X13772619Y2665596D01*
X16170238Y-6453452D02*
X16075000Y-6346309D01*
X15979761Y-6143928D01*
X15979761Y-5667738D01*
X16075000Y-5489166D01*
X16170238Y-5405833D01*
X16360714Y-5334404D01*
X16551190Y-5358214D01*
X16836904Y-5489166D01*
X17979761Y-6774880D01*
X17979761Y-5536785D01*
X16075000Y-3393928D02*
X15979761Y-3572500D01*
X15979761Y-3858214D01*
X16075000Y-4155833D01*
X16265476Y-4370119D01*
X16455952Y-4489166D01*
X16836904Y-4632023D01*
X17122619Y-4667738D01*
X17503571Y-4620119D01*
X17694047Y-4548690D01*
X17884523Y-4382023D01*
X17979761Y-4108214D01*
X17979761Y-3917738D01*
X17884523Y-3620119D01*
X17789285Y-3512976D01*
X17122619Y-3429642D01*
X17122619Y-3810595D01*
X16646428Y-1179642D02*
X17979761Y-870119D01*
X16646428Y-227261D01*
X17979761Y1415596D02*
X17979761Y272739D01*
X17979761Y844167D02*
X15979761Y1094167D01*
X16265476Y867977D01*
X16455952Y653691D01*
X16551190Y451310D01*
D10*
X-17000000Y-60000000D02*
G75*
G02X-20000000Y-57000000I0J3000000D01*
G01*
X20000000Y-57000000D02*
G75*
G02X17000000Y-60000000I-3000000J0D01*
G01*
X17000000Y5000000D02*
G75*
G02X20000000Y2000000I0J-3000000D01*
G01*
X-20000000Y2000000D02*
G75*
G02X-17000000Y5000000I3000000J0D01*
G01*
X-20000000Y-57000000D02*
X-20000000Y2000000D01*
X-12000000Y-60000000D02*
X-17000000Y-60000000D01*
X20000000Y2000000D02*
X20000000Y-57000000D01*
X-17000000Y5000000D02*
X17000000Y5000000D01*
D13*
X5980000Y-15540000D02*
X5980000Y-17000000D01*
X2820000Y-15540000D02*
X2820000Y-17700000D01*
X2820000Y-15540000D02*
X3750000Y-15540000D01*
X5980000Y-15540000D02*
X5050000Y-15540000D01*
X10880000Y-15540000D02*
X10880000Y-17000000D01*
X7720000Y-15540000D02*
X7720000Y-17700000D01*
X7720000Y-15540000D02*
X8650000Y-15540000D01*
X10880000Y-15540000D02*
X9950000Y-15540000D01*
X1085000Y-26575000D02*
X1085000Y-29425000D01*
X1085000Y-42385000D02*
X-1225000Y-42385000D01*
X1085000Y-42385000D02*
X1085000Y-39425000D01*
X-16735000Y-26465000D02*
X-14425000Y-26465000D01*
X-16735000Y-42385000D02*
X-16735000Y-39425000D01*
X-16735000Y-42385000D02*
X-14425000Y-42385000D01*
X-16735000Y-26465000D02*
X-16735000Y-29425000D01*
X-1400000Y-50070000D02*
X-2200000Y-50070000D01*
X-1400000Y-49870000D02*
X-1400000Y-50070000D01*
X-4400000Y-50070000D02*
X-4400000Y-49870000D01*
X-3600000Y-50070000D02*
X-4400000Y-50070000D01*
X-4400000Y-47070000D02*
X-3600000Y-47070000D01*
X-4400000Y-47270000D02*
X-4400000Y-47070000D01*
X-1600000Y-47070000D02*
X-1400000Y-47270000D01*
X-2200000Y-47070000D02*
X-1600000Y-47070000D01*
X-2200000Y-47070000D02*
X-2200000Y-46570000D01*
X-3600000Y-47070000D02*
X-3600000Y-46570000D01*
X9750000Y-50450000D02*
X4350000Y-50450000D01*
X9750000Y-47150000D02*
X4350000Y-47150000D01*
X9750000Y-50450000D02*
X9750000Y-47150000D01*
D10*
X-11200000Y-53700000D02*
X-10500000Y-53700000D01*
X-11200000Y-53700000D02*
X-11200000Y-55600000D01*
X-4000000Y-53700000D02*
X-3400000Y-53700000D01*
X-3400000Y-53700000D02*
X-3400000Y-55600000D01*
X-8800000Y-52800000D02*
X-8600000Y-53200000D01*
X-8600000Y-53200000D02*
X-8400000Y-52800000D01*
X-8400000Y-52800000D02*
X-8800000Y-52800000D01*
D13*
X16407250Y-43923971D02*
X16407250Y-41493971D01*
X13337250Y-42163971D02*
X13337250Y-43923971D01*
X-9210000Y-48900000D02*
X-9210000Y-51350000D01*
X-5990000Y-50700000D02*
X-5990000Y-48900000D01*
X16423274Y-15552199D02*
X16423274Y-17012199D01*
X13263274Y-15552199D02*
X13263274Y-17712199D01*
X13263274Y-15552199D02*
X14193274Y-15552199D01*
X16423274Y-15552199D02*
X15493274Y-15552199D01*
D10*
X-3500000Y-16850000D02*
X-3500000Y-6350000D01*
X-2000000Y-16850000D02*
X-3500000Y-16850000D01*
X-2000000Y-21100000D02*
X-2000000Y-16850000D01*
X-19250000Y-21100000D02*
X-2000000Y-21100000D01*
X-19250000Y-6350000D02*
X-19250000Y-21100000D01*
X-3500000Y-6350000D02*
X-19250000Y-6350000D01*
D13*
X15550000Y-35675000D02*
X9550000Y-35675000D01*
X15550000Y-39875000D02*
X9550000Y-39875000D01*
D14*
X-3160000Y-45600000D02*
G75*
G03X-3160000Y-45600000I-50000J0D01*
G01*
D13*
X15576091Y-12582071D02*
X15576091Y-10297071D01*
X14106091Y-12582071D02*
X15576091Y-12582071D01*
X14106091Y-10297071D02*
X14106091Y-12582071D01*
X900000Y-11700000D02*
X2750000Y-11700000D01*
X900000Y-12900000D02*
X2750000Y-12900000D01*
X2750000Y-12900000D02*
X2750000Y-11700000D01*
X900000Y-8000000D02*
X2750000Y-8000000D01*
X900000Y-9200000D02*
X2750000Y-9200000D01*
X2750000Y-9200000D02*
X2750000Y-8000000D01*
X2000000Y-5500000D02*
X3850000Y-5500000D01*
X2000000Y-6700000D02*
X3850000Y-6700000D01*
X3850000Y-6700000D02*
X3850000Y-5500000D01*
X8154000Y-38864759D02*
X7524000Y-38864759D01*
X7839000Y-38549759D02*
X7839000Y-39179759D01*
X6402000Y-45291000D02*
X5598000Y-45291000D01*
X6633000Y-45251000D02*
X5367000Y-45251000D01*
X6802000Y-45211000D02*
X5198000Y-45211000D01*
X6940000Y-45171000D02*
X5060000Y-45171000D01*
X7059000Y-45131000D02*
X4941000Y-45131000D01*
X7165000Y-45091000D02*
X4835000Y-45091000D01*
X7262000Y-45051000D02*
X4738000Y-45051000D01*
X7350000Y-45011000D02*
X4650000Y-45011000D01*
X7432000Y-44971000D02*
X4568000Y-44971000D01*
X7509000Y-44931000D02*
X4491000Y-44931000D01*
X7581000Y-44891000D02*
X4419000Y-44891000D01*
X7650000Y-44851000D02*
X4350000Y-44851000D01*
X7714000Y-44811000D02*
X4286000Y-44811000D01*
X7776000Y-44771000D02*
X4224000Y-44771000D01*
X7834000Y-44731000D02*
X4166000Y-44731000D01*
X7890000Y-44691000D02*
X4110000Y-44691000D01*
X7944000Y-44651000D02*
X4056000Y-44651000D01*
X7995000Y-44611000D02*
X4005000Y-44611000D01*
X8044000Y-44571000D02*
X3956000Y-44571000D01*
X8092000Y-44531000D02*
X3908000Y-44531000D01*
X8137000Y-44491000D02*
X3863000Y-44491000D01*
X8182000Y-44451000D02*
X3818000Y-44451000D01*
X8224000Y-44411000D02*
X3776000Y-44411000D01*
X8265000Y-44371000D02*
X3735000Y-44371000D01*
X4960000Y-44331000D02*
X3695000Y-44331000D01*
X8305000Y-44331000D02*
X7040000Y-44331000D01*
X4960000Y-44291000D02*
X3657000Y-44291000D01*
X8343000Y-44291000D02*
X7040000Y-44291000D01*
X4960000Y-44251000D02*
X3620000Y-44251000D01*
X8380000Y-44251000D02*
X7040000Y-44251000D01*
X4960000Y-44211000D02*
X3584000Y-44211000D01*
X8416000Y-44211000D02*
X7040000Y-44211000D01*
X4960000Y-44171000D02*
X3550000Y-44171000D01*
X8450000Y-44171000D02*
X7040000Y-44171000D01*
X4960000Y-44131000D02*
X3516000Y-44131000D01*
X8484000Y-44131000D02*
X7040000Y-44131000D01*
X4960000Y-44091000D02*
X3484000Y-44091000D01*
X8516000Y-44091000D02*
X7040000Y-44091000D01*
X4960000Y-44051000D02*
X3452000Y-44051000D01*
X8548000Y-44051000D02*
X7040000Y-44051000D01*
X4960000Y-44011000D02*
X3422000Y-44011000D01*
X8578000Y-44011000D02*
X7040000Y-44011000D01*
X4960000Y-43971000D02*
X3393000Y-43971000D01*
X8607000Y-43971000D02*
X7040000Y-43971000D01*
X4960000Y-43931000D02*
X3364000Y-43931000D01*
X8636000Y-43931000D02*
X7040000Y-43931000D01*
X4960000Y-43891000D02*
X3336000Y-43891000D01*
X8664000Y-43891000D02*
X7040000Y-43891000D01*
X4960000Y-43851000D02*
X3310000Y-43851000D01*
X8690000Y-43851000D02*
X7040000Y-43851000D01*
X4960000Y-43811000D02*
X3284000Y-43811000D01*
X8716000Y-43811000D02*
X7040000Y-43811000D01*
X4960000Y-43771000D02*
X3258000Y-43771000D01*
X8742000Y-43771000D02*
X7040000Y-43771000D01*
X4960000Y-43731000D02*
X3234000Y-43731000D01*
X8766000Y-43731000D02*
X7040000Y-43731000D01*
X4960000Y-43691000D02*
X3210000Y-43691000D01*
X8790000Y-43691000D02*
X7040000Y-43691000D01*
X4960000Y-43651000D02*
X3188000Y-43651000D01*
X8812000Y-43651000D02*
X7040000Y-43651000D01*
X4960000Y-43611000D02*
X3166000Y-43611000D01*
X8834000Y-43611000D02*
X7040000Y-43611000D01*
X4960000Y-43571000D02*
X3144000Y-43571000D01*
X8856000Y-43571000D02*
X7040000Y-43571000D01*
X4960000Y-43531000D02*
X3124000Y-43531000D01*
X8876000Y-43531000D02*
X7040000Y-43531000D01*
X4960000Y-43491000D02*
X3104000Y-43491000D01*
X8896000Y-43491000D02*
X7040000Y-43491000D01*
X4960000Y-43451000D02*
X3084000Y-43451000D01*
X8916000Y-43451000D02*
X7040000Y-43451000D01*
X4960000Y-43411000D02*
X3066000Y-43411000D01*
X8934000Y-43411000D02*
X7040000Y-43411000D01*
X4960000Y-43371000D02*
X3048000Y-43371000D01*
X8952000Y-43371000D02*
X7040000Y-43371000D01*
X4960000Y-43331000D02*
X3030000Y-43331000D01*
X8970000Y-43331000D02*
X7040000Y-43331000D01*
X4960000Y-43291000D02*
X3014000Y-43291000D01*
X8986000Y-43291000D02*
X7040000Y-43291000D01*
X4960000Y-43251000D02*
X2998000Y-43251000D01*
X9002000Y-43251000D02*
X7040000Y-43251000D01*
X4960000Y-43211000D02*
X2982000Y-43211000D01*
X9018000Y-43211000D02*
X7040000Y-43211000D01*
X4960000Y-43171000D02*
X2967000Y-43171000D01*
X9033000Y-43171000D02*
X7040000Y-43171000D01*
X4960000Y-43131000D02*
X2953000Y-43131000D01*
X9047000Y-43131000D02*
X7040000Y-43131000D01*
X4960000Y-43091000D02*
X2939000Y-43091000D01*
X9061000Y-43091000D02*
X7040000Y-43091000D01*
X4960000Y-43051000D02*
X2926000Y-43051000D01*
X9074000Y-43051000D02*
X7040000Y-43051000D01*
X4960000Y-43011000D02*
X2914000Y-43011000D01*
X9086000Y-43011000D02*
X7040000Y-43011000D01*
X4960000Y-42971000D02*
X2902000Y-42971000D01*
X9098000Y-42971000D02*
X7040000Y-42971000D01*
X4960000Y-42931000D02*
X2890000Y-42931000D01*
X9110000Y-42931000D02*
X7040000Y-42931000D01*
X4960000Y-42891000D02*
X2879000Y-42891000D01*
X9121000Y-42891000D02*
X7040000Y-42891000D01*
X4960000Y-42851000D02*
X2869000Y-42851000D01*
X9131000Y-42851000D02*
X7040000Y-42851000D01*
X4960000Y-42811000D02*
X2859000Y-42811000D01*
X9141000Y-42811000D02*
X7040000Y-42811000D01*
X4960000Y-42771000D02*
X2850000Y-42771000D01*
X9150000Y-42771000D02*
X7040000Y-42771000D01*
X4960000Y-42730000D02*
X2841000Y-42730000D01*
X9159000Y-42730000D02*
X7040000Y-42730000D01*
X4960000Y-42690000D02*
X2833000Y-42690000D01*
X9167000Y-42690000D02*
X7040000Y-42690000D01*
X4960000Y-42650000D02*
X2825000Y-42650000D01*
X9175000Y-42650000D02*
X7040000Y-42650000D01*
X4960000Y-42610000D02*
X2818000Y-42610000D01*
X9182000Y-42610000D02*
X7040000Y-42610000D01*
X4960000Y-42570000D02*
X2811000Y-42570000D01*
X9189000Y-42570000D02*
X7040000Y-42570000D01*
X4960000Y-42530000D02*
X2805000Y-42530000D01*
X9195000Y-42530000D02*
X7040000Y-42530000D01*
X4960000Y-42490000D02*
X2799000Y-42490000D01*
X9201000Y-42490000D02*
X7040000Y-42490000D01*
X4960000Y-42450000D02*
X2794000Y-42450000D01*
X9206000Y-42450000D02*
X7040000Y-42450000D01*
X4960000Y-42410000D02*
X2789000Y-42410000D01*
X9211000Y-42410000D02*
X7040000Y-42410000D01*
X4960000Y-42370000D02*
X2785000Y-42370000D01*
X9215000Y-42370000D02*
X7040000Y-42370000D01*
X4960000Y-42330000D02*
X2782000Y-42330000D01*
X9218000Y-42330000D02*
X7040000Y-42330000D01*
X4960000Y-42290000D02*
X2778000Y-42290000D01*
X9222000Y-42290000D02*
X7040000Y-42290000D01*
X9224000Y-42250000D02*
X2776000Y-42250000D01*
X9227000Y-42210000D02*
X2773000Y-42210000D01*
X9228000Y-42170000D02*
X2772000Y-42170000D01*
X9230000Y-42130000D02*
X2770000Y-42130000D01*
X9230000Y-42090000D02*
X2770000Y-42090000D01*
X9230000Y-42050000D02*
X2770000Y-42050000D01*
X9270000Y-42050000D02*
G75*
G03X9270000Y-42050000I-3270000J0D01*
G01*
X11460000Y-42033578D02*
X11460000Y-41516422D01*
X10040000Y-42033578D02*
X10040000Y-41516422D01*
X11940000Y-41412221D02*
X11940000Y-41737779D01*
X12960000Y-41412221D02*
X12960000Y-41737779D01*
X10040000Y-44916422D02*
X10040000Y-45433578D01*
X11460000Y-44916422D02*
X11460000Y-45433578D01*
X12960000Y-44725279D02*
X12960000Y-44399721D01*
X11940000Y-44725279D02*
X11940000Y-44399721D01*
X10964759Y-26646000D02*
X10964759Y-27276000D01*
X10649759Y-26961000D02*
X11279759Y-26961000D01*
X17391000Y-28398000D02*
X17391000Y-29202000D01*
X17351000Y-28167000D02*
X17351000Y-29433000D01*
X17311000Y-27998000D02*
X17311000Y-29602000D01*
X17271000Y-27860000D02*
X17271000Y-29740000D01*
X17231000Y-27741000D02*
X17231000Y-29859000D01*
X17191000Y-27635000D02*
X17191000Y-29965000D01*
X17151000Y-27538000D02*
X17151000Y-30062000D01*
X17111000Y-27450000D02*
X17111000Y-30150000D01*
X17071000Y-27368000D02*
X17071000Y-30232000D01*
X17031000Y-27291000D02*
X17031000Y-30309000D01*
X16991000Y-27219000D02*
X16991000Y-30381000D01*
X16951000Y-27150000D02*
X16951000Y-30450000D01*
X16911000Y-27086000D02*
X16911000Y-30514000D01*
X16871000Y-27024000D02*
X16871000Y-30576000D01*
X16831000Y-26966000D02*
X16831000Y-30634000D01*
X16791000Y-26910000D02*
X16791000Y-30690000D01*
X16751000Y-26856000D02*
X16751000Y-30744000D01*
X16711000Y-26805000D02*
X16711000Y-30795000D01*
X16671000Y-26756000D02*
X16671000Y-30844000D01*
X16631000Y-26708000D02*
X16631000Y-30892000D01*
X16591000Y-26663000D02*
X16591000Y-30937000D01*
X16551000Y-26618000D02*
X16551000Y-30982000D01*
X16511000Y-26576000D02*
X16511000Y-31024000D01*
X16471000Y-26535000D02*
X16471000Y-31065000D01*
X16431000Y-29840000D02*
X16431000Y-31105000D01*
X16431000Y-26495000D02*
X16431000Y-27760000D01*
X16391000Y-29840000D02*
X16391000Y-31143000D01*
X16391000Y-26457000D02*
X16391000Y-27760000D01*
X16351000Y-29840000D02*
X16351000Y-31180000D01*
X16351000Y-26420000D02*
X16351000Y-27760000D01*
X16311000Y-29840000D02*
X16311000Y-31216000D01*
X16311000Y-26384000D02*
X16311000Y-27760000D01*
X16271000Y-29840000D02*
X16271000Y-31250000D01*
X16271000Y-26350000D02*
X16271000Y-27760000D01*
X16231000Y-29840000D02*
X16231000Y-31284000D01*
X16231000Y-26316000D02*
X16231000Y-27760000D01*
X16191000Y-29840000D02*
X16191000Y-31316000D01*
X16191000Y-26284000D02*
X16191000Y-27760000D01*
X16151000Y-29840000D02*
X16151000Y-31348000D01*
X16151000Y-26252000D02*
X16151000Y-27760000D01*
X16111000Y-29840000D02*
X16111000Y-31378000D01*
X16111000Y-26222000D02*
X16111000Y-27760000D01*
X16071000Y-29840000D02*
X16071000Y-31407000D01*
X16071000Y-26193000D02*
X16071000Y-27760000D01*
X16031000Y-29840000D02*
X16031000Y-31436000D01*
X16031000Y-26164000D02*
X16031000Y-27760000D01*
X15991000Y-29840000D02*
X15991000Y-31464000D01*
X15991000Y-26136000D02*
X15991000Y-27760000D01*
X15951000Y-29840000D02*
X15951000Y-31490000D01*
X15951000Y-26110000D02*
X15951000Y-27760000D01*
X15911000Y-29840000D02*
X15911000Y-31516000D01*
X15911000Y-26084000D02*
X15911000Y-27760000D01*
X15871000Y-29840000D02*
X15871000Y-31542000D01*
X15871000Y-26058000D02*
X15871000Y-27760000D01*
X15831000Y-29840000D02*
X15831000Y-31566000D01*
X15831000Y-26034000D02*
X15831000Y-27760000D01*
X15791000Y-29840000D02*
X15791000Y-31590000D01*
X15791000Y-26010000D02*
X15791000Y-27760000D01*
X15751000Y-29840000D02*
X15751000Y-31612000D01*
X15751000Y-25988000D02*
X15751000Y-27760000D01*
X15711000Y-29840000D02*
X15711000Y-31634000D01*
X15711000Y-25966000D02*
X15711000Y-27760000D01*
X15671000Y-29840000D02*
X15671000Y-31656000D01*
X15671000Y-25944000D02*
X15671000Y-27760000D01*
X15631000Y-29840000D02*
X15631000Y-31676000D01*
X15631000Y-25924000D02*
X15631000Y-27760000D01*
X15591000Y-29840000D02*
X15591000Y-31696000D01*
X15591000Y-25904000D02*
X15591000Y-27760000D01*
X15551000Y-29840000D02*
X15551000Y-31716000D01*
X15551000Y-25884000D02*
X15551000Y-27760000D01*
X15511000Y-29840000D02*
X15511000Y-31734000D01*
X15511000Y-25866000D02*
X15511000Y-27760000D01*
X15471000Y-29840000D02*
X15471000Y-31752000D01*
X15471000Y-25848000D02*
X15471000Y-27760000D01*
X15431000Y-29840000D02*
X15431000Y-31770000D01*
X15431000Y-25830000D02*
X15431000Y-27760000D01*
X15391000Y-29840000D02*
X15391000Y-31786000D01*
X15391000Y-25814000D02*
X15391000Y-27760000D01*
X15351000Y-29840000D02*
X15351000Y-31802000D01*
X15351000Y-25798000D02*
X15351000Y-27760000D01*
X15311000Y-29840000D02*
X15311000Y-31818000D01*
X15311000Y-25782000D02*
X15311000Y-27760000D01*
X15271000Y-29840000D02*
X15271000Y-31833000D01*
X15271000Y-25767000D02*
X15271000Y-27760000D01*
X15231000Y-29840000D02*
X15231000Y-31847000D01*
X15231000Y-25753000D02*
X15231000Y-27760000D01*
X15191000Y-29840000D02*
X15191000Y-31861000D01*
X15191000Y-25739000D02*
X15191000Y-27760000D01*
X15151000Y-29840000D02*
X15151000Y-31874000D01*
X15151000Y-25726000D02*
X15151000Y-27760000D01*
X15111000Y-29840000D02*
X15111000Y-31886000D01*
X15111000Y-25714000D02*
X15111000Y-27760000D01*
X15071000Y-29840000D02*
X15071000Y-31898000D01*
X15071000Y-25702000D02*
X15071000Y-27760000D01*
X15031000Y-29840000D02*
X15031000Y-31910000D01*
X15031000Y-25690000D02*
X15031000Y-27760000D01*
X14991000Y-29840000D02*
X14991000Y-31921000D01*
X14991000Y-25679000D02*
X14991000Y-27760000D01*
X14951000Y-29840000D02*
X14951000Y-31931000D01*
X14951000Y-25669000D02*
X14951000Y-27760000D01*
X14911000Y-29840000D02*
X14911000Y-31941000D01*
X14911000Y-25659000D02*
X14911000Y-27760000D01*
X14871000Y-29840000D02*
X14871000Y-31950000D01*
X14871000Y-25650000D02*
X14871000Y-27760000D01*
X14830000Y-29840000D02*
X14830000Y-31959000D01*
X14830000Y-25641000D02*
X14830000Y-27760000D01*
X14790000Y-29840000D02*
X14790000Y-31967000D01*
X14790000Y-25633000D02*
X14790000Y-27760000D01*
X14750000Y-29840000D02*
X14750000Y-31975000D01*
X14750000Y-25625000D02*
X14750000Y-27760000D01*
X14710000Y-29840000D02*
X14710000Y-31982000D01*
X14710000Y-25618000D02*
X14710000Y-27760000D01*
X14670000Y-29840000D02*
X14670000Y-31989000D01*
X14670000Y-25611000D02*
X14670000Y-27760000D01*
X14630000Y-29840000D02*
X14630000Y-31995000D01*
X14630000Y-25605000D02*
X14630000Y-27760000D01*
X14590000Y-29840000D02*
X14590000Y-32001000D01*
X14590000Y-25599000D02*
X14590000Y-27760000D01*
X14550000Y-29840000D02*
X14550000Y-32006000D01*
X14550000Y-25594000D02*
X14550000Y-27760000D01*
X14510000Y-29840000D02*
X14510000Y-32011000D01*
X14510000Y-25589000D02*
X14510000Y-27760000D01*
X14470000Y-29840000D02*
X14470000Y-32015000D01*
X14470000Y-25585000D02*
X14470000Y-27760000D01*
X14430000Y-29840000D02*
X14430000Y-32018000D01*
X14430000Y-25582000D02*
X14430000Y-27760000D01*
X14390000Y-29840000D02*
X14390000Y-32022000D01*
X14390000Y-25578000D02*
X14390000Y-27760000D01*
X14350000Y-25576000D02*
X14350000Y-32024000D01*
X14310000Y-25573000D02*
X14310000Y-32027000D01*
X14270000Y-25572000D02*
X14270000Y-32028000D01*
X14230000Y-25570000D02*
X14230000Y-32030000D01*
X14190000Y-25570000D02*
X14190000Y-32030000D01*
X14150000Y-25570000D02*
X14150000Y-32030000D01*
X17420000Y-28800000D02*
G75*
G03X17420000Y-28800000I-3270000J0D01*
G01*
X10935241Y-27254000D02*
X10935241Y-26624000D01*
X11250241Y-26939000D02*
X10620241Y-26939000D01*
X4509000Y-25502000D02*
X4509000Y-24698000D01*
X4549000Y-25733000D02*
X4549000Y-24467000D01*
X4589000Y-25902000D02*
X4589000Y-24298000D01*
X4629000Y-26040000D02*
X4629000Y-24160000D01*
X4669000Y-26159000D02*
X4669000Y-24041000D01*
X4709000Y-26265000D02*
X4709000Y-23935000D01*
X4749000Y-26362000D02*
X4749000Y-23838000D01*
X4789000Y-26450000D02*
X4789000Y-23750000D01*
X4829000Y-26532000D02*
X4829000Y-23668000D01*
X4869000Y-26609000D02*
X4869000Y-23591000D01*
X4909000Y-26681000D02*
X4909000Y-23519000D01*
X4949000Y-26750000D02*
X4949000Y-23450000D01*
X4989000Y-26814000D02*
X4989000Y-23386000D01*
X5029000Y-26876000D02*
X5029000Y-23324000D01*
X5069000Y-26934000D02*
X5069000Y-23266000D01*
X5109000Y-26990000D02*
X5109000Y-23210000D01*
X5149000Y-27044000D02*
X5149000Y-23156000D01*
X5189000Y-27095000D02*
X5189000Y-23105000D01*
X5229000Y-27144000D02*
X5229000Y-23056000D01*
X5269000Y-27192000D02*
X5269000Y-23008000D01*
X5309000Y-27237000D02*
X5309000Y-22963000D01*
X5349000Y-27282000D02*
X5349000Y-22918000D01*
X5389000Y-27324000D02*
X5389000Y-22876000D01*
X5429000Y-27365000D02*
X5429000Y-22835000D01*
X5469000Y-24060000D02*
X5469000Y-22795000D01*
X5469000Y-27405000D02*
X5469000Y-26140000D01*
X5509000Y-24060000D02*
X5509000Y-22757000D01*
X5509000Y-27443000D02*
X5509000Y-26140000D01*
X5549000Y-24060000D02*
X5549000Y-22720000D01*
X5549000Y-27480000D02*
X5549000Y-26140000D01*
X5589000Y-24060000D02*
X5589000Y-22684000D01*
X5589000Y-27516000D02*
X5589000Y-26140000D01*
X5629000Y-24060000D02*
X5629000Y-22650000D01*
X5629000Y-27550000D02*
X5629000Y-26140000D01*
X5669000Y-24060000D02*
X5669000Y-22616000D01*
X5669000Y-27584000D02*
X5669000Y-26140000D01*
X5709000Y-24060000D02*
X5709000Y-22584000D01*
X5709000Y-27616000D02*
X5709000Y-26140000D01*
X5749000Y-24060000D02*
X5749000Y-22552000D01*
X5749000Y-27648000D02*
X5749000Y-26140000D01*
X5789000Y-24060000D02*
X5789000Y-22522000D01*
X5789000Y-27678000D02*
X5789000Y-26140000D01*
X5829000Y-24060000D02*
X5829000Y-22493000D01*
X5829000Y-27707000D02*
X5829000Y-26140000D01*
X5869000Y-24060000D02*
X5869000Y-22464000D01*
X5869000Y-27736000D02*
X5869000Y-26140000D01*
X5909000Y-24060000D02*
X5909000Y-22436000D01*
X5909000Y-27764000D02*
X5909000Y-26140000D01*
X5949000Y-24060000D02*
X5949000Y-22410000D01*
X5949000Y-27790000D02*
X5949000Y-26140000D01*
X5989000Y-24060000D02*
X5989000Y-22384000D01*
X5989000Y-27816000D02*
X5989000Y-26140000D01*
X6029000Y-24060000D02*
X6029000Y-22358000D01*
X6029000Y-27842000D02*
X6029000Y-26140000D01*
X6069000Y-24060000D02*
X6069000Y-22334000D01*
X6069000Y-27866000D02*
X6069000Y-26140000D01*
X6109000Y-24060000D02*
X6109000Y-22310000D01*
X6109000Y-27890000D02*
X6109000Y-26140000D01*
X6149000Y-24060000D02*
X6149000Y-22288000D01*
X6149000Y-27912000D02*
X6149000Y-26140000D01*
X6189000Y-24060000D02*
X6189000Y-22266000D01*
X6189000Y-27934000D02*
X6189000Y-26140000D01*
X6229000Y-24060000D02*
X6229000Y-22244000D01*
X6229000Y-27956000D02*
X6229000Y-26140000D01*
X6269000Y-24060000D02*
X6269000Y-22224000D01*
X6269000Y-27976000D02*
X6269000Y-26140000D01*
X6309000Y-24060000D02*
X6309000Y-22204000D01*
X6309000Y-27996000D02*
X6309000Y-26140000D01*
X6349000Y-24060000D02*
X6349000Y-22184000D01*
X6349000Y-28016000D02*
X6349000Y-26140000D01*
X6389000Y-24060000D02*
X6389000Y-22166000D01*
X6389000Y-28034000D02*
X6389000Y-26140000D01*
X6429000Y-24060000D02*
X6429000Y-22148000D01*
X6429000Y-28052000D02*
X6429000Y-26140000D01*
X6469000Y-24060000D02*
X6469000Y-22130000D01*
X6469000Y-28070000D02*
X6469000Y-26140000D01*
X6509000Y-24060000D02*
X6509000Y-22114000D01*
X6509000Y-28086000D02*
X6509000Y-26140000D01*
X6549000Y-24060000D02*
X6549000Y-22098000D01*
X6549000Y-28102000D02*
X6549000Y-26140000D01*
X6589000Y-24060000D02*
X6589000Y-22082000D01*
X6589000Y-28118000D02*
X6589000Y-26140000D01*
X6629000Y-24060000D02*
X6629000Y-22067000D01*
X6629000Y-28133000D02*
X6629000Y-26140000D01*
X6669000Y-24060000D02*
X6669000Y-22053000D01*
X6669000Y-28147000D02*
X6669000Y-26140000D01*
X6709000Y-24060000D02*
X6709000Y-22039000D01*
X6709000Y-28161000D02*
X6709000Y-26140000D01*
X6749000Y-24060000D02*
X6749000Y-22026000D01*
X6749000Y-28174000D02*
X6749000Y-26140000D01*
X6789000Y-24060000D02*
X6789000Y-22014000D01*
X6789000Y-28186000D02*
X6789000Y-26140000D01*
X6829000Y-24060000D02*
X6829000Y-22002000D01*
X6829000Y-28198000D02*
X6829000Y-26140000D01*
X6869000Y-24060000D02*
X6869000Y-21990000D01*
X6869000Y-28210000D02*
X6869000Y-26140000D01*
X6909000Y-24060000D02*
X6909000Y-21979000D01*
X6909000Y-28221000D02*
X6909000Y-26140000D01*
X6949000Y-24060000D02*
X6949000Y-21969000D01*
X6949000Y-28231000D02*
X6949000Y-26140000D01*
X6989000Y-24060000D02*
X6989000Y-21959000D01*
X6989000Y-28241000D02*
X6989000Y-26140000D01*
X7029000Y-24060000D02*
X7029000Y-21950000D01*
X7029000Y-28250000D02*
X7029000Y-26140000D01*
X7070000Y-24060000D02*
X7070000Y-21941000D01*
X7070000Y-28259000D02*
X7070000Y-26140000D01*
X7110000Y-24060000D02*
X7110000Y-21933000D01*
X7110000Y-28267000D02*
X7110000Y-26140000D01*
X7150000Y-24060000D02*
X7150000Y-21925000D01*
X7150000Y-28275000D02*
X7150000Y-26140000D01*
X7190000Y-24060000D02*
X7190000Y-21918000D01*
X7190000Y-28282000D02*
X7190000Y-26140000D01*
X7230000Y-24060000D02*
X7230000Y-21911000D01*
X7230000Y-28289000D02*
X7230000Y-26140000D01*
X7270000Y-24060000D02*
X7270000Y-21905000D01*
X7270000Y-28295000D02*
X7270000Y-26140000D01*
X7310000Y-24060000D02*
X7310000Y-21899000D01*
X7310000Y-28301000D02*
X7310000Y-26140000D01*
X7350000Y-24060000D02*
X7350000Y-21894000D01*
X7350000Y-28306000D02*
X7350000Y-26140000D01*
X7390000Y-24060000D02*
X7390000Y-21889000D01*
X7390000Y-28311000D02*
X7390000Y-26140000D01*
X7430000Y-24060000D02*
X7430000Y-21885000D01*
X7430000Y-28315000D02*
X7430000Y-26140000D01*
X7470000Y-24060000D02*
X7470000Y-21882000D01*
X7470000Y-28318000D02*
X7470000Y-26140000D01*
X7510000Y-24060000D02*
X7510000Y-21878000D01*
X7510000Y-28322000D02*
X7510000Y-26140000D01*
X7550000Y-28324000D02*
X7550000Y-21876000D01*
X7590000Y-28327000D02*
X7590000Y-21873000D01*
X7630000Y-28328000D02*
X7630000Y-21872000D01*
X7670000Y-28330000D02*
X7670000Y-21870000D01*
X7710000Y-28330000D02*
X7710000Y-21870000D01*
X7750000Y-28330000D02*
X7750000Y-21870000D01*
X11020000Y-25100000D02*
G75*
G03X11020000Y-25100000I-3270000J0D01*
G01*
X10935241Y-34254000D02*
X10935241Y-33624000D01*
X11250241Y-33939000D02*
X10620241Y-33939000D01*
X4509000Y-32502000D02*
X4509000Y-31698000D01*
X4549000Y-32733000D02*
X4549000Y-31467000D01*
X4589000Y-32902000D02*
X4589000Y-31298000D01*
X4629000Y-33040000D02*
X4629000Y-31160000D01*
X4669000Y-33159000D02*
X4669000Y-31041000D01*
X4709000Y-33265000D02*
X4709000Y-30935000D01*
X4749000Y-33362000D02*
X4749000Y-30838000D01*
X4789000Y-33450000D02*
X4789000Y-30750000D01*
X4829000Y-33532000D02*
X4829000Y-30668000D01*
X4869000Y-33609000D02*
X4869000Y-30591000D01*
X4909000Y-33681000D02*
X4909000Y-30519000D01*
X4949000Y-33750000D02*
X4949000Y-30450000D01*
X4989000Y-33814000D02*
X4989000Y-30386000D01*
X5029000Y-33876000D02*
X5029000Y-30324000D01*
X5069000Y-33934000D02*
X5069000Y-30266000D01*
X5109000Y-33990000D02*
X5109000Y-30210000D01*
X5149000Y-34044000D02*
X5149000Y-30156000D01*
X5189000Y-34095000D02*
X5189000Y-30105000D01*
X5229000Y-34144000D02*
X5229000Y-30056000D01*
X5269000Y-34192000D02*
X5269000Y-30008000D01*
X5309000Y-34237000D02*
X5309000Y-29963000D01*
X5349000Y-34282000D02*
X5349000Y-29918000D01*
X5389000Y-34324000D02*
X5389000Y-29876000D01*
X5429000Y-34365000D02*
X5429000Y-29835000D01*
X5469000Y-31060000D02*
X5469000Y-29795000D01*
X5469000Y-34405000D02*
X5469000Y-33140000D01*
X5509000Y-31060000D02*
X5509000Y-29757000D01*
X5509000Y-34443000D02*
X5509000Y-33140000D01*
X5549000Y-31060000D02*
X5549000Y-29720000D01*
X5549000Y-34480000D02*
X5549000Y-33140000D01*
X5589000Y-31060000D02*
X5589000Y-29684000D01*
X5589000Y-34516000D02*
X5589000Y-33140000D01*
X5629000Y-31060000D02*
X5629000Y-29650000D01*
X5629000Y-34550000D02*
X5629000Y-33140000D01*
X5669000Y-31060000D02*
X5669000Y-29616000D01*
X5669000Y-34584000D02*
X5669000Y-33140000D01*
X5709000Y-31060000D02*
X5709000Y-29584000D01*
X5709000Y-34616000D02*
X5709000Y-33140000D01*
X5749000Y-31060000D02*
X5749000Y-29552000D01*
X5749000Y-34648000D02*
X5749000Y-33140000D01*
X5789000Y-31060000D02*
X5789000Y-29522000D01*
X5789000Y-34678000D02*
X5789000Y-33140000D01*
X5829000Y-31060000D02*
X5829000Y-29493000D01*
X5829000Y-34707000D02*
X5829000Y-33140000D01*
X5869000Y-31060000D02*
X5869000Y-29464000D01*
X5869000Y-34736000D02*
X5869000Y-33140000D01*
X5909000Y-31060000D02*
X5909000Y-29436000D01*
X5909000Y-34764000D02*
X5909000Y-33140000D01*
X5949000Y-31060000D02*
X5949000Y-29410000D01*
X5949000Y-34790000D02*
X5949000Y-33140000D01*
X5989000Y-31060000D02*
X5989000Y-29384000D01*
X5989000Y-34816000D02*
X5989000Y-33140000D01*
X6029000Y-31060000D02*
X6029000Y-29358000D01*
X6029000Y-34842000D02*
X6029000Y-33140000D01*
X6069000Y-31060000D02*
X6069000Y-29334000D01*
X6069000Y-34866000D02*
X6069000Y-33140000D01*
X6109000Y-31060000D02*
X6109000Y-29310000D01*
X6109000Y-34890000D02*
X6109000Y-33140000D01*
X6149000Y-31060000D02*
X6149000Y-29288000D01*
X6149000Y-34912000D02*
X6149000Y-33140000D01*
X6189000Y-31060000D02*
X6189000Y-29266000D01*
X6189000Y-34934000D02*
X6189000Y-33140000D01*
X6229000Y-31060000D02*
X6229000Y-29244000D01*
X6229000Y-34956000D02*
X6229000Y-33140000D01*
X6269000Y-31060000D02*
X6269000Y-29224000D01*
X6269000Y-34976000D02*
X6269000Y-33140000D01*
X6309000Y-31060000D02*
X6309000Y-29204000D01*
X6309000Y-34996000D02*
X6309000Y-33140000D01*
X6349000Y-31060000D02*
X6349000Y-29184000D01*
X6349000Y-35016000D02*
X6349000Y-33140000D01*
X6389000Y-31060000D02*
X6389000Y-29166000D01*
X6389000Y-35034000D02*
X6389000Y-33140000D01*
X6429000Y-31060000D02*
X6429000Y-29148000D01*
X6429000Y-35052000D02*
X6429000Y-33140000D01*
X6469000Y-31060000D02*
X6469000Y-29130000D01*
X6469000Y-35070000D02*
X6469000Y-33140000D01*
X6509000Y-31060000D02*
X6509000Y-29114000D01*
X6509000Y-35086000D02*
X6509000Y-33140000D01*
X6549000Y-31060000D02*
X6549000Y-29098000D01*
X6549000Y-35102000D02*
X6549000Y-33140000D01*
X6589000Y-31060000D02*
X6589000Y-29082000D01*
X6589000Y-35118000D02*
X6589000Y-33140000D01*
X6629000Y-31060000D02*
X6629000Y-29067000D01*
X6629000Y-35133000D02*
X6629000Y-33140000D01*
X6669000Y-31060000D02*
X6669000Y-29053000D01*
X6669000Y-35147000D02*
X6669000Y-33140000D01*
X6709000Y-31060000D02*
X6709000Y-29039000D01*
X6709000Y-35161000D02*
X6709000Y-33140000D01*
X6749000Y-31060000D02*
X6749000Y-29026000D01*
X6749000Y-35174000D02*
X6749000Y-33140000D01*
X6789000Y-31060000D02*
X6789000Y-29014000D01*
X6789000Y-35186000D02*
X6789000Y-33140000D01*
X6829000Y-31060000D02*
X6829000Y-29002000D01*
X6829000Y-35198000D02*
X6829000Y-33140000D01*
X6869000Y-31060000D02*
X6869000Y-28990000D01*
X6869000Y-35210000D02*
X6869000Y-33140000D01*
X6909000Y-31060000D02*
X6909000Y-28979000D01*
X6909000Y-35221000D02*
X6909000Y-33140000D01*
X6949000Y-31060000D02*
X6949000Y-28969000D01*
X6949000Y-35231000D02*
X6949000Y-33140000D01*
X6989000Y-31060000D02*
X6989000Y-28959000D01*
X6989000Y-35241000D02*
X6989000Y-33140000D01*
X7029000Y-31060000D02*
X7029000Y-28950000D01*
X7029000Y-35250000D02*
X7029000Y-33140000D01*
X7070000Y-31060000D02*
X7070000Y-28941000D01*
X7070000Y-35259000D02*
X7070000Y-33140000D01*
X7110000Y-31060000D02*
X7110000Y-28933000D01*
X7110000Y-35267000D02*
X7110000Y-33140000D01*
X7150000Y-31060000D02*
X7150000Y-28925000D01*
X7150000Y-35275000D02*
X7150000Y-33140000D01*
X7190000Y-31060000D02*
X7190000Y-28918000D01*
X7190000Y-35282000D02*
X7190000Y-33140000D01*
X7230000Y-31060000D02*
X7230000Y-28911000D01*
X7230000Y-35289000D02*
X7230000Y-33140000D01*
X7270000Y-31060000D02*
X7270000Y-28905000D01*
X7270000Y-35295000D02*
X7270000Y-33140000D01*
X7310000Y-31060000D02*
X7310000Y-28899000D01*
X7310000Y-35301000D02*
X7310000Y-33140000D01*
X7350000Y-31060000D02*
X7350000Y-28894000D01*
X7350000Y-35306000D02*
X7350000Y-33140000D01*
X7390000Y-31060000D02*
X7390000Y-28889000D01*
X7390000Y-35311000D02*
X7390000Y-33140000D01*
X7430000Y-31060000D02*
X7430000Y-28885000D01*
X7430000Y-35315000D02*
X7430000Y-33140000D01*
X7470000Y-31060000D02*
X7470000Y-28882000D01*
X7470000Y-35318000D02*
X7470000Y-33140000D01*
X7510000Y-31060000D02*
X7510000Y-28878000D01*
X7510000Y-35322000D02*
X7510000Y-33140000D01*
X7550000Y-35324000D02*
X7550000Y-28876000D01*
X7590000Y-35327000D02*
X7590000Y-28873000D01*
X7630000Y-35328000D02*
X7630000Y-28872000D01*
X7670000Y-35330000D02*
X7670000Y-28870000D01*
X7710000Y-35330000D02*
X7710000Y-28870000D01*
X7750000Y-35330000D02*
X7750000Y-28870000D01*
X11020000Y-32100000D02*
G75*
G03X11020000Y-32100000I-3270000J0D01*
G01*
X-190000Y-8162779D02*
X-190000Y-7837221D01*
X-1210000Y-8162779D02*
X-1210000Y-7837221D01*
X4150000Y-35339285D02*
X4183333Y-35377380D01*
X4216666Y-35491666D01*
X4216666Y-35567857D01*
X4183333Y-35682142D01*
X4116666Y-35758333D01*
X4050000Y-35796428D01*
X3916666Y-35834523D01*
X3816666Y-35834523D01*
X3683333Y-35796428D01*
X3616666Y-35758333D01*
X3550000Y-35682142D01*
X3516666Y-35567857D01*
X3516666Y-35491666D01*
X3550000Y-35377380D01*
X3583333Y-35339285D01*
X4216666Y-34577380D02*
X4216666Y-35034523D01*
X4216666Y-34805952D02*
X3516666Y-34805952D01*
X3616666Y-34882142D01*
X3683333Y-34958333D01*
X3716666Y-35034523D01*
X3516666Y-34310714D02*
X3516666Y-33777380D01*
X4216666Y-34120238D01*
X3100000Y-35339285D02*
X3133333Y-35377380D01*
X3166666Y-35491666D01*
X3166666Y-35567857D01*
X3133333Y-35682142D01*
X3066666Y-35758333D01*
X3000000Y-35796428D01*
X2866666Y-35834523D01*
X2766666Y-35834523D01*
X2633333Y-35796428D01*
X2566666Y-35758333D01*
X2500000Y-35682142D01*
X2466666Y-35567857D01*
X2466666Y-35491666D01*
X2500000Y-35377380D01*
X2533333Y-35339285D01*
X3166666Y-34577380D02*
X3166666Y-35034523D01*
X3166666Y-34805952D02*
X2466666Y-34805952D01*
X2566666Y-34882142D01*
X2633333Y-34958333D01*
X2666666Y-35034523D01*
X2466666Y-33891666D02*
X2466666Y-34044047D01*
X2500000Y-34120238D01*
X2533333Y-34158333D01*
X2633333Y-34234523D01*
X2766666Y-34272619D01*
X3033333Y-34272619D01*
X3100000Y-34234523D01*
X3133333Y-34196428D01*
X3166666Y-34120238D01*
X3166666Y-33967857D01*
X3133333Y-33891666D01*
X3100000Y-33853571D01*
X3033333Y-33815476D01*
X2866666Y-33815476D01*
X2800000Y-33853571D01*
X2766666Y-33891666D01*
X2733333Y-33967857D01*
X2733333Y-34120238D01*
X2766666Y-34196428D01*
X2800000Y-34234523D01*
X2866666Y-34272619D01*
X-11933334Y-47250000D02*
X-11971429Y-47283333D01*
X-12085715Y-47316666D01*
X-12161905Y-47316666D01*
X-12276191Y-47283333D01*
X-12352381Y-47216666D01*
X-12390477Y-47150000D01*
X-12428572Y-47016666D01*
X-12428572Y-46916666D01*
X-12390477Y-46783333D01*
X-12352381Y-46716666D01*
X-12276191Y-46650000D01*
X-12161905Y-46616666D01*
X-12085715Y-46616666D01*
X-11971429Y-46650000D01*
X-11933334Y-46683333D01*
X-11552381Y-47316666D02*
X-11400000Y-47316666D01*
X-11323810Y-47283333D01*
X-11285715Y-47250000D01*
X-11209524Y-47150000D01*
X-11171429Y-47016666D01*
X-11171429Y-46750000D01*
X-11209524Y-46683333D01*
X-11247620Y-46650000D01*
X-11323810Y-46616666D01*
X-11476191Y-46616666D01*
X-11552381Y-46650000D01*
X-11590477Y-46683333D01*
X-11628572Y-46750000D01*
X-11628572Y-46916666D01*
X-11590477Y-46983333D01*
X-11552381Y-47016666D01*
X-11476191Y-47050000D01*
X-11323810Y-47050000D01*
X-11247620Y-47016666D01*
X-11209524Y-46983333D01*
X-11171429Y-46916666D01*
X-11933334Y-45850000D02*
X-11971429Y-45883333D01*
X-12085715Y-45916666D01*
X-12161905Y-45916666D01*
X-12276191Y-45883333D01*
X-12352381Y-45816666D01*
X-12390477Y-45750000D01*
X-12428572Y-45616666D01*
X-12428572Y-45516666D01*
X-12390477Y-45383333D01*
X-12352381Y-45316666D01*
X-12276191Y-45250000D01*
X-12161905Y-45216666D01*
X-12085715Y-45216666D01*
X-11971429Y-45250000D01*
X-11933334Y-45283333D01*
X-11247620Y-45216666D02*
X-11400000Y-45216666D01*
X-11476191Y-45250000D01*
X-11514286Y-45283333D01*
X-11590477Y-45383333D01*
X-11628572Y-45516666D01*
X-11628572Y-45783333D01*
X-11590477Y-45850000D01*
X-11552381Y-45883333D01*
X-11476191Y-45916666D01*
X-11323810Y-45916666D01*
X-11247620Y-45883333D01*
X-11209524Y-45850000D01*
X-11171429Y-45783333D01*
X-11171429Y-45616666D01*
X-11209524Y-45550000D01*
X-11247620Y-45516666D01*
X-11323810Y-45483333D01*
X-11476191Y-45483333D01*
X-11552381Y-45516666D01*
X-11590477Y-45550000D01*
X-11628572Y-45616666D01*
X-13183334Y-46814285D02*
X-13516667Y-47080952D01*
X-13183334Y-47271428D02*
X-13883334Y-47271428D01*
X-13883334Y-46966666D01*
X-13850000Y-46890476D01*
X-13816667Y-46852380D01*
X-13750000Y-46814285D01*
X-13650000Y-46814285D01*
X-13583334Y-46852380D01*
X-13550000Y-46890476D01*
X-13516667Y-46966666D01*
X-13516667Y-47271428D01*
X-13183334Y-46052380D02*
X-13183334Y-46509523D01*
X-13183334Y-46280952D02*
X-13883334Y-46280952D01*
X-13783334Y-46357142D01*
X-13716667Y-46433333D01*
X-13683334Y-46509523D01*
X-13816667Y-45747619D02*
X-13850000Y-45709523D01*
X-13883334Y-45633333D01*
X-13883334Y-45442857D01*
X-13850000Y-45366666D01*
X-13816667Y-45328571D01*
X-13750000Y-45290476D01*
X-13683334Y-45290476D01*
X-13583334Y-45328571D01*
X-13183334Y-45785714D01*
X-13183334Y-45290476D01*
X9366666Y-12846666D02*
X9100000Y-12513333D01*
X8909523Y-12846666D02*
X8909523Y-12146666D01*
X9214285Y-12146666D01*
X9290476Y-12180000D01*
X9328571Y-12213333D01*
X9366666Y-12280000D01*
X9366666Y-12380000D01*
X9328571Y-12446666D01*
X9290476Y-12480000D01*
X9214285Y-12513333D01*
X8909523Y-12513333D01*
X10052380Y-12146666D02*
X9900000Y-12146666D01*
X9823809Y-12180000D01*
X9785714Y-12213333D01*
X9709523Y-12313333D01*
X9671428Y-12446666D01*
X9671428Y-12713333D01*
X9709523Y-12780000D01*
X9747619Y-12813333D01*
X9823809Y-12846666D01*
X9976190Y-12846666D01*
X10052380Y-12813333D01*
X10090476Y-12780000D01*
X10128571Y-12713333D01*
X10128571Y-12546666D01*
X10090476Y-12480000D01*
X10052380Y-12446666D01*
X9976190Y-12413333D01*
X9823809Y-12413333D01*
X9747619Y-12446666D01*
X9709523Y-12480000D01*
X9671428Y-12546666D01*
X9133214Y-20316666D02*
X8866548Y-19983333D01*
X8676071Y-20316666D02*
X8676071Y-19616666D01*
X8980833Y-19616666D01*
X9057024Y-19650000D01*
X9095119Y-19683333D01*
X9133214Y-19750000D01*
X9133214Y-19850000D01*
X9095119Y-19916666D01*
X9057024Y-19950000D01*
X8980833Y-19983333D01*
X8676071Y-19983333D01*
X9857024Y-19616666D02*
X9476071Y-19616666D01*
X9437976Y-19950000D01*
X9476071Y-19916666D01*
X9552262Y-19883333D01*
X9742738Y-19883333D01*
X9818928Y-19916666D01*
X9857024Y-19950000D01*
X9895119Y-20016666D01*
X9895119Y-20183333D01*
X9857024Y-20250000D01*
X9818928Y-20283333D01*
X9742738Y-20316666D01*
X9552262Y-20316666D01*
X9476071Y-20283333D01*
X9437976Y-20250000D01*
X6566666Y-12816666D02*
X6300000Y-12483333D01*
X6109523Y-12816666D02*
X6109523Y-12116666D01*
X6414285Y-12116666D01*
X6490476Y-12150000D01*
X6528571Y-12183333D01*
X6566666Y-12250000D01*
X6566666Y-12350000D01*
X6528571Y-12416666D01*
X6490476Y-12450000D01*
X6414285Y-12483333D01*
X6109523Y-12483333D01*
X7252380Y-12350000D02*
X7252380Y-12816666D01*
X7061904Y-12083333D02*
X6871428Y-12583333D01*
X7366666Y-12583333D01*
X4266666Y-20316666D02*
X4000000Y-19983333D01*
X3809523Y-20316666D02*
X3809523Y-19616666D01*
X4114285Y-19616666D01*
X4190476Y-19650000D01*
X4228571Y-19683333D01*
X4266666Y-19750000D01*
X4266666Y-19850000D01*
X4228571Y-19916666D01*
X4190476Y-19950000D01*
X4114285Y-19983333D01*
X3809523Y-19983333D01*
X4533333Y-19616666D02*
X5028571Y-19616666D01*
X4761904Y-19883333D01*
X4876190Y-19883333D01*
X4952380Y-19916666D01*
X4990476Y-19950000D01*
X5028571Y-20016666D01*
X5028571Y-20183333D01*
X4990476Y-20250000D01*
X4952380Y-20283333D01*
X4876190Y-20316666D01*
X4647619Y-20316666D01*
X4571428Y-20283333D01*
X4533333Y-20250000D01*
X2283333Y-16376190D02*
X2250000Y-16452380D01*
X2183333Y-16528571D01*
X2083333Y-16642857D01*
X2050000Y-16719047D01*
X2050000Y-16795238D01*
X2216666Y-16757142D02*
X2183333Y-16833333D01*
X2116666Y-16909523D01*
X1983333Y-16947619D01*
X1750000Y-16947619D01*
X1616666Y-16909523D01*
X1550000Y-16833333D01*
X1516666Y-16757142D01*
X1516666Y-16604761D01*
X1550000Y-16528571D01*
X1616666Y-16452380D01*
X1750000Y-16414285D01*
X1983333Y-16414285D01*
X2116666Y-16452380D01*
X2183333Y-16528571D01*
X2216666Y-16604761D01*
X2216666Y-16757142D01*
X1750000Y-15728571D02*
X2216666Y-15728571D01*
X1483333Y-15919047D02*
X1983333Y-16109523D01*
X1983333Y-15614285D01*
X12183333Y-16376190D02*
X12150000Y-16452380D01*
X12083333Y-16528571D01*
X11983333Y-16642857D01*
X11950000Y-16719047D01*
X11950000Y-16795238D01*
X12116666Y-16757142D02*
X12083333Y-16833333D01*
X12016666Y-16909523D01*
X11883333Y-16947619D01*
X11650000Y-16947619D01*
X11516666Y-16909523D01*
X11450000Y-16833333D01*
X11416666Y-16757142D01*
X11416666Y-16604761D01*
X11450000Y-16528571D01*
X11516666Y-16452380D01*
X11650000Y-16414285D01*
X11883333Y-16414285D01*
X12016666Y-16452380D01*
X12083333Y-16528571D01*
X12116666Y-16604761D01*
X12116666Y-16757142D01*
X11483333Y-16109523D02*
X11450000Y-16071428D01*
X11416666Y-15995238D01*
X11416666Y-15804761D01*
X11450000Y-15728571D01*
X11483333Y-15690476D01*
X11550000Y-15652380D01*
X11616666Y-15652380D01*
X11716666Y-15690476D01*
X12116666Y-16147619D01*
X12116666Y-15652380D01*
X-409524Y-24141666D02*
X-409524Y-24708333D01*
X-371429Y-24775000D01*
X-333334Y-24808333D01*
X-257143Y-24841666D01*
X-104762Y-24841666D01*
X-28572Y-24808333D01*
X9523Y-24775000D01*
X47619Y-24708333D01*
X47619Y-24141666D01*
X771428Y-24375000D02*
X771428Y-24841666D01*
X580952Y-24108333D02*
X390476Y-24608333D01*
X885714Y-24608333D01*
X-366667Y-49366666D02*
X-366667Y-49866666D01*
X-404762Y-49966666D01*
X-480953Y-50033333D01*
X-595239Y-50066666D01*
X-671429Y-50066666D01*
X357142Y-49600000D02*
X357142Y-50066666D01*
X166666Y-49333333D02*
X-23810Y-49833333D01*
X471428Y-49833333D01*
X5378571Y-51616666D02*
X5378571Y-50916666D01*
X5569047Y-50916666D01*
X5683333Y-50950000D01*
X5759523Y-51016666D01*
X5797619Y-51083333D01*
X5835714Y-51216666D01*
X5835714Y-51316666D01*
X5797619Y-51450000D01*
X5759523Y-51516666D01*
X5683333Y-51583333D01*
X5569047Y-51616666D01*
X5378571Y-51616666D01*
X6597619Y-51616666D02*
X6140476Y-51616666D01*
X6369047Y-51616666D02*
X6369047Y-50916666D01*
X6292857Y-51016666D01*
X6216666Y-51083333D01*
X6140476Y-51116666D01*
X7092857Y-50916666D02*
X7169047Y-50916666D01*
X7245238Y-50950000D01*
X7283333Y-50983333D01*
X7321428Y-51050000D01*
X7359523Y-51183333D01*
X7359523Y-51350000D01*
X7321428Y-51483333D01*
X7283333Y-51550000D01*
X7245238Y-51583333D01*
X7169047Y-51616666D01*
X7092857Y-51616666D01*
X7016666Y-51583333D01*
X6978571Y-51550000D01*
X6940476Y-51483333D01*
X6902380Y-51350000D01*
X6902380Y-51183333D01*
X6940476Y-51050000D01*
X6978571Y-50983333D01*
X7016666Y-50950000D01*
X7092857Y-50916666D01*
X-2883334Y-55066666D02*
X-2383334Y-55066666D01*
X-2283334Y-55104761D01*
X-2216667Y-55180952D01*
X-2183334Y-55295238D01*
X-2183334Y-55371428D01*
X-2883334Y-54761904D02*
X-2883334Y-54266666D01*
X-2616667Y-54533333D01*
X-2616667Y-54419047D01*
X-2583334Y-54342857D01*
X-2550000Y-54304761D01*
X-2483334Y-54266666D01*
X-2316667Y-54266666D01*
X-2250000Y-54304761D01*
X-2216667Y-54342857D01*
X-2183334Y-54419047D01*
X-2183334Y-54647619D01*
X-2216667Y-54723809D01*
X-2250000Y-54761904D01*
D14*
X-8457143Y-53226190D02*
X-8742858Y-53226190D01*
X-8600000Y-53226190D02*
X-8600000Y-52726190D01*
X-8647620Y-52797619D01*
X-8695239Y-52845238D01*
X-8742858Y-52869047D01*
D13*
X16241666Y-51689285D02*
X15908333Y-51955952D01*
X16241666Y-52146428D02*
X15541666Y-52146428D01*
X15541666Y-51841666D01*
X15575000Y-51765476D01*
X15608333Y-51727380D01*
X15675000Y-51689285D01*
X15775000Y-51689285D01*
X15841666Y-51727380D01*
X15875000Y-51765476D01*
X15908333Y-51841666D01*
X15908333Y-52146428D01*
X15608333Y-51384523D02*
X15575000Y-51346428D01*
X15541666Y-51270238D01*
X15541666Y-51079761D01*
X15575000Y-51003571D01*
X15608333Y-50965476D01*
X15675000Y-50927380D01*
X15741666Y-50927380D01*
X15841666Y-50965476D01*
X16241666Y-51422619D01*
X16241666Y-50927380D01*
X15541666Y-50660714D02*
X15541666Y-50165476D01*
X15808333Y-50432142D01*
X15808333Y-50317857D01*
X15841666Y-50241666D01*
X15875000Y-50203571D01*
X15941666Y-50165476D01*
X16108333Y-50165476D01*
X16175000Y-50203571D01*
X16208333Y-50241666D01*
X16241666Y-50317857D01*
X16241666Y-50546428D01*
X16208333Y-50622619D01*
X16175000Y-50660714D01*
X16241666Y-49064285D02*
X15908333Y-49330952D01*
X16241666Y-49521428D02*
X15541666Y-49521428D01*
X15541666Y-49216666D01*
X15575000Y-49140476D01*
X15608333Y-49102380D01*
X15675000Y-49064285D01*
X15775000Y-49064285D01*
X15841666Y-49102380D01*
X15875000Y-49140476D01*
X15908333Y-49216666D01*
X15908333Y-49521428D01*
X15608333Y-48759523D02*
X15575000Y-48721428D01*
X15541666Y-48645238D01*
X15541666Y-48454761D01*
X15575000Y-48378571D01*
X15608333Y-48340476D01*
X15675000Y-48302380D01*
X15741666Y-48302380D01*
X15841666Y-48340476D01*
X16241666Y-48797619D01*
X16241666Y-48302380D01*
X15608333Y-47997619D02*
X15575000Y-47959523D01*
X15541666Y-47883333D01*
X15541666Y-47692857D01*
X15575000Y-47616666D01*
X15608333Y-47578571D01*
X15675000Y-47540476D01*
X15741666Y-47540476D01*
X15841666Y-47578571D01*
X16241666Y-48035714D01*
X16241666Y-47540476D01*
X17516666Y-51664285D02*
X17183333Y-51930952D01*
X17516666Y-52121428D02*
X16816666Y-52121428D01*
X16816666Y-51816666D01*
X16850000Y-51740476D01*
X16883333Y-51702380D01*
X16950000Y-51664285D01*
X17050000Y-51664285D01*
X17116666Y-51702380D01*
X17150000Y-51740476D01*
X17183333Y-51816666D01*
X17183333Y-52121428D01*
X17516666Y-50902380D02*
X17516666Y-51359523D01*
X17516666Y-51130952D02*
X16816666Y-51130952D01*
X16916666Y-51207142D01*
X16983333Y-51283333D01*
X17016666Y-51359523D01*
X17516666Y-50521428D02*
X17516666Y-50369047D01*
X17483333Y-50292857D01*
X17450000Y-50254761D01*
X17350000Y-50178571D01*
X17216666Y-50140476D01*
X16950000Y-50140476D01*
X16883333Y-50178571D01*
X16850000Y-50216666D01*
X16816666Y-50292857D01*
X16816666Y-50445238D01*
X16850000Y-50521428D01*
X16883333Y-50559523D01*
X16950000Y-50597619D01*
X17116666Y-50597619D01*
X17183333Y-50559523D01*
X17216666Y-50521428D01*
X17250000Y-50445238D01*
X17250000Y-50292857D01*
X17216666Y-50216666D01*
X17183333Y-50178571D01*
X17116666Y-50140476D01*
X14235714Y-20216666D02*
X13969047Y-19883333D01*
X13778571Y-20216666D02*
X13778571Y-19516666D01*
X14083333Y-19516666D01*
X14159523Y-19550000D01*
X14197619Y-19583333D01*
X14235714Y-19650000D01*
X14235714Y-19750000D01*
X14197619Y-19816666D01*
X14159523Y-19850000D01*
X14083333Y-19883333D01*
X13778571Y-19883333D01*
X14997619Y-20216666D02*
X14540476Y-20216666D01*
X14769047Y-20216666D02*
X14769047Y-19516666D01*
X14692857Y-19616666D01*
X14616666Y-19683333D01*
X14540476Y-19716666D01*
X15759523Y-20216666D02*
X15302380Y-20216666D01*
X15530952Y-20216666D02*
X15530952Y-19516666D01*
X15454761Y-19616666D01*
X15378571Y-19683333D01*
X15302380Y-19716666D01*
X15985714Y-13916666D02*
X15719047Y-13583333D01*
X15528571Y-13916666D02*
X15528571Y-13216666D01*
X15833333Y-13216666D01*
X15909523Y-13250000D01*
X15947619Y-13283333D01*
X15985714Y-13350000D01*
X15985714Y-13450000D01*
X15947619Y-13516666D01*
X15909523Y-13550000D01*
X15833333Y-13583333D01*
X15528571Y-13583333D01*
X16747619Y-13916666D02*
X16290476Y-13916666D01*
X16519047Y-13916666D02*
X16519047Y-13216666D01*
X16442857Y-13316666D01*
X16366666Y-13383333D01*
X16290476Y-13416666D01*
X17242857Y-13216666D02*
X17319047Y-13216666D01*
X17395238Y-13250000D01*
X17433333Y-13283333D01*
X17471428Y-13350000D01*
X17509523Y-13483333D01*
X17509523Y-13650000D01*
X17471428Y-13783333D01*
X17433333Y-13850000D01*
X17395238Y-13883333D01*
X17319047Y-13916666D01*
X17242857Y-13916666D01*
X17166666Y-13883333D01*
X17128571Y-13850000D01*
X17090476Y-13783333D01*
X17052380Y-13650000D01*
X17052380Y-13483333D01*
X17090476Y-13350000D01*
X17128571Y-13283333D01*
X17166666Y-13250000D01*
X17242857Y-13216666D01*
X4466666Y-11416666D02*
X4200000Y-11083333D01*
X4009523Y-11416666D02*
X4009523Y-10716666D01*
X4314285Y-10716666D01*
X4390476Y-10750000D01*
X4428571Y-10783333D01*
X4466666Y-10850000D01*
X4466666Y-10950000D01*
X4428571Y-11016666D01*
X4390476Y-11050000D01*
X4314285Y-11083333D01*
X4009523Y-11083333D01*
X4847619Y-11416666D02*
X5000000Y-11416666D01*
X5076190Y-11383333D01*
X5114285Y-11350000D01*
X5190476Y-11250000D01*
X5228571Y-11116666D01*
X5228571Y-10850000D01*
X5190476Y-10783333D01*
X5152380Y-10750000D01*
X5076190Y-10716666D01*
X4923809Y-10716666D01*
X4847619Y-10750000D01*
X4809523Y-10783333D01*
X4771428Y-10850000D01*
X4771428Y-11016666D01*
X4809523Y-11083333D01*
X4847619Y-11116666D01*
X4923809Y-11150000D01*
X5076190Y-11150000D01*
X5152380Y-11116666D01*
X5190476Y-11083333D01*
X5228571Y-11016666D01*
X4466666Y-10116666D02*
X4200000Y-9783333D01*
X4009523Y-10116666D02*
X4009523Y-9416666D01*
X4314285Y-9416666D01*
X4390476Y-9450000D01*
X4428571Y-9483333D01*
X4466666Y-9550000D01*
X4466666Y-9650000D01*
X4428571Y-9716666D01*
X4390476Y-9750000D01*
X4314285Y-9783333D01*
X4009523Y-9783333D01*
X4923809Y-9716666D02*
X4847619Y-9683333D01*
X4809523Y-9650000D01*
X4771428Y-9583333D01*
X4771428Y-9550000D01*
X4809523Y-9483333D01*
X4847619Y-9450000D01*
X4923809Y-9416666D01*
X5076190Y-9416666D01*
X5152380Y-9450000D01*
X5190476Y-9483333D01*
X5228571Y-9550000D01*
X5228571Y-9583333D01*
X5190476Y-9650000D01*
X5152380Y-9683333D01*
X5076190Y-9716666D01*
X4923809Y-9716666D01*
X4847619Y-9750000D01*
X4809523Y-9783333D01*
X4771428Y-9850000D01*
X4771428Y-9983333D01*
X4809523Y-10050000D01*
X4847619Y-10083333D01*
X4923809Y-10116666D01*
X5076190Y-10116666D01*
X5152380Y-10083333D01*
X5190476Y-10050000D01*
X5228571Y-9983333D01*
X5228571Y-9850000D01*
X5190476Y-9783333D01*
X5152380Y-9750000D01*
X5076190Y-9716666D01*
X5566666Y-7616666D02*
X5300000Y-7283333D01*
X5109523Y-7616666D02*
X5109523Y-6916666D01*
X5414285Y-6916666D01*
X5490476Y-6950000D01*
X5528571Y-6983333D01*
X5566666Y-7050000D01*
X5566666Y-7150000D01*
X5528571Y-7216666D01*
X5490476Y-7250000D01*
X5414285Y-7283333D01*
X5109523Y-7283333D01*
X5833333Y-6916666D02*
X6366666Y-6916666D01*
X6023809Y-7616666D01*
X-13883334Y-2133333D02*
X-14216667Y-2400000D01*
X-13883334Y-2590476D02*
X-14583334Y-2590476D01*
X-14583334Y-2285714D01*
X-14550000Y-2209523D01*
X-14516667Y-2171428D01*
X-14450000Y-2133333D01*
X-14350000Y-2133333D01*
X-14283334Y-2171428D01*
X-14250000Y-2209523D01*
X-14216667Y-2285714D01*
X-14216667Y-2590476D01*
X-14516667Y-1828571D02*
X-14550000Y-1790476D01*
X-14583334Y-1714285D01*
X-14583334Y-1523809D01*
X-14550000Y-1447619D01*
X-14516667Y-1409523D01*
X-14450000Y-1371428D01*
X-14383334Y-1371428D01*
X-14283334Y-1409523D01*
X-13883334Y-1866666D01*
X-13883334Y-1371428D01*
X-12483334Y-2033333D02*
X-12816667Y-2300000D01*
X-12483334Y-2490476D02*
X-13183334Y-2490476D01*
X-13183334Y-2185714D01*
X-13150000Y-2109523D01*
X-13116667Y-2071428D01*
X-13050000Y-2033333D01*
X-12950000Y-2033333D01*
X-12883334Y-2071428D01*
X-12850000Y-2109523D01*
X-12816667Y-2185714D01*
X-12816667Y-2490476D01*
X-12483334Y-1271428D02*
X-12483334Y-1728571D01*
X-12483334Y-1500000D02*
X-13183334Y-1500000D01*
X-13083334Y-1576190D01*
X-13016667Y-1652380D01*
X-12983334Y-1728571D01*
X13591666Y-46659523D02*
X14158333Y-46659523D01*
X14225000Y-46621428D01*
X14258333Y-46583333D01*
X14291666Y-46507142D01*
X14291666Y-46354761D01*
X14258333Y-46278571D01*
X14225000Y-46240476D01*
X14158333Y-46202380D01*
X13591666Y-46202380D01*
X13591666Y-45897619D02*
X13591666Y-45402380D01*
X13858333Y-45669047D01*
X13858333Y-45554761D01*
X13891666Y-45478571D01*
X13925000Y-45440476D01*
X13991666Y-45402380D01*
X14158333Y-45402380D01*
X14225000Y-45440476D01*
X14258333Y-45478571D01*
X14291666Y-45554761D01*
X14291666Y-45783333D01*
X14258333Y-45859523D01*
X14225000Y-45897619D01*
X-10883334Y-50409523D02*
X-10316667Y-50409523D01*
X-10250000Y-50371428D01*
X-10216667Y-50333333D01*
X-10183334Y-50257142D01*
X-10183334Y-50104761D01*
X-10216667Y-50028571D01*
X-10250000Y-49990476D01*
X-10316667Y-49952380D01*
X-10883334Y-49952380D01*
X-10816667Y-49609523D02*
X-10850000Y-49571428D01*
X-10883334Y-49495238D01*
X-10883334Y-49304761D01*
X-10850000Y-49228571D01*
X-10816667Y-49190476D01*
X-10750000Y-49152380D01*
X-10683334Y-49152380D01*
X-10583334Y-49190476D01*
X-10183334Y-49647619D01*
X-10183334Y-49152380D01*
X17583333Y-16426190D02*
X17550000Y-16502380D01*
X17483333Y-16578571D01*
X17383333Y-16692857D01*
X17350000Y-16769047D01*
X17350000Y-16845238D01*
X17516666Y-16807142D02*
X17483333Y-16883333D01*
X17416666Y-16959523D01*
X17283333Y-16997619D01*
X17050000Y-16997619D01*
X16916666Y-16959523D01*
X16850000Y-16883333D01*
X16816666Y-16807142D01*
X16816666Y-16654761D01*
X16850000Y-16578571D01*
X16916666Y-16502380D01*
X17050000Y-16464285D01*
X17283333Y-16464285D01*
X17416666Y-16502380D01*
X17483333Y-16578571D01*
X17516666Y-16654761D01*
X17516666Y-16807142D01*
X17516666Y-15702380D02*
X17516666Y-16159523D01*
X17516666Y-15930952D02*
X16816666Y-15930952D01*
X16916666Y-16007142D01*
X16983333Y-16083333D01*
X17016666Y-16159523D01*
X-11590477Y-22116666D02*
X-11590477Y-21416666D01*
X-11285715Y-21416666D01*
X-11209524Y-21450000D01*
X-11171429Y-21483333D01*
X-11133334Y-21550000D01*
X-11133334Y-21650000D01*
X-11171429Y-21716666D01*
X-11209524Y-21750000D01*
X-11285715Y-21783333D01*
X-11590477Y-21783333D01*
X-10371429Y-22116666D02*
X-10828572Y-22116666D01*
X-10600000Y-22116666D02*
X-10600000Y-21416666D01*
X-10676191Y-21516666D01*
X-10752381Y-21583333D01*
X-10828572Y-21616666D01*
X14666666Y-35266666D02*
X14285714Y-35266666D01*
X14285714Y-34566666D01*
X15276190Y-34800000D02*
X15276190Y-35266666D01*
X15085714Y-34533333D02*
X14895238Y-35033333D01*
X15390476Y-35033333D01*
X-15690477Y-47316666D02*
X-15690477Y-46616666D01*
X-15500000Y-46616666D01*
X-15385715Y-46650000D01*
X-15309524Y-46716666D01*
X-15271429Y-46783333D01*
X-15233334Y-46916666D01*
X-15233334Y-47016666D01*
X-15271429Y-47150000D01*
X-15309524Y-47216666D01*
X-15385715Y-47283333D01*
X-15500000Y-47316666D01*
X-15690477Y-47316666D01*
X-14547620Y-46616666D02*
X-14700000Y-46616666D01*
X-14776191Y-46650000D01*
X-14814286Y-46683333D01*
X-14890477Y-46783333D01*
X-14928572Y-46916666D01*
X-14928572Y-47183333D01*
X-14890477Y-47250000D01*
X-14852381Y-47283333D01*
X-14776191Y-47316666D01*
X-14623810Y-47316666D01*
X-14547620Y-47283333D01*
X-14509524Y-47250000D01*
X-14471429Y-47183333D01*
X-14471429Y-47016666D01*
X-14509524Y-46950000D01*
X-14547620Y-46916666D01*
X-14623810Y-46883333D01*
X-14776191Y-46883333D01*
X-14852381Y-46916666D01*
X-14890477Y-46950000D01*
X-14928572Y-47016666D01*
X13866666Y-11840476D02*
X13166666Y-11840476D01*
X13166666Y-11650000D01*
X13200000Y-11535714D01*
X13266666Y-11459523D01*
X13333333Y-11421428D01*
X13466666Y-11383333D01*
X13566666Y-11383333D01*
X13700000Y-11421428D01*
X13766666Y-11459523D01*
X13833333Y-11535714D01*
X13866666Y-11650000D01*
X13866666Y-11840476D01*
X13400000Y-10697619D02*
X13866666Y-10697619D01*
X13133333Y-10888095D02*
X13633333Y-11078571D01*
X13633333Y-10583333D01*
X1009523Y-13916666D02*
X1009523Y-13216666D01*
X1200000Y-13216666D01*
X1314285Y-13250000D01*
X1390476Y-13316666D01*
X1428571Y-13383333D01*
X1466666Y-13516666D01*
X1466666Y-13616666D01*
X1428571Y-13750000D01*
X1390476Y-13816666D01*
X1314285Y-13883333D01*
X1200000Y-13916666D01*
X1009523Y-13916666D01*
X1733333Y-13216666D02*
X2228571Y-13216666D01*
X1961904Y-13483333D01*
X2076190Y-13483333D01*
X2152380Y-13516666D01*
X2190476Y-13550000D01*
X2228571Y-13616666D01*
X2228571Y-13783333D01*
X2190476Y-13850000D01*
X2152380Y-13883333D01*
X2076190Y-13916666D01*
X1847619Y-13916666D01*
X1771428Y-13883333D01*
X1733333Y-13850000D01*
X1009523Y-7716666D02*
X1009523Y-7016666D01*
X1200000Y-7016666D01*
X1314285Y-7050000D01*
X1390476Y-7116666D01*
X1428571Y-7183333D01*
X1466666Y-7316666D01*
X1466666Y-7416666D01*
X1428571Y-7550000D01*
X1390476Y-7616666D01*
X1314285Y-7683333D01*
X1200000Y-7716666D01*
X1009523Y-7716666D01*
X1771428Y-7083333D02*
X1809523Y-7050000D01*
X1885714Y-7016666D01*
X2076190Y-7016666D01*
X2152380Y-7050000D01*
X2190476Y-7083333D01*
X2228571Y-7150000D01*
X2228571Y-7216666D01*
X2190476Y-7316666D01*
X1733333Y-7716666D01*
X2228571Y-7716666D01*
X2109523Y-5216666D02*
X2109523Y-4516666D01*
X2300000Y-4516666D01*
X2414285Y-4550000D01*
X2490476Y-4616666D01*
X2528571Y-4683333D01*
X2566666Y-4816666D01*
X2566666Y-4916666D01*
X2528571Y-5050000D01*
X2490476Y-5116666D01*
X2414285Y-5183333D01*
X2300000Y-5216666D01*
X2109523Y-5216666D01*
X3328571Y-5216666D02*
X2871428Y-5216666D01*
X3100000Y-5216666D02*
X3100000Y-4516666D01*
X3023809Y-4616666D01*
X2947619Y-4683333D01*
X2871428Y-4716666D01*
X5485714Y-38450000D02*
X5447619Y-38483333D01*
X5333333Y-38516666D01*
X5257142Y-38516666D01*
X5142857Y-38483333D01*
X5066666Y-38416666D01*
X5028571Y-38350000D01*
X4990476Y-38216666D01*
X4990476Y-38116666D01*
X5028571Y-37983333D01*
X5066666Y-37916666D01*
X5142857Y-37850000D01*
X5257142Y-37816666D01*
X5333333Y-37816666D01*
X5447619Y-37850000D01*
X5485714Y-37883333D01*
X5790476Y-37883333D02*
X5828571Y-37850000D01*
X5904761Y-37816666D01*
X6095238Y-37816666D01*
X6171428Y-37850000D01*
X6209523Y-37883333D01*
X6247619Y-37950000D01*
X6247619Y-38016666D01*
X6209523Y-38116666D01*
X5752380Y-38516666D01*
X6247619Y-38516666D01*
X6514285Y-37816666D02*
X7009523Y-37816666D01*
X6742857Y-38083333D01*
X6857142Y-38083333D01*
X6933333Y-38116666D01*
X6971428Y-38150000D01*
X7009523Y-38216666D01*
X7009523Y-38383333D01*
X6971428Y-38450000D01*
X6933333Y-38483333D01*
X6857142Y-38516666D01*
X6628571Y-38516666D01*
X6552380Y-38483333D01*
X6514285Y-38450000D01*
X11050000Y-48614285D02*
X11083333Y-48652380D01*
X11116666Y-48766666D01*
X11116666Y-48842857D01*
X11083333Y-48957142D01*
X11016666Y-49033333D01*
X10950000Y-49071428D01*
X10816666Y-49109523D01*
X10716666Y-49109523D01*
X10583333Y-49071428D01*
X10516666Y-49033333D01*
X10450000Y-48957142D01*
X10416666Y-48842857D01*
X10416666Y-48766666D01*
X10450000Y-48652380D01*
X10483333Y-48614285D01*
X10483333Y-48309523D02*
X10450000Y-48271428D01*
X10416666Y-48195238D01*
X10416666Y-48004761D01*
X10450000Y-47928571D01*
X10483333Y-47890476D01*
X10550000Y-47852380D01*
X10616666Y-47852380D01*
X10716666Y-47890476D01*
X11116666Y-48347619D01*
X11116666Y-47852380D01*
X10483333Y-47547619D02*
X10450000Y-47509523D01*
X10416666Y-47433333D01*
X10416666Y-47242857D01*
X10450000Y-47166666D01*
X10483333Y-47128571D01*
X10550000Y-47090476D01*
X10616666Y-47090476D01*
X10716666Y-47128571D01*
X11116666Y-47585714D01*
X11116666Y-47090476D01*
X12750000Y-47989285D02*
X12783333Y-48027380D01*
X12816666Y-48141666D01*
X12816666Y-48217857D01*
X12783333Y-48332142D01*
X12716666Y-48408333D01*
X12650000Y-48446428D01*
X12516666Y-48484523D01*
X12416666Y-48484523D01*
X12283333Y-48446428D01*
X12216666Y-48408333D01*
X12150000Y-48332142D01*
X12116666Y-48217857D01*
X12116666Y-48141666D01*
X12150000Y-48027380D01*
X12183333Y-47989285D01*
X12183333Y-47684523D02*
X12150000Y-47646428D01*
X12116666Y-47570238D01*
X12116666Y-47379761D01*
X12150000Y-47303571D01*
X12183333Y-47265476D01*
X12250000Y-47227380D01*
X12316666Y-47227380D01*
X12416666Y-47265476D01*
X12816666Y-47722619D01*
X12816666Y-47227380D01*
X12816666Y-46465476D02*
X12816666Y-46922619D01*
X12816666Y-46694047D02*
X12116666Y-46694047D01*
X12216666Y-46770238D01*
X12283333Y-46846428D01*
X12316666Y-46922619D01*
X16010714Y-53225000D02*
X15972619Y-53258333D01*
X15858333Y-53291666D01*
X15782142Y-53291666D01*
X15667857Y-53258333D01*
X15591666Y-53191666D01*
X15553571Y-53125000D01*
X15515476Y-52991666D01*
X15515476Y-52891666D01*
X15553571Y-52758333D01*
X15591666Y-52691666D01*
X15667857Y-52625000D01*
X15782142Y-52591666D01*
X15858333Y-52591666D01*
X15972619Y-52625000D01*
X16010714Y-52658333D01*
X16315476Y-52658333D02*
X16353571Y-52625000D01*
X16429761Y-52591666D01*
X16620238Y-52591666D01*
X16696428Y-52625000D01*
X16734523Y-52658333D01*
X16772619Y-52725000D01*
X16772619Y-52791666D01*
X16734523Y-52891666D01*
X16277380Y-53291666D01*
X16772619Y-53291666D01*
X17267857Y-52591666D02*
X17344047Y-52591666D01*
X17420238Y-52625000D01*
X17458333Y-52658333D01*
X17496428Y-52725000D01*
X17534523Y-52858333D01*
X17534523Y-53025000D01*
X17496428Y-53158333D01*
X17458333Y-53225000D01*
X17420238Y-53258333D01*
X17344047Y-53291666D01*
X17267857Y-53291666D01*
X17191666Y-53258333D01*
X17153571Y-53225000D01*
X17115476Y-53158333D01*
X17077380Y-53025000D01*
X17077380Y-52858333D01*
X17115476Y-52725000D01*
X17153571Y-52658333D01*
X17191666Y-52625000D01*
X17267857Y-52591666D01*
X11000000Y-51414285D02*
X11033333Y-51452380D01*
X11066666Y-51566666D01*
X11066666Y-51642857D01*
X11033333Y-51757142D01*
X10966666Y-51833333D01*
X10900000Y-51871428D01*
X10766666Y-51909523D01*
X10666666Y-51909523D01*
X10533333Y-51871428D01*
X10466666Y-51833333D01*
X10400000Y-51757142D01*
X10366666Y-51642857D01*
X10366666Y-51566666D01*
X10400000Y-51452380D01*
X10433333Y-51414285D01*
X11066666Y-50652380D02*
X11066666Y-51109523D01*
X11066666Y-50880952D02*
X10366666Y-50880952D01*
X10466666Y-50957142D01*
X10533333Y-51033333D01*
X10566666Y-51109523D01*
X11066666Y-50271428D02*
X11066666Y-50119047D01*
X11033333Y-50042857D01*
X11000000Y-50004761D01*
X10900000Y-49928571D01*
X10766666Y-49890476D01*
X10500000Y-49890476D01*
X10433333Y-49928571D01*
X10400000Y-49966666D01*
X10366666Y-50042857D01*
X10366666Y-50195238D01*
X10400000Y-50271428D01*
X10433333Y-50309523D01*
X10500000Y-50347619D01*
X10666666Y-50347619D01*
X10733333Y-50309523D01*
X10766666Y-50271428D01*
X10800000Y-50195238D01*
X10800000Y-50042857D01*
X10766666Y-49966666D01*
X10733333Y-49928571D01*
X10666666Y-49890476D01*
X12750000Y-50739285D02*
X12783333Y-50777380D01*
X12816666Y-50891666D01*
X12816666Y-50967857D01*
X12783333Y-51082142D01*
X12716666Y-51158333D01*
X12650000Y-51196428D01*
X12516666Y-51234523D01*
X12416666Y-51234523D01*
X12283333Y-51196428D01*
X12216666Y-51158333D01*
X12150000Y-51082142D01*
X12116666Y-50967857D01*
X12116666Y-50891666D01*
X12150000Y-50777380D01*
X12183333Y-50739285D01*
X12816666Y-49977380D02*
X12816666Y-50434523D01*
X12816666Y-50205952D02*
X12116666Y-50205952D01*
X12216666Y-50282142D01*
X12283333Y-50358333D01*
X12316666Y-50434523D01*
X12416666Y-49520238D02*
X12383333Y-49596428D01*
X12350000Y-49634523D01*
X12283333Y-49672619D01*
X12250000Y-49672619D01*
X12183333Y-49634523D01*
X12150000Y-49596428D01*
X12116666Y-49520238D01*
X12116666Y-49367857D01*
X12150000Y-49291666D01*
X12183333Y-49253571D01*
X12250000Y-49215476D01*
X12283333Y-49215476D01*
X12350000Y-49253571D01*
X12383333Y-49291666D01*
X12416666Y-49367857D01*
X12416666Y-49520238D01*
X12450000Y-49596428D01*
X12483333Y-49634523D01*
X12550000Y-49672619D01*
X12683333Y-49672619D01*
X12750000Y-49634523D01*
X12783333Y-49596428D01*
X12816666Y-49520238D01*
X12816666Y-49367857D01*
X12783333Y-49291666D01*
X12750000Y-49253571D01*
X12683333Y-49215476D01*
X12550000Y-49215476D01*
X12483333Y-49253571D01*
X12450000Y-49291666D01*
X12416666Y-49367857D01*
X13585714Y-33100000D02*
X13547619Y-33133333D01*
X13433333Y-33166666D01*
X13357142Y-33166666D01*
X13242857Y-33133333D01*
X13166666Y-33066666D01*
X13128571Y-33000000D01*
X13090476Y-32866666D01*
X13090476Y-32766666D01*
X13128571Y-32633333D01*
X13166666Y-32566666D01*
X13242857Y-32500000D01*
X13357142Y-32466666D01*
X13433333Y-32466666D01*
X13547619Y-32500000D01*
X13585714Y-32533333D01*
X14347619Y-33166666D02*
X13890476Y-33166666D01*
X14119047Y-33166666D02*
X14119047Y-32466666D01*
X14042857Y-32566666D01*
X13966666Y-32633333D01*
X13890476Y-32666666D01*
X15071428Y-32466666D02*
X14690476Y-32466666D01*
X14652380Y-32800000D01*
X14690476Y-32766666D01*
X14766666Y-32733333D01*
X14957142Y-32733333D01*
X15033333Y-32766666D01*
X15071428Y-32800000D01*
X15109523Y-32866666D01*
X15109523Y-33033333D01*
X15071428Y-33100000D01*
X15033333Y-33133333D01*
X14957142Y-33166666D01*
X14766666Y-33166666D01*
X14690476Y-33133333D01*
X14652380Y-33100000D01*
X7310714Y-21525000D02*
X7272619Y-21558333D01*
X7158333Y-21591666D01*
X7082142Y-21591666D01*
X6967857Y-21558333D01*
X6891666Y-21491666D01*
X6853571Y-21425000D01*
X6815476Y-21291666D01*
X6815476Y-21191666D01*
X6853571Y-21058333D01*
X6891666Y-20991666D01*
X6967857Y-20925000D01*
X7082142Y-20891666D01*
X7158333Y-20891666D01*
X7272619Y-20925000D01*
X7310714Y-20958333D01*
X8072619Y-21591666D02*
X7615476Y-21591666D01*
X7844047Y-21591666D02*
X7844047Y-20891666D01*
X7767857Y-20991666D01*
X7691666Y-21058333D01*
X7615476Y-21091666D01*
X8758333Y-21125000D02*
X8758333Y-21591666D01*
X8567857Y-20858333D02*
X8377380Y-21358333D01*
X8872619Y-21358333D01*
X4416666Y-29450000D02*
X4378571Y-29483333D01*
X4264285Y-29516666D01*
X4188095Y-29516666D01*
X4073809Y-29483333D01*
X3997619Y-29416666D01*
X3959523Y-29350000D01*
X3921428Y-29216666D01*
X3921428Y-29116666D01*
X3959523Y-28983333D01*
X3997619Y-28916666D01*
X4073809Y-28850000D01*
X4188095Y-28816666D01*
X4264285Y-28816666D01*
X4378571Y-28850000D01*
X4416666Y-28883333D01*
X5140476Y-28816666D02*
X4759523Y-28816666D01*
X4721428Y-29150000D01*
X4759523Y-29116666D01*
X4835714Y-29083333D01*
X5026190Y-29083333D01*
X5102380Y-29116666D01*
X5140476Y-29150000D01*
X5178571Y-29216666D01*
X5178571Y-29383333D01*
X5140476Y-29450000D01*
X5102380Y-29483333D01*
X5026190Y-29516666D01*
X4835714Y-29516666D01*
X4759523Y-29483333D01*
X4721428Y-29450000D01*
X5566666Y-9100000D02*
X5528571Y-9133333D01*
X5414285Y-9166666D01*
X5338095Y-9166666D01*
X5223809Y-9133333D01*
X5147619Y-9066666D01*
X5109523Y-9000000D01*
X5071428Y-8866666D01*
X5071428Y-8766666D01*
X5109523Y-8633333D01*
X5147619Y-8566666D01*
X5223809Y-8500000D01*
X5338095Y-8466666D01*
X5414285Y-8466666D01*
X5528571Y-8500000D01*
X5566666Y-8533333D01*
X6252380Y-8700000D02*
X6252380Y-9166666D01*
X6061904Y-8433333D02*
X5871428Y-8933333D01*
X6366666Y-8933333D01*
X3651666Y-13520000D02*
X3613571Y-13553333D01*
X3499285Y-13586666D01*
X3423095Y-13586666D01*
X3308809Y-13553333D01*
X3232619Y-13486666D01*
X3194523Y-13420000D01*
X3156428Y-13286666D01*
X3156428Y-13186666D01*
X3194523Y-13053333D01*
X3232619Y-12986666D01*
X3308809Y-12920000D01*
X3423095Y-12886666D01*
X3499285Y-12886666D01*
X3613571Y-12920000D01*
X3651666Y-12953333D01*
X3918333Y-12886666D02*
X4413571Y-12886666D01*
X4146904Y-13153333D01*
X4261190Y-13153333D01*
X4337380Y-13186666D01*
X4375476Y-13220000D01*
X4413571Y-13286666D01*
X4413571Y-13453333D01*
X4375476Y-13520000D01*
X4337380Y-13553333D01*
X4261190Y-13586666D01*
X4032619Y-13586666D01*
X3956428Y-13553333D01*
X3918333Y-13520000D01*
X4716666Y-5550000D02*
X4678571Y-5583333D01*
X4564285Y-5616666D01*
X4488095Y-5616666D01*
X4373809Y-5583333D01*
X4297619Y-5516666D01*
X4259523Y-5450000D01*
X4221428Y-5316666D01*
X4221428Y-5216666D01*
X4259523Y-5083333D01*
X4297619Y-5016666D01*
X4373809Y-4950000D01*
X4488095Y-4916666D01*
X4564285Y-4916666D01*
X4678571Y-4950000D01*
X4716666Y-4983333D01*
X5021428Y-4983333D02*
X5059523Y-4950000D01*
X5135714Y-4916666D01*
X5326190Y-4916666D01*
X5402380Y-4950000D01*
X5440476Y-4983333D01*
X5478571Y-5050000D01*
X5478571Y-5116666D01*
X5440476Y-5216666D01*
X4983333Y-5616666D01*
X5478571Y-5616666D01*
X-450000Y-6033333D02*
X-416667Y-6071428D01*
X-383334Y-6185714D01*
X-383334Y-6261904D01*
X-416667Y-6376190D01*
X-483334Y-6452380D01*
X-550000Y-6490476D01*
X-683334Y-6528571D01*
X-783334Y-6528571D01*
X-916667Y-6490476D01*
X-983334Y-6452380D01*
X-1050000Y-6376190D01*
X-1083334Y-6261904D01*
X-1083334Y-6185714D01*
X-1050000Y-6071428D01*
X-1016667Y-6033333D01*
X-383334Y-5271428D02*
X-383334Y-5728571D01*
X-383334Y-5500000D02*
X-1083334Y-5500000D01*
X-983334Y-5576190D01*
X-916667Y-5652380D01*
X-883334Y-5728571D01*
M02*
