G04 #@! TF.GenerationSoftware,KiCad,Pcbnew,(5.1.0-10-g6006703)*
G04 #@! TF.CreationDate,2019-04-20T21:28:09+08:00*
G04 #@! TF.ProjectId,cicada-2g,63696361-6461-42d3-9267-2e6b69636164,0.1*
G04 #@! TF.SameCoordinates,PX7cee6c0PY3dfd240*
G04 #@! TF.FileFunction,Soldermask,Bot*
G04 #@! TF.FilePolarity,Negative*
%FSLAX46Y46*%
G04 Gerber Fmt 4.6, Leading zero omitted, Abs format (unit mm)*
G04 Created by KiCad (PCBNEW (5.1.0-10-g6006703)) date 2019-04-20 21:28:09*
%MOMM*%
%LPD*%
G04 APERTURE LIST*
%ADD10C,0.150000*%
G04 APERTURE END LIST*
D10*
X-2500000Y-60000000D02*
X17000000Y-60000000D01*
X-2500000Y-58300000D02*
X-2500000Y-60000000D01*
X-12000000Y-58300000D02*
X-2500000Y-58300000D01*
X-12000000Y-60000000D02*
X-12000000Y-58300000D01*
X-17000000Y-60000000D02*
G75*
G02X-20000000Y-57000000I0J3000000D01*
G01*
X20000000Y-57000000D02*
G75*
G02X17000000Y-60000000I-3000000J0D01*
G01*
X17000000Y5000000D02*
G75*
G02X20000000Y2000000I0J-3000000D01*
G01*
X-20000000Y2000000D02*
G75*
G02X-17000000Y5000000I3000000J0D01*
G01*
X-20000000Y-57000000D02*
X-20000000Y2000000D01*
X-12000000Y-60000000D02*
X-17000000Y-60000000D01*
X20000000Y2000000D02*
X20000000Y-57000000D01*
X-17000000Y5000000D02*
X17000000Y5000000D01*
G36*
X17802144Y-54355680D02*
G01*
X18302612Y-54562981D01*
X18753022Y-54863935D01*
X19136065Y-55246978D01*
X19437019Y-55697388D01*
X19644320Y-56197856D01*
X19750000Y-56729147D01*
X19750000Y-57270853D01*
X19644320Y-57802144D01*
X19437019Y-58302612D01*
X19136065Y-58753022D01*
X18753022Y-59136065D01*
X18302612Y-59437019D01*
X17802144Y-59644320D01*
X17270853Y-59750000D01*
X16729147Y-59750000D01*
X16197856Y-59644320D01*
X15697388Y-59437019D01*
X15246978Y-59136065D01*
X14863935Y-58753022D01*
X14562981Y-58302612D01*
X14355680Y-57802144D01*
X14250000Y-57270853D01*
X14250000Y-56729147D01*
X14355680Y-56197856D01*
X14562981Y-55697388D01*
X14863935Y-55246978D01*
X15246978Y-54863935D01*
X15697388Y-54562981D01*
X16197856Y-54355680D01*
X16729147Y-54250000D01*
X17270853Y-54250000D01*
X17802144Y-54355680D01*
X17802144Y-54355680D01*
G37*
G36*
X-16197856Y-54355680D02*
G01*
X-15697388Y-54562981D01*
X-15246978Y-54863935D01*
X-14863935Y-55246978D01*
X-14562981Y-55697388D01*
X-14355680Y-56197856D01*
X-14250000Y-56729147D01*
X-14250000Y-57270853D01*
X-14355680Y-57802144D01*
X-14562981Y-58302612D01*
X-14863935Y-58753022D01*
X-15246978Y-59136065D01*
X-15697388Y-59437019D01*
X-16197856Y-59644320D01*
X-16729147Y-59750000D01*
X-17270853Y-59750000D01*
X-17802144Y-59644320D01*
X-18302612Y-59437019D01*
X-18753022Y-59136065D01*
X-19136065Y-58753022D01*
X-19437019Y-58302612D01*
X-19644320Y-57802144D01*
X-19750000Y-57270853D01*
X-19750000Y-56729147D01*
X-19644320Y-56197856D01*
X-19437019Y-55697388D01*
X-19136065Y-55246978D01*
X-18753022Y-54863935D01*
X-18302612Y-54562981D01*
X-17802144Y-54355680D01*
X-17270853Y-54250000D01*
X-16729147Y-54250000D01*
X-16197856Y-54355680D01*
X-16197856Y-54355680D01*
G37*
G36*
X-3540825Y-55811749D02*
G01*
X-3540822Y-55811750D01*
X-3540821Y-55811750D01*
X-3387759Y-55858181D01*
X-3387756Y-55858183D01*
X-3387755Y-55858183D01*
X-3246697Y-55933580D01*
X-3123051Y-56035052D01*
X-3021580Y-56158696D01*
X-3000649Y-56197855D01*
X-2946181Y-56299758D01*
X-2946181Y-56299759D01*
X-2899749Y-56452824D01*
X-2888000Y-56572115D01*
X-2888000Y-57027884D01*
X-2899749Y-57147176D01*
X-2899750Y-57147179D01*
X-2899750Y-57147180D01*
X-2946181Y-57300242D01*
X-2946183Y-57300245D01*
X-2946183Y-57300246D01*
X-3021580Y-57441304D01*
X-3123051Y-57564949D01*
X-3246696Y-57666420D01*
X-3387754Y-57741817D01*
X-3387758Y-57741819D01*
X-3540820Y-57788250D01*
X-3540821Y-57788250D01*
X-3540824Y-57788251D01*
X-3700000Y-57803928D01*
X-3859175Y-57788251D01*
X-3859178Y-57788250D01*
X-3859179Y-57788250D01*
X-4012241Y-57741819D01*
X-4012245Y-57741817D01*
X-4153303Y-57666420D01*
X-4276945Y-57564951D01*
X-4378422Y-57441301D01*
X-4453817Y-57300246D01*
X-4453817Y-57300245D01*
X-4453819Y-57300242D01*
X-4500250Y-57147180D01*
X-4500250Y-57147179D01*
X-4500251Y-57147176D01*
X-4512000Y-57027885D01*
X-4512000Y-56572116D01*
X-4500251Y-56452825D01*
X-4500250Y-56452821D01*
X-4453819Y-56299759D01*
X-4378419Y-56158696D01*
X-4378418Y-56158695D01*
X-4276948Y-56035051D01*
X-4153304Y-55933580D01*
X-4012246Y-55858183D01*
X-4012245Y-55858183D01*
X-4012242Y-55858181D01*
X-3859180Y-55811750D01*
X-3859179Y-55811750D01*
X-3859176Y-55811749D01*
X-3700000Y-55796072D01*
X-3540825Y-55811749D01*
X-3540825Y-55811749D01*
G37*
G36*
X-10740825Y-55811749D02*
G01*
X-10740822Y-55811750D01*
X-10740821Y-55811750D01*
X-10587759Y-55858181D01*
X-10587756Y-55858183D01*
X-10587755Y-55858183D01*
X-10446697Y-55933580D01*
X-10323051Y-56035052D01*
X-10221580Y-56158696D01*
X-10200649Y-56197855D01*
X-10146181Y-56299758D01*
X-10146181Y-56299759D01*
X-10099749Y-56452824D01*
X-10088000Y-56572115D01*
X-10088000Y-57027884D01*
X-10099749Y-57147176D01*
X-10099750Y-57147179D01*
X-10099750Y-57147180D01*
X-10146181Y-57300242D01*
X-10146183Y-57300245D01*
X-10146183Y-57300246D01*
X-10221580Y-57441304D01*
X-10323051Y-57564949D01*
X-10446696Y-57666420D01*
X-10587754Y-57741817D01*
X-10587758Y-57741819D01*
X-10740820Y-57788250D01*
X-10740821Y-57788250D01*
X-10740824Y-57788251D01*
X-10900000Y-57803928D01*
X-11059175Y-57788251D01*
X-11059178Y-57788250D01*
X-11059179Y-57788250D01*
X-11212241Y-57741819D01*
X-11212245Y-57741817D01*
X-11353303Y-57666420D01*
X-11476945Y-57564951D01*
X-11578422Y-57441301D01*
X-11653817Y-57300246D01*
X-11653817Y-57300245D01*
X-11653819Y-57300242D01*
X-11700250Y-57147180D01*
X-11700250Y-57147179D01*
X-11700251Y-57147176D01*
X-11712000Y-57027885D01*
X-11712000Y-56572116D01*
X-11700251Y-56452825D01*
X-11700250Y-56452821D01*
X-11653819Y-56299759D01*
X-11578419Y-56158696D01*
X-11578418Y-56158695D01*
X-11476948Y-56035051D01*
X-11353304Y-55933580D01*
X-11212246Y-55858183D01*
X-11212245Y-55858183D01*
X-11212242Y-55858181D01*
X-11059180Y-55811750D01*
X-11059179Y-55811750D01*
X-11059176Y-55811749D01*
X-10900000Y-55796072D01*
X-10740825Y-55811749D01*
X-10740825Y-55811749D01*
G37*
G36*
X-9622387Y-53232325D02*
G01*
X-9612280Y-53233320D01*
X-9558087Y-53249760D01*
X-9503893Y-53266199D01*
X-9404003Y-53319592D01*
X-9316446Y-53391446D01*
X-9244592Y-53479002D01*
X-9191199Y-53578892D01*
X-9158320Y-53687280D01*
X-9150000Y-53771754D01*
X-9150000Y-54028245D01*
X-9157131Y-54100651D01*
X-9158320Y-54112720D01*
X-9174760Y-54166913D01*
X-9191199Y-54221107D01*
X-9191200Y-54221108D01*
X-9244592Y-54320998D01*
X-9266917Y-54348201D01*
X-9316446Y-54408554D01*
X-9404002Y-54480408D01*
X-9503892Y-54533801D01*
X-9558086Y-54550241D01*
X-9612279Y-54566680D01*
X-9622386Y-54567675D01*
X-9725000Y-54577782D01*
X-9827613Y-54567675D01*
X-9837720Y-54566680D01*
X-9891913Y-54550241D01*
X-9946107Y-54533801D01*
X-10045997Y-54480408D01*
X-10133553Y-54408554D01*
X-10205407Y-54320998D01*
X-10258801Y-54221108D01*
X-10291680Y-54112720D01*
X-10300000Y-54028246D01*
X-10300000Y-53771755D01*
X-10291680Y-53687281D01*
X-10291679Y-53687279D01*
X-10258801Y-53578894D01*
X-10258801Y-53578893D01*
X-10205408Y-53479003D01*
X-10133554Y-53391446D01*
X-10045998Y-53319592D01*
X-9946108Y-53266199D01*
X-9891914Y-53249760D01*
X-9837721Y-53233320D01*
X-9827614Y-53232325D01*
X-9725000Y-53222218D01*
X-9622387Y-53232325D01*
X-9622387Y-53232325D01*
G37*
G36*
X-4772387Y-53232325D02*
G01*
X-4762280Y-53233320D01*
X-4708087Y-53249760D01*
X-4653893Y-53266199D01*
X-4554003Y-53319592D01*
X-4466446Y-53391446D01*
X-4394592Y-53479002D01*
X-4341199Y-53578892D01*
X-4308320Y-53687280D01*
X-4300000Y-53771754D01*
X-4300000Y-54028245D01*
X-4307131Y-54100651D01*
X-4308320Y-54112720D01*
X-4324760Y-54166913D01*
X-4341199Y-54221107D01*
X-4341200Y-54221108D01*
X-4394592Y-54320998D01*
X-4416917Y-54348201D01*
X-4466446Y-54408554D01*
X-4554002Y-54480408D01*
X-4653892Y-54533801D01*
X-4708086Y-54550241D01*
X-4762279Y-54566680D01*
X-4772386Y-54567675D01*
X-4875000Y-54577782D01*
X-4977613Y-54567675D01*
X-4987720Y-54566680D01*
X-5041913Y-54550241D01*
X-5096107Y-54533801D01*
X-5195997Y-54480408D01*
X-5283553Y-54408554D01*
X-5355407Y-54320998D01*
X-5408801Y-54221108D01*
X-5441680Y-54112720D01*
X-5450000Y-54028246D01*
X-5450000Y-53771755D01*
X-5441680Y-53687281D01*
X-5441679Y-53687279D01*
X-5408801Y-53578894D01*
X-5408801Y-53578893D01*
X-5355408Y-53479003D01*
X-5283554Y-53391446D01*
X-5195998Y-53319592D01*
X-5096108Y-53266199D01*
X-5041914Y-53249760D01*
X-4987721Y-53233320D01*
X-4977614Y-53232325D01*
X-4875000Y-53222218D01*
X-4772387Y-53232325D01*
X-4772387Y-53232325D01*
G37*
G36*
X-290000Y-45690000D02*
G01*
X-2490000Y-45690000D01*
X-2490000Y-44640000D01*
X-290000Y-44640000D01*
X-290000Y-45690000D01*
X-290000Y-45690000D01*
G37*
G36*
X610000Y-44190000D02*
G01*
X-390000Y-44190000D01*
X-390000Y-43190000D01*
X610000Y-43190000D01*
X610000Y-44190000D01*
X610000Y-44190000D01*
G37*
G36*
X-2390000Y-44190000D02*
G01*
X-3390000Y-44190000D01*
X-3390000Y-43190000D01*
X-2390000Y-43190000D01*
X-2390000Y-44190000D01*
X-2390000Y-44190000D01*
G37*
G36*
X6233351Y-42530743D02*
G01*
X6378941Y-42591048D01*
X6509970Y-42678599D01*
X6621401Y-42790030D01*
X6708952Y-42921059D01*
X6769257Y-43066649D01*
X6800000Y-43221206D01*
X6800000Y-43378794D01*
X6769257Y-43533351D01*
X6708952Y-43678941D01*
X6621401Y-43809970D01*
X6509970Y-43921401D01*
X6378941Y-44008952D01*
X6233351Y-44069257D01*
X6078794Y-44100000D01*
X5921206Y-44100000D01*
X5766649Y-44069257D01*
X5621059Y-44008952D01*
X5490030Y-43921401D01*
X5378599Y-43809970D01*
X5291048Y-43678941D01*
X5230743Y-43533351D01*
X5200000Y-43378794D01*
X5200000Y-43221206D01*
X5230743Y-43066649D01*
X5291048Y-42921059D01*
X5378599Y-42790030D01*
X5490030Y-42678599D01*
X5621059Y-42591048D01*
X5766649Y-42530743D01*
X5921206Y-42500000D01*
X6078794Y-42500000D01*
X6233351Y-42530743D01*
X6233351Y-42530743D01*
G37*
G36*
X-290000Y-42740000D02*
G01*
X-2490000Y-42740000D01*
X-2490000Y-41690000D01*
X-290000Y-41690000D01*
X-290000Y-42740000D01*
X-290000Y-42740000D01*
G37*
G36*
X6800000Y-41600000D02*
G01*
X5200000Y-41600000D01*
X5200000Y-40000000D01*
X6800000Y-40000000D01*
X6800000Y-41600000D01*
X6800000Y-41600000D01*
G37*
G36*
X9800000Y-32900000D02*
G01*
X8200000Y-32900000D01*
X8200000Y-31300000D01*
X9800000Y-31300000D01*
X9800000Y-32900000D01*
X9800000Y-32900000D01*
G37*
G36*
X6733351Y-31330743D02*
G01*
X6878941Y-31391048D01*
X7009970Y-31478599D01*
X7121401Y-31590030D01*
X7208952Y-31721059D01*
X7269257Y-31866649D01*
X7300000Y-32021206D01*
X7300000Y-32178794D01*
X7269257Y-32333351D01*
X7208952Y-32478941D01*
X7121401Y-32609970D01*
X7009970Y-32721401D01*
X6878941Y-32808952D01*
X6733351Y-32869257D01*
X6578794Y-32900000D01*
X6421206Y-32900000D01*
X6266649Y-32869257D01*
X6121059Y-32808952D01*
X5990030Y-32721401D01*
X5878599Y-32609970D01*
X5791048Y-32478941D01*
X5730743Y-32333351D01*
X5700000Y-32178794D01*
X5700000Y-32021206D01*
X5730743Y-31866649D01*
X5791048Y-31721059D01*
X5878599Y-31590030D01*
X5990030Y-31478599D01*
X6121059Y-31391048D01*
X6266649Y-31330743D01*
X6421206Y-31300000D01*
X6578794Y-31300000D01*
X6733351Y-31330743D01*
X6733351Y-31330743D01*
G37*
G36*
X13700000Y-29600000D02*
G01*
X12100000Y-29600000D01*
X12100000Y-28000000D01*
X13700000Y-28000000D01*
X13700000Y-29600000D01*
X13700000Y-29600000D01*
G37*
G36*
X15633351Y-28030743D02*
G01*
X15778941Y-28091048D01*
X15909970Y-28178599D01*
X16021401Y-28290030D01*
X16108952Y-28421059D01*
X16169257Y-28566649D01*
X16200000Y-28721206D01*
X16200000Y-28878794D01*
X16169257Y-29033351D01*
X16108952Y-29178941D01*
X16021401Y-29309970D01*
X15909970Y-29421401D01*
X15778941Y-29508952D01*
X15633351Y-29569257D01*
X15478794Y-29600000D01*
X15321206Y-29600000D01*
X15166649Y-29569257D01*
X15021059Y-29508952D01*
X14890030Y-29421401D01*
X14778599Y-29309970D01*
X14691048Y-29178941D01*
X14630743Y-29033351D01*
X14600000Y-28878794D01*
X14600000Y-28721206D01*
X14630743Y-28566649D01*
X14691048Y-28421059D01*
X14778599Y-28290030D01*
X14890030Y-28178599D01*
X15021059Y-28091048D01*
X15166649Y-28030743D01*
X15321206Y-28000000D01*
X15478794Y-28000000D01*
X15633351Y-28030743D01*
X15633351Y-28030743D01*
G37*
G36*
X6733351Y-24330743D02*
G01*
X6878941Y-24391048D01*
X7009970Y-24478599D01*
X7121401Y-24590030D01*
X7208952Y-24721059D01*
X7269257Y-24866649D01*
X7300000Y-25021206D01*
X7300000Y-25178794D01*
X7269257Y-25333351D01*
X7208952Y-25478941D01*
X7121401Y-25609970D01*
X7009970Y-25721401D01*
X6878941Y-25808952D01*
X6733351Y-25869257D01*
X6578794Y-25900000D01*
X6421206Y-25900000D01*
X6266649Y-25869257D01*
X6121059Y-25808952D01*
X5990030Y-25721401D01*
X5878599Y-25609970D01*
X5791048Y-25478941D01*
X5730743Y-25333351D01*
X5700000Y-25178794D01*
X5700000Y-25021206D01*
X5730743Y-24866649D01*
X5791048Y-24721059D01*
X5878599Y-24590030D01*
X5990030Y-24478599D01*
X6121059Y-24391048D01*
X6266649Y-24330743D01*
X6421206Y-24300000D01*
X6578794Y-24300000D01*
X6733351Y-24330743D01*
X6733351Y-24330743D01*
G37*
G36*
X9800000Y-25900000D02*
G01*
X8200000Y-25900000D01*
X8200000Y-24300000D01*
X9800000Y-24300000D01*
X9800000Y-25900000D01*
X9800000Y-25900000D01*
G37*
G36*
X-8040000Y-2120000D02*
G01*
X-9740000Y-2120000D01*
X-9740000Y-420000D01*
X-8040000Y-420000D01*
X-8040000Y-2120000D01*
X-8040000Y-2120000D01*
G37*
G36*
X6516627Y-432299D02*
G01*
X6596742Y-456602D01*
X6676855Y-480903D01*
X6676857Y-480904D01*
X6824518Y-559831D01*
X6953949Y-666051D01*
X7060169Y-795482D01*
X7139096Y-943143D01*
X7187701Y-1103373D01*
X7204112Y-1270000D01*
X7187701Y-1436627D01*
X7139096Y-1596857D01*
X7060169Y-1744518D01*
X6953949Y-1873949D01*
X6824518Y-1980169D01*
X6676857Y-2059096D01*
X6676855Y-2059097D01*
X6596742Y-2083398D01*
X6516627Y-2107701D01*
X6391752Y-2120000D01*
X6308248Y-2120000D01*
X6183373Y-2107701D01*
X6103258Y-2083398D01*
X6023145Y-2059097D01*
X6023143Y-2059096D01*
X5875482Y-1980169D01*
X5746051Y-1873949D01*
X5639831Y-1744518D01*
X5560904Y-1596857D01*
X5512299Y-1436627D01*
X5495888Y-1270000D01*
X5512299Y-1103373D01*
X5560904Y-943143D01*
X5639831Y-795482D01*
X5746051Y-666051D01*
X5875482Y-559831D01*
X6023143Y-480904D01*
X6023145Y-480903D01*
X6103258Y-456602D01*
X6183373Y-432299D01*
X6308248Y-420000D01*
X6391752Y-420000D01*
X6516627Y-432299D01*
X6516627Y-432299D01*
G37*
G36*
X9056627Y-432299D02*
G01*
X9136742Y-456602D01*
X9216855Y-480903D01*
X9216857Y-480904D01*
X9364518Y-559831D01*
X9493949Y-666051D01*
X9600169Y-795482D01*
X9679096Y-943143D01*
X9727701Y-1103373D01*
X9744112Y-1270000D01*
X9727701Y-1436627D01*
X9679096Y-1596857D01*
X9600169Y-1744518D01*
X9493949Y-1873949D01*
X9364518Y-1980169D01*
X9216857Y-2059096D01*
X9216855Y-2059097D01*
X9136742Y-2083398D01*
X9056627Y-2107701D01*
X8931752Y-2120000D01*
X8848248Y-2120000D01*
X8723373Y-2107701D01*
X8643258Y-2083398D01*
X8563145Y-2059097D01*
X8563143Y-2059096D01*
X8415482Y-1980169D01*
X8286051Y-1873949D01*
X8179831Y-1744518D01*
X8100904Y-1596857D01*
X8052299Y-1436627D01*
X8035888Y-1270000D01*
X8052299Y-1103373D01*
X8100904Y-943143D01*
X8179831Y-795482D01*
X8286051Y-666051D01*
X8415482Y-559831D01*
X8563143Y-480904D01*
X8563145Y-480903D01*
X8643258Y-456602D01*
X8723373Y-432299D01*
X8848248Y-420000D01*
X8931752Y-420000D01*
X9056627Y-432299D01*
X9056627Y-432299D01*
G37*
G36*
X3976627Y-432299D02*
G01*
X4056742Y-456602D01*
X4136855Y-480903D01*
X4136857Y-480904D01*
X4284518Y-559831D01*
X4413949Y-666051D01*
X4520169Y-795482D01*
X4599096Y-943143D01*
X4647701Y-1103373D01*
X4664112Y-1270000D01*
X4647701Y-1436627D01*
X4599096Y-1596857D01*
X4520169Y-1744518D01*
X4413949Y-1873949D01*
X4284518Y-1980169D01*
X4136857Y-2059096D01*
X4136855Y-2059097D01*
X4056742Y-2083398D01*
X3976627Y-2107701D01*
X3851752Y-2120000D01*
X3768248Y-2120000D01*
X3643373Y-2107701D01*
X3563258Y-2083398D01*
X3483145Y-2059097D01*
X3483143Y-2059096D01*
X3335482Y-1980169D01*
X3206051Y-1873949D01*
X3099831Y-1744518D01*
X3020904Y-1596857D01*
X2972299Y-1436627D01*
X2955888Y-1270000D01*
X2972299Y-1103373D01*
X3020904Y-943143D01*
X3099831Y-795482D01*
X3206051Y-666051D01*
X3335482Y-559831D01*
X3483143Y-480904D01*
X3483145Y-480903D01*
X3563258Y-456602D01*
X3643373Y-432299D01*
X3768248Y-420000D01*
X3851752Y-420000D01*
X3976627Y-432299D01*
X3976627Y-432299D01*
G37*
G36*
X1436627Y-432299D02*
G01*
X1516742Y-456602D01*
X1596855Y-480903D01*
X1596857Y-480904D01*
X1744518Y-559831D01*
X1873949Y-666051D01*
X1980169Y-795482D01*
X2059096Y-943143D01*
X2107701Y-1103373D01*
X2124112Y-1270000D01*
X2107701Y-1436627D01*
X2059096Y-1596857D01*
X1980169Y-1744518D01*
X1873949Y-1873949D01*
X1744518Y-1980169D01*
X1596857Y-2059096D01*
X1596855Y-2059097D01*
X1516742Y-2083398D01*
X1436627Y-2107701D01*
X1311752Y-2120000D01*
X1228248Y-2120000D01*
X1103373Y-2107701D01*
X1023258Y-2083398D01*
X943145Y-2059097D01*
X943143Y-2059096D01*
X795482Y-1980169D01*
X666051Y-1873949D01*
X559831Y-1744518D01*
X480904Y-1596857D01*
X432299Y-1436627D01*
X415888Y-1270000D01*
X432299Y-1103373D01*
X480904Y-943143D01*
X559831Y-795482D01*
X666051Y-666051D01*
X795482Y-559831D01*
X943143Y-480904D01*
X943145Y-480903D01*
X1023258Y-456602D01*
X1103373Y-432299D01*
X1228248Y-420000D01*
X1311752Y-420000D01*
X1436627Y-432299D01*
X1436627Y-432299D01*
G37*
G36*
X-1103373Y-432299D02*
G01*
X-1023258Y-456602D01*
X-943145Y-480903D01*
X-943143Y-480904D01*
X-795482Y-559831D01*
X-666051Y-666051D01*
X-559831Y-795482D01*
X-480904Y-943143D01*
X-432299Y-1103373D01*
X-415888Y-1270000D01*
X-432299Y-1436627D01*
X-480904Y-1596857D01*
X-559831Y-1744518D01*
X-666051Y-1873949D01*
X-795482Y-1980169D01*
X-943143Y-2059096D01*
X-943145Y-2059097D01*
X-1023258Y-2083398D01*
X-1103373Y-2107701D01*
X-1228248Y-2120000D01*
X-1311752Y-2120000D01*
X-1436627Y-2107701D01*
X-1516742Y-2083398D01*
X-1596855Y-2059097D01*
X-1596857Y-2059096D01*
X-1744518Y-1980169D01*
X-1873949Y-1873949D01*
X-1980169Y-1744518D01*
X-2059096Y-1596857D01*
X-2107701Y-1436627D01*
X-2124112Y-1270000D01*
X-2107701Y-1103373D01*
X-2059096Y-943143D01*
X-1980169Y-795482D01*
X-1873949Y-666051D01*
X-1744518Y-559831D01*
X-1596857Y-480904D01*
X-1596855Y-480903D01*
X-1516742Y-456602D01*
X-1436627Y-432299D01*
X-1311752Y-420000D01*
X-1228248Y-420000D01*
X-1103373Y-432299D01*
X-1103373Y-432299D01*
G37*
G36*
X-3643373Y-432299D02*
G01*
X-3563258Y-456602D01*
X-3483145Y-480903D01*
X-3483143Y-480904D01*
X-3335482Y-559831D01*
X-3206051Y-666051D01*
X-3099831Y-795482D01*
X-3020904Y-943143D01*
X-2972299Y-1103373D01*
X-2955888Y-1270000D01*
X-2972299Y-1436627D01*
X-3020904Y-1596857D01*
X-3099831Y-1744518D01*
X-3206051Y-1873949D01*
X-3335482Y-1980169D01*
X-3483143Y-2059096D01*
X-3483145Y-2059097D01*
X-3563258Y-2083398D01*
X-3643373Y-2107701D01*
X-3768248Y-2120000D01*
X-3851752Y-2120000D01*
X-3976627Y-2107701D01*
X-4056742Y-2083398D01*
X-4136855Y-2059097D01*
X-4136857Y-2059096D01*
X-4284518Y-1980169D01*
X-4413949Y-1873949D01*
X-4520169Y-1744518D01*
X-4599096Y-1596857D01*
X-4647701Y-1436627D01*
X-4664112Y-1270000D01*
X-4647701Y-1103373D01*
X-4599096Y-943143D01*
X-4520169Y-795482D01*
X-4413949Y-666051D01*
X-4284518Y-559831D01*
X-4136857Y-480904D01*
X-4136855Y-480903D01*
X-4056742Y-456602D01*
X-3976627Y-432299D01*
X-3851752Y-420000D01*
X-3768248Y-420000D01*
X-3643373Y-432299D01*
X-3643373Y-432299D01*
G37*
G36*
X-6183373Y-432299D02*
G01*
X-6103258Y-456602D01*
X-6023145Y-480903D01*
X-6023143Y-480904D01*
X-5875482Y-559831D01*
X-5746051Y-666051D01*
X-5639831Y-795482D01*
X-5560904Y-943143D01*
X-5512299Y-1103373D01*
X-5495888Y-1270000D01*
X-5512299Y-1436627D01*
X-5560904Y-1596857D01*
X-5639831Y-1744518D01*
X-5746051Y-1873949D01*
X-5875482Y-1980169D01*
X-6023143Y-2059096D01*
X-6023145Y-2059097D01*
X-6103258Y-2083398D01*
X-6183373Y-2107701D01*
X-6308248Y-2120000D01*
X-6391752Y-2120000D01*
X-6516627Y-2107701D01*
X-6596742Y-2083398D01*
X-6676855Y-2059097D01*
X-6676857Y-2059096D01*
X-6824518Y-1980169D01*
X-6953949Y-1873949D01*
X-7060169Y-1744518D01*
X-7139096Y-1596857D01*
X-7187701Y-1436627D01*
X-7204112Y-1270000D01*
X-7187701Y-1103373D01*
X-7139096Y-943143D01*
X-7060169Y-795482D01*
X-6953949Y-666051D01*
X-6824518Y-559831D01*
X-6676857Y-480904D01*
X-6676855Y-480903D01*
X-6596742Y-456602D01*
X-6516627Y-432299D01*
X-6391752Y-420000D01*
X-6308248Y-420000D01*
X-6183373Y-432299D01*
X-6183373Y-432299D01*
G37*
G36*
X6516627Y2107701D02*
G01*
X6596742Y2083398D01*
X6676855Y2059097D01*
X6676857Y2059096D01*
X6824518Y1980169D01*
X6953949Y1873949D01*
X7060169Y1744518D01*
X7139096Y1596857D01*
X7187701Y1436627D01*
X7204112Y1270000D01*
X7187701Y1103373D01*
X7139096Y943143D01*
X7060169Y795482D01*
X6953949Y666051D01*
X6824518Y559831D01*
X6676857Y480904D01*
X6676855Y480903D01*
X6596742Y456601D01*
X6516627Y432299D01*
X6391752Y420000D01*
X6308248Y420000D01*
X6183373Y432299D01*
X6103258Y456602D01*
X6023145Y480903D01*
X6023143Y480904D01*
X5875482Y559831D01*
X5746051Y666051D01*
X5639831Y795482D01*
X5560904Y943143D01*
X5512299Y1103373D01*
X5495888Y1270000D01*
X5512299Y1436627D01*
X5560904Y1596857D01*
X5639831Y1744518D01*
X5746051Y1873949D01*
X5875482Y1980169D01*
X6023143Y2059096D01*
X6023145Y2059097D01*
X6103258Y2083398D01*
X6183373Y2107701D01*
X6308248Y2120000D01*
X6391752Y2120000D01*
X6516627Y2107701D01*
X6516627Y2107701D01*
G37*
G36*
X9056627Y2107701D02*
G01*
X9136742Y2083398D01*
X9216855Y2059097D01*
X9216857Y2059096D01*
X9364518Y1980169D01*
X9493949Y1873949D01*
X9600169Y1744518D01*
X9679096Y1596857D01*
X9727701Y1436627D01*
X9744112Y1270000D01*
X9727701Y1103373D01*
X9679096Y943143D01*
X9600169Y795482D01*
X9493949Y666051D01*
X9364518Y559831D01*
X9216857Y480904D01*
X9216855Y480903D01*
X9136742Y456601D01*
X9056627Y432299D01*
X8931752Y420000D01*
X8848248Y420000D01*
X8723373Y432299D01*
X8643258Y456602D01*
X8563145Y480903D01*
X8563143Y480904D01*
X8415482Y559831D01*
X8286051Y666051D01*
X8179831Y795482D01*
X8100904Y943143D01*
X8052299Y1103373D01*
X8035888Y1270000D01*
X8052299Y1436627D01*
X8100904Y1596857D01*
X8179831Y1744518D01*
X8286051Y1873949D01*
X8415482Y1980169D01*
X8563143Y2059096D01*
X8563145Y2059097D01*
X8643258Y2083398D01*
X8723373Y2107701D01*
X8848248Y2120000D01*
X8931752Y2120000D01*
X9056627Y2107701D01*
X9056627Y2107701D01*
G37*
G36*
X3976627Y2107701D02*
G01*
X4056742Y2083398D01*
X4136855Y2059097D01*
X4136857Y2059096D01*
X4284518Y1980169D01*
X4413949Y1873949D01*
X4520169Y1744518D01*
X4599096Y1596857D01*
X4647701Y1436627D01*
X4664112Y1270000D01*
X4647701Y1103373D01*
X4599096Y943143D01*
X4520169Y795482D01*
X4413949Y666051D01*
X4284518Y559831D01*
X4136857Y480904D01*
X4136855Y480903D01*
X4056742Y456601D01*
X3976627Y432299D01*
X3851752Y420000D01*
X3768248Y420000D01*
X3643373Y432299D01*
X3563258Y456602D01*
X3483145Y480903D01*
X3483143Y480904D01*
X3335482Y559831D01*
X3206051Y666051D01*
X3099831Y795482D01*
X3020904Y943143D01*
X2972299Y1103373D01*
X2955888Y1270000D01*
X2972299Y1436627D01*
X3020904Y1596857D01*
X3099831Y1744518D01*
X3206051Y1873949D01*
X3335482Y1980169D01*
X3483143Y2059096D01*
X3483145Y2059097D01*
X3563258Y2083398D01*
X3643373Y2107701D01*
X3768248Y2120000D01*
X3851752Y2120000D01*
X3976627Y2107701D01*
X3976627Y2107701D01*
G37*
G36*
X1436627Y2107701D02*
G01*
X1516742Y2083398D01*
X1596855Y2059097D01*
X1596857Y2059096D01*
X1744518Y1980169D01*
X1873949Y1873949D01*
X1980169Y1744518D01*
X2059096Y1596857D01*
X2107701Y1436627D01*
X2124112Y1270000D01*
X2107701Y1103373D01*
X2059096Y943143D01*
X1980169Y795482D01*
X1873949Y666051D01*
X1744518Y559831D01*
X1596857Y480904D01*
X1596855Y480903D01*
X1516742Y456601D01*
X1436627Y432299D01*
X1311752Y420000D01*
X1228248Y420000D01*
X1103373Y432299D01*
X1023258Y456602D01*
X943145Y480903D01*
X943143Y480904D01*
X795482Y559831D01*
X666051Y666051D01*
X559831Y795482D01*
X480904Y943143D01*
X432299Y1103373D01*
X415888Y1270000D01*
X432299Y1436627D01*
X480904Y1596857D01*
X559831Y1744518D01*
X666051Y1873949D01*
X795482Y1980169D01*
X943143Y2059096D01*
X943145Y2059097D01*
X1023258Y2083398D01*
X1103373Y2107701D01*
X1228248Y2120000D01*
X1311752Y2120000D01*
X1436627Y2107701D01*
X1436627Y2107701D01*
G37*
G36*
X-1103373Y2107701D02*
G01*
X-1023258Y2083398D01*
X-943145Y2059097D01*
X-943143Y2059096D01*
X-795482Y1980169D01*
X-666051Y1873949D01*
X-559831Y1744518D01*
X-480904Y1596857D01*
X-432299Y1436627D01*
X-415888Y1270000D01*
X-432299Y1103373D01*
X-480904Y943143D01*
X-559831Y795482D01*
X-666051Y666051D01*
X-795482Y559831D01*
X-943143Y480904D01*
X-943145Y480903D01*
X-1023258Y456601D01*
X-1103373Y432299D01*
X-1228248Y420000D01*
X-1311752Y420000D01*
X-1436627Y432299D01*
X-1516742Y456602D01*
X-1596855Y480903D01*
X-1596857Y480904D01*
X-1744518Y559831D01*
X-1873949Y666051D01*
X-1980169Y795482D01*
X-2059096Y943143D01*
X-2107701Y1103373D01*
X-2124112Y1270000D01*
X-2107701Y1436627D01*
X-2059096Y1596857D01*
X-1980169Y1744518D01*
X-1873949Y1873949D01*
X-1744518Y1980169D01*
X-1596857Y2059096D01*
X-1596855Y2059097D01*
X-1516742Y2083398D01*
X-1436627Y2107701D01*
X-1311752Y2120000D01*
X-1228248Y2120000D01*
X-1103373Y2107701D01*
X-1103373Y2107701D01*
G37*
G36*
X-3643373Y2107701D02*
G01*
X-3563258Y2083398D01*
X-3483145Y2059097D01*
X-3483143Y2059096D01*
X-3335482Y1980169D01*
X-3206051Y1873949D01*
X-3099831Y1744518D01*
X-3020904Y1596857D01*
X-2972299Y1436627D01*
X-2955888Y1270000D01*
X-2972299Y1103373D01*
X-3020904Y943143D01*
X-3099831Y795482D01*
X-3206051Y666051D01*
X-3335482Y559831D01*
X-3483143Y480904D01*
X-3483145Y480903D01*
X-3563258Y456601D01*
X-3643373Y432299D01*
X-3768248Y420000D01*
X-3851752Y420000D01*
X-3976627Y432299D01*
X-4056742Y456602D01*
X-4136855Y480903D01*
X-4136857Y480904D01*
X-4284518Y559831D01*
X-4413949Y666051D01*
X-4520169Y795482D01*
X-4599096Y943143D01*
X-4647701Y1103373D01*
X-4664112Y1270000D01*
X-4647701Y1436627D01*
X-4599096Y1596857D01*
X-4520169Y1744518D01*
X-4413949Y1873949D01*
X-4284518Y1980169D01*
X-4136857Y2059096D01*
X-4136855Y2059097D01*
X-4056742Y2083398D01*
X-3976627Y2107701D01*
X-3851752Y2120000D01*
X-3768248Y2120000D01*
X-3643373Y2107701D01*
X-3643373Y2107701D01*
G37*
G36*
X-6183373Y2107701D02*
G01*
X-6103258Y2083398D01*
X-6023145Y2059097D01*
X-6023143Y2059096D01*
X-5875482Y1980169D01*
X-5746051Y1873949D01*
X-5639831Y1744518D01*
X-5560904Y1596857D01*
X-5512299Y1436627D01*
X-5495888Y1270000D01*
X-5512299Y1103373D01*
X-5560904Y943143D01*
X-5639831Y795482D01*
X-5746051Y666051D01*
X-5875482Y559831D01*
X-6023143Y480904D01*
X-6023145Y480903D01*
X-6103258Y456601D01*
X-6183373Y432299D01*
X-6308248Y420000D01*
X-6391752Y420000D01*
X-6516627Y432299D01*
X-6596742Y456602D01*
X-6676855Y480903D01*
X-6676857Y480904D01*
X-6824518Y559831D01*
X-6953949Y666051D01*
X-7060169Y795482D01*
X-7139096Y943143D01*
X-7187701Y1103373D01*
X-7204112Y1270000D01*
X-7187701Y1436627D01*
X-7139096Y1596857D01*
X-7060169Y1744518D01*
X-6953949Y1873949D01*
X-6824518Y1980169D01*
X-6676857Y2059096D01*
X-6676855Y2059097D01*
X-6596742Y2083398D01*
X-6516627Y2107701D01*
X-6391752Y2120000D01*
X-6308248Y2120000D01*
X-6183373Y2107701D01*
X-6183373Y2107701D01*
G37*
G36*
X-8723373Y2107701D02*
G01*
X-8643258Y2083398D01*
X-8563145Y2059097D01*
X-8563143Y2059096D01*
X-8415482Y1980169D01*
X-8286051Y1873949D01*
X-8179831Y1744518D01*
X-8100904Y1596857D01*
X-8052299Y1436627D01*
X-8035888Y1270000D01*
X-8052299Y1103373D01*
X-8100904Y943143D01*
X-8179831Y795482D01*
X-8286051Y666051D01*
X-8415482Y559831D01*
X-8563143Y480904D01*
X-8563145Y480903D01*
X-8643258Y456601D01*
X-8723373Y432299D01*
X-8848248Y420000D01*
X-8931752Y420000D01*
X-9056627Y432299D01*
X-9136742Y456602D01*
X-9216855Y480903D01*
X-9216857Y480904D01*
X-9364518Y559831D01*
X-9493949Y666051D01*
X-9600169Y795482D01*
X-9679096Y943143D01*
X-9727701Y1103373D01*
X-9744112Y1270000D01*
X-9727701Y1436627D01*
X-9679096Y1596857D01*
X-9600169Y1744518D01*
X-9493949Y1873949D01*
X-9364518Y1980169D01*
X-9216857Y2059096D01*
X-9216855Y2059097D01*
X-9136742Y2083398D01*
X-9056627Y2107701D01*
X-8931752Y2120000D01*
X-8848248Y2120000D01*
X-8723373Y2107701D01*
X-8723373Y2107701D01*
G37*
M02*
