G04 #@! TF.GenerationSoftware,KiCad,Pcbnew,(5.1.0-10-g6006703)*
G04 #@! TF.CreationDate,2019-04-20T21:28:09+08:00*
G04 #@! TF.ProjectId,cicada-2g,63696361-6461-42d3-9267-2e6b69636164,0.1*
G04 #@! TF.SameCoordinates,PX7cee6c0PY3dfd240*
G04 #@! TF.FileFunction,Copper,L2,Bot*
G04 #@! TF.FilePolarity,Positive*
%FSLAX46Y46*%
G04 Gerber Fmt 4.6, Leading zero omitted, Abs format (unit mm)*
G04 Created by KiCad (PCBNEW (5.1.0-10-g6006703)) date 2019-04-20 21:28:09*
%MOMM*%
%LPD*%
G04 APERTURE LIST*
%ADD10C,0.150000*%
%ADD11C,5.500000*%
%ADD12R,1.000000X1.000000*%
%ADD13R,2.200000X1.050000*%
%ADD14O,1.050000X1.250000*%
%ADD15O,1.524000X1.900000*%
%ADD16O,1.700000X1.700000*%
%ADD17R,1.700000X1.700000*%
%ADD18C,1.600000*%
%ADD19R,1.600000X1.600000*%
%ADD20C,0.800000*%
%ADD21C,0.250000*%
%ADD22C,1.200000*%
%ADD23C,0.200000*%
G04 APERTURE END LIST*
D10*
X-2500000Y-60000000D02*
X17000000Y-60000000D01*
X-2500000Y-58300000D02*
X-2500000Y-60000000D01*
X-12000000Y-58300000D02*
X-2500000Y-58300000D01*
X-12000000Y-60000000D02*
X-12000000Y-58300000D01*
X-17000000Y-60000000D02*
G75*
G02X-20000000Y-57000000I0J3000000D01*
G01*
X20000000Y-57000000D02*
G75*
G02X17000000Y-60000000I-3000000J0D01*
G01*
X17000000Y5000000D02*
G75*
G02X20000000Y2000000I0J-3000000D01*
G01*
X-20000000Y2000000D02*
G75*
G02X-17000000Y5000000I3000000J0D01*
G01*
X-20000000Y-57000000D02*
X-20000000Y2000000D01*
X-12000000Y-60000000D02*
X-17000000Y-60000000D01*
X20000000Y2000000D02*
X20000000Y-57000000D01*
X-17000000Y5000000D02*
X17000000Y5000000D01*
D11*
X17000000Y-57000000D03*
X-17000000Y-57000000D03*
D12*
X-2890000Y-43690000D03*
X110000Y-43690000D03*
D13*
X-1390000Y-42215000D03*
X-1390000Y-45165000D03*
D14*
X-4875000Y-53900000D03*
X-9725000Y-53900000D03*
D15*
X-3700000Y-56800000D03*
X-10900000Y-56800000D03*
D16*
X8890000Y1270000D03*
X8890000Y-1270000D03*
X6350000Y1270000D03*
X6350000Y-1270000D03*
X3810000Y1270000D03*
X3810000Y-1270000D03*
X1270000Y1270000D03*
X1270000Y-1270000D03*
X-1270000Y1270000D03*
X-1270000Y-1270000D03*
X-3810000Y1270000D03*
X-3810000Y-1270000D03*
X-6350000Y1270000D03*
X-6350000Y-1270000D03*
X-8890000Y1270000D03*
D17*
X-8890000Y-1270000D03*
D18*
X6000000Y-43300000D03*
D19*
X6000000Y-40800000D03*
D18*
X15400000Y-28800000D03*
D19*
X12900000Y-28800000D03*
D18*
X6500000Y-25100000D03*
D19*
X9000000Y-25100000D03*
D18*
X6500000Y-32100000D03*
D19*
X9000000Y-32100000D03*
D20*
X-50000Y-43600000D03*
X-1000000Y-42200000D03*
X14872982Y-43071179D03*
X-7600000Y-52199984D03*
X-5075000Y-43600000D03*
X-4000000Y-44600000D03*
X-5000000Y-44600000D03*
X-5700000Y-45300000D03*
X-5500000Y-46300000D03*
X-4400000Y-46800000D03*
X-4400000Y-50300000D03*
X-1400000Y-50300000D03*
X-300000Y-48500000D03*
X-300000Y-47500000D03*
X-1000000Y-46600000D03*
X-100000Y-45600000D03*
X-100000Y-44600000D03*
X-100000Y-42600000D03*
X-4000000Y-43600000D03*
X13650000Y-43070000D03*
X9240000Y-42720000D03*
X9240000Y-43720000D03*
X9240000Y-44720000D03*
X14900000Y-40440000D03*
X16000000Y-43040000D03*
X14970000Y-45650000D03*
X16250000Y-45710000D03*
X2810000Y-35480000D03*
X3880000Y-35470000D03*
X-460000Y-36450000D03*
X-500000Y-35240000D03*
X-3930000Y-51230000D03*
X-1840000Y-51230000D03*
X-5630000Y-48510000D03*
X-5620000Y-49520000D03*
X-5570000Y-47290000D03*
X-100000Y-12300000D03*
X5200000Y-12100000D03*
X5400000Y-8800000D03*
X-700000Y-6200000D03*
X13300000Y-34900000D03*
X-16600000Y-29100000D03*
X-18200000Y-30000000D03*
X-18200000Y-29000000D03*
X-18200000Y-31000000D03*
X-18300000Y-36600000D03*
X-14900000Y-36600000D03*
X-18300000Y-38800000D03*
X-14900000Y-38800000D03*
X-16600000Y-39700000D03*
X-9500000Y-28200000D03*
X-9500000Y-25100000D03*
X17300000Y-40400000D03*
X-2843794Y-51274980D03*
X-10400000Y-4000000D03*
X-8800000Y-5400000D03*
X-2500000Y-5500000D03*
X8300000Y-8400000D03*
X11800000Y-7300000D03*
X11900000Y-5200000D03*
X11600000Y-10400000D03*
X12000000Y-14700000D03*
X11800000Y-19300000D03*
X-500000Y-21000000D03*
X-8200000Y-22700000D03*
X-18400000Y-24000000D03*
X-17400000Y-19200000D03*
X-17200000Y-9500000D03*
X-17500000Y-3100000D03*
X-17900000Y-45500000D03*
X-17800000Y-50000000D03*
X-12400000Y-53200000D03*
X1800000Y-55900000D03*
X7600000Y-56000000D03*
X12400000Y-54700000D03*
X18700000Y-52000000D03*
X16600000Y-33600000D03*
X17100000Y-25500000D03*
X12800000Y-23300000D03*
X17400000Y-21600000D03*
X17000000Y-12700000D03*
X15700000Y-7000000D03*
X16200000Y-1200000D03*
X16200000Y3100000D03*
X19100000Y-1200000D03*
X-17500000Y1300000D03*
X-15300000Y3100000D03*
X-11400000Y-100000D03*
X-8400000Y-43700000D03*
X-8300000Y-40700000D03*
X2500000Y-41700000D03*
X2400000Y-44300000D03*
X400000Y-40600000D03*
X-4800000Y-23500000D03*
X-4800000Y-20200000D03*
X-2500000Y-22000000D03*
X-15300000Y-5500000D03*
X-4700000Y-7200000D03*
X-10500000Y-36100000D03*
X-6500000Y-33500000D03*
X-2200000Y-29900000D03*
X-15300000Y-45300000D03*
X-11100000Y3900000D03*
X-3800000Y4100000D03*
X4300000Y4000000D03*
X11000000Y4100000D03*
X-7700000Y-10700000D03*
X-14300000Y-16300000D03*
X14300000Y-33900000D03*
X15800000Y-32500000D03*
X3400000Y-32800000D03*
X-6200000Y-40500000D03*
X13900000Y-50200000D03*
X11700000Y-50600000D03*
X8400000Y-51200000D03*
X18900000Y-49200000D03*
X6900000Y-19000000D03*
X7900000Y-14800000D03*
X-9900000Y-46700000D03*
X-1000000Y-17800000D03*
X-700000Y-9800000D03*
X4000000Y-9800000D03*
X2500000Y-13500000D03*
X14600000Y-47000000D03*
X8000000Y-46150000D03*
X-2900000Y-43650000D03*
X17500000Y-48000000D03*
X3300000Y-3600000D03*
X16650000Y-10325000D03*
X4300000Y-3600000D03*
X18300000Y-47200000D03*
X-7575000Y-49700010D03*
X-9800000Y-49450010D03*
X4350000Y-50850000D03*
X3150000Y-50850000D03*
X-9800000Y-50400000D03*
X-6660000Y-47430000D03*
X-10575000Y-43525002D03*
X2200000Y-24400000D03*
X2300000Y-19100000D03*
D21*
X-1000000Y-10100000D02*
X-700000Y-9800000D01*
X-1000000Y-17800000D02*
X-1000000Y-10100000D01*
X4000000Y-9800000D02*
X4000000Y-12000000D01*
X2899999Y-13100001D02*
X2500000Y-13500000D01*
X4000000Y-12000000D02*
X2899999Y-13100001D01*
X8850000Y-47000000D02*
X8000000Y-46150000D01*
X14600000Y-47000000D02*
X8850000Y-47000000D01*
D22*
X17500000Y-48000000D02*
X18800000Y-46700000D01*
X15100000Y-3600000D02*
X3300000Y-3600000D01*
X18800000Y-7300000D02*
X15100000Y-3600000D01*
D21*
X17215685Y-10325000D02*
X18800000Y-10325000D01*
X16650000Y-10325000D02*
X17215685Y-10325000D01*
D22*
X18800000Y-10325000D02*
X18800000Y-7300000D01*
X18800000Y-46700000D02*
X18800000Y-10325000D01*
X-7900000Y-49450010D02*
X-9234315Y-49450010D01*
X-9234315Y-49450010D02*
X-9800000Y-49450010D01*
X-7825000Y-49450010D02*
X-7575000Y-49700010D01*
X-9800000Y-49450010D02*
X-7825000Y-49450010D01*
X-7175001Y-50100009D02*
X-6949991Y-50100009D01*
X-7575000Y-49700010D02*
X-7175001Y-50100009D01*
X-4575010Y-52474990D02*
X-324990Y-52474990D01*
X-6949991Y-50100009D02*
X-4575010Y-52474990D01*
X1300000Y-50850000D02*
X4350000Y-50850000D01*
X-324990Y-52474990D02*
X1300000Y-50850000D01*
X-9800000Y-49450010D02*
X-9800000Y-50400000D01*
D21*
X-6660000Y-47430000D02*
X-10564998Y-43525002D01*
X-10564998Y-43525002D02*
X-10575000Y-43525002D01*
X2200000Y-19200000D02*
X2300000Y-19100000D01*
X2200000Y-24400000D02*
X2200000Y-19200000D01*
D23*
G36*
X17509514Y4573243D02*
G01*
X17999622Y4425271D01*
X18451659Y4184920D01*
X18848399Y3861346D01*
X19174733Y3466877D01*
X19418233Y3016532D01*
X19569623Y2527470D01*
X19624995Y2000640D01*
X19625000Y1999267D01*
X19625000Y-6934249D01*
X19551943Y-6797568D01*
X19439475Y-6660525D01*
X19405140Y-6632347D01*
X15767657Y-2994865D01*
X15739475Y-2960525D01*
X15602432Y-2848057D01*
X15446081Y-2764486D01*
X15276431Y-2713023D01*
X15144207Y-2700000D01*
X15144206Y-2700000D01*
X15100000Y-2695646D01*
X15055794Y-2700000D01*
X3255793Y-2700000D01*
X3123569Y-2713023D01*
X2953919Y-2764486D01*
X2797568Y-2848057D01*
X2660525Y-2960525D01*
X2548057Y-3097568D01*
X2464486Y-3253919D01*
X2413023Y-3423569D01*
X2395646Y-3600000D01*
X2413023Y-3776431D01*
X2464486Y-3946081D01*
X2548057Y-4102432D01*
X2660525Y-4239475D01*
X2797568Y-4351943D01*
X2953919Y-4435514D01*
X3123569Y-4486977D01*
X3255793Y-4500000D01*
X14727208Y-4500000D01*
X17900001Y-7672794D01*
X17900000Y-9900000D01*
X17207907Y-9900000D01*
X17193726Y-9878776D01*
X17096224Y-9781274D01*
X16981574Y-9704668D01*
X16854182Y-9651901D01*
X16718944Y-9625000D01*
X16581056Y-9625000D01*
X16445818Y-9651901D01*
X16318426Y-9704668D01*
X16203776Y-9781274D01*
X16106274Y-9878776D01*
X16029668Y-9993426D01*
X15976901Y-10120818D01*
X15950000Y-10256056D01*
X15950000Y-10393944D01*
X15976901Y-10529182D01*
X16029668Y-10656574D01*
X16106274Y-10771224D01*
X16203776Y-10868726D01*
X16318426Y-10945332D01*
X16445818Y-10998099D01*
X16581056Y-11025000D01*
X16718944Y-11025000D01*
X16854182Y-10998099D01*
X16981574Y-10945332D01*
X17096224Y-10868726D01*
X17193726Y-10771224D01*
X17207907Y-10750000D01*
X17900001Y-10750000D01*
X17900000Y-46327208D01*
X16832345Y-47394863D01*
X16748057Y-47497569D01*
X16664487Y-47653919D01*
X16613023Y-47823570D01*
X16595646Y-48000000D01*
X16613023Y-48176430D01*
X16664487Y-48346081D01*
X16748057Y-48502431D01*
X16860526Y-48639474D01*
X16997569Y-48751943D01*
X17153919Y-48835513D01*
X17323570Y-48886977D01*
X17500000Y-48904354D01*
X17676430Y-48886977D01*
X17846081Y-48835513D01*
X18002431Y-48751943D01*
X18105137Y-48667655D01*
X19405136Y-47367656D01*
X19439475Y-47339475D01*
X19551943Y-47202432D01*
X19623294Y-47068944D01*
X19625001Y-47065751D01*
X19625001Y-55438736D01*
X19369090Y-55055738D01*
X18944262Y-54630910D01*
X18444717Y-54297125D01*
X17889652Y-54067209D01*
X17300399Y-53950000D01*
X16699601Y-53950000D01*
X16110348Y-54067209D01*
X15555283Y-54297125D01*
X15055738Y-54630910D01*
X14630910Y-55055738D01*
X14297125Y-55555283D01*
X14067209Y-56110348D01*
X13950000Y-56699601D01*
X13950000Y-57300399D01*
X14067209Y-57889652D01*
X14297125Y-58444717D01*
X14630910Y-58944262D01*
X15055738Y-59369090D01*
X15438735Y-59625000D01*
X-2125000Y-59625000D01*
X-2125000Y-58318419D01*
X-2123186Y-58300000D01*
X-2130426Y-58226487D01*
X-2151869Y-58155800D01*
X-2186691Y-58090653D01*
X-2233552Y-58033552D01*
X-2290653Y-57986691D01*
X-2355800Y-57951869D01*
X-2426487Y-57930426D01*
X-2481581Y-57925000D01*
X-2500000Y-57923186D01*
X-2518419Y-57925000D01*
X-3022717Y-57925000D01*
X-2874466Y-57801502D01*
X-2731622Y-57624817D01*
X-2625992Y-57423660D01*
X-2561636Y-57205760D01*
X-2641586Y-57025000D01*
X-3475000Y-57025000D01*
X-3475000Y-57045000D01*
X-3925000Y-57045000D01*
X-3925000Y-57025000D01*
X-4758414Y-57025000D01*
X-4838364Y-57205760D01*
X-4774008Y-57423660D01*
X-4668378Y-57624817D01*
X-4525534Y-57801502D01*
X-4377283Y-57925000D01*
X-10222717Y-57925000D01*
X-10074466Y-57801502D01*
X-9931622Y-57624817D01*
X-9825992Y-57423660D01*
X-9761636Y-57205760D01*
X-9841586Y-57025000D01*
X-10675000Y-57025000D01*
X-10675000Y-57045000D01*
X-11125000Y-57045000D01*
X-11125000Y-57025000D01*
X-11958414Y-57025000D01*
X-12038364Y-57205760D01*
X-11974008Y-57423660D01*
X-11868378Y-57624817D01*
X-11725534Y-57801502D01*
X-11577283Y-57925000D01*
X-11981581Y-57925000D01*
X-12000000Y-57923186D01*
X-12018419Y-57925000D01*
X-12073513Y-57930426D01*
X-12144200Y-57951869D01*
X-12209347Y-57986691D01*
X-12266448Y-58033552D01*
X-12313309Y-58090653D01*
X-12348131Y-58155800D01*
X-12369574Y-58226487D01*
X-12376814Y-58300000D01*
X-12374999Y-58318429D01*
X-12375000Y-59625000D01*
X-15438735Y-59625000D01*
X-15055738Y-59369090D01*
X-14630910Y-58944262D01*
X-14297125Y-58444717D01*
X-14067209Y-57889652D01*
X-13950000Y-57300399D01*
X-13950000Y-56699601D01*
X-14010739Y-56394240D01*
X-12038364Y-56394240D01*
X-11958414Y-56575000D01*
X-11125000Y-56575000D01*
X-11125000Y-55574108D01*
X-10675000Y-55574108D01*
X-10675000Y-56575000D01*
X-9841586Y-56575000D01*
X-9761636Y-56394240D01*
X-4838364Y-56394240D01*
X-4758414Y-56575000D01*
X-3925000Y-56575000D01*
X-3925000Y-55574108D01*
X-3475000Y-55574108D01*
X-3475000Y-56575000D01*
X-2641586Y-56575000D01*
X-2561636Y-56394240D01*
X-2625992Y-56176340D01*
X-2731622Y-55975183D01*
X-2874466Y-55798498D01*
X-3049035Y-55653076D01*
X-3248620Y-55544504D01*
X-3299434Y-55521225D01*
X-3475000Y-55574108D01*
X-3925000Y-55574108D01*
X-4100566Y-55521225D01*
X-4151380Y-55544504D01*
X-4350965Y-55653076D01*
X-4525534Y-55798498D01*
X-4668378Y-55975183D01*
X-4774008Y-56176340D01*
X-4838364Y-56394240D01*
X-9761636Y-56394240D01*
X-9825992Y-56176340D01*
X-9931622Y-55975183D01*
X-10074466Y-55798498D01*
X-10249035Y-55653076D01*
X-10448620Y-55544504D01*
X-10499434Y-55521225D01*
X-10675000Y-55574108D01*
X-11125000Y-55574108D01*
X-11300566Y-55521225D01*
X-11351380Y-55544504D01*
X-11550965Y-55653076D01*
X-11725534Y-55798498D01*
X-11868378Y-55975183D01*
X-11974008Y-56176340D01*
X-12038364Y-56394240D01*
X-14010739Y-56394240D01*
X-14067209Y-56110348D01*
X-14297125Y-55555283D01*
X-14630910Y-55055738D01*
X-15055738Y-54630910D01*
X-15555283Y-54297125D01*
X-15630990Y-54265766D01*
X-10603924Y-54265766D01*
X-10535187Y-54432129D01*
X-10435315Y-54581885D01*
X-10308146Y-54709280D01*
X-10158567Y-54809418D01*
X-10087586Y-54850974D01*
X-9950000Y-54793725D01*
X-9950000Y-54125000D01*
X-9500000Y-54125000D01*
X-9500000Y-54793725D01*
X-9362414Y-54850974D01*
X-9291433Y-54809418D01*
X-9141854Y-54709280D01*
X-9014685Y-54581885D01*
X-8914813Y-54432129D01*
X-8846076Y-54265766D01*
X-5753924Y-54265766D01*
X-5685187Y-54432129D01*
X-5585315Y-54581885D01*
X-5458146Y-54709280D01*
X-5308567Y-54809418D01*
X-5237586Y-54850974D01*
X-5100000Y-54793725D01*
X-5100000Y-54125000D01*
X-4650000Y-54125000D01*
X-4650000Y-54793725D01*
X-4512414Y-54850974D01*
X-4441433Y-54809418D01*
X-4291854Y-54709280D01*
X-4164685Y-54581885D01*
X-4064813Y-54432129D01*
X-3996076Y-54265766D01*
X-4065322Y-54125000D01*
X-4650000Y-54125000D01*
X-5100000Y-54125000D01*
X-5684678Y-54125000D01*
X-5753924Y-54265766D01*
X-8846076Y-54265766D01*
X-8915322Y-54125000D01*
X-9500000Y-54125000D01*
X-9950000Y-54125000D01*
X-10534678Y-54125000D01*
X-10603924Y-54265766D01*
X-15630990Y-54265766D01*
X-16110348Y-54067209D01*
X-16699601Y-53950000D01*
X-17300399Y-53950000D01*
X-17889652Y-54067209D01*
X-18444717Y-54297125D01*
X-18944262Y-54630910D01*
X-19369090Y-55055738D01*
X-19625000Y-55438735D01*
X-19625000Y-53534234D01*
X-10603924Y-53534234D01*
X-10534678Y-53675000D01*
X-9950000Y-53675000D01*
X-9950000Y-53006275D01*
X-9500000Y-53006275D01*
X-9500000Y-53675000D01*
X-8915322Y-53675000D01*
X-8846076Y-53534234D01*
X-8914813Y-53367871D01*
X-9014685Y-53218115D01*
X-9141854Y-53090720D01*
X-9291433Y-52990582D01*
X-9362414Y-52949026D01*
X-9500000Y-53006275D01*
X-9950000Y-53006275D01*
X-10087586Y-52949026D01*
X-10158567Y-52990582D01*
X-10308146Y-53090720D01*
X-10435315Y-53218115D01*
X-10535187Y-53367871D01*
X-10603924Y-53534234D01*
X-19625000Y-53534234D01*
X-19625000Y-49450010D01*
X-10704354Y-49450010D01*
X-10700000Y-49494218D01*
X-10699999Y-50444207D01*
X-10686976Y-50576431D01*
X-10635513Y-50746081D01*
X-10551942Y-50902432D01*
X-10439474Y-51039475D01*
X-10302431Y-51151943D01*
X-10146080Y-51235514D01*
X-9976430Y-51286977D01*
X-9800000Y-51304354D01*
X-9623569Y-51286977D01*
X-9453919Y-51235514D01*
X-9297568Y-51151943D01*
X-9160525Y-51039475D01*
X-9048057Y-50902432D01*
X-8964486Y-50746081D01*
X-8913023Y-50576431D01*
X-8900000Y-50444207D01*
X-8900000Y-50350010D01*
X-8197792Y-50350010D01*
X-7842658Y-50705144D01*
X-7814476Y-50739484D01*
X-7677433Y-50851952D01*
X-7521082Y-50935523D01*
X-7351432Y-50986986D01*
X-7334099Y-50988693D01*
X-5322729Y-53000063D01*
X-5458146Y-53090720D01*
X-5585315Y-53218115D01*
X-5685187Y-53367871D01*
X-5753924Y-53534234D01*
X-5684678Y-53675000D01*
X-5100000Y-53675000D01*
X-5100000Y-53655000D01*
X-4650000Y-53655000D01*
X-4650000Y-53675000D01*
X-4065322Y-53675000D01*
X-3996076Y-53534234D01*
X-4061872Y-53374990D01*
X-369196Y-53374990D01*
X-324990Y-53379344D01*
X-280784Y-53374990D01*
X-280783Y-53374990D01*
X-148559Y-53361967D01*
X21091Y-53310504D01*
X177442Y-53226933D01*
X314485Y-53114465D01*
X342667Y-53080125D01*
X1672792Y-51750000D01*
X4394207Y-51750000D01*
X4526431Y-51736977D01*
X4696081Y-51685514D01*
X4852432Y-51601943D01*
X4989475Y-51489475D01*
X5101943Y-51352432D01*
X5185514Y-51196081D01*
X5236977Y-51026431D01*
X5254354Y-50850000D01*
X5236977Y-50673569D01*
X5185514Y-50503919D01*
X5101943Y-50347568D01*
X4989475Y-50210525D01*
X4852432Y-50098057D01*
X4696081Y-50014486D01*
X4526431Y-49963023D01*
X4394207Y-49950000D01*
X1344206Y-49950000D01*
X1300000Y-49945646D01*
X1255793Y-49950000D01*
X1123569Y-49963023D01*
X953919Y-50014486D01*
X797568Y-50098057D01*
X660525Y-50210525D01*
X632343Y-50244865D01*
X-697782Y-51574990D01*
X-4202218Y-51574990D01*
X-6282336Y-49494872D01*
X-6310516Y-49460534D01*
X-6447559Y-49348066D01*
X-6603910Y-49264495D01*
X-6773560Y-49213032D01*
X-6790893Y-49211325D01*
X-7157342Y-48844876D01*
X-7185525Y-48810535D01*
X-7322568Y-48698067D01*
X-7478919Y-48614496D01*
X-7648569Y-48563033D01*
X-7780793Y-48550010D01*
X-7780794Y-48550010D01*
X-7825000Y-48545656D01*
X-7869206Y-48550010D01*
X-9755794Y-48550010D01*
X-9800000Y-48545656D01*
X-9844207Y-48550010D01*
X-9976431Y-48563033D01*
X-10146081Y-48614496D01*
X-10302432Y-48698067D01*
X-10439475Y-48810535D01*
X-10551943Y-48947578D01*
X-10635514Y-49103929D01*
X-10686977Y-49273579D01*
X-10704354Y-49450010D01*
X-19625000Y-49450010D01*
X-19625000Y-43456058D01*
X-11275000Y-43456058D01*
X-11275000Y-43593946D01*
X-11248099Y-43729184D01*
X-11195332Y-43856576D01*
X-11118726Y-43971226D01*
X-11021224Y-44068728D01*
X-10906574Y-44145334D01*
X-10779182Y-44198101D01*
X-10643944Y-44225002D01*
X-10506056Y-44225002D01*
X-10472678Y-44218363D01*
X-7355020Y-47336021D01*
X-7360000Y-47361056D01*
X-7360000Y-47498944D01*
X-7333099Y-47634182D01*
X-7280332Y-47761574D01*
X-7203726Y-47876224D01*
X-7106224Y-47973726D01*
X-6991574Y-48050332D01*
X-6864182Y-48103099D01*
X-6728944Y-48130000D01*
X-6591056Y-48130000D01*
X-6455818Y-48103099D01*
X-6328426Y-48050332D01*
X-6213776Y-47973726D01*
X-6116274Y-47876224D01*
X-6039668Y-47761574D01*
X-5986901Y-47634182D01*
X-5960000Y-47498944D01*
X-5960000Y-47361056D01*
X-5986901Y-47225818D01*
X-6039668Y-47098426D01*
X-6116274Y-46983776D01*
X-6213776Y-46886274D01*
X-6328426Y-46809668D01*
X-6455818Y-46756901D01*
X-6591056Y-46730000D01*
X-6728944Y-46730000D01*
X-6753979Y-46734980D01*
X-7407903Y-46081056D01*
X7300000Y-46081056D01*
X7300000Y-46218944D01*
X7326901Y-46354182D01*
X7379668Y-46481574D01*
X7456274Y-46596224D01*
X7553776Y-46693726D01*
X7668426Y-46770332D01*
X7795818Y-46823099D01*
X7931056Y-46850000D01*
X8068944Y-46850000D01*
X8093980Y-46845020D01*
X8534716Y-47285756D01*
X8548026Y-47301974D01*
X8612740Y-47355084D01*
X8686573Y-47394548D01*
X8766686Y-47418850D01*
X8850000Y-47427056D01*
X8870874Y-47425000D01*
X14042093Y-47425000D01*
X14056274Y-47446224D01*
X14153776Y-47543726D01*
X14268426Y-47620332D01*
X14395818Y-47673099D01*
X14531056Y-47700000D01*
X14668944Y-47700000D01*
X14804182Y-47673099D01*
X14931574Y-47620332D01*
X15046224Y-47543726D01*
X15143726Y-47446224D01*
X15220332Y-47331574D01*
X15273099Y-47204182D01*
X15300000Y-47068944D01*
X15300000Y-46931056D01*
X15273099Y-46795818D01*
X15220332Y-46668426D01*
X15143726Y-46553776D01*
X15046224Y-46456274D01*
X14931574Y-46379668D01*
X14804182Y-46326901D01*
X14668944Y-46300000D01*
X14531056Y-46300000D01*
X14395818Y-46326901D01*
X14268426Y-46379668D01*
X14153776Y-46456274D01*
X14056274Y-46553776D01*
X14042093Y-46575000D01*
X9026040Y-46575000D01*
X8695020Y-46243980D01*
X8700000Y-46218944D01*
X8700000Y-46081056D01*
X8673099Y-45945818D01*
X8620332Y-45818426D01*
X8543726Y-45703776D01*
X8446224Y-45606274D01*
X8331574Y-45529668D01*
X8204182Y-45476901D01*
X8068944Y-45450000D01*
X7931056Y-45450000D01*
X7795818Y-45476901D01*
X7668426Y-45529668D01*
X7553776Y-45606274D01*
X7456274Y-45703776D01*
X7379668Y-45818426D01*
X7326901Y-45945818D01*
X7300000Y-46081056D01*
X-7407903Y-46081056D01*
X-9878321Y-43610639D01*
X-9875000Y-43593946D01*
X-9875000Y-43456058D01*
X-9901901Y-43320820D01*
X-9954668Y-43193428D01*
X-9956958Y-43190000D01*
X-3691451Y-43190000D01*
X-3691451Y-44190000D01*
X-3685659Y-44248810D01*
X-3668504Y-44305360D01*
X-3640647Y-44357477D01*
X-3603158Y-44403158D01*
X-3557477Y-44440647D01*
X-3505360Y-44468504D01*
X-3448810Y-44485659D01*
X-3390000Y-44491451D01*
X-2490000Y-44491451D01*
X-2490000Y-44590000D01*
X-2488079Y-44609509D01*
X-2482388Y-44628268D01*
X-2473147Y-44645557D01*
X-2460711Y-44660711D01*
X-2445557Y-44673147D01*
X-2428268Y-44682388D01*
X-2409509Y-44688079D01*
X-2390000Y-44690000D01*
X-490000Y-44690000D01*
X-470491Y-44688079D01*
X-451732Y-44682388D01*
X-434443Y-44673147D01*
X-419289Y-44660711D01*
X-406853Y-44645557D01*
X-397612Y-44628268D01*
X-391921Y-44609509D01*
X-390000Y-44590000D01*
X-390000Y-44224665D01*
X5393533Y-44224665D01*
X5485722Y-44390637D01*
X5708376Y-44470011D01*
X5942238Y-44504423D01*
X6178320Y-44492550D01*
X6407548Y-44434847D01*
X6514278Y-44390637D01*
X6606467Y-44224665D01*
X6000000Y-43618198D01*
X5393533Y-44224665D01*
X-390000Y-44224665D01*
X-390000Y-43242238D01*
X4795577Y-43242238D01*
X4807450Y-43478320D01*
X4865153Y-43707548D01*
X4909363Y-43814278D01*
X5075335Y-43906467D01*
X5681802Y-43300000D01*
X6318198Y-43300000D01*
X6924665Y-43906467D01*
X7090637Y-43814278D01*
X7170011Y-43591624D01*
X7204423Y-43357762D01*
X7192550Y-43121680D01*
X7134847Y-42892452D01*
X7090637Y-42785722D01*
X6924665Y-42693533D01*
X6318198Y-43300000D01*
X5681802Y-43300000D01*
X5075335Y-42693533D01*
X4909363Y-42785722D01*
X4829989Y-43008376D01*
X4795577Y-43242238D01*
X-390000Y-43242238D01*
X-390000Y-42790000D01*
X-391921Y-42770491D01*
X-397612Y-42751732D01*
X-406853Y-42734443D01*
X-419289Y-42719289D01*
X-434443Y-42706853D01*
X-451732Y-42697612D01*
X-470491Y-42691921D01*
X-490000Y-42690000D01*
X-2390000Y-42690000D01*
X-2409509Y-42691921D01*
X-2428268Y-42697612D01*
X-2445557Y-42706853D01*
X-2460711Y-42719289D01*
X-2473147Y-42734443D01*
X-2482388Y-42751732D01*
X-2488079Y-42770491D01*
X-2490000Y-42790000D01*
X-2490000Y-42888549D01*
X-3390000Y-42888549D01*
X-3448810Y-42894341D01*
X-3505360Y-42911496D01*
X-3557477Y-42939353D01*
X-3603158Y-42976842D01*
X-3640647Y-43022523D01*
X-3668504Y-43074640D01*
X-3685659Y-43131190D01*
X-3691451Y-43190000D01*
X-9956958Y-43190000D01*
X-10031274Y-43078778D01*
X-10128776Y-42981276D01*
X-10243426Y-42904670D01*
X-10370818Y-42851903D01*
X-10506056Y-42825002D01*
X-10643944Y-42825002D01*
X-10779182Y-42851903D01*
X-10906574Y-42904670D01*
X-11021224Y-42981276D01*
X-11118726Y-43078778D01*
X-11195332Y-43193428D01*
X-11248099Y-43320820D01*
X-11275000Y-43456058D01*
X-19625000Y-43456058D01*
X-19625000Y-42375335D01*
X5393533Y-42375335D01*
X6000000Y-42981802D01*
X6606467Y-42375335D01*
X6514278Y-42209363D01*
X6291624Y-42129989D01*
X6057762Y-42095577D01*
X5821680Y-42107450D01*
X5592452Y-42165153D01*
X5485722Y-42209363D01*
X5393533Y-42375335D01*
X-19625000Y-42375335D01*
X-19625000Y-40000000D01*
X4898549Y-40000000D01*
X4898549Y-41600000D01*
X4904341Y-41658810D01*
X4921496Y-41715360D01*
X4949353Y-41767477D01*
X4986842Y-41813158D01*
X5032523Y-41850647D01*
X5084640Y-41878504D01*
X5141190Y-41895659D01*
X5200000Y-41901451D01*
X6800000Y-41901451D01*
X6858810Y-41895659D01*
X6915360Y-41878504D01*
X6967477Y-41850647D01*
X7013158Y-41813158D01*
X7050647Y-41767477D01*
X7078504Y-41715360D01*
X7095659Y-41658810D01*
X7101451Y-41600000D01*
X7101451Y-40000000D01*
X7095659Y-39941190D01*
X7078504Y-39884640D01*
X7050647Y-39832523D01*
X7013158Y-39786842D01*
X6967477Y-39749353D01*
X6915360Y-39721496D01*
X6858810Y-39704341D01*
X6800000Y-39698549D01*
X5200000Y-39698549D01*
X5141190Y-39704341D01*
X5084640Y-39721496D01*
X5032523Y-39749353D01*
X4986842Y-39786842D01*
X4949353Y-39832523D01*
X4921496Y-39884640D01*
X4904341Y-39941190D01*
X4898549Y-40000000D01*
X-19625000Y-40000000D01*
X-19625000Y-33024665D01*
X5893533Y-33024665D01*
X5985722Y-33190637D01*
X6208376Y-33270011D01*
X6442238Y-33304423D01*
X6678320Y-33292550D01*
X6907548Y-33234847D01*
X7014278Y-33190637D01*
X7106467Y-33024665D01*
X6500000Y-32418198D01*
X5893533Y-33024665D01*
X-19625000Y-33024665D01*
X-19625000Y-32042238D01*
X5295577Y-32042238D01*
X5307450Y-32278320D01*
X5365153Y-32507548D01*
X5409363Y-32614278D01*
X5575335Y-32706467D01*
X6181802Y-32100000D01*
X6818198Y-32100000D01*
X7424665Y-32706467D01*
X7590637Y-32614278D01*
X7670011Y-32391624D01*
X7704423Y-32157762D01*
X7692550Y-31921680D01*
X7634847Y-31692452D01*
X7590637Y-31585722D01*
X7424665Y-31493533D01*
X6818198Y-32100000D01*
X6181802Y-32100000D01*
X5575335Y-31493533D01*
X5409363Y-31585722D01*
X5329989Y-31808376D01*
X5295577Y-32042238D01*
X-19625000Y-32042238D01*
X-19625000Y-31175335D01*
X5893533Y-31175335D01*
X6500000Y-31781802D01*
X6981802Y-31300000D01*
X7898549Y-31300000D01*
X7898549Y-32900000D01*
X7904341Y-32958810D01*
X7921496Y-33015360D01*
X7949353Y-33067477D01*
X7986842Y-33113158D01*
X8032523Y-33150647D01*
X8084640Y-33178504D01*
X8141190Y-33195659D01*
X8200000Y-33201451D01*
X9800000Y-33201451D01*
X9858810Y-33195659D01*
X9915360Y-33178504D01*
X9967477Y-33150647D01*
X10013158Y-33113158D01*
X10050647Y-33067477D01*
X10078504Y-33015360D01*
X10095659Y-32958810D01*
X10101451Y-32900000D01*
X10101451Y-31300000D01*
X10095659Y-31241190D01*
X10078504Y-31184640D01*
X10050647Y-31132523D01*
X10013158Y-31086842D01*
X9967477Y-31049353D01*
X9915360Y-31021496D01*
X9858810Y-31004341D01*
X9800000Y-30998549D01*
X8200000Y-30998549D01*
X8141190Y-31004341D01*
X8084640Y-31021496D01*
X8032523Y-31049353D01*
X7986842Y-31086842D01*
X7949353Y-31132523D01*
X7921496Y-31184640D01*
X7904341Y-31241190D01*
X7898549Y-31300000D01*
X6981802Y-31300000D01*
X7106467Y-31175335D01*
X7014278Y-31009363D01*
X6791624Y-30929989D01*
X6557762Y-30895577D01*
X6321680Y-30907450D01*
X6092452Y-30965153D01*
X5985722Y-31009363D01*
X5893533Y-31175335D01*
X-19625000Y-31175335D01*
X-19625000Y-28000000D01*
X11798549Y-28000000D01*
X11798549Y-29600000D01*
X11804341Y-29658810D01*
X11821496Y-29715360D01*
X11849353Y-29767477D01*
X11886842Y-29813158D01*
X11932523Y-29850647D01*
X11984640Y-29878504D01*
X12041190Y-29895659D01*
X12100000Y-29901451D01*
X13700000Y-29901451D01*
X13758810Y-29895659D01*
X13815360Y-29878504D01*
X13867477Y-29850647D01*
X13913158Y-29813158D01*
X13950647Y-29767477D01*
X13973530Y-29724665D01*
X14793533Y-29724665D01*
X14885722Y-29890637D01*
X15108376Y-29970011D01*
X15342238Y-30004423D01*
X15578320Y-29992550D01*
X15807548Y-29934847D01*
X15914278Y-29890637D01*
X16006467Y-29724665D01*
X15400000Y-29118198D01*
X14793533Y-29724665D01*
X13973530Y-29724665D01*
X13978504Y-29715360D01*
X13995659Y-29658810D01*
X14001451Y-29600000D01*
X14001451Y-28742238D01*
X14195577Y-28742238D01*
X14207450Y-28978320D01*
X14265153Y-29207548D01*
X14309363Y-29314278D01*
X14475335Y-29406467D01*
X15081802Y-28800000D01*
X15718198Y-28800000D01*
X16324665Y-29406467D01*
X16490637Y-29314278D01*
X16570011Y-29091624D01*
X16604423Y-28857762D01*
X16592550Y-28621680D01*
X16534847Y-28392452D01*
X16490637Y-28285722D01*
X16324665Y-28193533D01*
X15718198Y-28800000D01*
X15081802Y-28800000D01*
X14475335Y-28193533D01*
X14309363Y-28285722D01*
X14229989Y-28508376D01*
X14195577Y-28742238D01*
X14001451Y-28742238D01*
X14001451Y-28000000D01*
X13995659Y-27941190D01*
X13978504Y-27884640D01*
X13973531Y-27875335D01*
X14793533Y-27875335D01*
X15400000Y-28481802D01*
X16006467Y-27875335D01*
X15914278Y-27709363D01*
X15691624Y-27629989D01*
X15457762Y-27595577D01*
X15221680Y-27607450D01*
X14992452Y-27665153D01*
X14885722Y-27709363D01*
X14793533Y-27875335D01*
X13973531Y-27875335D01*
X13950647Y-27832523D01*
X13913158Y-27786842D01*
X13867477Y-27749353D01*
X13815360Y-27721496D01*
X13758810Y-27704341D01*
X13700000Y-27698549D01*
X12100000Y-27698549D01*
X12041190Y-27704341D01*
X11984640Y-27721496D01*
X11932523Y-27749353D01*
X11886842Y-27786842D01*
X11849353Y-27832523D01*
X11821496Y-27884640D01*
X11804341Y-27941190D01*
X11798549Y-28000000D01*
X-19625000Y-28000000D01*
X-19625000Y-26024665D01*
X5893533Y-26024665D01*
X5985722Y-26190637D01*
X6208376Y-26270011D01*
X6442238Y-26304423D01*
X6678320Y-26292550D01*
X6907548Y-26234847D01*
X7014278Y-26190637D01*
X7106467Y-26024665D01*
X6500000Y-25418198D01*
X5893533Y-26024665D01*
X-19625000Y-26024665D01*
X-19625000Y-24331056D01*
X1500000Y-24331056D01*
X1500000Y-24468944D01*
X1526901Y-24604182D01*
X1579668Y-24731574D01*
X1656274Y-24846224D01*
X1753776Y-24943726D01*
X1868426Y-25020332D01*
X1995818Y-25073099D01*
X2131056Y-25100000D01*
X2268944Y-25100000D01*
X2404182Y-25073099D01*
X2478687Y-25042238D01*
X5295577Y-25042238D01*
X5307450Y-25278320D01*
X5365153Y-25507548D01*
X5409363Y-25614278D01*
X5575335Y-25706467D01*
X6181802Y-25100000D01*
X6818198Y-25100000D01*
X7424665Y-25706467D01*
X7590637Y-25614278D01*
X7670011Y-25391624D01*
X7704423Y-25157762D01*
X7692550Y-24921680D01*
X7634847Y-24692452D01*
X7590637Y-24585722D01*
X7424665Y-24493533D01*
X6818198Y-25100000D01*
X6181802Y-25100000D01*
X5575335Y-24493533D01*
X5409363Y-24585722D01*
X5329989Y-24808376D01*
X5295577Y-25042238D01*
X2478687Y-25042238D01*
X2531574Y-25020332D01*
X2646224Y-24943726D01*
X2743726Y-24846224D01*
X2820332Y-24731574D01*
X2873099Y-24604182D01*
X2900000Y-24468944D01*
X2900000Y-24331056D01*
X2873099Y-24195818D01*
X2864615Y-24175335D01*
X5893533Y-24175335D01*
X6500000Y-24781802D01*
X6981802Y-24300000D01*
X7898549Y-24300000D01*
X7898549Y-25900000D01*
X7904341Y-25958810D01*
X7921496Y-26015360D01*
X7949353Y-26067477D01*
X7986842Y-26113158D01*
X8032523Y-26150647D01*
X8084640Y-26178504D01*
X8141190Y-26195659D01*
X8200000Y-26201451D01*
X9800000Y-26201451D01*
X9858810Y-26195659D01*
X9915360Y-26178504D01*
X9967477Y-26150647D01*
X10013158Y-26113158D01*
X10050647Y-26067477D01*
X10078504Y-26015360D01*
X10095659Y-25958810D01*
X10101451Y-25900000D01*
X10101451Y-24300000D01*
X10095659Y-24241190D01*
X10078504Y-24184640D01*
X10050647Y-24132523D01*
X10013158Y-24086842D01*
X9967477Y-24049353D01*
X9915360Y-24021496D01*
X9858810Y-24004341D01*
X9800000Y-23998549D01*
X8200000Y-23998549D01*
X8141190Y-24004341D01*
X8084640Y-24021496D01*
X8032523Y-24049353D01*
X7986842Y-24086842D01*
X7949353Y-24132523D01*
X7921496Y-24184640D01*
X7904341Y-24241190D01*
X7898549Y-24300000D01*
X6981802Y-24300000D01*
X7106467Y-24175335D01*
X7014278Y-24009363D01*
X6791624Y-23929989D01*
X6557762Y-23895577D01*
X6321680Y-23907450D01*
X6092452Y-23965153D01*
X5985722Y-24009363D01*
X5893533Y-24175335D01*
X2864615Y-24175335D01*
X2820332Y-24068426D01*
X2743726Y-23953776D01*
X2646224Y-23856274D01*
X2625000Y-23842093D01*
X2625000Y-19723055D01*
X2631574Y-19720332D01*
X2746224Y-19643726D01*
X2843726Y-19546224D01*
X2920332Y-19431574D01*
X2973099Y-19304182D01*
X3000000Y-19168944D01*
X3000000Y-19031056D01*
X2973099Y-18895818D01*
X2920332Y-18768426D01*
X2843726Y-18653776D01*
X2746224Y-18556274D01*
X2631574Y-18479668D01*
X2504182Y-18426901D01*
X2368944Y-18400000D01*
X2231056Y-18400000D01*
X2095818Y-18426901D01*
X1968426Y-18479668D01*
X1853776Y-18556274D01*
X1756274Y-18653776D01*
X1679668Y-18768426D01*
X1626901Y-18895818D01*
X1600000Y-19031056D01*
X1600000Y-19168944D01*
X1626901Y-19304182D01*
X1679668Y-19431574D01*
X1756274Y-19546224D01*
X1775001Y-19564951D01*
X1775000Y-23842093D01*
X1753776Y-23856274D01*
X1656274Y-23953776D01*
X1579668Y-24068426D01*
X1526901Y-24195818D01*
X1500000Y-24331056D01*
X-19625000Y-24331056D01*
X-19625000Y-17731056D01*
X-1700000Y-17731056D01*
X-1700000Y-17868944D01*
X-1673099Y-18004182D01*
X-1620332Y-18131574D01*
X-1543726Y-18246224D01*
X-1446224Y-18343726D01*
X-1331574Y-18420332D01*
X-1204182Y-18473099D01*
X-1068944Y-18500000D01*
X-931056Y-18500000D01*
X-795818Y-18473099D01*
X-668426Y-18420332D01*
X-553776Y-18343726D01*
X-456274Y-18246224D01*
X-379668Y-18131574D01*
X-326901Y-18004182D01*
X-300000Y-17868944D01*
X-300000Y-17731056D01*
X-326901Y-17595818D01*
X-379668Y-17468426D01*
X-456274Y-17353776D01*
X-553776Y-17256274D01*
X-575000Y-17242093D01*
X-575000Y-13431056D01*
X1800000Y-13431056D01*
X1800000Y-13568944D01*
X1826901Y-13704182D01*
X1879668Y-13831574D01*
X1956274Y-13946224D01*
X2053776Y-14043726D01*
X2168426Y-14120332D01*
X2295818Y-14173099D01*
X2431056Y-14200000D01*
X2568944Y-14200000D01*
X2704182Y-14173099D01*
X2831574Y-14120332D01*
X2946224Y-14043726D01*
X3043726Y-13946224D01*
X3120332Y-13831574D01*
X3173099Y-13704182D01*
X3200000Y-13568944D01*
X3200000Y-13431056D01*
X3195020Y-13406021D01*
X3215279Y-13385762D01*
X3215283Y-13385757D01*
X4285762Y-12315279D01*
X4301974Y-12301974D01*
X4355084Y-12237260D01*
X4394548Y-12163427D01*
X4418850Y-12083314D01*
X4425000Y-12020874D01*
X4425000Y-12020868D01*
X4427055Y-12000001D01*
X4425000Y-11979134D01*
X4425000Y-10357907D01*
X4446224Y-10343726D01*
X4543726Y-10246224D01*
X4620332Y-10131574D01*
X4673099Y-10004182D01*
X4700000Y-9868944D01*
X4700000Y-9731056D01*
X4673099Y-9595818D01*
X4620332Y-9468426D01*
X4543726Y-9353776D01*
X4446224Y-9256274D01*
X4331574Y-9179668D01*
X4204182Y-9126901D01*
X4068944Y-9100000D01*
X3931056Y-9100000D01*
X3795818Y-9126901D01*
X3668426Y-9179668D01*
X3553776Y-9256274D01*
X3456274Y-9353776D01*
X3379668Y-9468426D01*
X3326901Y-9595818D01*
X3300000Y-9731056D01*
X3300000Y-9868944D01*
X3326901Y-10004182D01*
X3379668Y-10131574D01*
X3456274Y-10246224D01*
X3553776Y-10343726D01*
X3575000Y-10357907D01*
X3575001Y-11823958D01*
X2614243Y-12784717D01*
X2614238Y-12784721D01*
X2593979Y-12804980D01*
X2568944Y-12800000D01*
X2431056Y-12800000D01*
X2295818Y-12826901D01*
X2168426Y-12879668D01*
X2053776Y-12956274D01*
X1956274Y-13053776D01*
X1879668Y-13168426D01*
X1826901Y-13295818D01*
X1800000Y-13431056D01*
X-575000Y-13431056D01*
X-575000Y-10488850D01*
X-495818Y-10473099D01*
X-368426Y-10420332D01*
X-253776Y-10343726D01*
X-156274Y-10246224D01*
X-79668Y-10131574D01*
X-26901Y-10004182D01*
X0Y-9868944D01*
X0Y-9731056D01*
X-26901Y-9595818D01*
X-79668Y-9468426D01*
X-156274Y-9353776D01*
X-253776Y-9256274D01*
X-368426Y-9179668D01*
X-495818Y-9126901D01*
X-631056Y-9100000D01*
X-768944Y-9100000D01*
X-904182Y-9126901D01*
X-1031574Y-9179668D01*
X-1146224Y-9256274D01*
X-1243726Y-9353776D01*
X-1320332Y-9468426D01*
X-1373099Y-9595818D01*
X-1400000Y-9731056D01*
X-1400000Y-9868944D01*
X-1388717Y-9925666D01*
X-1394547Y-9936573D01*
X-1418850Y-10016686D01*
X-1427055Y-10100000D01*
X-1424999Y-10120877D01*
X-1425000Y-17242093D01*
X-1446224Y-17256274D01*
X-1543726Y-17353776D01*
X-1620332Y-17468426D01*
X-1673099Y-17595818D01*
X-1700000Y-17731056D01*
X-19625000Y-17731056D01*
X-19625000Y-420000D01*
X-10041451Y-420000D01*
X-10041451Y-2120000D01*
X-10035659Y-2178810D01*
X-10018504Y-2235360D01*
X-9990647Y-2287477D01*
X-9953158Y-2333158D01*
X-9907477Y-2370647D01*
X-9855360Y-2398504D01*
X-9798810Y-2415659D01*
X-9740000Y-2421451D01*
X-8040000Y-2421451D01*
X-7981190Y-2415659D01*
X-7924640Y-2398504D01*
X-7872523Y-2370647D01*
X-7826842Y-2333158D01*
X-7789353Y-2287477D01*
X-7761496Y-2235360D01*
X-7744341Y-2178810D01*
X-7738549Y-2120000D01*
X-7738549Y-1684581D01*
X-7529258Y-1684581D01*
X-7425718Y-1906677D01*
X-7280839Y-2104306D01*
X-7100188Y-2269873D01*
X-6890708Y-2397015D01*
X-6764579Y-2449247D01*
X-6575000Y-2397774D01*
X-6575000Y-1495000D01*
X-6125000Y-1495000D01*
X-6125000Y-2397774D01*
X-5935421Y-2449247D01*
X-5809292Y-2397015D01*
X-5599812Y-2269873D01*
X-5419161Y-2104306D01*
X-5274282Y-1906677D01*
X-5170742Y-1684581D01*
X-5220406Y-1495000D01*
X-6125000Y-1495000D01*
X-6575000Y-1495000D01*
X-7479594Y-1495000D01*
X-7529258Y-1684581D01*
X-7738549Y-1684581D01*
X-7738549Y-1270000D01*
X-4965564Y-1270000D01*
X-4943360Y-1495439D01*
X-4877602Y-1712215D01*
X-4770816Y-1911997D01*
X-4627107Y-2087107D01*
X-4451997Y-2230816D01*
X-4252215Y-2337602D01*
X-4035439Y-2403360D01*
X-3866492Y-2420000D01*
X-3753508Y-2420000D01*
X-3584561Y-2403360D01*
X-3367785Y-2337602D01*
X-3168003Y-2230816D01*
X-2992893Y-2087107D01*
X-2849184Y-1911997D01*
X-2742398Y-1712215D01*
X-2734016Y-1684581D01*
X-2449258Y-1684581D01*
X-2345718Y-1906677D01*
X-2200839Y-2104306D01*
X-2020188Y-2269873D01*
X-1810708Y-2397015D01*
X-1684579Y-2449247D01*
X-1495000Y-2397774D01*
X-1495000Y-1495000D01*
X-1045000Y-1495000D01*
X-1045000Y-2397774D01*
X-855421Y-2449247D01*
X-729292Y-2397015D01*
X-519812Y-2269873D01*
X-339161Y-2104306D01*
X-194282Y-1906677D01*
X-90742Y-1684581D01*
X-140406Y-1495000D01*
X-1045000Y-1495000D01*
X-1495000Y-1495000D01*
X-2399594Y-1495000D01*
X-2449258Y-1684581D01*
X-2734016Y-1684581D01*
X-2676640Y-1495439D01*
X-2654436Y-1270000D01*
X114436Y-1270000D01*
X136640Y-1495439D01*
X202398Y-1712215D01*
X309184Y-1911997D01*
X452893Y-2087107D01*
X628003Y-2230816D01*
X827785Y-2337602D01*
X1044561Y-2403360D01*
X1213508Y-2420000D01*
X1326492Y-2420000D01*
X1495439Y-2403360D01*
X1712215Y-2337602D01*
X1911997Y-2230816D01*
X2087107Y-2087107D01*
X2230816Y-1911997D01*
X2337602Y-1712215D01*
X2403360Y-1495439D01*
X2425564Y-1270000D01*
X2654436Y-1270000D01*
X2676640Y-1495439D01*
X2742398Y-1712215D01*
X2849184Y-1911997D01*
X2992893Y-2087107D01*
X3168003Y-2230816D01*
X3367785Y-2337602D01*
X3584561Y-2403360D01*
X3753508Y-2420000D01*
X3866492Y-2420000D01*
X4035439Y-2403360D01*
X4252215Y-2337602D01*
X4451997Y-2230816D01*
X4627107Y-2087107D01*
X4770816Y-1911997D01*
X4877602Y-1712215D01*
X4943360Y-1495439D01*
X4965564Y-1270000D01*
X5194436Y-1270000D01*
X5216640Y-1495439D01*
X5282398Y-1712215D01*
X5389184Y-1911997D01*
X5532893Y-2087107D01*
X5708003Y-2230816D01*
X5907785Y-2337602D01*
X6124561Y-2403360D01*
X6293508Y-2420000D01*
X6406492Y-2420000D01*
X6575439Y-2403360D01*
X6792215Y-2337602D01*
X6991997Y-2230816D01*
X7167107Y-2087107D01*
X7310816Y-1911997D01*
X7417602Y-1712215D01*
X7483360Y-1495439D01*
X7505564Y-1270000D01*
X7734436Y-1270000D01*
X7756640Y-1495439D01*
X7822398Y-1712215D01*
X7929184Y-1911997D01*
X8072893Y-2087107D01*
X8248003Y-2230816D01*
X8447785Y-2337602D01*
X8664561Y-2403360D01*
X8833508Y-2420000D01*
X8946492Y-2420000D01*
X9115439Y-2403360D01*
X9332215Y-2337602D01*
X9531997Y-2230816D01*
X9707107Y-2087107D01*
X9850816Y-1911997D01*
X9957602Y-1712215D01*
X10023360Y-1495439D01*
X10045564Y-1270000D01*
X10023360Y-1044561D01*
X9957602Y-827785D01*
X9850816Y-628003D01*
X9707107Y-452893D01*
X9531997Y-309184D01*
X9332215Y-202398D01*
X9115439Y-136640D01*
X8946492Y-120000D01*
X8833508Y-120000D01*
X8664561Y-136640D01*
X8447785Y-202398D01*
X8248003Y-309184D01*
X8072893Y-452893D01*
X7929184Y-628003D01*
X7822398Y-827785D01*
X7756640Y-1044561D01*
X7734436Y-1270000D01*
X7505564Y-1270000D01*
X7483360Y-1044561D01*
X7417602Y-827785D01*
X7310816Y-628003D01*
X7167107Y-452893D01*
X6991997Y-309184D01*
X6792215Y-202398D01*
X6575439Y-136640D01*
X6406492Y-120000D01*
X6293508Y-120000D01*
X6124561Y-136640D01*
X5907785Y-202398D01*
X5708003Y-309184D01*
X5532893Y-452893D01*
X5389184Y-628003D01*
X5282398Y-827785D01*
X5216640Y-1044561D01*
X5194436Y-1270000D01*
X4965564Y-1270000D01*
X4943360Y-1044561D01*
X4877602Y-827785D01*
X4770816Y-628003D01*
X4627107Y-452893D01*
X4451997Y-309184D01*
X4252215Y-202398D01*
X4035439Y-136640D01*
X3866492Y-120000D01*
X3753508Y-120000D01*
X3584561Y-136640D01*
X3367785Y-202398D01*
X3168003Y-309184D01*
X2992893Y-452893D01*
X2849184Y-628003D01*
X2742398Y-827785D01*
X2676640Y-1044561D01*
X2654436Y-1270000D01*
X2425564Y-1270000D01*
X2403360Y-1044561D01*
X2337602Y-827785D01*
X2230816Y-628003D01*
X2087107Y-452893D01*
X1911997Y-309184D01*
X1712215Y-202398D01*
X1495439Y-136640D01*
X1326492Y-120000D01*
X1213508Y-120000D01*
X1044561Y-136640D01*
X827785Y-202398D01*
X628003Y-309184D01*
X452893Y-452893D01*
X309184Y-628003D01*
X202398Y-827785D01*
X136640Y-1044561D01*
X114436Y-1270000D01*
X-2654436Y-1270000D01*
X-2676640Y-1044561D01*
X-2734015Y-855419D01*
X-2449258Y-855419D01*
X-2399594Y-1045000D01*
X-1495000Y-1045000D01*
X-1495000Y-142226D01*
X-1045000Y-142226D01*
X-1045000Y-1045000D01*
X-140406Y-1045000D01*
X-90742Y-855419D01*
X-194282Y-633323D01*
X-339161Y-435694D01*
X-519812Y-270127D01*
X-729292Y-142985D01*
X-855421Y-90753D01*
X-1045000Y-142226D01*
X-1495000Y-142226D01*
X-1684579Y-90753D01*
X-1810708Y-142985D01*
X-2020188Y-270127D01*
X-2200839Y-435694D01*
X-2345718Y-633323D01*
X-2449258Y-855419D01*
X-2734015Y-855419D01*
X-2742398Y-827785D01*
X-2849184Y-628003D01*
X-2992893Y-452893D01*
X-3168003Y-309184D01*
X-3367785Y-202398D01*
X-3584561Y-136640D01*
X-3753508Y-120000D01*
X-3866492Y-120000D01*
X-4035439Y-136640D01*
X-4252215Y-202398D01*
X-4451997Y-309184D01*
X-4627107Y-452893D01*
X-4770816Y-628003D01*
X-4877602Y-827785D01*
X-4943360Y-1044561D01*
X-4965564Y-1270000D01*
X-7738549Y-1270000D01*
X-7738549Y-855419D01*
X-7529258Y-855419D01*
X-7479594Y-1045000D01*
X-6575000Y-1045000D01*
X-6575000Y-142226D01*
X-6125000Y-142226D01*
X-6125000Y-1045000D01*
X-5220406Y-1045000D01*
X-5170742Y-855419D01*
X-5274282Y-633323D01*
X-5419161Y-435694D01*
X-5599812Y-270127D01*
X-5809292Y-142985D01*
X-5935421Y-90753D01*
X-6125000Y-142226D01*
X-6575000Y-142226D01*
X-6764579Y-90753D01*
X-6890708Y-142985D01*
X-7100188Y-270127D01*
X-7280839Y-435694D01*
X-7425718Y-633323D01*
X-7529258Y-855419D01*
X-7738549Y-855419D01*
X-7738549Y-420000D01*
X-7744341Y-361190D01*
X-7761496Y-304640D01*
X-7789353Y-252523D01*
X-7826842Y-206842D01*
X-7872523Y-169353D01*
X-7924640Y-141496D01*
X-7981190Y-124341D01*
X-8040000Y-118549D01*
X-9740000Y-118549D01*
X-9798810Y-124341D01*
X-9855360Y-141496D01*
X-9907477Y-169353D01*
X-9953158Y-206842D01*
X-9990647Y-252523D01*
X-10018504Y-304640D01*
X-10035659Y-361190D01*
X-10041451Y-420000D01*
X-19625000Y-420000D01*
X-19625000Y1270000D01*
X-10045564Y1270000D01*
X-10023360Y1044561D01*
X-9957602Y827785D01*
X-9850816Y628003D01*
X-9707107Y452893D01*
X-9531997Y309184D01*
X-9332215Y202398D01*
X-9115439Y136640D01*
X-8946492Y120000D01*
X-8833508Y120000D01*
X-8664561Y136640D01*
X-8447785Y202398D01*
X-8248003Y309184D01*
X-8072893Y452893D01*
X-7929184Y628003D01*
X-7822398Y827785D01*
X-7756640Y1044561D01*
X-7734436Y1270000D01*
X-7505564Y1270000D01*
X-7483360Y1044561D01*
X-7417602Y827785D01*
X-7310816Y628003D01*
X-7167107Y452893D01*
X-6991997Y309184D01*
X-6792215Y202398D01*
X-6575439Y136640D01*
X-6406492Y120000D01*
X-6293508Y120000D01*
X-6124561Y136640D01*
X-5907785Y202398D01*
X-5708003Y309184D01*
X-5532893Y452893D01*
X-5389184Y628003D01*
X-5282398Y827785D01*
X-5274016Y855419D01*
X-4989258Y855419D01*
X-4885718Y633323D01*
X-4740839Y435694D01*
X-4560188Y270127D01*
X-4350708Y142985D01*
X-4224579Y90753D01*
X-4035000Y142226D01*
X-4035000Y1045000D01*
X-3585000Y1045000D01*
X-3585000Y142226D01*
X-3395421Y90753D01*
X-3269292Y142985D01*
X-3059812Y270127D01*
X-2879161Y435694D01*
X-2734282Y633323D01*
X-2630742Y855419D01*
X-2680406Y1045000D01*
X-3585000Y1045000D01*
X-4035000Y1045000D01*
X-4939594Y1045000D01*
X-4989258Y855419D01*
X-5274016Y855419D01*
X-5216640Y1044561D01*
X-5194436Y1270000D01*
X-2425564Y1270000D01*
X-2403360Y1044561D01*
X-2337602Y827785D01*
X-2230816Y628003D01*
X-2087107Y452893D01*
X-1911997Y309184D01*
X-1712215Y202398D01*
X-1495439Y136640D01*
X-1326492Y120000D01*
X-1213508Y120000D01*
X-1044561Y136640D01*
X-827785Y202398D01*
X-628003Y309184D01*
X-452893Y452893D01*
X-309184Y628003D01*
X-202398Y827785D01*
X-136640Y1044561D01*
X-114436Y1270000D01*
X114436Y1270000D01*
X136640Y1044561D01*
X202398Y827785D01*
X309184Y628003D01*
X452893Y452893D01*
X628003Y309184D01*
X827785Y202398D01*
X1044561Y136640D01*
X1213508Y120000D01*
X1326492Y120000D01*
X1495439Y136640D01*
X1712215Y202398D01*
X1911997Y309184D01*
X2087107Y452893D01*
X2230816Y628003D01*
X2337602Y827785D01*
X2403360Y1044561D01*
X2425564Y1270000D01*
X2654436Y1270000D01*
X2676640Y1044561D01*
X2742398Y827785D01*
X2849184Y628003D01*
X2992893Y452893D01*
X3168003Y309184D01*
X3367785Y202398D01*
X3584561Y136640D01*
X3753508Y120000D01*
X3866492Y120000D01*
X4035439Y136640D01*
X4252215Y202398D01*
X4451997Y309184D01*
X4627107Y452893D01*
X4770816Y628003D01*
X4877602Y827785D01*
X4943360Y1044561D01*
X4965564Y1270000D01*
X5194436Y1270000D01*
X5216640Y1044561D01*
X5282398Y827785D01*
X5389184Y628003D01*
X5532893Y452893D01*
X5708003Y309184D01*
X5907785Y202398D01*
X6124561Y136640D01*
X6293508Y120000D01*
X6406492Y120000D01*
X6575439Y136640D01*
X6792215Y202398D01*
X6991997Y309184D01*
X7167107Y452893D01*
X7310816Y628003D01*
X7417602Y827785D01*
X7483360Y1044561D01*
X7505564Y1270000D01*
X7734436Y1270000D01*
X7756640Y1044561D01*
X7822398Y827785D01*
X7929184Y628003D01*
X8072893Y452893D01*
X8248003Y309184D01*
X8447785Y202398D01*
X8664561Y136640D01*
X8833508Y120000D01*
X8946492Y120000D01*
X9115439Y136640D01*
X9332215Y202398D01*
X9531997Y309184D01*
X9707107Y452893D01*
X9850816Y628003D01*
X9957602Y827785D01*
X10023360Y1044561D01*
X10045564Y1270000D01*
X10023360Y1495439D01*
X9957602Y1712215D01*
X9850816Y1911997D01*
X9707107Y2087107D01*
X9531997Y2230816D01*
X9332215Y2337602D01*
X9115439Y2403360D01*
X8946492Y2420000D01*
X8833508Y2420000D01*
X8664561Y2403360D01*
X8447785Y2337602D01*
X8248003Y2230816D01*
X8072893Y2087107D01*
X7929184Y1911997D01*
X7822398Y1712215D01*
X7756640Y1495439D01*
X7734436Y1270000D01*
X7505564Y1270000D01*
X7483360Y1495439D01*
X7417602Y1712215D01*
X7310816Y1911997D01*
X7167107Y2087107D01*
X6991997Y2230816D01*
X6792215Y2337602D01*
X6575439Y2403360D01*
X6406492Y2420000D01*
X6293508Y2420000D01*
X6124561Y2403360D01*
X5907785Y2337602D01*
X5708003Y2230816D01*
X5532893Y2087107D01*
X5389184Y1911997D01*
X5282398Y1712215D01*
X5216640Y1495439D01*
X5194436Y1270000D01*
X4965564Y1270000D01*
X4943360Y1495439D01*
X4877602Y1712215D01*
X4770816Y1911997D01*
X4627107Y2087107D01*
X4451997Y2230816D01*
X4252215Y2337602D01*
X4035439Y2403360D01*
X3866492Y2420000D01*
X3753508Y2420000D01*
X3584561Y2403360D01*
X3367785Y2337602D01*
X3168003Y2230816D01*
X2992893Y2087107D01*
X2849184Y1911997D01*
X2742398Y1712215D01*
X2676640Y1495439D01*
X2654436Y1270000D01*
X2425564Y1270000D01*
X2403360Y1495439D01*
X2337602Y1712215D01*
X2230816Y1911997D01*
X2087107Y2087107D01*
X1911997Y2230816D01*
X1712215Y2337602D01*
X1495439Y2403360D01*
X1326492Y2420000D01*
X1213508Y2420000D01*
X1044561Y2403360D01*
X827785Y2337602D01*
X628003Y2230816D01*
X452893Y2087107D01*
X309184Y1911997D01*
X202398Y1712215D01*
X136640Y1495439D01*
X114436Y1270000D01*
X-114436Y1270000D01*
X-136640Y1495439D01*
X-202398Y1712215D01*
X-309184Y1911997D01*
X-452893Y2087107D01*
X-628003Y2230816D01*
X-827785Y2337602D01*
X-1044561Y2403360D01*
X-1213508Y2420000D01*
X-1326492Y2420000D01*
X-1495439Y2403360D01*
X-1712215Y2337602D01*
X-1911997Y2230816D01*
X-2087107Y2087107D01*
X-2230816Y1911997D01*
X-2337602Y1712215D01*
X-2403360Y1495439D01*
X-2425564Y1270000D01*
X-5194436Y1270000D01*
X-5216640Y1495439D01*
X-5274015Y1684581D01*
X-4989258Y1684581D01*
X-4939594Y1495000D01*
X-4035000Y1495000D01*
X-4035000Y2397774D01*
X-3585000Y2397774D01*
X-3585000Y1495000D01*
X-2680406Y1495000D01*
X-2630742Y1684581D01*
X-2734282Y1906677D01*
X-2879161Y2104306D01*
X-3059812Y2269873D01*
X-3269292Y2397015D01*
X-3395421Y2449247D01*
X-3585000Y2397774D01*
X-4035000Y2397774D01*
X-4224579Y2449247D01*
X-4350708Y2397015D01*
X-4560188Y2269873D01*
X-4740839Y2104306D01*
X-4885718Y1906677D01*
X-4989258Y1684581D01*
X-5274015Y1684581D01*
X-5282398Y1712215D01*
X-5389184Y1911997D01*
X-5532893Y2087107D01*
X-5708003Y2230816D01*
X-5907785Y2337602D01*
X-6124561Y2403360D01*
X-6293508Y2420000D01*
X-6406492Y2420000D01*
X-6575439Y2403360D01*
X-6792215Y2337602D01*
X-6991997Y2230816D01*
X-7167107Y2087107D01*
X-7310816Y1911997D01*
X-7417602Y1712215D01*
X-7483360Y1495439D01*
X-7505564Y1270000D01*
X-7734436Y1270000D01*
X-7756640Y1495439D01*
X-7822398Y1712215D01*
X-7929184Y1911997D01*
X-8072893Y2087107D01*
X-8248003Y2230816D01*
X-8447785Y2337602D01*
X-8664561Y2403360D01*
X-8833508Y2420000D01*
X-8946492Y2420000D01*
X-9115439Y2403360D01*
X-9332215Y2337602D01*
X-9531997Y2230816D01*
X-9707107Y2087107D01*
X-9850816Y1911997D01*
X-9957602Y1712215D01*
X-10023360Y1495439D01*
X-10045564Y1270000D01*
X-19625000Y1270000D01*
X-19625000Y1981662D01*
X-19573243Y2509514D01*
X-19425271Y2999622D01*
X-19184920Y3451659D01*
X-18861346Y3848399D01*
X-18466877Y4174733D01*
X-18016532Y4418233D01*
X-17527470Y4569623D01*
X-17000640Y4624995D01*
X-16999267Y4625000D01*
X16981662Y4625000D01*
X17509514Y4573243D01*
X17509514Y4573243D01*
G37*
X17509514Y4573243D02*
X17999622Y4425271D01*
X18451659Y4184920D01*
X18848399Y3861346D01*
X19174733Y3466877D01*
X19418233Y3016532D01*
X19569623Y2527470D01*
X19624995Y2000640D01*
X19625000Y1999267D01*
X19625000Y-6934249D01*
X19551943Y-6797568D01*
X19439475Y-6660525D01*
X19405140Y-6632347D01*
X15767657Y-2994865D01*
X15739475Y-2960525D01*
X15602432Y-2848057D01*
X15446081Y-2764486D01*
X15276431Y-2713023D01*
X15144207Y-2700000D01*
X15144206Y-2700000D01*
X15100000Y-2695646D01*
X15055794Y-2700000D01*
X3255793Y-2700000D01*
X3123569Y-2713023D01*
X2953919Y-2764486D01*
X2797568Y-2848057D01*
X2660525Y-2960525D01*
X2548057Y-3097568D01*
X2464486Y-3253919D01*
X2413023Y-3423569D01*
X2395646Y-3600000D01*
X2413023Y-3776431D01*
X2464486Y-3946081D01*
X2548057Y-4102432D01*
X2660525Y-4239475D01*
X2797568Y-4351943D01*
X2953919Y-4435514D01*
X3123569Y-4486977D01*
X3255793Y-4500000D01*
X14727208Y-4500000D01*
X17900001Y-7672794D01*
X17900000Y-9900000D01*
X17207907Y-9900000D01*
X17193726Y-9878776D01*
X17096224Y-9781274D01*
X16981574Y-9704668D01*
X16854182Y-9651901D01*
X16718944Y-9625000D01*
X16581056Y-9625000D01*
X16445818Y-9651901D01*
X16318426Y-9704668D01*
X16203776Y-9781274D01*
X16106274Y-9878776D01*
X16029668Y-9993426D01*
X15976901Y-10120818D01*
X15950000Y-10256056D01*
X15950000Y-10393944D01*
X15976901Y-10529182D01*
X16029668Y-10656574D01*
X16106274Y-10771224D01*
X16203776Y-10868726D01*
X16318426Y-10945332D01*
X16445818Y-10998099D01*
X16581056Y-11025000D01*
X16718944Y-11025000D01*
X16854182Y-10998099D01*
X16981574Y-10945332D01*
X17096224Y-10868726D01*
X17193726Y-10771224D01*
X17207907Y-10750000D01*
X17900001Y-10750000D01*
X17900000Y-46327208D01*
X16832345Y-47394863D01*
X16748057Y-47497569D01*
X16664487Y-47653919D01*
X16613023Y-47823570D01*
X16595646Y-48000000D01*
X16613023Y-48176430D01*
X16664487Y-48346081D01*
X16748057Y-48502431D01*
X16860526Y-48639474D01*
X16997569Y-48751943D01*
X17153919Y-48835513D01*
X17323570Y-48886977D01*
X17500000Y-48904354D01*
X17676430Y-48886977D01*
X17846081Y-48835513D01*
X18002431Y-48751943D01*
X18105137Y-48667655D01*
X19405136Y-47367656D01*
X19439475Y-47339475D01*
X19551943Y-47202432D01*
X19623294Y-47068944D01*
X19625001Y-47065751D01*
X19625001Y-55438736D01*
X19369090Y-55055738D01*
X18944262Y-54630910D01*
X18444717Y-54297125D01*
X17889652Y-54067209D01*
X17300399Y-53950000D01*
X16699601Y-53950000D01*
X16110348Y-54067209D01*
X15555283Y-54297125D01*
X15055738Y-54630910D01*
X14630910Y-55055738D01*
X14297125Y-55555283D01*
X14067209Y-56110348D01*
X13950000Y-56699601D01*
X13950000Y-57300399D01*
X14067209Y-57889652D01*
X14297125Y-58444717D01*
X14630910Y-58944262D01*
X15055738Y-59369090D01*
X15438735Y-59625000D01*
X-2125000Y-59625000D01*
X-2125000Y-58318419D01*
X-2123186Y-58300000D01*
X-2130426Y-58226487D01*
X-2151869Y-58155800D01*
X-2186691Y-58090653D01*
X-2233552Y-58033552D01*
X-2290653Y-57986691D01*
X-2355800Y-57951869D01*
X-2426487Y-57930426D01*
X-2481581Y-57925000D01*
X-2500000Y-57923186D01*
X-2518419Y-57925000D01*
X-3022717Y-57925000D01*
X-2874466Y-57801502D01*
X-2731622Y-57624817D01*
X-2625992Y-57423660D01*
X-2561636Y-57205760D01*
X-2641586Y-57025000D01*
X-3475000Y-57025000D01*
X-3475000Y-57045000D01*
X-3925000Y-57045000D01*
X-3925000Y-57025000D01*
X-4758414Y-57025000D01*
X-4838364Y-57205760D01*
X-4774008Y-57423660D01*
X-4668378Y-57624817D01*
X-4525534Y-57801502D01*
X-4377283Y-57925000D01*
X-10222717Y-57925000D01*
X-10074466Y-57801502D01*
X-9931622Y-57624817D01*
X-9825992Y-57423660D01*
X-9761636Y-57205760D01*
X-9841586Y-57025000D01*
X-10675000Y-57025000D01*
X-10675000Y-57045000D01*
X-11125000Y-57045000D01*
X-11125000Y-57025000D01*
X-11958414Y-57025000D01*
X-12038364Y-57205760D01*
X-11974008Y-57423660D01*
X-11868378Y-57624817D01*
X-11725534Y-57801502D01*
X-11577283Y-57925000D01*
X-11981581Y-57925000D01*
X-12000000Y-57923186D01*
X-12018419Y-57925000D01*
X-12073513Y-57930426D01*
X-12144200Y-57951869D01*
X-12209347Y-57986691D01*
X-12266448Y-58033552D01*
X-12313309Y-58090653D01*
X-12348131Y-58155800D01*
X-12369574Y-58226487D01*
X-12376814Y-58300000D01*
X-12374999Y-58318429D01*
X-12375000Y-59625000D01*
X-15438735Y-59625000D01*
X-15055738Y-59369090D01*
X-14630910Y-58944262D01*
X-14297125Y-58444717D01*
X-14067209Y-57889652D01*
X-13950000Y-57300399D01*
X-13950000Y-56699601D01*
X-14010739Y-56394240D01*
X-12038364Y-56394240D01*
X-11958414Y-56575000D01*
X-11125000Y-56575000D01*
X-11125000Y-55574108D01*
X-10675000Y-55574108D01*
X-10675000Y-56575000D01*
X-9841586Y-56575000D01*
X-9761636Y-56394240D01*
X-4838364Y-56394240D01*
X-4758414Y-56575000D01*
X-3925000Y-56575000D01*
X-3925000Y-55574108D01*
X-3475000Y-55574108D01*
X-3475000Y-56575000D01*
X-2641586Y-56575000D01*
X-2561636Y-56394240D01*
X-2625992Y-56176340D01*
X-2731622Y-55975183D01*
X-2874466Y-55798498D01*
X-3049035Y-55653076D01*
X-3248620Y-55544504D01*
X-3299434Y-55521225D01*
X-3475000Y-55574108D01*
X-3925000Y-55574108D01*
X-4100566Y-55521225D01*
X-4151380Y-55544504D01*
X-4350965Y-55653076D01*
X-4525534Y-55798498D01*
X-4668378Y-55975183D01*
X-4774008Y-56176340D01*
X-4838364Y-56394240D01*
X-9761636Y-56394240D01*
X-9825992Y-56176340D01*
X-9931622Y-55975183D01*
X-10074466Y-55798498D01*
X-10249035Y-55653076D01*
X-10448620Y-55544504D01*
X-10499434Y-55521225D01*
X-10675000Y-55574108D01*
X-11125000Y-55574108D01*
X-11300566Y-55521225D01*
X-11351380Y-55544504D01*
X-11550965Y-55653076D01*
X-11725534Y-55798498D01*
X-11868378Y-55975183D01*
X-11974008Y-56176340D01*
X-12038364Y-56394240D01*
X-14010739Y-56394240D01*
X-14067209Y-56110348D01*
X-14297125Y-55555283D01*
X-14630910Y-55055738D01*
X-15055738Y-54630910D01*
X-15555283Y-54297125D01*
X-15630990Y-54265766D01*
X-10603924Y-54265766D01*
X-10535187Y-54432129D01*
X-10435315Y-54581885D01*
X-10308146Y-54709280D01*
X-10158567Y-54809418D01*
X-10087586Y-54850974D01*
X-9950000Y-54793725D01*
X-9950000Y-54125000D01*
X-9500000Y-54125000D01*
X-9500000Y-54793725D01*
X-9362414Y-54850974D01*
X-9291433Y-54809418D01*
X-9141854Y-54709280D01*
X-9014685Y-54581885D01*
X-8914813Y-54432129D01*
X-8846076Y-54265766D01*
X-5753924Y-54265766D01*
X-5685187Y-54432129D01*
X-5585315Y-54581885D01*
X-5458146Y-54709280D01*
X-5308567Y-54809418D01*
X-5237586Y-54850974D01*
X-5100000Y-54793725D01*
X-5100000Y-54125000D01*
X-4650000Y-54125000D01*
X-4650000Y-54793725D01*
X-4512414Y-54850974D01*
X-4441433Y-54809418D01*
X-4291854Y-54709280D01*
X-4164685Y-54581885D01*
X-4064813Y-54432129D01*
X-3996076Y-54265766D01*
X-4065322Y-54125000D01*
X-4650000Y-54125000D01*
X-5100000Y-54125000D01*
X-5684678Y-54125000D01*
X-5753924Y-54265766D01*
X-8846076Y-54265766D01*
X-8915322Y-54125000D01*
X-9500000Y-54125000D01*
X-9950000Y-54125000D01*
X-10534678Y-54125000D01*
X-10603924Y-54265766D01*
X-15630990Y-54265766D01*
X-16110348Y-54067209D01*
X-16699601Y-53950000D01*
X-17300399Y-53950000D01*
X-17889652Y-54067209D01*
X-18444717Y-54297125D01*
X-18944262Y-54630910D01*
X-19369090Y-55055738D01*
X-19625000Y-55438735D01*
X-19625000Y-53534234D01*
X-10603924Y-53534234D01*
X-10534678Y-53675000D01*
X-9950000Y-53675000D01*
X-9950000Y-53006275D01*
X-9500000Y-53006275D01*
X-9500000Y-53675000D01*
X-8915322Y-53675000D01*
X-8846076Y-53534234D01*
X-8914813Y-53367871D01*
X-9014685Y-53218115D01*
X-9141854Y-53090720D01*
X-9291433Y-52990582D01*
X-9362414Y-52949026D01*
X-9500000Y-53006275D01*
X-9950000Y-53006275D01*
X-10087586Y-52949026D01*
X-10158567Y-52990582D01*
X-10308146Y-53090720D01*
X-10435315Y-53218115D01*
X-10535187Y-53367871D01*
X-10603924Y-53534234D01*
X-19625000Y-53534234D01*
X-19625000Y-49450010D01*
X-10704354Y-49450010D01*
X-10700000Y-49494218D01*
X-10699999Y-50444207D01*
X-10686976Y-50576431D01*
X-10635513Y-50746081D01*
X-10551942Y-50902432D01*
X-10439474Y-51039475D01*
X-10302431Y-51151943D01*
X-10146080Y-51235514D01*
X-9976430Y-51286977D01*
X-9800000Y-51304354D01*
X-9623569Y-51286977D01*
X-9453919Y-51235514D01*
X-9297568Y-51151943D01*
X-9160525Y-51039475D01*
X-9048057Y-50902432D01*
X-8964486Y-50746081D01*
X-8913023Y-50576431D01*
X-8900000Y-50444207D01*
X-8900000Y-50350010D01*
X-8197792Y-50350010D01*
X-7842658Y-50705144D01*
X-7814476Y-50739484D01*
X-7677433Y-50851952D01*
X-7521082Y-50935523D01*
X-7351432Y-50986986D01*
X-7334099Y-50988693D01*
X-5322729Y-53000063D01*
X-5458146Y-53090720D01*
X-5585315Y-53218115D01*
X-5685187Y-53367871D01*
X-5753924Y-53534234D01*
X-5684678Y-53675000D01*
X-5100000Y-53675000D01*
X-5100000Y-53655000D01*
X-4650000Y-53655000D01*
X-4650000Y-53675000D01*
X-4065322Y-53675000D01*
X-3996076Y-53534234D01*
X-4061872Y-53374990D01*
X-369196Y-53374990D01*
X-324990Y-53379344D01*
X-280784Y-53374990D01*
X-280783Y-53374990D01*
X-148559Y-53361967D01*
X21091Y-53310504D01*
X177442Y-53226933D01*
X314485Y-53114465D01*
X342667Y-53080125D01*
X1672792Y-51750000D01*
X4394207Y-51750000D01*
X4526431Y-51736977D01*
X4696081Y-51685514D01*
X4852432Y-51601943D01*
X4989475Y-51489475D01*
X5101943Y-51352432D01*
X5185514Y-51196081D01*
X5236977Y-51026431D01*
X5254354Y-50850000D01*
X5236977Y-50673569D01*
X5185514Y-50503919D01*
X5101943Y-50347568D01*
X4989475Y-50210525D01*
X4852432Y-50098057D01*
X4696081Y-50014486D01*
X4526431Y-49963023D01*
X4394207Y-49950000D01*
X1344206Y-49950000D01*
X1300000Y-49945646D01*
X1255793Y-49950000D01*
X1123569Y-49963023D01*
X953919Y-50014486D01*
X797568Y-50098057D01*
X660525Y-50210525D01*
X632343Y-50244865D01*
X-697782Y-51574990D01*
X-4202218Y-51574990D01*
X-6282336Y-49494872D01*
X-6310516Y-49460534D01*
X-6447559Y-49348066D01*
X-6603910Y-49264495D01*
X-6773560Y-49213032D01*
X-6790893Y-49211325D01*
X-7157342Y-48844876D01*
X-7185525Y-48810535D01*
X-7322568Y-48698067D01*
X-7478919Y-48614496D01*
X-7648569Y-48563033D01*
X-7780793Y-48550010D01*
X-7780794Y-48550010D01*
X-7825000Y-48545656D01*
X-7869206Y-48550010D01*
X-9755794Y-48550010D01*
X-9800000Y-48545656D01*
X-9844207Y-48550010D01*
X-9976431Y-48563033D01*
X-10146081Y-48614496D01*
X-10302432Y-48698067D01*
X-10439475Y-48810535D01*
X-10551943Y-48947578D01*
X-10635514Y-49103929D01*
X-10686977Y-49273579D01*
X-10704354Y-49450010D01*
X-19625000Y-49450010D01*
X-19625000Y-43456058D01*
X-11275000Y-43456058D01*
X-11275000Y-43593946D01*
X-11248099Y-43729184D01*
X-11195332Y-43856576D01*
X-11118726Y-43971226D01*
X-11021224Y-44068728D01*
X-10906574Y-44145334D01*
X-10779182Y-44198101D01*
X-10643944Y-44225002D01*
X-10506056Y-44225002D01*
X-10472678Y-44218363D01*
X-7355020Y-47336021D01*
X-7360000Y-47361056D01*
X-7360000Y-47498944D01*
X-7333099Y-47634182D01*
X-7280332Y-47761574D01*
X-7203726Y-47876224D01*
X-7106224Y-47973726D01*
X-6991574Y-48050332D01*
X-6864182Y-48103099D01*
X-6728944Y-48130000D01*
X-6591056Y-48130000D01*
X-6455818Y-48103099D01*
X-6328426Y-48050332D01*
X-6213776Y-47973726D01*
X-6116274Y-47876224D01*
X-6039668Y-47761574D01*
X-5986901Y-47634182D01*
X-5960000Y-47498944D01*
X-5960000Y-47361056D01*
X-5986901Y-47225818D01*
X-6039668Y-47098426D01*
X-6116274Y-46983776D01*
X-6213776Y-46886274D01*
X-6328426Y-46809668D01*
X-6455818Y-46756901D01*
X-6591056Y-46730000D01*
X-6728944Y-46730000D01*
X-6753979Y-46734980D01*
X-7407903Y-46081056D01*
X7300000Y-46081056D01*
X7300000Y-46218944D01*
X7326901Y-46354182D01*
X7379668Y-46481574D01*
X7456274Y-46596224D01*
X7553776Y-46693726D01*
X7668426Y-46770332D01*
X7795818Y-46823099D01*
X7931056Y-46850000D01*
X8068944Y-46850000D01*
X8093980Y-46845020D01*
X8534716Y-47285756D01*
X8548026Y-47301974D01*
X8612740Y-47355084D01*
X8686573Y-47394548D01*
X8766686Y-47418850D01*
X8850000Y-47427056D01*
X8870874Y-47425000D01*
X14042093Y-47425000D01*
X14056274Y-47446224D01*
X14153776Y-47543726D01*
X14268426Y-47620332D01*
X14395818Y-47673099D01*
X14531056Y-47700000D01*
X14668944Y-47700000D01*
X14804182Y-47673099D01*
X14931574Y-47620332D01*
X15046224Y-47543726D01*
X15143726Y-47446224D01*
X15220332Y-47331574D01*
X15273099Y-47204182D01*
X15300000Y-47068944D01*
X15300000Y-46931056D01*
X15273099Y-46795818D01*
X15220332Y-46668426D01*
X15143726Y-46553776D01*
X15046224Y-46456274D01*
X14931574Y-46379668D01*
X14804182Y-46326901D01*
X14668944Y-46300000D01*
X14531056Y-46300000D01*
X14395818Y-46326901D01*
X14268426Y-46379668D01*
X14153776Y-46456274D01*
X14056274Y-46553776D01*
X14042093Y-46575000D01*
X9026040Y-46575000D01*
X8695020Y-46243980D01*
X8700000Y-46218944D01*
X8700000Y-46081056D01*
X8673099Y-45945818D01*
X8620332Y-45818426D01*
X8543726Y-45703776D01*
X8446224Y-45606274D01*
X8331574Y-45529668D01*
X8204182Y-45476901D01*
X8068944Y-45450000D01*
X7931056Y-45450000D01*
X7795818Y-45476901D01*
X7668426Y-45529668D01*
X7553776Y-45606274D01*
X7456274Y-45703776D01*
X7379668Y-45818426D01*
X7326901Y-45945818D01*
X7300000Y-46081056D01*
X-7407903Y-46081056D01*
X-9878321Y-43610639D01*
X-9875000Y-43593946D01*
X-9875000Y-43456058D01*
X-9901901Y-43320820D01*
X-9954668Y-43193428D01*
X-9956958Y-43190000D01*
X-3691451Y-43190000D01*
X-3691451Y-44190000D01*
X-3685659Y-44248810D01*
X-3668504Y-44305360D01*
X-3640647Y-44357477D01*
X-3603158Y-44403158D01*
X-3557477Y-44440647D01*
X-3505360Y-44468504D01*
X-3448810Y-44485659D01*
X-3390000Y-44491451D01*
X-2490000Y-44491451D01*
X-2490000Y-44590000D01*
X-2488079Y-44609509D01*
X-2482388Y-44628268D01*
X-2473147Y-44645557D01*
X-2460711Y-44660711D01*
X-2445557Y-44673147D01*
X-2428268Y-44682388D01*
X-2409509Y-44688079D01*
X-2390000Y-44690000D01*
X-490000Y-44690000D01*
X-470491Y-44688079D01*
X-451732Y-44682388D01*
X-434443Y-44673147D01*
X-419289Y-44660711D01*
X-406853Y-44645557D01*
X-397612Y-44628268D01*
X-391921Y-44609509D01*
X-390000Y-44590000D01*
X-390000Y-44224665D01*
X5393533Y-44224665D01*
X5485722Y-44390637D01*
X5708376Y-44470011D01*
X5942238Y-44504423D01*
X6178320Y-44492550D01*
X6407548Y-44434847D01*
X6514278Y-44390637D01*
X6606467Y-44224665D01*
X6000000Y-43618198D01*
X5393533Y-44224665D01*
X-390000Y-44224665D01*
X-390000Y-43242238D01*
X4795577Y-43242238D01*
X4807450Y-43478320D01*
X4865153Y-43707548D01*
X4909363Y-43814278D01*
X5075335Y-43906467D01*
X5681802Y-43300000D01*
X6318198Y-43300000D01*
X6924665Y-43906467D01*
X7090637Y-43814278D01*
X7170011Y-43591624D01*
X7204423Y-43357762D01*
X7192550Y-43121680D01*
X7134847Y-42892452D01*
X7090637Y-42785722D01*
X6924665Y-42693533D01*
X6318198Y-43300000D01*
X5681802Y-43300000D01*
X5075335Y-42693533D01*
X4909363Y-42785722D01*
X4829989Y-43008376D01*
X4795577Y-43242238D01*
X-390000Y-43242238D01*
X-390000Y-42790000D01*
X-391921Y-42770491D01*
X-397612Y-42751732D01*
X-406853Y-42734443D01*
X-419289Y-42719289D01*
X-434443Y-42706853D01*
X-451732Y-42697612D01*
X-470491Y-42691921D01*
X-490000Y-42690000D01*
X-2390000Y-42690000D01*
X-2409509Y-42691921D01*
X-2428268Y-42697612D01*
X-2445557Y-42706853D01*
X-2460711Y-42719289D01*
X-2473147Y-42734443D01*
X-2482388Y-42751732D01*
X-2488079Y-42770491D01*
X-2490000Y-42790000D01*
X-2490000Y-42888549D01*
X-3390000Y-42888549D01*
X-3448810Y-42894341D01*
X-3505360Y-42911496D01*
X-3557477Y-42939353D01*
X-3603158Y-42976842D01*
X-3640647Y-43022523D01*
X-3668504Y-43074640D01*
X-3685659Y-43131190D01*
X-3691451Y-43190000D01*
X-9956958Y-43190000D01*
X-10031274Y-43078778D01*
X-10128776Y-42981276D01*
X-10243426Y-42904670D01*
X-10370818Y-42851903D01*
X-10506056Y-42825002D01*
X-10643944Y-42825002D01*
X-10779182Y-42851903D01*
X-10906574Y-42904670D01*
X-11021224Y-42981276D01*
X-11118726Y-43078778D01*
X-11195332Y-43193428D01*
X-11248099Y-43320820D01*
X-11275000Y-43456058D01*
X-19625000Y-43456058D01*
X-19625000Y-42375335D01*
X5393533Y-42375335D01*
X6000000Y-42981802D01*
X6606467Y-42375335D01*
X6514278Y-42209363D01*
X6291624Y-42129989D01*
X6057762Y-42095577D01*
X5821680Y-42107450D01*
X5592452Y-42165153D01*
X5485722Y-42209363D01*
X5393533Y-42375335D01*
X-19625000Y-42375335D01*
X-19625000Y-40000000D01*
X4898549Y-40000000D01*
X4898549Y-41600000D01*
X4904341Y-41658810D01*
X4921496Y-41715360D01*
X4949353Y-41767477D01*
X4986842Y-41813158D01*
X5032523Y-41850647D01*
X5084640Y-41878504D01*
X5141190Y-41895659D01*
X5200000Y-41901451D01*
X6800000Y-41901451D01*
X6858810Y-41895659D01*
X6915360Y-41878504D01*
X6967477Y-41850647D01*
X7013158Y-41813158D01*
X7050647Y-41767477D01*
X7078504Y-41715360D01*
X7095659Y-41658810D01*
X7101451Y-41600000D01*
X7101451Y-40000000D01*
X7095659Y-39941190D01*
X7078504Y-39884640D01*
X7050647Y-39832523D01*
X7013158Y-39786842D01*
X6967477Y-39749353D01*
X6915360Y-39721496D01*
X6858810Y-39704341D01*
X6800000Y-39698549D01*
X5200000Y-39698549D01*
X5141190Y-39704341D01*
X5084640Y-39721496D01*
X5032523Y-39749353D01*
X4986842Y-39786842D01*
X4949353Y-39832523D01*
X4921496Y-39884640D01*
X4904341Y-39941190D01*
X4898549Y-40000000D01*
X-19625000Y-40000000D01*
X-19625000Y-33024665D01*
X5893533Y-33024665D01*
X5985722Y-33190637D01*
X6208376Y-33270011D01*
X6442238Y-33304423D01*
X6678320Y-33292550D01*
X6907548Y-33234847D01*
X7014278Y-33190637D01*
X7106467Y-33024665D01*
X6500000Y-32418198D01*
X5893533Y-33024665D01*
X-19625000Y-33024665D01*
X-19625000Y-32042238D01*
X5295577Y-32042238D01*
X5307450Y-32278320D01*
X5365153Y-32507548D01*
X5409363Y-32614278D01*
X5575335Y-32706467D01*
X6181802Y-32100000D01*
X6818198Y-32100000D01*
X7424665Y-32706467D01*
X7590637Y-32614278D01*
X7670011Y-32391624D01*
X7704423Y-32157762D01*
X7692550Y-31921680D01*
X7634847Y-31692452D01*
X7590637Y-31585722D01*
X7424665Y-31493533D01*
X6818198Y-32100000D01*
X6181802Y-32100000D01*
X5575335Y-31493533D01*
X5409363Y-31585722D01*
X5329989Y-31808376D01*
X5295577Y-32042238D01*
X-19625000Y-32042238D01*
X-19625000Y-31175335D01*
X5893533Y-31175335D01*
X6500000Y-31781802D01*
X6981802Y-31300000D01*
X7898549Y-31300000D01*
X7898549Y-32900000D01*
X7904341Y-32958810D01*
X7921496Y-33015360D01*
X7949353Y-33067477D01*
X7986842Y-33113158D01*
X8032523Y-33150647D01*
X8084640Y-33178504D01*
X8141190Y-33195659D01*
X8200000Y-33201451D01*
X9800000Y-33201451D01*
X9858810Y-33195659D01*
X9915360Y-33178504D01*
X9967477Y-33150647D01*
X10013158Y-33113158D01*
X10050647Y-33067477D01*
X10078504Y-33015360D01*
X10095659Y-32958810D01*
X10101451Y-32900000D01*
X10101451Y-31300000D01*
X10095659Y-31241190D01*
X10078504Y-31184640D01*
X10050647Y-31132523D01*
X10013158Y-31086842D01*
X9967477Y-31049353D01*
X9915360Y-31021496D01*
X9858810Y-31004341D01*
X9800000Y-30998549D01*
X8200000Y-30998549D01*
X8141190Y-31004341D01*
X8084640Y-31021496D01*
X8032523Y-31049353D01*
X7986842Y-31086842D01*
X7949353Y-31132523D01*
X7921496Y-31184640D01*
X7904341Y-31241190D01*
X7898549Y-31300000D01*
X6981802Y-31300000D01*
X7106467Y-31175335D01*
X7014278Y-31009363D01*
X6791624Y-30929989D01*
X6557762Y-30895577D01*
X6321680Y-30907450D01*
X6092452Y-30965153D01*
X5985722Y-31009363D01*
X5893533Y-31175335D01*
X-19625000Y-31175335D01*
X-19625000Y-28000000D01*
X11798549Y-28000000D01*
X11798549Y-29600000D01*
X11804341Y-29658810D01*
X11821496Y-29715360D01*
X11849353Y-29767477D01*
X11886842Y-29813158D01*
X11932523Y-29850647D01*
X11984640Y-29878504D01*
X12041190Y-29895659D01*
X12100000Y-29901451D01*
X13700000Y-29901451D01*
X13758810Y-29895659D01*
X13815360Y-29878504D01*
X13867477Y-29850647D01*
X13913158Y-29813158D01*
X13950647Y-29767477D01*
X13973530Y-29724665D01*
X14793533Y-29724665D01*
X14885722Y-29890637D01*
X15108376Y-29970011D01*
X15342238Y-30004423D01*
X15578320Y-29992550D01*
X15807548Y-29934847D01*
X15914278Y-29890637D01*
X16006467Y-29724665D01*
X15400000Y-29118198D01*
X14793533Y-29724665D01*
X13973530Y-29724665D01*
X13978504Y-29715360D01*
X13995659Y-29658810D01*
X14001451Y-29600000D01*
X14001451Y-28742238D01*
X14195577Y-28742238D01*
X14207450Y-28978320D01*
X14265153Y-29207548D01*
X14309363Y-29314278D01*
X14475335Y-29406467D01*
X15081802Y-28800000D01*
X15718198Y-28800000D01*
X16324665Y-29406467D01*
X16490637Y-29314278D01*
X16570011Y-29091624D01*
X16604423Y-28857762D01*
X16592550Y-28621680D01*
X16534847Y-28392452D01*
X16490637Y-28285722D01*
X16324665Y-28193533D01*
X15718198Y-28800000D01*
X15081802Y-28800000D01*
X14475335Y-28193533D01*
X14309363Y-28285722D01*
X14229989Y-28508376D01*
X14195577Y-28742238D01*
X14001451Y-28742238D01*
X14001451Y-28000000D01*
X13995659Y-27941190D01*
X13978504Y-27884640D01*
X13973531Y-27875335D01*
X14793533Y-27875335D01*
X15400000Y-28481802D01*
X16006467Y-27875335D01*
X15914278Y-27709363D01*
X15691624Y-27629989D01*
X15457762Y-27595577D01*
X15221680Y-27607450D01*
X14992452Y-27665153D01*
X14885722Y-27709363D01*
X14793533Y-27875335D01*
X13973531Y-27875335D01*
X13950647Y-27832523D01*
X13913158Y-27786842D01*
X13867477Y-27749353D01*
X13815360Y-27721496D01*
X13758810Y-27704341D01*
X13700000Y-27698549D01*
X12100000Y-27698549D01*
X12041190Y-27704341D01*
X11984640Y-27721496D01*
X11932523Y-27749353D01*
X11886842Y-27786842D01*
X11849353Y-27832523D01*
X11821496Y-27884640D01*
X11804341Y-27941190D01*
X11798549Y-28000000D01*
X-19625000Y-28000000D01*
X-19625000Y-26024665D01*
X5893533Y-26024665D01*
X5985722Y-26190637D01*
X6208376Y-26270011D01*
X6442238Y-26304423D01*
X6678320Y-26292550D01*
X6907548Y-26234847D01*
X7014278Y-26190637D01*
X7106467Y-26024665D01*
X6500000Y-25418198D01*
X5893533Y-26024665D01*
X-19625000Y-26024665D01*
X-19625000Y-24331056D01*
X1500000Y-24331056D01*
X1500000Y-24468944D01*
X1526901Y-24604182D01*
X1579668Y-24731574D01*
X1656274Y-24846224D01*
X1753776Y-24943726D01*
X1868426Y-25020332D01*
X1995818Y-25073099D01*
X2131056Y-25100000D01*
X2268944Y-25100000D01*
X2404182Y-25073099D01*
X2478687Y-25042238D01*
X5295577Y-25042238D01*
X5307450Y-25278320D01*
X5365153Y-25507548D01*
X5409363Y-25614278D01*
X5575335Y-25706467D01*
X6181802Y-25100000D01*
X6818198Y-25100000D01*
X7424665Y-25706467D01*
X7590637Y-25614278D01*
X7670011Y-25391624D01*
X7704423Y-25157762D01*
X7692550Y-24921680D01*
X7634847Y-24692452D01*
X7590637Y-24585722D01*
X7424665Y-24493533D01*
X6818198Y-25100000D01*
X6181802Y-25100000D01*
X5575335Y-24493533D01*
X5409363Y-24585722D01*
X5329989Y-24808376D01*
X5295577Y-25042238D01*
X2478687Y-25042238D01*
X2531574Y-25020332D01*
X2646224Y-24943726D01*
X2743726Y-24846224D01*
X2820332Y-24731574D01*
X2873099Y-24604182D01*
X2900000Y-24468944D01*
X2900000Y-24331056D01*
X2873099Y-24195818D01*
X2864615Y-24175335D01*
X5893533Y-24175335D01*
X6500000Y-24781802D01*
X6981802Y-24300000D01*
X7898549Y-24300000D01*
X7898549Y-25900000D01*
X7904341Y-25958810D01*
X7921496Y-26015360D01*
X7949353Y-26067477D01*
X7986842Y-26113158D01*
X8032523Y-26150647D01*
X8084640Y-26178504D01*
X8141190Y-26195659D01*
X8200000Y-26201451D01*
X9800000Y-26201451D01*
X9858810Y-26195659D01*
X9915360Y-26178504D01*
X9967477Y-26150647D01*
X10013158Y-26113158D01*
X10050647Y-26067477D01*
X10078504Y-26015360D01*
X10095659Y-25958810D01*
X10101451Y-25900000D01*
X10101451Y-24300000D01*
X10095659Y-24241190D01*
X10078504Y-24184640D01*
X10050647Y-24132523D01*
X10013158Y-24086842D01*
X9967477Y-24049353D01*
X9915360Y-24021496D01*
X9858810Y-24004341D01*
X9800000Y-23998549D01*
X8200000Y-23998549D01*
X8141190Y-24004341D01*
X8084640Y-24021496D01*
X8032523Y-24049353D01*
X7986842Y-24086842D01*
X7949353Y-24132523D01*
X7921496Y-24184640D01*
X7904341Y-24241190D01*
X7898549Y-24300000D01*
X6981802Y-24300000D01*
X7106467Y-24175335D01*
X7014278Y-24009363D01*
X6791624Y-23929989D01*
X6557762Y-23895577D01*
X6321680Y-23907450D01*
X6092452Y-23965153D01*
X5985722Y-24009363D01*
X5893533Y-24175335D01*
X2864615Y-24175335D01*
X2820332Y-24068426D01*
X2743726Y-23953776D01*
X2646224Y-23856274D01*
X2625000Y-23842093D01*
X2625000Y-19723055D01*
X2631574Y-19720332D01*
X2746224Y-19643726D01*
X2843726Y-19546224D01*
X2920332Y-19431574D01*
X2973099Y-19304182D01*
X3000000Y-19168944D01*
X3000000Y-19031056D01*
X2973099Y-18895818D01*
X2920332Y-18768426D01*
X2843726Y-18653776D01*
X2746224Y-18556274D01*
X2631574Y-18479668D01*
X2504182Y-18426901D01*
X2368944Y-18400000D01*
X2231056Y-18400000D01*
X2095818Y-18426901D01*
X1968426Y-18479668D01*
X1853776Y-18556274D01*
X1756274Y-18653776D01*
X1679668Y-18768426D01*
X1626901Y-18895818D01*
X1600000Y-19031056D01*
X1600000Y-19168944D01*
X1626901Y-19304182D01*
X1679668Y-19431574D01*
X1756274Y-19546224D01*
X1775001Y-19564951D01*
X1775000Y-23842093D01*
X1753776Y-23856274D01*
X1656274Y-23953776D01*
X1579668Y-24068426D01*
X1526901Y-24195818D01*
X1500000Y-24331056D01*
X-19625000Y-24331056D01*
X-19625000Y-17731056D01*
X-1700000Y-17731056D01*
X-1700000Y-17868944D01*
X-1673099Y-18004182D01*
X-1620332Y-18131574D01*
X-1543726Y-18246224D01*
X-1446224Y-18343726D01*
X-1331574Y-18420332D01*
X-1204182Y-18473099D01*
X-1068944Y-18500000D01*
X-931056Y-18500000D01*
X-795818Y-18473099D01*
X-668426Y-18420332D01*
X-553776Y-18343726D01*
X-456274Y-18246224D01*
X-379668Y-18131574D01*
X-326901Y-18004182D01*
X-300000Y-17868944D01*
X-300000Y-17731056D01*
X-326901Y-17595818D01*
X-379668Y-17468426D01*
X-456274Y-17353776D01*
X-553776Y-17256274D01*
X-575000Y-17242093D01*
X-575000Y-13431056D01*
X1800000Y-13431056D01*
X1800000Y-13568944D01*
X1826901Y-13704182D01*
X1879668Y-13831574D01*
X1956274Y-13946224D01*
X2053776Y-14043726D01*
X2168426Y-14120332D01*
X2295818Y-14173099D01*
X2431056Y-14200000D01*
X2568944Y-14200000D01*
X2704182Y-14173099D01*
X2831574Y-14120332D01*
X2946224Y-14043726D01*
X3043726Y-13946224D01*
X3120332Y-13831574D01*
X3173099Y-13704182D01*
X3200000Y-13568944D01*
X3200000Y-13431056D01*
X3195020Y-13406021D01*
X3215279Y-13385762D01*
X3215283Y-13385757D01*
X4285762Y-12315279D01*
X4301974Y-12301974D01*
X4355084Y-12237260D01*
X4394548Y-12163427D01*
X4418850Y-12083314D01*
X4425000Y-12020874D01*
X4425000Y-12020868D01*
X4427055Y-12000001D01*
X4425000Y-11979134D01*
X4425000Y-10357907D01*
X4446224Y-10343726D01*
X4543726Y-10246224D01*
X4620332Y-10131574D01*
X4673099Y-10004182D01*
X4700000Y-9868944D01*
X4700000Y-9731056D01*
X4673099Y-9595818D01*
X4620332Y-9468426D01*
X4543726Y-9353776D01*
X4446224Y-9256274D01*
X4331574Y-9179668D01*
X4204182Y-9126901D01*
X4068944Y-9100000D01*
X3931056Y-9100000D01*
X3795818Y-9126901D01*
X3668426Y-9179668D01*
X3553776Y-9256274D01*
X3456274Y-9353776D01*
X3379668Y-9468426D01*
X3326901Y-9595818D01*
X3300000Y-9731056D01*
X3300000Y-9868944D01*
X3326901Y-10004182D01*
X3379668Y-10131574D01*
X3456274Y-10246224D01*
X3553776Y-10343726D01*
X3575000Y-10357907D01*
X3575001Y-11823958D01*
X2614243Y-12784717D01*
X2614238Y-12784721D01*
X2593979Y-12804980D01*
X2568944Y-12800000D01*
X2431056Y-12800000D01*
X2295818Y-12826901D01*
X2168426Y-12879668D01*
X2053776Y-12956274D01*
X1956274Y-13053776D01*
X1879668Y-13168426D01*
X1826901Y-13295818D01*
X1800000Y-13431056D01*
X-575000Y-13431056D01*
X-575000Y-10488850D01*
X-495818Y-10473099D01*
X-368426Y-10420332D01*
X-253776Y-10343726D01*
X-156274Y-10246224D01*
X-79668Y-10131574D01*
X-26901Y-10004182D01*
X0Y-9868944D01*
X0Y-9731056D01*
X-26901Y-9595818D01*
X-79668Y-9468426D01*
X-156274Y-9353776D01*
X-253776Y-9256274D01*
X-368426Y-9179668D01*
X-495818Y-9126901D01*
X-631056Y-9100000D01*
X-768944Y-9100000D01*
X-904182Y-9126901D01*
X-1031574Y-9179668D01*
X-1146224Y-9256274D01*
X-1243726Y-9353776D01*
X-1320332Y-9468426D01*
X-1373099Y-9595818D01*
X-1400000Y-9731056D01*
X-1400000Y-9868944D01*
X-1388717Y-9925666D01*
X-1394547Y-9936573D01*
X-1418850Y-10016686D01*
X-1427055Y-10100000D01*
X-1424999Y-10120877D01*
X-1425000Y-17242093D01*
X-1446224Y-17256274D01*
X-1543726Y-17353776D01*
X-1620332Y-17468426D01*
X-1673099Y-17595818D01*
X-1700000Y-17731056D01*
X-19625000Y-17731056D01*
X-19625000Y-420000D01*
X-10041451Y-420000D01*
X-10041451Y-2120000D01*
X-10035659Y-2178810D01*
X-10018504Y-2235360D01*
X-9990647Y-2287477D01*
X-9953158Y-2333158D01*
X-9907477Y-2370647D01*
X-9855360Y-2398504D01*
X-9798810Y-2415659D01*
X-9740000Y-2421451D01*
X-8040000Y-2421451D01*
X-7981190Y-2415659D01*
X-7924640Y-2398504D01*
X-7872523Y-2370647D01*
X-7826842Y-2333158D01*
X-7789353Y-2287477D01*
X-7761496Y-2235360D01*
X-7744341Y-2178810D01*
X-7738549Y-2120000D01*
X-7738549Y-1684581D01*
X-7529258Y-1684581D01*
X-7425718Y-1906677D01*
X-7280839Y-2104306D01*
X-7100188Y-2269873D01*
X-6890708Y-2397015D01*
X-6764579Y-2449247D01*
X-6575000Y-2397774D01*
X-6575000Y-1495000D01*
X-6125000Y-1495000D01*
X-6125000Y-2397774D01*
X-5935421Y-2449247D01*
X-5809292Y-2397015D01*
X-5599812Y-2269873D01*
X-5419161Y-2104306D01*
X-5274282Y-1906677D01*
X-5170742Y-1684581D01*
X-5220406Y-1495000D01*
X-6125000Y-1495000D01*
X-6575000Y-1495000D01*
X-7479594Y-1495000D01*
X-7529258Y-1684581D01*
X-7738549Y-1684581D01*
X-7738549Y-1270000D01*
X-4965564Y-1270000D01*
X-4943360Y-1495439D01*
X-4877602Y-1712215D01*
X-4770816Y-1911997D01*
X-4627107Y-2087107D01*
X-4451997Y-2230816D01*
X-4252215Y-2337602D01*
X-4035439Y-2403360D01*
X-3866492Y-2420000D01*
X-3753508Y-2420000D01*
X-3584561Y-2403360D01*
X-3367785Y-2337602D01*
X-3168003Y-2230816D01*
X-2992893Y-2087107D01*
X-2849184Y-1911997D01*
X-2742398Y-1712215D01*
X-2734016Y-1684581D01*
X-2449258Y-1684581D01*
X-2345718Y-1906677D01*
X-2200839Y-2104306D01*
X-2020188Y-2269873D01*
X-1810708Y-2397015D01*
X-1684579Y-2449247D01*
X-1495000Y-2397774D01*
X-1495000Y-1495000D01*
X-1045000Y-1495000D01*
X-1045000Y-2397774D01*
X-855421Y-2449247D01*
X-729292Y-2397015D01*
X-519812Y-2269873D01*
X-339161Y-2104306D01*
X-194282Y-1906677D01*
X-90742Y-1684581D01*
X-140406Y-1495000D01*
X-1045000Y-1495000D01*
X-1495000Y-1495000D01*
X-2399594Y-1495000D01*
X-2449258Y-1684581D01*
X-2734016Y-1684581D01*
X-2676640Y-1495439D01*
X-2654436Y-1270000D01*
X114436Y-1270000D01*
X136640Y-1495439D01*
X202398Y-1712215D01*
X309184Y-1911997D01*
X452893Y-2087107D01*
X628003Y-2230816D01*
X827785Y-2337602D01*
X1044561Y-2403360D01*
X1213508Y-2420000D01*
X1326492Y-2420000D01*
X1495439Y-2403360D01*
X1712215Y-2337602D01*
X1911997Y-2230816D01*
X2087107Y-2087107D01*
X2230816Y-1911997D01*
X2337602Y-1712215D01*
X2403360Y-1495439D01*
X2425564Y-1270000D01*
X2654436Y-1270000D01*
X2676640Y-1495439D01*
X2742398Y-1712215D01*
X2849184Y-1911997D01*
X2992893Y-2087107D01*
X3168003Y-2230816D01*
X3367785Y-2337602D01*
X3584561Y-2403360D01*
X3753508Y-2420000D01*
X3866492Y-2420000D01*
X4035439Y-2403360D01*
X4252215Y-2337602D01*
X4451997Y-2230816D01*
X4627107Y-2087107D01*
X4770816Y-1911997D01*
X4877602Y-1712215D01*
X4943360Y-1495439D01*
X4965564Y-1270000D01*
X5194436Y-1270000D01*
X5216640Y-1495439D01*
X5282398Y-1712215D01*
X5389184Y-1911997D01*
X5532893Y-2087107D01*
X5708003Y-2230816D01*
X5907785Y-2337602D01*
X6124561Y-2403360D01*
X6293508Y-2420000D01*
X6406492Y-2420000D01*
X6575439Y-2403360D01*
X6792215Y-2337602D01*
X6991997Y-2230816D01*
X7167107Y-2087107D01*
X7310816Y-1911997D01*
X7417602Y-1712215D01*
X7483360Y-1495439D01*
X7505564Y-1270000D01*
X7734436Y-1270000D01*
X7756640Y-1495439D01*
X7822398Y-1712215D01*
X7929184Y-1911997D01*
X8072893Y-2087107D01*
X8248003Y-2230816D01*
X8447785Y-2337602D01*
X8664561Y-2403360D01*
X8833508Y-2420000D01*
X8946492Y-2420000D01*
X9115439Y-2403360D01*
X9332215Y-2337602D01*
X9531997Y-2230816D01*
X9707107Y-2087107D01*
X9850816Y-1911997D01*
X9957602Y-1712215D01*
X10023360Y-1495439D01*
X10045564Y-1270000D01*
X10023360Y-1044561D01*
X9957602Y-827785D01*
X9850816Y-628003D01*
X9707107Y-452893D01*
X9531997Y-309184D01*
X9332215Y-202398D01*
X9115439Y-136640D01*
X8946492Y-120000D01*
X8833508Y-120000D01*
X8664561Y-136640D01*
X8447785Y-202398D01*
X8248003Y-309184D01*
X8072893Y-452893D01*
X7929184Y-628003D01*
X7822398Y-827785D01*
X7756640Y-1044561D01*
X7734436Y-1270000D01*
X7505564Y-1270000D01*
X7483360Y-1044561D01*
X7417602Y-827785D01*
X7310816Y-628003D01*
X7167107Y-452893D01*
X6991997Y-309184D01*
X6792215Y-202398D01*
X6575439Y-136640D01*
X6406492Y-120000D01*
X6293508Y-120000D01*
X6124561Y-136640D01*
X5907785Y-202398D01*
X5708003Y-309184D01*
X5532893Y-452893D01*
X5389184Y-628003D01*
X5282398Y-827785D01*
X5216640Y-1044561D01*
X5194436Y-1270000D01*
X4965564Y-1270000D01*
X4943360Y-1044561D01*
X4877602Y-827785D01*
X4770816Y-628003D01*
X4627107Y-452893D01*
X4451997Y-309184D01*
X4252215Y-202398D01*
X4035439Y-136640D01*
X3866492Y-120000D01*
X3753508Y-120000D01*
X3584561Y-136640D01*
X3367785Y-202398D01*
X3168003Y-309184D01*
X2992893Y-452893D01*
X2849184Y-628003D01*
X2742398Y-827785D01*
X2676640Y-1044561D01*
X2654436Y-1270000D01*
X2425564Y-1270000D01*
X2403360Y-1044561D01*
X2337602Y-827785D01*
X2230816Y-628003D01*
X2087107Y-452893D01*
X1911997Y-309184D01*
X1712215Y-202398D01*
X1495439Y-136640D01*
X1326492Y-120000D01*
X1213508Y-120000D01*
X1044561Y-136640D01*
X827785Y-202398D01*
X628003Y-309184D01*
X452893Y-452893D01*
X309184Y-628003D01*
X202398Y-827785D01*
X136640Y-1044561D01*
X114436Y-1270000D01*
X-2654436Y-1270000D01*
X-2676640Y-1044561D01*
X-2734015Y-855419D01*
X-2449258Y-855419D01*
X-2399594Y-1045000D01*
X-1495000Y-1045000D01*
X-1495000Y-142226D01*
X-1045000Y-142226D01*
X-1045000Y-1045000D01*
X-140406Y-1045000D01*
X-90742Y-855419D01*
X-194282Y-633323D01*
X-339161Y-435694D01*
X-519812Y-270127D01*
X-729292Y-142985D01*
X-855421Y-90753D01*
X-1045000Y-142226D01*
X-1495000Y-142226D01*
X-1684579Y-90753D01*
X-1810708Y-142985D01*
X-2020188Y-270127D01*
X-2200839Y-435694D01*
X-2345718Y-633323D01*
X-2449258Y-855419D01*
X-2734015Y-855419D01*
X-2742398Y-827785D01*
X-2849184Y-628003D01*
X-2992893Y-452893D01*
X-3168003Y-309184D01*
X-3367785Y-202398D01*
X-3584561Y-136640D01*
X-3753508Y-120000D01*
X-3866492Y-120000D01*
X-4035439Y-136640D01*
X-4252215Y-202398D01*
X-4451997Y-309184D01*
X-4627107Y-452893D01*
X-4770816Y-628003D01*
X-4877602Y-827785D01*
X-4943360Y-1044561D01*
X-4965564Y-1270000D01*
X-7738549Y-1270000D01*
X-7738549Y-855419D01*
X-7529258Y-855419D01*
X-7479594Y-1045000D01*
X-6575000Y-1045000D01*
X-6575000Y-142226D01*
X-6125000Y-142226D01*
X-6125000Y-1045000D01*
X-5220406Y-1045000D01*
X-5170742Y-855419D01*
X-5274282Y-633323D01*
X-5419161Y-435694D01*
X-5599812Y-270127D01*
X-5809292Y-142985D01*
X-5935421Y-90753D01*
X-6125000Y-142226D01*
X-6575000Y-142226D01*
X-6764579Y-90753D01*
X-6890708Y-142985D01*
X-7100188Y-270127D01*
X-7280839Y-435694D01*
X-7425718Y-633323D01*
X-7529258Y-855419D01*
X-7738549Y-855419D01*
X-7738549Y-420000D01*
X-7744341Y-361190D01*
X-7761496Y-304640D01*
X-7789353Y-252523D01*
X-7826842Y-206842D01*
X-7872523Y-169353D01*
X-7924640Y-141496D01*
X-7981190Y-124341D01*
X-8040000Y-118549D01*
X-9740000Y-118549D01*
X-9798810Y-124341D01*
X-9855360Y-141496D01*
X-9907477Y-169353D01*
X-9953158Y-206842D01*
X-9990647Y-252523D01*
X-10018504Y-304640D01*
X-10035659Y-361190D01*
X-10041451Y-420000D01*
X-19625000Y-420000D01*
X-19625000Y1270000D01*
X-10045564Y1270000D01*
X-10023360Y1044561D01*
X-9957602Y827785D01*
X-9850816Y628003D01*
X-9707107Y452893D01*
X-9531997Y309184D01*
X-9332215Y202398D01*
X-9115439Y136640D01*
X-8946492Y120000D01*
X-8833508Y120000D01*
X-8664561Y136640D01*
X-8447785Y202398D01*
X-8248003Y309184D01*
X-8072893Y452893D01*
X-7929184Y628003D01*
X-7822398Y827785D01*
X-7756640Y1044561D01*
X-7734436Y1270000D01*
X-7505564Y1270000D01*
X-7483360Y1044561D01*
X-7417602Y827785D01*
X-7310816Y628003D01*
X-7167107Y452893D01*
X-6991997Y309184D01*
X-6792215Y202398D01*
X-6575439Y136640D01*
X-6406492Y120000D01*
X-6293508Y120000D01*
X-6124561Y136640D01*
X-5907785Y202398D01*
X-5708003Y309184D01*
X-5532893Y452893D01*
X-5389184Y628003D01*
X-5282398Y827785D01*
X-5274016Y855419D01*
X-4989258Y855419D01*
X-4885718Y633323D01*
X-4740839Y435694D01*
X-4560188Y270127D01*
X-4350708Y142985D01*
X-4224579Y90753D01*
X-4035000Y142226D01*
X-4035000Y1045000D01*
X-3585000Y1045000D01*
X-3585000Y142226D01*
X-3395421Y90753D01*
X-3269292Y142985D01*
X-3059812Y270127D01*
X-2879161Y435694D01*
X-2734282Y633323D01*
X-2630742Y855419D01*
X-2680406Y1045000D01*
X-3585000Y1045000D01*
X-4035000Y1045000D01*
X-4939594Y1045000D01*
X-4989258Y855419D01*
X-5274016Y855419D01*
X-5216640Y1044561D01*
X-5194436Y1270000D01*
X-2425564Y1270000D01*
X-2403360Y1044561D01*
X-2337602Y827785D01*
X-2230816Y628003D01*
X-2087107Y452893D01*
X-1911997Y309184D01*
X-1712215Y202398D01*
X-1495439Y136640D01*
X-1326492Y120000D01*
X-1213508Y120000D01*
X-1044561Y136640D01*
X-827785Y202398D01*
X-628003Y309184D01*
X-452893Y452893D01*
X-309184Y628003D01*
X-202398Y827785D01*
X-136640Y1044561D01*
X-114436Y1270000D01*
X114436Y1270000D01*
X136640Y1044561D01*
X202398Y827785D01*
X309184Y628003D01*
X452893Y452893D01*
X628003Y309184D01*
X827785Y202398D01*
X1044561Y136640D01*
X1213508Y120000D01*
X1326492Y120000D01*
X1495439Y136640D01*
X1712215Y202398D01*
X1911997Y309184D01*
X2087107Y452893D01*
X2230816Y628003D01*
X2337602Y827785D01*
X2403360Y1044561D01*
X2425564Y1270000D01*
X2654436Y1270000D01*
X2676640Y1044561D01*
X2742398Y827785D01*
X2849184Y628003D01*
X2992893Y452893D01*
X3168003Y309184D01*
X3367785Y202398D01*
X3584561Y136640D01*
X3753508Y120000D01*
X3866492Y120000D01*
X4035439Y136640D01*
X4252215Y202398D01*
X4451997Y309184D01*
X4627107Y452893D01*
X4770816Y628003D01*
X4877602Y827785D01*
X4943360Y1044561D01*
X4965564Y1270000D01*
X5194436Y1270000D01*
X5216640Y1044561D01*
X5282398Y827785D01*
X5389184Y628003D01*
X5532893Y452893D01*
X5708003Y309184D01*
X5907785Y202398D01*
X6124561Y136640D01*
X6293508Y120000D01*
X6406492Y120000D01*
X6575439Y136640D01*
X6792215Y202398D01*
X6991997Y309184D01*
X7167107Y452893D01*
X7310816Y628003D01*
X7417602Y827785D01*
X7483360Y1044561D01*
X7505564Y1270000D01*
X7734436Y1270000D01*
X7756640Y1044561D01*
X7822398Y827785D01*
X7929184Y628003D01*
X8072893Y452893D01*
X8248003Y309184D01*
X8447785Y202398D01*
X8664561Y136640D01*
X8833508Y120000D01*
X8946492Y120000D01*
X9115439Y136640D01*
X9332215Y202398D01*
X9531997Y309184D01*
X9707107Y452893D01*
X9850816Y628003D01*
X9957602Y827785D01*
X10023360Y1044561D01*
X10045564Y1270000D01*
X10023360Y1495439D01*
X9957602Y1712215D01*
X9850816Y1911997D01*
X9707107Y2087107D01*
X9531997Y2230816D01*
X9332215Y2337602D01*
X9115439Y2403360D01*
X8946492Y2420000D01*
X8833508Y2420000D01*
X8664561Y2403360D01*
X8447785Y2337602D01*
X8248003Y2230816D01*
X8072893Y2087107D01*
X7929184Y1911997D01*
X7822398Y1712215D01*
X7756640Y1495439D01*
X7734436Y1270000D01*
X7505564Y1270000D01*
X7483360Y1495439D01*
X7417602Y1712215D01*
X7310816Y1911997D01*
X7167107Y2087107D01*
X6991997Y2230816D01*
X6792215Y2337602D01*
X6575439Y2403360D01*
X6406492Y2420000D01*
X6293508Y2420000D01*
X6124561Y2403360D01*
X5907785Y2337602D01*
X5708003Y2230816D01*
X5532893Y2087107D01*
X5389184Y1911997D01*
X5282398Y1712215D01*
X5216640Y1495439D01*
X5194436Y1270000D01*
X4965564Y1270000D01*
X4943360Y1495439D01*
X4877602Y1712215D01*
X4770816Y1911997D01*
X4627107Y2087107D01*
X4451997Y2230816D01*
X4252215Y2337602D01*
X4035439Y2403360D01*
X3866492Y2420000D01*
X3753508Y2420000D01*
X3584561Y2403360D01*
X3367785Y2337602D01*
X3168003Y2230816D01*
X2992893Y2087107D01*
X2849184Y1911997D01*
X2742398Y1712215D01*
X2676640Y1495439D01*
X2654436Y1270000D01*
X2425564Y1270000D01*
X2403360Y1495439D01*
X2337602Y1712215D01*
X2230816Y1911997D01*
X2087107Y2087107D01*
X1911997Y2230816D01*
X1712215Y2337602D01*
X1495439Y2403360D01*
X1326492Y2420000D01*
X1213508Y2420000D01*
X1044561Y2403360D01*
X827785Y2337602D01*
X628003Y2230816D01*
X452893Y2087107D01*
X309184Y1911997D01*
X202398Y1712215D01*
X136640Y1495439D01*
X114436Y1270000D01*
X-114436Y1270000D01*
X-136640Y1495439D01*
X-202398Y1712215D01*
X-309184Y1911997D01*
X-452893Y2087107D01*
X-628003Y2230816D01*
X-827785Y2337602D01*
X-1044561Y2403360D01*
X-1213508Y2420000D01*
X-1326492Y2420000D01*
X-1495439Y2403360D01*
X-1712215Y2337602D01*
X-1911997Y2230816D01*
X-2087107Y2087107D01*
X-2230816Y1911997D01*
X-2337602Y1712215D01*
X-2403360Y1495439D01*
X-2425564Y1270000D01*
X-5194436Y1270000D01*
X-5216640Y1495439D01*
X-5274015Y1684581D01*
X-4989258Y1684581D01*
X-4939594Y1495000D01*
X-4035000Y1495000D01*
X-4035000Y2397774D01*
X-3585000Y2397774D01*
X-3585000Y1495000D01*
X-2680406Y1495000D01*
X-2630742Y1684581D01*
X-2734282Y1906677D01*
X-2879161Y2104306D01*
X-3059812Y2269873D01*
X-3269292Y2397015D01*
X-3395421Y2449247D01*
X-3585000Y2397774D01*
X-4035000Y2397774D01*
X-4224579Y2449247D01*
X-4350708Y2397015D01*
X-4560188Y2269873D01*
X-4740839Y2104306D01*
X-4885718Y1906677D01*
X-4989258Y1684581D01*
X-5274015Y1684581D01*
X-5282398Y1712215D01*
X-5389184Y1911997D01*
X-5532893Y2087107D01*
X-5708003Y2230816D01*
X-5907785Y2337602D01*
X-6124561Y2403360D01*
X-6293508Y2420000D01*
X-6406492Y2420000D01*
X-6575439Y2403360D01*
X-6792215Y2337602D01*
X-6991997Y2230816D01*
X-7167107Y2087107D01*
X-7310816Y1911997D01*
X-7417602Y1712215D01*
X-7483360Y1495439D01*
X-7505564Y1270000D01*
X-7734436Y1270000D01*
X-7756640Y1495439D01*
X-7822398Y1712215D01*
X-7929184Y1911997D01*
X-8072893Y2087107D01*
X-8248003Y2230816D01*
X-8447785Y2337602D01*
X-8664561Y2403360D01*
X-8833508Y2420000D01*
X-8946492Y2420000D01*
X-9115439Y2403360D01*
X-9332215Y2337602D01*
X-9531997Y2230816D01*
X-9707107Y2087107D01*
X-9850816Y1911997D01*
X-9957602Y1712215D01*
X-10023360Y1495439D01*
X-10045564Y1270000D01*
X-19625000Y1270000D01*
X-19625000Y1981662D01*
X-19573243Y2509514D01*
X-19425271Y2999622D01*
X-19184920Y3451659D01*
X-18861346Y3848399D01*
X-18466877Y4174733D01*
X-18016532Y4418233D01*
X-17527470Y4569623D01*
X-17000640Y4624995D01*
X-16999267Y4625000D01*
X16981662Y4625000D01*
X17509514Y4573243D01*
M02*
