M48
; DRILL file {KiCad (5.1.0-10-g6006703)} date Sat 20 Apr 2019 09:28:14 PM CST
; FORMAT={-:-/ absolute / metric / decimal}
; #@! TF.CreationDate,2019-04-20T21:28:14+08:00
; #@! TF.GenerationSoftware,Kicad,Pcbnew,(5.1.0-10-g6006703)
FMAT,2
METRIC
T1C0.400
T2C0.650
T3C0.800
T4C1.000
T5C3.200
%
G90
G05
T1
X-18.4Y-24.0
X-18.3Y-36.6
X-18.3Y-38.8
X-18.2Y-29.0
X-18.2Y-30.0
X-18.2Y-31.0
X-17.9Y-45.5
X-17.8Y-50.0
X-17.5Y1.3
X-17.5Y-3.1
X-17.4Y-19.2
X-17.2Y-9.5
X-16.6Y-29.1
X-16.6Y-39.7
X-15.3Y3.1
X-15.3Y-5.5
X-15.3Y-45.3
X-14.9Y-36.6
X-14.9Y-38.8
X-14.3Y-16.3
X-12.4Y-53.2
X-11.4Y-0.1
X-11.1Y3.9
X-10.575Y-43.525
X-10.5Y-36.1
X-10.4Y-4.0
X-9.9Y-46.7
X-9.8Y-49.45
X-9.8Y-50.4
X-9.5Y-25.1
X-9.5Y-28.2
X-8.8Y-5.4
X-8.4Y-43.7
X-8.3Y-40.7
X-8.2Y-22.7
X-7.7Y-10.7
X-7.6Y-52.2
X-7.575Y-49.7
X-6.66Y-47.43
X-6.5Y-33.5
X-6.2Y-40.5
X-5.7Y-45.3
X-5.63Y-48.51
X-5.62Y-49.52
X-5.57Y-47.29
X-5.5Y-46.3
X-5.075Y-43.6
X-5.0Y-44.6
X-4.8Y-20.2
X-4.8Y-23.5
X-4.7Y-7.2
X-4.4Y-46.8
X-4.4Y-50.3
X-4.0Y-43.6
X-4.0Y-44.6
X-3.93Y-51.23
X-3.8Y4.1
X-2.9Y-43.65
X-2.844Y-51.275
X-2.5Y-5.5
X-2.5Y-22.0
X-2.2Y-29.9
X-1.84Y-51.23
X-1.4Y-50.3
X-1.0Y-17.8
X-1.0Y-42.2
X-1.0Y-46.6
X-0.7Y-6.2
X-0.7Y-9.8
X-0.5Y-21.0
X-0.5Y-35.24
X-0.46Y-36.45
X-0.3Y-47.5
X-0.3Y-48.5
X-0.1Y-12.3
X-0.1Y-42.6
X-0.1Y-44.6
X-0.1Y-45.6
X-0.05Y-43.6
X0.4Y-40.6
X1.8Y-55.9
X2.2Y-24.4
X2.3Y-19.1
X2.4Y-44.3
X2.5Y-13.5
X2.5Y-41.7
X2.81Y-35.48
X3.15Y-50.85
X3.3Y-3.6
X3.4Y-32.8
X3.88Y-35.47
X4.0Y-9.8
X4.3Y4.0
X4.3Y-3.6
X4.35Y-50.85
X5.2Y-12.1
X5.4Y-8.8
X6.9Y-19.0
X7.6Y-56.0
X7.9Y-14.8
X8.0Y-46.15
X8.3Y-8.4
X8.4Y-51.2
X9.24Y-42.72
X9.24Y-43.72
X9.24Y-44.72
X11.0Y4.1
X11.6Y-10.4
X11.7Y-50.6
X11.8Y-7.3
X11.8Y-19.3
X11.9Y-5.2
X12.0Y-14.7
X12.4Y-54.7
X12.8Y-23.3
X13.3Y-34.9
X13.65Y-43.07
X13.9Y-50.2
X14.3Y-33.9
X14.6Y-47.0
X14.873Y-43.071
X14.9Y-40.44
X14.97Y-45.65
X15.7Y-7.0
X15.8Y-32.5
X16.0Y-43.04
X16.2Y3.1
X16.2Y-1.2
X16.25Y-45.71
X16.6Y-33.6
X16.65Y-10.325
X17.0Y-12.7
X17.1Y-25.5
X17.3Y-40.4
X17.4Y-21.6
X17.5Y-48.0
X18.3Y-47.2
X18.7Y-52.0
X18.9Y-49.2
X19.1Y-1.2
T3
X12.9Y-28.8
X15.4Y-28.8
X6.5Y-25.1
X9.0Y-25.1
X6.5Y-32.1
X9.0Y-32.1
X6.0Y-40.8
X6.0Y-43.3
T4
X-8.89Y1.27
X-8.89Y-1.27
X-6.35Y1.27
X-6.35Y-1.27
X-3.81Y1.27
X-3.81Y-1.27
X-1.27Y1.27
X-1.27Y-1.27
X1.27Y1.27
X1.27Y-1.27
X3.81Y1.27
X3.81Y-1.27
X6.35Y1.27
X6.35Y-1.27
X8.89Y1.27
X8.89Y-1.27
T5
X17.0Y-57.0
X-17.0Y-57.0
T2
G00X-10.9Y-56.375
M15
G01X-10.9Y-57.225
M16
G05
G00X-9.725Y-53.8
M15
G01X-9.725Y-54.0
M16
G05
G00X-4.875Y-53.8
M15
G01X-4.875Y-54.0
M16
G05
G00X-3.7Y-56.375
M15
G01X-3.7Y-57.225
M16
G05
T0
M30
