G04 #@! TF.GenerationSoftware,KiCad,Pcbnew,(5.1.0-10-g6006703)*
G04 #@! TF.CreationDate,2019-04-20T21:28:09+08:00*
G04 #@! TF.ProjectId,cicada-2g,63696361-6461-42d3-9267-2e6b69636164,0.1*
G04 #@! TF.SameCoordinates,PX7cee6c0PY3dfd240*
G04 #@! TF.FileFunction,Soldermask,Top*
G04 #@! TF.FilePolarity,Negative*
%FSLAX46Y46*%
G04 Gerber Fmt 4.6, Leading zero omitted, Abs format (unit mm)*
G04 Created by KiCad (PCBNEW (5.1.0-10-g6006703)) date 2019-04-20 21:28:09*
%MOMM*%
%LPD*%
G04 APERTURE LIST*
%ADD10C,0.150000*%
G04 APERTURE END LIST*
D10*
X-2500000Y-60000000D02*
X17000000Y-60000000D01*
X-2500000Y-58300000D02*
X-2500000Y-60000000D01*
X-12000000Y-58300000D02*
X-2500000Y-58300000D01*
X-12000000Y-60000000D02*
X-12000000Y-58300000D01*
X-17000000Y-60000000D02*
G75*
G02X-20000000Y-57000000I0J3000000D01*
G01*
X20000000Y-57000000D02*
G75*
G02X17000000Y-60000000I-3000000J0D01*
G01*
X17000000Y5000000D02*
G75*
G02X20000000Y2000000I0J-3000000D01*
G01*
X-20000000Y2000000D02*
G75*
G02X-17000000Y5000000I3000000J0D01*
G01*
X-20000000Y-57000000D02*
X-20000000Y2000000D01*
X-12000000Y-60000000D02*
X-17000000Y-60000000D01*
X20000000Y2000000D02*
X20000000Y-57000000D01*
X-17000000Y5000000D02*
X17000000Y5000000D01*
G36*
X17802144Y-54355680D02*
G01*
X18302612Y-54562981D01*
X18753022Y-54863935D01*
X19136065Y-55246978D01*
X19437019Y-55697388D01*
X19644320Y-56197856D01*
X19750000Y-56729147D01*
X19750000Y-57270853D01*
X19644320Y-57802144D01*
X19437019Y-58302612D01*
X19136065Y-58753022D01*
X18753022Y-59136065D01*
X18302612Y-59437019D01*
X17802144Y-59644320D01*
X17270853Y-59750000D01*
X16729147Y-59750000D01*
X16197856Y-59644320D01*
X15697388Y-59437019D01*
X15246978Y-59136065D01*
X14863935Y-58753022D01*
X14562981Y-58302612D01*
X14355680Y-57802144D01*
X14250000Y-57270853D01*
X14250000Y-56729147D01*
X14355680Y-56197856D01*
X14562981Y-55697388D01*
X14863935Y-55246978D01*
X15246978Y-54863935D01*
X15697388Y-54562981D01*
X16197856Y-54355680D01*
X16729147Y-54250000D01*
X17270853Y-54250000D01*
X17802144Y-54355680D01*
X17802144Y-54355680D01*
G37*
G36*
X-16197856Y-54355680D02*
G01*
X-15697388Y-54562981D01*
X-15246978Y-54863935D01*
X-14863935Y-55246978D01*
X-14562981Y-55697388D01*
X-14355680Y-56197856D01*
X-14250000Y-56729147D01*
X-14250000Y-57270853D01*
X-14355680Y-57802144D01*
X-14562981Y-58302612D01*
X-14863935Y-58753022D01*
X-15246978Y-59136065D01*
X-15697388Y-59437019D01*
X-16197856Y-59644320D01*
X-16729147Y-59750000D01*
X-17270853Y-59750000D01*
X-17802144Y-59644320D01*
X-18302612Y-59437019D01*
X-18753022Y-59136065D01*
X-19136065Y-58753022D01*
X-19437019Y-58302612D01*
X-19644320Y-57802144D01*
X-19750000Y-57270853D01*
X-19750000Y-56729147D01*
X-19644320Y-56197856D01*
X-19437019Y-55697388D01*
X-19136065Y-55246978D01*
X-18753022Y-54863935D01*
X-18302612Y-54562981D01*
X-17802144Y-54355680D01*
X-17270853Y-54250000D01*
X-16729147Y-54250000D01*
X-16197856Y-54355680D01*
X-16197856Y-54355680D01*
G37*
G36*
X-3666227Y-55799398D02*
G01*
X-3653975Y-55800000D01*
X-2764095Y-55800000D01*
X-2763389Y-55800860D01*
X-2744447Y-55816405D01*
X-2722841Y-55827953D01*
X-2707897Y-55834143D01*
X-2658761Y-55866974D01*
X-2616974Y-55908761D01*
X-2584143Y-55957897D01*
X-2577953Y-55972841D01*
X-2566405Y-55994446D01*
X-2550860Y-56013388D01*
X-2550000Y-56014094D01*
X-2550000Y-57585905D01*
X-2550860Y-57586611D01*
X-2566405Y-57605553D01*
X-2577953Y-57627159D01*
X-2584143Y-57642103D01*
X-2616974Y-57691239D01*
X-2658761Y-57733026D01*
X-2707897Y-57765857D01*
X-2722841Y-57772047D01*
X-2744446Y-57783595D01*
X-2763388Y-57799140D01*
X-2764094Y-57800000D01*
X-3653975Y-57800000D01*
X-3666227Y-57800602D01*
X-3700000Y-57803928D01*
X-3733773Y-57800602D01*
X-3746025Y-57800000D01*
X-4750000Y-57800000D01*
X-4750000Y-55800000D01*
X-3746025Y-55800000D01*
X-3733773Y-55799398D01*
X-3700000Y-55796072D01*
X-3666227Y-55799398D01*
X-3666227Y-55799398D01*
G37*
G36*
X-10866227Y-55799398D02*
G01*
X-10853975Y-55800000D01*
X-9850000Y-55800000D01*
X-9850000Y-57800000D01*
X-10853975Y-57800000D01*
X-10866227Y-57800602D01*
X-10900000Y-57803928D01*
X-10933773Y-57800602D01*
X-10946025Y-57800000D01*
X-11835905Y-57800000D01*
X-11836611Y-57799140D01*
X-11855553Y-57783595D01*
X-11877159Y-57772047D01*
X-11892103Y-57765857D01*
X-11941239Y-57733026D01*
X-11983026Y-57691239D01*
X-12015857Y-57642103D01*
X-12022047Y-57627159D01*
X-12033595Y-57605554D01*
X-12049140Y-57586612D01*
X-12050000Y-57585906D01*
X-12050000Y-56014095D01*
X-12049140Y-56013389D01*
X-12033595Y-55994447D01*
X-12022047Y-55972841D01*
X-12015857Y-55957897D01*
X-11983026Y-55908761D01*
X-11941239Y-55866974D01*
X-11892103Y-55834143D01*
X-11877159Y-55827953D01*
X-11855554Y-55816405D01*
X-11836612Y-55800860D01*
X-11835906Y-55800000D01*
X-10946025Y-55800000D01*
X-10933773Y-55799398D01*
X-10900000Y-55796072D01*
X-10866227Y-55799398D01*
X-10866227Y-55799398D01*
G37*
G36*
X-7500000Y-57800000D02*
G01*
X-9400000Y-57800000D01*
X-9400000Y-55800000D01*
X-7500000Y-55800000D01*
X-7500000Y-57800000D01*
X-7500000Y-57800000D01*
G37*
G36*
X-5200000Y-57800000D02*
G01*
X-7100000Y-57800000D01*
X-7100000Y-55800000D01*
X-5200000Y-55800000D01*
X-5200000Y-57800000D01*
X-5200000Y-57800000D01*
G37*
G36*
X-5750000Y-54850000D02*
G01*
X-8850000Y-54850000D01*
X-8850000Y-53400000D01*
X-5750000Y-53400000D01*
X-5750000Y-54850000D01*
X-5750000Y-54850000D01*
G37*
G36*
X-9622387Y-53232325D02*
G01*
X-9612280Y-53233320D01*
X-9558087Y-53249760D01*
X-9503893Y-53266199D01*
X-9404003Y-53319592D01*
X-9316446Y-53391446D01*
X-9244592Y-53479002D01*
X-9191199Y-53578892D01*
X-9158320Y-53687280D01*
X-9150000Y-53771754D01*
X-9150000Y-54028245D01*
X-9157131Y-54100651D01*
X-9158320Y-54112720D01*
X-9174760Y-54166913D01*
X-9191199Y-54221107D01*
X-9191200Y-54221108D01*
X-9244592Y-54320998D01*
X-9266917Y-54348201D01*
X-9316446Y-54408554D01*
X-9404002Y-54480408D01*
X-9503892Y-54533801D01*
X-9558086Y-54550241D01*
X-9612279Y-54566680D01*
X-9622386Y-54567675D01*
X-9725000Y-54577782D01*
X-9827613Y-54567675D01*
X-9837720Y-54566680D01*
X-9891913Y-54550241D01*
X-9946107Y-54533801D01*
X-10045997Y-54480408D01*
X-10133553Y-54408554D01*
X-10205407Y-54320998D01*
X-10258801Y-54221108D01*
X-10291680Y-54112720D01*
X-10300000Y-54028246D01*
X-10300000Y-53771755D01*
X-10291680Y-53687281D01*
X-10291679Y-53687279D01*
X-10258801Y-53578894D01*
X-10258801Y-53578893D01*
X-10205408Y-53479003D01*
X-10133554Y-53391446D01*
X-10045998Y-53319592D01*
X-9946108Y-53266199D01*
X-9891914Y-53249760D01*
X-9837721Y-53233320D01*
X-9827614Y-53232325D01*
X-9725000Y-53222218D01*
X-9622387Y-53232325D01*
X-9622387Y-53232325D01*
G37*
G36*
X-4772387Y-53232325D02*
G01*
X-4762280Y-53233320D01*
X-4708087Y-53249760D01*
X-4653893Y-53266199D01*
X-4554003Y-53319592D01*
X-4466446Y-53391446D01*
X-4394592Y-53479002D01*
X-4341199Y-53578892D01*
X-4308320Y-53687280D01*
X-4300000Y-53771754D01*
X-4300000Y-54028245D01*
X-4307131Y-54100651D01*
X-4308320Y-54112720D01*
X-4324760Y-54166913D01*
X-4341199Y-54221107D01*
X-4341200Y-54221108D01*
X-4394592Y-54320998D01*
X-4416917Y-54348201D01*
X-4466446Y-54408554D01*
X-4554002Y-54480408D01*
X-4653892Y-54533801D01*
X-4708086Y-54550241D01*
X-4762279Y-54566680D01*
X-4772386Y-54567675D01*
X-4875000Y-54577782D01*
X-4977613Y-54567675D01*
X-4987720Y-54566680D01*
X-5041913Y-54550241D01*
X-5096107Y-54533801D01*
X-5195997Y-54480408D01*
X-5283553Y-54408554D01*
X-5355407Y-54320998D01*
X-5408801Y-54221108D01*
X-5441680Y-54112720D01*
X-5450000Y-54028246D01*
X-5450000Y-53771755D01*
X-5441680Y-53687281D01*
X-5441679Y-53687279D01*
X-5408801Y-53578894D01*
X-5408801Y-53578893D01*
X-5355408Y-53479003D01*
X-5283554Y-53391446D01*
X-5195998Y-53319592D01*
X-5096108Y-53266199D01*
X-5041914Y-53249760D01*
X-4987721Y-53233320D01*
X-4977614Y-53232325D01*
X-4875000Y-53222218D01*
X-4772387Y-53232325D01*
X-4772387Y-53232325D01*
G37*
G36*
X-7275000Y-51430000D02*
G01*
X-7925000Y-51430000D01*
X-7925000Y-50370000D01*
X-7275000Y-50370000D01*
X-7275000Y-51430000D01*
X-7275000Y-51430000D01*
G37*
G36*
X-6325000Y-51430000D02*
G01*
X-6975000Y-51430000D01*
X-6975000Y-50370000D01*
X-6325000Y-50370000D01*
X-6325000Y-51430000D01*
X-6325000Y-51430000D01*
G37*
G36*
X-8225000Y-51430000D02*
G01*
X-8875000Y-51430000D01*
X-8875000Y-50370000D01*
X-8225000Y-50370000D01*
X-8225000Y-51430000D01*
X-8225000Y-51430000D01*
G37*
G36*
X-2400000Y-50570000D02*
G01*
X-3400000Y-50570000D01*
X-3400000Y-49570000D01*
X-2400000Y-49570000D01*
X-2400000Y-50570000D01*
X-2400000Y-50570000D01*
G37*
G36*
X5600000Y-49700000D02*
G01*
X3100000Y-49700000D01*
X3100000Y-47900000D01*
X5600000Y-47900000D01*
X5600000Y-49700000D01*
X5600000Y-49700000D01*
G37*
G36*
X9600000Y-49700000D02*
G01*
X7100000Y-49700000D01*
X7100000Y-47900000D01*
X9600000Y-47900000D01*
X9600000Y-49700000D01*
X9600000Y-49700000D01*
G37*
G36*
X-900000Y-49670000D02*
G01*
X-1950000Y-49670000D01*
X-1950000Y-47470000D01*
X-900000Y-47470000D01*
X-900000Y-49670000D01*
X-900000Y-49670000D01*
G37*
G36*
X-3850000Y-49670000D02*
G01*
X-4900000Y-49670000D01*
X-4900000Y-47470000D01*
X-3850000Y-47470000D01*
X-3850000Y-49670000D01*
X-3850000Y-49670000D01*
G37*
G36*
X-7275000Y-49230000D02*
G01*
X-7925000Y-49230000D01*
X-7925000Y-48170000D01*
X-7275000Y-48170000D01*
X-7275000Y-49230000D01*
X-7275000Y-49230000D01*
G37*
G36*
X-8225000Y-49230000D02*
G01*
X-8875000Y-49230000D01*
X-8875000Y-48170000D01*
X-8225000Y-48170000D01*
X-8225000Y-49230000D01*
X-8225000Y-49230000D01*
G37*
G36*
X-6325000Y-49230000D02*
G01*
X-6975000Y-49230000D01*
X-6975000Y-48170000D01*
X-6325000Y-48170000D01*
X-6325000Y-49230000D01*
X-6325000Y-49230000D01*
G37*
G36*
X-2400000Y-47570000D02*
G01*
X-3400000Y-47570000D01*
X-3400000Y-46570000D01*
X-2400000Y-46570000D01*
X-2400000Y-47570000D01*
X-2400000Y-47570000D01*
G37*
G36*
X11303991Y-45629075D02*
G01*
X11337879Y-45639355D01*
X11369112Y-45656050D01*
X11396486Y-45678514D01*
X11418950Y-45705888D01*
X11435645Y-45737121D01*
X11445925Y-45771009D01*
X11450000Y-45812388D01*
X11450000Y-46412612D01*
X11445925Y-46453991D01*
X11435645Y-46487879D01*
X11418950Y-46519112D01*
X11396486Y-46546486D01*
X11369112Y-46568950D01*
X11337879Y-46585645D01*
X11303991Y-46595925D01*
X11262612Y-46600000D01*
X10237388Y-46600000D01*
X10196009Y-46595925D01*
X10162121Y-46585645D01*
X10130888Y-46568950D01*
X10103514Y-46546486D01*
X10081050Y-46519112D01*
X10064355Y-46487879D01*
X10054075Y-46453991D01*
X10050000Y-46412612D01*
X10050000Y-45812388D01*
X10054075Y-45771009D01*
X10064355Y-45737121D01*
X10081050Y-45705888D01*
X10103514Y-45678514D01*
X10130888Y-45656050D01*
X10162121Y-45639355D01*
X10196009Y-45629075D01*
X10237388Y-45625000D01*
X11262612Y-45625000D01*
X11303991Y-45629075D01*
X11303991Y-45629075D01*
G37*
G36*
X-783537Y-45282226D02*
G01*
X-767701Y-45287030D01*
X-753114Y-45294827D01*
X-740323Y-45305323D01*
X-729827Y-45318114D01*
X-722030Y-45332701D01*
X-717226Y-45348537D01*
X-715000Y-45371140D01*
X-715000Y-45828860D01*
X-717226Y-45851463D01*
X-722030Y-45867299D01*
X-729827Y-45881886D01*
X-740323Y-45894677D01*
X-753114Y-45905173D01*
X-767701Y-45912970D01*
X-783537Y-45917774D01*
X-806140Y-45920000D01*
X-1213860Y-45920000D01*
X-1236463Y-45917774D01*
X-1252299Y-45912970D01*
X-1266886Y-45905173D01*
X-1279677Y-45894677D01*
X-1290173Y-45881886D01*
X-1297970Y-45867299D01*
X-1302774Y-45851463D01*
X-1305000Y-45828860D01*
X-1305000Y-45371140D01*
X-1302774Y-45348537D01*
X-1297970Y-45332701D01*
X-1290173Y-45318114D01*
X-1279677Y-45305323D01*
X-1266886Y-45294827D01*
X-1252299Y-45287030D01*
X-1236463Y-45282226D01*
X-1213860Y-45280000D01*
X-806140Y-45280000D01*
X-783537Y-45282226D01*
X-783537Y-45282226D01*
G37*
G36*
X-1753537Y-45282226D02*
G01*
X-1737701Y-45287030D01*
X-1723114Y-45294827D01*
X-1710323Y-45305323D01*
X-1699827Y-45318114D01*
X-1692030Y-45332701D01*
X-1687226Y-45348537D01*
X-1685000Y-45371140D01*
X-1685000Y-45828860D01*
X-1687226Y-45851463D01*
X-1692030Y-45867299D01*
X-1699827Y-45881886D01*
X-1710323Y-45894677D01*
X-1723114Y-45905173D01*
X-1737701Y-45912970D01*
X-1753537Y-45917774D01*
X-1776140Y-45920000D01*
X-2183860Y-45920000D01*
X-2206463Y-45917774D01*
X-2222299Y-45912970D01*
X-2236886Y-45905173D01*
X-2249677Y-45894677D01*
X-2260173Y-45881886D01*
X-2267970Y-45867299D01*
X-2272774Y-45851463D01*
X-2275000Y-45828860D01*
X-2275000Y-45371140D01*
X-2272774Y-45348537D01*
X-2267970Y-45332701D01*
X-2260173Y-45318114D01*
X-2249677Y-45305323D01*
X-2236886Y-45294827D01*
X-2222299Y-45287030D01*
X-2206463Y-45282226D01*
X-2183860Y-45280000D01*
X-1776140Y-45280000D01*
X-1753537Y-45282226D01*
X-1753537Y-45282226D01*
G37*
G36*
X-3588537Y-45282226D02*
G01*
X-3572701Y-45287030D01*
X-3558114Y-45294827D01*
X-3545323Y-45305323D01*
X-3534827Y-45318114D01*
X-3527030Y-45332701D01*
X-3522226Y-45348537D01*
X-3520000Y-45371140D01*
X-3520000Y-45828860D01*
X-3522226Y-45851463D01*
X-3527030Y-45867299D01*
X-3534827Y-45881886D01*
X-3545323Y-45894677D01*
X-3558114Y-45905173D01*
X-3572701Y-45912970D01*
X-3588537Y-45917774D01*
X-3611140Y-45920000D01*
X-4018860Y-45920000D01*
X-4041463Y-45917774D01*
X-4057299Y-45912970D01*
X-4071886Y-45905173D01*
X-4084677Y-45894677D01*
X-4095173Y-45881886D01*
X-4102970Y-45867299D01*
X-4107774Y-45851463D01*
X-4110000Y-45828860D01*
X-4110000Y-45371140D01*
X-4107774Y-45348537D01*
X-4102970Y-45332701D01*
X-4095173Y-45318114D01*
X-4084677Y-45305323D01*
X-4071886Y-45294827D01*
X-4057299Y-45287030D01*
X-4041463Y-45282226D01*
X-4018860Y-45280000D01*
X-3611140Y-45280000D01*
X-3588537Y-45282226D01*
X-3588537Y-45282226D01*
G37*
G36*
X-4558537Y-45282226D02*
G01*
X-4542701Y-45287030D01*
X-4528114Y-45294827D01*
X-4515323Y-45305323D01*
X-4504827Y-45318114D01*
X-4497030Y-45332701D01*
X-4492226Y-45348537D01*
X-4490000Y-45371140D01*
X-4490000Y-45828860D01*
X-4492226Y-45851463D01*
X-4497030Y-45867299D01*
X-4504827Y-45881886D01*
X-4515323Y-45894677D01*
X-4528114Y-45905173D01*
X-4542701Y-45912970D01*
X-4558537Y-45917774D01*
X-4581140Y-45920000D01*
X-4988860Y-45920000D01*
X-5011463Y-45917774D01*
X-5027299Y-45912970D01*
X-5041886Y-45905173D01*
X-5054677Y-45894677D01*
X-5065173Y-45881886D01*
X-5072970Y-45867299D01*
X-5077774Y-45851463D01*
X-5080000Y-45828860D01*
X-5080000Y-45371140D01*
X-5077774Y-45348537D01*
X-5072970Y-45332701D01*
X-5065173Y-45318114D01*
X-5054677Y-45305323D01*
X-5041886Y-45294827D01*
X-5027299Y-45287030D01*
X-5011463Y-45282226D01*
X-4988860Y-45280000D01*
X-4581140Y-45280000D01*
X-4558537Y-45282226D01*
X-4558537Y-45282226D01*
G37*
G36*
X-2648537Y-45312226D02*
G01*
X-2632701Y-45317030D01*
X-2618114Y-45324827D01*
X-2605323Y-45335323D01*
X-2594827Y-45348114D01*
X-2587030Y-45362701D01*
X-2582226Y-45378537D01*
X-2580000Y-45401140D01*
X-2580000Y-45808860D01*
X-2582226Y-45831463D01*
X-2587030Y-45847299D01*
X-2594827Y-45861886D01*
X-2605323Y-45874677D01*
X-2618114Y-45885173D01*
X-2632701Y-45892970D01*
X-2648537Y-45897774D01*
X-2671140Y-45900000D01*
X-3128860Y-45900000D01*
X-3151463Y-45897774D01*
X-3167299Y-45892970D01*
X-3181886Y-45885173D01*
X-3194677Y-45874677D01*
X-3205173Y-45861886D01*
X-3212970Y-45847299D01*
X-3217774Y-45831463D01*
X-3220000Y-45808860D01*
X-3220000Y-45401140D01*
X-3217774Y-45378537D01*
X-3212970Y-45362701D01*
X-3205173Y-45348114D01*
X-3194677Y-45335323D01*
X-3181886Y-45324827D01*
X-3167299Y-45317030D01*
X-3151463Y-45312226D01*
X-3128860Y-45310000D01*
X-2671140Y-45310000D01*
X-2648537Y-45312226D01*
X-2648537Y-45312226D01*
G37*
G36*
X18461463Y-45157226D02*
G01*
X18477299Y-45162030D01*
X18491886Y-45169827D01*
X18504677Y-45180323D01*
X18515173Y-45193114D01*
X18522970Y-45207701D01*
X18527774Y-45223537D01*
X18530000Y-45246140D01*
X18530000Y-45703860D01*
X18527774Y-45726463D01*
X18522970Y-45742299D01*
X18515173Y-45756886D01*
X18504677Y-45769677D01*
X18491886Y-45780173D01*
X18477299Y-45787970D01*
X18461463Y-45792774D01*
X18438860Y-45795000D01*
X18031140Y-45795000D01*
X18008537Y-45792774D01*
X17992701Y-45787970D01*
X17978114Y-45780173D01*
X17965323Y-45769677D01*
X17954827Y-45756886D01*
X17947030Y-45742299D01*
X17942226Y-45726463D01*
X17940000Y-45703860D01*
X17940000Y-45246140D01*
X17942226Y-45223537D01*
X17947030Y-45207701D01*
X17954827Y-45193114D01*
X17965323Y-45180323D01*
X17978114Y-45169827D01*
X17992701Y-45162030D01*
X18008537Y-45157226D01*
X18031140Y-45155000D01*
X18438860Y-45155000D01*
X18461463Y-45157226D01*
X18461463Y-45157226D01*
G37*
G36*
X17491463Y-45157226D02*
G01*
X17507299Y-45162030D01*
X17521886Y-45169827D01*
X17534677Y-45180323D01*
X17545173Y-45193114D01*
X17552970Y-45207701D01*
X17557774Y-45223537D01*
X17560000Y-45246140D01*
X17560000Y-45703860D01*
X17557774Y-45726463D01*
X17552970Y-45742299D01*
X17545173Y-45756886D01*
X17534677Y-45769677D01*
X17521886Y-45780173D01*
X17507299Y-45787970D01*
X17491463Y-45792774D01*
X17468860Y-45795000D01*
X17061140Y-45795000D01*
X17038537Y-45792774D01*
X17022701Y-45787970D01*
X17008114Y-45780173D01*
X16995323Y-45769677D01*
X16984827Y-45756886D01*
X16977030Y-45742299D01*
X16972226Y-45726463D01*
X16970000Y-45703860D01*
X16970000Y-45246140D01*
X16972226Y-45223537D01*
X16977030Y-45207701D01*
X16984827Y-45193114D01*
X16995323Y-45180323D01*
X17008114Y-45169827D01*
X17022701Y-45162030D01*
X17038537Y-45157226D01*
X17061140Y-45155000D01*
X17468860Y-45155000D01*
X17491463Y-45157226D01*
X17491463Y-45157226D01*
G37*
G36*
X12799116Y-44916095D02*
G01*
X12828311Y-44924952D01*
X12855223Y-44939337D01*
X12878808Y-44958692D01*
X12898163Y-44982277D01*
X12912548Y-45009189D01*
X12921405Y-45038384D01*
X12925000Y-45074890D01*
X12925000Y-45625110D01*
X12921405Y-45661616D01*
X12912548Y-45690811D01*
X12898163Y-45717723D01*
X12878808Y-45741308D01*
X12855223Y-45760663D01*
X12828311Y-45775048D01*
X12799116Y-45783905D01*
X12762610Y-45787500D01*
X12137390Y-45787500D01*
X12100884Y-45783905D01*
X12071689Y-45775048D01*
X12044777Y-45760663D01*
X12021192Y-45741308D01*
X12001837Y-45717723D01*
X11987452Y-45690811D01*
X11978595Y-45661616D01*
X11975000Y-45625110D01*
X11975000Y-45074890D01*
X11978595Y-45038384D01*
X11987452Y-45009189D01*
X12001837Y-44982277D01*
X12021192Y-44958692D01*
X12044777Y-44939337D01*
X12071689Y-44924952D01*
X12100884Y-44916095D01*
X12137390Y-44912500D01*
X12762610Y-44912500D01*
X12799116Y-44916095D01*
X12799116Y-44916095D01*
G37*
G36*
X16172250Y-44963971D02*
G01*
X15522250Y-44963971D01*
X15522250Y-43743971D01*
X16172250Y-43743971D01*
X16172250Y-44963971D01*
X16172250Y-44963971D01*
G37*
G36*
X14272250Y-44963971D02*
G01*
X13622250Y-44963971D01*
X13622250Y-43743971D01*
X14272250Y-43743971D01*
X14272250Y-44963971D01*
X14272250Y-44963971D01*
G37*
G36*
X-2648537Y-44342226D02*
G01*
X-2632701Y-44347030D01*
X-2618114Y-44354827D01*
X-2605323Y-44365323D01*
X-2594827Y-44378114D01*
X-2587030Y-44392701D01*
X-2582226Y-44408537D01*
X-2580000Y-44431140D01*
X-2580000Y-44838860D01*
X-2582226Y-44861463D01*
X-2587030Y-44877299D01*
X-2594827Y-44891886D01*
X-2605323Y-44904677D01*
X-2618114Y-44915173D01*
X-2632701Y-44922970D01*
X-2648537Y-44927774D01*
X-2671140Y-44930000D01*
X-3128860Y-44930000D01*
X-3151463Y-44927774D01*
X-3167299Y-44922970D01*
X-3181886Y-44915173D01*
X-3194677Y-44904677D01*
X-3205173Y-44891886D01*
X-3212970Y-44877299D01*
X-3217774Y-44861463D01*
X-3220000Y-44838860D01*
X-3220000Y-44431140D01*
X-3217774Y-44408537D01*
X-3212970Y-44392701D01*
X-3205173Y-44378114D01*
X-3194677Y-44365323D01*
X-3181886Y-44354827D01*
X-3167299Y-44347030D01*
X-3151463Y-44342226D01*
X-3128860Y-44340000D01*
X-2671140Y-44340000D01*
X-2648537Y-44342226D01*
X-2648537Y-44342226D01*
G37*
G36*
X-1753537Y-44282226D02*
G01*
X-1737701Y-44287030D01*
X-1723114Y-44294827D01*
X-1710323Y-44305323D01*
X-1699827Y-44318114D01*
X-1692030Y-44332701D01*
X-1687226Y-44348537D01*
X-1685000Y-44371140D01*
X-1685000Y-44828860D01*
X-1687226Y-44851463D01*
X-1692030Y-44867299D01*
X-1699827Y-44881886D01*
X-1710323Y-44894677D01*
X-1723114Y-44905173D01*
X-1737701Y-44912970D01*
X-1753537Y-44917774D01*
X-1776140Y-44920000D01*
X-2183860Y-44920000D01*
X-2206463Y-44917774D01*
X-2222299Y-44912970D01*
X-2236886Y-44905173D01*
X-2249677Y-44894677D01*
X-2260173Y-44881886D01*
X-2267970Y-44867299D01*
X-2272774Y-44851463D01*
X-2275000Y-44828860D01*
X-2275000Y-44371140D01*
X-2272774Y-44348537D01*
X-2267970Y-44332701D01*
X-2260173Y-44318114D01*
X-2249677Y-44305323D01*
X-2236886Y-44294827D01*
X-2222299Y-44287030D01*
X-2206463Y-44282226D01*
X-2183860Y-44280000D01*
X-1776140Y-44280000D01*
X-1753537Y-44282226D01*
X-1753537Y-44282226D01*
G37*
G36*
X-783537Y-44282226D02*
G01*
X-767701Y-44287030D01*
X-753114Y-44294827D01*
X-740323Y-44305323D01*
X-729827Y-44318114D01*
X-722030Y-44332701D01*
X-717226Y-44348537D01*
X-715000Y-44371140D01*
X-715000Y-44828860D01*
X-717226Y-44851463D01*
X-722030Y-44867299D01*
X-729827Y-44881886D01*
X-740323Y-44894677D01*
X-753114Y-44905173D01*
X-767701Y-44912970D01*
X-783537Y-44917774D01*
X-806140Y-44920000D01*
X-1213860Y-44920000D01*
X-1236463Y-44917774D01*
X-1252299Y-44912970D01*
X-1266886Y-44905173D01*
X-1279677Y-44894677D01*
X-1290173Y-44881886D01*
X-1297970Y-44867299D01*
X-1302774Y-44851463D01*
X-1305000Y-44828860D01*
X-1305000Y-44371140D01*
X-1302774Y-44348537D01*
X-1297970Y-44332701D01*
X-1290173Y-44318114D01*
X-1279677Y-44305323D01*
X-1266886Y-44294827D01*
X-1252299Y-44287030D01*
X-1236463Y-44282226D01*
X-1213860Y-44280000D01*
X-806140Y-44280000D01*
X-783537Y-44282226D01*
X-783537Y-44282226D01*
G37*
G36*
X18448709Y-44167226D02*
G01*
X18464545Y-44172030D01*
X18479132Y-44179827D01*
X18491923Y-44190323D01*
X18502419Y-44203114D01*
X18510216Y-44217701D01*
X18515020Y-44233537D01*
X18517246Y-44256140D01*
X18517246Y-44663860D01*
X18515020Y-44686463D01*
X18510216Y-44702299D01*
X18502419Y-44716886D01*
X18491923Y-44729677D01*
X18479132Y-44740173D01*
X18464545Y-44747970D01*
X18448709Y-44752774D01*
X18426106Y-44755000D01*
X17968386Y-44755000D01*
X17945783Y-44752774D01*
X17929947Y-44747970D01*
X17915360Y-44740173D01*
X17902569Y-44729677D01*
X17892073Y-44716886D01*
X17884276Y-44702299D01*
X17879472Y-44686463D01*
X17877246Y-44663860D01*
X17877246Y-44256140D01*
X17879472Y-44233537D01*
X17884276Y-44217701D01*
X17892073Y-44203114D01*
X17902569Y-44190323D01*
X17915360Y-44179827D01*
X17929947Y-44172030D01*
X17945783Y-44167226D01*
X17968386Y-44165000D01*
X18426106Y-44165000D01*
X18448709Y-44167226D01*
X18448709Y-44167226D01*
G37*
G36*
X17401463Y-44167226D02*
G01*
X17417299Y-44172030D01*
X17431886Y-44179827D01*
X17444677Y-44190323D01*
X17455173Y-44203114D01*
X17462970Y-44217701D01*
X17467774Y-44233537D01*
X17470000Y-44256140D01*
X17470000Y-44663860D01*
X17467774Y-44686463D01*
X17462970Y-44702299D01*
X17455173Y-44716886D01*
X17444677Y-44729677D01*
X17431886Y-44740173D01*
X17417299Y-44747970D01*
X17401463Y-44752774D01*
X17378860Y-44755000D01*
X16921140Y-44755000D01*
X16898537Y-44752774D01*
X16882701Y-44747970D01*
X16868114Y-44740173D01*
X16855323Y-44729677D01*
X16844827Y-44716886D01*
X16837030Y-44702299D01*
X16832226Y-44686463D01*
X16830000Y-44663860D01*
X16830000Y-44256140D01*
X16832226Y-44233537D01*
X16837030Y-44217701D01*
X16844827Y-44203114D01*
X16855323Y-44190323D01*
X16868114Y-44179827D01*
X16882701Y-44172030D01*
X16898537Y-44167226D01*
X16921140Y-44165000D01*
X17378860Y-44165000D01*
X17401463Y-44167226D01*
X17401463Y-44167226D01*
G37*
G36*
X11303991Y-43754075D02*
G01*
X11337879Y-43764355D01*
X11369112Y-43781050D01*
X11396486Y-43803514D01*
X11418950Y-43830888D01*
X11435645Y-43862121D01*
X11445925Y-43896009D01*
X11450000Y-43937388D01*
X11450000Y-44537612D01*
X11445925Y-44578991D01*
X11435645Y-44612879D01*
X11418950Y-44644112D01*
X11396486Y-44671486D01*
X11369112Y-44693950D01*
X11337879Y-44710645D01*
X11303991Y-44720925D01*
X11262612Y-44725000D01*
X10237388Y-44725000D01*
X10196009Y-44720925D01*
X10162121Y-44710645D01*
X10130888Y-44693950D01*
X10103514Y-44671486D01*
X10081050Y-44644112D01*
X10064355Y-44612879D01*
X10054075Y-44578991D01*
X10050000Y-44537612D01*
X10050000Y-43937388D01*
X10054075Y-43896009D01*
X10064355Y-43862121D01*
X10081050Y-43830888D01*
X10103514Y-43803514D01*
X10130888Y-43781050D01*
X10162121Y-43764355D01*
X10196009Y-43754075D01*
X10237388Y-43750000D01*
X11262612Y-43750000D01*
X11303991Y-43754075D01*
X11303991Y-43754075D01*
G37*
G36*
X12799116Y-43341095D02*
G01*
X12828311Y-43349952D01*
X12855223Y-43364337D01*
X12878808Y-43383692D01*
X12898163Y-43407277D01*
X12912548Y-43434189D01*
X12921405Y-43463384D01*
X12925000Y-43499890D01*
X12925000Y-44050110D01*
X12921405Y-44086616D01*
X12912548Y-44115811D01*
X12898163Y-44142723D01*
X12878808Y-44166308D01*
X12855223Y-44185663D01*
X12828311Y-44200048D01*
X12799116Y-44208905D01*
X12762610Y-44212500D01*
X12137390Y-44212500D01*
X12100884Y-44208905D01*
X12071689Y-44200048D01*
X12044777Y-44185663D01*
X12021192Y-44166308D01*
X12001837Y-44142723D01*
X11987452Y-44115811D01*
X11978595Y-44086616D01*
X11975000Y-44050110D01*
X11975000Y-43499890D01*
X11978595Y-43463384D01*
X11987452Y-43434189D01*
X12001837Y-43407277D01*
X12021192Y-43383692D01*
X12044777Y-43364337D01*
X12071689Y-43349952D01*
X12100884Y-43341095D01*
X12137390Y-43337500D01*
X12762610Y-43337500D01*
X12799116Y-43341095D01*
X12799116Y-43341095D01*
G37*
G36*
X6233351Y-42530743D02*
G01*
X6378941Y-42591048D01*
X6509970Y-42678599D01*
X6621401Y-42790030D01*
X6708952Y-42921059D01*
X6769257Y-43066649D01*
X6800000Y-43221206D01*
X6800000Y-43378794D01*
X6769257Y-43533351D01*
X6708952Y-43678941D01*
X6621401Y-43809970D01*
X6509970Y-43921401D01*
X6378941Y-44008952D01*
X6233351Y-44069257D01*
X6078794Y-44100000D01*
X5921206Y-44100000D01*
X5766649Y-44069257D01*
X5621059Y-44008952D01*
X5490030Y-43921401D01*
X5378599Y-43809970D01*
X5291048Y-43678941D01*
X5230743Y-43533351D01*
X5200000Y-43378794D01*
X5200000Y-43221206D01*
X5230743Y-43066649D01*
X5291048Y-42921059D01*
X5378599Y-42790030D01*
X5490030Y-42678599D01*
X5621059Y-42591048D01*
X5766649Y-42530743D01*
X5921206Y-42500000D01*
X6078794Y-42500000D01*
X6233351Y-42530743D01*
X6233351Y-42530743D01*
G37*
G36*
X18448709Y-43197226D02*
G01*
X18464545Y-43202030D01*
X18479132Y-43209827D01*
X18491923Y-43220323D01*
X18502419Y-43233114D01*
X18510216Y-43247701D01*
X18515020Y-43263537D01*
X18517246Y-43286140D01*
X18517246Y-43693860D01*
X18515020Y-43716463D01*
X18510216Y-43732299D01*
X18502419Y-43746886D01*
X18491923Y-43759677D01*
X18479132Y-43770173D01*
X18464545Y-43777970D01*
X18448709Y-43782774D01*
X18426106Y-43785000D01*
X17968386Y-43785000D01*
X17945783Y-43782774D01*
X17929947Y-43777970D01*
X17915360Y-43770173D01*
X17902569Y-43759677D01*
X17892073Y-43746886D01*
X17884276Y-43732299D01*
X17879472Y-43716463D01*
X17877246Y-43693860D01*
X17877246Y-43286140D01*
X17879472Y-43263537D01*
X17884276Y-43247701D01*
X17892073Y-43233114D01*
X17902569Y-43220323D01*
X17915360Y-43209827D01*
X17929947Y-43202030D01*
X17945783Y-43197226D01*
X17968386Y-43195000D01*
X18426106Y-43195000D01*
X18448709Y-43197226D01*
X18448709Y-43197226D01*
G37*
G36*
X17401463Y-43197226D02*
G01*
X17417299Y-43202030D01*
X17431886Y-43209827D01*
X17444677Y-43220323D01*
X17455173Y-43233114D01*
X17462970Y-43247701D01*
X17467774Y-43263537D01*
X17470000Y-43286140D01*
X17470000Y-43693860D01*
X17467774Y-43716463D01*
X17462970Y-43732299D01*
X17455173Y-43746886D01*
X17444677Y-43759677D01*
X17431886Y-43770173D01*
X17417299Y-43777970D01*
X17401463Y-43782774D01*
X17378860Y-43785000D01*
X16921140Y-43785000D01*
X16898537Y-43782774D01*
X16882701Y-43777970D01*
X16868114Y-43770173D01*
X16855323Y-43759677D01*
X16844827Y-43746886D01*
X16837030Y-43732299D01*
X16832226Y-43716463D01*
X16830000Y-43693860D01*
X16830000Y-43286140D01*
X16832226Y-43263537D01*
X16837030Y-43247701D01*
X16844827Y-43233114D01*
X16855323Y-43220323D01*
X16868114Y-43209827D01*
X16882701Y-43202030D01*
X16898537Y-43197226D01*
X16921140Y-43195000D01*
X17378860Y-43195000D01*
X17401463Y-43197226D01*
X17401463Y-43197226D01*
G37*
G36*
X11303991Y-42229075D02*
G01*
X11337879Y-42239355D01*
X11369112Y-42256050D01*
X11396486Y-42278514D01*
X11418950Y-42305888D01*
X11435645Y-42337121D01*
X11445925Y-42371009D01*
X11450000Y-42412388D01*
X11450000Y-43012612D01*
X11445925Y-43053991D01*
X11435645Y-43087879D01*
X11418950Y-43119112D01*
X11396486Y-43146486D01*
X11369112Y-43168950D01*
X11337879Y-43185645D01*
X11303991Y-43195925D01*
X11262612Y-43200000D01*
X10237388Y-43200000D01*
X10196009Y-43195925D01*
X10162121Y-43185645D01*
X10130888Y-43168950D01*
X10103514Y-43146486D01*
X10081050Y-43119112D01*
X10064355Y-43087879D01*
X10054075Y-43053991D01*
X10050000Y-43012612D01*
X10050000Y-42412388D01*
X10054075Y-42371009D01*
X10064355Y-42337121D01*
X10081050Y-42305888D01*
X10103514Y-42278514D01*
X10130888Y-42256050D01*
X10162121Y-42239355D01*
X10196009Y-42229075D01*
X10237388Y-42225000D01*
X11262612Y-42225000D01*
X11303991Y-42229075D01*
X11303991Y-42229075D01*
G37*
G36*
X-13855397Y-41475480D02*
G01*
X-13816190Y-41479341D01*
X-13759640Y-41496496D01*
X-13759637Y-41496497D01*
X-13707524Y-41524352D01*
X-13661842Y-41561842D01*
X-13624352Y-41607524D01*
X-13596497Y-41659637D01*
X-13596496Y-41659640D01*
X-13579341Y-41716190D01*
X-13575000Y-41760267D01*
X-13575000Y-42789733D01*
X-13579341Y-42833810D01*
X-13596496Y-42890359D01*
X-13596497Y-42890363D01*
X-13624352Y-42942476D01*
X-13661841Y-42988157D01*
X-13707525Y-43025648D01*
X-13759638Y-43053503D01*
X-13759641Y-43053504D01*
X-13816191Y-43070659D01*
X-13875000Y-43076451D01*
X-13875001Y-43076451D01*
X-13894603Y-43074520D01*
X-13933810Y-43070659D01*
X-13990360Y-43053504D01*
X-13990363Y-43053503D01*
X-14042476Y-43025648D01*
X-14088157Y-42988159D01*
X-14125648Y-42942475D01*
X-14153503Y-42890362D01*
X-14153504Y-42890359D01*
X-14170659Y-42833809D01*
X-14175000Y-42789732D01*
X-14174999Y-41760267D01*
X-14170658Y-41716190D01*
X-14153503Y-41659640D01*
X-14153502Y-41659637D01*
X-14125647Y-41607524D01*
X-14088157Y-41561842D01*
X-14042475Y-41524352D01*
X-13990362Y-41496497D01*
X-13990359Y-41496496D01*
X-13933809Y-41479341D01*
X-13875000Y-41473549D01*
X-13874999Y-41473549D01*
X-13855397Y-41475480D01*
X-13855397Y-41475480D01*
G37*
G36*
X-1755397Y-41475480D02*
G01*
X-1716190Y-41479341D01*
X-1659640Y-41496496D01*
X-1659637Y-41496497D01*
X-1607524Y-41524352D01*
X-1561842Y-41561842D01*
X-1524352Y-41607524D01*
X-1496497Y-41659637D01*
X-1496496Y-41659640D01*
X-1479341Y-41716190D01*
X-1475000Y-41760267D01*
X-1475000Y-42789733D01*
X-1479341Y-42833810D01*
X-1496496Y-42890359D01*
X-1496497Y-42890363D01*
X-1524352Y-42942476D01*
X-1561841Y-42988157D01*
X-1607525Y-43025648D01*
X-1659638Y-43053503D01*
X-1659641Y-43053504D01*
X-1716191Y-43070659D01*
X-1775000Y-43076451D01*
X-1775001Y-43076451D01*
X-1794603Y-43074520D01*
X-1833810Y-43070659D01*
X-1890360Y-43053504D01*
X-1890363Y-43053503D01*
X-1942476Y-43025648D01*
X-1988157Y-42988159D01*
X-2025648Y-42942475D01*
X-2053503Y-42890362D01*
X-2053504Y-42890359D01*
X-2070659Y-42833809D01*
X-2075000Y-42789732D01*
X-2074999Y-41760267D01*
X-2070658Y-41716190D01*
X-2053503Y-41659640D01*
X-2053502Y-41659637D01*
X-2025647Y-41607524D01*
X-1988157Y-41561842D01*
X-1942475Y-41524352D01*
X-1890362Y-41496497D01*
X-1890359Y-41496496D01*
X-1833809Y-41479341D01*
X-1775000Y-41473549D01*
X-1774999Y-41473549D01*
X-1755397Y-41475480D01*
X-1755397Y-41475480D01*
G37*
G36*
X-12755397Y-41475480D02*
G01*
X-12716190Y-41479341D01*
X-12659640Y-41496496D01*
X-12659637Y-41496497D01*
X-12607524Y-41524352D01*
X-12561842Y-41561842D01*
X-12524352Y-41607524D01*
X-12496497Y-41659637D01*
X-12496496Y-41659640D01*
X-12479341Y-41716190D01*
X-12475000Y-41760267D01*
X-12475000Y-42789733D01*
X-12479341Y-42833810D01*
X-12496496Y-42890359D01*
X-12496497Y-42890363D01*
X-12524352Y-42942476D01*
X-12561841Y-42988157D01*
X-12607525Y-43025648D01*
X-12659638Y-43053503D01*
X-12659641Y-43053504D01*
X-12716191Y-43070659D01*
X-12775000Y-43076451D01*
X-12775001Y-43076451D01*
X-12794603Y-43074520D01*
X-12833810Y-43070659D01*
X-12890360Y-43053504D01*
X-12890363Y-43053503D01*
X-12942476Y-43025648D01*
X-12988157Y-42988159D01*
X-13025648Y-42942475D01*
X-13053503Y-42890362D01*
X-13053504Y-42890359D01*
X-13070659Y-42833809D01*
X-13075000Y-42789732D01*
X-13074999Y-41760267D01*
X-13070658Y-41716190D01*
X-13053503Y-41659640D01*
X-13053502Y-41659637D01*
X-13025647Y-41607524D01*
X-12988157Y-41561842D01*
X-12942475Y-41524352D01*
X-12890362Y-41496497D01*
X-12890359Y-41496496D01*
X-12833809Y-41479341D01*
X-12775000Y-41473549D01*
X-12774999Y-41473549D01*
X-12755397Y-41475480D01*
X-12755397Y-41475480D01*
G37*
G36*
X-2855397Y-41475480D02*
G01*
X-2816190Y-41479341D01*
X-2759640Y-41496496D01*
X-2759637Y-41496497D01*
X-2707524Y-41524352D01*
X-2661842Y-41561842D01*
X-2624352Y-41607524D01*
X-2596497Y-41659637D01*
X-2596496Y-41659640D01*
X-2579341Y-41716190D01*
X-2575000Y-41760267D01*
X-2575000Y-42789733D01*
X-2579341Y-42833810D01*
X-2596496Y-42890359D01*
X-2596497Y-42890363D01*
X-2624352Y-42942476D01*
X-2661841Y-42988157D01*
X-2707525Y-43025648D01*
X-2759638Y-43053503D01*
X-2759641Y-43053504D01*
X-2816191Y-43070659D01*
X-2875000Y-43076451D01*
X-2875001Y-43076451D01*
X-2894603Y-43074520D01*
X-2933810Y-43070659D01*
X-2990360Y-43053504D01*
X-2990363Y-43053503D01*
X-3042476Y-43025648D01*
X-3088157Y-42988159D01*
X-3125648Y-42942475D01*
X-3153503Y-42890362D01*
X-3153504Y-42890359D01*
X-3170659Y-42833809D01*
X-3175000Y-42789732D01*
X-3174999Y-41760267D01*
X-3170658Y-41716190D01*
X-3153503Y-41659640D01*
X-3153502Y-41659637D01*
X-3125647Y-41607524D01*
X-3088157Y-41561842D01*
X-3042475Y-41524352D01*
X-2990362Y-41496497D01*
X-2990359Y-41496496D01*
X-2933809Y-41479341D01*
X-2875000Y-41473549D01*
X-2874999Y-41473549D01*
X-2855397Y-41475480D01*
X-2855397Y-41475480D01*
G37*
G36*
X-3955397Y-41475480D02*
G01*
X-3916190Y-41479341D01*
X-3859640Y-41496496D01*
X-3859637Y-41496497D01*
X-3807524Y-41524352D01*
X-3761842Y-41561842D01*
X-3724352Y-41607524D01*
X-3696497Y-41659637D01*
X-3696496Y-41659640D01*
X-3679341Y-41716190D01*
X-3675000Y-41760267D01*
X-3675000Y-42789733D01*
X-3679341Y-42833810D01*
X-3696496Y-42890359D01*
X-3696497Y-42890363D01*
X-3724352Y-42942476D01*
X-3761841Y-42988157D01*
X-3807525Y-43025648D01*
X-3859638Y-43053503D01*
X-3859641Y-43053504D01*
X-3916191Y-43070659D01*
X-3975000Y-43076451D01*
X-3975001Y-43076451D01*
X-3994603Y-43074520D01*
X-4033810Y-43070659D01*
X-4090360Y-43053504D01*
X-4090363Y-43053503D01*
X-4142476Y-43025648D01*
X-4188157Y-42988159D01*
X-4225648Y-42942475D01*
X-4253503Y-42890362D01*
X-4253504Y-42890359D01*
X-4270659Y-42833809D01*
X-4275000Y-42789732D01*
X-4274999Y-41760267D01*
X-4270658Y-41716190D01*
X-4253503Y-41659640D01*
X-4253502Y-41659637D01*
X-4225647Y-41607524D01*
X-4188157Y-41561842D01*
X-4142475Y-41524352D01*
X-4090362Y-41496497D01*
X-4090359Y-41496496D01*
X-4033809Y-41479341D01*
X-3975000Y-41473549D01*
X-3974999Y-41473549D01*
X-3955397Y-41475480D01*
X-3955397Y-41475480D01*
G37*
G36*
X-8355397Y-41475480D02*
G01*
X-8316190Y-41479341D01*
X-8259640Y-41496496D01*
X-8259637Y-41496497D01*
X-8207524Y-41524352D01*
X-8161842Y-41561842D01*
X-8124352Y-41607524D01*
X-8096497Y-41659637D01*
X-8096496Y-41659640D01*
X-8079341Y-41716190D01*
X-8075000Y-41760267D01*
X-8075000Y-42789733D01*
X-8079341Y-42833810D01*
X-8096496Y-42890359D01*
X-8096497Y-42890363D01*
X-8124352Y-42942476D01*
X-8161841Y-42988157D01*
X-8207525Y-43025648D01*
X-8259638Y-43053503D01*
X-8259641Y-43053504D01*
X-8316191Y-43070659D01*
X-8375000Y-43076451D01*
X-8375001Y-43076451D01*
X-8394603Y-43074520D01*
X-8433810Y-43070659D01*
X-8490360Y-43053504D01*
X-8490363Y-43053503D01*
X-8542476Y-43025648D01*
X-8588157Y-42988159D01*
X-8625648Y-42942475D01*
X-8653503Y-42890362D01*
X-8653504Y-42890359D01*
X-8670659Y-42833809D01*
X-8675000Y-42789732D01*
X-8674999Y-41760267D01*
X-8670658Y-41716190D01*
X-8653503Y-41659640D01*
X-8653502Y-41659637D01*
X-8625647Y-41607524D01*
X-8588157Y-41561842D01*
X-8542475Y-41524352D01*
X-8490362Y-41496497D01*
X-8490359Y-41496496D01*
X-8433809Y-41479341D01*
X-8375000Y-41473549D01*
X-8374999Y-41473549D01*
X-8355397Y-41475480D01*
X-8355397Y-41475480D01*
G37*
G36*
X-10555397Y-41475480D02*
G01*
X-10516190Y-41479341D01*
X-10459640Y-41496496D01*
X-10459637Y-41496497D01*
X-10407524Y-41524352D01*
X-10361842Y-41561842D01*
X-10324352Y-41607524D01*
X-10296497Y-41659637D01*
X-10296496Y-41659640D01*
X-10279341Y-41716190D01*
X-10275000Y-41760267D01*
X-10275000Y-42789733D01*
X-10279341Y-42833810D01*
X-10296496Y-42890359D01*
X-10296497Y-42890363D01*
X-10324352Y-42942476D01*
X-10361841Y-42988157D01*
X-10407525Y-43025648D01*
X-10459638Y-43053503D01*
X-10459641Y-43053504D01*
X-10516191Y-43070659D01*
X-10575000Y-43076451D01*
X-10575001Y-43076451D01*
X-10594603Y-43074520D01*
X-10633810Y-43070659D01*
X-10690360Y-43053504D01*
X-10690363Y-43053503D01*
X-10742476Y-43025648D01*
X-10788157Y-42988159D01*
X-10825648Y-42942475D01*
X-10853503Y-42890362D01*
X-10853504Y-42890359D01*
X-10870659Y-42833809D01*
X-10875000Y-42789732D01*
X-10874999Y-41760267D01*
X-10870658Y-41716190D01*
X-10853503Y-41659640D01*
X-10853502Y-41659637D01*
X-10825647Y-41607524D01*
X-10788157Y-41561842D01*
X-10742475Y-41524352D01*
X-10690362Y-41496497D01*
X-10690359Y-41496496D01*
X-10633809Y-41479341D01*
X-10575000Y-41473549D01*
X-10574999Y-41473549D01*
X-10555397Y-41475480D01*
X-10555397Y-41475480D01*
G37*
G36*
X-11655397Y-41475480D02*
G01*
X-11616190Y-41479341D01*
X-11559640Y-41496496D01*
X-11559637Y-41496497D01*
X-11507524Y-41524352D01*
X-11461842Y-41561842D01*
X-11424352Y-41607524D01*
X-11396497Y-41659637D01*
X-11396496Y-41659640D01*
X-11379341Y-41716190D01*
X-11375000Y-41760267D01*
X-11375000Y-42789733D01*
X-11379341Y-42833810D01*
X-11396496Y-42890359D01*
X-11396497Y-42890363D01*
X-11424352Y-42942476D01*
X-11461841Y-42988157D01*
X-11507525Y-43025648D01*
X-11559638Y-43053503D01*
X-11559641Y-43053504D01*
X-11616191Y-43070659D01*
X-11675000Y-43076451D01*
X-11675001Y-43076451D01*
X-11694603Y-43074520D01*
X-11733810Y-43070659D01*
X-11790360Y-43053504D01*
X-11790363Y-43053503D01*
X-11842476Y-43025648D01*
X-11888157Y-42988159D01*
X-11925648Y-42942475D01*
X-11953503Y-42890362D01*
X-11953504Y-42890359D01*
X-11970659Y-42833809D01*
X-11975000Y-42789732D01*
X-11974999Y-41760267D01*
X-11970658Y-41716190D01*
X-11953503Y-41659640D01*
X-11953502Y-41659637D01*
X-11925647Y-41607524D01*
X-11888157Y-41561842D01*
X-11842475Y-41524352D01*
X-11790362Y-41496497D01*
X-11790359Y-41496496D01*
X-11733809Y-41479341D01*
X-11675000Y-41473549D01*
X-11674999Y-41473549D01*
X-11655397Y-41475480D01*
X-11655397Y-41475480D01*
G37*
G36*
X-9455397Y-41475480D02*
G01*
X-9416190Y-41479341D01*
X-9359640Y-41496496D01*
X-9359637Y-41496497D01*
X-9307524Y-41524352D01*
X-9261842Y-41561842D01*
X-9224352Y-41607524D01*
X-9196497Y-41659637D01*
X-9196496Y-41659640D01*
X-9179341Y-41716190D01*
X-9175000Y-41760267D01*
X-9175000Y-42789733D01*
X-9179341Y-42833810D01*
X-9196496Y-42890359D01*
X-9196497Y-42890363D01*
X-9224352Y-42942476D01*
X-9261841Y-42988157D01*
X-9307525Y-43025648D01*
X-9359638Y-43053503D01*
X-9359641Y-43053504D01*
X-9416191Y-43070659D01*
X-9475000Y-43076451D01*
X-9475001Y-43076451D01*
X-9494603Y-43074520D01*
X-9533810Y-43070659D01*
X-9590360Y-43053504D01*
X-9590363Y-43053503D01*
X-9642476Y-43025648D01*
X-9688157Y-42988159D01*
X-9725648Y-42942475D01*
X-9753503Y-42890362D01*
X-9753504Y-42890359D01*
X-9770659Y-42833809D01*
X-9775000Y-42789732D01*
X-9774999Y-41760267D01*
X-9770658Y-41716190D01*
X-9753503Y-41659640D01*
X-9753502Y-41659637D01*
X-9725647Y-41607524D01*
X-9688157Y-41561842D01*
X-9642475Y-41524352D01*
X-9590362Y-41496497D01*
X-9590359Y-41496496D01*
X-9533809Y-41479341D01*
X-9475000Y-41473549D01*
X-9474999Y-41473549D01*
X-9455397Y-41475480D01*
X-9455397Y-41475480D01*
G37*
G36*
X-5055397Y-41475480D02*
G01*
X-5016190Y-41479341D01*
X-4959640Y-41496496D01*
X-4959637Y-41496497D01*
X-4907524Y-41524352D01*
X-4861842Y-41561842D01*
X-4824352Y-41607524D01*
X-4796497Y-41659637D01*
X-4796496Y-41659640D01*
X-4779341Y-41716190D01*
X-4775000Y-41760267D01*
X-4775000Y-42789733D01*
X-4779341Y-42833810D01*
X-4796496Y-42890359D01*
X-4796497Y-42890363D01*
X-4824352Y-42942476D01*
X-4861841Y-42988157D01*
X-4907525Y-43025648D01*
X-4959638Y-43053503D01*
X-4959641Y-43053504D01*
X-5016191Y-43070659D01*
X-5075000Y-43076451D01*
X-5075001Y-43076451D01*
X-5094603Y-43074520D01*
X-5133810Y-43070659D01*
X-5190360Y-43053504D01*
X-5190363Y-43053503D01*
X-5242476Y-43025648D01*
X-5288157Y-42988159D01*
X-5325648Y-42942475D01*
X-5353503Y-42890362D01*
X-5353504Y-42890359D01*
X-5370659Y-42833809D01*
X-5375000Y-42789732D01*
X-5374999Y-41760267D01*
X-5370658Y-41716190D01*
X-5353503Y-41659640D01*
X-5353502Y-41659637D01*
X-5325647Y-41607524D01*
X-5288157Y-41561842D01*
X-5242475Y-41524352D01*
X-5190362Y-41496497D01*
X-5190359Y-41496496D01*
X-5133809Y-41479341D01*
X-5075000Y-41473549D01*
X-5074999Y-41473549D01*
X-5055397Y-41475480D01*
X-5055397Y-41475480D01*
G37*
G36*
X-6155397Y-41475480D02*
G01*
X-6116190Y-41479341D01*
X-6059640Y-41496496D01*
X-6059637Y-41496497D01*
X-6007524Y-41524352D01*
X-5961842Y-41561842D01*
X-5924352Y-41607524D01*
X-5896497Y-41659637D01*
X-5896496Y-41659640D01*
X-5879341Y-41716190D01*
X-5875000Y-41760267D01*
X-5875000Y-42789733D01*
X-5879341Y-42833810D01*
X-5896496Y-42890359D01*
X-5896497Y-42890363D01*
X-5924352Y-42942476D01*
X-5961841Y-42988157D01*
X-6007525Y-43025648D01*
X-6059638Y-43053503D01*
X-6059641Y-43053504D01*
X-6116191Y-43070659D01*
X-6175000Y-43076451D01*
X-6175001Y-43076451D01*
X-6194603Y-43074520D01*
X-6233810Y-43070659D01*
X-6290360Y-43053504D01*
X-6290363Y-43053503D01*
X-6342476Y-43025648D01*
X-6388157Y-42988159D01*
X-6425648Y-42942475D01*
X-6453503Y-42890362D01*
X-6453504Y-42890359D01*
X-6470659Y-42833809D01*
X-6475000Y-42789732D01*
X-6474999Y-41760267D01*
X-6470658Y-41716190D01*
X-6453503Y-41659640D01*
X-6453502Y-41659637D01*
X-6425647Y-41607524D01*
X-6388157Y-41561842D01*
X-6342475Y-41524352D01*
X-6290362Y-41496497D01*
X-6290359Y-41496496D01*
X-6233809Y-41479341D01*
X-6175000Y-41473549D01*
X-6174999Y-41473549D01*
X-6155397Y-41475480D01*
X-6155397Y-41475480D01*
G37*
G36*
X-7255397Y-41475480D02*
G01*
X-7216190Y-41479341D01*
X-7159640Y-41496496D01*
X-7159637Y-41496497D01*
X-7107524Y-41524352D01*
X-7061842Y-41561842D01*
X-7024352Y-41607524D01*
X-6996497Y-41659637D01*
X-6996496Y-41659640D01*
X-6979341Y-41716190D01*
X-6975000Y-41760267D01*
X-6975000Y-42789733D01*
X-6979341Y-42833810D01*
X-6996496Y-42890359D01*
X-6996497Y-42890363D01*
X-7024352Y-42942476D01*
X-7061841Y-42988157D01*
X-7107525Y-43025648D01*
X-7159638Y-43053503D01*
X-7159641Y-43053504D01*
X-7216191Y-43070659D01*
X-7275000Y-43076451D01*
X-7275001Y-43076451D01*
X-7294603Y-43074520D01*
X-7333810Y-43070659D01*
X-7390360Y-43053504D01*
X-7390363Y-43053503D01*
X-7442476Y-43025648D01*
X-7488157Y-42988159D01*
X-7525648Y-42942475D01*
X-7553503Y-42890362D01*
X-7553504Y-42890359D01*
X-7570659Y-42833809D01*
X-7575000Y-42789732D01*
X-7574999Y-41760267D01*
X-7570658Y-41716190D01*
X-7553503Y-41659640D01*
X-7553502Y-41659637D01*
X-7525647Y-41607524D01*
X-7488157Y-41561842D01*
X-7442475Y-41524352D01*
X-7390362Y-41496497D01*
X-7390359Y-41496496D01*
X-7333809Y-41479341D01*
X-7275000Y-41473549D01*
X-7274999Y-41473549D01*
X-7255397Y-41475480D01*
X-7255397Y-41475480D01*
G37*
G36*
X17401463Y-42267226D02*
G01*
X17417299Y-42272030D01*
X17431886Y-42279827D01*
X17444677Y-42290323D01*
X17455173Y-42303114D01*
X17462970Y-42317701D01*
X17467774Y-42333537D01*
X17470000Y-42356140D01*
X17470000Y-42763860D01*
X17467774Y-42786463D01*
X17462970Y-42802299D01*
X17455173Y-42816886D01*
X17444677Y-42829677D01*
X17431886Y-42840173D01*
X17417299Y-42847970D01*
X17401463Y-42852774D01*
X17378860Y-42855000D01*
X16921140Y-42855000D01*
X16898537Y-42852774D01*
X16882701Y-42847970D01*
X16868114Y-42840173D01*
X16855323Y-42829677D01*
X16844827Y-42816886D01*
X16837030Y-42802299D01*
X16832226Y-42786463D01*
X16830000Y-42763860D01*
X16830000Y-42356140D01*
X16832226Y-42333537D01*
X16837030Y-42317701D01*
X16844827Y-42303114D01*
X16855323Y-42290323D01*
X16868114Y-42279827D01*
X16882701Y-42272030D01*
X16898537Y-42267226D01*
X16921140Y-42265000D01*
X17378860Y-42265000D01*
X17401463Y-42267226D01*
X17401463Y-42267226D01*
G37*
G36*
X12799116Y-41928595D02*
G01*
X12828311Y-41937452D01*
X12855223Y-41951837D01*
X12878808Y-41971192D01*
X12898163Y-41994777D01*
X12912548Y-42021689D01*
X12921405Y-42050884D01*
X12925000Y-42087390D01*
X12925000Y-42637610D01*
X12921405Y-42674116D01*
X12912548Y-42703311D01*
X12898163Y-42730223D01*
X12878808Y-42753808D01*
X12855223Y-42773163D01*
X12828311Y-42787548D01*
X12799116Y-42796405D01*
X12762610Y-42800000D01*
X12137390Y-42800000D01*
X12100884Y-42796405D01*
X12071689Y-42787548D01*
X12044777Y-42773163D01*
X12021192Y-42753808D01*
X12001837Y-42730223D01*
X11987452Y-42703311D01*
X11978595Y-42674116D01*
X11975000Y-42637610D01*
X11975000Y-42087390D01*
X11978595Y-42050884D01*
X11987452Y-42021689D01*
X12001837Y-41994777D01*
X12021192Y-41971192D01*
X12044777Y-41951837D01*
X12071689Y-41937452D01*
X12100884Y-41928595D01*
X12137390Y-41925000D01*
X12762610Y-41925000D01*
X12799116Y-41928595D01*
X12799116Y-41928595D01*
G37*
G36*
X14272250Y-42343971D02*
G01*
X13622250Y-42343971D01*
X13622250Y-41123971D01*
X14272250Y-41123971D01*
X14272250Y-42343971D01*
X14272250Y-42343971D01*
G37*
G36*
X16172250Y-42343971D02*
G01*
X15522250Y-42343971D01*
X15522250Y-41123971D01*
X16172250Y-41123971D01*
X16172250Y-42343971D01*
X16172250Y-42343971D01*
G37*
G36*
X15222250Y-42343971D02*
G01*
X14572250Y-42343971D01*
X14572250Y-41123971D01*
X15222250Y-41123971D01*
X15222250Y-42343971D01*
X15222250Y-42343971D01*
G37*
G36*
X17401463Y-41297226D02*
G01*
X17417299Y-41302030D01*
X17431886Y-41309827D01*
X17444677Y-41320323D01*
X17455173Y-41333114D01*
X17462970Y-41347701D01*
X17467774Y-41363537D01*
X17470000Y-41386140D01*
X17470000Y-41793860D01*
X17467774Y-41816463D01*
X17462970Y-41832299D01*
X17455173Y-41846886D01*
X17444677Y-41859677D01*
X17431886Y-41870173D01*
X17417299Y-41877970D01*
X17401463Y-41882774D01*
X17378860Y-41885000D01*
X16921140Y-41885000D01*
X16898537Y-41882774D01*
X16882701Y-41877970D01*
X16868114Y-41870173D01*
X16855323Y-41859677D01*
X16844827Y-41846886D01*
X16837030Y-41832299D01*
X16832226Y-41816463D01*
X16830000Y-41793860D01*
X16830000Y-41386140D01*
X16832226Y-41363537D01*
X16837030Y-41347701D01*
X16844827Y-41333114D01*
X16855323Y-41320323D01*
X16868114Y-41309827D01*
X16882701Y-41302030D01*
X16898537Y-41297226D01*
X16921140Y-41295000D01*
X17378860Y-41295000D01*
X17401463Y-41297226D01*
X17401463Y-41297226D01*
G37*
G36*
X6800000Y-41600000D02*
G01*
X5200000Y-41600000D01*
X5200000Y-40000000D01*
X6800000Y-40000000D01*
X6800000Y-41600000D01*
X6800000Y-41600000D01*
G37*
G36*
X11303991Y-40354075D02*
G01*
X11337879Y-40364355D01*
X11369112Y-40381050D01*
X11396486Y-40403514D01*
X11418950Y-40430888D01*
X11435645Y-40462121D01*
X11445925Y-40496009D01*
X11450000Y-40537388D01*
X11450000Y-41137612D01*
X11445925Y-41178991D01*
X11435645Y-41212879D01*
X11418950Y-41244112D01*
X11396486Y-41271486D01*
X11369112Y-41293950D01*
X11337879Y-41310645D01*
X11303991Y-41320925D01*
X11262612Y-41325000D01*
X10237388Y-41325000D01*
X10196009Y-41320925D01*
X10162121Y-41310645D01*
X10130888Y-41293950D01*
X10103514Y-41271486D01*
X10081050Y-41244112D01*
X10064355Y-41212879D01*
X10054075Y-41178991D01*
X10050000Y-41137612D01*
X10050000Y-40537388D01*
X10054075Y-40496009D01*
X10064355Y-40462121D01*
X10081050Y-40430888D01*
X10103514Y-40403514D01*
X10130888Y-40381050D01*
X10162121Y-40364355D01*
X10196009Y-40354075D01*
X10237388Y-40350000D01*
X11262612Y-40350000D01*
X11303991Y-40354075D01*
X11303991Y-40354075D01*
G37*
G36*
X12799116Y-40353595D02*
G01*
X12828311Y-40362452D01*
X12855223Y-40376837D01*
X12878808Y-40396192D01*
X12898163Y-40419777D01*
X12912548Y-40446689D01*
X12921405Y-40475884D01*
X12925000Y-40512390D01*
X12925000Y-41062610D01*
X12921405Y-41099116D01*
X12912548Y-41128311D01*
X12898163Y-41155223D01*
X12878808Y-41178808D01*
X12855223Y-41198163D01*
X12828311Y-41212548D01*
X12799116Y-41221405D01*
X12762610Y-41225000D01*
X12137390Y-41225000D01*
X12100884Y-41221405D01*
X12071689Y-41212548D01*
X12044777Y-41198163D01*
X12021192Y-41178808D01*
X12001837Y-41155223D01*
X11987452Y-41128311D01*
X11978595Y-41099116D01*
X11975000Y-41062610D01*
X11975000Y-40512390D01*
X11978595Y-40475884D01*
X11987452Y-40446689D01*
X12001837Y-40419777D01*
X12021192Y-40396192D01*
X12044777Y-40376837D01*
X12071689Y-40362452D01*
X12100884Y-40353595D01*
X12137390Y-40350000D01*
X12762610Y-40350000D01*
X12799116Y-40353595D01*
X12799116Y-40353595D01*
G37*
G36*
X15550000Y-39725000D02*
G01*
X13350000Y-39725000D01*
X13350000Y-35825000D01*
X15550000Y-35825000D01*
X15550000Y-39725000D01*
X15550000Y-39725000D01*
G37*
G36*
X11750000Y-39725000D02*
G01*
X9550000Y-39725000D01*
X9550000Y-35825000D01*
X11750000Y-35825000D01*
X11750000Y-39725000D01*
X11750000Y-39725000D01*
G37*
G36*
X1504425Y-38526447D02*
G01*
X1533810Y-38529341D01*
X1590360Y-38546496D01*
X1590363Y-38546497D01*
X1642476Y-38574352D01*
X1688158Y-38611842D01*
X1725648Y-38657524D01*
X1753503Y-38709637D01*
X1753504Y-38709640D01*
X1770659Y-38766190D01*
X1776451Y-38825000D01*
X1770659Y-38883810D01*
X1753504Y-38940360D01*
X1753503Y-38940363D01*
X1725648Y-38992476D01*
X1688158Y-39038158D01*
X1642476Y-39075648D01*
X1590363Y-39103503D01*
X1590360Y-39103504D01*
X1533810Y-39120659D01*
X1504425Y-39123553D01*
X1489734Y-39125000D01*
X460266Y-39125000D01*
X445575Y-39123553D01*
X416190Y-39120659D01*
X359640Y-39103504D01*
X359637Y-39103503D01*
X307524Y-39075648D01*
X261842Y-39038158D01*
X224352Y-38992476D01*
X196497Y-38940363D01*
X196496Y-38940360D01*
X179341Y-38883810D01*
X173549Y-38825000D01*
X179341Y-38766190D01*
X196496Y-38709640D01*
X196497Y-38709637D01*
X224352Y-38657524D01*
X261842Y-38611842D01*
X307524Y-38574352D01*
X359637Y-38546497D01*
X359640Y-38546496D01*
X416190Y-38529341D01*
X445575Y-38526447D01*
X460266Y-38525000D01*
X1489734Y-38525000D01*
X1504425Y-38526447D01*
X1504425Y-38526447D01*
G37*
G36*
X-16095575Y-38526447D02*
G01*
X-16066190Y-38529341D01*
X-16009640Y-38546496D01*
X-16009637Y-38546497D01*
X-15957524Y-38574352D01*
X-15911842Y-38611842D01*
X-15874352Y-38657524D01*
X-15846497Y-38709637D01*
X-15846496Y-38709640D01*
X-15829341Y-38766190D01*
X-15823549Y-38825000D01*
X-15829341Y-38883810D01*
X-15846496Y-38940360D01*
X-15846497Y-38940363D01*
X-15874352Y-38992476D01*
X-15911842Y-39038158D01*
X-15957524Y-39075648D01*
X-16009637Y-39103503D01*
X-16009640Y-39103504D01*
X-16066190Y-39120659D01*
X-16095575Y-39123553D01*
X-16110266Y-39125000D01*
X-17139734Y-39125000D01*
X-17154425Y-39123553D01*
X-17183810Y-39120659D01*
X-17240360Y-39103504D01*
X-17240363Y-39103503D01*
X-17292476Y-39075648D01*
X-17338158Y-39038158D01*
X-17375648Y-38992476D01*
X-17403503Y-38940363D01*
X-17403504Y-38940360D01*
X-17420659Y-38883810D01*
X-17426451Y-38825000D01*
X-17420659Y-38766190D01*
X-17403504Y-38709640D01*
X-17403503Y-38709637D01*
X-17375648Y-38657524D01*
X-17338158Y-38611842D01*
X-17292476Y-38574352D01*
X-17240363Y-38546497D01*
X-17240360Y-38546496D01*
X-17183810Y-38529341D01*
X-17154425Y-38526447D01*
X-17139734Y-38525000D01*
X-16110266Y-38525000D01*
X-16095575Y-38526447D01*
X-16095575Y-38526447D01*
G37*
G36*
X-16095575Y-37426447D02*
G01*
X-16066190Y-37429341D01*
X-16009640Y-37446496D01*
X-16009637Y-37446497D01*
X-15957524Y-37474352D01*
X-15911842Y-37511842D01*
X-15874352Y-37557524D01*
X-15846497Y-37609637D01*
X-15846496Y-37609640D01*
X-15829341Y-37666190D01*
X-15823549Y-37725000D01*
X-15829341Y-37783810D01*
X-15844112Y-37832500D01*
X-15846497Y-37840363D01*
X-15874352Y-37892476D01*
X-15911842Y-37938158D01*
X-15957524Y-37975648D01*
X-16009637Y-38003503D01*
X-16009640Y-38003504D01*
X-16066190Y-38020659D01*
X-16095575Y-38023553D01*
X-16110266Y-38025000D01*
X-17139734Y-38025000D01*
X-17154425Y-38023553D01*
X-17183810Y-38020659D01*
X-17240360Y-38003504D01*
X-17240363Y-38003503D01*
X-17292476Y-37975648D01*
X-17338158Y-37938158D01*
X-17375648Y-37892476D01*
X-17403503Y-37840363D01*
X-17405888Y-37832500D01*
X-17420659Y-37783810D01*
X-17426451Y-37725000D01*
X-17420659Y-37666190D01*
X-17403504Y-37609640D01*
X-17403503Y-37609637D01*
X-17375648Y-37557524D01*
X-17338158Y-37511842D01*
X-17292476Y-37474352D01*
X-17240363Y-37446497D01*
X-17240360Y-37446496D01*
X-17183810Y-37429341D01*
X-17154425Y-37426447D01*
X-17139734Y-37425000D01*
X-16110266Y-37425000D01*
X-16095575Y-37426447D01*
X-16095575Y-37426447D01*
G37*
G36*
X1504425Y-37426447D02*
G01*
X1533810Y-37429341D01*
X1590360Y-37446496D01*
X1590363Y-37446497D01*
X1642476Y-37474352D01*
X1688158Y-37511842D01*
X1725648Y-37557524D01*
X1753503Y-37609637D01*
X1753504Y-37609640D01*
X1770659Y-37666190D01*
X1776451Y-37725000D01*
X1770659Y-37783810D01*
X1755888Y-37832500D01*
X1753503Y-37840363D01*
X1725648Y-37892476D01*
X1688158Y-37938158D01*
X1642476Y-37975648D01*
X1590363Y-38003503D01*
X1590360Y-38003504D01*
X1533810Y-38020659D01*
X1504425Y-38023553D01*
X1489734Y-38025000D01*
X460266Y-38025000D01*
X445575Y-38023553D01*
X416190Y-38020659D01*
X359640Y-38003504D01*
X359637Y-38003503D01*
X307524Y-37975648D01*
X261842Y-37938158D01*
X224352Y-37892476D01*
X196497Y-37840363D01*
X194112Y-37832500D01*
X179341Y-37783810D01*
X173549Y-37725000D01*
X179341Y-37666190D01*
X196496Y-37609640D01*
X196497Y-37609637D01*
X224352Y-37557524D01*
X261842Y-37511842D01*
X307524Y-37474352D01*
X359637Y-37446497D01*
X359640Y-37446496D01*
X416190Y-37429341D01*
X445575Y-37426447D01*
X460266Y-37425000D01*
X1489734Y-37425000D01*
X1504425Y-37426447D01*
X1504425Y-37426447D01*
G37*
G36*
X3051463Y-37392226D02*
G01*
X3067299Y-37397030D01*
X3081886Y-37404827D01*
X3094677Y-37415323D01*
X3105173Y-37428114D01*
X3112970Y-37442701D01*
X3117774Y-37458537D01*
X3120000Y-37481140D01*
X3120000Y-37888860D01*
X3117774Y-37911463D01*
X3112970Y-37927299D01*
X3105173Y-37941886D01*
X3094677Y-37954677D01*
X3081886Y-37965173D01*
X3067299Y-37972970D01*
X3051463Y-37977774D01*
X3028860Y-37980000D01*
X2571140Y-37980000D01*
X2548537Y-37977774D01*
X2532701Y-37972970D01*
X2518114Y-37965173D01*
X2505323Y-37954677D01*
X2494827Y-37941886D01*
X2487030Y-37927299D01*
X2482226Y-37911463D01*
X2480000Y-37888860D01*
X2480000Y-37481140D01*
X2482226Y-37458537D01*
X2487030Y-37442701D01*
X2494827Y-37428114D01*
X2505323Y-37415323D01*
X2518114Y-37404827D01*
X2532701Y-37397030D01*
X2548537Y-37392226D01*
X2571140Y-37390000D01*
X3028860Y-37390000D01*
X3051463Y-37392226D01*
X3051463Y-37392226D01*
G37*
G36*
X4001463Y-37392226D02*
G01*
X4017299Y-37397030D01*
X4031886Y-37404827D01*
X4044677Y-37415323D01*
X4055173Y-37428114D01*
X4062970Y-37442701D01*
X4067774Y-37458537D01*
X4070000Y-37481140D01*
X4070000Y-37888860D01*
X4067774Y-37911463D01*
X4062970Y-37927299D01*
X4055173Y-37941886D01*
X4044677Y-37954677D01*
X4031886Y-37965173D01*
X4017299Y-37972970D01*
X4001463Y-37977774D01*
X3978860Y-37980000D01*
X3521140Y-37980000D01*
X3498537Y-37977774D01*
X3482701Y-37972970D01*
X3468114Y-37965173D01*
X3455323Y-37954677D01*
X3444827Y-37941886D01*
X3437030Y-37927299D01*
X3432226Y-37911463D01*
X3430000Y-37888860D01*
X3430000Y-37481140D01*
X3432226Y-37458537D01*
X3437030Y-37442701D01*
X3444827Y-37428114D01*
X3455323Y-37415323D01*
X3468114Y-37404827D01*
X3482701Y-37397030D01*
X3498537Y-37392226D01*
X3521140Y-37390000D01*
X3978860Y-37390000D01*
X4001463Y-37392226D01*
X4001463Y-37392226D01*
G37*
G36*
X4001463Y-36422226D02*
G01*
X4017299Y-36427030D01*
X4031886Y-36434827D01*
X4044677Y-36445323D01*
X4055173Y-36458114D01*
X4062970Y-36472701D01*
X4067774Y-36488537D01*
X4070000Y-36511140D01*
X4070000Y-36918860D01*
X4067774Y-36941463D01*
X4062970Y-36957299D01*
X4055173Y-36971886D01*
X4044677Y-36984677D01*
X4031886Y-36995173D01*
X4017299Y-37002970D01*
X4001463Y-37007774D01*
X3978860Y-37010000D01*
X3521140Y-37010000D01*
X3498537Y-37007774D01*
X3482701Y-37002970D01*
X3468114Y-36995173D01*
X3455323Y-36984677D01*
X3444827Y-36971886D01*
X3437030Y-36957299D01*
X3432226Y-36941463D01*
X3430000Y-36918860D01*
X3430000Y-36511140D01*
X3432226Y-36488537D01*
X3437030Y-36472701D01*
X3444827Y-36458114D01*
X3455323Y-36445323D01*
X3468114Y-36434827D01*
X3482701Y-36427030D01*
X3498537Y-36422226D01*
X3521140Y-36420000D01*
X3978860Y-36420000D01*
X4001463Y-36422226D01*
X4001463Y-36422226D01*
G37*
G36*
X3051463Y-36422226D02*
G01*
X3067299Y-36427030D01*
X3081886Y-36434827D01*
X3094677Y-36445323D01*
X3105173Y-36458114D01*
X3112970Y-36472701D01*
X3117774Y-36488537D01*
X3120000Y-36511140D01*
X3120000Y-36918860D01*
X3117774Y-36941463D01*
X3112970Y-36957299D01*
X3105173Y-36971886D01*
X3094677Y-36984677D01*
X3081886Y-36995173D01*
X3067299Y-37002970D01*
X3051463Y-37007774D01*
X3028860Y-37010000D01*
X2571140Y-37010000D01*
X2548537Y-37007774D01*
X2532701Y-37002970D01*
X2518114Y-36995173D01*
X2505323Y-36984677D01*
X2494827Y-36971886D01*
X2487030Y-36957299D01*
X2482226Y-36941463D01*
X2480000Y-36918860D01*
X2480000Y-36511140D01*
X2482226Y-36488537D01*
X2487030Y-36472701D01*
X2494827Y-36458114D01*
X2505323Y-36445323D01*
X2518114Y-36434827D01*
X2532701Y-36427030D01*
X2548537Y-36422226D01*
X2571140Y-36420000D01*
X3028860Y-36420000D01*
X3051463Y-36422226D01*
X3051463Y-36422226D01*
G37*
G36*
X-16095575Y-36326447D02*
G01*
X-16066190Y-36329341D01*
X-16009640Y-36346496D01*
X-16009637Y-36346497D01*
X-15957524Y-36374352D01*
X-15911842Y-36411842D01*
X-15874352Y-36457524D01*
X-15846497Y-36509637D01*
X-15846496Y-36509640D01*
X-15829341Y-36566190D01*
X-15823549Y-36625000D01*
X-15829341Y-36683810D01*
X-15846496Y-36740360D01*
X-15846497Y-36740363D01*
X-15874352Y-36792476D01*
X-15911842Y-36838158D01*
X-15957524Y-36875648D01*
X-16009637Y-36903503D01*
X-16009640Y-36903504D01*
X-16066190Y-36920659D01*
X-16095575Y-36923553D01*
X-16110266Y-36925000D01*
X-17139734Y-36925000D01*
X-17154425Y-36923553D01*
X-17183810Y-36920659D01*
X-17240360Y-36903504D01*
X-17240363Y-36903503D01*
X-17292476Y-36875648D01*
X-17338158Y-36838158D01*
X-17375648Y-36792476D01*
X-17403503Y-36740363D01*
X-17403504Y-36740360D01*
X-17420659Y-36683810D01*
X-17426451Y-36625000D01*
X-17420659Y-36566190D01*
X-17403504Y-36509640D01*
X-17403503Y-36509637D01*
X-17375648Y-36457524D01*
X-17338158Y-36411842D01*
X-17292476Y-36374352D01*
X-17240363Y-36346497D01*
X-17240360Y-36346496D01*
X-17183810Y-36329341D01*
X-17154425Y-36326447D01*
X-17139734Y-36325000D01*
X-16110266Y-36325000D01*
X-16095575Y-36326447D01*
X-16095575Y-36326447D01*
G37*
G36*
X1504425Y-36326447D02*
G01*
X1533810Y-36329341D01*
X1590360Y-36346496D01*
X1590363Y-36346497D01*
X1642476Y-36374352D01*
X1688158Y-36411842D01*
X1725648Y-36457524D01*
X1753503Y-36509637D01*
X1753504Y-36509640D01*
X1770659Y-36566190D01*
X1776451Y-36625000D01*
X1770659Y-36683810D01*
X1753504Y-36740360D01*
X1753503Y-36740363D01*
X1725648Y-36792476D01*
X1688158Y-36838158D01*
X1642476Y-36875648D01*
X1590363Y-36903503D01*
X1590360Y-36903504D01*
X1533810Y-36920659D01*
X1504425Y-36923553D01*
X1489734Y-36925000D01*
X460266Y-36925000D01*
X445575Y-36923553D01*
X416190Y-36920659D01*
X359640Y-36903504D01*
X359637Y-36903503D01*
X307524Y-36875648D01*
X261842Y-36838158D01*
X224352Y-36792476D01*
X196497Y-36740363D01*
X196496Y-36740360D01*
X179341Y-36683810D01*
X173549Y-36625000D01*
X179341Y-36566190D01*
X196496Y-36509640D01*
X196497Y-36509637D01*
X224352Y-36457524D01*
X261842Y-36411842D01*
X307524Y-36374352D01*
X359637Y-36346497D01*
X359640Y-36346496D01*
X416190Y-36329341D01*
X445575Y-36326447D01*
X460266Y-36325000D01*
X1489734Y-36325000D01*
X1504425Y-36326447D01*
X1504425Y-36326447D01*
G37*
G36*
X-16095575Y-35226447D02*
G01*
X-16066190Y-35229341D01*
X-16009640Y-35246496D01*
X-16009637Y-35246497D01*
X-15957524Y-35274352D01*
X-15911842Y-35311842D01*
X-15874352Y-35357524D01*
X-15846497Y-35409637D01*
X-15846496Y-35409640D01*
X-15829341Y-35466190D01*
X-15823549Y-35525000D01*
X-15829341Y-35583810D01*
X-15846496Y-35640360D01*
X-15846497Y-35640363D01*
X-15874352Y-35692476D01*
X-15911842Y-35738158D01*
X-15957524Y-35775648D01*
X-16009637Y-35803503D01*
X-16009640Y-35803504D01*
X-16066190Y-35820659D01*
X-16095575Y-35823553D01*
X-16110266Y-35825000D01*
X-17139734Y-35825000D01*
X-17154425Y-35823553D01*
X-17183810Y-35820659D01*
X-17240360Y-35803504D01*
X-17240363Y-35803503D01*
X-17292476Y-35775648D01*
X-17338158Y-35738158D01*
X-17375648Y-35692476D01*
X-17403503Y-35640363D01*
X-17403504Y-35640360D01*
X-17420659Y-35583810D01*
X-17426451Y-35525000D01*
X-17420659Y-35466190D01*
X-17403504Y-35409640D01*
X-17403503Y-35409637D01*
X-17375648Y-35357524D01*
X-17338158Y-35311842D01*
X-17292476Y-35274352D01*
X-17240363Y-35246497D01*
X-17240360Y-35246496D01*
X-17183810Y-35229341D01*
X-17154425Y-35226447D01*
X-17139734Y-35225000D01*
X-16110266Y-35225000D01*
X-16095575Y-35226447D01*
X-16095575Y-35226447D01*
G37*
G36*
X1504425Y-35226447D02*
G01*
X1533810Y-35229341D01*
X1590360Y-35246496D01*
X1590363Y-35246497D01*
X1642476Y-35274352D01*
X1688158Y-35311842D01*
X1725648Y-35357524D01*
X1753503Y-35409637D01*
X1753504Y-35409640D01*
X1770659Y-35466190D01*
X1776451Y-35525000D01*
X1770659Y-35583810D01*
X1753504Y-35640360D01*
X1753503Y-35640363D01*
X1725648Y-35692476D01*
X1688158Y-35738158D01*
X1642476Y-35775648D01*
X1590363Y-35803503D01*
X1590360Y-35803504D01*
X1533810Y-35820659D01*
X1504425Y-35823553D01*
X1489734Y-35825000D01*
X460266Y-35825000D01*
X445575Y-35823553D01*
X416190Y-35820659D01*
X359640Y-35803504D01*
X359637Y-35803503D01*
X307524Y-35775648D01*
X261842Y-35738158D01*
X224352Y-35692476D01*
X196497Y-35640363D01*
X196496Y-35640360D01*
X179341Y-35583810D01*
X173549Y-35525000D01*
X179341Y-35466190D01*
X196496Y-35409640D01*
X196497Y-35409637D01*
X224352Y-35357524D01*
X261842Y-35311842D01*
X307524Y-35274352D01*
X359637Y-35246497D01*
X359640Y-35246496D01*
X416190Y-35229341D01*
X445575Y-35226447D01*
X460266Y-35225000D01*
X1489734Y-35225000D01*
X1504425Y-35226447D01*
X1504425Y-35226447D01*
G37*
G36*
X1504425Y-34126447D02*
G01*
X1533810Y-34129341D01*
X1590360Y-34146496D01*
X1590363Y-34146497D01*
X1642476Y-34174352D01*
X1688158Y-34211842D01*
X1725648Y-34257524D01*
X1753503Y-34309637D01*
X1753504Y-34309640D01*
X1770659Y-34366190D01*
X1776451Y-34425000D01*
X1770659Y-34483810D01*
X1753504Y-34540360D01*
X1753503Y-34540363D01*
X1725648Y-34592476D01*
X1688158Y-34638158D01*
X1642476Y-34675648D01*
X1590363Y-34703503D01*
X1590360Y-34703504D01*
X1533810Y-34720659D01*
X1504425Y-34723553D01*
X1489734Y-34725000D01*
X460266Y-34725000D01*
X445575Y-34723553D01*
X416190Y-34720659D01*
X359640Y-34703504D01*
X359637Y-34703503D01*
X307524Y-34675648D01*
X261842Y-34638158D01*
X224352Y-34592476D01*
X196497Y-34540363D01*
X196496Y-34540360D01*
X179341Y-34483810D01*
X173549Y-34425000D01*
X179341Y-34366190D01*
X196496Y-34309640D01*
X196497Y-34309637D01*
X224352Y-34257524D01*
X261842Y-34211842D01*
X307524Y-34174352D01*
X359637Y-34146497D01*
X359640Y-34146496D01*
X416190Y-34129341D01*
X445575Y-34126447D01*
X460266Y-34125000D01*
X1489734Y-34125000D01*
X1504425Y-34126447D01*
X1504425Y-34126447D01*
G37*
G36*
X-16095575Y-34126447D02*
G01*
X-16066190Y-34129341D01*
X-16009640Y-34146496D01*
X-16009637Y-34146497D01*
X-15957524Y-34174352D01*
X-15911842Y-34211842D01*
X-15874352Y-34257524D01*
X-15846497Y-34309637D01*
X-15846496Y-34309640D01*
X-15829341Y-34366190D01*
X-15823549Y-34425000D01*
X-15829341Y-34483810D01*
X-15846496Y-34540360D01*
X-15846497Y-34540363D01*
X-15874352Y-34592476D01*
X-15911842Y-34638158D01*
X-15957524Y-34675648D01*
X-16009637Y-34703503D01*
X-16009640Y-34703504D01*
X-16066190Y-34720659D01*
X-16095575Y-34723553D01*
X-16110266Y-34725000D01*
X-17139734Y-34725000D01*
X-17154425Y-34723553D01*
X-17183810Y-34720659D01*
X-17240360Y-34703504D01*
X-17240363Y-34703503D01*
X-17292476Y-34675648D01*
X-17338158Y-34638158D01*
X-17375648Y-34592476D01*
X-17403503Y-34540363D01*
X-17403504Y-34540360D01*
X-17420659Y-34483810D01*
X-17426451Y-34425000D01*
X-17420659Y-34366190D01*
X-17403504Y-34309640D01*
X-17403503Y-34309637D01*
X-17375648Y-34257524D01*
X-17338158Y-34211842D01*
X-17292476Y-34174352D01*
X-17240363Y-34146497D01*
X-17240360Y-34146496D01*
X-17183810Y-34129341D01*
X-17154425Y-34126447D01*
X-17139734Y-34125000D01*
X-16110266Y-34125000D01*
X-16095575Y-34126447D01*
X-16095575Y-34126447D01*
G37*
G36*
X-16095575Y-33026447D02*
G01*
X-16066190Y-33029341D01*
X-16009640Y-33046496D01*
X-16009637Y-33046497D01*
X-15957524Y-33074352D01*
X-15911842Y-33111842D01*
X-15874352Y-33157524D01*
X-15846497Y-33209637D01*
X-15846496Y-33209640D01*
X-15829341Y-33266190D01*
X-15823549Y-33325000D01*
X-15829341Y-33383810D01*
X-15846496Y-33440360D01*
X-15846497Y-33440363D01*
X-15874352Y-33492476D01*
X-15911842Y-33538158D01*
X-15957524Y-33575648D01*
X-16009637Y-33603503D01*
X-16009640Y-33603504D01*
X-16066190Y-33620659D01*
X-16095575Y-33623553D01*
X-16110266Y-33625000D01*
X-17139734Y-33625000D01*
X-17154425Y-33623553D01*
X-17183810Y-33620659D01*
X-17240360Y-33603504D01*
X-17240363Y-33603503D01*
X-17292476Y-33575648D01*
X-17338158Y-33538158D01*
X-17375648Y-33492476D01*
X-17403503Y-33440363D01*
X-17403504Y-33440360D01*
X-17420659Y-33383810D01*
X-17426451Y-33325000D01*
X-17420659Y-33266190D01*
X-17403504Y-33209640D01*
X-17403503Y-33209637D01*
X-17375648Y-33157524D01*
X-17338158Y-33111842D01*
X-17292476Y-33074352D01*
X-17240363Y-33046497D01*
X-17240360Y-33046496D01*
X-17183810Y-33029341D01*
X-17154425Y-33026447D01*
X-17139734Y-33025000D01*
X-16110266Y-33025000D01*
X-16095575Y-33026447D01*
X-16095575Y-33026447D01*
G37*
G36*
X1504425Y-33026447D02*
G01*
X1533810Y-33029341D01*
X1590360Y-33046496D01*
X1590363Y-33046497D01*
X1642476Y-33074352D01*
X1688158Y-33111842D01*
X1725648Y-33157524D01*
X1753503Y-33209637D01*
X1753504Y-33209640D01*
X1770659Y-33266190D01*
X1776451Y-33325000D01*
X1770659Y-33383810D01*
X1753504Y-33440360D01*
X1753503Y-33440363D01*
X1725648Y-33492476D01*
X1688158Y-33538158D01*
X1642476Y-33575648D01*
X1590363Y-33603503D01*
X1590360Y-33603504D01*
X1533810Y-33620659D01*
X1504425Y-33623553D01*
X1489734Y-33625000D01*
X460266Y-33625000D01*
X445575Y-33623553D01*
X416190Y-33620659D01*
X359640Y-33603504D01*
X359637Y-33603503D01*
X307524Y-33575648D01*
X261842Y-33538158D01*
X224352Y-33492476D01*
X196497Y-33440363D01*
X196496Y-33440360D01*
X179341Y-33383810D01*
X173549Y-33325000D01*
X179341Y-33266190D01*
X196496Y-33209640D01*
X196497Y-33209637D01*
X224352Y-33157524D01*
X261842Y-33111842D01*
X307524Y-33074352D01*
X359637Y-33046497D01*
X359640Y-33046496D01*
X416190Y-33029341D01*
X445575Y-33026447D01*
X460266Y-33025000D01*
X1489734Y-33025000D01*
X1504425Y-33026447D01*
X1504425Y-33026447D01*
G37*
G36*
X6733351Y-31330743D02*
G01*
X6878941Y-31391048D01*
X7009970Y-31478599D01*
X7121401Y-31590030D01*
X7208952Y-31721059D01*
X7269257Y-31866649D01*
X7300000Y-32021206D01*
X7300000Y-32178794D01*
X7269257Y-32333351D01*
X7208952Y-32478941D01*
X7121401Y-32609970D01*
X7009970Y-32721401D01*
X6878941Y-32808952D01*
X6733351Y-32869257D01*
X6578794Y-32900000D01*
X6421206Y-32900000D01*
X6266649Y-32869257D01*
X6121059Y-32808952D01*
X5990030Y-32721401D01*
X5878599Y-32609970D01*
X5791048Y-32478941D01*
X5730743Y-32333351D01*
X5700000Y-32178794D01*
X5700000Y-32021206D01*
X5730743Y-31866649D01*
X5791048Y-31721059D01*
X5878599Y-31590030D01*
X5990030Y-31478599D01*
X6121059Y-31391048D01*
X6266649Y-31330743D01*
X6421206Y-31300000D01*
X6578794Y-31300000D01*
X6733351Y-31330743D01*
X6733351Y-31330743D01*
G37*
G36*
X9800000Y-32900000D02*
G01*
X8200000Y-32900000D01*
X8200000Y-31300000D01*
X9800000Y-31300000D01*
X9800000Y-32900000D01*
X9800000Y-32900000D01*
G37*
G36*
X1504425Y-31926447D02*
G01*
X1533810Y-31929341D01*
X1590360Y-31946496D01*
X1590363Y-31946497D01*
X1642476Y-31974352D01*
X1688158Y-32011842D01*
X1725648Y-32057524D01*
X1753503Y-32109637D01*
X1753504Y-32109640D01*
X1770659Y-32166190D01*
X1776451Y-32225000D01*
X1770659Y-32283810D01*
X1755630Y-32333351D01*
X1753503Y-32340363D01*
X1725648Y-32392476D01*
X1688158Y-32438158D01*
X1642476Y-32475648D01*
X1590363Y-32503503D01*
X1590360Y-32503504D01*
X1533810Y-32520659D01*
X1504425Y-32523553D01*
X1489734Y-32525000D01*
X460266Y-32525000D01*
X445575Y-32523553D01*
X416190Y-32520659D01*
X359640Y-32503504D01*
X359637Y-32503503D01*
X307524Y-32475648D01*
X261842Y-32438158D01*
X224352Y-32392476D01*
X196497Y-32340363D01*
X194370Y-32333351D01*
X179341Y-32283810D01*
X173549Y-32225000D01*
X179341Y-32166190D01*
X196496Y-32109640D01*
X196497Y-32109637D01*
X224352Y-32057524D01*
X261842Y-32011842D01*
X307524Y-31974352D01*
X359637Y-31946497D01*
X359640Y-31946496D01*
X416190Y-31929341D01*
X445575Y-31926447D01*
X460266Y-31925000D01*
X1489734Y-31925000D01*
X1504425Y-31926447D01*
X1504425Y-31926447D01*
G37*
G36*
X-16095575Y-31926447D02*
G01*
X-16066190Y-31929341D01*
X-16009640Y-31946496D01*
X-16009637Y-31946497D01*
X-15957524Y-31974352D01*
X-15911842Y-32011842D01*
X-15874352Y-32057524D01*
X-15846497Y-32109637D01*
X-15846496Y-32109640D01*
X-15829341Y-32166190D01*
X-15823549Y-32225000D01*
X-15829341Y-32283810D01*
X-15844370Y-32333351D01*
X-15846497Y-32340363D01*
X-15874352Y-32392476D01*
X-15911842Y-32438158D01*
X-15957524Y-32475648D01*
X-16009637Y-32503503D01*
X-16009640Y-32503504D01*
X-16066190Y-32520659D01*
X-16095575Y-32523553D01*
X-16110266Y-32525000D01*
X-17139734Y-32525000D01*
X-17154425Y-32523553D01*
X-17183810Y-32520659D01*
X-17240360Y-32503504D01*
X-17240363Y-32503503D01*
X-17292476Y-32475648D01*
X-17338158Y-32438158D01*
X-17375648Y-32392476D01*
X-17403503Y-32340363D01*
X-17405630Y-32333351D01*
X-17420659Y-32283810D01*
X-17426451Y-32225000D01*
X-17420659Y-32166190D01*
X-17403504Y-32109640D01*
X-17403503Y-32109637D01*
X-17375648Y-32057524D01*
X-17338158Y-32011842D01*
X-17292476Y-31974352D01*
X-17240363Y-31946497D01*
X-17240360Y-31946496D01*
X-17183810Y-31929341D01*
X-17154425Y-31926447D01*
X-17139734Y-31925000D01*
X-16110266Y-31925000D01*
X-16095575Y-31926447D01*
X-16095575Y-31926447D01*
G37*
G36*
X1504425Y-30826447D02*
G01*
X1533810Y-30829341D01*
X1590360Y-30846496D01*
X1590363Y-30846497D01*
X1642476Y-30874352D01*
X1688158Y-30911842D01*
X1725648Y-30957524D01*
X1753503Y-31009637D01*
X1753504Y-31009640D01*
X1770659Y-31066190D01*
X1776451Y-31125000D01*
X1770659Y-31183810D01*
X1753504Y-31240360D01*
X1753503Y-31240363D01*
X1725648Y-31292476D01*
X1688158Y-31338158D01*
X1642476Y-31375648D01*
X1590363Y-31403503D01*
X1590360Y-31403504D01*
X1533810Y-31420659D01*
X1504425Y-31423553D01*
X1489734Y-31425000D01*
X460266Y-31425000D01*
X445575Y-31423553D01*
X416190Y-31420659D01*
X359640Y-31403504D01*
X359637Y-31403503D01*
X307524Y-31375648D01*
X261842Y-31338158D01*
X224352Y-31292476D01*
X196497Y-31240363D01*
X196496Y-31240360D01*
X179341Y-31183810D01*
X173549Y-31125000D01*
X179341Y-31066190D01*
X196496Y-31009640D01*
X196497Y-31009637D01*
X224352Y-30957524D01*
X261842Y-30911842D01*
X307524Y-30874352D01*
X359637Y-30846497D01*
X359640Y-30846496D01*
X416190Y-30829341D01*
X445575Y-30826447D01*
X460266Y-30825000D01*
X1489734Y-30825000D01*
X1504425Y-30826447D01*
X1504425Y-30826447D01*
G37*
G36*
X-16095575Y-30826447D02*
G01*
X-16066190Y-30829341D01*
X-16009640Y-30846496D01*
X-16009637Y-30846497D01*
X-15957524Y-30874352D01*
X-15911842Y-30911842D01*
X-15874352Y-30957524D01*
X-15846497Y-31009637D01*
X-15846496Y-31009640D01*
X-15829341Y-31066190D01*
X-15823549Y-31125000D01*
X-15829341Y-31183810D01*
X-15846496Y-31240360D01*
X-15846497Y-31240363D01*
X-15874352Y-31292476D01*
X-15911842Y-31338158D01*
X-15957524Y-31375648D01*
X-16009637Y-31403503D01*
X-16009640Y-31403504D01*
X-16066190Y-31420659D01*
X-16095575Y-31423553D01*
X-16110266Y-31425000D01*
X-17139734Y-31425000D01*
X-17154425Y-31423553D01*
X-17183810Y-31420659D01*
X-17240360Y-31403504D01*
X-17240363Y-31403503D01*
X-17292476Y-31375648D01*
X-17338158Y-31338158D01*
X-17375648Y-31292476D01*
X-17403503Y-31240363D01*
X-17403504Y-31240360D01*
X-17420659Y-31183810D01*
X-17426451Y-31125000D01*
X-17420659Y-31066190D01*
X-17403504Y-31009640D01*
X-17403503Y-31009637D01*
X-17375648Y-30957524D01*
X-17338158Y-30911842D01*
X-17292476Y-30874352D01*
X-17240363Y-30846497D01*
X-17240360Y-30846496D01*
X-17183810Y-30829341D01*
X-17154425Y-30826447D01*
X-17139734Y-30825000D01*
X-16110266Y-30825000D01*
X-16095575Y-30826447D01*
X-16095575Y-30826447D01*
G37*
G36*
X-16095575Y-29726447D02*
G01*
X-16066190Y-29729341D01*
X-16009640Y-29746496D01*
X-16009637Y-29746497D01*
X-15957524Y-29774352D01*
X-15911842Y-29811842D01*
X-15874352Y-29857524D01*
X-15846497Y-29909637D01*
X-15846496Y-29909640D01*
X-15829341Y-29966190D01*
X-15823549Y-30025000D01*
X-15829341Y-30083810D01*
X-15846496Y-30140360D01*
X-15846497Y-30140363D01*
X-15874352Y-30192476D01*
X-15911842Y-30238158D01*
X-15957524Y-30275648D01*
X-16009637Y-30303503D01*
X-16009640Y-30303504D01*
X-16066190Y-30320659D01*
X-16095575Y-30323553D01*
X-16110266Y-30325000D01*
X-17139734Y-30325000D01*
X-17154425Y-30323553D01*
X-17183810Y-30320659D01*
X-17240360Y-30303504D01*
X-17240363Y-30303503D01*
X-17292476Y-30275648D01*
X-17338158Y-30238158D01*
X-17375648Y-30192476D01*
X-17403503Y-30140363D01*
X-17403504Y-30140360D01*
X-17420659Y-30083810D01*
X-17426451Y-30025000D01*
X-17420659Y-29966190D01*
X-17403504Y-29909640D01*
X-17403503Y-29909637D01*
X-17375648Y-29857524D01*
X-17338158Y-29811842D01*
X-17292476Y-29774352D01*
X-17240363Y-29746497D01*
X-17240360Y-29746496D01*
X-17183810Y-29729341D01*
X-17154425Y-29726447D01*
X-17139734Y-29725000D01*
X-16110266Y-29725000D01*
X-16095575Y-29726447D01*
X-16095575Y-29726447D01*
G37*
G36*
X1504425Y-29726447D02*
G01*
X1533810Y-29729341D01*
X1590360Y-29746496D01*
X1590363Y-29746497D01*
X1642476Y-29774352D01*
X1688158Y-29811842D01*
X1725648Y-29857524D01*
X1753503Y-29909637D01*
X1753504Y-29909640D01*
X1770659Y-29966190D01*
X1776451Y-30025000D01*
X1770659Y-30083810D01*
X1753504Y-30140360D01*
X1753503Y-30140363D01*
X1725648Y-30192476D01*
X1688158Y-30238158D01*
X1642476Y-30275648D01*
X1590363Y-30303503D01*
X1590360Y-30303504D01*
X1533810Y-30320659D01*
X1504425Y-30323553D01*
X1489734Y-30325000D01*
X460266Y-30325000D01*
X445575Y-30323553D01*
X416190Y-30320659D01*
X359640Y-30303504D01*
X359637Y-30303503D01*
X307524Y-30275648D01*
X261842Y-30238158D01*
X224352Y-30192476D01*
X196497Y-30140363D01*
X196496Y-30140360D01*
X179341Y-30083810D01*
X173549Y-30025000D01*
X179341Y-29966190D01*
X196496Y-29909640D01*
X196497Y-29909637D01*
X224352Y-29857524D01*
X261842Y-29811842D01*
X307524Y-29774352D01*
X359637Y-29746497D01*
X359640Y-29746496D01*
X416190Y-29729341D01*
X445575Y-29726447D01*
X460266Y-29725000D01*
X1489734Y-29725000D01*
X1504425Y-29726447D01*
X1504425Y-29726447D01*
G37*
G36*
X15633351Y-28030743D02*
G01*
X15778941Y-28091048D01*
X15909970Y-28178599D01*
X16021401Y-28290030D01*
X16108952Y-28421059D01*
X16169257Y-28566649D01*
X16200000Y-28721206D01*
X16200000Y-28878794D01*
X16169257Y-29033351D01*
X16108952Y-29178941D01*
X16021401Y-29309970D01*
X15909970Y-29421401D01*
X15778941Y-29508952D01*
X15633351Y-29569257D01*
X15478794Y-29600000D01*
X15321206Y-29600000D01*
X15166649Y-29569257D01*
X15021059Y-29508952D01*
X14890030Y-29421401D01*
X14778599Y-29309970D01*
X14691048Y-29178941D01*
X14630743Y-29033351D01*
X14600000Y-28878794D01*
X14600000Y-28721206D01*
X14630743Y-28566649D01*
X14691048Y-28421059D01*
X14778599Y-28290030D01*
X14890030Y-28178599D01*
X15021059Y-28091048D01*
X15166649Y-28030743D01*
X15321206Y-28000000D01*
X15478794Y-28000000D01*
X15633351Y-28030743D01*
X15633351Y-28030743D01*
G37*
G36*
X13700000Y-29600000D02*
G01*
X12100000Y-29600000D01*
X12100000Y-28000000D01*
X13700000Y-28000000D01*
X13700000Y-29600000D01*
X13700000Y-29600000D01*
G37*
G36*
X-12755397Y-25775480D02*
G01*
X-12716190Y-25779341D01*
X-12659640Y-25796496D01*
X-12659637Y-25796497D01*
X-12607524Y-25824352D01*
X-12561842Y-25861842D01*
X-12524352Y-25907524D01*
X-12496497Y-25959637D01*
X-12496496Y-25959640D01*
X-12479341Y-26016190D01*
X-12475000Y-26060267D01*
X-12475000Y-27089733D01*
X-12479341Y-27133810D01*
X-12496496Y-27190359D01*
X-12496497Y-27190363D01*
X-12524352Y-27242476D01*
X-12561841Y-27288157D01*
X-12607525Y-27325648D01*
X-12659638Y-27353503D01*
X-12659641Y-27353504D01*
X-12716191Y-27370659D01*
X-12775000Y-27376451D01*
X-12775001Y-27376451D01*
X-12794603Y-27374520D01*
X-12833810Y-27370659D01*
X-12890360Y-27353504D01*
X-12890363Y-27353503D01*
X-12942476Y-27325648D01*
X-12988157Y-27288159D01*
X-13025648Y-27242475D01*
X-13053503Y-27190362D01*
X-13053504Y-27190359D01*
X-13070659Y-27133809D01*
X-13075000Y-27089732D01*
X-13074999Y-26060267D01*
X-13070658Y-26016190D01*
X-13053503Y-25959640D01*
X-13053502Y-25959637D01*
X-13025647Y-25907524D01*
X-12988157Y-25861842D01*
X-12942475Y-25824352D01*
X-12890362Y-25796497D01*
X-12890359Y-25796496D01*
X-12833809Y-25779341D01*
X-12775000Y-25773549D01*
X-12774999Y-25773549D01*
X-12755397Y-25775480D01*
X-12755397Y-25775480D01*
G37*
G36*
X-13855397Y-25775480D02*
G01*
X-13816190Y-25779341D01*
X-13759640Y-25796496D01*
X-13759637Y-25796497D01*
X-13707524Y-25824352D01*
X-13661842Y-25861842D01*
X-13624352Y-25907524D01*
X-13596497Y-25959637D01*
X-13596496Y-25959640D01*
X-13579341Y-26016190D01*
X-13575000Y-26060267D01*
X-13575000Y-27089733D01*
X-13579341Y-27133810D01*
X-13596496Y-27190359D01*
X-13596497Y-27190363D01*
X-13624352Y-27242476D01*
X-13661841Y-27288157D01*
X-13707525Y-27325648D01*
X-13759638Y-27353503D01*
X-13759641Y-27353504D01*
X-13816191Y-27370659D01*
X-13875000Y-27376451D01*
X-13875001Y-27376451D01*
X-13894603Y-27374520D01*
X-13933810Y-27370659D01*
X-13990360Y-27353504D01*
X-13990363Y-27353503D01*
X-14042476Y-27325648D01*
X-14088157Y-27288159D01*
X-14125648Y-27242475D01*
X-14153503Y-27190362D01*
X-14153504Y-27190359D01*
X-14170659Y-27133809D01*
X-14175000Y-27089732D01*
X-14174999Y-26060267D01*
X-14170658Y-26016190D01*
X-14153503Y-25959640D01*
X-14153502Y-25959637D01*
X-14125647Y-25907524D01*
X-14088157Y-25861842D01*
X-14042475Y-25824352D01*
X-13990362Y-25796497D01*
X-13990359Y-25796496D01*
X-13933809Y-25779341D01*
X-13875000Y-25773549D01*
X-13874999Y-25773549D01*
X-13855397Y-25775480D01*
X-13855397Y-25775480D01*
G37*
G36*
X-5055397Y-25775480D02*
G01*
X-5016190Y-25779341D01*
X-4959640Y-25796496D01*
X-4959637Y-25796497D01*
X-4907524Y-25824352D01*
X-4861842Y-25861842D01*
X-4824352Y-25907524D01*
X-4796497Y-25959637D01*
X-4796496Y-25959640D01*
X-4779341Y-26016190D01*
X-4775000Y-26060267D01*
X-4775000Y-27089733D01*
X-4779341Y-27133810D01*
X-4796496Y-27190359D01*
X-4796497Y-27190363D01*
X-4824352Y-27242476D01*
X-4861841Y-27288157D01*
X-4907525Y-27325648D01*
X-4959638Y-27353503D01*
X-4959641Y-27353504D01*
X-5016191Y-27370659D01*
X-5075000Y-27376451D01*
X-5075001Y-27376451D01*
X-5094603Y-27374520D01*
X-5133810Y-27370659D01*
X-5190360Y-27353504D01*
X-5190363Y-27353503D01*
X-5242476Y-27325648D01*
X-5288157Y-27288159D01*
X-5325648Y-27242475D01*
X-5353503Y-27190362D01*
X-5353504Y-27190359D01*
X-5370659Y-27133809D01*
X-5375000Y-27089732D01*
X-5374999Y-26060267D01*
X-5370658Y-26016190D01*
X-5353503Y-25959640D01*
X-5353502Y-25959637D01*
X-5325647Y-25907524D01*
X-5288157Y-25861842D01*
X-5242475Y-25824352D01*
X-5190362Y-25796497D01*
X-5190359Y-25796496D01*
X-5133809Y-25779341D01*
X-5075000Y-25773549D01*
X-5074999Y-25773549D01*
X-5055397Y-25775480D01*
X-5055397Y-25775480D01*
G37*
G36*
X-3955397Y-25775480D02*
G01*
X-3916190Y-25779341D01*
X-3859640Y-25796496D01*
X-3859637Y-25796497D01*
X-3807524Y-25824352D01*
X-3761842Y-25861842D01*
X-3724352Y-25907524D01*
X-3696497Y-25959637D01*
X-3696496Y-25959640D01*
X-3679341Y-26016190D01*
X-3675000Y-26060267D01*
X-3675000Y-27089733D01*
X-3679341Y-27133810D01*
X-3696496Y-27190359D01*
X-3696497Y-27190363D01*
X-3724352Y-27242476D01*
X-3761841Y-27288157D01*
X-3807525Y-27325648D01*
X-3859638Y-27353503D01*
X-3859641Y-27353504D01*
X-3916191Y-27370659D01*
X-3975000Y-27376451D01*
X-3975001Y-27376451D01*
X-3994603Y-27374520D01*
X-4033810Y-27370659D01*
X-4090360Y-27353504D01*
X-4090363Y-27353503D01*
X-4142476Y-27325648D01*
X-4188157Y-27288159D01*
X-4225648Y-27242475D01*
X-4253503Y-27190362D01*
X-4253504Y-27190359D01*
X-4270659Y-27133809D01*
X-4275000Y-27089732D01*
X-4274999Y-26060267D01*
X-4270658Y-26016190D01*
X-4253503Y-25959640D01*
X-4253502Y-25959637D01*
X-4225647Y-25907524D01*
X-4188157Y-25861842D01*
X-4142475Y-25824352D01*
X-4090362Y-25796497D01*
X-4090359Y-25796496D01*
X-4033809Y-25779341D01*
X-3975000Y-25773549D01*
X-3974999Y-25773549D01*
X-3955397Y-25775480D01*
X-3955397Y-25775480D01*
G37*
G36*
X-2855397Y-25775480D02*
G01*
X-2816190Y-25779341D01*
X-2759640Y-25796496D01*
X-2759637Y-25796497D01*
X-2707524Y-25824352D01*
X-2661842Y-25861842D01*
X-2624352Y-25907524D01*
X-2596497Y-25959637D01*
X-2596496Y-25959640D01*
X-2579341Y-26016190D01*
X-2575000Y-26060267D01*
X-2575000Y-27089733D01*
X-2579341Y-27133810D01*
X-2596496Y-27190359D01*
X-2596497Y-27190363D01*
X-2624352Y-27242476D01*
X-2661841Y-27288157D01*
X-2707525Y-27325648D01*
X-2759638Y-27353503D01*
X-2759641Y-27353504D01*
X-2816191Y-27370659D01*
X-2875000Y-27376451D01*
X-2875001Y-27376451D01*
X-2894603Y-27374520D01*
X-2933810Y-27370659D01*
X-2990360Y-27353504D01*
X-2990363Y-27353503D01*
X-3042476Y-27325648D01*
X-3088157Y-27288159D01*
X-3125648Y-27242475D01*
X-3153503Y-27190362D01*
X-3153504Y-27190359D01*
X-3170659Y-27133809D01*
X-3175000Y-27089732D01*
X-3174999Y-26060267D01*
X-3170658Y-26016190D01*
X-3153503Y-25959640D01*
X-3153502Y-25959637D01*
X-3125647Y-25907524D01*
X-3088157Y-25861842D01*
X-3042475Y-25824352D01*
X-2990362Y-25796497D01*
X-2990359Y-25796496D01*
X-2933809Y-25779341D01*
X-2875000Y-25773549D01*
X-2874999Y-25773549D01*
X-2855397Y-25775480D01*
X-2855397Y-25775480D01*
G37*
G36*
X-8355397Y-25775480D02*
G01*
X-8316190Y-25779341D01*
X-8259640Y-25796496D01*
X-8259637Y-25796497D01*
X-8207524Y-25824352D01*
X-8161842Y-25861842D01*
X-8124352Y-25907524D01*
X-8096497Y-25959637D01*
X-8096496Y-25959640D01*
X-8079341Y-26016190D01*
X-8075000Y-26060267D01*
X-8075000Y-27089733D01*
X-8079341Y-27133810D01*
X-8096496Y-27190359D01*
X-8096497Y-27190363D01*
X-8124352Y-27242476D01*
X-8161841Y-27288157D01*
X-8207525Y-27325648D01*
X-8259638Y-27353503D01*
X-8259641Y-27353504D01*
X-8316191Y-27370659D01*
X-8375000Y-27376451D01*
X-8375001Y-27376451D01*
X-8394603Y-27374520D01*
X-8433810Y-27370659D01*
X-8490360Y-27353504D01*
X-8490363Y-27353503D01*
X-8542476Y-27325648D01*
X-8588157Y-27288159D01*
X-8625648Y-27242475D01*
X-8653503Y-27190362D01*
X-8653504Y-27190359D01*
X-8670659Y-27133809D01*
X-8675000Y-27089732D01*
X-8674999Y-26060267D01*
X-8670658Y-26016190D01*
X-8653503Y-25959640D01*
X-8653502Y-25959637D01*
X-8625647Y-25907524D01*
X-8588157Y-25861842D01*
X-8542475Y-25824352D01*
X-8490362Y-25796497D01*
X-8490359Y-25796496D01*
X-8433809Y-25779341D01*
X-8375000Y-25773549D01*
X-8374999Y-25773549D01*
X-8355397Y-25775480D01*
X-8355397Y-25775480D01*
G37*
G36*
X-9455397Y-25775480D02*
G01*
X-9416190Y-25779341D01*
X-9359640Y-25796496D01*
X-9359637Y-25796497D01*
X-9307524Y-25824352D01*
X-9261842Y-25861842D01*
X-9224352Y-25907524D01*
X-9196497Y-25959637D01*
X-9196496Y-25959640D01*
X-9179341Y-26016190D01*
X-9175000Y-26060267D01*
X-9175000Y-27089733D01*
X-9179341Y-27133810D01*
X-9196496Y-27190359D01*
X-9196497Y-27190363D01*
X-9224352Y-27242476D01*
X-9261841Y-27288157D01*
X-9307525Y-27325648D01*
X-9359638Y-27353503D01*
X-9359641Y-27353504D01*
X-9416191Y-27370659D01*
X-9475000Y-27376451D01*
X-9475001Y-27376451D01*
X-9494603Y-27374520D01*
X-9533810Y-27370659D01*
X-9590360Y-27353504D01*
X-9590363Y-27353503D01*
X-9642476Y-27325648D01*
X-9688157Y-27288159D01*
X-9725648Y-27242475D01*
X-9753503Y-27190362D01*
X-9753504Y-27190359D01*
X-9770659Y-27133809D01*
X-9775000Y-27089732D01*
X-9774999Y-26060267D01*
X-9770658Y-26016190D01*
X-9753503Y-25959640D01*
X-9753502Y-25959637D01*
X-9725647Y-25907524D01*
X-9688157Y-25861842D01*
X-9642475Y-25824352D01*
X-9590362Y-25796497D01*
X-9590359Y-25796496D01*
X-9533809Y-25779341D01*
X-9475000Y-25773549D01*
X-9474999Y-25773549D01*
X-9455397Y-25775480D01*
X-9455397Y-25775480D01*
G37*
G36*
X-1755397Y-25775480D02*
G01*
X-1716190Y-25779341D01*
X-1659640Y-25796496D01*
X-1659637Y-25796497D01*
X-1607524Y-25824352D01*
X-1561842Y-25861842D01*
X-1524352Y-25907524D01*
X-1496497Y-25959637D01*
X-1496496Y-25959640D01*
X-1479341Y-26016190D01*
X-1475000Y-26060267D01*
X-1475000Y-27089733D01*
X-1479341Y-27133810D01*
X-1496496Y-27190359D01*
X-1496497Y-27190363D01*
X-1524352Y-27242476D01*
X-1561841Y-27288157D01*
X-1607525Y-27325648D01*
X-1659638Y-27353503D01*
X-1659641Y-27353504D01*
X-1716191Y-27370659D01*
X-1775000Y-27376451D01*
X-1775001Y-27376451D01*
X-1794603Y-27374520D01*
X-1833810Y-27370659D01*
X-1890360Y-27353504D01*
X-1890363Y-27353503D01*
X-1942476Y-27325648D01*
X-1988157Y-27288159D01*
X-2025648Y-27242475D01*
X-2053503Y-27190362D01*
X-2053504Y-27190359D01*
X-2070659Y-27133809D01*
X-2075000Y-27089732D01*
X-2074999Y-26060267D01*
X-2070658Y-26016190D01*
X-2053503Y-25959640D01*
X-2053502Y-25959637D01*
X-2025647Y-25907524D01*
X-1988157Y-25861842D01*
X-1942475Y-25824352D01*
X-1890362Y-25796497D01*
X-1890359Y-25796496D01*
X-1833809Y-25779341D01*
X-1775000Y-25773549D01*
X-1774999Y-25773549D01*
X-1755397Y-25775480D01*
X-1755397Y-25775480D01*
G37*
G36*
X-6155397Y-25775480D02*
G01*
X-6116190Y-25779341D01*
X-6059640Y-25796496D01*
X-6059637Y-25796497D01*
X-6007524Y-25824352D01*
X-5961842Y-25861842D01*
X-5924352Y-25907524D01*
X-5896497Y-25959637D01*
X-5896496Y-25959640D01*
X-5879341Y-26016190D01*
X-5875000Y-26060267D01*
X-5875000Y-27089733D01*
X-5879341Y-27133810D01*
X-5896496Y-27190359D01*
X-5896497Y-27190363D01*
X-5924352Y-27242476D01*
X-5961841Y-27288157D01*
X-6007525Y-27325648D01*
X-6059638Y-27353503D01*
X-6059641Y-27353504D01*
X-6116191Y-27370659D01*
X-6175000Y-27376451D01*
X-6175001Y-27376451D01*
X-6194603Y-27374520D01*
X-6233810Y-27370659D01*
X-6290360Y-27353504D01*
X-6290363Y-27353503D01*
X-6342476Y-27325648D01*
X-6388157Y-27288159D01*
X-6425648Y-27242475D01*
X-6453503Y-27190362D01*
X-6453504Y-27190359D01*
X-6470659Y-27133809D01*
X-6475000Y-27089732D01*
X-6474999Y-26060267D01*
X-6470658Y-26016190D01*
X-6453503Y-25959640D01*
X-6453502Y-25959637D01*
X-6425647Y-25907524D01*
X-6388157Y-25861842D01*
X-6342475Y-25824352D01*
X-6290362Y-25796497D01*
X-6290359Y-25796496D01*
X-6233809Y-25779341D01*
X-6175000Y-25773549D01*
X-6174999Y-25773549D01*
X-6155397Y-25775480D01*
X-6155397Y-25775480D01*
G37*
G36*
X-11655397Y-25775480D02*
G01*
X-11616190Y-25779341D01*
X-11559640Y-25796496D01*
X-11559637Y-25796497D01*
X-11507524Y-25824352D01*
X-11461842Y-25861842D01*
X-11424352Y-25907524D01*
X-11396497Y-25959637D01*
X-11396496Y-25959640D01*
X-11379341Y-26016190D01*
X-11375000Y-26060267D01*
X-11375000Y-27089733D01*
X-11379341Y-27133810D01*
X-11396496Y-27190359D01*
X-11396497Y-27190363D01*
X-11424352Y-27242476D01*
X-11461841Y-27288157D01*
X-11507525Y-27325648D01*
X-11559638Y-27353503D01*
X-11559641Y-27353504D01*
X-11616191Y-27370659D01*
X-11675000Y-27376451D01*
X-11675001Y-27376451D01*
X-11694603Y-27374520D01*
X-11733810Y-27370659D01*
X-11790360Y-27353504D01*
X-11790363Y-27353503D01*
X-11842476Y-27325648D01*
X-11888157Y-27288159D01*
X-11925648Y-27242475D01*
X-11953503Y-27190362D01*
X-11953504Y-27190359D01*
X-11970659Y-27133809D01*
X-11975000Y-27089732D01*
X-11974999Y-26060267D01*
X-11970658Y-26016190D01*
X-11953503Y-25959640D01*
X-11953502Y-25959637D01*
X-11925647Y-25907524D01*
X-11888157Y-25861842D01*
X-11842475Y-25824352D01*
X-11790362Y-25796497D01*
X-11790359Y-25796496D01*
X-11733809Y-25779341D01*
X-11675000Y-25773549D01*
X-11674999Y-25773549D01*
X-11655397Y-25775480D01*
X-11655397Y-25775480D01*
G37*
G36*
X-7255397Y-25775480D02*
G01*
X-7216190Y-25779341D01*
X-7159640Y-25796496D01*
X-7159637Y-25796497D01*
X-7107524Y-25824352D01*
X-7061842Y-25861842D01*
X-7024352Y-25907524D01*
X-6996497Y-25959637D01*
X-6996496Y-25959640D01*
X-6979341Y-26016190D01*
X-6975000Y-26060267D01*
X-6975000Y-27089733D01*
X-6979341Y-27133810D01*
X-6996496Y-27190359D01*
X-6996497Y-27190363D01*
X-7024352Y-27242476D01*
X-7061841Y-27288157D01*
X-7107525Y-27325648D01*
X-7159638Y-27353503D01*
X-7159641Y-27353504D01*
X-7216191Y-27370659D01*
X-7275000Y-27376451D01*
X-7275001Y-27376451D01*
X-7294603Y-27374520D01*
X-7333810Y-27370659D01*
X-7390360Y-27353504D01*
X-7390363Y-27353503D01*
X-7442476Y-27325648D01*
X-7488157Y-27288159D01*
X-7525648Y-27242475D01*
X-7553503Y-27190362D01*
X-7553504Y-27190359D01*
X-7570659Y-27133809D01*
X-7575000Y-27089732D01*
X-7574999Y-26060267D01*
X-7570658Y-26016190D01*
X-7553503Y-25959640D01*
X-7553502Y-25959637D01*
X-7525647Y-25907524D01*
X-7488157Y-25861842D01*
X-7442475Y-25824352D01*
X-7390362Y-25796497D01*
X-7390359Y-25796496D01*
X-7333809Y-25779341D01*
X-7275000Y-25773549D01*
X-7274999Y-25773549D01*
X-7255397Y-25775480D01*
X-7255397Y-25775480D01*
G37*
G36*
X-10555397Y-25775480D02*
G01*
X-10516190Y-25779341D01*
X-10459640Y-25796496D01*
X-10459637Y-25796497D01*
X-10407524Y-25824352D01*
X-10361842Y-25861842D01*
X-10324352Y-25907524D01*
X-10296497Y-25959637D01*
X-10296496Y-25959640D01*
X-10279341Y-26016190D01*
X-10275000Y-26060267D01*
X-10275000Y-27089733D01*
X-10279341Y-27133810D01*
X-10296496Y-27190359D01*
X-10296497Y-27190363D01*
X-10324352Y-27242476D01*
X-10361841Y-27288157D01*
X-10407525Y-27325648D01*
X-10459638Y-27353503D01*
X-10459641Y-27353504D01*
X-10516191Y-27370659D01*
X-10575000Y-27376451D01*
X-10575001Y-27376451D01*
X-10594603Y-27374520D01*
X-10633810Y-27370659D01*
X-10690360Y-27353504D01*
X-10690363Y-27353503D01*
X-10742476Y-27325648D01*
X-10788157Y-27288159D01*
X-10825648Y-27242475D01*
X-10853503Y-27190362D01*
X-10853504Y-27190359D01*
X-10870659Y-27133809D01*
X-10875000Y-27089732D01*
X-10874999Y-26060267D01*
X-10870658Y-26016190D01*
X-10853503Y-25959640D01*
X-10853502Y-25959637D01*
X-10825647Y-25907524D01*
X-10788157Y-25861842D01*
X-10742475Y-25824352D01*
X-10690362Y-25796497D01*
X-10690359Y-25796496D01*
X-10633809Y-25779341D01*
X-10575000Y-25773549D01*
X-10574999Y-25773549D01*
X-10555397Y-25775480D01*
X-10555397Y-25775480D01*
G37*
G36*
X9800000Y-25900000D02*
G01*
X8200000Y-25900000D01*
X8200000Y-24300000D01*
X9800000Y-24300000D01*
X9800000Y-25900000D01*
X9800000Y-25900000D01*
G37*
G36*
X6733351Y-24330743D02*
G01*
X6878941Y-24391048D01*
X7009970Y-24478599D01*
X7121401Y-24590030D01*
X7208952Y-24721059D01*
X7269257Y-24866649D01*
X7300000Y-25021206D01*
X7300000Y-25178794D01*
X7269257Y-25333351D01*
X7208952Y-25478941D01*
X7121401Y-25609970D01*
X7009970Y-25721401D01*
X6878941Y-25808952D01*
X6733351Y-25869257D01*
X6578794Y-25900000D01*
X6421206Y-25900000D01*
X6266649Y-25869257D01*
X6121059Y-25808952D01*
X5990030Y-25721401D01*
X5878599Y-25609970D01*
X5791048Y-25478941D01*
X5730743Y-25333351D01*
X5700000Y-25178794D01*
X5700000Y-25021206D01*
X5730743Y-24866649D01*
X5791048Y-24721059D01*
X5878599Y-24590030D01*
X5990030Y-24478599D01*
X6121059Y-24391048D01*
X6266649Y-24330743D01*
X6421206Y-24300000D01*
X6578794Y-24300000D01*
X6733351Y-24330743D01*
X6733351Y-24330743D01*
G37*
G36*
X-16305000Y-22500000D02*
G01*
X-18905000Y-22500000D01*
X-18905000Y-21400000D01*
X-16305000Y-21400000D01*
X-16305000Y-22500000D01*
X-16305000Y-22500000D01*
G37*
G36*
X-3625000Y-22500000D02*
G01*
X-6225000Y-22500000D01*
X-6225000Y-21400000D01*
X-3625000Y-21400000D01*
X-3625000Y-22500000D01*
X-3625000Y-22500000D01*
G37*
G36*
X5111463Y-18382226D02*
G01*
X5127299Y-18387030D01*
X5141886Y-18394827D01*
X5154677Y-18405323D01*
X5165173Y-18418114D01*
X5172970Y-18432701D01*
X5177774Y-18448537D01*
X5180000Y-18471140D01*
X5180000Y-18928860D01*
X5177774Y-18951463D01*
X5172970Y-18967299D01*
X5165173Y-18981886D01*
X5154677Y-18994677D01*
X5141886Y-19005173D01*
X5127299Y-19012970D01*
X5111463Y-19017774D01*
X5088860Y-19020000D01*
X4681140Y-19020000D01*
X4658537Y-19017774D01*
X4642701Y-19012970D01*
X4628114Y-19005173D01*
X4615323Y-18994677D01*
X4604827Y-18981886D01*
X4597030Y-18967299D01*
X4592226Y-18951463D01*
X4590000Y-18928860D01*
X4590000Y-18471140D01*
X4592226Y-18448537D01*
X4597030Y-18432701D01*
X4604827Y-18418114D01*
X4615323Y-18405323D01*
X4628114Y-18394827D01*
X4642701Y-18387030D01*
X4658537Y-18382226D01*
X4681140Y-18380000D01*
X5088860Y-18380000D01*
X5111463Y-18382226D01*
X5111463Y-18382226D01*
G37*
G36*
X9008011Y-18382226D02*
G01*
X9023847Y-18387030D01*
X9038434Y-18394827D01*
X9051225Y-18405323D01*
X9061721Y-18418114D01*
X9069518Y-18432701D01*
X9074322Y-18448537D01*
X9076548Y-18471140D01*
X9076548Y-18928860D01*
X9074322Y-18951463D01*
X9069518Y-18967299D01*
X9061721Y-18981886D01*
X9051225Y-18994677D01*
X9038434Y-19005173D01*
X9023847Y-19012970D01*
X9008011Y-19017774D01*
X8985408Y-19020000D01*
X8577688Y-19020000D01*
X8555085Y-19017774D01*
X8539249Y-19012970D01*
X8524662Y-19005173D01*
X8511871Y-18994677D01*
X8501375Y-18981886D01*
X8493578Y-18967299D01*
X8488774Y-18951463D01*
X8486548Y-18928860D01*
X8486548Y-18471140D01*
X8488774Y-18448537D01*
X8493578Y-18432701D01*
X8501375Y-18418114D01*
X8511871Y-18405323D01*
X8524662Y-18394827D01*
X8539249Y-18387030D01*
X8555085Y-18382226D01*
X8577688Y-18380000D01*
X8985408Y-18380000D01*
X9008011Y-18382226D01*
X9008011Y-18382226D01*
G37*
G36*
X9978011Y-18382226D02*
G01*
X9993847Y-18387030D01*
X10008434Y-18394827D01*
X10021225Y-18405323D01*
X10031721Y-18418114D01*
X10039518Y-18432701D01*
X10044322Y-18448537D01*
X10046548Y-18471140D01*
X10046548Y-18928860D01*
X10044322Y-18951463D01*
X10039518Y-18967299D01*
X10031721Y-18981886D01*
X10021225Y-18994677D01*
X10008434Y-19005173D01*
X9993847Y-19012970D01*
X9978011Y-19017774D01*
X9955408Y-19020000D01*
X9547688Y-19020000D01*
X9525085Y-19017774D01*
X9509249Y-19012970D01*
X9494662Y-19005173D01*
X9481871Y-18994677D01*
X9471375Y-18981886D01*
X9463578Y-18967299D01*
X9458774Y-18951463D01*
X9456548Y-18928860D01*
X9456548Y-18471140D01*
X9458774Y-18448537D01*
X9463578Y-18432701D01*
X9471375Y-18418114D01*
X9481871Y-18405323D01*
X9494662Y-18394827D01*
X9509249Y-18387030D01*
X9525085Y-18382226D01*
X9547688Y-18380000D01*
X9955408Y-18380000D01*
X9978011Y-18382226D01*
X9978011Y-18382226D01*
G37*
G36*
X4141463Y-18382226D02*
G01*
X4157299Y-18387030D01*
X4171886Y-18394827D01*
X4184677Y-18405323D01*
X4195173Y-18418114D01*
X4202970Y-18432701D01*
X4207774Y-18448537D01*
X4210000Y-18471140D01*
X4210000Y-18928860D01*
X4207774Y-18951463D01*
X4202970Y-18967299D01*
X4195173Y-18981886D01*
X4184677Y-18994677D01*
X4171886Y-19005173D01*
X4157299Y-19012970D01*
X4141463Y-19017774D01*
X4118860Y-19020000D01*
X3711140Y-19020000D01*
X3688537Y-19017774D01*
X3672701Y-19012970D01*
X3658114Y-19005173D01*
X3645323Y-18994677D01*
X3634827Y-18981886D01*
X3627030Y-18967299D01*
X3622226Y-18951463D01*
X3620000Y-18928860D01*
X3620000Y-18471140D01*
X3622226Y-18448537D01*
X3627030Y-18432701D01*
X3634827Y-18418114D01*
X3645323Y-18405323D01*
X3658114Y-18394827D01*
X3672701Y-18387030D01*
X3688537Y-18382226D01*
X3711140Y-18380000D01*
X4118860Y-18380000D01*
X4141463Y-18382226D01*
X4141463Y-18382226D01*
G37*
G36*
X15454737Y-18194422D02*
G01*
X15470573Y-18199226D01*
X15485160Y-18207023D01*
X15497951Y-18217519D01*
X15508447Y-18230310D01*
X15516244Y-18244897D01*
X15521048Y-18260733D01*
X15523274Y-18283336D01*
X15523274Y-18741056D01*
X15521048Y-18763659D01*
X15516244Y-18779495D01*
X15508447Y-18794082D01*
X15497951Y-18806873D01*
X15485160Y-18817369D01*
X15470573Y-18825166D01*
X15454737Y-18829970D01*
X15432134Y-18832196D01*
X15024414Y-18832196D01*
X15001811Y-18829970D01*
X14985975Y-18825166D01*
X14971388Y-18817369D01*
X14958597Y-18806873D01*
X14948101Y-18794082D01*
X14940304Y-18779495D01*
X14935500Y-18763659D01*
X14933274Y-18741056D01*
X14933274Y-18283336D01*
X14935500Y-18260733D01*
X14940304Y-18244897D01*
X14948101Y-18230310D01*
X14958597Y-18217519D01*
X14971388Y-18207023D01*
X14985975Y-18199226D01*
X15001811Y-18194422D01*
X15024414Y-18192196D01*
X15432134Y-18192196D01*
X15454737Y-18194422D01*
X15454737Y-18194422D01*
G37*
G36*
X14484737Y-18194422D02*
G01*
X14500573Y-18199226D01*
X14515160Y-18207023D01*
X14527951Y-18217519D01*
X14538447Y-18230310D01*
X14546244Y-18244897D01*
X14551048Y-18260733D01*
X14553274Y-18283336D01*
X14553274Y-18741056D01*
X14551048Y-18763659D01*
X14546244Y-18779495D01*
X14538447Y-18794082D01*
X14527951Y-18806873D01*
X14515160Y-18817369D01*
X14500573Y-18825166D01*
X14484737Y-18829970D01*
X14462134Y-18832196D01*
X14054414Y-18832196D01*
X14031811Y-18829970D01*
X14015975Y-18825166D01*
X14001388Y-18817369D01*
X13988597Y-18806873D01*
X13978101Y-18794082D01*
X13970304Y-18779495D01*
X13965500Y-18763659D01*
X13963274Y-18741056D01*
X13963274Y-18283336D01*
X13965500Y-18260733D01*
X13970304Y-18244897D01*
X13978101Y-18230310D01*
X13988597Y-18217519D01*
X14001388Y-18207023D01*
X14015975Y-18199226D01*
X14031811Y-18194422D01*
X14054414Y-18192196D01*
X14462134Y-18192196D01*
X14484737Y-18194422D01*
X14484737Y-18194422D01*
G37*
G36*
X16193274Y-17762199D02*
G01*
X15393274Y-17762199D01*
X15393274Y-16862199D01*
X16193274Y-16862199D01*
X16193274Y-17762199D01*
X16193274Y-17762199D01*
G37*
G36*
X14293274Y-17762199D02*
G01*
X13493274Y-17762199D01*
X13493274Y-16862199D01*
X14293274Y-16862199D01*
X14293274Y-17762199D01*
X14293274Y-17762199D01*
G37*
G36*
X8750000Y-17750000D02*
G01*
X7950000Y-17750000D01*
X7950000Y-16850000D01*
X8750000Y-16850000D01*
X8750000Y-17750000D01*
X8750000Y-17750000D01*
G37*
G36*
X5750000Y-17750000D02*
G01*
X4950000Y-17750000D01*
X4950000Y-16850000D01*
X5750000Y-16850000D01*
X5750000Y-17750000D01*
X5750000Y-17750000D01*
G37*
G36*
X3850000Y-17750000D02*
G01*
X3050000Y-17750000D01*
X3050000Y-16850000D01*
X3850000Y-16850000D01*
X3850000Y-17750000D01*
X3850000Y-17750000D01*
G37*
G36*
X10650000Y-17750000D02*
G01*
X9850000Y-17750000D01*
X9850000Y-16850000D01*
X10650000Y-16850000D01*
X10650000Y-17750000D01*
X10650000Y-17750000D01*
G37*
G36*
X15243274Y-15762199D02*
G01*
X14443274Y-15762199D01*
X14443274Y-14862199D01*
X15243274Y-14862199D01*
X15243274Y-15762199D01*
X15243274Y-15762199D01*
G37*
G36*
X4800000Y-15750000D02*
G01*
X4000000Y-15750000D01*
X4000000Y-14850000D01*
X4800000Y-14850000D01*
X4800000Y-15750000D01*
X4800000Y-15750000D01*
G37*
G36*
X9700000Y-15750000D02*
G01*
X8900000Y-15750000D01*
X8900000Y-14850000D01*
X9700000Y-14850000D01*
X9700000Y-15750000D01*
X9700000Y-15750000D01*
G37*
G36*
X15094735Y-13804424D02*
G01*
X15110571Y-13809228D01*
X15125158Y-13817025D01*
X15137949Y-13827521D01*
X15148445Y-13840312D01*
X15156242Y-13854899D01*
X15161046Y-13870735D01*
X15163272Y-13893338D01*
X15163272Y-14301058D01*
X15161046Y-14323661D01*
X15156242Y-14339497D01*
X15148445Y-14354084D01*
X15137949Y-14366875D01*
X15125158Y-14377371D01*
X15110571Y-14385168D01*
X15094735Y-14389972D01*
X15072132Y-14392198D01*
X14614412Y-14392198D01*
X14591809Y-14389972D01*
X14575973Y-14385168D01*
X14561386Y-14377371D01*
X14548595Y-14366875D01*
X14538099Y-14354084D01*
X14530302Y-14339497D01*
X14525498Y-14323661D01*
X14523272Y-14301058D01*
X14523272Y-13893338D01*
X14525498Y-13870735D01*
X14530302Y-13854899D01*
X14538099Y-13840312D01*
X14548595Y-13827521D01*
X14561386Y-13817025D01*
X14575973Y-13809228D01*
X14591809Y-13804424D01*
X14614412Y-13802198D01*
X15072132Y-13802198D01*
X15094735Y-13804424D01*
X15094735Y-13804424D01*
G37*
G36*
X-1825000Y-14150000D02*
G01*
X-3175000Y-14150000D01*
X-3175000Y-13250000D01*
X-1825000Y-13250000D01*
X-1825000Y-14150000D01*
X-1825000Y-14150000D01*
G37*
G36*
X6441463Y-13382226D02*
G01*
X6457299Y-13387030D01*
X6471886Y-13394827D01*
X6484677Y-13405323D01*
X6495173Y-13418114D01*
X6502970Y-13432701D01*
X6507774Y-13448537D01*
X6510000Y-13471140D01*
X6510000Y-13928860D01*
X6507774Y-13951463D01*
X6502970Y-13967299D01*
X6495173Y-13981886D01*
X6484677Y-13994677D01*
X6471886Y-14005173D01*
X6457299Y-14012970D01*
X6441463Y-14017774D01*
X6418860Y-14020000D01*
X6011140Y-14020000D01*
X5988537Y-14017774D01*
X5972701Y-14012970D01*
X5958114Y-14005173D01*
X5945323Y-13994677D01*
X5934827Y-13981886D01*
X5927030Y-13967299D01*
X5922226Y-13951463D01*
X5920000Y-13928860D01*
X5920000Y-13471140D01*
X5922226Y-13448537D01*
X5927030Y-13432701D01*
X5934827Y-13418114D01*
X5945323Y-13405323D01*
X5958114Y-13394827D01*
X5972701Y-13387030D01*
X5988537Y-13382226D01*
X6011140Y-13380000D01*
X6418860Y-13380000D01*
X6441463Y-13382226D01*
X6441463Y-13382226D01*
G37*
G36*
X9511463Y-13382226D02*
G01*
X9527299Y-13387030D01*
X9541886Y-13394827D01*
X9554677Y-13405323D01*
X9565173Y-13418114D01*
X9572970Y-13432701D01*
X9577774Y-13448537D01*
X9580000Y-13471140D01*
X9580000Y-13928860D01*
X9577774Y-13951463D01*
X9572970Y-13967299D01*
X9565173Y-13981886D01*
X9554677Y-13994677D01*
X9541886Y-14005173D01*
X9527299Y-14012970D01*
X9511463Y-14017774D01*
X9488860Y-14020000D01*
X9081140Y-14020000D01*
X9058537Y-14017774D01*
X9042701Y-14012970D01*
X9028114Y-14005173D01*
X9015323Y-13994677D01*
X9004827Y-13981886D01*
X8997030Y-13967299D01*
X8992226Y-13951463D01*
X8990000Y-13928860D01*
X8990000Y-13471140D01*
X8992226Y-13448537D01*
X8997030Y-13432701D01*
X9004827Y-13418114D01*
X9015323Y-13405323D01*
X9028114Y-13394827D01*
X9042701Y-13387030D01*
X9058537Y-13382226D01*
X9081140Y-13380000D01*
X9488860Y-13380000D01*
X9511463Y-13382226D01*
X9511463Y-13382226D01*
G37*
G36*
X8541463Y-13382226D02*
G01*
X8557299Y-13387030D01*
X8571886Y-13394827D01*
X8584677Y-13405323D01*
X8595173Y-13418114D01*
X8602970Y-13432701D01*
X8607774Y-13448537D01*
X8610000Y-13471140D01*
X8610000Y-13928860D01*
X8607774Y-13951463D01*
X8602970Y-13967299D01*
X8595173Y-13981886D01*
X8584677Y-13994677D01*
X8571886Y-14005173D01*
X8557299Y-14012970D01*
X8541463Y-14017774D01*
X8518860Y-14020000D01*
X8111140Y-14020000D01*
X8088537Y-14017774D01*
X8072701Y-14012970D01*
X8058114Y-14005173D01*
X8045323Y-13994677D01*
X8034827Y-13981886D01*
X8027030Y-13967299D01*
X8022226Y-13951463D01*
X8020000Y-13928860D01*
X8020000Y-13471140D01*
X8022226Y-13448537D01*
X8027030Y-13432701D01*
X8034827Y-13418114D01*
X8045323Y-13405323D01*
X8058114Y-13394827D01*
X8072701Y-13387030D01*
X8088537Y-13382226D01*
X8111140Y-13380000D01*
X8518860Y-13380000D01*
X8541463Y-13382226D01*
X8541463Y-13382226D01*
G37*
G36*
X7411463Y-13382226D02*
G01*
X7427299Y-13387030D01*
X7441886Y-13394827D01*
X7454677Y-13405323D01*
X7465173Y-13418114D01*
X7472970Y-13432701D01*
X7477774Y-13448537D01*
X7480000Y-13471140D01*
X7480000Y-13928860D01*
X7477774Y-13951463D01*
X7472970Y-13967299D01*
X7465173Y-13981886D01*
X7454677Y-13994677D01*
X7441886Y-14005173D01*
X7427299Y-14012970D01*
X7411463Y-14017774D01*
X7388860Y-14020000D01*
X6981140Y-14020000D01*
X6958537Y-14017774D01*
X6942701Y-14012970D01*
X6928114Y-14005173D01*
X6915323Y-13994677D01*
X6904827Y-13981886D01*
X6897030Y-13967299D01*
X6892226Y-13951463D01*
X6890000Y-13928860D01*
X6890000Y-13471140D01*
X6892226Y-13448537D01*
X6897030Y-13432701D01*
X6904827Y-13418114D01*
X6915323Y-13405323D01*
X6928114Y-13394827D01*
X6942701Y-13387030D01*
X6958537Y-13382226D01*
X6981140Y-13380000D01*
X7388860Y-13380000D01*
X7411463Y-13382226D01*
X7411463Y-13382226D01*
G37*
G36*
X15094735Y-12834424D02*
G01*
X15110571Y-12839228D01*
X15125158Y-12847025D01*
X15137949Y-12857521D01*
X15148445Y-12870312D01*
X15156242Y-12884899D01*
X15161046Y-12900735D01*
X15163272Y-12923338D01*
X15163272Y-13331058D01*
X15161046Y-13353661D01*
X15156242Y-13369497D01*
X15148445Y-13384084D01*
X15137949Y-13396875D01*
X15125158Y-13407371D01*
X15110571Y-13415168D01*
X15094735Y-13419972D01*
X15072132Y-13422198D01*
X14614412Y-13422198D01*
X14591809Y-13419972D01*
X14575973Y-13415168D01*
X14561386Y-13407371D01*
X14548595Y-13396875D01*
X14538099Y-13384084D01*
X14530302Y-13369497D01*
X14525498Y-13353661D01*
X14523272Y-13331058D01*
X14523272Y-12923338D01*
X14525498Y-12900735D01*
X14530302Y-12884899D01*
X14538099Y-12870312D01*
X14548595Y-12857521D01*
X14561386Y-12847025D01*
X14575973Y-12839228D01*
X14591809Y-12834424D01*
X14614412Y-12832198D01*
X15072132Y-12832198D01*
X15094735Y-12834424D01*
X15094735Y-12834424D01*
G37*
G36*
X-1825000Y-12880000D02*
G01*
X-3175000Y-12880000D01*
X-3175000Y-11980000D01*
X-1825000Y-11980000D01*
X-1825000Y-12880000D01*
X-1825000Y-12880000D01*
G37*
G36*
X2600000Y-12650000D02*
G01*
X2000000Y-12650000D01*
X2000000Y-11950000D01*
X2600000Y-11950000D01*
X2600000Y-12650000D01*
X2600000Y-12650000D01*
G37*
G36*
X1200000Y-12650000D02*
G01*
X600000Y-12650000D01*
X600000Y-11950000D01*
X1200000Y-11950000D01*
X1200000Y-12650000D01*
X1200000Y-12650000D01*
G37*
G36*
X4496463Y-11782226D02*
G01*
X4512299Y-11787030D01*
X4526886Y-11794827D01*
X4539677Y-11805323D01*
X4550173Y-11818114D01*
X4557970Y-11832701D01*
X4562774Y-11848537D01*
X4565000Y-11871140D01*
X4565000Y-12328860D01*
X4562774Y-12351463D01*
X4557970Y-12367299D01*
X4550173Y-12381886D01*
X4539677Y-12394677D01*
X4526886Y-12405173D01*
X4512299Y-12412970D01*
X4496463Y-12417774D01*
X4473860Y-12420000D01*
X4066140Y-12420000D01*
X4043537Y-12417774D01*
X4027701Y-12412970D01*
X4013114Y-12405173D01*
X4000323Y-12394677D01*
X3989827Y-12381886D01*
X3982030Y-12367299D01*
X3977226Y-12351463D01*
X3975000Y-12328860D01*
X3975000Y-11871140D01*
X3977226Y-11848537D01*
X3982030Y-11832701D01*
X3989827Y-11818114D01*
X4000323Y-11805323D01*
X4013114Y-11794827D01*
X4027701Y-11787030D01*
X4043537Y-11782226D01*
X4066140Y-11780000D01*
X4473860Y-11780000D01*
X4496463Y-11782226D01*
X4496463Y-11782226D01*
G37*
G36*
X3526463Y-11782226D02*
G01*
X3542299Y-11787030D01*
X3556886Y-11794827D01*
X3569677Y-11805323D01*
X3580173Y-11818114D01*
X3587970Y-11832701D01*
X3592774Y-11848537D01*
X3595000Y-11871140D01*
X3595000Y-12328860D01*
X3592774Y-12351463D01*
X3587970Y-12367299D01*
X3580173Y-12381886D01*
X3569677Y-12394677D01*
X3556886Y-12405173D01*
X3542299Y-12412970D01*
X3526463Y-12417774D01*
X3503860Y-12420000D01*
X3096140Y-12420000D01*
X3073537Y-12417774D01*
X3057701Y-12412970D01*
X3043114Y-12405173D01*
X3030323Y-12394677D01*
X3019827Y-12381886D01*
X3012030Y-12367299D01*
X3007226Y-12351463D01*
X3005000Y-12328860D01*
X3005000Y-11871140D01*
X3007226Y-11848537D01*
X3012030Y-11832701D01*
X3019827Y-11818114D01*
X3030323Y-11805323D01*
X3043114Y-11794827D01*
X3057701Y-11787030D01*
X3073537Y-11782226D01*
X3096140Y-11780000D01*
X3503860Y-11780000D01*
X3526463Y-11782226D01*
X3526463Y-11782226D01*
G37*
G36*
X15190207Y-11450666D02*
G01*
X15219402Y-11459523D01*
X15246314Y-11473908D01*
X15269899Y-11493263D01*
X15289254Y-11516848D01*
X15303639Y-11543760D01*
X15312496Y-11572955D01*
X15316091Y-11609461D01*
X15316091Y-12159681D01*
X15312496Y-12196187D01*
X15303639Y-12225382D01*
X15289254Y-12252294D01*
X15269899Y-12275879D01*
X15246314Y-12295234D01*
X15219402Y-12309619D01*
X15190207Y-12318476D01*
X15153701Y-12322071D01*
X14528481Y-12322071D01*
X14491975Y-12318476D01*
X14462780Y-12309619D01*
X14435868Y-12295234D01*
X14412283Y-12275879D01*
X14392928Y-12252294D01*
X14378543Y-12225382D01*
X14369686Y-12196187D01*
X14366091Y-12159681D01*
X14366091Y-11609461D01*
X14369686Y-11572955D01*
X14378543Y-11543760D01*
X14392928Y-11516848D01*
X14412283Y-11493263D01*
X14435868Y-11473908D01*
X14462780Y-11459523D01*
X14491975Y-11450666D01*
X14528481Y-11447071D01*
X15153701Y-11447071D01*
X15190207Y-11450666D01*
X15190207Y-11450666D01*
G37*
G36*
X-1825000Y-11610000D02*
G01*
X-3175000Y-11610000D01*
X-3175000Y-10710000D01*
X-1825000Y-10710000D01*
X-1825000Y-11610000D01*
X-1825000Y-11610000D01*
G37*
G36*
X3511463Y-10782226D02*
G01*
X3527299Y-10787030D01*
X3541886Y-10794827D01*
X3554677Y-10805323D01*
X3565173Y-10818114D01*
X3572970Y-10832701D01*
X3577774Y-10848537D01*
X3580000Y-10871140D01*
X3580000Y-11328860D01*
X3577774Y-11351463D01*
X3572970Y-11367299D01*
X3565173Y-11381886D01*
X3554677Y-11394677D01*
X3541886Y-11405173D01*
X3527299Y-11412970D01*
X3511463Y-11417774D01*
X3488860Y-11420000D01*
X3081140Y-11420000D01*
X3058537Y-11417774D01*
X3042701Y-11412970D01*
X3028114Y-11405173D01*
X3015323Y-11394677D01*
X3004827Y-11381886D01*
X2997030Y-11367299D01*
X2992226Y-11351463D01*
X2990000Y-11328860D01*
X2990000Y-10871140D01*
X2992226Y-10848537D01*
X2997030Y-10832701D01*
X3004827Y-10818114D01*
X3015323Y-10805323D01*
X3028114Y-10794827D01*
X3042701Y-10787030D01*
X3058537Y-10782226D01*
X3081140Y-10780000D01*
X3488860Y-10780000D01*
X3511463Y-10782226D01*
X3511463Y-10782226D01*
G37*
G36*
X2541463Y-10782226D02*
G01*
X2557299Y-10787030D01*
X2571886Y-10794827D01*
X2584677Y-10805323D01*
X2595173Y-10818114D01*
X2602970Y-10832701D01*
X2607774Y-10848537D01*
X2610000Y-10871140D01*
X2610000Y-11328860D01*
X2607774Y-11351463D01*
X2602970Y-11367299D01*
X2595173Y-11381886D01*
X2584677Y-11394677D01*
X2571886Y-11405173D01*
X2557299Y-11412970D01*
X2541463Y-11417774D01*
X2518860Y-11420000D01*
X2111140Y-11420000D01*
X2088537Y-11417774D01*
X2072701Y-11412970D01*
X2058114Y-11405173D01*
X2045323Y-11394677D01*
X2034827Y-11381886D01*
X2027030Y-11367299D01*
X2022226Y-11351463D01*
X2020000Y-11328860D01*
X2020000Y-10871140D01*
X2022226Y-10848537D01*
X2027030Y-10832701D01*
X2034827Y-10818114D01*
X2045323Y-10805323D01*
X2058114Y-10794827D01*
X2072701Y-10787030D01*
X2088537Y-10782226D01*
X2111140Y-10780000D01*
X2518860Y-10780000D01*
X2541463Y-10782226D01*
X2541463Y-10782226D01*
G37*
G36*
X15190207Y-9875666D02*
G01*
X15219402Y-9884523D01*
X15246314Y-9898908D01*
X15269899Y-9918263D01*
X15289254Y-9941848D01*
X15303639Y-9968760D01*
X15312496Y-9997955D01*
X15316091Y-10034461D01*
X15316091Y-10584681D01*
X15312496Y-10621187D01*
X15303639Y-10650382D01*
X15289254Y-10677294D01*
X15269899Y-10700879D01*
X15246314Y-10720234D01*
X15219402Y-10734619D01*
X15190207Y-10743476D01*
X15153701Y-10747071D01*
X14528481Y-10747071D01*
X14491975Y-10743476D01*
X14462780Y-10734619D01*
X14435868Y-10720234D01*
X14412283Y-10700879D01*
X14392928Y-10677294D01*
X14378543Y-10650382D01*
X14369686Y-10621187D01*
X14366091Y-10584681D01*
X14366091Y-10034461D01*
X14369686Y-9997955D01*
X14378543Y-9968760D01*
X14392928Y-9941848D01*
X14412283Y-9918263D01*
X14435868Y-9898908D01*
X14462780Y-9884523D01*
X14491975Y-9875666D01*
X14528481Y-9872071D01*
X15153701Y-9872071D01*
X15190207Y-9875666D01*
X15190207Y-9875666D01*
G37*
G36*
X-1825000Y-10340000D02*
G01*
X-3175000Y-10340000D01*
X-3175000Y-9440000D01*
X-1825000Y-9440000D01*
X-1825000Y-10340000D01*
X-1825000Y-10340000D01*
G37*
G36*
X2541463Y-9482226D02*
G01*
X2557299Y-9487030D01*
X2571886Y-9494827D01*
X2584677Y-9505323D01*
X2595173Y-9518114D01*
X2602970Y-9532701D01*
X2607774Y-9548537D01*
X2610000Y-9571140D01*
X2610000Y-10028860D01*
X2607774Y-10051463D01*
X2602970Y-10067299D01*
X2595173Y-10081886D01*
X2584677Y-10094677D01*
X2571886Y-10105173D01*
X2557299Y-10112970D01*
X2541463Y-10117774D01*
X2518860Y-10120000D01*
X2111140Y-10120000D01*
X2088537Y-10117774D01*
X2072701Y-10112970D01*
X2058114Y-10105173D01*
X2045323Y-10094677D01*
X2034827Y-10081886D01*
X2027030Y-10067299D01*
X2022226Y-10051463D01*
X2020000Y-10028860D01*
X2020000Y-9571140D01*
X2022226Y-9548537D01*
X2027030Y-9532701D01*
X2034827Y-9518114D01*
X2045323Y-9505323D01*
X2058114Y-9494827D01*
X2072701Y-9487030D01*
X2088537Y-9482226D01*
X2111140Y-9480000D01*
X2518860Y-9480000D01*
X2541463Y-9482226D01*
X2541463Y-9482226D01*
G37*
G36*
X3511463Y-9482226D02*
G01*
X3527299Y-9487030D01*
X3541886Y-9494827D01*
X3554677Y-9505323D01*
X3565173Y-9518114D01*
X3572970Y-9532701D01*
X3577774Y-9548537D01*
X3580000Y-9571140D01*
X3580000Y-10028860D01*
X3577774Y-10051463D01*
X3572970Y-10067299D01*
X3565173Y-10081886D01*
X3554677Y-10094677D01*
X3541886Y-10105173D01*
X3527299Y-10112970D01*
X3511463Y-10117774D01*
X3488860Y-10120000D01*
X3081140Y-10120000D01*
X3058537Y-10117774D01*
X3042701Y-10112970D01*
X3028114Y-10105173D01*
X3015323Y-10094677D01*
X3004827Y-10081886D01*
X2997030Y-10067299D01*
X2992226Y-10051463D01*
X2990000Y-10028860D01*
X2990000Y-9571140D01*
X2992226Y-9548537D01*
X2997030Y-9532701D01*
X3004827Y-9518114D01*
X3015323Y-9505323D01*
X3028114Y-9494827D01*
X3042701Y-9487030D01*
X3058537Y-9482226D01*
X3081140Y-9480000D01*
X3488860Y-9480000D01*
X3511463Y-9482226D01*
X3511463Y-9482226D01*
G37*
G36*
X-350884Y-8353595D02*
G01*
X-321689Y-8362452D01*
X-294777Y-8376837D01*
X-271192Y-8396192D01*
X-251837Y-8419777D01*
X-237452Y-8446689D01*
X-228595Y-8475884D01*
X-225000Y-8512390D01*
X-225000Y-9062610D01*
X-228595Y-9099116D01*
X-237452Y-9128311D01*
X-251837Y-9155223D01*
X-271192Y-9178808D01*
X-294777Y-9198163D01*
X-321689Y-9212548D01*
X-350884Y-9221405D01*
X-387390Y-9225000D01*
X-1012610Y-9225000D01*
X-1049116Y-9221405D01*
X-1078311Y-9212548D01*
X-1105223Y-9198163D01*
X-1128808Y-9178808D01*
X-1148163Y-9155223D01*
X-1162548Y-9128311D01*
X-1171405Y-9099116D01*
X-1175000Y-9062610D01*
X-1175000Y-8512390D01*
X-1171405Y-8475884D01*
X-1162548Y-8446689D01*
X-1148163Y-8419777D01*
X-1128808Y-8396192D01*
X-1105223Y-8376837D01*
X-1078311Y-8362452D01*
X-1049116Y-8353595D01*
X-1012610Y-8350000D01*
X-387390Y-8350000D01*
X-350884Y-8353595D01*
X-350884Y-8353595D01*
G37*
G36*
X4511463Y-8482226D02*
G01*
X4527299Y-8487030D01*
X4541886Y-8494827D01*
X4554677Y-8505323D01*
X4565173Y-8518114D01*
X4572970Y-8532701D01*
X4577774Y-8548537D01*
X4580000Y-8571140D01*
X4580000Y-9028860D01*
X4577774Y-9051463D01*
X4572970Y-9067299D01*
X4565173Y-9081886D01*
X4554677Y-9094677D01*
X4541886Y-9105173D01*
X4527299Y-9112970D01*
X4511463Y-9117774D01*
X4488860Y-9120000D01*
X4081140Y-9120000D01*
X4058537Y-9117774D01*
X4042701Y-9112970D01*
X4028114Y-9105173D01*
X4015323Y-9094677D01*
X4004827Y-9081886D01*
X3997030Y-9067299D01*
X3992226Y-9051463D01*
X3990000Y-9028860D01*
X3990000Y-8571140D01*
X3992226Y-8548537D01*
X3997030Y-8532701D01*
X4004827Y-8518114D01*
X4015323Y-8505323D01*
X4028114Y-8494827D01*
X4042701Y-8487030D01*
X4058537Y-8482226D01*
X4081140Y-8480000D01*
X4488860Y-8480000D01*
X4511463Y-8482226D01*
X4511463Y-8482226D01*
G37*
G36*
X3541463Y-8482226D02*
G01*
X3557299Y-8487030D01*
X3571886Y-8494827D01*
X3584677Y-8505323D01*
X3595173Y-8518114D01*
X3602970Y-8532701D01*
X3607774Y-8548537D01*
X3610000Y-8571140D01*
X3610000Y-9028860D01*
X3607774Y-9051463D01*
X3602970Y-9067299D01*
X3595173Y-9081886D01*
X3584677Y-9094677D01*
X3571886Y-9105173D01*
X3557299Y-9112970D01*
X3541463Y-9117774D01*
X3518860Y-9120000D01*
X3111140Y-9120000D01*
X3088537Y-9117774D01*
X3072701Y-9112970D01*
X3058114Y-9105173D01*
X3045323Y-9094677D01*
X3034827Y-9081886D01*
X3027030Y-9067299D01*
X3022226Y-9051463D01*
X3020000Y-9028860D01*
X3020000Y-8571140D01*
X3022226Y-8548537D01*
X3027030Y-8532701D01*
X3034827Y-8518114D01*
X3045323Y-8505323D01*
X3058114Y-8494827D01*
X3072701Y-8487030D01*
X3088537Y-8482226D01*
X3111140Y-8480000D01*
X3518860Y-8480000D01*
X3541463Y-8482226D01*
X3541463Y-8482226D01*
G37*
G36*
X-1825000Y-9070000D02*
G01*
X-3175000Y-9070000D01*
X-3175000Y-8170000D01*
X-1825000Y-8170000D01*
X-1825000Y-9070000D01*
X-1825000Y-9070000D01*
G37*
G36*
X2600000Y-8950000D02*
G01*
X2000000Y-8950000D01*
X2000000Y-8250000D01*
X2600000Y-8250000D01*
X2600000Y-8950000D01*
X2600000Y-8950000D01*
G37*
G36*
X1200000Y-8950000D02*
G01*
X600000Y-8950000D01*
X600000Y-8250000D01*
X1200000Y-8250000D01*
X1200000Y-8950000D01*
X1200000Y-8950000D01*
G37*
G36*
X-1825000Y-7800000D02*
G01*
X-3175000Y-7800000D01*
X-3175000Y-6900000D01*
X-1825000Y-6900000D01*
X-1825000Y-7800000D01*
X-1825000Y-7800000D01*
G37*
G36*
X-350884Y-6778595D02*
G01*
X-321689Y-6787452D01*
X-294777Y-6801837D01*
X-271192Y-6821192D01*
X-251837Y-6844777D01*
X-237452Y-6871689D01*
X-228595Y-6900884D01*
X-225000Y-6937390D01*
X-225000Y-7487610D01*
X-228595Y-7524116D01*
X-237452Y-7553311D01*
X-251837Y-7580223D01*
X-271192Y-7603808D01*
X-294777Y-7623163D01*
X-321689Y-7637548D01*
X-350884Y-7646405D01*
X-387390Y-7650000D01*
X-1012610Y-7650000D01*
X-1049116Y-7646405D01*
X-1078311Y-7637548D01*
X-1105223Y-7623163D01*
X-1128808Y-7603808D01*
X-1148163Y-7580223D01*
X-1162548Y-7553311D01*
X-1171405Y-7524116D01*
X-1175000Y-7487610D01*
X-1175000Y-6937390D01*
X-1171405Y-6900884D01*
X-1162548Y-6871689D01*
X-1148163Y-6844777D01*
X-1128808Y-6821192D01*
X-1105223Y-6801837D01*
X-1078311Y-6787452D01*
X-1049116Y-6778595D01*
X-1012610Y-6775000D01*
X-387390Y-6775000D01*
X-350884Y-6778595D01*
X-350884Y-6778595D01*
G37*
G36*
X3641463Y-6982226D02*
G01*
X3657299Y-6987030D01*
X3671886Y-6994827D01*
X3684677Y-7005323D01*
X3695173Y-7018114D01*
X3702970Y-7032701D01*
X3707774Y-7048537D01*
X3710000Y-7071140D01*
X3710000Y-7528860D01*
X3707774Y-7551463D01*
X3702970Y-7567299D01*
X3695173Y-7581886D01*
X3684677Y-7594677D01*
X3671886Y-7605173D01*
X3657299Y-7612970D01*
X3641463Y-7617774D01*
X3618860Y-7620000D01*
X3211140Y-7620000D01*
X3188537Y-7617774D01*
X3172701Y-7612970D01*
X3158114Y-7605173D01*
X3145323Y-7594677D01*
X3134827Y-7581886D01*
X3127030Y-7567299D01*
X3122226Y-7551463D01*
X3120000Y-7528860D01*
X3120000Y-7071140D01*
X3122226Y-7048537D01*
X3127030Y-7032701D01*
X3134827Y-7018114D01*
X3145323Y-7005323D01*
X3158114Y-6994827D01*
X3172701Y-6987030D01*
X3188537Y-6982226D01*
X3211140Y-6980000D01*
X3618860Y-6980000D01*
X3641463Y-6982226D01*
X3641463Y-6982226D01*
G37*
G36*
X4611463Y-6982226D02*
G01*
X4627299Y-6987030D01*
X4641886Y-6994827D01*
X4654677Y-7005323D01*
X4665173Y-7018114D01*
X4672970Y-7032701D01*
X4677774Y-7048537D01*
X4680000Y-7071140D01*
X4680000Y-7528860D01*
X4677774Y-7551463D01*
X4672970Y-7567299D01*
X4665173Y-7581886D01*
X4654677Y-7594677D01*
X4641886Y-7605173D01*
X4627299Y-7612970D01*
X4611463Y-7617774D01*
X4588860Y-7620000D01*
X4181140Y-7620000D01*
X4158537Y-7617774D01*
X4142701Y-7612970D01*
X4128114Y-7605173D01*
X4115323Y-7594677D01*
X4104827Y-7581886D01*
X4097030Y-7567299D01*
X4092226Y-7551463D01*
X4090000Y-7528860D01*
X4090000Y-7071140D01*
X4092226Y-7048537D01*
X4097030Y-7032701D01*
X4104827Y-7018114D01*
X4115323Y-7005323D01*
X4128114Y-6994827D01*
X4142701Y-6987030D01*
X4158537Y-6982226D01*
X4181140Y-6980000D01*
X4588860Y-6980000D01*
X4611463Y-6982226D01*
X4611463Y-6982226D01*
G37*
G36*
X4626463Y-5982226D02*
G01*
X4642299Y-5987030D01*
X4656886Y-5994827D01*
X4669677Y-6005323D01*
X4680173Y-6018114D01*
X4687970Y-6032701D01*
X4692774Y-6048537D01*
X4695000Y-6071140D01*
X4695000Y-6528860D01*
X4692774Y-6551463D01*
X4687970Y-6567299D01*
X4680173Y-6581886D01*
X4669677Y-6594677D01*
X4656886Y-6605173D01*
X4642299Y-6612970D01*
X4626463Y-6617774D01*
X4603860Y-6620000D01*
X4196140Y-6620000D01*
X4173537Y-6617774D01*
X4157701Y-6612970D01*
X4143114Y-6605173D01*
X4130323Y-6594677D01*
X4119827Y-6581886D01*
X4112030Y-6567299D01*
X4107226Y-6551463D01*
X4105000Y-6528860D01*
X4105000Y-6071140D01*
X4107226Y-6048537D01*
X4112030Y-6032701D01*
X4119827Y-6018114D01*
X4130323Y-6005323D01*
X4143114Y-5994827D01*
X4157701Y-5987030D01*
X4173537Y-5982226D01*
X4196140Y-5980000D01*
X4603860Y-5980000D01*
X4626463Y-5982226D01*
X4626463Y-5982226D01*
G37*
G36*
X5596463Y-5982226D02*
G01*
X5612299Y-5987030D01*
X5626886Y-5994827D01*
X5639677Y-6005323D01*
X5650173Y-6018114D01*
X5657970Y-6032701D01*
X5662774Y-6048537D01*
X5665000Y-6071140D01*
X5665000Y-6528860D01*
X5662774Y-6551463D01*
X5657970Y-6567299D01*
X5650173Y-6581886D01*
X5639677Y-6594677D01*
X5626886Y-6605173D01*
X5612299Y-6612970D01*
X5596463Y-6617774D01*
X5573860Y-6620000D01*
X5166140Y-6620000D01*
X5143537Y-6617774D01*
X5127701Y-6612970D01*
X5113114Y-6605173D01*
X5100323Y-6594677D01*
X5089827Y-6581886D01*
X5082030Y-6567299D01*
X5077226Y-6551463D01*
X5075000Y-6528860D01*
X5075000Y-6071140D01*
X5077226Y-6048537D01*
X5082030Y-6032701D01*
X5089827Y-6018114D01*
X5100323Y-6005323D01*
X5113114Y-5994827D01*
X5127701Y-5987030D01*
X5143537Y-5982226D01*
X5166140Y-5980000D01*
X5573860Y-5980000D01*
X5596463Y-5982226D01*
X5596463Y-5982226D01*
G37*
G36*
X2300000Y-6450000D02*
G01*
X1700000Y-6450000D01*
X1700000Y-5750000D01*
X2300000Y-5750000D01*
X2300000Y-6450000D01*
X2300000Y-6450000D01*
G37*
G36*
X3700000Y-6450000D02*
G01*
X3100000Y-6450000D01*
X3100000Y-5750000D01*
X3700000Y-5750000D01*
X3700000Y-6450000D01*
X3700000Y-6450000D01*
G37*
G36*
X-16305000Y-6050000D02*
G01*
X-18905000Y-6050000D01*
X-18905000Y-4950000D01*
X-16305000Y-4950000D01*
X-16305000Y-6050000D01*
X-16305000Y-6050000D01*
G37*
G36*
X-3625000Y-6050000D02*
G01*
X-6225000Y-6050000D01*
X-6225000Y-4950000D01*
X-3625000Y-4950000D01*
X-3625000Y-6050000D01*
X-3625000Y-6050000D01*
G37*
G36*
X9056627Y-432299D02*
G01*
X9136742Y-456602D01*
X9216855Y-480903D01*
X9216857Y-480904D01*
X9364518Y-559831D01*
X9493949Y-666051D01*
X9600169Y-795482D01*
X9679096Y-943143D01*
X9727701Y-1103373D01*
X9744112Y-1270000D01*
X9727701Y-1436627D01*
X9679096Y-1596857D01*
X9600169Y-1744518D01*
X9493949Y-1873949D01*
X9364518Y-1980169D01*
X9216857Y-2059096D01*
X9216855Y-2059097D01*
X9136742Y-2083398D01*
X9056627Y-2107701D01*
X8931752Y-2120000D01*
X8848248Y-2120000D01*
X8723373Y-2107701D01*
X8643258Y-2083398D01*
X8563145Y-2059097D01*
X8563143Y-2059096D01*
X8415482Y-1980169D01*
X8286051Y-1873949D01*
X8179831Y-1744518D01*
X8100904Y-1596857D01*
X8052299Y-1436627D01*
X8035888Y-1270000D01*
X8052299Y-1103373D01*
X8100904Y-943143D01*
X8179831Y-795482D01*
X8286051Y-666051D01*
X8415482Y-559831D01*
X8563143Y-480904D01*
X8563145Y-480903D01*
X8643258Y-456602D01*
X8723373Y-432299D01*
X8848248Y-420000D01*
X8931752Y-420000D01*
X9056627Y-432299D01*
X9056627Y-432299D01*
G37*
G36*
X6516627Y-432299D02*
G01*
X6596742Y-456602D01*
X6676855Y-480903D01*
X6676857Y-480904D01*
X6824518Y-559831D01*
X6953949Y-666051D01*
X7060169Y-795482D01*
X7139096Y-943143D01*
X7187701Y-1103373D01*
X7204112Y-1270000D01*
X7187701Y-1436627D01*
X7139096Y-1596857D01*
X7060169Y-1744518D01*
X6953949Y-1873949D01*
X6824518Y-1980169D01*
X6676857Y-2059096D01*
X6676855Y-2059097D01*
X6596742Y-2083398D01*
X6516627Y-2107701D01*
X6391752Y-2120000D01*
X6308248Y-2120000D01*
X6183373Y-2107701D01*
X6103258Y-2083398D01*
X6023145Y-2059097D01*
X6023143Y-2059096D01*
X5875482Y-1980169D01*
X5746051Y-1873949D01*
X5639831Y-1744518D01*
X5560904Y-1596857D01*
X5512299Y-1436627D01*
X5495888Y-1270000D01*
X5512299Y-1103373D01*
X5560904Y-943143D01*
X5639831Y-795482D01*
X5746051Y-666051D01*
X5875482Y-559831D01*
X6023143Y-480904D01*
X6023145Y-480903D01*
X6103258Y-456602D01*
X6183373Y-432299D01*
X6308248Y-420000D01*
X6391752Y-420000D01*
X6516627Y-432299D01*
X6516627Y-432299D01*
G37*
G36*
X-6183373Y-432299D02*
G01*
X-6103258Y-456602D01*
X-6023145Y-480903D01*
X-6023143Y-480904D01*
X-5875482Y-559831D01*
X-5746051Y-666051D01*
X-5639831Y-795482D01*
X-5560904Y-943143D01*
X-5512299Y-1103373D01*
X-5495888Y-1270000D01*
X-5512299Y-1436627D01*
X-5560904Y-1596857D01*
X-5639831Y-1744518D01*
X-5746051Y-1873949D01*
X-5875482Y-1980169D01*
X-6023143Y-2059096D01*
X-6023145Y-2059097D01*
X-6103258Y-2083398D01*
X-6183373Y-2107701D01*
X-6308248Y-2120000D01*
X-6391752Y-2120000D01*
X-6516627Y-2107701D01*
X-6596742Y-2083398D01*
X-6676855Y-2059097D01*
X-6676857Y-2059096D01*
X-6824518Y-1980169D01*
X-6953949Y-1873949D01*
X-7060169Y-1744518D01*
X-7139096Y-1596857D01*
X-7187701Y-1436627D01*
X-7204112Y-1270000D01*
X-7187701Y-1103373D01*
X-7139096Y-943143D01*
X-7060169Y-795482D01*
X-6953949Y-666051D01*
X-6824518Y-559831D01*
X-6676857Y-480904D01*
X-6676855Y-480903D01*
X-6596742Y-456602D01*
X-6516627Y-432299D01*
X-6391752Y-420000D01*
X-6308248Y-420000D01*
X-6183373Y-432299D01*
X-6183373Y-432299D01*
G37*
G36*
X3976627Y-432299D02*
G01*
X4056742Y-456602D01*
X4136855Y-480903D01*
X4136857Y-480904D01*
X4284518Y-559831D01*
X4413949Y-666051D01*
X4520169Y-795482D01*
X4599096Y-943143D01*
X4647701Y-1103373D01*
X4664112Y-1270000D01*
X4647701Y-1436627D01*
X4599096Y-1596857D01*
X4520169Y-1744518D01*
X4413949Y-1873949D01*
X4284518Y-1980169D01*
X4136857Y-2059096D01*
X4136855Y-2059097D01*
X4056742Y-2083398D01*
X3976627Y-2107701D01*
X3851752Y-2120000D01*
X3768248Y-2120000D01*
X3643373Y-2107701D01*
X3563258Y-2083398D01*
X3483145Y-2059097D01*
X3483143Y-2059096D01*
X3335482Y-1980169D01*
X3206051Y-1873949D01*
X3099831Y-1744518D01*
X3020904Y-1596857D01*
X2972299Y-1436627D01*
X2955888Y-1270000D01*
X2972299Y-1103373D01*
X3020904Y-943143D01*
X3099831Y-795482D01*
X3206051Y-666051D01*
X3335482Y-559831D01*
X3483143Y-480904D01*
X3483145Y-480903D01*
X3563258Y-456602D01*
X3643373Y-432299D01*
X3768248Y-420000D01*
X3851752Y-420000D01*
X3976627Y-432299D01*
X3976627Y-432299D01*
G37*
G36*
X-1103373Y-432299D02*
G01*
X-1023258Y-456602D01*
X-943145Y-480903D01*
X-943143Y-480904D01*
X-795482Y-559831D01*
X-666051Y-666051D01*
X-559831Y-795482D01*
X-480904Y-943143D01*
X-432299Y-1103373D01*
X-415888Y-1270000D01*
X-432299Y-1436627D01*
X-480904Y-1596857D01*
X-559831Y-1744518D01*
X-666051Y-1873949D01*
X-795482Y-1980169D01*
X-943143Y-2059096D01*
X-943145Y-2059097D01*
X-1023258Y-2083398D01*
X-1103373Y-2107701D01*
X-1228248Y-2120000D01*
X-1311752Y-2120000D01*
X-1436627Y-2107701D01*
X-1516742Y-2083398D01*
X-1596855Y-2059097D01*
X-1596857Y-2059096D01*
X-1744518Y-1980169D01*
X-1873949Y-1873949D01*
X-1980169Y-1744518D01*
X-2059096Y-1596857D01*
X-2107701Y-1436627D01*
X-2124112Y-1270000D01*
X-2107701Y-1103373D01*
X-2059096Y-943143D01*
X-1980169Y-795482D01*
X-1873949Y-666051D01*
X-1744518Y-559831D01*
X-1596857Y-480904D01*
X-1596855Y-480903D01*
X-1516742Y-456602D01*
X-1436627Y-432299D01*
X-1311752Y-420000D01*
X-1228248Y-420000D01*
X-1103373Y-432299D01*
X-1103373Y-432299D01*
G37*
G36*
X1436627Y-432299D02*
G01*
X1516742Y-456602D01*
X1596855Y-480903D01*
X1596857Y-480904D01*
X1744518Y-559831D01*
X1873949Y-666051D01*
X1980169Y-795482D01*
X2059096Y-943143D01*
X2107701Y-1103373D01*
X2124112Y-1270000D01*
X2107701Y-1436627D01*
X2059096Y-1596857D01*
X1980169Y-1744518D01*
X1873949Y-1873949D01*
X1744518Y-1980169D01*
X1596857Y-2059096D01*
X1596855Y-2059097D01*
X1516742Y-2083398D01*
X1436627Y-2107701D01*
X1311752Y-2120000D01*
X1228248Y-2120000D01*
X1103373Y-2107701D01*
X1023258Y-2083398D01*
X943145Y-2059097D01*
X943143Y-2059096D01*
X795482Y-1980169D01*
X666051Y-1873949D01*
X559831Y-1744518D01*
X480904Y-1596857D01*
X432299Y-1436627D01*
X415888Y-1270000D01*
X432299Y-1103373D01*
X480904Y-943143D01*
X559831Y-795482D01*
X666051Y-666051D01*
X795482Y-559831D01*
X943143Y-480904D01*
X943145Y-480903D01*
X1023258Y-456602D01*
X1103373Y-432299D01*
X1228248Y-420000D01*
X1311752Y-420000D01*
X1436627Y-432299D01*
X1436627Y-432299D01*
G37*
G36*
X-3643373Y-432299D02*
G01*
X-3563258Y-456602D01*
X-3483145Y-480903D01*
X-3483143Y-480904D01*
X-3335482Y-559831D01*
X-3206051Y-666051D01*
X-3099831Y-795482D01*
X-3020904Y-943143D01*
X-2972299Y-1103373D01*
X-2955888Y-1270000D01*
X-2972299Y-1436627D01*
X-3020904Y-1596857D01*
X-3099831Y-1744518D01*
X-3206051Y-1873949D01*
X-3335482Y-1980169D01*
X-3483143Y-2059096D01*
X-3483145Y-2059097D01*
X-3563258Y-2083398D01*
X-3643373Y-2107701D01*
X-3768248Y-2120000D01*
X-3851752Y-2120000D01*
X-3976627Y-2107701D01*
X-4056742Y-2083398D01*
X-4136855Y-2059097D01*
X-4136857Y-2059096D01*
X-4284518Y-1980169D01*
X-4413949Y-1873949D01*
X-4520169Y-1744518D01*
X-4599096Y-1596857D01*
X-4647701Y-1436627D01*
X-4664112Y-1270000D01*
X-4647701Y-1103373D01*
X-4599096Y-943143D01*
X-4520169Y-795482D01*
X-4413949Y-666051D01*
X-4284518Y-559831D01*
X-4136857Y-480904D01*
X-4136855Y-480903D01*
X-4056742Y-456602D01*
X-3976627Y-432299D01*
X-3851752Y-420000D01*
X-3768248Y-420000D01*
X-3643373Y-432299D01*
X-3643373Y-432299D01*
G37*
G36*
X-8040000Y-2120000D02*
G01*
X-9740000Y-2120000D01*
X-9740000Y-420000D01*
X-8040000Y-420000D01*
X-8040000Y-2120000D01*
X-8040000Y-2120000D01*
G37*
G36*
X-13948537Y-192226D02*
G01*
X-13932701Y-197030D01*
X-13918114Y-204827D01*
X-13905323Y-215323D01*
X-13894827Y-228114D01*
X-13887030Y-242701D01*
X-13882226Y-258537D01*
X-13880000Y-281140D01*
X-13880000Y-688860D01*
X-13882226Y-711463D01*
X-13887030Y-727299D01*
X-13894827Y-741886D01*
X-13905323Y-754677D01*
X-13918114Y-765173D01*
X-13932701Y-772970D01*
X-13948537Y-777774D01*
X-13971140Y-780000D01*
X-14428860Y-780000D01*
X-14451463Y-777774D01*
X-14467299Y-772970D01*
X-14481886Y-765173D01*
X-14494677Y-754677D01*
X-14505173Y-741886D01*
X-14512970Y-727299D01*
X-14517774Y-711463D01*
X-14520000Y-688860D01*
X-14520000Y-281140D01*
X-14517774Y-258537D01*
X-14512970Y-242701D01*
X-14505173Y-228114D01*
X-14494677Y-215323D01*
X-14481886Y-204827D01*
X-14467299Y-197030D01*
X-14451463Y-192226D01*
X-14428860Y-190000D01*
X-13971140Y-190000D01*
X-13948537Y-192226D01*
X-13948537Y-192226D01*
G37*
G36*
X-12548537Y-192226D02*
G01*
X-12532701Y-197030D01*
X-12518114Y-204827D01*
X-12505323Y-215323D01*
X-12494827Y-228114D01*
X-12487030Y-242701D01*
X-12482226Y-258537D01*
X-12480000Y-281140D01*
X-12480000Y-688860D01*
X-12482226Y-711463D01*
X-12487030Y-727299D01*
X-12494827Y-741886D01*
X-12505323Y-754677D01*
X-12518114Y-765173D01*
X-12532701Y-772970D01*
X-12548537Y-777774D01*
X-12571140Y-780000D01*
X-13028860Y-780000D01*
X-13051463Y-777774D01*
X-13067299Y-772970D01*
X-13081886Y-765173D01*
X-13094677Y-754677D01*
X-13105173Y-741886D01*
X-13112970Y-727299D01*
X-13117774Y-711463D01*
X-13120000Y-688860D01*
X-13120000Y-281140D01*
X-13117774Y-258537D01*
X-13112970Y-242701D01*
X-13105173Y-228114D01*
X-13094677Y-215323D01*
X-13081886Y-204827D01*
X-13067299Y-197030D01*
X-13051463Y-192226D01*
X-13028860Y-190000D01*
X-12571140Y-190000D01*
X-12548537Y-192226D01*
X-12548537Y-192226D01*
G37*
G36*
X-13948537Y777774D02*
G01*
X-13932701Y772970D01*
X-13918114Y765173D01*
X-13905323Y754677D01*
X-13894827Y741886D01*
X-13887030Y727299D01*
X-13882226Y711463D01*
X-13880000Y688860D01*
X-13880000Y281140D01*
X-13882226Y258537D01*
X-13887030Y242701D01*
X-13894827Y228114D01*
X-13905323Y215323D01*
X-13918114Y204827D01*
X-13932701Y197030D01*
X-13948537Y192226D01*
X-13971140Y190000D01*
X-14428860Y190000D01*
X-14451463Y192226D01*
X-14467299Y197030D01*
X-14481886Y204827D01*
X-14494677Y215323D01*
X-14505173Y228114D01*
X-14512970Y242701D01*
X-14517774Y258537D01*
X-14520000Y281140D01*
X-14520000Y688860D01*
X-14517774Y711463D01*
X-14512970Y727299D01*
X-14505173Y741886D01*
X-14494677Y754677D01*
X-14481886Y765173D01*
X-14467299Y772970D01*
X-14451463Y777774D01*
X-14428860Y780000D01*
X-13971140Y780000D01*
X-13948537Y777774D01*
X-13948537Y777774D01*
G37*
G36*
X-12548537Y777774D02*
G01*
X-12532701Y772970D01*
X-12518114Y765173D01*
X-12505323Y754677D01*
X-12494827Y741886D01*
X-12487030Y727299D01*
X-12482226Y711463D01*
X-12480000Y688860D01*
X-12480000Y281140D01*
X-12482226Y258537D01*
X-12487030Y242701D01*
X-12494827Y228114D01*
X-12505323Y215323D01*
X-12518114Y204827D01*
X-12532701Y197030D01*
X-12548537Y192226D01*
X-12571140Y190000D01*
X-13028860Y190000D01*
X-13051463Y192226D01*
X-13067299Y197030D01*
X-13081886Y204827D01*
X-13094677Y215323D01*
X-13105173Y228114D01*
X-13112970Y242701D01*
X-13117774Y258537D01*
X-13120000Y281140D01*
X-13120000Y688860D01*
X-13117774Y711463D01*
X-13112970Y727299D01*
X-13105173Y741886D01*
X-13094677Y754677D01*
X-13081886Y765173D01*
X-13067299Y772970D01*
X-13051463Y777774D01*
X-13028860Y780000D01*
X-12571140Y780000D01*
X-12548537Y777774D01*
X-12548537Y777774D01*
G37*
G36*
X6516627Y2107701D02*
G01*
X6596742Y2083398D01*
X6676855Y2059097D01*
X6676857Y2059096D01*
X6824518Y1980169D01*
X6953949Y1873949D01*
X7060169Y1744518D01*
X7139096Y1596857D01*
X7187701Y1436627D01*
X7204112Y1270000D01*
X7187701Y1103373D01*
X7139096Y943143D01*
X7060169Y795482D01*
X6953949Y666051D01*
X6824518Y559831D01*
X6676857Y480904D01*
X6676855Y480903D01*
X6596742Y456601D01*
X6516627Y432299D01*
X6391752Y420000D01*
X6308248Y420000D01*
X6183373Y432299D01*
X6103258Y456602D01*
X6023145Y480903D01*
X6023143Y480904D01*
X5875482Y559831D01*
X5746051Y666051D01*
X5639831Y795482D01*
X5560904Y943143D01*
X5512299Y1103373D01*
X5495888Y1270000D01*
X5512299Y1436627D01*
X5560904Y1596857D01*
X5639831Y1744518D01*
X5746051Y1873949D01*
X5875482Y1980169D01*
X6023143Y2059096D01*
X6023145Y2059097D01*
X6103258Y2083398D01*
X6183373Y2107701D01*
X6308248Y2120000D01*
X6391752Y2120000D01*
X6516627Y2107701D01*
X6516627Y2107701D01*
G37*
G36*
X-6183373Y2107701D02*
G01*
X-6103258Y2083398D01*
X-6023145Y2059097D01*
X-6023143Y2059096D01*
X-5875482Y1980169D01*
X-5746051Y1873949D01*
X-5639831Y1744518D01*
X-5560904Y1596857D01*
X-5512299Y1436627D01*
X-5495888Y1270000D01*
X-5512299Y1103373D01*
X-5560904Y943143D01*
X-5639831Y795482D01*
X-5746051Y666051D01*
X-5875482Y559831D01*
X-6023143Y480904D01*
X-6023145Y480903D01*
X-6103258Y456601D01*
X-6183373Y432299D01*
X-6308248Y420000D01*
X-6391752Y420000D01*
X-6516627Y432299D01*
X-6596742Y456602D01*
X-6676855Y480903D01*
X-6676857Y480904D01*
X-6824518Y559831D01*
X-6953949Y666051D01*
X-7060169Y795482D01*
X-7139096Y943143D01*
X-7187701Y1103373D01*
X-7204112Y1270000D01*
X-7187701Y1436627D01*
X-7139096Y1596857D01*
X-7060169Y1744518D01*
X-6953949Y1873949D01*
X-6824518Y1980169D01*
X-6676857Y2059096D01*
X-6676855Y2059097D01*
X-6596742Y2083398D01*
X-6516627Y2107701D01*
X-6391752Y2120000D01*
X-6308248Y2120000D01*
X-6183373Y2107701D01*
X-6183373Y2107701D01*
G37*
G36*
X3976627Y2107701D02*
G01*
X4056742Y2083398D01*
X4136855Y2059097D01*
X4136857Y2059096D01*
X4284518Y1980169D01*
X4413949Y1873949D01*
X4520169Y1744518D01*
X4599096Y1596857D01*
X4647701Y1436627D01*
X4664112Y1270000D01*
X4647701Y1103373D01*
X4599096Y943143D01*
X4520169Y795482D01*
X4413949Y666051D01*
X4284518Y559831D01*
X4136857Y480904D01*
X4136855Y480903D01*
X4056742Y456601D01*
X3976627Y432299D01*
X3851752Y420000D01*
X3768248Y420000D01*
X3643373Y432299D01*
X3563258Y456602D01*
X3483145Y480903D01*
X3483143Y480904D01*
X3335482Y559831D01*
X3206051Y666051D01*
X3099831Y795482D01*
X3020904Y943143D01*
X2972299Y1103373D01*
X2955888Y1270000D01*
X2972299Y1436627D01*
X3020904Y1596857D01*
X3099831Y1744518D01*
X3206051Y1873949D01*
X3335482Y1980169D01*
X3483143Y2059096D01*
X3483145Y2059097D01*
X3563258Y2083398D01*
X3643373Y2107701D01*
X3768248Y2120000D01*
X3851752Y2120000D01*
X3976627Y2107701D01*
X3976627Y2107701D01*
G37*
G36*
X1436627Y2107701D02*
G01*
X1516742Y2083398D01*
X1596855Y2059097D01*
X1596857Y2059096D01*
X1744518Y1980169D01*
X1873949Y1873949D01*
X1980169Y1744518D01*
X2059096Y1596857D01*
X2107701Y1436627D01*
X2124112Y1270000D01*
X2107701Y1103373D01*
X2059096Y943143D01*
X1980169Y795482D01*
X1873949Y666051D01*
X1744518Y559831D01*
X1596857Y480904D01*
X1596855Y480903D01*
X1516742Y456601D01*
X1436627Y432299D01*
X1311752Y420000D01*
X1228248Y420000D01*
X1103373Y432299D01*
X1023258Y456602D01*
X943145Y480903D01*
X943143Y480904D01*
X795482Y559831D01*
X666051Y666051D01*
X559831Y795482D01*
X480904Y943143D01*
X432299Y1103373D01*
X415888Y1270000D01*
X432299Y1436627D01*
X480904Y1596857D01*
X559831Y1744518D01*
X666051Y1873949D01*
X795482Y1980169D01*
X943143Y2059096D01*
X943145Y2059097D01*
X1023258Y2083398D01*
X1103373Y2107701D01*
X1228248Y2120000D01*
X1311752Y2120000D01*
X1436627Y2107701D01*
X1436627Y2107701D01*
G37*
G36*
X-1103373Y2107701D02*
G01*
X-1023258Y2083398D01*
X-943145Y2059097D01*
X-943143Y2059096D01*
X-795482Y1980169D01*
X-666051Y1873949D01*
X-559831Y1744518D01*
X-480904Y1596857D01*
X-432299Y1436627D01*
X-415888Y1270000D01*
X-432299Y1103373D01*
X-480904Y943143D01*
X-559831Y795482D01*
X-666051Y666051D01*
X-795482Y559831D01*
X-943143Y480904D01*
X-943145Y480903D01*
X-1023258Y456601D01*
X-1103373Y432299D01*
X-1228248Y420000D01*
X-1311752Y420000D01*
X-1436627Y432299D01*
X-1516742Y456602D01*
X-1596855Y480903D01*
X-1596857Y480904D01*
X-1744518Y559831D01*
X-1873949Y666051D01*
X-1980169Y795482D01*
X-2059096Y943143D01*
X-2107701Y1103373D01*
X-2124112Y1270000D01*
X-2107701Y1436627D01*
X-2059096Y1596857D01*
X-1980169Y1744518D01*
X-1873949Y1873949D01*
X-1744518Y1980169D01*
X-1596857Y2059096D01*
X-1596855Y2059097D01*
X-1516742Y2083398D01*
X-1436627Y2107701D01*
X-1311752Y2120000D01*
X-1228248Y2120000D01*
X-1103373Y2107701D01*
X-1103373Y2107701D01*
G37*
G36*
X9056627Y2107701D02*
G01*
X9136742Y2083398D01*
X9216855Y2059097D01*
X9216857Y2059096D01*
X9364518Y1980169D01*
X9493949Y1873949D01*
X9600169Y1744518D01*
X9679096Y1596857D01*
X9727701Y1436627D01*
X9744112Y1270000D01*
X9727701Y1103373D01*
X9679096Y943143D01*
X9600169Y795482D01*
X9493949Y666051D01*
X9364518Y559831D01*
X9216857Y480904D01*
X9216855Y480903D01*
X9136742Y456601D01*
X9056627Y432299D01*
X8931752Y420000D01*
X8848248Y420000D01*
X8723373Y432299D01*
X8643258Y456602D01*
X8563145Y480903D01*
X8563143Y480904D01*
X8415482Y559831D01*
X8286051Y666051D01*
X8179831Y795482D01*
X8100904Y943143D01*
X8052299Y1103373D01*
X8035888Y1270000D01*
X8052299Y1436627D01*
X8100904Y1596857D01*
X8179831Y1744518D01*
X8286051Y1873949D01*
X8415482Y1980169D01*
X8563143Y2059096D01*
X8563145Y2059097D01*
X8643258Y2083398D01*
X8723373Y2107701D01*
X8848248Y2120000D01*
X8931752Y2120000D01*
X9056627Y2107701D01*
X9056627Y2107701D01*
G37*
G36*
X-3643373Y2107701D02*
G01*
X-3563258Y2083398D01*
X-3483145Y2059097D01*
X-3483143Y2059096D01*
X-3335482Y1980169D01*
X-3206051Y1873949D01*
X-3099831Y1744518D01*
X-3020904Y1596857D01*
X-2972299Y1436627D01*
X-2955888Y1270000D01*
X-2972299Y1103373D01*
X-3020904Y943143D01*
X-3099831Y795482D01*
X-3206051Y666051D01*
X-3335482Y559831D01*
X-3483143Y480904D01*
X-3483145Y480903D01*
X-3563258Y456601D01*
X-3643373Y432299D01*
X-3768248Y420000D01*
X-3851752Y420000D01*
X-3976627Y432299D01*
X-4056742Y456602D01*
X-4136855Y480903D01*
X-4136857Y480904D01*
X-4284518Y559831D01*
X-4413949Y666051D01*
X-4520169Y795482D01*
X-4599096Y943143D01*
X-4647701Y1103373D01*
X-4664112Y1270000D01*
X-4647701Y1436627D01*
X-4599096Y1596857D01*
X-4520169Y1744518D01*
X-4413949Y1873949D01*
X-4284518Y1980169D01*
X-4136857Y2059096D01*
X-4136855Y2059097D01*
X-4056742Y2083398D01*
X-3976627Y2107701D01*
X-3851752Y2120000D01*
X-3768248Y2120000D01*
X-3643373Y2107701D01*
X-3643373Y2107701D01*
G37*
G36*
X-8723373Y2107701D02*
G01*
X-8643258Y2083398D01*
X-8563145Y2059097D01*
X-8563143Y2059096D01*
X-8415482Y1980169D01*
X-8286051Y1873949D01*
X-8179831Y1744518D01*
X-8100904Y1596857D01*
X-8052299Y1436627D01*
X-8035888Y1270000D01*
X-8052299Y1103373D01*
X-8100904Y943143D01*
X-8179831Y795482D01*
X-8286051Y666051D01*
X-8415482Y559831D01*
X-8563143Y480904D01*
X-8563145Y480903D01*
X-8643258Y456601D01*
X-8723373Y432299D01*
X-8848248Y420000D01*
X-8931752Y420000D01*
X-9056627Y432299D01*
X-9136742Y456602D01*
X-9216855Y480903D01*
X-9216857Y480904D01*
X-9364518Y559831D01*
X-9493949Y666051D01*
X-9600169Y795482D01*
X-9679096Y943143D01*
X-9727701Y1103373D01*
X-9744112Y1270000D01*
X-9727701Y1436627D01*
X-9679096Y1596857D01*
X-9600169Y1744518D01*
X-9493949Y1873949D01*
X-9364518Y1980169D01*
X-9216857Y2059096D01*
X-9216855Y2059097D01*
X-9136742Y2083398D01*
X-9056627Y2107701D01*
X-8931752Y2120000D01*
X-8848248Y2120000D01*
X-8723373Y2107701D01*
X-8723373Y2107701D01*
G37*
M02*
