%FSLAX45Y45*%
G04 Gerber Fmt 4.5, Leading zero omitted, Abs format (unit mm)*
G04 Created by KiCad (PCBNEW (5.1.4-dirty)) date 2020-05-21 00:04:10*
%MOMM*%
%LPD*%
G04 APERTURE LIST*
%ADD10C,0.150000*%
%ADD11C,0.200000*%
%ADD12C,0.300000*%
G04 APERTURE END LIST*
D10*
X2050000Y-6500000D02*
X3700000Y-6500000D01*
X2050000Y-6330000D02*
X2050000Y-6500000D01*
X1100000Y-6330000D02*
X2050000Y-6330000D01*
X1100000Y-6500000D02*
X1100000Y-6330000D01*
X300000Y-6500000D02*
G75*
G02X0Y-6200000I0J300000D01*
G01*
X4000000Y-6200000D02*
G75*
G02X3700000Y-6500000I-300000J0D01*
G01*
X3700000Y0D02*
G75*
G02X4000000Y-300000I0J-300000D01*
G01*
X0Y-300000D02*
G75*
G02X300000Y0I300000J0D01*
G01*
X0Y-6200000D02*
X0Y-300000D01*
X1100000Y-6500000D02*
X300000Y-6500000D01*
X4000000Y-300000D02*
X4000000Y-6200000D01*
X300000Y0D02*
X3700000Y0D01*
D11*
X60000Y-3100000D02*
X100000Y-3140000D01*
X100000Y-3100000D02*
X60000Y-3140000D01*
X150000Y-2950000D02*
X190000Y-2990000D01*
X190000Y-2950000D02*
X150000Y-2990000D01*
X210000Y-3730000D02*
X250000Y-3770000D01*
X250000Y-3730000D02*
X210000Y-3770000D01*
X240000Y-1770000D02*
X280000Y-1810000D01*
X280000Y-1770000D02*
X240000Y-1810000D01*
X300000Y-2950000D02*
X340000Y-2990000D01*
X340000Y-2950000D02*
X300000Y-2990000D01*
X320000Y-3320000D02*
X360000Y-3360000D01*
X360000Y-3320000D02*
X320000Y-3360000D01*
X320000Y-3430000D02*
X360000Y-3470000D01*
X360000Y-3430000D02*
X320000Y-3470000D01*
X320000Y-3570000D02*
X360000Y-3610000D01*
X360000Y-3570000D02*
X320000Y-3610000D01*
X375000Y-990000D02*
X415000Y-1030000D01*
X415000Y-990000D02*
X375000Y-1030000D01*
X450000Y-3940000D02*
X490000Y-3980000D01*
X490000Y-3940000D02*
X450000Y-3980000D01*
X565000Y-3925000D02*
X605000Y-3965000D01*
X605000Y-3925000D02*
X565000Y-3965000D01*
X630000Y-4910000D02*
X670000Y-4950000D01*
X670000Y-4910000D02*
X630000Y-4950000D01*
X630000Y-5030000D02*
X670000Y-5070000D01*
X670000Y-5030000D02*
X630000Y-5070000D01*
X640000Y-4080000D02*
X680000Y-4120000D01*
X680000Y-4080000D02*
X640000Y-4120000D01*
X650000Y-3330000D02*
X690000Y-3370000D01*
X690000Y-3330000D02*
X650000Y-3370000D01*
X650000Y-3430000D02*
X690000Y-3470000D01*
X690000Y-3430000D02*
X650000Y-3470000D01*
X660000Y-3190000D02*
X700000Y-3230000D01*
X700000Y-3190000D02*
X660000Y-3230000D01*
X660000Y-3570000D02*
X700000Y-3610000D01*
X700000Y-3570000D02*
X660000Y-3610000D01*
X710000Y-4745000D02*
X750000Y-4785000D01*
X750000Y-4745000D02*
X710000Y-4785000D01*
X765000Y-4640000D02*
X805000Y-4680000D01*
X805000Y-4640000D02*
X765000Y-4680000D01*
X770000Y-4240000D02*
X810000Y-4280000D01*
X810000Y-4240000D02*
X770000Y-4280000D01*
X770000Y-4350000D02*
X810000Y-4390000D01*
X810000Y-4350000D02*
X770000Y-4390000D01*
X770000Y-4445000D02*
X810000Y-4485000D01*
X810000Y-4445000D02*
X770000Y-4485000D01*
X770000Y-4545000D02*
X810000Y-4585000D01*
X810000Y-4545000D02*
X770000Y-4585000D01*
X775000Y-3165000D02*
X815000Y-3205000D01*
X815000Y-3165000D02*
X775000Y-3205000D01*
X775000Y-5185000D02*
X815000Y-5225000D01*
X815000Y-5185000D02*
X775000Y-5225000D01*
X780000Y-4020000D02*
X820000Y-4060000D01*
X820000Y-4020000D02*
X780000Y-4060000D01*
X780000Y-4142500D02*
X820000Y-4182500D01*
X820000Y-4142500D02*
X780000Y-4182500D01*
X810000Y-3910000D02*
X850000Y-3950000D01*
X850000Y-3910000D02*
X810000Y-3950000D01*
X920000Y-3165000D02*
X960000Y-3205000D01*
X960000Y-3165000D02*
X920000Y-3205000D01*
X930000Y-1245000D02*
X970000Y-1285000D01*
X970000Y-1245000D02*
X930000Y-1285000D01*
X930000Y-4240000D02*
X970000Y-4280000D01*
X970000Y-4240000D02*
X930000Y-4280000D01*
X930000Y-5235000D02*
X970000Y-5275000D01*
X970000Y-5235000D02*
X930000Y-5275000D01*
X935000Y-3890000D02*
X975000Y-3930000D01*
X975000Y-3890000D02*
X935000Y-3930000D01*
X1026782Y-3169314D02*
X1066782Y-3209314D01*
X1066782Y-3169314D02*
X1026782Y-3209314D01*
X1040000Y-3890000D02*
X1080000Y-3930000D01*
X1080000Y-3890000D02*
X1040000Y-3930000D01*
X1050000Y-5280000D02*
X1090000Y-5320000D01*
X1090000Y-5280000D02*
X1050000Y-5320000D01*
X1115000Y-5145000D02*
X1155000Y-5185000D01*
X1155000Y-5145000D02*
X1115000Y-5185000D01*
X1120000Y-4410000D02*
X1160000Y-4450000D01*
X1160000Y-4410000D02*
X1120000Y-4450000D01*
X1125000Y-4715000D02*
X1165000Y-4755000D01*
X1165000Y-4715000D02*
X1125000Y-4755000D01*
X1132501Y-1300154D02*
X1172501Y-1340154D01*
X1172501Y-1300154D02*
X1132501Y-1340154D01*
X1155000Y-5255000D02*
X1195000Y-5295000D01*
X1195000Y-5255000D02*
X1155000Y-5295000D01*
X1158766Y-5393766D02*
X1198766Y-5433766D01*
X1198766Y-5393766D02*
X1158766Y-5433766D01*
X1165000Y-4800000D02*
X1205000Y-4840000D01*
X1205000Y-4800000D02*
X1165000Y-4840000D01*
X1195000Y-4905000D02*
X1235000Y-4945000D01*
X1235000Y-4905000D02*
X1195000Y-4945000D01*
X1195000Y-5050000D02*
X1235000Y-5090000D01*
X1235000Y-5050000D02*
X1195000Y-5090000D01*
X1205000Y-4660000D02*
X1245000Y-4700000D01*
X1245000Y-4660000D02*
X1205000Y-4700000D01*
X1217613Y-3910001D02*
X1257613Y-3950001D01*
X1257613Y-3910001D02*
X1217613Y-3950001D01*
X1230000Y-4260000D02*
X1270000Y-4300000D01*
X1270000Y-4260000D02*
X1230000Y-4300000D01*
X1230000Y-4370000D02*
X1270000Y-4410000D01*
X1270000Y-4370000D02*
X1230000Y-4410000D01*
X1230000Y-4480000D02*
X1270000Y-4520000D01*
X1270000Y-4480000D02*
X1230000Y-4520000D01*
X1277502Y-1325000D02*
X1317502Y-1365000D01*
X1317502Y-1325000D02*
X1277502Y-1365000D01*
X1402501Y-1635000D02*
X1442501Y-1675000D01*
X1442501Y-1635000D02*
X1402501Y-1675000D01*
X1402501Y-4809644D02*
X1442501Y-4849644D01*
X1442501Y-4809644D02*
X1402501Y-4849644D01*
X1419999Y-5755011D02*
X1459999Y-5795011D01*
X1459999Y-5755011D02*
X1419999Y-5795011D01*
X1430000Y-4990000D02*
X1470000Y-5030000D01*
X1470000Y-4990000D02*
X1430000Y-5030000D01*
X1434044Y-5655991D02*
X1474044Y-5695991D01*
X1474044Y-5655991D02*
X1434044Y-5695991D01*
X1445000Y-3665000D02*
X1485000Y-3705000D01*
X1485000Y-3665000D02*
X1445000Y-3705000D01*
X1445000Y-3780000D02*
X1485000Y-3820000D01*
X1485000Y-3780000D02*
X1445000Y-3820000D01*
X1468763Y-5440000D02*
X1508763Y-5480000D01*
X1508763Y-5440000D02*
X1468763Y-5480000D01*
X1520000Y-5205000D02*
X1560000Y-5245000D01*
X1560000Y-5205000D02*
X1520000Y-5245000D01*
X1530000Y-1270000D02*
X1570000Y-1310000D01*
X1570000Y-1270000D02*
X1530000Y-1310000D01*
X1530000Y-4920000D02*
X1570000Y-4960000D01*
X1570000Y-4920000D02*
X1530000Y-4960000D01*
X1580000Y-5080000D02*
X1620000Y-5120000D01*
X1620000Y-5080000D02*
X1580000Y-5120000D01*
X1620000Y-5690000D02*
X1660000Y-5730000D01*
X1660000Y-5690000D02*
X1620000Y-5730000D01*
X1630000Y-1235000D02*
X1670000Y-1275000D01*
X1670000Y-1235000D02*
X1630000Y-1275000D01*
X1630003Y-5445000D02*
X1670003Y-5485000D01*
X1670003Y-5445000D02*
X1630003Y-5485000D01*
X1645000Y-2785000D02*
X1685000Y-2825000D01*
X1685000Y-2785000D02*
X1645000Y-2825000D01*
X1650000Y-4460000D02*
X1690000Y-4500000D01*
X1690000Y-4460000D02*
X1650000Y-4500000D01*
X1650000Y-4890000D02*
X1690000Y-4930000D01*
X1690000Y-4890000D02*
X1650000Y-4930000D01*
X1705000Y-3090000D02*
X1745000Y-3130000D01*
X1745000Y-3090000D02*
X1705000Y-3130000D01*
X1765000Y-1435000D02*
X1805000Y-1475000D01*
X1805000Y-1435000D02*
X1765000Y-1475000D01*
X1770000Y-4500000D02*
X1810000Y-4540000D01*
X1810000Y-4500000D02*
X1770000Y-4540000D01*
X1785000Y-4890000D02*
X1825000Y-4930000D01*
X1825000Y-4890000D02*
X1785000Y-4930000D01*
X1805000Y-4307501D02*
X1845000Y-4347501D01*
X1845000Y-4307501D02*
X1805000Y-4347501D01*
X1830212Y-3920212D02*
X1870212Y-3960212D01*
X1870212Y-3920212D02*
X1830212Y-3960212D01*
X1855000Y-795000D02*
X1895000Y-835000D01*
X1895000Y-795000D02*
X1855000Y-835000D01*
X1900000Y-4875000D02*
X1940000Y-4915000D01*
X1940000Y-4875000D02*
X1900000Y-4915000D01*
X1919413Y-2340587D02*
X1959413Y-2380587D01*
X1959413Y-2340587D02*
X1919413Y-2380587D01*
X1960000Y-1650000D02*
X2000000Y-1690000D01*
X2000000Y-1650000D02*
X1960000Y-1690000D01*
X1990000Y-5390000D02*
X2030000Y-5430000D01*
X2030000Y-5390000D02*
X1990000Y-5430000D01*
X1995000Y-1960000D02*
X2035000Y-2000000D01*
X2035000Y-1960000D02*
X1995000Y-2000000D01*
X2010000Y-2910000D02*
X2050000Y-2950000D01*
X2050000Y-2910000D02*
X2010000Y-2950000D01*
X2010000Y-4890000D02*
X2050000Y-4930000D01*
X2050000Y-4890000D02*
X2010000Y-4930000D01*
X2020000Y-4630000D02*
X2060000Y-4670000D01*
X2060000Y-4630000D02*
X2020000Y-4670000D01*
X2030000Y-920000D02*
X2070000Y-960000D01*
X2070000Y-920000D02*
X2030000Y-960000D01*
X2030000Y-1230000D02*
X2070000Y-1270000D01*
X2070000Y-1230000D02*
X2030000Y-1270000D01*
X2099109Y-3122499D02*
X2139109Y-3162499D01*
X2139109Y-3122499D02*
X2099109Y-3162499D01*
X2130000Y-1230000D02*
X2170000Y-1270000D01*
X2170000Y-1230000D02*
X2130000Y-1270000D01*
X2200000Y-2125000D02*
X2240000Y-2165000D01*
X2240000Y-2125000D02*
X2200000Y-2165000D01*
X2204750Y-1625250D02*
X2244750Y-1665250D01*
X2244750Y-1625250D02*
X2204750Y-1665250D01*
X2215000Y-3865000D02*
X2255000Y-3905000D01*
X2255000Y-3865000D02*
X2215000Y-3905000D01*
X2250000Y-4330000D02*
X2290000Y-4370000D01*
X2290000Y-4330000D02*
X2250000Y-4370000D01*
X2270000Y-4780000D02*
X2310000Y-4820000D01*
X2310000Y-4780000D02*
X2270000Y-4820000D01*
X2295000Y-3605000D02*
X2335000Y-3645000D01*
X2335000Y-3605000D02*
X2295000Y-3645000D01*
X2300000Y-1430000D02*
X2340000Y-1470000D01*
X2340000Y-1430000D02*
X2300000Y-1470000D01*
X2330000Y-1250000D02*
X2370000Y-1290000D01*
X2370000Y-1250000D02*
X2330000Y-1290000D01*
X2337499Y-2350000D02*
X2377499Y-2390000D01*
X2377499Y-2350000D02*
X2337499Y-2390000D01*
X2400000Y-1990000D02*
X2440000Y-2030000D01*
X2440000Y-1990000D02*
X2400000Y-2030000D01*
X2420000Y-1550000D02*
X2460000Y-1590000D01*
X2460000Y-1550000D02*
X2420000Y-1590000D01*
X2430000Y-4330000D02*
X2470000Y-4370000D01*
X2470000Y-4330000D02*
X2430000Y-4370000D01*
X2440000Y-4780000D02*
X2480000Y-4820000D01*
X2480000Y-4780000D02*
X2440000Y-4820000D01*
X2522501Y-2770000D02*
X2562501Y-2810000D01*
X2562501Y-2770000D02*
X2522501Y-2810000D01*
X2550000Y-4325000D02*
X2590000Y-4365000D01*
X2590000Y-4325000D02*
X2550000Y-4365000D01*
X2550000Y-4900000D02*
X2590000Y-4940000D01*
X2590000Y-4900000D02*
X2550000Y-4940000D01*
X2555000Y-4610000D02*
X2595000Y-4650000D01*
X2595000Y-4610000D02*
X2555000Y-4650000D01*
X2590000Y-4420000D02*
X2630000Y-4460000D01*
X2630000Y-4420000D02*
X2590000Y-4460000D01*
X2595000Y-3625000D02*
X2635000Y-3665000D01*
X2635000Y-3625000D02*
X2595000Y-3665000D01*
X2610000Y-1650000D02*
X2650000Y-1690000D01*
X2650000Y-1650000D02*
X2610000Y-1690000D01*
X2630000Y-3900000D02*
X2670000Y-3940000D01*
X2670000Y-3900000D02*
X2630000Y-3940000D01*
X2630000Y-4225000D02*
X2670000Y-4265000D01*
X2670000Y-4225000D02*
X2630000Y-4265000D01*
X2640000Y-4720000D02*
X2680000Y-4760000D01*
X2680000Y-4720000D02*
X2640000Y-4760000D01*
X2645000Y-2305000D02*
X2685000Y-2345000D01*
X2685000Y-2305000D02*
X2645000Y-2345000D01*
X2680000Y-1250000D02*
X2720000Y-1290000D01*
X2720000Y-1250000D02*
X2680000Y-1290000D01*
X2695000Y-3125000D02*
X2735000Y-3165000D01*
X2735000Y-3125000D02*
X2695000Y-3165000D01*
X2702500Y-1362646D02*
X2742500Y-1402645D01*
X2742500Y-1362646D02*
X2702500Y-1402645D01*
X2725000Y-882501D02*
X2765000Y-922501D01*
X2765000Y-882501D02*
X2725000Y-922501D01*
X2725000Y-2720000D02*
X2765000Y-2760000D01*
X2765000Y-2720000D02*
X2725000Y-2760000D01*
X2730000Y-3900000D02*
X2770000Y-3940000D01*
X2770000Y-3900000D02*
X2730000Y-3940000D01*
X2750000Y-6120000D02*
X2790000Y-6160000D01*
X2790000Y-6120000D02*
X2750000Y-6160000D01*
X2765967Y-1637502D02*
X2805966Y-1677502D01*
X2805966Y-1637502D02*
X2765967Y-1677502D01*
X2770000Y-3600000D02*
X2810000Y-3640000D01*
X2810000Y-3600000D02*
X2770000Y-3640000D01*
X2830000Y-910000D02*
X2870000Y-950000D01*
X2870000Y-910000D02*
X2830000Y-950000D01*
X2830000Y-3900000D02*
X2870000Y-3940000D01*
X2870000Y-3900000D02*
X2830000Y-3940000D01*
X2830000Y-5180000D02*
X2870000Y-5220000D01*
X2870000Y-5180000D02*
X2830000Y-5220000D01*
X2930000Y-3900000D02*
X2970000Y-3940000D01*
X2970000Y-3900000D02*
X2930000Y-3940000D01*
X2940000Y-910000D02*
X2980000Y-950000D01*
X2980000Y-910000D02*
X2940000Y-950000D01*
X2950000Y-1875000D02*
X2990000Y-1915000D01*
X2990000Y-1875000D02*
X2950000Y-1915000D01*
X2960000Y-4240000D02*
X3000000Y-4280000D01*
X3000000Y-4240000D02*
X2960000Y-4280000D01*
X2960000Y-4350000D02*
X3000000Y-4390000D01*
X3000000Y-4350000D02*
X2960000Y-4390000D01*
X2960000Y-4450000D02*
X3000000Y-4490000D01*
X3000000Y-4450000D02*
X2960000Y-4490000D01*
X2960000Y-4550000D02*
X3000000Y-4590000D01*
X3000000Y-4550000D02*
X2960000Y-4590000D01*
X2960000Y-4650000D02*
X3000000Y-4690000D01*
X3000000Y-4650000D02*
X2960000Y-4690000D01*
X3020000Y-4740000D02*
X3060000Y-4780000D01*
X3060000Y-4740000D02*
X3020000Y-4780000D01*
X3030000Y-1030000D02*
X3070000Y-1070000D01*
X3070000Y-1030000D02*
X3030000Y-1070000D01*
X3030000Y-1130000D02*
X3070000Y-1170000D01*
X3070000Y-1130000D02*
X3030000Y-1170000D01*
X3045000Y-1820000D02*
X3085000Y-1860000D01*
X3085000Y-1820000D02*
X3045000Y-1860000D01*
X3092500Y-4393500D02*
X3132500Y-4433500D01*
X3132500Y-4393500D02*
X3092500Y-4433500D01*
X3110000Y-4900000D02*
X3150000Y-4940000D01*
X3150000Y-4900000D02*
X3110000Y-4940000D01*
X3270000Y-2830000D02*
X3310000Y-2870000D01*
X3310000Y-2830000D02*
X3270000Y-2870000D01*
X3280000Y-2350000D02*
X3320000Y-2390000D01*
X3320000Y-2350000D02*
X3280000Y-2390000D01*
X3305000Y-1630000D02*
X3345000Y-1670000D01*
X3345000Y-1630000D02*
X3305000Y-1670000D01*
X3305000Y-1730000D02*
X3345000Y-1770000D01*
X3345000Y-1730000D02*
X3305000Y-1770000D01*
X3305000Y-1830000D02*
X3345000Y-1870000D01*
X3345000Y-1830000D02*
X3305000Y-1870000D01*
X3305000Y-1930000D02*
X3345000Y-1970000D01*
X3345000Y-1930000D02*
X3305000Y-1970000D01*
X3310000Y-3080000D02*
X3350000Y-3120000D01*
X3350000Y-3080000D02*
X3310000Y-3120000D01*
X3310000Y-3190000D02*
X3350000Y-3230000D01*
X3350000Y-3190000D02*
X3310000Y-3230000D01*
X3310000Y-3330000D02*
X3350000Y-3370000D01*
X3350000Y-3330000D02*
X3310000Y-3370000D01*
X3310000Y-3430000D02*
X3350000Y-3470000D01*
X3350000Y-3430000D02*
X3310000Y-3470000D01*
X3310000Y-3570000D02*
X3350000Y-3610000D01*
X3350000Y-3570000D02*
X3310000Y-3610000D01*
X3320000Y-340000D02*
X3360000Y-380000D01*
X3360000Y-340000D02*
X3320000Y-380000D01*
X3330000Y-680000D02*
X3370000Y-720000D01*
X3370000Y-680000D02*
X3330000Y-720000D01*
X3500000Y-245000D02*
X3540000Y-285000D01*
X3540000Y-245000D02*
X3500000Y-285000D01*
X3500000Y-1010000D02*
X3540000Y-1050000D01*
X3540000Y-1010000D02*
X3500000Y-1050000D01*
X3610000Y-1130000D02*
X3650000Y-1170000D01*
X3650000Y-1130000D02*
X3610000Y-1170000D01*
X3610000Y-1230000D02*
X3650000Y-1270000D01*
X3650000Y-1230000D02*
X3610000Y-1270000D01*
X3610000Y-1330000D02*
X3650000Y-1370000D01*
X3650000Y-1330000D02*
X3610000Y-1370000D01*
X3610000Y-1430000D02*
X3650000Y-1470000D01*
X3650000Y-1430000D02*
X3610000Y-1470000D01*
X3640000Y-3190000D02*
X3680000Y-3230000D01*
X3680000Y-3190000D02*
X3640000Y-3230000D01*
X3640000Y-3330000D02*
X3680000Y-3370000D01*
X3680000Y-3330000D02*
X3640000Y-3370000D01*
X3640000Y-3430000D02*
X3680000Y-3470000D01*
X3680000Y-3430000D02*
X3640000Y-3470000D01*
X3640000Y-3570000D02*
X3680000Y-3610000D01*
X3680000Y-3570000D02*
X3640000Y-3610000D01*
X3650000Y-1880000D02*
X3690000Y-1920000D01*
X3690000Y-1880000D02*
X3650000Y-1920000D01*
X3680000Y-680000D02*
X3720000Y-720000D01*
X3720000Y-680000D02*
X3680000Y-720000D01*
X3750000Y-3030000D02*
X3790000Y-3070000D01*
X3790000Y-3030000D02*
X3750000Y-3070000D01*
X3750000Y-3730000D02*
X3790000Y-3770000D01*
X3790000Y-3730000D02*
X3750000Y-3770000D01*
X3770000Y-445000D02*
X3810000Y-485000D01*
X3810000Y-445000D02*
X3770000Y-485000D01*
X3770000Y-555000D02*
X3810000Y-595000D01*
X3810000Y-555000D02*
X3770000Y-595000D01*
X3780000Y-1850000D02*
X3820000Y-1890000D01*
X3820000Y-1850000D02*
X3780000Y-1890000D01*
X3800000Y-710000D02*
X3840000Y-750000D01*
X3840000Y-710000D02*
X3800000Y-750000D01*
X3840000Y-835000D02*
X3880000Y-875000D01*
X3880000Y-835000D02*
X3840000Y-875000D01*
X3840000Y-930000D02*
X3880000Y-970000D01*
X3880000Y-930000D02*
X3840000Y-970000D01*
X3870000Y-1760000D02*
X3910000Y-1800000D01*
X3910000Y-1760000D02*
X3870000Y-1800000D01*
X3880000Y-1030000D02*
X3920000Y-1070000D01*
X3920000Y-1030000D02*
X3880000Y-1070000D01*
X3880000Y-1130000D02*
X3920000Y-1170000D01*
X3920000Y-1130000D02*
X3880000Y-1170000D01*
X3880000Y-1230000D02*
X3920000Y-1270000D01*
X3920000Y-1230000D02*
X3880000Y-1270000D01*
X3880000Y-1330000D02*
X3920000Y-1370000D01*
X3920000Y-1330000D02*
X3880000Y-1370000D01*
X3880000Y-1430000D02*
X3920000Y-1470000D01*
X3920000Y-1430000D02*
X3880000Y-1470000D01*
X3880000Y-1530000D02*
X3920000Y-1570000D01*
X3920000Y-1530000D02*
X3880000Y-1570000D01*
X3880000Y-1630000D02*
X3920000Y-1670000D01*
X3920000Y-1630000D02*
X3880000Y-1670000D01*
X1242500Y-6180000D02*
G75*
G03X1242500Y-6180000I-32500J0D01*
G01*
X1187500Y-6137500D02*
X1187500Y-6222500D01*
X1232500Y-6137500D02*
X1232500Y-6222500D01*
X1187500Y-6222500D02*
G75*
G03X1232500Y-6222500I22500J0D01*
G01*
X1232500Y-6137500D02*
G75*
G03X1187500Y-6137500I-22500J0D01*
G01*
X1360000Y-5890000D02*
G75*
G03X1360000Y-5890000I-32500J0D01*
G01*
X1305000Y-5880000D02*
X1305000Y-5900000D01*
X1350000Y-5880000D02*
X1350000Y-5900000D01*
X1305000Y-5900000D02*
G75*
G03X1350000Y-5900000I22500J0D01*
G01*
X1350000Y-5880000D02*
G75*
G03X1305000Y-5880000I-22500J0D01*
G01*
X1845000Y-5890000D02*
G75*
G03X1845000Y-5890000I-32500J0D01*
G01*
X1790000Y-5880000D02*
X1790000Y-5900000D01*
X1835000Y-5880000D02*
X1835000Y-5900000D01*
X1790000Y-5900000D02*
G75*
G03X1835000Y-5900000I22500J0D01*
G01*
X1835000Y-5880000D02*
G75*
G03X1790000Y-5880000I-22500J0D01*
G01*
X1962500Y-6180000D02*
G75*
G03X1962500Y-6180000I-32500J0D01*
G01*
X1907500Y-6137500D02*
X1907500Y-6222500D01*
X1952500Y-6137500D02*
X1952500Y-6222500D01*
X1907500Y-6222500D02*
G75*
G03X1952500Y-6222500I22500J0D01*
G01*
X1952500Y-6137500D02*
G75*
G03X1907500Y-6137500I-22500J0D01*
G01*
X625000Y-5430000D02*
X625000Y-5510000D01*
X585000Y-5470000D02*
X665000Y-5470000D01*
X270000Y-4490000D02*
X270000Y-4570000D01*
X230000Y-4530000D02*
X310000Y-4530000D01*
X620000Y-4490000D02*
X620000Y-4570000D01*
X580000Y-4530000D02*
X660000Y-4530000D01*
X3380000Y-4565000D02*
X3380000Y-4645000D01*
X3340000Y-4605000D02*
X3420000Y-4605000D01*
X3730000Y-4565000D02*
X3730000Y-4645000D01*
X3690000Y-4605000D02*
X3770000Y-4605000D01*
X3380000Y-5425000D02*
X3380000Y-5505000D01*
X3340000Y-5465000D02*
X3420000Y-5465000D01*
X3730000Y-5425000D02*
X3730000Y-5505000D01*
X3690000Y-5465000D02*
X3770000Y-5465000D01*
X2475000Y-5580000D02*
X2475000Y-5660000D01*
X2435000Y-5620000D02*
X2515000Y-5620000D01*
X2475000Y-5930000D02*
X2475000Y-6010000D01*
X2435000Y-5970000D02*
X2515000Y-5970000D01*
X275000Y-5430000D02*
X275000Y-5510000D01*
X235000Y-5470000D02*
X315000Y-5470000D01*
X892356Y-408356D02*
X892356Y-337644D01*
X821644Y-337644D01*
X821644Y-408356D01*
X892356Y-408356D01*
X892356Y-662356D02*
X892356Y-591644D01*
X821644Y-591644D01*
X821644Y-662356D01*
X892356Y-662356D01*
X1146356Y-408356D02*
X1146356Y-337644D01*
X1075644Y-337644D01*
X1075644Y-408356D01*
X1146356Y-408356D01*
X1146356Y-662356D02*
X1146356Y-591644D01*
X1075644Y-591644D01*
X1075644Y-662356D01*
X1146356Y-662356D01*
X1400356Y-408356D02*
X1400356Y-337644D01*
X1329644Y-337644D01*
X1329644Y-408356D01*
X1400356Y-408356D01*
X1400356Y-662356D02*
X1400356Y-591644D01*
X1329644Y-591644D01*
X1329644Y-662356D01*
X1400356Y-662356D01*
X1654356Y-408356D02*
X1654356Y-337644D01*
X1583644Y-337644D01*
X1583644Y-408356D01*
X1654356Y-408356D01*
X1654356Y-662356D02*
X1654356Y-591644D01*
X1583644Y-591644D01*
X1583644Y-662356D01*
X1654356Y-662356D01*
X1908356Y-408356D02*
X1908356Y-337644D01*
X1837644Y-337644D01*
X1837644Y-408356D01*
X1908356Y-408356D01*
X1908356Y-662356D02*
X1908356Y-591644D01*
X1837644Y-591644D01*
X1837644Y-662356D01*
X1908356Y-662356D01*
X2162356Y-408356D02*
X2162356Y-337644D01*
X2091644Y-337644D01*
X2091644Y-408356D01*
X2162356Y-408356D01*
X2162356Y-662356D02*
X2162356Y-591644D01*
X2091644Y-591644D01*
X2091644Y-662356D01*
X2162356Y-662356D01*
X2416356Y-408356D02*
X2416356Y-337644D01*
X2345644Y-337644D01*
X2345644Y-408356D01*
X2416356Y-408356D01*
X2416356Y-662356D02*
X2416356Y-591644D01*
X2345644Y-591644D01*
X2345644Y-662356D01*
X2416356Y-662356D01*
X2670356Y-408356D02*
X2670356Y-337644D01*
X2599644Y-337644D01*
X2599644Y-408356D01*
X2670356Y-408356D01*
X2670356Y-662356D02*
X2670356Y-591644D01*
X2599644Y-591644D01*
X2599644Y-662356D01*
X2670356Y-662356D01*
X2924356Y-408356D02*
X2924356Y-337644D01*
X2853644Y-337644D01*
X2853644Y-408356D01*
X2924356Y-408356D01*
X2924356Y-662356D02*
X2924356Y-591644D01*
X2853644Y-591644D01*
X2853644Y-662356D01*
X2924356Y-662356D01*
X3178356Y-408356D02*
X3178356Y-337644D01*
X3107644Y-337644D01*
X3107644Y-408356D01*
X3178356Y-408356D01*
X3178356Y-662356D02*
X3178356Y-591644D01*
X3107644Y-591644D01*
X3107644Y-662356D01*
X3178356Y-662356D01*
X300000Y-6360000D02*
X460000Y-6200000D01*
X300000Y-6040000D01*
X140000Y-6200000D01*
X300000Y-6360000D01*
X3700000Y-6360000D02*
X3860000Y-6200000D01*
X3700000Y-6040000D01*
X3540000Y-6200000D01*
X3700000Y-6360000D01*
D12*
X278928Y-6973214D02*
X278928Y-6673214D01*
X350357Y-6673214D01*
X393214Y-6687500D01*
X421786Y-6716071D01*
X436071Y-6744643D01*
X450357Y-6801786D01*
X450357Y-6844643D01*
X436071Y-6901786D01*
X421786Y-6930357D01*
X393214Y-6958929D01*
X350357Y-6973214D01*
X278928Y-6973214D01*
X578928Y-6973214D02*
X578928Y-6773214D01*
X578928Y-6830357D02*
X593214Y-6801786D01*
X607500Y-6787500D01*
X636071Y-6773214D01*
X664643Y-6773214D01*
X764643Y-6973214D02*
X764643Y-6773214D01*
X764643Y-6673214D02*
X750357Y-6687500D01*
X764643Y-6701786D01*
X778928Y-6687500D01*
X764643Y-6673214D01*
X764643Y-6701786D01*
X950357Y-6973214D02*
X921786Y-6958929D01*
X907500Y-6930357D01*
X907500Y-6673214D01*
X1107500Y-6973214D02*
X1078928Y-6958929D01*
X1064643Y-6930357D01*
X1064643Y-6673214D01*
X1450357Y-6973214D02*
X1450357Y-6673214D01*
X1550357Y-6887500D01*
X1650357Y-6673214D01*
X1650357Y-6973214D01*
X1921786Y-6973214D02*
X1921786Y-6816071D01*
X1907500Y-6787500D01*
X1878928Y-6773214D01*
X1821786Y-6773214D01*
X1793214Y-6787500D01*
X1921786Y-6958929D02*
X1893214Y-6973214D01*
X1821786Y-6973214D01*
X1793214Y-6958929D01*
X1778928Y-6930357D01*
X1778928Y-6901786D01*
X1793214Y-6873214D01*
X1821786Y-6858929D01*
X1893214Y-6858929D01*
X1921786Y-6844643D01*
X2064643Y-6773214D02*
X2064643Y-7073214D01*
X2064643Y-6787500D02*
X2093214Y-6773214D01*
X2150357Y-6773214D01*
X2178928Y-6787500D01*
X2193214Y-6801786D01*
X2207500Y-6830357D01*
X2207500Y-6916071D01*
X2193214Y-6944643D01*
X2178928Y-6958929D01*
X2150357Y-6973214D01*
X2093214Y-6973214D01*
X2064643Y-6958929D01*
X2336071Y-6944643D02*
X2350357Y-6958929D01*
X2336071Y-6973214D01*
X2321786Y-6958929D01*
X2336071Y-6944643D01*
X2336071Y-6973214D01*
X2336071Y-6787500D02*
X2350357Y-6801786D01*
X2336071Y-6816071D01*
X2321786Y-6801786D01*
X2336071Y-6787500D01*
X2336071Y-6816071D01*
X-47500Y-7447500D02*
X-7500Y-7487500D01*
X-7500Y-7447500D02*
X-47500Y-7487500D01*
X336071Y-7303214D02*
X364643Y-7303214D01*
X393214Y-7317500D01*
X407500Y-7331786D01*
X421786Y-7360357D01*
X436071Y-7417500D01*
X436071Y-7488929D01*
X421786Y-7546071D01*
X407500Y-7574643D01*
X393214Y-7588929D01*
X364643Y-7603214D01*
X336071Y-7603214D01*
X307500Y-7588929D01*
X293214Y-7574643D01*
X278928Y-7546071D01*
X264643Y-7488929D01*
X264643Y-7417500D01*
X278928Y-7360357D01*
X293214Y-7331786D01*
X307500Y-7317500D01*
X336071Y-7303214D01*
X564643Y-7574643D02*
X578928Y-7588929D01*
X564643Y-7603214D01*
X550357Y-7588929D01*
X564643Y-7574643D01*
X564643Y-7603214D01*
X836071Y-7403214D02*
X836071Y-7603214D01*
X764643Y-7288929D02*
X693214Y-7503214D01*
X878928Y-7503214D01*
X1050357Y-7303214D02*
X1078928Y-7303214D01*
X1107500Y-7317500D01*
X1121786Y-7331786D01*
X1136071Y-7360357D01*
X1150357Y-7417500D01*
X1150357Y-7488929D01*
X1136071Y-7546071D01*
X1121786Y-7574643D01*
X1107500Y-7588929D01*
X1078928Y-7603214D01*
X1050357Y-7603214D01*
X1021786Y-7588929D01*
X1007500Y-7574643D01*
X993214Y-7546071D01*
X978928Y-7488929D01*
X978928Y-7417500D01*
X993214Y-7360357D01*
X1007500Y-7331786D01*
X1021786Y-7317500D01*
X1050357Y-7303214D01*
X1278928Y-7603214D02*
X1278928Y-7403214D01*
X1278928Y-7431786D02*
X1293214Y-7417500D01*
X1321786Y-7403214D01*
X1364643Y-7403214D01*
X1393214Y-7417500D01*
X1407500Y-7446071D01*
X1407500Y-7603214D01*
X1407500Y-7446071D02*
X1421786Y-7417500D01*
X1450357Y-7403214D01*
X1493214Y-7403214D01*
X1521786Y-7417500D01*
X1536071Y-7446071D01*
X1536071Y-7603214D01*
X1678928Y-7603214D02*
X1678928Y-7403214D01*
X1678928Y-7431786D02*
X1693214Y-7417500D01*
X1721786Y-7403214D01*
X1764643Y-7403214D01*
X1793214Y-7417500D01*
X1807500Y-7446071D01*
X1807500Y-7603214D01*
X1807500Y-7446071D02*
X1821786Y-7417500D01*
X1850357Y-7403214D01*
X1893214Y-7403214D01*
X1921786Y-7417500D01*
X1936071Y-7446071D01*
X1936071Y-7603214D01*
X2521786Y-7288929D02*
X2264643Y-7674643D01*
X2907500Y-7303214D02*
X2936071Y-7303214D01*
X2964643Y-7317500D01*
X2978928Y-7331786D01*
X2993214Y-7360357D01*
X3007500Y-7417500D01*
X3007500Y-7488929D01*
X2993214Y-7546071D01*
X2978928Y-7574643D01*
X2964643Y-7588929D01*
X2936071Y-7603214D01*
X2907500Y-7603214D01*
X2878928Y-7588929D01*
X2864643Y-7574643D01*
X2850357Y-7546071D01*
X2836071Y-7488929D01*
X2836071Y-7417500D01*
X2850357Y-7360357D01*
X2864643Y-7331786D01*
X2878928Y-7317500D01*
X2907500Y-7303214D01*
X3136071Y-7574643D02*
X3150357Y-7588929D01*
X3136071Y-7603214D01*
X3121786Y-7588929D01*
X3136071Y-7574643D01*
X3136071Y-7603214D01*
X3336071Y-7303214D02*
X3364643Y-7303214D01*
X3393214Y-7317500D01*
X3407500Y-7331786D01*
X3421786Y-7360357D01*
X3436071Y-7417500D01*
X3436071Y-7488929D01*
X3421786Y-7546071D01*
X3407500Y-7574643D01*
X3393214Y-7588929D01*
X3364643Y-7603214D01*
X3336071Y-7603214D01*
X3307500Y-7588929D01*
X3293214Y-7574643D01*
X3278928Y-7546071D01*
X3264643Y-7488929D01*
X3264643Y-7417500D01*
X3278928Y-7360357D01*
X3293214Y-7331786D01*
X3307500Y-7317500D01*
X3336071Y-7303214D01*
X3721786Y-7603214D02*
X3550357Y-7603214D01*
X3636071Y-7603214D02*
X3636071Y-7303214D01*
X3607500Y-7346071D01*
X3578928Y-7374643D01*
X3550357Y-7388929D01*
X3978928Y-7303214D02*
X3921786Y-7303214D01*
X3893214Y-7317500D01*
X3878928Y-7331786D01*
X3850357Y-7374643D01*
X3836071Y-7431786D01*
X3836071Y-7546071D01*
X3850357Y-7574643D01*
X3864643Y-7588929D01*
X3893214Y-7603214D01*
X3950357Y-7603214D01*
X3978928Y-7588929D01*
X3993214Y-7574643D01*
X4007500Y-7546071D01*
X4007500Y-7474643D01*
X3993214Y-7446071D01*
X3978928Y-7431786D01*
X3950357Y-7417500D01*
X3893214Y-7417500D01*
X3864643Y-7431786D01*
X3850357Y-7446071D01*
X3836071Y-7474643D01*
X4121786Y-7303214D02*
X4121786Y-7360357D01*
X4236071Y-7303214D02*
X4236071Y-7360357D01*
X4678928Y-7717500D02*
X4664643Y-7703214D01*
X4636071Y-7660357D01*
X4621786Y-7631786D01*
X4607500Y-7588929D01*
X4593214Y-7517500D01*
X4593214Y-7460357D01*
X4607500Y-7388929D01*
X4621786Y-7346071D01*
X4636071Y-7317500D01*
X4664643Y-7274643D01*
X4678928Y-7260357D01*
X4950357Y-7603214D02*
X4778928Y-7603214D01*
X4864643Y-7603214D02*
X4864643Y-7303214D01*
X4836071Y-7346071D01*
X4807500Y-7374643D01*
X4778928Y-7388929D01*
X5121786Y-7431786D02*
X5093214Y-7417500D01*
X5078928Y-7403214D01*
X5064643Y-7374643D01*
X5064643Y-7360357D01*
X5078928Y-7331786D01*
X5093214Y-7317500D01*
X5121786Y-7303214D01*
X5178928Y-7303214D01*
X5207500Y-7317500D01*
X5221786Y-7331786D01*
X5236071Y-7360357D01*
X5236071Y-7374643D01*
X5221786Y-7403214D01*
X5207500Y-7417500D01*
X5178928Y-7431786D01*
X5121786Y-7431786D01*
X5093214Y-7446071D01*
X5078928Y-7460357D01*
X5064643Y-7488929D01*
X5064643Y-7546071D01*
X5078928Y-7574643D01*
X5093214Y-7588929D01*
X5121786Y-7603214D01*
X5178928Y-7603214D01*
X5207500Y-7588929D01*
X5221786Y-7574643D01*
X5236071Y-7546071D01*
X5236071Y-7488929D01*
X5221786Y-7460357D01*
X5207500Y-7446071D01*
X5178928Y-7431786D01*
X5421786Y-7303214D02*
X5450357Y-7303214D01*
X5478928Y-7317500D01*
X5493214Y-7331786D01*
X5507500Y-7360357D01*
X5521786Y-7417500D01*
X5521786Y-7488929D01*
X5507500Y-7546071D01*
X5493214Y-7574643D01*
X5478928Y-7588929D01*
X5450357Y-7603214D01*
X5421786Y-7603214D01*
X5393214Y-7588929D01*
X5378928Y-7574643D01*
X5364643Y-7546071D01*
X5350357Y-7488929D01*
X5350357Y-7417500D01*
X5364643Y-7360357D01*
X5378928Y-7331786D01*
X5393214Y-7317500D01*
X5421786Y-7303214D01*
X5878928Y-7603214D02*
X5878928Y-7303214D01*
X6007500Y-7603214D02*
X6007500Y-7446071D01*
X5993214Y-7417500D01*
X5964643Y-7403214D01*
X5921786Y-7403214D01*
X5893214Y-7417500D01*
X5878928Y-7431786D01*
X6193214Y-7603214D02*
X6164643Y-7588929D01*
X6150357Y-7574643D01*
X6136071Y-7546071D01*
X6136071Y-7460357D01*
X6150357Y-7431786D01*
X6164643Y-7417500D01*
X6193214Y-7403214D01*
X6236071Y-7403214D01*
X6264643Y-7417500D01*
X6278928Y-7431786D01*
X6293214Y-7460357D01*
X6293214Y-7546071D01*
X6278928Y-7574643D01*
X6264643Y-7588929D01*
X6236071Y-7603214D01*
X6193214Y-7603214D01*
X6464643Y-7603214D02*
X6436071Y-7588929D01*
X6421786Y-7560357D01*
X6421786Y-7303214D01*
X6693214Y-7588929D02*
X6664643Y-7603214D01*
X6607500Y-7603214D01*
X6578928Y-7588929D01*
X6564643Y-7560357D01*
X6564643Y-7446071D01*
X6578928Y-7417500D01*
X6607500Y-7403214D01*
X6664643Y-7403214D01*
X6693214Y-7417500D01*
X6707500Y-7446071D01*
X6707500Y-7474643D01*
X6564643Y-7503214D01*
X6821786Y-7588929D02*
X6850357Y-7603214D01*
X6907500Y-7603214D01*
X6936071Y-7588929D01*
X6950357Y-7560357D01*
X6950357Y-7546071D01*
X6936071Y-7517500D01*
X6907500Y-7503214D01*
X6864643Y-7503214D01*
X6836071Y-7488929D01*
X6821786Y-7460357D01*
X6821786Y-7446071D01*
X6836071Y-7417500D01*
X6864643Y-7403214D01*
X6907500Y-7403214D01*
X6936071Y-7417500D01*
X7050357Y-7717500D02*
X7064643Y-7703214D01*
X7093214Y-7660357D01*
X7107500Y-7631786D01*
X7121786Y-7588929D01*
X7136071Y-7517500D01*
X7136071Y-7460357D01*
X7121786Y-7388929D01*
X7107500Y-7346071D01*
X7093214Y-7317500D01*
X7064643Y-7274643D01*
X7050357Y-7260357D01*
X-7500Y-7863500D02*
G75*
G03X-7500Y-7863500I-32500J0D01*
G01*
X336071Y-7699214D02*
X364643Y-7699214D01*
X393214Y-7713500D01*
X407500Y-7727786D01*
X421786Y-7756357D01*
X436071Y-7813500D01*
X436071Y-7884929D01*
X421786Y-7942071D01*
X407500Y-7970643D01*
X393214Y-7984929D01*
X364643Y-7999214D01*
X336071Y-7999214D01*
X307500Y-7984929D01*
X293214Y-7970643D01*
X278928Y-7942071D01*
X264643Y-7884929D01*
X264643Y-7813500D01*
X278928Y-7756357D01*
X293214Y-7727786D01*
X307500Y-7713500D01*
X336071Y-7699214D01*
X564643Y-7970643D02*
X578928Y-7984929D01*
X564643Y-7999214D01*
X550357Y-7984929D01*
X564643Y-7970643D01*
X564643Y-7999214D01*
X836071Y-7699214D02*
X778928Y-7699214D01*
X750357Y-7713500D01*
X736071Y-7727786D01*
X707500Y-7770643D01*
X693214Y-7827786D01*
X693214Y-7942071D01*
X707500Y-7970643D01*
X721786Y-7984929D01*
X750357Y-7999214D01*
X807500Y-7999214D01*
X836071Y-7984929D01*
X850357Y-7970643D01*
X864643Y-7942071D01*
X864643Y-7870643D01*
X850357Y-7842071D01*
X836071Y-7827786D01*
X807500Y-7813500D01*
X750357Y-7813500D01*
X721786Y-7827786D01*
X707500Y-7842071D01*
X693214Y-7870643D01*
X1136071Y-7699214D02*
X993214Y-7699214D01*
X978928Y-7842071D01*
X993214Y-7827786D01*
X1021786Y-7813500D01*
X1093214Y-7813500D01*
X1121786Y-7827786D01*
X1136071Y-7842071D01*
X1150357Y-7870643D01*
X1150357Y-7942071D01*
X1136071Y-7970643D01*
X1121786Y-7984929D01*
X1093214Y-7999214D01*
X1021786Y-7999214D01*
X993214Y-7984929D01*
X978928Y-7970643D01*
X1278928Y-7999214D02*
X1278928Y-7799214D01*
X1278928Y-7827786D02*
X1293214Y-7813500D01*
X1321786Y-7799214D01*
X1364643Y-7799214D01*
X1393214Y-7813500D01*
X1407500Y-7842071D01*
X1407500Y-7999214D01*
X1407500Y-7842071D02*
X1421786Y-7813500D01*
X1450357Y-7799214D01*
X1493214Y-7799214D01*
X1521786Y-7813500D01*
X1536071Y-7842071D01*
X1536071Y-7999214D01*
X1678928Y-7999214D02*
X1678928Y-7799214D01*
X1678928Y-7827786D02*
X1693214Y-7813500D01*
X1721786Y-7799214D01*
X1764643Y-7799214D01*
X1793214Y-7813500D01*
X1807500Y-7842071D01*
X1807500Y-7999214D01*
X1807500Y-7842071D02*
X1821786Y-7813500D01*
X1850357Y-7799214D01*
X1893214Y-7799214D01*
X1921786Y-7813500D01*
X1936071Y-7842071D01*
X1936071Y-7999214D01*
X2521786Y-7684929D02*
X2264643Y-8070643D01*
X2907500Y-7699214D02*
X2936071Y-7699214D01*
X2964643Y-7713500D01*
X2978928Y-7727786D01*
X2993214Y-7756357D01*
X3007500Y-7813500D01*
X3007500Y-7884929D01*
X2993214Y-7942071D01*
X2978928Y-7970643D01*
X2964643Y-7984929D01*
X2936071Y-7999214D01*
X2907500Y-7999214D01*
X2878928Y-7984929D01*
X2864643Y-7970643D01*
X2850357Y-7942071D01*
X2836071Y-7884929D01*
X2836071Y-7813500D01*
X2850357Y-7756357D01*
X2864643Y-7727786D01*
X2878928Y-7713500D01*
X2907500Y-7699214D01*
X3136071Y-7970643D02*
X3150357Y-7984929D01*
X3136071Y-7999214D01*
X3121786Y-7984929D01*
X3136071Y-7970643D01*
X3136071Y-7999214D01*
X3336071Y-7699214D02*
X3364643Y-7699214D01*
X3393214Y-7713500D01*
X3407500Y-7727786D01*
X3421786Y-7756357D01*
X3436071Y-7813500D01*
X3436071Y-7884929D01*
X3421786Y-7942071D01*
X3407500Y-7970643D01*
X3393214Y-7984929D01*
X3364643Y-7999214D01*
X3336071Y-7999214D01*
X3307500Y-7984929D01*
X3293214Y-7970643D01*
X3278928Y-7942071D01*
X3264643Y-7884929D01*
X3264643Y-7813500D01*
X3278928Y-7756357D01*
X3293214Y-7727786D01*
X3307500Y-7713500D01*
X3336071Y-7699214D01*
X3550357Y-7727786D02*
X3564643Y-7713500D01*
X3593214Y-7699214D01*
X3664643Y-7699214D01*
X3693214Y-7713500D01*
X3707500Y-7727786D01*
X3721786Y-7756357D01*
X3721786Y-7784929D01*
X3707500Y-7827786D01*
X3536071Y-7999214D01*
X3721786Y-7999214D01*
X3978928Y-7699214D02*
X3921786Y-7699214D01*
X3893214Y-7713500D01*
X3878928Y-7727786D01*
X3850357Y-7770643D01*
X3836071Y-7827786D01*
X3836071Y-7942071D01*
X3850357Y-7970643D01*
X3864643Y-7984929D01*
X3893214Y-7999214D01*
X3950357Y-7999214D01*
X3978928Y-7984929D01*
X3993214Y-7970643D01*
X4007500Y-7942071D01*
X4007500Y-7870643D01*
X3993214Y-7842071D01*
X3978928Y-7827786D01*
X3950357Y-7813500D01*
X3893214Y-7813500D01*
X3864643Y-7827786D01*
X3850357Y-7842071D01*
X3836071Y-7870643D01*
X4121786Y-7699214D02*
X4121786Y-7756357D01*
X4236071Y-7699214D02*
X4236071Y-7756357D01*
X4678928Y-8113500D02*
X4664643Y-8099214D01*
X4636071Y-8056357D01*
X4621786Y-8027786D01*
X4607500Y-7984929D01*
X4593214Y-7913500D01*
X4593214Y-7856357D01*
X4607500Y-7784929D01*
X4621786Y-7742071D01*
X4636071Y-7713500D01*
X4664643Y-7670643D01*
X4678928Y-7656357D01*
X4850357Y-7699214D02*
X4878928Y-7699214D01*
X4907500Y-7713500D01*
X4921786Y-7727786D01*
X4936071Y-7756357D01*
X4950357Y-7813500D01*
X4950357Y-7884929D01*
X4936071Y-7942071D01*
X4921786Y-7970643D01*
X4907500Y-7984929D01*
X4878928Y-7999214D01*
X4850357Y-7999214D01*
X4821786Y-7984929D01*
X4807500Y-7970643D01*
X4793214Y-7942071D01*
X4778928Y-7884929D01*
X4778928Y-7813500D01*
X4793214Y-7756357D01*
X4807500Y-7727786D01*
X4821786Y-7713500D01*
X4850357Y-7699214D01*
X5307500Y-7999214D02*
X5307500Y-7699214D01*
X5436071Y-7999214D02*
X5436071Y-7842071D01*
X5421786Y-7813500D01*
X5393214Y-7799214D01*
X5350357Y-7799214D01*
X5321786Y-7813500D01*
X5307500Y-7827786D01*
X5621786Y-7999214D02*
X5593214Y-7984929D01*
X5578928Y-7970643D01*
X5564643Y-7942071D01*
X5564643Y-7856357D01*
X5578928Y-7827786D01*
X5593214Y-7813500D01*
X5621786Y-7799214D01*
X5664643Y-7799214D01*
X5693214Y-7813500D01*
X5707500Y-7827786D01*
X5721786Y-7856357D01*
X5721786Y-7942071D01*
X5707500Y-7970643D01*
X5693214Y-7984929D01*
X5664643Y-7999214D01*
X5621786Y-7999214D01*
X5893214Y-7999214D02*
X5864643Y-7984929D01*
X5850357Y-7956357D01*
X5850357Y-7699214D01*
X6121786Y-7984929D02*
X6093214Y-7999214D01*
X6036071Y-7999214D01*
X6007500Y-7984929D01*
X5993214Y-7956357D01*
X5993214Y-7842071D01*
X6007500Y-7813500D01*
X6036071Y-7799214D01*
X6093214Y-7799214D01*
X6121786Y-7813500D01*
X6136071Y-7842071D01*
X6136071Y-7870643D01*
X5993214Y-7899214D01*
X6250357Y-7984929D02*
X6278928Y-7999214D01*
X6336071Y-7999214D01*
X6364643Y-7984929D01*
X6378928Y-7956357D01*
X6378928Y-7942071D01*
X6364643Y-7913500D01*
X6336071Y-7899214D01*
X6293214Y-7899214D01*
X6264643Y-7884929D01*
X6250357Y-7856357D01*
X6250357Y-7842071D01*
X6264643Y-7813500D01*
X6293214Y-7799214D01*
X6336071Y-7799214D01*
X6364643Y-7813500D01*
X6736071Y-7884929D02*
X6964643Y-7884929D01*
X6850357Y-7999214D02*
X6850357Y-7770643D01*
X7464643Y-7799214D02*
X7464643Y-7999214D01*
X7393214Y-7684929D02*
X7321786Y-7899214D01*
X7507500Y-7899214D01*
X7836071Y-7984929D02*
X7864643Y-7999214D01*
X7921786Y-7999214D01*
X7950357Y-7984929D01*
X7964643Y-7956357D01*
X7964643Y-7942071D01*
X7950357Y-7913500D01*
X7921786Y-7899214D01*
X7878928Y-7899214D01*
X7850357Y-7884929D01*
X7836071Y-7856357D01*
X7836071Y-7842071D01*
X7850357Y-7813500D01*
X7878928Y-7799214D01*
X7921786Y-7799214D01*
X7950357Y-7813500D01*
X8136071Y-7999214D02*
X8107500Y-7984929D01*
X8093214Y-7956357D01*
X8093214Y-7699214D01*
X8293214Y-7999214D02*
X8264643Y-7984929D01*
X8250357Y-7970643D01*
X8236071Y-7942071D01*
X8236071Y-7856357D01*
X8250357Y-7827786D01*
X8264643Y-7813500D01*
X8293214Y-7799214D01*
X8336071Y-7799214D01*
X8364643Y-7813500D01*
X8378928Y-7827786D01*
X8393214Y-7856357D01*
X8393214Y-7942071D01*
X8378928Y-7970643D01*
X8364643Y-7984929D01*
X8336071Y-7999214D01*
X8293214Y-7999214D01*
X8478928Y-7799214D02*
X8593214Y-7799214D01*
X8521786Y-7699214D02*
X8521786Y-7956357D01*
X8536071Y-7984929D01*
X8564643Y-7999214D01*
X8593214Y-7999214D01*
X8678928Y-7984929D02*
X8707500Y-7999214D01*
X8764643Y-7999214D01*
X8793214Y-7984929D01*
X8807500Y-7956357D01*
X8807500Y-7942071D01*
X8793214Y-7913500D01*
X8764643Y-7899214D01*
X8721786Y-7899214D01*
X8693214Y-7884929D01*
X8678928Y-7856357D01*
X8678928Y-7842071D01*
X8693214Y-7813500D01*
X8721786Y-7799214D01*
X8764643Y-7799214D01*
X8793214Y-7813500D01*
X8907500Y-8113500D02*
X8921786Y-8099214D01*
X8950357Y-8056357D01*
X8964643Y-8027786D01*
X8978928Y-7984929D01*
X8993214Y-7913500D01*
X8993214Y-7856357D01*
X8978928Y-7784929D01*
X8964643Y-7742071D01*
X8950357Y-7713500D01*
X8921786Y-7670643D01*
X8907500Y-7656357D01*
X-47500Y-8219500D02*
X-47500Y-8299500D01*
X-87500Y-8259500D02*
X-7500Y-8259500D01*
X336071Y-8095214D02*
X364643Y-8095214D01*
X393214Y-8109500D01*
X407500Y-8123786D01*
X421786Y-8152357D01*
X436071Y-8209500D01*
X436071Y-8280929D01*
X421786Y-8338071D01*
X407500Y-8366643D01*
X393214Y-8380929D01*
X364643Y-8395214D01*
X336071Y-8395214D01*
X307500Y-8380929D01*
X293214Y-8366643D01*
X278928Y-8338071D01*
X264643Y-8280929D01*
X264643Y-8209500D01*
X278928Y-8152357D01*
X293214Y-8123786D01*
X307500Y-8109500D01*
X336071Y-8095214D01*
X564643Y-8366643D02*
X578928Y-8380929D01*
X564643Y-8395214D01*
X550357Y-8380929D01*
X564643Y-8366643D01*
X564643Y-8395214D01*
X750357Y-8223786D02*
X721786Y-8209500D01*
X707500Y-8195214D01*
X693214Y-8166643D01*
X693214Y-8152357D01*
X707500Y-8123786D01*
X721786Y-8109500D01*
X750357Y-8095214D01*
X807500Y-8095214D01*
X836071Y-8109500D01*
X850357Y-8123786D01*
X864643Y-8152357D01*
X864643Y-8166643D01*
X850357Y-8195214D01*
X836071Y-8209500D01*
X807500Y-8223786D01*
X750357Y-8223786D01*
X721786Y-8238071D01*
X707500Y-8252357D01*
X693214Y-8280929D01*
X693214Y-8338071D01*
X707500Y-8366643D01*
X721786Y-8380929D01*
X750357Y-8395214D01*
X807500Y-8395214D01*
X836071Y-8380929D01*
X850357Y-8366643D01*
X864643Y-8338071D01*
X864643Y-8280929D01*
X850357Y-8252357D01*
X836071Y-8238071D01*
X807500Y-8223786D01*
X1050357Y-8095214D02*
X1078928Y-8095214D01*
X1107500Y-8109500D01*
X1121786Y-8123786D01*
X1136071Y-8152357D01*
X1150357Y-8209500D01*
X1150357Y-8280929D01*
X1136071Y-8338071D01*
X1121786Y-8366643D01*
X1107500Y-8380929D01*
X1078928Y-8395214D01*
X1050357Y-8395214D01*
X1021786Y-8380929D01*
X1007500Y-8366643D01*
X993214Y-8338071D01*
X978928Y-8280929D01*
X978928Y-8209500D01*
X993214Y-8152357D01*
X1007500Y-8123786D01*
X1021786Y-8109500D01*
X1050357Y-8095214D01*
X1278928Y-8395214D02*
X1278928Y-8195214D01*
X1278928Y-8223786D02*
X1293214Y-8209500D01*
X1321786Y-8195214D01*
X1364643Y-8195214D01*
X1393214Y-8209500D01*
X1407500Y-8238071D01*
X1407500Y-8395214D01*
X1407500Y-8238071D02*
X1421786Y-8209500D01*
X1450357Y-8195214D01*
X1493214Y-8195214D01*
X1521786Y-8209500D01*
X1536071Y-8238071D01*
X1536071Y-8395214D01*
X1678928Y-8395214D02*
X1678928Y-8195214D01*
X1678928Y-8223786D02*
X1693214Y-8209500D01*
X1721786Y-8195214D01*
X1764643Y-8195214D01*
X1793214Y-8209500D01*
X1807500Y-8238071D01*
X1807500Y-8395214D01*
X1807500Y-8238071D02*
X1821786Y-8209500D01*
X1850357Y-8195214D01*
X1893214Y-8195214D01*
X1921786Y-8209500D01*
X1936071Y-8238071D01*
X1936071Y-8395214D01*
X2521786Y-8080929D02*
X2264643Y-8466643D01*
X2907500Y-8095214D02*
X2936071Y-8095214D01*
X2964643Y-8109500D01*
X2978928Y-8123786D01*
X2993214Y-8152357D01*
X3007500Y-8209500D01*
X3007500Y-8280929D01*
X2993214Y-8338071D01*
X2978928Y-8366643D01*
X2964643Y-8380929D01*
X2936071Y-8395214D01*
X2907500Y-8395214D01*
X2878928Y-8380929D01*
X2864643Y-8366643D01*
X2850357Y-8338071D01*
X2836071Y-8280929D01*
X2836071Y-8209500D01*
X2850357Y-8152357D01*
X2864643Y-8123786D01*
X2878928Y-8109500D01*
X2907500Y-8095214D01*
X3136071Y-8366643D02*
X3150357Y-8380929D01*
X3136071Y-8395214D01*
X3121786Y-8380929D01*
X3136071Y-8366643D01*
X3136071Y-8395214D01*
X3336071Y-8095214D02*
X3364643Y-8095214D01*
X3393214Y-8109500D01*
X3407500Y-8123786D01*
X3421786Y-8152357D01*
X3436071Y-8209500D01*
X3436071Y-8280929D01*
X3421786Y-8338071D01*
X3407500Y-8366643D01*
X3393214Y-8380929D01*
X3364643Y-8395214D01*
X3336071Y-8395214D01*
X3307500Y-8380929D01*
X3293214Y-8366643D01*
X3278928Y-8338071D01*
X3264643Y-8280929D01*
X3264643Y-8209500D01*
X3278928Y-8152357D01*
X3293214Y-8123786D01*
X3307500Y-8109500D01*
X3336071Y-8095214D01*
X3536071Y-8095214D02*
X3721786Y-8095214D01*
X3621786Y-8209500D01*
X3664643Y-8209500D01*
X3693214Y-8223786D01*
X3707500Y-8238071D01*
X3721786Y-8266643D01*
X3721786Y-8338071D01*
X3707500Y-8366643D01*
X3693214Y-8380929D01*
X3664643Y-8395214D01*
X3578928Y-8395214D01*
X3550357Y-8380929D01*
X3536071Y-8366643D01*
X4007500Y-8395214D02*
X3836071Y-8395214D01*
X3921786Y-8395214D02*
X3921786Y-8095214D01*
X3893214Y-8138071D01*
X3864643Y-8166643D01*
X3836071Y-8180929D01*
X4121786Y-8095214D02*
X4121786Y-8152357D01*
X4236071Y-8095214D02*
X4236071Y-8152357D01*
X4678928Y-8509500D02*
X4664643Y-8495214D01*
X4636071Y-8452357D01*
X4621786Y-8423786D01*
X4607500Y-8380929D01*
X4593214Y-8309500D01*
X4593214Y-8252357D01*
X4607500Y-8180929D01*
X4621786Y-8138071D01*
X4636071Y-8109500D01*
X4664643Y-8066643D01*
X4678928Y-8052357D01*
X4950357Y-8395214D02*
X4778928Y-8395214D01*
X4864643Y-8395214D02*
X4864643Y-8095214D01*
X4836071Y-8138071D01*
X4807500Y-8166643D01*
X4778928Y-8180929D01*
X5136071Y-8095214D02*
X5164643Y-8095214D01*
X5193214Y-8109500D01*
X5207500Y-8123786D01*
X5221786Y-8152357D01*
X5236071Y-8209500D01*
X5236071Y-8280929D01*
X5221786Y-8338071D01*
X5207500Y-8366643D01*
X5193214Y-8380929D01*
X5164643Y-8395214D01*
X5136071Y-8395214D01*
X5107500Y-8380929D01*
X5093214Y-8366643D01*
X5078928Y-8338071D01*
X5064643Y-8280929D01*
X5064643Y-8209500D01*
X5078928Y-8152357D01*
X5093214Y-8123786D01*
X5107500Y-8109500D01*
X5136071Y-8095214D01*
X5593214Y-8395214D02*
X5593214Y-8095214D01*
X5721786Y-8395214D02*
X5721786Y-8238071D01*
X5707500Y-8209500D01*
X5678928Y-8195214D01*
X5636071Y-8195214D01*
X5607500Y-8209500D01*
X5593214Y-8223786D01*
X5907500Y-8395214D02*
X5878928Y-8380929D01*
X5864643Y-8366643D01*
X5850357Y-8338071D01*
X5850357Y-8252357D01*
X5864643Y-8223786D01*
X5878928Y-8209500D01*
X5907500Y-8195214D01*
X5950357Y-8195214D01*
X5978928Y-8209500D01*
X5993214Y-8223786D01*
X6007500Y-8252357D01*
X6007500Y-8338071D01*
X5993214Y-8366643D01*
X5978928Y-8380929D01*
X5950357Y-8395214D01*
X5907500Y-8395214D01*
X6178928Y-8395214D02*
X6150357Y-8380929D01*
X6136071Y-8352357D01*
X6136071Y-8095214D01*
X6407500Y-8380929D02*
X6378928Y-8395214D01*
X6321786Y-8395214D01*
X6293214Y-8380929D01*
X6278928Y-8352357D01*
X6278928Y-8238071D01*
X6293214Y-8209500D01*
X6321786Y-8195214D01*
X6378928Y-8195214D01*
X6407500Y-8209500D01*
X6421786Y-8238071D01*
X6421786Y-8266643D01*
X6278928Y-8295214D01*
X6536071Y-8380929D02*
X6564643Y-8395214D01*
X6621786Y-8395214D01*
X6650357Y-8380929D01*
X6664643Y-8352357D01*
X6664643Y-8338071D01*
X6650357Y-8309500D01*
X6621786Y-8295214D01*
X6578928Y-8295214D01*
X6550357Y-8280929D01*
X6536071Y-8252357D01*
X6536071Y-8238071D01*
X6550357Y-8209500D01*
X6578928Y-8195214D01*
X6621786Y-8195214D01*
X6650357Y-8209500D01*
X6764643Y-8509500D02*
X6778928Y-8495214D01*
X6807500Y-8452357D01*
X6821786Y-8423786D01*
X6836071Y-8380929D01*
X6850357Y-8309500D01*
X6850357Y-8252357D01*
X6836071Y-8180929D01*
X6821786Y-8138071D01*
X6807500Y-8109500D01*
X6778928Y-8066643D01*
X6764643Y-8052357D01*
X-22144Y-8690856D02*
X-22144Y-8620144D01*
X-92856Y-8620144D01*
X-92856Y-8690856D01*
X-22144Y-8690856D01*
X436071Y-8791214D02*
X264643Y-8791214D01*
X350357Y-8791214D02*
X350357Y-8491214D01*
X321786Y-8534072D01*
X293214Y-8562643D01*
X264643Y-8576929D01*
X564643Y-8762643D02*
X578928Y-8776929D01*
X564643Y-8791214D01*
X550357Y-8776929D01*
X564643Y-8762643D01*
X564643Y-8791214D01*
X764643Y-8491214D02*
X793214Y-8491214D01*
X821786Y-8505500D01*
X836071Y-8519786D01*
X850357Y-8548357D01*
X864643Y-8605500D01*
X864643Y-8676929D01*
X850357Y-8734072D01*
X836071Y-8762643D01*
X821786Y-8776929D01*
X793214Y-8791214D01*
X764643Y-8791214D01*
X736071Y-8776929D01*
X721786Y-8762643D01*
X707500Y-8734072D01*
X693214Y-8676929D01*
X693214Y-8605500D01*
X707500Y-8548357D01*
X721786Y-8519786D01*
X736071Y-8505500D01*
X764643Y-8491214D01*
X1050357Y-8491214D02*
X1078928Y-8491214D01*
X1107500Y-8505500D01*
X1121786Y-8519786D01*
X1136071Y-8548357D01*
X1150357Y-8605500D01*
X1150357Y-8676929D01*
X1136071Y-8734072D01*
X1121786Y-8762643D01*
X1107500Y-8776929D01*
X1078928Y-8791214D01*
X1050357Y-8791214D01*
X1021786Y-8776929D01*
X1007500Y-8762643D01*
X993214Y-8734072D01*
X978928Y-8676929D01*
X978928Y-8605500D01*
X993214Y-8548357D01*
X1007500Y-8519786D01*
X1021786Y-8505500D01*
X1050357Y-8491214D01*
X1278928Y-8791214D02*
X1278928Y-8591214D01*
X1278928Y-8619786D02*
X1293214Y-8605500D01*
X1321786Y-8591214D01*
X1364643Y-8591214D01*
X1393214Y-8605500D01*
X1407500Y-8634072D01*
X1407500Y-8791214D01*
X1407500Y-8634072D02*
X1421786Y-8605500D01*
X1450357Y-8591214D01*
X1493214Y-8591214D01*
X1521786Y-8605500D01*
X1536071Y-8634072D01*
X1536071Y-8791214D01*
X1678928Y-8791214D02*
X1678928Y-8591214D01*
X1678928Y-8619786D02*
X1693214Y-8605500D01*
X1721786Y-8591214D01*
X1764643Y-8591214D01*
X1793214Y-8605500D01*
X1807500Y-8634072D01*
X1807500Y-8791214D01*
X1807500Y-8634072D02*
X1821786Y-8605500D01*
X1850357Y-8591214D01*
X1893214Y-8591214D01*
X1921786Y-8605500D01*
X1936071Y-8634072D01*
X1936071Y-8791214D01*
X2521786Y-8476929D02*
X2264643Y-8862643D01*
X2907500Y-8491214D02*
X2936071Y-8491214D01*
X2964643Y-8505500D01*
X2978928Y-8519786D01*
X2993214Y-8548357D01*
X3007500Y-8605500D01*
X3007500Y-8676929D01*
X2993214Y-8734072D01*
X2978928Y-8762643D01*
X2964643Y-8776929D01*
X2936071Y-8791214D01*
X2907500Y-8791214D01*
X2878928Y-8776929D01*
X2864643Y-8762643D01*
X2850357Y-8734072D01*
X2836071Y-8676929D01*
X2836071Y-8605500D01*
X2850357Y-8548357D01*
X2864643Y-8519786D01*
X2878928Y-8505500D01*
X2907500Y-8491214D01*
X3136071Y-8762643D02*
X3150357Y-8776929D01*
X3136071Y-8791214D01*
X3121786Y-8776929D01*
X3136071Y-8762643D01*
X3136071Y-8791214D01*
X3336071Y-8491214D02*
X3364643Y-8491214D01*
X3393214Y-8505500D01*
X3407500Y-8519786D01*
X3421786Y-8548357D01*
X3436071Y-8605500D01*
X3436071Y-8676929D01*
X3421786Y-8734072D01*
X3407500Y-8762643D01*
X3393214Y-8776929D01*
X3364643Y-8791214D01*
X3336071Y-8791214D01*
X3307500Y-8776929D01*
X3293214Y-8762643D01*
X3278928Y-8734072D01*
X3264643Y-8676929D01*
X3264643Y-8605500D01*
X3278928Y-8548357D01*
X3293214Y-8519786D01*
X3307500Y-8505500D01*
X3336071Y-8491214D01*
X3536071Y-8491214D02*
X3721786Y-8491214D01*
X3621786Y-8605500D01*
X3664643Y-8605500D01*
X3693214Y-8619786D01*
X3707500Y-8634072D01*
X3721786Y-8662643D01*
X3721786Y-8734072D01*
X3707500Y-8762643D01*
X3693214Y-8776929D01*
X3664643Y-8791214D01*
X3578928Y-8791214D01*
X3550357Y-8776929D01*
X3536071Y-8762643D01*
X3864643Y-8791214D02*
X3921786Y-8791214D01*
X3950357Y-8776929D01*
X3964643Y-8762643D01*
X3993214Y-8719786D01*
X4007500Y-8662643D01*
X4007500Y-8548357D01*
X3993214Y-8519786D01*
X3978928Y-8505500D01*
X3950357Y-8491214D01*
X3893214Y-8491214D01*
X3864643Y-8505500D01*
X3850357Y-8519786D01*
X3836071Y-8548357D01*
X3836071Y-8619786D01*
X3850357Y-8648357D01*
X3864643Y-8662643D01*
X3893214Y-8676929D01*
X3950357Y-8676929D01*
X3978928Y-8662643D01*
X3993214Y-8648357D01*
X4007500Y-8619786D01*
X4121786Y-8491214D02*
X4121786Y-8548357D01*
X4236071Y-8491214D02*
X4236071Y-8548357D01*
X4678928Y-8905500D02*
X4664643Y-8891214D01*
X4636071Y-8848357D01*
X4621786Y-8819786D01*
X4607500Y-8776929D01*
X4593214Y-8705500D01*
X4593214Y-8648357D01*
X4607500Y-8576929D01*
X4621786Y-8534072D01*
X4636071Y-8505500D01*
X4664643Y-8462643D01*
X4678928Y-8448357D01*
X4778928Y-8519786D02*
X4793214Y-8505500D01*
X4821786Y-8491214D01*
X4893214Y-8491214D01*
X4921786Y-8505500D01*
X4936071Y-8519786D01*
X4950357Y-8548357D01*
X4950357Y-8576929D01*
X4936071Y-8619786D01*
X4764643Y-8791214D01*
X4950357Y-8791214D01*
X5136071Y-8491214D02*
X5164643Y-8491214D01*
X5193214Y-8505500D01*
X5207500Y-8519786D01*
X5221786Y-8548357D01*
X5236071Y-8605500D01*
X5236071Y-8676929D01*
X5221786Y-8734072D01*
X5207500Y-8762643D01*
X5193214Y-8776929D01*
X5164643Y-8791214D01*
X5136071Y-8791214D01*
X5107500Y-8776929D01*
X5093214Y-8762643D01*
X5078928Y-8734072D01*
X5064643Y-8676929D01*
X5064643Y-8605500D01*
X5078928Y-8548357D01*
X5093214Y-8519786D01*
X5107500Y-8505500D01*
X5136071Y-8491214D01*
X5593214Y-8791214D02*
X5593214Y-8491214D01*
X5721786Y-8791214D02*
X5721786Y-8634072D01*
X5707500Y-8605500D01*
X5678928Y-8591214D01*
X5636071Y-8591214D01*
X5607500Y-8605500D01*
X5593214Y-8619786D01*
X5907500Y-8791214D02*
X5878928Y-8776929D01*
X5864643Y-8762643D01*
X5850357Y-8734072D01*
X5850357Y-8648357D01*
X5864643Y-8619786D01*
X5878928Y-8605500D01*
X5907500Y-8591214D01*
X5950357Y-8591214D01*
X5978928Y-8605500D01*
X5993214Y-8619786D01*
X6007500Y-8648357D01*
X6007500Y-8734072D01*
X5993214Y-8762643D01*
X5978928Y-8776929D01*
X5950357Y-8791214D01*
X5907500Y-8791214D01*
X6178928Y-8791214D02*
X6150357Y-8776929D01*
X6136071Y-8748357D01*
X6136071Y-8491214D01*
X6407500Y-8776929D02*
X6378928Y-8791214D01*
X6321786Y-8791214D01*
X6293214Y-8776929D01*
X6278928Y-8748357D01*
X6278928Y-8634072D01*
X6293214Y-8605500D01*
X6321786Y-8591214D01*
X6378928Y-8591214D01*
X6407500Y-8605500D01*
X6421786Y-8634072D01*
X6421786Y-8662643D01*
X6278928Y-8691214D01*
X6536071Y-8776929D02*
X6564643Y-8791214D01*
X6621786Y-8791214D01*
X6650357Y-8776929D01*
X6664643Y-8748357D01*
X6664643Y-8734072D01*
X6650357Y-8705500D01*
X6621786Y-8691214D01*
X6578928Y-8691214D01*
X6550357Y-8676929D01*
X6536071Y-8648357D01*
X6536071Y-8634072D01*
X6550357Y-8605500D01*
X6578928Y-8591214D01*
X6621786Y-8591214D01*
X6650357Y-8605500D01*
X6764643Y-8905500D02*
X6778928Y-8891214D01*
X6807500Y-8848357D01*
X6821786Y-8819786D01*
X6836071Y-8776929D01*
X6850357Y-8705500D01*
X6850357Y-8648357D01*
X6836071Y-8576929D01*
X6821786Y-8534072D01*
X6807500Y-8505500D01*
X6778928Y-8462643D01*
X6764643Y-8448357D01*
X-167500Y-9211500D02*
X-7500Y-9051500D01*
X-167500Y-8891500D01*
X-327500Y-9051500D01*
X-167500Y-9211500D01*
X250357Y-8887214D02*
X436071Y-8887214D01*
X336071Y-9001500D01*
X378928Y-9001500D01*
X407500Y-9015786D01*
X421786Y-9030072D01*
X436071Y-9058643D01*
X436071Y-9130072D01*
X421786Y-9158643D01*
X407500Y-9172929D01*
X378928Y-9187214D01*
X293214Y-9187214D01*
X264643Y-9172929D01*
X250357Y-9158643D01*
X564643Y-9158643D02*
X578928Y-9172929D01*
X564643Y-9187214D01*
X550357Y-9172929D01*
X564643Y-9158643D01*
X564643Y-9187214D01*
X693214Y-8915786D02*
X707500Y-8901500D01*
X736071Y-8887214D01*
X807500Y-8887214D01*
X836071Y-8901500D01*
X850357Y-8915786D01*
X864643Y-8944357D01*
X864643Y-8972929D01*
X850357Y-9015786D01*
X678928Y-9187214D01*
X864643Y-9187214D01*
X1050357Y-8887214D02*
X1078928Y-8887214D01*
X1107500Y-8901500D01*
X1121786Y-8915786D01*
X1136071Y-8944357D01*
X1150357Y-9001500D01*
X1150357Y-9072929D01*
X1136071Y-9130072D01*
X1121786Y-9158643D01*
X1107500Y-9172929D01*
X1078928Y-9187214D01*
X1050357Y-9187214D01*
X1021786Y-9172929D01*
X1007500Y-9158643D01*
X993214Y-9130072D01*
X978928Y-9072929D01*
X978928Y-9001500D01*
X993214Y-8944357D01*
X1007500Y-8915786D01*
X1021786Y-8901500D01*
X1050357Y-8887214D01*
X1278928Y-9187214D02*
X1278928Y-8987214D01*
X1278928Y-9015786D02*
X1293214Y-9001500D01*
X1321786Y-8987214D01*
X1364643Y-8987214D01*
X1393214Y-9001500D01*
X1407500Y-9030072D01*
X1407500Y-9187214D01*
X1407500Y-9030072D02*
X1421786Y-9001500D01*
X1450357Y-8987214D01*
X1493214Y-8987214D01*
X1521786Y-9001500D01*
X1536071Y-9030072D01*
X1536071Y-9187214D01*
X1678928Y-9187214D02*
X1678928Y-8987214D01*
X1678928Y-9015786D02*
X1693214Y-9001500D01*
X1721786Y-8987214D01*
X1764643Y-8987214D01*
X1793214Y-9001500D01*
X1807500Y-9030072D01*
X1807500Y-9187214D01*
X1807500Y-9030072D02*
X1821786Y-9001500D01*
X1850357Y-8987214D01*
X1893214Y-8987214D01*
X1921786Y-9001500D01*
X1936071Y-9030072D01*
X1936071Y-9187214D01*
X2521786Y-8872929D02*
X2264643Y-9258643D01*
X2907500Y-8887214D02*
X2936071Y-8887214D01*
X2964643Y-8901500D01*
X2978928Y-8915786D01*
X2993214Y-8944357D01*
X3007500Y-9001500D01*
X3007500Y-9072929D01*
X2993214Y-9130072D01*
X2978928Y-9158643D01*
X2964643Y-9172929D01*
X2936071Y-9187214D01*
X2907500Y-9187214D01*
X2878928Y-9172929D01*
X2864643Y-9158643D01*
X2850357Y-9130072D01*
X2836071Y-9072929D01*
X2836071Y-9001500D01*
X2850357Y-8944357D01*
X2864643Y-8915786D01*
X2878928Y-8901500D01*
X2907500Y-8887214D01*
X3136071Y-9158643D02*
X3150357Y-9172929D01*
X3136071Y-9187214D01*
X3121786Y-9172929D01*
X3136071Y-9158643D01*
X3136071Y-9187214D01*
X3436071Y-9187214D02*
X3264643Y-9187214D01*
X3350357Y-9187214D02*
X3350357Y-8887214D01*
X3321786Y-8930072D01*
X3293214Y-8958643D01*
X3264643Y-8972929D01*
X3550357Y-8915786D02*
X3564643Y-8901500D01*
X3593214Y-8887214D01*
X3664643Y-8887214D01*
X3693214Y-8901500D01*
X3707500Y-8915786D01*
X3721786Y-8944357D01*
X3721786Y-8972929D01*
X3707500Y-9015786D01*
X3536071Y-9187214D01*
X3721786Y-9187214D01*
X3978928Y-8887214D02*
X3921786Y-8887214D01*
X3893214Y-8901500D01*
X3878928Y-8915786D01*
X3850357Y-8958643D01*
X3836071Y-9015786D01*
X3836071Y-9130072D01*
X3850357Y-9158643D01*
X3864643Y-9172929D01*
X3893214Y-9187214D01*
X3950357Y-9187214D01*
X3978928Y-9172929D01*
X3993214Y-9158643D01*
X4007500Y-9130072D01*
X4007500Y-9058643D01*
X3993214Y-9030072D01*
X3978928Y-9015786D01*
X3950357Y-9001500D01*
X3893214Y-9001500D01*
X3864643Y-9015786D01*
X3850357Y-9030072D01*
X3836071Y-9058643D01*
X4121786Y-8887214D02*
X4121786Y-8944357D01*
X4236071Y-8887214D02*
X4236071Y-8944357D01*
X4678928Y-9301500D02*
X4664643Y-9287214D01*
X4636071Y-9244357D01*
X4621786Y-9215786D01*
X4607500Y-9172929D01*
X4593214Y-9101500D01*
X4593214Y-9044357D01*
X4607500Y-8972929D01*
X4621786Y-8930072D01*
X4636071Y-8901500D01*
X4664643Y-8858643D01*
X4678928Y-8844357D01*
X4778928Y-8915786D02*
X4793214Y-8901500D01*
X4821786Y-8887214D01*
X4893214Y-8887214D01*
X4921786Y-8901500D01*
X4936071Y-8915786D01*
X4950357Y-8944357D01*
X4950357Y-8972929D01*
X4936071Y-9015786D01*
X4764643Y-9187214D01*
X4950357Y-9187214D01*
X5307500Y-9187214D02*
X5307500Y-8887214D01*
X5436071Y-9187214D02*
X5436071Y-9030072D01*
X5421786Y-9001500D01*
X5393214Y-8987214D01*
X5350357Y-8987214D01*
X5321786Y-9001500D01*
X5307500Y-9015786D01*
X5621786Y-9187214D02*
X5593214Y-9172929D01*
X5578928Y-9158643D01*
X5564643Y-9130072D01*
X5564643Y-9044357D01*
X5578928Y-9015786D01*
X5593214Y-9001500D01*
X5621786Y-8987214D01*
X5664643Y-8987214D01*
X5693214Y-9001500D01*
X5707500Y-9015786D01*
X5721786Y-9044357D01*
X5721786Y-9130072D01*
X5707500Y-9158643D01*
X5693214Y-9172929D01*
X5664643Y-9187214D01*
X5621786Y-9187214D01*
X5893214Y-9187214D02*
X5864643Y-9172929D01*
X5850357Y-9144357D01*
X5850357Y-8887214D01*
X6121786Y-9172929D02*
X6093214Y-9187214D01*
X6036071Y-9187214D01*
X6007500Y-9172929D01*
X5993214Y-9144357D01*
X5993214Y-9030072D01*
X6007500Y-9001500D01*
X6036071Y-8987214D01*
X6093214Y-8987214D01*
X6121786Y-9001500D01*
X6136071Y-9030072D01*
X6136071Y-9058643D01*
X5993214Y-9087214D01*
X6250357Y-9172929D02*
X6278928Y-9187214D01*
X6336071Y-9187214D01*
X6364643Y-9172929D01*
X6378928Y-9144357D01*
X6378928Y-9130072D01*
X6364643Y-9101500D01*
X6336071Y-9087214D01*
X6293214Y-9087214D01*
X6264643Y-9072929D01*
X6250357Y-9044357D01*
X6250357Y-9030072D01*
X6264643Y-9001500D01*
X6293214Y-8987214D01*
X6336071Y-8987214D01*
X6364643Y-9001500D01*
X6478928Y-9301500D02*
X6493214Y-9287214D01*
X6521786Y-9244357D01*
X6536071Y-9215786D01*
X6550357Y-9172929D01*
X6564643Y-9101500D01*
X6564643Y-9044357D01*
X6550357Y-8972929D01*
X6536071Y-8930072D01*
X6521786Y-8901500D01*
X6493214Y-8858643D01*
X6478928Y-8844357D01*
M02*
