G04 #@! TF.GenerationSoftware,KiCad,Pcbnew,(5.1.4-dirty)*
G04 #@! TF.CreationDate,2020-05-21T00:04:07+08:00*
G04 #@! TF.ProjectId,cicada-4g,63696361-6461-42d3-9467-2e6b69636164,0.1*
G04 #@! TF.SameCoordinates,PX7cee6c0PY3dfd240*
G04 #@! TF.FileFunction,Copper,L2,Inr*
G04 #@! TF.FilePolarity,Positive*
%FSLAX46Y46*%
G04 Gerber Fmt 4.6, Leading zero omitted, Abs format (unit mm)*
G04 Created by KiCad (PCBNEW (5.1.4-dirty)) date 2020-05-21 00:04:07*
%MOMM*%
%LPD*%
G04 APERTURE LIST*
%ADD10C,5.500000*%
%ADD11R,1.700000X1.700000*%
%ADD12O,1.700000X1.700000*%
%ADD13C,1.600000*%
%ADD14R,1.600000X1.600000*%
%ADD15O,1.524000X1.900000*%
%ADD16O,1.050000X1.250000*%
%ADD17C,0.800000*%
%ADD18C,0.250000*%
%ADD19C,0.200000*%
G04 APERTURE END LIST*
D10*
X37000000Y-62000000D03*
X3000000Y-62000000D03*
D11*
X8570000Y-6270000D03*
D12*
X8570000Y-3730000D03*
X11110000Y-6270000D03*
X11110000Y-3730000D03*
X13650000Y-6270000D03*
X13650000Y-3730000D03*
X16190000Y-6270000D03*
X16190000Y-3730000D03*
X18730000Y-6270000D03*
X18730000Y-3730000D03*
X21270000Y-6270000D03*
X21270000Y-3730000D03*
X23810000Y-6270000D03*
X23810000Y-3730000D03*
X26350000Y-6270000D03*
X26350000Y-3730000D03*
X28890000Y-6270000D03*
X28890000Y-3730000D03*
X31430000Y-6270000D03*
X31430000Y-3730000D03*
D13*
X24750000Y-56200000D03*
D14*
X24750000Y-59700000D03*
D13*
X33800000Y-46050000D03*
D14*
X37300000Y-46050000D03*
D13*
X33800000Y-54650000D03*
D14*
X37300000Y-54650000D03*
D13*
X6200000Y-45300000D03*
D14*
X2700000Y-45300000D03*
D13*
X6250000Y-54700000D03*
D14*
X2750000Y-54700000D03*
D15*
X12100000Y-61800000D03*
X19300000Y-61800000D03*
D16*
X13275000Y-58900000D03*
X18125000Y-58900000D03*
D17*
X28500000Y-9300000D03*
X11400000Y-44300000D03*
X20300000Y-29300000D03*
X17250000Y-31100000D03*
X16700000Y-44800000D03*
X20400000Y-46500000D03*
X22900000Y-48000000D03*
X24600000Y-48000000D03*
X17900000Y-45200000D03*
X20100000Y-54100000D03*
X26100000Y-44400000D03*
X20300000Y-49100000D03*
X25700000Y-49200000D03*
X31300000Y-49200000D03*
X28500000Y-52000000D03*
X29800000Y-42600000D03*
X29800000Y-43700000D03*
X29800000Y-44700000D03*
X29800000Y-45700000D03*
X12250000Y-46800000D03*
X7900000Y-45650000D03*
X7900000Y-44650000D03*
X7900000Y-43700000D03*
X7900000Y-42600000D03*
X8000000Y-41625000D03*
X8000000Y-40400000D03*
X8300000Y-39300000D03*
X9550000Y-39100000D03*
X10600000Y-39100000D03*
X12500000Y-42800000D03*
X12500000Y-43900000D03*
X12500000Y-45000000D03*
X3200000Y-29700000D03*
X3400000Y-35900000D03*
X6800000Y-35900000D03*
X800000Y-31200000D03*
X2300000Y-37500000D03*
X33300000Y-32100000D03*
X36600000Y-32100000D03*
X37700000Y-30500000D03*
X33300000Y-31000000D03*
X37700000Y-37500000D03*
X36600000Y-35900000D03*
X33300000Y-35900000D03*
X26600000Y-47400000D03*
X29800000Y-46700000D03*
X28500000Y-39200000D03*
X27500000Y-39200000D03*
X6800000Y-32100000D03*
X15400000Y-52250000D03*
X26500000Y-39200000D03*
X29500000Y-39200000D03*
X33250000Y-19500000D03*
X33250000Y-18500000D03*
X33250000Y-17500000D03*
X33250000Y-16500000D03*
X36300000Y-14500000D03*
X36300000Y-13500000D03*
X36300000Y-12500000D03*
X36300000Y-11500000D03*
X39000000Y-16500000D03*
X39000000Y-15500000D03*
X39000000Y-14500000D03*
X39000000Y-13500000D03*
X39000000Y-12500000D03*
X39000000Y-11500000D03*
X39000000Y-10500000D03*
X38600000Y-9500000D03*
X38600000Y-8550000D03*
X38200000Y-7300000D03*
X37000000Y-7000000D03*
X35200000Y-2650000D03*
X33400000Y-3600000D03*
X33500000Y-7000000D03*
X37900000Y-4650000D03*
X37900000Y-5750000D03*
X35200000Y-10300000D03*
X38000000Y-18700000D03*
X38900000Y-17800000D03*
X16500000Y-12550000D03*
X29600000Y-9300000D03*
X30500000Y-10500000D03*
X30500000Y-11500000D03*
X25425010Y-27900000D03*
X23574990Y-23700000D03*
X20500000Y-12500000D03*
X20500000Y-9400000D03*
X21191086Y-31424990D03*
X12376127Y-39300011D03*
X22350000Y-38850000D03*
X23150000Y-36250000D03*
X27150000Y-31450000D03*
X27450000Y-27400000D03*
X26650000Y-23250000D03*
X2600000Y-17900000D03*
X1700000Y-29700000D03*
X3950000Y-10100000D03*
X30400000Y-47600000D03*
X25750000Y-46300000D03*
X11450000Y-47350000D03*
X7300000Y-47650000D03*
X7950000Y-52050000D03*
X9500000Y-52550000D03*
X11350000Y-51650000D03*
X12150000Y-49250000D03*
X25700000Y-43450000D03*
X26500000Y-42450000D03*
X6500000Y-49300000D03*
X7850000Y-46600000D03*
X36700000Y-19000000D03*
X27000000Y-12700000D03*
X19394135Y-23605865D03*
X20150000Y-19800000D03*
X22200000Y-21450000D03*
X9500000Y-12650000D03*
X11850000Y-48200000D03*
X12150000Y-50700000D03*
X6500000Y-50500000D03*
X16650000Y-28050000D03*
X14225010Y-16549996D03*
X11525010Y-13201540D03*
X12975021Y-13450000D03*
X3400000Y-33400000D03*
X3400000Y-34500000D03*
X6700000Y-33500000D03*
X6700000Y-34500000D03*
X33300000Y-33500000D03*
X36600000Y-33500000D03*
X36600000Y-34500000D03*
X33300000Y-34500000D03*
X16700000Y-49100000D03*
X18050000Y-49100000D03*
X14500000Y-50100000D03*
X16000000Y-51000000D03*
X15500000Y-49400000D03*
X14225010Y-48296438D03*
X9500000Y-42600000D03*
X24500000Y-43500000D03*
X14650000Y-38000000D03*
X14650000Y-36850000D03*
X22700000Y-43500000D03*
X11787660Y-54137660D03*
X18750000Y-8150000D03*
X27900000Y-36200000D03*
X26150000Y-36450000D03*
X14399991Y-57750110D03*
X7950000Y-31850000D03*
X6600000Y-41000000D03*
X22247500Y-16452500D03*
X24400000Y-15700000D03*
X15500000Y-12900000D03*
X10700000Y-53000000D03*
X11750000Y-52750000D03*
X30650000Y-18400000D03*
X33000000Y-23700000D03*
X27450000Y-9025010D03*
X29700000Y-18950000D03*
X32900000Y-28500000D03*
X26300000Y-16700000D03*
X23500000Y-12700000D03*
X24200000Y-20100000D03*
X23200000Y-14500000D03*
X27859665Y-16575021D03*
X27225001Y-13826455D03*
X19800000Y-16700000D03*
X21500000Y-12500000D03*
X17850000Y-14550000D03*
X19200000Y-48950000D03*
X18250000Y-43275010D03*
X31125000Y-44135000D03*
X27700000Y-61400000D03*
X18502120Y-39402120D03*
X16400000Y-57100000D03*
X16500026Y-54650000D03*
X10467817Y-31893136D03*
X5850000Y-39450000D03*
X14540437Y-56759906D03*
X9400002Y-31850000D03*
X14887627Y-54599996D03*
X4700000Y-39600000D03*
D18*
X6249999Y-39050001D02*
X5850000Y-39450000D01*
X10500000Y-34800000D02*
X6249999Y-39050001D01*
X10500000Y-31925319D02*
X10500000Y-34800000D01*
X9400002Y-31850000D02*
X9400002Y-34776994D01*
X5099999Y-39200001D02*
X4700000Y-39600000D01*
X5099999Y-39076997D02*
X5099999Y-39200001D01*
X9400002Y-34776994D02*
X5099999Y-39076997D01*
D19*
G36*
X37489999Y-525323D02*
G01*
X37961336Y-667628D01*
X38396053Y-898770D01*
X38777595Y-1209950D01*
X39091434Y-1589315D01*
X39325604Y-2022404D01*
X39471196Y-2492736D01*
X39525000Y-3004645D01*
X39525001Y-60109080D01*
X39446765Y-59991992D01*
X39008008Y-59553235D01*
X38492085Y-59208506D01*
X37918821Y-58971052D01*
X37310248Y-58850000D01*
X36689752Y-58850000D01*
X36081179Y-58971052D01*
X35507915Y-59208506D01*
X34991992Y-59553235D01*
X34553235Y-59991992D01*
X34208506Y-60507915D01*
X33971052Y-61081179D01*
X33850000Y-61689752D01*
X33850000Y-62310248D01*
X33971052Y-62918821D01*
X34208506Y-63492085D01*
X34553235Y-64008008D01*
X34991992Y-64446765D01*
X35109079Y-64525000D01*
X20975000Y-64525000D01*
X20975000Y-63323332D01*
X20977298Y-63300000D01*
X20968127Y-63206884D01*
X20940966Y-63117346D01*
X20896859Y-63034827D01*
X20837501Y-62962499D01*
X20765173Y-62903141D01*
X20682654Y-62859034D01*
X20593116Y-62831873D01*
X20523332Y-62825000D01*
X20500000Y-62822702D01*
X20476668Y-62825000D01*
X20097326Y-62825000D01*
X20125534Y-62801502D01*
X20268378Y-62624817D01*
X20374008Y-62423660D01*
X20438364Y-62205760D01*
X20358414Y-62025000D01*
X19525000Y-62025000D01*
X19525000Y-62045000D01*
X19075000Y-62045000D01*
X19075000Y-62025000D01*
X18241586Y-62025000D01*
X18161636Y-62205760D01*
X18225992Y-62423660D01*
X18331622Y-62624817D01*
X18474466Y-62801502D01*
X18502674Y-62825000D01*
X12897326Y-62825000D01*
X12925534Y-62801502D01*
X13068378Y-62624817D01*
X13174008Y-62423660D01*
X13238364Y-62205760D01*
X13158414Y-62025000D01*
X12325000Y-62025000D01*
X12325000Y-62045000D01*
X11875000Y-62045000D01*
X11875000Y-62025000D01*
X11041586Y-62025000D01*
X10961636Y-62205760D01*
X11025992Y-62423660D01*
X11131622Y-62624817D01*
X11274466Y-62801502D01*
X11302674Y-62825000D01*
X11023332Y-62825000D01*
X11000000Y-62822702D01*
X10976668Y-62825000D01*
X10906884Y-62831873D01*
X10817346Y-62859034D01*
X10734827Y-62903141D01*
X10662499Y-62962499D01*
X10603141Y-63034827D01*
X10559034Y-63117346D01*
X10531873Y-63206884D01*
X10522702Y-63300000D01*
X10525001Y-63323342D01*
X10525000Y-64525000D01*
X4890921Y-64525000D01*
X5008008Y-64446765D01*
X5446765Y-64008008D01*
X5791494Y-63492085D01*
X6028948Y-62918821D01*
X6150000Y-62310248D01*
X6150000Y-61689752D01*
X6091220Y-61394240D01*
X10961636Y-61394240D01*
X11041586Y-61575000D01*
X11875000Y-61575000D01*
X11875000Y-60574108D01*
X12325000Y-60574108D01*
X12325000Y-61575000D01*
X13158414Y-61575000D01*
X13238364Y-61394240D01*
X18161636Y-61394240D01*
X18241586Y-61575000D01*
X19075000Y-61575000D01*
X19075000Y-60574108D01*
X19525000Y-60574108D01*
X19525000Y-61575000D01*
X20358414Y-61575000D01*
X20438364Y-61394240D01*
X20416794Y-61321207D01*
X26900000Y-61321207D01*
X26900000Y-61478793D01*
X26930743Y-61633351D01*
X26991049Y-61778942D01*
X27078599Y-61909970D01*
X27190030Y-62021401D01*
X27321058Y-62108951D01*
X27466649Y-62169257D01*
X27621207Y-62200000D01*
X27778793Y-62200000D01*
X27933351Y-62169257D01*
X28078942Y-62108951D01*
X28209970Y-62021401D01*
X28321401Y-61909970D01*
X28408951Y-61778942D01*
X28469257Y-61633351D01*
X28500000Y-61478793D01*
X28500000Y-61321207D01*
X28469257Y-61166649D01*
X28408951Y-61021058D01*
X28321401Y-60890030D01*
X28209970Y-60778599D01*
X28078942Y-60691049D01*
X27933351Y-60630743D01*
X27778793Y-60600000D01*
X27621207Y-60600000D01*
X27466649Y-60630743D01*
X27321058Y-60691049D01*
X27190030Y-60778599D01*
X27078599Y-60890030D01*
X26991049Y-61021058D01*
X26930743Y-61166649D01*
X26900000Y-61321207D01*
X20416794Y-61321207D01*
X20374008Y-61176340D01*
X20268378Y-60975183D01*
X20125534Y-60798498D01*
X19950965Y-60653076D01*
X19751380Y-60544504D01*
X19700566Y-60521225D01*
X19525000Y-60574108D01*
X19075000Y-60574108D01*
X18899434Y-60521225D01*
X18848620Y-60544504D01*
X18649035Y-60653076D01*
X18474466Y-60798498D01*
X18331622Y-60975183D01*
X18225992Y-61176340D01*
X18161636Y-61394240D01*
X13238364Y-61394240D01*
X13174008Y-61176340D01*
X13068378Y-60975183D01*
X12925534Y-60798498D01*
X12750965Y-60653076D01*
X12551380Y-60544504D01*
X12500566Y-60521225D01*
X12325000Y-60574108D01*
X11875000Y-60574108D01*
X11699434Y-60521225D01*
X11648620Y-60544504D01*
X11449035Y-60653076D01*
X11274466Y-60798498D01*
X11131622Y-60975183D01*
X11025992Y-61176340D01*
X10961636Y-61394240D01*
X6091220Y-61394240D01*
X6028948Y-61081179D01*
X5791494Y-60507915D01*
X5446765Y-59991992D01*
X5008008Y-59553235D01*
X4577781Y-59265766D01*
X12396076Y-59265766D01*
X12464813Y-59432129D01*
X12564685Y-59581885D01*
X12691854Y-59709280D01*
X12841433Y-59809418D01*
X12912414Y-59850974D01*
X13050000Y-59793725D01*
X13050000Y-59125000D01*
X13500000Y-59125000D01*
X13500000Y-59793725D01*
X13637586Y-59850974D01*
X13708567Y-59809418D01*
X13858146Y-59709280D01*
X13985315Y-59581885D01*
X14085187Y-59432129D01*
X14153924Y-59265766D01*
X17246076Y-59265766D01*
X17314813Y-59432129D01*
X17414685Y-59581885D01*
X17541854Y-59709280D01*
X17691433Y-59809418D01*
X17762414Y-59850974D01*
X17900000Y-59793725D01*
X17900000Y-59125000D01*
X18350000Y-59125000D01*
X18350000Y-59793725D01*
X18487586Y-59850974D01*
X18558567Y-59809418D01*
X18708146Y-59709280D01*
X18835315Y-59581885D01*
X18935187Y-59432129D01*
X19003924Y-59265766D01*
X18934678Y-59125000D01*
X18350000Y-59125000D01*
X17900000Y-59125000D01*
X17315322Y-59125000D01*
X17246076Y-59265766D01*
X14153924Y-59265766D01*
X14084678Y-59125000D01*
X13500000Y-59125000D01*
X13050000Y-59125000D01*
X12465322Y-59125000D01*
X12396076Y-59265766D01*
X4577781Y-59265766D01*
X4492085Y-59208506D01*
X3918821Y-58971052D01*
X3561617Y-58900000D01*
X23548065Y-58900000D01*
X23548065Y-60500000D01*
X23555788Y-60578414D01*
X23578660Y-60653814D01*
X23615803Y-60723303D01*
X23665789Y-60784211D01*
X23726697Y-60834197D01*
X23796186Y-60871340D01*
X23871586Y-60894212D01*
X23950000Y-60901935D01*
X25550000Y-60901935D01*
X25628414Y-60894212D01*
X25703814Y-60871340D01*
X25773303Y-60834197D01*
X25834211Y-60784211D01*
X25884197Y-60723303D01*
X25921340Y-60653814D01*
X25944212Y-60578414D01*
X25951935Y-60500000D01*
X25951935Y-58900000D01*
X25944212Y-58821586D01*
X25921340Y-58746186D01*
X25884197Y-58676697D01*
X25834211Y-58615789D01*
X25773303Y-58565803D01*
X25703814Y-58528660D01*
X25628414Y-58505788D01*
X25550000Y-58498065D01*
X23950000Y-58498065D01*
X23871586Y-58505788D01*
X23796186Y-58528660D01*
X23726697Y-58565803D01*
X23665789Y-58615789D01*
X23615803Y-58676697D01*
X23578660Y-58746186D01*
X23555788Y-58821586D01*
X23548065Y-58900000D01*
X3561617Y-58900000D01*
X3310248Y-58850000D01*
X2689752Y-58850000D01*
X2081179Y-58971052D01*
X1507915Y-59208506D01*
X991992Y-59553235D01*
X553235Y-59991992D01*
X475000Y-60109079D01*
X475000Y-58534234D01*
X12396076Y-58534234D01*
X12465322Y-58675000D01*
X13050000Y-58675000D01*
X13050000Y-58006275D01*
X13500000Y-58006275D01*
X13500000Y-58675000D01*
X14084678Y-58675000D01*
X14153924Y-58534234D01*
X14143887Y-58509943D01*
X14166640Y-58519367D01*
X14321198Y-58550110D01*
X14478784Y-58550110D01*
X14558599Y-58534234D01*
X17246076Y-58534234D01*
X17315322Y-58675000D01*
X17900000Y-58675000D01*
X17900000Y-58006275D01*
X18350000Y-58006275D01*
X18350000Y-58675000D01*
X18934678Y-58675000D01*
X19003924Y-58534234D01*
X18935187Y-58367871D01*
X18835315Y-58218115D01*
X18708146Y-58090720D01*
X18558567Y-57990582D01*
X18487586Y-57949026D01*
X18350000Y-58006275D01*
X17900000Y-58006275D01*
X17762414Y-57949026D01*
X17691433Y-57990582D01*
X17541854Y-58090720D01*
X17414685Y-58218115D01*
X17314813Y-58367871D01*
X17246076Y-58534234D01*
X14558599Y-58534234D01*
X14633342Y-58519367D01*
X14778933Y-58459061D01*
X14909961Y-58371511D01*
X15021392Y-58260080D01*
X15108942Y-58129052D01*
X15169248Y-57983461D01*
X15199991Y-57828903D01*
X15199991Y-57671317D01*
X15169248Y-57516759D01*
X15108942Y-57371168D01*
X15089557Y-57342157D01*
X15161838Y-57269876D01*
X15249388Y-57138848D01*
X15298116Y-57021207D01*
X15600000Y-57021207D01*
X15600000Y-57178793D01*
X15630743Y-57333351D01*
X15691049Y-57478942D01*
X15778599Y-57609970D01*
X15890030Y-57721401D01*
X16021058Y-57808951D01*
X16166649Y-57869257D01*
X16321207Y-57900000D01*
X16478793Y-57900000D01*
X16633351Y-57869257D01*
X16778942Y-57808951D01*
X16909970Y-57721401D01*
X17021401Y-57609970D01*
X17108951Y-57478942D01*
X17169257Y-57333351D01*
X17200000Y-57178793D01*
X17200000Y-57124665D01*
X24143533Y-57124665D01*
X24235722Y-57290637D01*
X24458376Y-57370011D01*
X24692238Y-57404423D01*
X24928320Y-57392550D01*
X25157548Y-57334847D01*
X25264278Y-57290637D01*
X25356467Y-57124665D01*
X24750000Y-56518198D01*
X24143533Y-57124665D01*
X17200000Y-57124665D01*
X17200000Y-57021207D01*
X17169257Y-56866649D01*
X17108951Y-56721058D01*
X17021401Y-56590030D01*
X16909970Y-56478599D01*
X16778942Y-56391049D01*
X16633351Y-56330743D01*
X16478793Y-56300000D01*
X16321207Y-56300000D01*
X16166649Y-56330743D01*
X16021058Y-56391049D01*
X15890030Y-56478599D01*
X15778599Y-56590030D01*
X15691049Y-56721058D01*
X15630743Y-56866649D01*
X15600000Y-57021207D01*
X15298116Y-57021207D01*
X15309694Y-56993257D01*
X15340437Y-56838699D01*
X15340437Y-56681113D01*
X15309694Y-56526555D01*
X15249388Y-56380964D01*
X15161838Y-56249936D01*
X15054140Y-56142238D01*
X23545577Y-56142238D01*
X23557450Y-56378320D01*
X23615153Y-56607548D01*
X23659363Y-56714278D01*
X23825335Y-56806467D01*
X24431802Y-56200000D01*
X25068198Y-56200000D01*
X25674665Y-56806467D01*
X25840637Y-56714278D01*
X25920011Y-56491624D01*
X25954423Y-56257762D01*
X25942550Y-56021680D01*
X25884847Y-55792452D01*
X25840637Y-55685722D01*
X25674665Y-55593533D01*
X25068198Y-56200000D01*
X24431802Y-56200000D01*
X23825335Y-55593533D01*
X23659363Y-55685722D01*
X23579989Y-55908376D01*
X23545577Y-56142238D01*
X15054140Y-56142238D01*
X15050407Y-56138505D01*
X14919379Y-56050955D01*
X14773788Y-55990649D01*
X14619230Y-55959906D01*
X14461644Y-55959906D01*
X14307086Y-55990649D01*
X14161495Y-56050955D01*
X14030467Y-56138505D01*
X13919036Y-56249936D01*
X13831486Y-56380964D01*
X13771180Y-56526555D01*
X13740437Y-56681113D01*
X13740437Y-56838699D01*
X13771180Y-56993257D01*
X13831486Y-57138848D01*
X13850871Y-57167859D01*
X13778590Y-57240140D01*
X13691040Y-57371168D01*
X13630734Y-57516759D01*
X13599991Y-57671317D01*
X13599991Y-57828903D01*
X13624932Y-57954291D01*
X13500000Y-58006275D01*
X13050000Y-58006275D01*
X12912414Y-57949026D01*
X12841433Y-57990582D01*
X12691854Y-58090720D01*
X12564685Y-58218115D01*
X12464813Y-58367871D01*
X12396076Y-58534234D01*
X475000Y-58534234D01*
X475000Y-53900000D01*
X1548065Y-53900000D01*
X1548065Y-55500000D01*
X1555788Y-55578414D01*
X1578660Y-55653814D01*
X1615803Y-55723303D01*
X1665789Y-55784211D01*
X1726697Y-55834197D01*
X1796186Y-55871340D01*
X1871586Y-55894212D01*
X1950000Y-55901935D01*
X3550000Y-55901935D01*
X3628414Y-55894212D01*
X3703814Y-55871340D01*
X3773303Y-55834197D01*
X3834211Y-55784211D01*
X3884197Y-55723303D01*
X3921340Y-55653814D01*
X3930182Y-55624665D01*
X5643533Y-55624665D01*
X5735722Y-55790637D01*
X5958376Y-55870011D01*
X6192238Y-55904423D01*
X6428320Y-55892550D01*
X6657548Y-55834847D01*
X6764278Y-55790637D01*
X6856467Y-55624665D01*
X6250000Y-55018198D01*
X5643533Y-55624665D01*
X3930182Y-55624665D01*
X3944212Y-55578414D01*
X3951935Y-55500000D01*
X3951935Y-54642238D01*
X5045577Y-54642238D01*
X5057450Y-54878320D01*
X5115153Y-55107548D01*
X5159363Y-55214278D01*
X5325335Y-55306467D01*
X5931802Y-54700000D01*
X6568198Y-54700000D01*
X7174665Y-55306467D01*
X7340637Y-55214278D01*
X7420011Y-54991624D01*
X7454423Y-54757762D01*
X7442550Y-54521680D01*
X7384847Y-54292452D01*
X7340637Y-54185722D01*
X7174665Y-54093533D01*
X6568198Y-54700000D01*
X5931802Y-54700000D01*
X5325335Y-54093533D01*
X5159363Y-54185722D01*
X5079989Y-54408376D01*
X5045577Y-54642238D01*
X3951935Y-54642238D01*
X3951935Y-53900000D01*
X3944212Y-53821586D01*
X3930183Y-53775335D01*
X5643533Y-53775335D01*
X6250000Y-54381802D01*
X6856467Y-53775335D01*
X6764278Y-53609363D01*
X6541624Y-53529989D01*
X6307762Y-53495577D01*
X6071680Y-53507450D01*
X5842452Y-53565153D01*
X5735722Y-53609363D01*
X5643533Y-53775335D01*
X3930183Y-53775335D01*
X3921340Y-53746186D01*
X3884197Y-53676697D01*
X3834211Y-53615789D01*
X3773303Y-53565803D01*
X3703814Y-53528660D01*
X3628414Y-53505788D01*
X3550000Y-53498065D01*
X1950000Y-53498065D01*
X1871586Y-53505788D01*
X1796186Y-53528660D01*
X1726697Y-53565803D01*
X1665789Y-53615789D01*
X1615803Y-53676697D01*
X1578660Y-53746186D01*
X1555788Y-53821586D01*
X1548065Y-53900000D01*
X475000Y-53900000D01*
X475000Y-52921207D01*
X9900000Y-52921207D01*
X9900000Y-53078793D01*
X9930743Y-53233351D01*
X9991049Y-53378942D01*
X10078599Y-53509970D01*
X10190030Y-53621401D01*
X10321058Y-53708951D01*
X10466649Y-53769257D01*
X10621207Y-53800000D01*
X10778793Y-53800000D01*
X10933351Y-53769257D01*
X11078942Y-53708951D01*
X11138595Y-53669092D01*
X11078709Y-53758718D01*
X11018403Y-53904309D01*
X10987660Y-54058867D01*
X10987660Y-54216453D01*
X11018403Y-54371011D01*
X11078709Y-54516602D01*
X11166259Y-54647630D01*
X11277690Y-54759061D01*
X11408718Y-54846611D01*
X11554309Y-54906917D01*
X11708867Y-54937660D01*
X11866453Y-54937660D01*
X12021011Y-54906917D01*
X12166602Y-54846611D01*
X12297630Y-54759061D01*
X12409061Y-54647630D01*
X12493536Y-54521203D01*
X14087627Y-54521203D01*
X14087627Y-54678789D01*
X14118370Y-54833347D01*
X14178676Y-54978938D01*
X14266226Y-55109966D01*
X14377657Y-55221397D01*
X14508685Y-55308947D01*
X14654276Y-55369253D01*
X14808834Y-55399996D01*
X14966420Y-55399996D01*
X15120978Y-55369253D01*
X15266569Y-55308947D01*
X15397597Y-55221397D01*
X15509028Y-55109966D01*
X15596578Y-54978938D01*
X15656884Y-54833347D01*
X15687627Y-54678789D01*
X15687627Y-54571207D01*
X15700026Y-54571207D01*
X15700026Y-54728793D01*
X15730769Y-54883351D01*
X15791075Y-55028942D01*
X15878625Y-55159970D01*
X15990056Y-55271401D01*
X16121084Y-55358951D01*
X16266675Y-55419257D01*
X16421233Y-55450000D01*
X16578819Y-55450000D01*
X16733377Y-55419257D01*
X16878968Y-55358951D01*
X17004108Y-55275335D01*
X24143533Y-55275335D01*
X24750000Y-55881802D01*
X25057137Y-55574665D01*
X33193533Y-55574665D01*
X33285722Y-55740637D01*
X33508376Y-55820011D01*
X33742238Y-55854423D01*
X33978320Y-55842550D01*
X34207548Y-55784847D01*
X34314278Y-55740637D01*
X34406467Y-55574665D01*
X33800000Y-54968198D01*
X33193533Y-55574665D01*
X25057137Y-55574665D01*
X25356467Y-55275335D01*
X25264278Y-55109363D01*
X25041624Y-55029989D01*
X24807762Y-54995577D01*
X24571680Y-55007450D01*
X24342452Y-55065153D01*
X24235722Y-55109363D01*
X24143533Y-55275335D01*
X17004108Y-55275335D01*
X17009996Y-55271401D01*
X17121427Y-55159970D01*
X17208977Y-55028942D01*
X17269283Y-54883351D01*
X17300026Y-54728793D01*
X17300026Y-54592238D01*
X32595577Y-54592238D01*
X32607450Y-54828320D01*
X32665153Y-55057548D01*
X32709363Y-55164278D01*
X32875335Y-55256467D01*
X33481802Y-54650000D01*
X34118198Y-54650000D01*
X34724665Y-55256467D01*
X34890637Y-55164278D01*
X34970011Y-54941624D01*
X35004423Y-54707762D01*
X34992550Y-54471680D01*
X34934847Y-54242452D01*
X34890637Y-54135722D01*
X34724665Y-54043533D01*
X34118198Y-54650000D01*
X33481802Y-54650000D01*
X32875335Y-54043533D01*
X32709363Y-54135722D01*
X32629989Y-54358376D01*
X32595577Y-54592238D01*
X17300026Y-54592238D01*
X17300026Y-54571207D01*
X17269283Y-54416649D01*
X17208977Y-54271058D01*
X17121427Y-54140030D01*
X17009996Y-54028599D01*
X16878968Y-53941049D01*
X16733377Y-53880743D01*
X16578819Y-53850000D01*
X16421233Y-53850000D01*
X16266675Y-53880743D01*
X16121084Y-53941049D01*
X15990056Y-54028599D01*
X15878625Y-54140030D01*
X15791075Y-54271058D01*
X15730769Y-54416649D01*
X15700026Y-54571207D01*
X15687627Y-54571207D01*
X15687627Y-54521203D01*
X15656884Y-54366645D01*
X15596578Y-54221054D01*
X15509028Y-54090026D01*
X15397597Y-53978595D01*
X15266569Y-53891045D01*
X15120978Y-53830739D01*
X14966420Y-53799996D01*
X14808834Y-53799996D01*
X14654276Y-53830739D01*
X14508685Y-53891045D01*
X14377657Y-53978595D01*
X14266226Y-54090026D01*
X14178676Y-54221054D01*
X14118370Y-54366645D01*
X14087627Y-54521203D01*
X12493536Y-54521203D01*
X12496611Y-54516602D01*
X12556917Y-54371011D01*
X12587660Y-54216453D01*
X12587660Y-54058867D01*
X12556917Y-53904309D01*
X12496611Y-53758718D01*
X12474306Y-53725335D01*
X33193533Y-53725335D01*
X33800000Y-54331802D01*
X34281802Y-53850000D01*
X36098065Y-53850000D01*
X36098065Y-55450000D01*
X36105788Y-55528414D01*
X36128660Y-55603814D01*
X36165803Y-55673303D01*
X36215789Y-55734211D01*
X36276697Y-55784197D01*
X36346186Y-55821340D01*
X36421586Y-55844212D01*
X36500000Y-55851935D01*
X38100000Y-55851935D01*
X38178414Y-55844212D01*
X38253814Y-55821340D01*
X38323303Y-55784197D01*
X38384211Y-55734211D01*
X38434197Y-55673303D01*
X38471340Y-55603814D01*
X38494212Y-55528414D01*
X38501935Y-55450000D01*
X38501935Y-53850000D01*
X38494212Y-53771586D01*
X38471340Y-53696186D01*
X38434197Y-53626697D01*
X38384211Y-53565789D01*
X38323303Y-53515803D01*
X38253814Y-53478660D01*
X38178414Y-53455788D01*
X38100000Y-53448065D01*
X36500000Y-53448065D01*
X36421586Y-53455788D01*
X36346186Y-53478660D01*
X36276697Y-53515803D01*
X36215789Y-53565789D01*
X36165803Y-53626697D01*
X36128660Y-53696186D01*
X36105788Y-53771586D01*
X36098065Y-53850000D01*
X34281802Y-53850000D01*
X34406467Y-53725335D01*
X34314278Y-53559363D01*
X34091624Y-53479989D01*
X33857762Y-53445577D01*
X33621680Y-53457450D01*
X33392452Y-53515153D01*
X33285722Y-53559363D01*
X33193533Y-53725335D01*
X12474306Y-53725335D01*
X12409061Y-53627690D01*
X12297630Y-53516259D01*
X12170402Y-53431248D01*
X12259970Y-53371401D01*
X12371401Y-53259970D01*
X12458951Y-53128942D01*
X12519257Y-52983351D01*
X12550000Y-52828793D01*
X12550000Y-52671207D01*
X12519257Y-52516649D01*
X12458951Y-52371058D01*
X12371401Y-52240030D01*
X12259970Y-52128599D01*
X12128942Y-52041049D01*
X11983351Y-51980743D01*
X11828793Y-51950000D01*
X11671207Y-51950000D01*
X11516649Y-51980743D01*
X11371058Y-52041049D01*
X11240030Y-52128599D01*
X11128599Y-52240030D01*
X11089704Y-52298240D01*
X11078942Y-52291049D01*
X10933351Y-52230743D01*
X10778793Y-52200000D01*
X10621207Y-52200000D01*
X10466649Y-52230743D01*
X10321058Y-52291049D01*
X10190030Y-52378599D01*
X10078599Y-52490030D01*
X9991049Y-52621058D01*
X9930743Y-52766649D01*
X9900000Y-52921207D01*
X475000Y-52921207D01*
X475000Y-50921207D01*
X15200000Y-50921207D01*
X15200000Y-51078793D01*
X15230743Y-51233351D01*
X15291049Y-51378942D01*
X15378599Y-51509970D01*
X15490030Y-51621401D01*
X15621058Y-51708951D01*
X15766649Y-51769257D01*
X15921207Y-51800000D01*
X16078793Y-51800000D01*
X16233351Y-51769257D01*
X16378942Y-51708951D01*
X16509970Y-51621401D01*
X16621401Y-51509970D01*
X16708951Y-51378942D01*
X16769257Y-51233351D01*
X16800000Y-51078793D01*
X16800000Y-50921207D01*
X16769257Y-50766649D01*
X16708951Y-50621058D01*
X16621401Y-50490030D01*
X16509970Y-50378599D01*
X16378942Y-50291049D01*
X16233351Y-50230743D01*
X16078793Y-50200000D01*
X15921207Y-50200000D01*
X15766649Y-50230743D01*
X15621058Y-50291049D01*
X15490030Y-50378599D01*
X15378599Y-50490030D01*
X15291049Y-50621058D01*
X15230743Y-50766649D01*
X15200000Y-50921207D01*
X475000Y-50921207D01*
X475000Y-50021207D01*
X13700000Y-50021207D01*
X13700000Y-50178793D01*
X13730743Y-50333351D01*
X13791049Y-50478942D01*
X13878599Y-50609970D01*
X13990030Y-50721401D01*
X14121058Y-50808951D01*
X14266649Y-50869257D01*
X14421207Y-50900000D01*
X14578793Y-50900000D01*
X14733351Y-50869257D01*
X14878942Y-50808951D01*
X15009970Y-50721401D01*
X15121401Y-50609970D01*
X15208951Y-50478942D01*
X15269257Y-50333351D01*
X15300000Y-50178793D01*
X15300000Y-50175891D01*
X15421207Y-50200000D01*
X15578793Y-50200000D01*
X15733351Y-50169257D01*
X15878942Y-50108951D01*
X16009970Y-50021401D01*
X16121401Y-49909970D01*
X16208951Y-49778942D01*
X16223517Y-49743776D01*
X16321058Y-49808951D01*
X16466649Y-49869257D01*
X16621207Y-49900000D01*
X16778793Y-49900000D01*
X16933351Y-49869257D01*
X17078942Y-49808951D01*
X17209970Y-49721401D01*
X17321401Y-49609970D01*
X17375000Y-49529753D01*
X17428599Y-49609970D01*
X17540030Y-49721401D01*
X17671058Y-49808951D01*
X17816649Y-49869257D01*
X17971207Y-49900000D01*
X18128793Y-49900000D01*
X18283351Y-49869257D01*
X18428942Y-49808951D01*
X18559970Y-49721401D01*
X18671401Y-49609970D01*
X18694968Y-49574700D01*
X18821058Y-49658951D01*
X18966649Y-49719257D01*
X19121207Y-49750000D01*
X19278793Y-49750000D01*
X19433351Y-49719257D01*
X19578942Y-49658951D01*
X19709970Y-49571401D01*
X19821401Y-49459970D01*
X19908951Y-49328942D01*
X19969257Y-49183351D01*
X20000000Y-49028793D01*
X20000000Y-48871207D01*
X19969257Y-48716649D01*
X19908951Y-48571058D01*
X19821401Y-48440030D01*
X19709970Y-48328599D01*
X19578942Y-48241049D01*
X19433351Y-48180743D01*
X19278793Y-48150000D01*
X19121207Y-48150000D01*
X18966649Y-48180743D01*
X18821058Y-48241049D01*
X18690030Y-48328599D01*
X18578599Y-48440030D01*
X18555032Y-48475300D01*
X18428942Y-48391049D01*
X18283351Y-48330743D01*
X18128793Y-48300000D01*
X17971207Y-48300000D01*
X17816649Y-48330743D01*
X17671058Y-48391049D01*
X17540030Y-48478599D01*
X17428599Y-48590030D01*
X17375000Y-48670247D01*
X17321401Y-48590030D01*
X17209970Y-48478599D01*
X17078942Y-48391049D01*
X16933351Y-48330743D01*
X16778793Y-48300000D01*
X16621207Y-48300000D01*
X16466649Y-48330743D01*
X16321058Y-48391049D01*
X16190030Y-48478599D01*
X16078599Y-48590030D01*
X15991049Y-48721058D01*
X15976483Y-48756224D01*
X15878942Y-48691049D01*
X15733351Y-48630743D01*
X15578793Y-48600000D01*
X15421207Y-48600000D01*
X15266649Y-48630743D01*
X15121058Y-48691049D01*
X14990030Y-48778599D01*
X14878599Y-48890030D01*
X14791049Y-49021058D01*
X14730743Y-49166649D01*
X14700000Y-49321207D01*
X14700000Y-49324109D01*
X14578793Y-49300000D01*
X14421207Y-49300000D01*
X14266649Y-49330743D01*
X14121058Y-49391049D01*
X13990030Y-49478599D01*
X13878599Y-49590030D01*
X13791049Y-49721058D01*
X13730743Y-49866649D01*
X13700000Y-50021207D01*
X475000Y-50021207D01*
X475000Y-44500000D01*
X1498065Y-44500000D01*
X1498065Y-46100000D01*
X1505788Y-46178414D01*
X1528660Y-46253814D01*
X1565803Y-46323303D01*
X1615789Y-46384211D01*
X1676697Y-46434197D01*
X1746186Y-46471340D01*
X1821586Y-46494212D01*
X1900000Y-46501935D01*
X3500000Y-46501935D01*
X3578414Y-46494212D01*
X3653814Y-46471340D01*
X3723303Y-46434197D01*
X3784211Y-46384211D01*
X3834197Y-46323303D01*
X3871340Y-46253814D01*
X3880182Y-46224665D01*
X5593533Y-46224665D01*
X5685722Y-46390637D01*
X5908376Y-46470011D01*
X6142238Y-46504423D01*
X6378320Y-46492550D01*
X6607548Y-46434847D01*
X6714278Y-46390637D01*
X6806467Y-46224665D01*
X6200000Y-45618198D01*
X5593533Y-46224665D01*
X3880182Y-46224665D01*
X3894212Y-46178414D01*
X3901935Y-46100000D01*
X3901935Y-45242238D01*
X4995577Y-45242238D01*
X5007450Y-45478320D01*
X5065153Y-45707548D01*
X5109363Y-45814278D01*
X5275335Y-45906467D01*
X5881802Y-45300000D01*
X6518198Y-45300000D01*
X7124665Y-45906467D01*
X7290637Y-45814278D01*
X7370011Y-45591624D01*
X7404423Y-45357762D01*
X7392550Y-45121680D01*
X7334847Y-44892452D01*
X7290637Y-44785722D01*
X7124665Y-44693533D01*
X6518198Y-45300000D01*
X5881802Y-45300000D01*
X5275335Y-44693533D01*
X5109363Y-44785722D01*
X5029989Y-45008376D01*
X4995577Y-45242238D01*
X3901935Y-45242238D01*
X3901935Y-44500000D01*
X3894212Y-44421586D01*
X3880183Y-44375335D01*
X5593533Y-44375335D01*
X6200000Y-44981802D01*
X6806467Y-44375335D01*
X6714278Y-44209363D01*
X6491624Y-44129989D01*
X6257762Y-44095577D01*
X6021680Y-44107450D01*
X5792452Y-44165153D01*
X5685722Y-44209363D01*
X5593533Y-44375335D01*
X3880183Y-44375335D01*
X3871340Y-44346186D01*
X3834197Y-44276697D01*
X3784211Y-44215789D01*
X3723303Y-44165803D01*
X3653814Y-44128660D01*
X3578414Y-44105788D01*
X3500000Y-44098065D01*
X1900000Y-44098065D01*
X1821586Y-44105788D01*
X1746186Y-44128660D01*
X1676697Y-44165803D01*
X1615789Y-44215789D01*
X1565803Y-44276697D01*
X1528660Y-44346186D01*
X1505788Y-44421586D01*
X1498065Y-44500000D01*
X475000Y-44500000D01*
X475000Y-40921207D01*
X5800000Y-40921207D01*
X5800000Y-41078793D01*
X5830743Y-41233351D01*
X5891049Y-41378942D01*
X5978599Y-41509970D01*
X6090030Y-41621401D01*
X6221058Y-41708951D01*
X6366649Y-41769257D01*
X6521207Y-41800000D01*
X6678793Y-41800000D01*
X6833351Y-41769257D01*
X6978942Y-41708951D01*
X7109970Y-41621401D01*
X7221401Y-41509970D01*
X7308951Y-41378942D01*
X7369257Y-41233351D01*
X7400000Y-41078793D01*
X7400000Y-40921207D01*
X7369257Y-40766649D01*
X7308951Y-40621058D01*
X7221401Y-40490030D01*
X7109970Y-40378599D01*
X6978942Y-40291049D01*
X6833351Y-40230743D01*
X6678793Y-40200000D01*
X6521207Y-40200000D01*
X6366649Y-40230743D01*
X6221058Y-40291049D01*
X6090030Y-40378599D01*
X5978599Y-40490030D01*
X5891049Y-40621058D01*
X5830743Y-40766649D01*
X5800000Y-40921207D01*
X475000Y-40921207D01*
X475000Y-39521207D01*
X3900000Y-39521207D01*
X3900000Y-39678793D01*
X3930743Y-39833351D01*
X3991049Y-39978942D01*
X4078599Y-40109970D01*
X4190030Y-40221401D01*
X4321058Y-40308951D01*
X4466649Y-40369257D01*
X4621207Y-40400000D01*
X4778793Y-40400000D01*
X4933351Y-40369257D01*
X5078942Y-40308951D01*
X5209970Y-40221401D01*
X5321401Y-40109970D01*
X5344968Y-40074700D01*
X5471058Y-40158951D01*
X5616649Y-40219257D01*
X5771207Y-40250000D01*
X5928793Y-40250000D01*
X6083351Y-40219257D01*
X6228942Y-40158951D01*
X6359970Y-40071401D01*
X6471401Y-39959970D01*
X6558951Y-39828942D01*
X6619257Y-39683351D01*
X6650000Y-39528793D01*
X6650000Y-39500000D01*
X8600000Y-39500000D01*
X8600000Y-49100000D01*
X8601921Y-49119509D01*
X8607612Y-49138268D01*
X8616853Y-49155557D01*
X8629289Y-49170711D01*
X8644443Y-49183147D01*
X8661732Y-49192388D01*
X8680491Y-49198079D01*
X8700000Y-49200000D01*
X10300000Y-49200000D01*
X10319509Y-49198079D01*
X10338268Y-49192388D01*
X10355557Y-49183147D01*
X10370711Y-49170711D01*
X10383147Y-49155557D01*
X10392388Y-49138268D01*
X10398079Y-49119509D01*
X10400000Y-49100000D01*
X10400000Y-48217645D01*
X13425010Y-48217645D01*
X13425010Y-48375231D01*
X13455753Y-48529789D01*
X13516059Y-48675380D01*
X13603609Y-48806408D01*
X13715040Y-48917839D01*
X13846068Y-49005389D01*
X13991659Y-49065695D01*
X14146217Y-49096438D01*
X14303803Y-49096438D01*
X14458361Y-49065695D01*
X14603952Y-49005389D01*
X14734980Y-48917839D01*
X14846411Y-48806408D01*
X14933961Y-48675380D01*
X14994267Y-48529789D01*
X15025010Y-48375231D01*
X15025010Y-48217645D01*
X14994267Y-48063087D01*
X14933961Y-47917496D01*
X14846411Y-47786468D01*
X14734980Y-47675037D01*
X14603952Y-47587487D01*
X14458361Y-47527181D01*
X14303803Y-47496438D01*
X14146217Y-47496438D01*
X13991659Y-47527181D01*
X13846068Y-47587487D01*
X13715040Y-47675037D01*
X13603609Y-47786468D01*
X13516059Y-47917496D01*
X13455753Y-48063087D01*
X13425010Y-48217645D01*
X10400000Y-48217645D01*
X10400000Y-47645377D01*
X11165850Y-46975258D01*
X11183147Y-46955557D01*
X11192388Y-46938268D01*
X11198079Y-46919509D01*
X11200000Y-46900000D01*
X11200000Y-43196217D01*
X17450000Y-43196217D01*
X17450000Y-43353803D01*
X17480743Y-43508361D01*
X17541049Y-43653952D01*
X17628599Y-43784980D01*
X17740030Y-43896411D01*
X17871058Y-43983961D01*
X18016649Y-44044267D01*
X18171207Y-44075010D01*
X18328793Y-44075010D01*
X18483351Y-44044267D01*
X18628942Y-43983961D01*
X18759970Y-43896411D01*
X18871401Y-43784980D01*
X18958951Y-43653952D01*
X19019257Y-43508361D01*
X19036592Y-43421207D01*
X21900000Y-43421207D01*
X21900000Y-43578793D01*
X21930743Y-43733351D01*
X21991049Y-43878942D01*
X22078599Y-44009970D01*
X22190030Y-44121401D01*
X22321058Y-44208951D01*
X22466649Y-44269257D01*
X22621207Y-44300000D01*
X22778793Y-44300000D01*
X22933351Y-44269257D01*
X23078942Y-44208951D01*
X23209970Y-44121401D01*
X23321401Y-44009970D01*
X23408951Y-43878942D01*
X23469257Y-43733351D01*
X23500000Y-43578793D01*
X23500000Y-43421207D01*
X23700000Y-43421207D01*
X23700000Y-43578793D01*
X23730743Y-43733351D01*
X23791049Y-43878942D01*
X23878599Y-44009970D01*
X23990030Y-44121401D01*
X24121058Y-44208951D01*
X24266649Y-44269257D01*
X24421207Y-44300000D01*
X24578793Y-44300000D01*
X24733351Y-44269257D01*
X24878942Y-44208951D01*
X25009970Y-44121401D01*
X25121401Y-44009970D01*
X25208951Y-43878942D01*
X25269257Y-43733351D01*
X25300000Y-43578793D01*
X25300000Y-43421207D01*
X25269257Y-43266649D01*
X25208951Y-43121058D01*
X25121401Y-42990030D01*
X25031371Y-42900000D01*
X26927192Y-42900000D01*
X26927192Y-46792076D01*
X26928649Y-46809085D01*
X26933861Y-46827983D01*
X26942659Y-46845501D01*
X26954706Y-46860966D01*
X27600000Y-47539940D01*
X27600000Y-49100000D01*
X27601921Y-49119509D01*
X27607612Y-49138268D01*
X27616853Y-49155557D01*
X27629289Y-49170711D01*
X27644443Y-49183147D01*
X27661732Y-49192388D01*
X27680491Y-49198079D01*
X27700000Y-49200000D01*
X29300000Y-49200000D01*
X29319509Y-49198079D01*
X29338268Y-49192388D01*
X29355557Y-49183147D01*
X29370711Y-49170711D01*
X29383147Y-49155557D01*
X29392388Y-49138268D01*
X29398079Y-49119509D01*
X29400000Y-49100000D01*
X29400000Y-46974665D01*
X33193533Y-46974665D01*
X33285722Y-47140637D01*
X33508376Y-47220011D01*
X33742238Y-47254423D01*
X33978320Y-47242550D01*
X34207548Y-47184847D01*
X34314278Y-47140637D01*
X34406467Y-46974665D01*
X33800000Y-46368198D01*
X33193533Y-46974665D01*
X29400000Y-46974665D01*
X29400000Y-45992238D01*
X32595577Y-45992238D01*
X32607450Y-46228320D01*
X32665153Y-46457548D01*
X32709363Y-46564278D01*
X32875335Y-46656467D01*
X33481802Y-46050000D01*
X34118198Y-46050000D01*
X34724665Y-46656467D01*
X34890637Y-46564278D01*
X34970011Y-46341624D01*
X35004423Y-46107762D01*
X34992550Y-45871680D01*
X34934847Y-45642452D01*
X34890637Y-45535722D01*
X34724665Y-45443533D01*
X34118198Y-46050000D01*
X33481802Y-46050000D01*
X32875335Y-45443533D01*
X32709363Y-45535722D01*
X32629989Y-45758376D01*
X32595577Y-45992238D01*
X29400000Y-45992238D01*
X29400000Y-45125335D01*
X33193533Y-45125335D01*
X33800000Y-45731802D01*
X34281802Y-45250000D01*
X36098065Y-45250000D01*
X36098065Y-46850000D01*
X36105788Y-46928414D01*
X36128660Y-47003814D01*
X36165803Y-47073303D01*
X36215789Y-47134211D01*
X36276697Y-47184197D01*
X36346186Y-47221340D01*
X36421586Y-47244212D01*
X36500000Y-47251935D01*
X38100000Y-47251935D01*
X38178414Y-47244212D01*
X38253814Y-47221340D01*
X38323303Y-47184197D01*
X38384211Y-47134211D01*
X38434197Y-47073303D01*
X38471340Y-47003814D01*
X38494212Y-46928414D01*
X38501935Y-46850000D01*
X38501935Y-45250000D01*
X38494212Y-45171586D01*
X38471340Y-45096186D01*
X38434197Y-45026697D01*
X38384211Y-44965789D01*
X38323303Y-44915803D01*
X38253814Y-44878660D01*
X38178414Y-44855788D01*
X38100000Y-44848065D01*
X36500000Y-44848065D01*
X36421586Y-44855788D01*
X36346186Y-44878660D01*
X36276697Y-44915803D01*
X36215789Y-44965789D01*
X36165803Y-45026697D01*
X36128660Y-45096186D01*
X36105788Y-45171586D01*
X36098065Y-45250000D01*
X34281802Y-45250000D01*
X34406467Y-45125335D01*
X34314278Y-44959363D01*
X34091624Y-44879989D01*
X33857762Y-44845577D01*
X33621680Y-44857450D01*
X33392452Y-44915153D01*
X33285722Y-44959363D01*
X33193533Y-45125335D01*
X29400000Y-45125335D01*
X29400000Y-44056207D01*
X30325000Y-44056207D01*
X30325000Y-44213793D01*
X30355743Y-44368351D01*
X30416049Y-44513942D01*
X30503599Y-44644970D01*
X30615030Y-44756401D01*
X30746058Y-44843951D01*
X30891649Y-44904257D01*
X31046207Y-44935000D01*
X31203793Y-44935000D01*
X31358351Y-44904257D01*
X31503942Y-44843951D01*
X31634970Y-44756401D01*
X31746401Y-44644970D01*
X31833951Y-44513942D01*
X31894257Y-44368351D01*
X31925000Y-44213793D01*
X31925000Y-44056207D01*
X31894257Y-43901649D01*
X31833951Y-43756058D01*
X31746401Y-43625030D01*
X31634970Y-43513599D01*
X31503942Y-43426049D01*
X31358351Y-43365743D01*
X31203793Y-43335000D01*
X31046207Y-43335000D01*
X30891649Y-43365743D01*
X30746058Y-43426049D01*
X30615030Y-43513599D01*
X30503599Y-43625030D01*
X30416049Y-43756058D01*
X30355743Y-43901649D01*
X30325000Y-44056207D01*
X29400000Y-44056207D01*
X29400000Y-39600000D01*
X29398079Y-39580491D01*
X29392388Y-39561732D01*
X29383147Y-39544443D01*
X29370711Y-39529289D01*
X29355557Y-39516853D01*
X29338268Y-39507612D01*
X29319509Y-39501921D01*
X29300000Y-39500000D01*
X27727192Y-39500000D01*
X27707683Y-39501921D01*
X27688924Y-39507612D01*
X27671635Y-39516853D01*
X27656481Y-39529289D01*
X27644045Y-39544443D01*
X27634804Y-39561732D01*
X27629113Y-39580491D01*
X27627192Y-39600000D01*
X27627192Y-42348538D01*
X26969068Y-42818627D01*
X26956481Y-42829289D01*
X26944045Y-42844443D01*
X26934804Y-42861732D01*
X26929113Y-42880491D01*
X26927192Y-42900000D01*
X25031371Y-42900000D01*
X25009970Y-42878599D01*
X24878942Y-42791049D01*
X24733351Y-42730743D01*
X24578793Y-42700000D01*
X24421207Y-42700000D01*
X24266649Y-42730743D01*
X24121058Y-42791049D01*
X23990030Y-42878599D01*
X23878599Y-42990030D01*
X23791049Y-43121058D01*
X23730743Y-43266649D01*
X23700000Y-43421207D01*
X23500000Y-43421207D01*
X23469257Y-43266649D01*
X23408951Y-43121058D01*
X23321401Y-42990030D01*
X23209970Y-42878599D01*
X23078942Y-42791049D01*
X22933351Y-42730743D01*
X22778793Y-42700000D01*
X22621207Y-42700000D01*
X22466649Y-42730743D01*
X22321058Y-42791049D01*
X22190030Y-42878599D01*
X22078599Y-42990030D01*
X21991049Y-43121058D01*
X21930743Y-43266649D01*
X21900000Y-43421207D01*
X19036592Y-43421207D01*
X19050000Y-43353803D01*
X19050000Y-43196217D01*
X19019257Y-43041659D01*
X18958951Y-42896068D01*
X18871401Y-42765040D01*
X18759970Y-42653609D01*
X18628942Y-42566059D01*
X18483351Y-42505753D01*
X18328793Y-42475010D01*
X18171207Y-42475010D01*
X18016649Y-42505753D01*
X17871058Y-42566059D01*
X17740030Y-42653609D01*
X17628599Y-42765040D01*
X17541049Y-42896068D01*
X17480743Y-43041659D01*
X17450000Y-43196217D01*
X11200000Y-43196217D01*
X11200000Y-42700000D01*
X11198079Y-42680491D01*
X11192388Y-42661732D01*
X11183147Y-42644443D01*
X11170711Y-42629289D01*
X10400000Y-41858578D01*
X10400000Y-39500000D01*
X10398079Y-39480491D01*
X10392388Y-39461732D01*
X10383147Y-39444443D01*
X10370711Y-39429289D01*
X10355557Y-39416853D01*
X10338268Y-39407612D01*
X10319509Y-39401921D01*
X10300000Y-39400000D01*
X8700000Y-39400000D01*
X8680491Y-39401921D01*
X8661732Y-39407612D01*
X8644443Y-39416853D01*
X8629289Y-39429289D01*
X8616853Y-39444443D01*
X8607612Y-39461732D01*
X8601921Y-39480491D01*
X8600000Y-39500000D01*
X6650000Y-39500000D01*
X6650000Y-39392461D01*
X6719134Y-39323327D01*
X17702120Y-39323327D01*
X17702120Y-39480913D01*
X17732863Y-39635471D01*
X17793169Y-39781062D01*
X17880719Y-39912090D01*
X17992150Y-40023521D01*
X18123178Y-40111071D01*
X18268769Y-40171377D01*
X18423327Y-40202120D01*
X18580913Y-40202120D01*
X18735471Y-40171377D01*
X18881062Y-40111071D01*
X19012090Y-40023521D01*
X19123521Y-39912090D01*
X19211071Y-39781062D01*
X19271377Y-39635471D01*
X19302120Y-39480913D01*
X19302120Y-39323327D01*
X19271377Y-39168769D01*
X19211071Y-39023178D01*
X19123521Y-38892150D01*
X19012090Y-38780719D01*
X18881062Y-38693169D01*
X18735471Y-38632863D01*
X18580913Y-38602120D01*
X18423327Y-38602120D01*
X18268769Y-38632863D01*
X18123178Y-38693169D01*
X17992150Y-38780719D01*
X17880719Y-38892150D01*
X17793169Y-39023178D01*
X17732863Y-39168769D01*
X17702120Y-39323327D01*
X6719134Y-39323327D01*
X9271254Y-36771207D01*
X13850000Y-36771207D01*
X13850000Y-36928793D01*
X13880743Y-37083351D01*
X13941049Y-37228942D01*
X14028599Y-37359970D01*
X14093629Y-37425000D01*
X14028599Y-37490030D01*
X13941049Y-37621058D01*
X13880743Y-37766649D01*
X13850000Y-37921207D01*
X13850000Y-38078793D01*
X13880743Y-38233351D01*
X13941049Y-38378942D01*
X14028599Y-38509970D01*
X14140030Y-38621401D01*
X14271058Y-38708951D01*
X14416649Y-38769257D01*
X14571207Y-38800000D01*
X14728793Y-38800000D01*
X14883351Y-38769257D01*
X15028942Y-38708951D01*
X15159970Y-38621401D01*
X15271401Y-38509970D01*
X15358951Y-38378942D01*
X15419257Y-38233351D01*
X15450000Y-38078793D01*
X15450000Y-37921207D01*
X15419257Y-37766649D01*
X15358951Y-37621058D01*
X15271401Y-37490030D01*
X15206371Y-37425000D01*
X15271401Y-37359970D01*
X15358951Y-37228942D01*
X15419257Y-37083351D01*
X15450000Y-36928793D01*
X15450000Y-36771207D01*
X15419257Y-36616649D01*
X15358951Y-36471058D01*
X15292233Y-36371207D01*
X25350000Y-36371207D01*
X25350000Y-36528793D01*
X25380743Y-36683351D01*
X25441049Y-36828942D01*
X25528599Y-36959970D01*
X25640030Y-37071401D01*
X25771058Y-37158951D01*
X25916649Y-37219257D01*
X26071207Y-37250000D01*
X26228793Y-37250000D01*
X26383351Y-37219257D01*
X26528942Y-37158951D01*
X26659970Y-37071401D01*
X26771401Y-36959970D01*
X26858951Y-36828942D01*
X26919257Y-36683351D01*
X26950000Y-36528793D01*
X26950000Y-36371207D01*
X26919257Y-36216649D01*
X26879724Y-36121207D01*
X27100000Y-36121207D01*
X27100000Y-36278793D01*
X27130743Y-36433351D01*
X27191049Y-36578942D01*
X27278599Y-36709970D01*
X27390030Y-36821401D01*
X27521058Y-36908951D01*
X27666649Y-36969257D01*
X27821207Y-37000000D01*
X27978793Y-37000000D01*
X28133351Y-36969257D01*
X28278942Y-36908951D01*
X28409970Y-36821401D01*
X28521401Y-36709970D01*
X28608951Y-36578942D01*
X28669257Y-36433351D01*
X28700000Y-36278793D01*
X28700000Y-36121207D01*
X28669257Y-35966649D01*
X28608951Y-35821058D01*
X28521401Y-35690030D01*
X28409970Y-35578599D01*
X28278942Y-35491049D01*
X28133351Y-35430743D01*
X27978793Y-35400000D01*
X27821207Y-35400000D01*
X27666649Y-35430743D01*
X27521058Y-35491049D01*
X27390030Y-35578599D01*
X27278599Y-35690030D01*
X27191049Y-35821058D01*
X27130743Y-35966649D01*
X27100000Y-36121207D01*
X26879724Y-36121207D01*
X26858951Y-36071058D01*
X26771401Y-35940030D01*
X26659970Y-35828599D01*
X26528942Y-35741049D01*
X26383351Y-35680743D01*
X26228793Y-35650000D01*
X26071207Y-35650000D01*
X25916649Y-35680743D01*
X25771058Y-35741049D01*
X25640030Y-35828599D01*
X25528599Y-35940030D01*
X25441049Y-36071058D01*
X25380743Y-36216649D01*
X25350000Y-36371207D01*
X15292233Y-36371207D01*
X15271401Y-36340030D01*
X15159970Y-36228599D01*
X15028942Y-36141049D01*
X14883351Y-36080743D01*
X14728793Y-36050000D01*
X14571207Y-36050000D01*
X14416649Y-36080743D01*
X14271058Y-36141049D01*
X14140030Y-36228599D01*
X14028599Y-36340030D01*
X13941049Y-36471058D01*
X13880743Y-36616649D01*
X13850000Y-36771207D01*
X9271254Y-36771207D01*
X10852996Y-35189466D01*
X10873027Y-35173027D01*
X10938633Y-35093086D01*
X10987383Y-35001881D01*
X11017403Y-34902918D01*
X11025000Y-34825788D01*
X11025000Y-34825781D01*
X11027539Y-34800001D01*
X11025000Y-34774221D01*
X11025000Y-33421207D01*
X32500000Y-33421207D01*
X32500000Y-33578793D01*
X32530743Y-33733351D01*
X32591049Y-33878942D01*
X32671937Y-34000000D01*
X32591049Y-34121058D01*
X32530743Y-34266649D01*
X32500000Y-34421207D01*
X32500000Y-34578793D01*
X32530743Y-34733351D01*
X32591049Y-34878942D01*
X32678599Y-35009970D01*
X32790030Y-35121401D01*
X32921058Y-35208951D01*
X33066649Y-35269257D01*
X33221207Y-35300000D01*
X33378793Y-35300000D01*
X33533351Y-35269257D01*
X33678942Y-35208951D01*
X33809970Y-35121401D01*
X33921401Y-35009970D01*
X34008951Y-34878942D01*
X34069257Y-34733351D01*
X34100000Y-34578793D01*
X34100000Y-34421207D01*
X34069257Y-34266649D01*
X34008951Y-34121058D01*
X33928063Y-34000000D01*
X34008951Y-33878942D01*
X34069257Y-33733351D01*
X34100000Y-33578793D01*
X34100000Y-33421207D01*
X35800000Y-33421207D01*
X35800000Y-33578793D01*
X35830743Y-33733351D01*
X35891049Y-33878942D01*
X35971937Y-34000000D01*
X35891049Y-34121058D01*
X35830743Y-34266649D01*
X35800000Y-34421207D01*
X35800000Y-34578793D01*
X35830743Y-34733351D01*
X35891049Y-34878942D01*
X35978599Y-35009970D01*
X36090030Y-35121401D01*
X36221058Y-35208951D01*
X36366649Y-35269257D01*
X36521207Y-35300000D01*
X36678793Y-35300000D01*
X36833351Y-35269257D01*
X36978942Y-35208951D01*
X37109970Y-35121401D01*
X37221401Y-35009970D01*
X37308951Y-34878942D01*
X37369257Y-34733351D01*
X37400000Y-34578793D01*
X37400000Y-34421207D01*
X37369257Y-34266649D01*
X37308951Y-34121058D01*
X37228063Y-34000000D01*
X37308951Y-33878942D01*
X37369257Y-33733351D01*
X37400000Y-33578793D01*
X37400000Y-33421207D01*
X37369257Y-33266649D01*
X37308951Y-33121058D01*
X37221401Y-32990030D01*
X37109970Y-32878599D01*
X36978942Y-32791049D01*
X36833351Y-32730743D01*
X36678793Y-32700000D01*
X36521207Y-32700000D01*
X36366649Y-32730743D01*
X36221058Y-32791049D01*
X36090030Y-32878599D01*
X35978599Y-32990030D01*
X35891049Y-33121058D01*
X35830743Y-33266649D01*
X35800000Y-33421207D01*
X34100000Y-33421207D01*
X34069257Y-33266649D01*
X34008951Y-33121058D01*
X33921401Y-32990030D01*
X33809970Y-32878599D01*
X33678942Y-32791049D01*
X33533351Y-32730743D01*
X33378793Y-32700000D01*
X33221207Y-32700000D01*
X33066649Y-32730743D01*
X32921058Y-32791049D01*
X32790030Y-32878599D01*
X32678599Y-32990030D01*
X32591049Y-33121058D01*
X32530743Y-33266649D01*
X32500000Y-33421207D01*
X11025000Y-33421207D01*
X11025000Y-32467324D01*
X11089218Y-32403106D01*
X11176768Y-32272078D01*
X11237074Y-32126487D01*
X11267817Y-31971929D01*
X11267817Y-31814343D01*
X11237074Y-31659785D01*
X11176768Y-31514194D01*
X11089218Y-31383166D01*
X10977787Y-31271735D01*
X10846759Y-31184185D01*
X10701168Y-31123879D01*
X10546610Y-31093136D01*
X10389024Y-31093136D01*
X10234466Y-31123879D01*
X10088875Y-31184185D01*
X9957847Y-31271735D01*
X9955478Y-31274105D01*
X9909972Y-31228599D01*
X9778944Y-31141049D01*
X9633353Y-31080743D01*
X9478795Y-31050000D01*
X9321209Y-31050000D01*
X9166651Y-31080743D01*
X9021060Y-31141049D01*
X8890032Y-31228599D01*
X8778601Y-31340030D01*
X8691051Y-31471058D01*
X8675001Y-31509806D01*
X8658951Y-31471058D01*
X8571401Y-31340030D01*
X8459970Y-31228599D01*
X8328942Y-31141049D01*
X8183351Y-31080743D01*
X8028793Y-31050000D01*
X7871207Y-31050000D01*
X7716649Y-31080743D01*
X7571058Y-31141049D01*
X7440030Y-31228599D01*
X7328599Y-31340030D01*
X7241049Y-31471058D01*
X7180743Y-31616649D01*
X7150000Y-31771207D01*
X7150000Y-31928793D01*
X7180743Y-32083351D01*
X7241049Y-32228942D01*
X7328599Y-32359970D01*
X7440030Y-32471401D01*
X7571058Y-32558951D01*
X7716649Y-32619257D01*
X7871207Y-32650000D01*
X8028793Y-32650000D01*
X8183351Y-32619257D01*
X8328942Y-32558951D01*
X8459970Y-32471401D01*
X8571401Y-32359970D01*
X8658951Y-32228942D01*
X8675001Y-32190194D01*
X8691051Y-32228942D01*
X8778601Y-32359970D01*
X8875002Y-32456371D01*
X8875003Y-34559531D01*
X4747009Y-38687526D01*
X4726972Y-38703970D01*
X4661366Y-38783911D01*
X4652766Y-38800000D01*
X4621207Y-38800000D01*
X4466649Y-38830743D01*
X4321058Y-38891049D01*
X4190030Y-38978599D01*
X4078599Y-39090030D01*
X3991049Y-39221058D01*
X3930743Y-39366649D01*
X3900000Y-39521207D01*
X475000Y-39521207D01*
X475000Y-33321207D01*
X2600000Y-33321207D01*
X2600000Y-33478793D01*
X2630743Y-33633351D01*
X2691049Y-33778942D01*
X2778599Y-33909970D01*
X2818629Y-33950000D01*
X2778599Y-33990030D01*
X2691049Y-34121058D01*
X2630743Y-34266649D01*
X2600000Y-34421207D01*
X2600000Y-34578793D01*
X2630743Y-34733351D01*
X2691049Y-34878942D01*
X2778599Y-35009970D01*
X2890030Y-35121401D01*
X3021058Y-35208951D01*
X3166649Y-35269257D01*
X3321207Y-35300000D01*
X3478793Y-35300000D01*
X3633351Y-35269257D01*
X3778942Y-35208951D01*
X3909970Y-35121401D01*
X4021401Y-35009970D01*
X4108951Y-34878942D01*
X4169257Y-34733351D01*
X4200000Y-34578793D01*
X4200000Y-34421207D01*
X4169257Y-34266649D01*
X4108951Y-34121058D01*
X4021401Y-33990030D01*
X3981371Y-33950000D01*
X4021401Y-33909970D01*
X4108951Y-33778942D01*
X4169257Y-33633351D01*
X4200000Y-33478793D01*
X4200000Y-33421207D01*
X5900000Y-33421207D01*
X5900000Y-33578793D01*
X5930743Y-33733351D01*
X5991049Y-33878942D01*
X6071937Y-34000000D01*
X5991049Y-34121058D01*
X5930743Y-34266649D01*
X5900000Y-34421207D01*
X5900000Y-34578793D01*
X5930743Y-34733351D01*
X5991049Y-34878942D01*
X6078599Y-35009970D01*
X6190030Y-35121401D01*
X6321058Y-35208951D01*
X6466649Y-35269257D01*
X6621207Y-35300000D01*
X6778793Y-35300000D01*
X6933351Y-35269257D01*
X7078942Y-35208951D01*
X7209970Y-35121401D01*
X7321401Y-35009970D01*
X7408951Y-34878942D01*
X7469257Y-34733351D01*
X7500000Y-34578793D01*
X7500000Y-34421207D01*
X7469257Y-34266649D01*
X7408951Y-34121058D01*
X7328063Y-34000000D01*
X7408951Y-33878942D01*
X7469257Y-33733351D01*
X7500000Y-33578793D01*
X7500000Y-33421207D01*
X7469257Y-33266649D01*
X7408951Y-33121058D01*
X7321401Y-32990030D01*
X7209970Y-32878599D01*
X7078942Y-32791049D01*
X6933351Y-32730743D01*
X6778793Y-32700000D01*
X6621207Y-32700000D01*
X6466649Y-32730743D01*
X6321058Y-32791049D01*
X6190030Y-32878599D01*
X6078599Y-32990030D01*
X5991049Y-33121058D01*
X5930743Y-33266649D01*
X5900000Y-33421207D01*
X4200000Y-33421207D01*
X4200000Y-33321207D01*
X4169257Y-33166649D01*
X4108951Y-33021058D01*
X4021401Y-32890030D01*
X3909970Y-32778599D01*
X3778942Y-32691049D01*
X3633351Y-32630743D01*
X3478793Y-32600000D01*
X3321207Y-32600000D01*
X3166649Y-32630743D01*
X3021058Y-32691049D01*
X2890030Y-32778599D01*
X2778599Y-32890030D01*
X2691049Y-33021058D01*
X2630743Y-33166649D01*
X2600000Y-33321207D01*
X475000Y-33321207D01*
X475000Y-27971207D01*
X15850000Y-27971207D01*
X15850000Y-28128793D01*
X15880743Y-28283351D01*
X15941049Y-28428942D01*
X16028599Y-28559970D01*
X16140030Y-28671401D01*
X16271058Y-28758951D01*
X16416649Y-28819257D01*
X16571207Y-28850000D01*
X16728793Y-28850000D01*
X16883351Y-28819257D01*
X17028942Y-28758951D01*
X17159970Y-28671401D01*
X17271401Y-28559970D01*
X17358951Y-28428942D01*
X17362154Y-28421207D01*
X32100000Y-28421207D01*
X32100000Y-28578793D01*
X32130743Y-28733351D01*
X32191049Y-28878942D01*
X32278599Y-29009970D01*
X32390030Y-29121401D01*
X32521058Y-29208951D01*
X32666649Y-29269257D01*
X32821207Y-29300000D01*
X32978793Y-29300000D01*
X33133351Y-29269257D01*
X33278942Y-29208951D01*
X33409970Y-29121401D01*
X33521401Y-29009970D01*
X33608951Y-28878942D01*
X33669257Y-28733351D01*
X33700000Y-28578793D01*
X33700000Y-28421207D01*
X33669257Y-28266649D01*
X33608951Y-28121058D01*
X33521401Y-27990030D01*
X33409970Y-27878599D01*
X33278942Y-27791049D01*
X33133351Y-27730743D01*
X32978793Y-27700000D01*
X32821207Y-27700000D01*
X32666649Y-27730743D01*
X32521058Y-27791049D01*
X32390030Y-27878599D01*
X32278599Y-27990030D01*
X32191049Y-28121058D01*
X32130743Y-28266649D01*
X32100000Y-28421207D01*
X17362154Y-28421207D01*
X17419257Y-28283351D01*
X17450000Y-28128793D01*
X17450000Y-27971207D01*
X17419257Y-27816649D01*
X17358951Y-27671058D01*
X17271401Y-27540030D01*
X17159970Y-27428599D01*
X17028942Y-27341049D01*
X16883351Y-27280743D01*
X16728793Y-27250000D01*
X16571207Y-27250000D01*
X16416649Y-27280743D01*
X16271058Y-27341049D01*
X16140030Y-27428599D01*
X16028599Y-27540030D01*
X15941049Y-27671058D01*
X15880743Y-27816649D01*
X15850000Y-27971207D01*
X475000Y-27971207D01*
X475000Y-23621207D01*
X32200000Y-23621207D01*
X32200000Y-23778793D01*
X32230743Y-23933351D01*
X32291049Y-24078942D01*
X32378599Y-24209970D01*
X32490030Y-24321401D01*
X32621058Y-24408951D01*
X32766649Y-24469257D01*
X32921207Y-24500000D01*
X33078793Y-24500000D01*
X33233351Y-24469257D01*
X33378942Y-24408951D01*
X33509970Y-24321401D01*
X33621401Y-24209970D01*
X33708951Y-24078942D01*
X33769257Y-23933351D01*
X33800000Y-23778793D01*
X33800000Y-23621207D01*
X33769257Y-23466649D01*
X33708951Y-23321058D01*
X33621401Y-23190030D01*
X33509970Y-23078599D01*
X33378942Y-22991049D01*
X33233351Y-22930743D01*
X33078793Y-22900000D01*
X32921207Y-22900000D01*
X32766649Y-22930743D01*
X32621058Y-22991049D01*
X32490030Y-23078599D01*
X32378599Y-23190030D01*
X32291049Y-23321058D01*
X32230743Y-23466649D01*
X32200000Y-23621207D01*
X475000Y-23621207D01*
X475000Y-20021207D01*
X23400000Y-20021207D01*
X23400000Y-20178793D01*
X23430743Y-20333351D01*
X23491049Y-20478942D01*
X23578599Y-20609970D01*
X23690030Y-20721401D01*
X23821058Y-20808951D01*
X23966649Y-20869257D01*
X24121207Y-20900000D01*
X24278793Y-20900000D01*
X24433351Y-20869257D01*
X24578942Y-20808951D01*
X24709970Y-20721401D01*
X24821401Y-20609970D01*
X24908951Y-20478942D01*
X24969257Y-20333351D01*
X25000000Y-20178793D01*
X25000000Y-20021207D01*
X24969257Y-19866649D01*
X24908951Y-19721058D01*
X24821401Y-19590030D01*
X24709970Y-19478599D01*
X24578942Y-19391049D01*
X24433351Y-19330743D01*
X24278793Y-19300000D01*
X24121207Y-19300000D01*
X23966649Y-19330743D01*
X23821058Y-19391049D01*
X23690030Y-19478599D01*
X23578599Y-19590030D01*
X23491049Y-19721058D01*
X23430743Y-19866649D01*
X23400000Y-20021207D01*
X475000Y-20021207D01*
X475000Y-18871207D01*
X28900000Y-18871207D01*
X28900000Y-19028793D01*
X28930743Y-19183351D01*
X28991049Y-19328942D01*
X29078599Y-19459970D01*
X29190030Y-19571401D01*
X29321058Y-19658951D01*
X29466649Y-19719257D01*
X29621207Y-19750000D01*
X29778793Y-19750000D01*
X29933351Y-19719257D01*
X30078942Y-19658951D01*
X30209970Y-19571401D01*
X30321401Y-19459970D01*
X30408951Y-19328942D01*
X30469257Y-19183351D01*
X30469952Y-19179859D01*
X30571207Y-19200000D01*
X30728793Y-19200000D01*
X30883351Y-19169257D01*
X31028942Y-19108951D01*
X31159970Y-19021401D01*
X31271401Y-18909970D01*
X31358951Y-18778942D01*
X31419257Y-18633351D01*
X31450000Y-18478793D01*
X31450000Y-18321207D01*
X31419257Y-18166649D01*
X31358951Y-18021058D01*
X31271401Y-17890030D01*
X31159970Y-17778599D01*
X31028942Y-17691049D01*
X30883351Y-17630743D01*
X30728793Y-17600000D01*
X30571207Y-17600000D01*
X30416649Y-17630743D01*
X30271058Y-17691049D01*
X30140030Y-17778599D01*
X30028599Y-17890030D01*
X29941049Y-18021058D01*
X29880743Y-18166649D01*
X29880048Y-18170141D01*
X29778793Y-18150000D01*
X29621207Y-18150000D01*
X29466649Y-18180743D01*
X29321058Y-18241049D01*
X29190030Y-18328599D01*
X29078599Y-18440030D01*
X28991049Y-18571058D01*
X28930743Y-18716649D01*
X28900000Y-18871207D01*
X475000Y-18871207D01*
X475000Y-16471203D01*
X13425010Y-16471203D01*
X13425010Y-16628789D01*
X13455753Y-16783347D01*
X13516059Y-16928938D01*
X13603609Y-17059966D01*
X13715040Y-17171397D01*
X13846068Y-17258947D01*
X13991659Y-17319253D01*
X14146217Y-17349996D01*
X14303803Y-17349996D01*
X14458361Y-17319253D01*
X14603952Y-17258947D01*
X14734980Y-17171397D01*
X14846411Y-17059966D01*
X14933961Y-16928938D01*
X14994267Y-16783347D01*
X15025010Y-16628789D01*
X15025010Y-16621207D01*
X19000000Y-16621207D01*
X19000000Y-16778793D01*
X19030743Y-16933351D01*
X19091049Y-17078942D01*
X19178599Y-17209970D01*
X19290030Y-17321401D01*
X19421058Y-17408951D01*
X19566649Y-17469257D01*
X19721207Y-17500000D01*
X19878793Y-17500000D01*
X20033351Y-17469257D01*
X20178942Y-17408951D01*
X20309970Y-17321401D01*
X20421401Y-17209970D01*
X20508951Y-17078942D01*
X20569257Y-16933351D01*
X20600000Y-16778793D01*
X20600000Y-16621207D01*
X20569257Y-16466649D01*
X20530760Y-16373707D01*
X21447500Y-16373707D01*
X21447500Y-16531293D01*
X21478243Y-16685851D01*
X21538549Y-16831442D01*
X21626099Y-16962470D01*
X21737530Y-17073901D01*
X21868558Y-17161451D01*
X22014149Y-17221757D01*
X22168707Y-17252500D01*
X22326293Y-17252500D01*
X22480851Y-17221757D01*
X22626442Y-17161451D01*
X22757470Y-17073901D01*
X22868901Y-16962470D01*
X22956451Y-16831442D01*
X23016757Y-16685851D01*
X23029615Y-16621207D01*
X25500000Y-16621207D01*
X25500000Y-16778793D01*
X25530743Y-16933351D01*
X25591049Y-17078942D01*
X25678599Y-17209970D01*
X25790030Y-17321401D01*
X25921058Y-17408951D01*
X26066649Y-17469257D01*
X26221207Y-17500000D01*
X26378793Y-17500000D01*
X26533351Y-17469257D01*
X26678942Y-17408951D01*
X26809970Y-17321401D01*
X26921401Y-17209970D01*
X27008951Y-17078942D01*
X27069257Y-16933351D01*
X27092913Y-16814420D01*
X27150714Y-16953963D01*
X27238264Y-17084991D01*
X27349695Y-17196422D01*
X27480723Y-17283972D01*
X27626314Y-17344278D01*
X27780872Y-17375021D01*
X27938458Y-17375021D01*
X28093016Y-17344278D01*
X28238607Y-17283972D01*
X28369635Y-17196422D01*
X28481066Y-17084991D01*
X28568616Y-16953963D01*
X28628922Y-16808372D01*
X28659665Y-16653814D01*
X28659665Y-16496228D01*
X28628922Y-16341670D01*
X28568616Y-16196079D01*
X28481066Y-16065051D01*
X28369635Y-15953620D01*
X28238607Y-15866070D01*
X28093016Y-15805764D01*
X27938458Y-15775021D01*
X27780872Y-15775021D01*
X27626314Y-15805764D01*
X27480723Y-15866070D01*
X27349695Y-15953620D01*
X27238264Y-16065051D01*
X27150714Y-16196079D01*
X27090408Y-16341670D01*
X27066752Y-16460601D01*
X27008951Y-16321058D01*
X26921401Y-16190030D01*
X26809970Y-16078599D01*
X26678942Y-15991049D01*
X26533351Y-15930743D01*
X26378793Y-15900000D01*
X26221207Y-15900000D01*
X26066649Y-15930743D01*
X25921058Y-15991049D01*
X25790030Y-16078599D01*
X25678599Y-16190030D01*
X25591049Y-16321058D01*
X25530743Y-16466649D01*
X25500000Y-16621207D01*
X23029615Y-16621207D01*
X23047500Y-16531293D01*
X23047500Y-16373707D01*
X23016757Y-16219149D01*
X22956451Y-16073558D01*
X22868901Y-15942530D01*
X22757470Y-15831099D01*
X22626442Y-15743549D01*
X22480851Y-15683243D01*
X22326293Y-15652500D01*
X22168707Y-15652500D01*
X22014149Y-15683243D01*
X21868558Y-15743549D01*
X21737530Y-15831099D01*
X21626099Y-15942530D01*
X21538549Y-16073558D01*
X21478243Y-16219149D01*
X21447500Y-16373707D01*
X20530760Y-16373707D01*
X20508951Y-16321058D01*
X20421401Y-16190030D01*
X20309970Y-16078599D01*
X20178942Y-15991049D01*
X20033351Y-15930743D01*
X19878793Y-15900000D01*
X19721207Y-15900000D01*
X19566649Y-15930743D01*
X19421058Y-15991049D01*
X19290030Y-16078599D01*
X19178599Y-16190030D01*
X19091049Y-16321058D01*
X19030743Y-16466649D01*
X19000000Y-16621207D01*
X15025010Y-16621207D01*
X15025010Y-16471203D01*
X14994267Y-16316645D01*
X14933961Y-16171054D01*
X14846411Y-16040026D01*
X14734980Y-15928595D01*
X14603952Y-15841045D01*
X14458361Y-15780739D01*
X14303803Y-15749996D01*
X14146217Y-15749996D01*
X13991659Y-15780739D01*
X13846068Y-15841045D01*
X13715040Y-15928595D01*
X13603609Y-16040026D01*
X13516059Y-16171054D01*
X13455753Y-16316645D01*
X13425010Y-16471203D01*
X475000Y-16471203D01*
X475000Y-15621207D01*
X23600000Y-15621207D01*
X23600000Y-15778793D01*
X23630743Y-15933351D01*
X23691049Y-16078942D01*
X23778599Y-16209970D01*
X23890030Y-16321401D01*
X24021058Y-16408951D01*
X24166649Y-16469257D01*
X24321207Y-16500000D01*
X24478793Y-16500000D01*
X24633351Y-16469257D01*
X24778942Y-16408951D01*
X24909970Y-16321401D01*
X25021401Y-16209970D01*
X25108951Y-16078942D01*
X25169257Y-15933351D01*
X25200000Y-15778793D01*
X25200000Y-15621207D01*
X25169257Y-15466649D01*
X25108951Y-15321058D01*
X25021401Y-15190030D01*
X24909970Y-15078599D01*
X24778942Y-14991049D01*
X24633351Y-14930743D01*
X24478793Y-14900000D01*
X24321207Y-14900000D01*
X24166649Y-14930743D01*
X24021058Y-14991049D01*
X23890030Y-15078599D01*
X23778599Y-15190030D01*
X23691049Y-15321058D01*
X23630743Y-15466649D01*
X23600000Y-15621207D01*
X475000Y-15621207D01*
X475000Y-14471207D01*
X17050000Y-14471207D01*
X17050000Y-14628793D01*
X17080743Y-14783351D01*
X17141049Y-14928942D01*
X17228599Y-15059970D01*
X17340030Y-15171401D01*
X17471058Y-15258951D01*
X17616649Y-15319257D01*
X17771207Y-15350000D01*
X17928793Y-15350000D01*
X18083351Y-15319257D01*
X18228942Y-15258951D01*
X18359970Y-15171401D01*
X18471401Y-15059970D01*
X18558951Y-14928942D01*
X18619257Y-14783351D01*
X18650000Y-14628793D01*
X18650000Y-14471207D01*
X18640055Y-14421207D01*
X22400000Y-14421207D01*
X22400000Y-14578793D01*
X22430743Y-14733351D01*
X22491049Y-14878942D01*
X22578599Y-15009970D01*
X22690030Y-15121401D01*
X22821058Y-15208951D01*
X22966649Y-15269257D01*
X23121207Y-15300000D01*
X23278793Y-15300000D01*
X23433351Y-15269257D01*
X23578942Y-15208951D01*
X23709970Y-15121401D01*
X23821401Y-15009970D01*
X23908951Y-14878942D01*
X23969257Y-14733351D01*
X24000000Y-14578793D01*
X24000000Y-14421207D01*
X23969257Y-14266649D01*
X23908951Y-14121058D01*
X23821401Y-13990030D01*
X23709970Y-13878599D01*
X23578942Y-13791049D01*
X23474197Y-13747662D01*
X26425001Y-13747662D01*
X26425001Y-13905248D01*
X26455744Y-14059806D01*
X26516050Y-14205397D01*
X26603600Y-14336425D01*
X26715031Y-14447856D01*
X26846059Y-14535406D01*
X26991650Y-14595712D01*
X27146208Y-14626455D01*
X27303794Y-14626455D01*
X27458352Y-14595712D01*
X27603943Y-14535406D01*
X27734971Y-14447856D01*
X27846402Y-14336425D01*
X27933952Y-14205397D01*
X27994258Y-14059806D01*
X28025001Y-13905248D01*
X28025001Y-13747662D01*
X27994258Y-13593104D01*
X27933952Y-13447513D01*
X27846402Y-13316485D01*
X27734971Y-13205054D01*
X27603943Y-13117504D01*
X27458352Y-13057198D01*
X27303794Y-13026455D01*
X27146208Y-13026455D01*
X26991650Y-13057198D01*
X26846059Y-13117504D01*
X26715031Y-13205054D01*
X26603600Y-13316485D01*
X26516050Y-13447513D01*
X26455744Y-13593104D01*
X26425001Y-13747662D01*
X23474197Y-13747662D01*
X23433351Y-13730743D01*
X23278793Y-13700000D01*
X23121207Y-13700000D01*
X22966649Y-13730743D01*
X22821058Y-13791049D01*
X22690030Y-13878599D01*
X22578599Y-13990030D01*
X22491049Y-14121058D01*
X22430743Y-14266649D01*
X22400000Y-14421207D01*
X18640055Y-14421207D01*
X18619257Y-14316649D01*
X18558951Y-14171058D01*
X18471401Y-14040030D01*
X18359970Y-13928599D01*
X18228942Y-13841049D01*
X18083351Y-13780743D01*
X17928793Y-13750000D01*
X17771207Y-13750000D01*
X17616649Y-13780743D01*
X17471058Y-13841049D01*
X17340030Y-13928599D01*
X17228599Y-14040030D01*
X17141049Y-14171058D01*
X17080743Y-14316649D01*
X17050000Y-14471207D01*
X475000Y-14471207D01*
X475000Y-13122747D01*
X10725010Y-13122747D01*
X10725010Y-13280333D01*
X10755753Y-13434891D01*
X10816059Y-13580482D01*
X10903609Y-13711510D01*
X11015040Y-13822941D01*
X11146068Y-13910491D01*
X11291659Y-13970797D01*
X11446217Y-14001540D01*
X11603803Y-14001540D01*
X11758361Y-13970797D01*
X11903952Y-13910491D01*
X12034980Y-13822941D01*
X12146411Y-13711510D01*
X12196465Y-13636599D01*
X12205764Y-13683351D01*
X12266070Y-13828942D01*
X12353620Y-13959970D01*
X12465051Y-14071401D01*
X12596079Y-14158951D01*
X12741670Y-14219257D01*
X12896228Y-14250000D01*
X13053814Y-14250000D01*
X13208372Y-14219257D01*
X13353963Y-14158951D01*
X13484991Y-14071401D01*
X13596422Y-13959970D01*
X13683972Y-13828942D01*
X13744278Y-13683351D01*
X13775021Y-13528793D01*
X13775021Y-13371207D01*
X13744278Y-13216649D01*
X13683972Y-13071058D01*
X13596422Y-12940030D01*
X13484991Y-12828599D01*
X13473929Y-12821207D01*
X14700000Y-12821207D01*
X14700000Y-12978793D01*
X14730743Y-13133351D01*
X14791049Y-13278942D01*
X14878599Y-13409970D01*
X14990030Y-13521401D01*
X15121058Y-13608951D01*
X15266649Y-13669257D01*
X15421207Y-13700000D01*
X15578793Y-13700000D01*
X15733351Y-13669257D01*
X15878942Y-13608951D01*
X16009970Y-13521401D01*
X16121401Y-13409970D01*
X16208951Y-13278942D01*
X16269257Y-13133351D01*
X16300000Y-12978793D01*
X16300000Y-12821207D01*
X16269257Y-12666649D01*
X16208951Y-12521058D01*
X16142233Y-12421207D01*
X20700000Y-12421207D01*
X20700000Y-12578793D01*
X20730743Y-12733351D01*
X20791049Y-12878942D01*
X20878599Y-13009970D01*
X20990030Y-13121401D01*
X21121058Y-13208951D01*
X21266649Y-13269257D01*
X21421207Y-13300000D01*
X21578793Y-13300000D01*
X21733351Y-13269257D01*
X21878942Y-13208951D01*
X22009970Y-13121401D01*
X22121401Y-13009970D01*
X22208951Y-12878942D01*
X22269257Y-12733351D01*
X22291563Y-12621207D01*
X22700000Y-12621207D01*
X22700000Y-12778793D01*
X22730743Y-12933351D01*
X22791049Y-13078942D01*
X22878599Y-13209970D01*
X22990030Y-13321401D01*
X23121058Y-13408951D01*
X23266649Y-13469257D01*
X23421207Y-13500000D01*
X23578793Y-13500000D01*
X23733351Y-13469257D01*
X23878942Y-13408951D01*
X24009970Y-13321401D01*
X24121401Y-13209970D01*
X24208951Y-13078942D01*
X24269257Y-12933351D01*
X24300000Y-12778793D01*
X24300000Y-12621207D01*
X24269257Y-12466649D01*
X24208951Y-12321058D01*
X24121401Y-12190030D01*
X24009970Y-12078599D01*
X23878942Y-11991049D01*
X23733351Y-11930743D01*
X23578793Y-11900000D01*
X23421207Y-11900000D01*
X23266649Y-11930743D01*
X23121058Y-11991049D01*
X22990030Y-12078599D01*
X22878599Y-12190030D01*
X22791049Y-12321058D01*
X22730743Y-12466649D01*
X22700000Y-12621207D01*
X22291563Y-12621207D01*
X22300000Y-12578793D01*
X22300000Y-12421207D01*
X22269257Y-12266649D01*
X22208951Y-12121058D01*
X22121401Y-11990030D01*
X22009970Y-11878599D01*
X21878942Y-11791049D01*
X21733351Y-11730743D01*
X21578793Y-11700000D01*
X21421207Y-11700000D01*
X21266649Y-11730743D01*
X21121058Y-11791049D01*
X20990030Y-11878599D01*
X20878599Y-11990030D01*
X20791049Y-12121058D01*
X20730743Y-12266649D01*
X20700000Y-12421207D01*
X16142233Y-12421207D01*
X16121401Y-12390030D01*
X16009970Y-12278599D01*
X15878942Y-12191049D01*
X15733351Y-12130743D01*
X15578793Y-12100000D01*
X15421207Y-12100000D01*
X15266649Y-12130743D01*
X15121058Y-12191049D01*
X14990030Y-12278599D01*
X14878599Y-12390030D01*
X14791049Y-12521058D01*
X14730743Y-12666649D01*
X14700000Y-12821207D01*
X13473929Y-12821207D01*
X13353963Y-12741049D01*
X13208372Y-12680743D01*
X13053814Y-12650000D01*
X12896228Y-12650000D01*
X12741670Y-12680743D01*
X12596079Y-12741049D01*
X12465051Y-12828599D01*
X12353620Y-12940030D01*
X12303566Y-13014941D01*
X12294267Y-12968189D01*
X12233961Y-12822598D01*
X12146411Y-12691570D01*
X12034980Y-12580139D01*
X11903952Y-12492589D01*
X11758361Y-12432283D01*
X11603803Y-12401540D01*
X11446217Y-12401540D01*
X11291659Y-12432283D01*
X11146068Y-12492589D01*
X11015040Y-12580139D01*
X10903609Y-12691570D01*
X10816059Y-12822598D01*
X10755753Y-12968189D01*
X10725010Y-13122747D01*
X475000Y-13122747D01*
X475000Y-5420000D01*
X7318065Y-5420000D01*
X7318065Y-7120000D01*
X7325788Y-7198414D01*
X7348660Y-7273814D01*
X7385803Y-7343303D01*
X7435789Y-7404211D01*
X7496697Y-7454197D01*
X7566186Y-7491340D01*
X7641586Y-7514212D01*
X7720000Y-7521935D01*
X9420000Y-7521935D01*
X9498414Y-7514212D01*
X9573814Y-7491340D01*
X9643303Y-7454197D01*
X9704211Y-7404211D01*
X9754197Y-7343303D01*
X9791340Y-7273814D01*
X9814212Y-7198414D01*
X9821935Y-7120000D01*
X9821935Y-6270000D01*
X9853952Y-6270000D01*
X9878087Y-6515043D01*
X9949563Y-6750669D01*
X10065634Y-6967823D01*
X10221840Y-7158160D01*
X10412177Y-7314366D01*
X10629331Y-7430437D01*
X10864957Y-7501913D01*
X11048595Y-7520000D01*
X11171405Y-7520000D01*
X11355043Y-7501913D01*
X11590669Y-7430437D01*
X11807823Y-7314366D01*
X11998160Y-7158160D01*
X12154366Y-6967823D01*
X12270437Y-6750669D01*
X12290484Y-6684581D01*
X12470742Y-6684581D01*
X12574282Y-6906677D01*
X12719161Y-7104306D01*
X12899812Y-7269873D01*
X13109292Y-7397015D01*
X13235421Y-7449247D01*
X13425000Y-7397774D01*
X13425000Y-6495000D01*
X13875000Y-6495000D01*
X13875000Y-7397774D01*
X14064579Y-7449247D01*
X14190708Y-7397015D01*
X14400188Y-7269873D01*
X14580839Y-7104306D01*
X14725718Y-6906677D01*
X14829258Y-6684581D01*
X14779594Y-6495000D01*
X13875000Y-6495000D01*
X13425000Y-6495000D01*
X12520406Y-6495000D01*
X12470742Y-6684581D01*
X12290484Y-6684581D01*
X12341913Y-6515043D01*
X12366048Y-6270000D01*
X14933952Y-6270000D01*
X14958087Y-6515043D01*
X15029563Y-6750669D01*
X15145634Y-6967823D01*
X15301840Y-7158160D01*
X15492177Y-7314366D01*
X15709331Y-7430437D01*
X15944957Y-7501913D01*
X16128595Y-7520000D01*
X16251405Y-7520000D01*
X16435043Y-7501913D01*
X16670669Y-7430437D01*
X16887823Y-7314366D01*
X17078160Y-7158160D01*
X17234366Y-6967823D01*
X17350437Y-6750669D01*
X17370484Y-6684581D01*
X17550742Y-6684581D01*
X17654282Y-6906677D01*
X17799161Y-7104306D01*
X17979812Y-7269873D01*
X18189292Y-7397015D01*
X18315421Y-7449247D01*
X18419467Y-7420997D01*
X18371058Y-7441049D01*
X18240030Y-7528599D01*
X18128599Y-7640030D01*
X18041049Y-7771058D01*
X17980743Y-7916649D01*
X17950000Y-8071207D01*
X17950000Y-8228793D01*
X17980743Y-8383351D01*
X18041049Y-8528942D01*
X18128599Y-8659970D01*
X18240030Y-8771401D01*
X18371058Y-8858951D01*
X18516649Y-8919257D01*
X18671207Y-8950000D01*
X18828793Y-8950000D01*
X18847811Y-8946217D01*
X26650000Y-8946217D01*
X26650000Y-9103803D01*
X26680743Y-9258361D01*
X26741049Y-9403952D01*
X26828599Y-9534980D01*
X26940030Y-9646411D01*
X27071058Y-9733961D01*
X27216649Y-9794267D01*
X27371207Y-9825010D01*
X27528793Y-9825010D01*
X27683351Y-9794267D01*
X27828057Y-9734328D01*
X27878599Y-9809970D01*
X27990030Y-9921401D01*
X28121058Y-10008951D01*
X28266649Y-10069257D01*
X28421207Y-10100000D01*
X28578793Y-10100000D01*
X28733351Y-10069257D01*
X28878942Y-10008951D01*
X29009970Y-9921401D01*
X29121401Y-9809970D01*
X29208951Y-9678942D01*
X29269257Y-9533351D01*
X29300000Y-9378793D01*
X29300000Y-9221207D01*
X29269257Y-9066649D01*
X29208951Y-8921058D01*
X29121401Y-8790030D01*
X29009970Y-8678599D01*
X28878942Y-8591049D01*
X28733351Y-8530743D01*
X28578793Y-8500000D01*
X28421207Y-8500000D01*
X28266649Y-8530743D01*
X28121943Y-8590682D01*
X28071401Y-8515040D01*
X27959970Y-8403609D01*
X27828942Y-8316059D01*
X27683351Y-8255753D01*
X27528793Y-8225010D01*
X27371207Y-8225010D01*
X27216649Y-8255753D01*
X27071058Y-8316059D01*
X26940030Y-8403609D01*
X26828599Y-8515040D01*
X26741049Y-8646068D01*
X26680743Y-8791659D01*
X26650000Y-8946217D01*
X18847811Y-8946217D01*
X18983351Y-8919257D01*
X19128942Y-8858951D01*
X19259970Y-8771401D01*
X19371401Y-8659970D01*
X19458951Y-8528942D01*
X19519257Y-8383351D01*
X19550000Y-8228793D01*
X19550000Y-8071207D01*
X19519257Y-7916649D01*
X19458951Y-7771058D01*
X19371401Y-7640030D01*
X19259970Y-7528599D01*
X19138906Y-7447707D01*
X19144579Y-7449247D01*
X19270708Y-7397015D01*
X19480188Y-7269873D01*
X19660839Y-7104306D01*
X19805718Y-6906677D01*
X19909258Y-6684581D01*
X19859594Y-6495000D01*
X18955000Y-6495000D01*
X18955000Y-6515000D01*
X18505000Y-6515000D01*
X18505000Y-6495000D01*
X17600406Y-6495000D01*
X17550742Y-6684581D01*
X17370484Y-6684581D01*
X17421913Y-6515043D01*
X17446048Y-6270000D01*
X20013952Y-6270000D01*
X20038087Y-6515043D01*
X20109563Y-6750669D01*
X20225634Y-6967823D01*
X20381840Y-7158160D01*
X20572177Y-7314366D01*
X20789331Y-7430437D01*
X21024957Y-7501913D01*
X21208595Y-7520000D01*
X21331405Y-7520000D01*
X21515043Y-7501913D01*
X21750669Y-7430437D01*
X21967823Y-7314366D01*
X22158160Y-7158160D01*
X22314366Y-6967823D01*
X22430437Y-6750669D01*
X22501913Y-6515043D01*
X22526048Y-6270000D01*
X22553952Y-6270000D01*
X22578087Y-6515043D01*
X22649563Y-6750669D01*
X22765634Y-6967823D01*
X22921840Y-7158160D01*
X23112177Y-7314366D01*
X23329331Y-7430437D01*
X23564957Y-7501913D01*
X23748595Y-7520000D01*
X23871405Y-7520000D01*
X24055043Y-7501913D01*
X24290669Y-7430437D01*
X24507823Y-7314366D01*
X24698160Y-7158160D01*
X24854366Y-6967823D01*
X24970437Y-6750669D01*
X25041913Y-6515043D01*
X25066048Y-6270000D01*
X25093952Y-6270000D01*
X25118087Y-6515043D01*
X25189563Y-6750669D01*
X25305634Y-6967823D01*
X25461840Y-7158160D01*
X25652177Y-7314366D01*
X25869331Y-7430437D01*
X26104957Y-7501913D01*
X26288595Y-7520000D01*
X26411405Y-7520000D01*
X26595043Y-7501913D01*
X26830669Y-7430437D01*
X27047823Y-7314366D01*
X27238160Y-7158160D01*
X27394366Y-6967823D01*
X27510437Y-6750669D01*
X27581913Y-6515043D01*
X27606048Y-6270000D01*
X27633952Y-6270000D01*
X27658087Y-6515043D01*
X27729563Y-6750669D01*
X27845634Y-6967823D01*
X28001840Y-7158160D01*
X28192177Y-7314366D01*
X28409331Y-7430437D01*
X28644957Y-7501913D01*
X28828595Y-7520000D01*
X28951405Y-7520000D01*
X29135043Y-7501913D01*
X29370669Y-7430437D01*
X29587823Y-7314366D01*
X29778160Y-7158160D01*
X29934366Y-6967823D01*
X30050437Y-6750669D01*
X30121913Y-6515043D01*
X30146048Y-6270000D01*
X30173952Y-6270000D01*
X30198087Y-6515043D01*
X30269563Y-6750669D01*
X30385634Y-6967823D01*
X30541840Y-7158160D01*
X30732177Y-7314366D01*
X30949331Y-7430437D01*
X31184957Y-7501913D01*
X31368595Y-7520000D01*
X31491405Y-7520000D01*
X31675043Y-7501913D01*
X31800000Y-7464008D01*
X31800000Y-9200000D01*
X31801921Y-9219509D01*
X31807612Y-9238268D01*
X31816853Y-9255557D01*
X31829289Y-9270711D01*
X31844443Y-9283147D01*
X31861732Y-9292388D01*
X31880491Y-9298079D01*
X31900000Y-9300000D01*
X34538196Y-9300000D01*
X34810557Y-9844721D01*
X34816853Y-9855557D01*
X34829289Y-9870711D01*
X34844443Y-9883147D01*
X34861732Y-9892388D01*
X34880491Y-9898079D01*
X34900000Y-9900000D01*
X35444575Y-9900000D01*
X35915200Y-10653000D01*
X35921001Y-10661311D01*
X35934480Y-10675545D01*
X35950477Y-10686876D01*
X35968377Y-10694868D01*
X36240360Y-10785529D01*
X36600000Y-11235079D01*
X36600000Y-15869723D01*
X36246482Y-16400000D01*
X33700000Y-16400000D01*
X33680491Y-16401921D01*
X33661732Y-16407612D01*
X33644443Y-16416853D01*
X33629289Y-16429289D01*
X33616853Y-16444443D01*
X33607612Y-16461732D01*
X33601921Y-16480491D01*
X33600000Y-16500000D01*
X33600000Y-18500000D01*
X33601921Y-18519509D01*
X33607612Y-18538268D01*
X33616853Y-18555557D01*
X33629289Y-18570711D01*
X33644443Y-18583147D01*
X33661732Y-18592388D01*
X33680491Y-18598079D01*
X33700000Y-18600000D01*
X36725000Y-18600000D01*
X36749738Y-18596892D01*
X37924738Y-18296892D01*
X37938365Y-18292348D01*
X37955644Y-18283089D01*
X37970785Y-18270637D01*
X37983205Y-18255470D01*
X38583205Y-17355470D01*
X38595651Y-17329171D01*
X38599504Y-17309950D01*
X38699504Y-16309950D01*
X38700000Y-16300000D01*
X38700000Y-10200000D01*
X38696871Y-10175182D01*
X38690168Y-10156760D01*
X38680000Y-10140000D01*
X38100000Y-9366667D01*
X38100000Y-8100000D01*
X38096449Y-8073587D01*
X38089443Y-8055279D01*
X37889443Y-7655279D01*
X37880348Y-7640467D01*
X37867190Y-7625936D01*
X37851450Y-7614251D01*
X37351450Y-7314251D01*
X37338268Y-7307612D01*
X37319509Y-7301921D01*
X37300000Y-7300000D01*
X36751462Y-7300000D01*
X36293304Y-6658579D01*
X36122690Y-5878630D01*
X36117388Y-5861732D01*
X36108147Y-5844443D01*
X36095711Y-5829289D01*
X36080557Y-5816853D01*
X36063268Y-5807612D01*
X36044509Y-5801921D01*
X36025000Y-5800000D01*
X34325000Y-5800000D01*
X34313703Y-5800640D01*
X34294536Y-5804753D01*
X34276540Y-5812526D01*
X34260406Y-5823661D01*
X34246754Y-5837730D01*
X34236109Y-5854191D01*
X34228880Y-5872413D01*
X34225345Y-5891695D01*
X34107986Y-7300000D01*
X32145328Y-7300000D01*
X32318160Y-7158160D01*
X32474366Y-6967823D01*
X32590437Y-6750669D01*
X32661913Y-6515043D01*
X32686048Y-6270000D01*
X32661913Y-6024957D01*
X32590437Y-5789331D01*
X32474366Y-5572177D01*
X32318160Y-5381840D01*
X32127823Y-5225634D01*
X31910669Y-5109563D01*
X31675043Y-5038087D01*
X31491405Y-5020000D01*
X31368595Y-5020000D01*
X31184957Y-5038087D01*
X30949331Y-5109563D01*
X30732177Y-5225634D01*
X30541840Y-5381840D01*
X30385634Y-5572177D01*
X30269563Y-5789331D01*
X30198087Y-6024957D01*
X30173952Y-6270000D01*
X30146048Y-6270000D01*
X30121913Y-6024957D01*
X30050437Y-5789331D01*
X29934366Y-5572177D01*
X29778160Y-5381840D01*
X29587823Y-5225634D01*
X29370669Y-5109563D01*
X29135043Y-5038087D01*
X28951405Y-5020000D01*
X28828595Y-5020000D01*
X28644957Y-5038087D01*
X28409331Y-5109563D01*
X28192177Y-5225634D01*
X28001840Y-5381840D01*
X27845634Y-5572177D01*
X27729563Y-5789331D01*
X27658087Y-6024957D01*
X27633952Y-6270000D01*
X27606048Y-6270000D01*
X27581913Y-6024957D01*
X27510437Y-5789331D01*
X27394366Y-5572177D01*
X27238160Y-5381840D01*
X27047823Y-5225634D01*
X26830669Y-5109563D01*
X26595043Y-5038087D01*
X26411405Y-5020000D01*
X26288595Y-5020000D01*
X26104957Y-5038087D01*
X25869331Y-5109563D01*
X25652177Y-5225634D01*
X25461840Y-5381840D01*
X25305634Y-5572177D01*
X25189563Y-5789331D01*
X25118087Y-6024957D01*
X25093952Y-6270000D01*
X25066048Y-6270000D01*
X25041913Y-6024957D01*
X24970437Y-5789331D01*
X24854366Y-5572177D01*
X24698160Y-5381840D01*
X24507823Y-5225634D01*
X24290669Y-5109563D01*
X24055043Y-5038087D01*
X23871405Y-5020000D01*
X23748595Y-5020000D01*
X23564957Y-5038087D01*
X23329331Y-5109563D01*
X23112177Y-5225634D01*
X22921840Y-5381840D01*
X22765634Y-5572177D01*
X22649563Y-5789331D01*
X22578087Y-6024957D01*
X22553952Y-6270000D01*
X22526048Y-6270000D01*
X22501913Y-6024957D01*
X22430437Y-5789331D01*
X22314366Y-5572177D01*
X22158160Y-5381840D01*
X21967823Y-5225634D01*
X21750669Y-5109563D01*
X21515043Y-5038087D01*
X21331405Y-5020000D01*
X21208595Y-5020000D01*
X21024957Y-5038087D01*
X20789331Y-5109563D01*
X20572177Y-5225634D01*
X20381840Y-5381840D01*
X20225634Y-5572177D01*
X20109563Y-5789331D01*
X20038087Y-6024957D01*
X20013952Y-6270000D01*
X17446048Y-6270000D01*
X17421913Y-6024957D01*
X17370485Y-5855419D01*
X17550742Y-5855419D01*
X17600406Y-6045000D01*
X18505000Y-6045000D01*
X18505000Y-5142226D01*
X18955000Y-5142226D01*
X18955000Y-6045000D01*
X19859594Y-6045000D01*
X19909258Y-5855419D01*
X19805718Y-5633323D01*
X19660839Y-5435694D01*
X19480188Y-5270127D01*
X19270708Y-5142985D01*
X19144579Y-5090753D01*
X18955000Y-5142226D01*
X18505000Y-5142226D01*
X18315421Y-5090753D01*
X18189292Y-5142985D01*
X17979812Y-5270127D01*
X17799161Y-5435694D01*
X17654282Y-5633323D01*
X17550742Y-5855419D01*
X17370485Y-5855419D01*
X17350437Y-5789331D01*
X17234366Y-5572177D01*
X17078160Y-5381840D01*
X16887823Y-5225634D01*
X16670669Y-5109563D01*
X16435043Y-5038087D01*
X16251405Y-5020000D01*
X16128595Y-5020000D01*
X15944957Y-5038087D01*
X15709331Y-5109563D01*
X15492177Y-5225634D01*
X15301840Y-5381840D01*
X15145634Y-5572177D01*
X15029563Y-5789331D01*
X14958087Y-6024957D01*
X14933952Y-6270000D01*
X12366048Y-6270000D01*
X12341913Y-6024957D01*
X12290485Y-5855419D01*
X12470742Y-5855419D01*
X12520406Y-6045000D01*
X13425000Y-6045000D01*
X13425000Y-5142226D01*
X13875000Y-5142226D01*
X13875000Y-6045000D01*
X14779594Y-6045000D01*
X14829258Y-5855419D01*
X14725718Y-5633323D01*
X14580839Y-5435694D01*
X14400188Y-5270127D01*
X14190708Y-5142985D01*
X14064579Y-5090753D01*
X13875000Y-5142226D01*
X13425000Y-5142226D01*
X13235421Y-5090753D01*
X13109292Y-5142985D01*
X12899812Y-5270127D01*
X12719161Y-5435694D01*
X12574282Y-5633323D01*
X12470742Y-5855419D01*
X12290485Y-5855419D01*
X12270437Y-5789331D01*
X12154366Y-5572177D01*
X11998160Y-5381840D01*
X11807823Y-5225634D01*
X11590669Y-5109563D01*
X11355043Y-5038087D01*
X11171405Y-5020000D01*
X11048595Y-5020000D01*
X10864957Y-5038087D01*
X10629331Y-5109563D01*
X10412177Y-5225634D01*
X10221840Y-5381840D01*
X10065634Y-5572177D01*
X9949563Y-5789331D01*
X9878087Y-6024957D01*
X9853952Y-6270000D01*
X9821935Y-6270000D01*
X9821935Y-5420000D01*
X9814212Y-5341586D01*
X9791340Y-5266186D01*
X9754197Y-5196697D01*
X9704211Y-5135789D01*
X9643303Y-5085803D01*
X9573814Y-5048660D01*
X9498414Y-5025788D01*
X9420000Y-5018065D01*
X7720000Y-5018065D01*
X7641586Y-5025788D01*
X7566186Y-5048660D01*
X7496697Y-5085803D01*
X7435789Y-5135789D01*
X7385803Y-5196697D01*
X7348660Y-5266186D01*
X7325788Y-5341586D01*
X7318065Y-5420000D01*
X475000Y-5420000D01*
X475000Y-3730000D01*
X7313952Y-3730000D01*
X7338087Y-3975043D01*
X7409563Y-4210669D01*
X7525634Y-4427823D01*
X7681840Y-4618160D01*
X7872177Y-4774366D01*
X8089331Y-4890437D01*
X8324957Y-4961913D01*
X8508595Y-4980000D01*
X8631405Y-4980000D01*
X8815043Y-4961913D01*
X9050669Y-4890437D01*
X9267823Y-4774366D01*
X9458160Y-4618160D01*
X9614366Y-4427823D01*
X9730437Y-4210669D01*
X9801913Y-3975043D01*
X9826048Y-3730000D01*
X9853952Y-3730000D01*
X9878087Y-3975043D01*
X9949563Y-4210669D01*
X10065634Y-4427823D01*
X10221840Y-4618160D01*
X10412177Y-4774366D01*
X10629331Y-4890437D01*
X10864957Y-4961913D01*
X11048595Y-4980000D01*
X11171405Y-4980000D01*
X11355043Y-4961913D01*
X11590669Y-4890437D01*
X11807823Y-4774366D01*
X11998160Y-4618160D01*
X12154366Y-4427823D01*
X12270437Y-4210669D01*
X12341913Y-3975043D01*
X12366048Y-3730000D01*
X12393952Y-3730000D01*
X12418087Y-3975043D01*
X12489563Y-4210669D01*
X12605634Y-4427823D01*
X12761840Y-4618160D01*
X12952177Y-4774366D01*
X13169331Y-4890437D01*
X13404957Y-4961913D01*
X13588595Y-4980000D01*
X13711405Y-4980000D01*
X13895043Y-4961913D01*
X14130669Y-4890437D01*
X14347823Y-4774366D01*
X14538160Y-4618160D01*
X14694366Y-4427823D01*
X14810437Y-4210669D01*
X14830484Y-4144581D01*
X15010742Y-4144581D01*
X15114282Y-4366677D01*
X15259161Y-4564306D01*
X15439812Y-4729873D01*
X15649292Y-4857015D01*
X15775421Y-4909247D01*
X15965000Y-4857774D01*
X15965000Y-3955000D01*
X16415000Y-3955000D01*
X16415000Y-4857774D01*
X16604579Y-4909247D01*
X16730708Y-4857015D01*
X16940188Y-4729873D01*
X17120839Y-4564306D01*
X17265718Y-4366677D01*
X17369258Y-4144581D01*
X17319594Y-3955000D01*
X16415000Y-3955000D01*
X15965000Y-3955000D01*
X15060406Y-3955000D01*
X15010742Y-4144581D01*
X14830484Y-4144581D01*
X14881913Y-3975043D01*
X14906048Y-3730000D01*
X17473952Y-3730000D01*
X17498087Y-3975043D01*
X17569563Y-4210669D01*
X17685634Y-4427823D01*
X17841840Y-4618160D01*
X18032177Y-4774366D01*
X18249331Y-4890437D01*
X18484957Y-4961913D01*
X18668595Y-4980000D01*
X18791405Y-4980000D01*
X18975043Y-4961913D01*
X19210669Y-4890437D01*
X19427823Y-4774366D01*
X19618160Y-4618160D01*
X19774366Y-4427823D01*
X19890437Y-4210669D01*
X19961913Y-3975043D01*
X19986048Y-3730000D01*
X20013952Y-3730000D01*
X20038087Y-3975043D01*
X20109563Y-4210669D01*
X20225634Y-4427823D01*
X20381840Y-4618160D01*
X20572177Y-4774366D01*
X20789331Y-4890437D01*
X21024957Y-4961913D01*
X21208595Y-4980000D01*
X21331405Y-4980000D01*
X21515043Y-4961913D01*
X21750669Y-4890437D01*
X21967823Y-4774366D01*
X22158160Y-4618160D01*
X22314366Y-4427823D01*
X22430437Y-4210669D01*
X22501913Y-3975043D01*
X22526048Y-3730000D01*
X22553952Y-3730000D01*
X22578087Y-3975043D01*
X22649563Y-4210669D01*
X22765634Y-4427823D01*
X22921840Y-4618160D01*
X23112177Y-4774366D01*
X23329331Y-4890437D01*
X23564957Y-4961913D01*
X23748595Y-4980000D01*
X23871405Y-4980000D01*
X24055043Y-4961913D01*
X24290669Y-4890437D01*
X24507823Y-4774366D01*
X24698160Y-4618160D01*
X24854366Y-4427823D01*
X24970437Y-4210669D01*
X25041913Y-3975043D01*
X25066048Y-3730000D01*
X25093952Y-3730000D01*
X25118087Y-3975043D01*
X25189563Y-4210669D01*
X25305634Y-4427823D01*
X25461840Y-4618160D01*
X25652177Y-4774366D01*
X25869331Y-4890437D01*
X26104957Y-4961913D01*
X26288595Y-4980000D01*
X26411405Y-4980000D01*
X26595043Y-4961913D01*
X26830669Y-4890437D01*
X27047823Y-4774366D01*
X27238160Y-4618160D01*
X27394366Y-4427823D01*
X27510437Y-4210669D01*
X27581913Y-3975043D01*
X27606048Y-3730000D01*
X27633952Y-3730000D01*
X27658087Y-3975043D01*
X27729563Y-4210669D01*
X27845634Y-4427823D01*
X28001840Y-4618160D01*
X28192177Y-4774366D01*
X28409331Y-4890437D01*
X28644957Y-4961913D01*
X28828595Y-4980000D01*
X28951405Y-4980000D01*
X29135043Y-4961913D01*
X29370669Y-4890437D01*
X29587823Y-4774366D01*
X29778160Y-4618160D01*
X29934366Y-4427823D01*
X30050437Y-4210669D01*
X30121913Y-3975043D01*
X30146048Y-3730000D01*
X30173952Y-3730000D01*
X30198087Y-3975043D01*
X30269563Y-4210669D01*
X30385634Y-4427823D01*
X30541840Y-4618160D01*
X30732177Y-4774366D01*
X30949331Y-4890437D01*
X31184957Y-4961913D01*
X31368595Y-4980000D01*
X31491405Y-4980000D01*
X31675043Y-4961913D01*
X31910669Y-4890437D01*
X32127823Y-4774366D01*
X32318160Y-4618160D01*
X32474366Y-4427823D01*
X32590437Y-4210669D01*
X32661913Y-3975043D01*
X32686048Y-3730000D01*
X32661913Y-3484957D01*
X32590437Y-3249331D01*
X32474366Y-3032177D01*
X32318160Y-2841840D01*
X32127823Y-2685634D01*
X31910669Y-2569563D01*
X31675043Y-2498087D01*
X31491405Y-2480000D01*
X31368595Y-2480000D01*
X31184957Y-2498087D01*
X30949331Y-2569563D01*
X30732177Y-2685634D01*
X30541840Y-2841840D01*
X30385634Y-3032177D01*
X30269563Y-3249331D01*
X30198087Y-3484957D01*
X30173952Y-3730000D01*
X30146048Y-3730000D01*
X30121913Y-3484957D01*
X30050437Y-3249331D01*
X29934366Y-3032177D01*
X29778160Y-2841840D01*
X29587823Y-2685634D01*
X29370669Y-2569563D01*
X29135043Y-2498087D01*
X28951405Y-2480000D01*
X28828595Y-2480000D01*
X28644957Y-2498087D01*
X28409331Y-2569563D01*
X28192177Y-2685634D01*
X28001840Y-2841840D01*
X27845634Y-3032177D01*
X27729563Y-3249331D01*
X27658087Y-3484957D01*
X27633952Y-3730000D01*
X27606048Y-3730000D01*
X27581913Y-3484957D01*
X27510437Y-3249331D01*
X27394366Y-3032177D01*
X27238160Y-2841840D01*
X27047823Y-2685634D01*
X26830669Y-2569563D01*
X26595043Y-2498087D01*
X26411405Y-2480000D01*
X26288595Y-2480000D01*
X26104957Y-2498087D01*
X25869331Y-2569563D01*
X25652177Y-2685634D01*
X25461840Y-2841840D01*
X25305634Y-3032177D01*
X25189563Y-3249331D01*
X25118087Y-3484957D01*
X25093952Y-3730000D01*
X25066048Y-3730000D01*
X25041913Y-3484957D01*
X24970437Y-3249331D01*
X24854366Y-3032177D01*
X24698160Y-2841840D01*
X24507823Y-2685634D01*
X24290669Y-2569563D01*
X24055043Y-2498087D01*
X23871405Y-2480000D01*
X23748595Y-2480000D01*
X23564957Y-2498087D01*
X23329331Y-2569563D01*
X23112177Y-2685634D01*
X22921840Y-2841840D01*
X22765634Y-3032177D01*
X22649563Y-3249331D01*
X22578087Y-3484957D01*
X22553952Y-3730000D01*
X22526048Y-3730000D01*
X22501913Y-3484957D01*
X22430437Y-3249331D01*
X22314366Y-3032177D01*
X22158160Y-2841840D01*
X21967823Y-2685634D01*
X21750669Y-2569563D01*
X21515043Y-2498087D01*
X21331405Y-2480000D01*
X21208595Y-2480000D01*
X21024957Y-2498087D01*
X20789331Y-2569563D01*
X20572177Y-2685634D01*
X20381840Y-2841840D01*
X20225634Y-3032177D01*
X20109563Y-3249331D01*
X20038087Y-3484957D01*
X20013952Y-3730000D01*
X19986048Y-3730000D01*
X19961913Y-3484957D01*
X19890437Y-3249331D01*
X19774366Y-3032177D01*
X19618160Y-2841840D01*
X19427823Y-2685634D01*
X19210669Y-2569563D01*
X18975043Y-2498087D01*
X18791405Y-2480000D01*
X18668595Y-2480000D01*
X18484957Y-2498087D01*
X18249331Y-2569563D01*
X18032177Y-2685634D01*
X17841840Y-2841840D01*
X17685634Y-3032177D01*
X17569563Y-3249331D01*
X17498087Y-3484957D01*
X17473952Y-3730000D01*
X14906048Y-3730000D01*
X14881913Y-3484957D01*
X14830485Y-3315419D01*
X15010742Y-3315419D01*
X15060406Y-3505000D01*
X15965000Y-3505000D01*
X15965000Y-2602226D01*
X16415000Y-2602226D01*
X16415000Y-3505000D01*
X17319594Y-3505000D01*
X17369258Y-3315419D01*
X17265718Y-3093323D01*
X17120839Y-2895694D01*
X16940188Y-2730127D01*
X16730708Y-2602985D01*
X16604579Y-2550753D01*
X16415000Y-2602226D01*
X15965000Y-2602226D01*
X15775421Y-2550753D01*
X15649292Y-2602985D01*
X15439812Y-2730127D01*
X15259161Y-2895694D01*
X15114282Y-3093323D01*
X15010742Y-3315419D01*
X14830485Y-3315419D01*
X14810437Y-3249331D01*
X14694366Y-3032177D01*
X14538160Y-2841840D01*
X14347823Y-2685634D01*
X14130669Y-2569563D01*
X13895043Y-2498087D01*
X13711405Y-2480000D01*
X13588595Y-2480000D01*
X13404957Y-2498087D01*
X13169331Y-2569563D01*
X12952177Y-2685634D01*
X12761840Y-2841840D01*
X12605634Y-3032177D01*
X12489563Y-3249331D01*
X12418087Y-3484957D01*
X12393952Y-3730000D01*
X12366048Y-3730000D01*
X12341913Y-3484957D01*
X12270437Y-3249331D01*
X12154366Y-3032177D01*
X11998160Y-2841840D01*
X11807823Y-2685634D01*
X11590669Y-2569563D01*
X11355043Y-2498087D01*
X11171405Y-2480000D01*
X11048595Y-2480000D01*
X10864957Y-2498087D01*
X10629331Y-2569563D01*
X10412177Y-2685634D01*
X10221840Y-2841840D01*
X10065634Y-3032177D01*
X9949563Y-3249331D01*
X9878087Y-3484957D01*
X9853952Y-3730000D01*
X9826048Y-3730000D01*
X9801913Y-3484957D01*
X9730437Y-3249331D01*
X9614366Y-3032177D01*
X9458160Y-2841840D01*
X9267823Y-2685634D01*
X9050669Y-2569563D01*
X8815043Y-2498087D01*
X8631405Y-2480000D01*
X8508595Y-2480000D01*
X8324957Y-2498087D01*
X8089331Y-2569563D01*
X7872177Y-2685634D01*
X7681840Y-2841840D01*
X7525634Y-3032177D01*
X7409563Y-3249331D01*
X7338087Y-3484957D01*
X7313952Y-3730000D01*
X475000Y-3730000D01*
X475000Y-3023232D01*
X525323Y-2510001D01*
X667628Y-2038664D01*
X898770Y-1603947D01*
X1209950Y-1222405D01*
X1589315Y-908566D01*
X2022404Y-674396D01*
X2492736Y-528804D01*
X3004645Y-475000D01*
X36976768Y-475000D01*
X37489999Y-525323D01*
X37489999Y-525323D01*
G37*
X37489999Y-525323D02*
X37961336Y-667628D01*
X38396053Y-898770D01*
X38777595Y-1209950D01*
X39091434Y-1589315D01*
X39325604Y-2022404D01*
X39471196Y-2492736D01*
X39525000Y-3004645D01*
X39525001Y-60109080D01*
X39446765Y-59991992D01*
X39008008Y-59553235D01*
X38492085Y-59208506D01*
X37918821Y-58971052D01*
X37310248Y-58850000D01*
X36689752Y-58850000D01*
X36081179Y-58971052D01*
X35507915Y-59208506D01*
X34991992Y-59553235D01*
X34553235Y-59991992D01*
X34208506Y-60507915D01*
X33971052Y-61081179D01*
X33850000Y-61689752D01*
X33850000Y-62310248D01*
X33971052Y-62918821D01*
X34208506Y-63492085D01*
X34553235Y-64008008D01*
X34991992Y-64446765D01*
X35109079Y-64525000D01*
X20975000Y-64525000D01*
X20975000Y-63323332D01*
X20977298Y-63300000D01*
X20968127Y-63206884D01*
X20940966Y-63117346D01*
X20896859Y-63034827D01*
X20837501Y-62962499D01*
X20765173Y-62903141D01*
X20682654Y-62859034D01*
X20593116Y-62831873D01*
X20523332Y-62825000D01*
X20500000Y-62822702D01*
X20476668Y-62825000D01*
X20097326Y-62825000D01*
X20125534Y-62801502D01*
X20268378Y-62624817D01*
X20374008Y-62423660D01*
X20438364Y-62205760D01*
X20358414Y-62025000D01*
X19525000Y-62025000D01*
X19525000Y-62045000D01*
X19075000Y-62045000D01*
X19075000Y-62025000D01*
X18241586Y-62025000D01*
X18161636Y-62205760D01*
X18225992Y-62423660D01*
X18331622Y-62624817D01*
X18474466Y-62801502D01*
X18502674Y-62825000D01*
X12897326Y-62825000D01*
X12925534Y-62801502D01*
X13068378Y-62624817D01*
X13174008Y-62423660D01*
X13238364Y-62205760D01*
X13158414Y-62025000D01*
X12325000Y-62025000D01*
X12325000Y-62045000D01*
X11875000Y-62045000D01*
X11875000Y-62025000D01*
X11041586Y-62025000D01*
X10961636Y-62205760D01*
X11025992Y-62423660D01*
X11131622Y-62624817D01*
X11274466Y-62801502D01*
X11302674Y-62825000D01*
X11023332Y-62825000D01*
X11000000Y-62822702D01*
X10976668Y-62825000D01*
X10906884Y-62831873D01*
X10817346Y-62859034D01*
X10734827Y-62903141D01*
X10662499Y-62962499D01*
X10603141Y-63034827D01*
X10559034Y-63117346D01*
X10531873Y-63206884D01*
X10522702Y-63300000D01*
X10525001Y-63323342D01*
X10525000Y-64525000D01*
X4890921Y-64525000D01*
X5008008Y-64446765D01*
X5446765Y-64008008D01*
X5791494Y-63492085D01*
X6028948Y-62918821D01*
X6150000Y-62310248D01*
X6150000Y-61689752D01*
X6091220Y-61394240D01*
X10961636Y-61394240D01*
X11041586Y-61575000D01*
X11875000Y-61575000D01*
X11875000Y-60574108D01*
X12325000Y-60574108D01*
X12325000Y-61575000D01*
X13158414Y-61575000D01*
X13238364Y-61394240D01*
X18161636Y-61394240D01*
X18241586Y-61575000D01*
X19075000Y-61575000D01*
X19075000Y-60574108D01*
X19525000Y-60574108D01*
X19525000Y-61575000D01*
X20358414Y-61575000D01*
X20438364Y-61394240D01*
X20416794Y-61321207D01*
X26900000Y-61321207D01*
X26900000Y-61478793D01*
X26930743Y-61633351D01*
X26991049Y-61778942D01*
X27078599Y-61909970D01*
X27190030Y-62021401D01*
X27321058Y-62108951D01*
X27466649Y-62169257D01*
X27621207Y-62200000D01*
X27778793Y-62200000D01*
X27933351Y-62169257D01*
X28078942Y-62108951D01*
X28209970Y-62021401D01*
X28321401Y-61909970D01*
X28408951Y-61778942D01*
X28469257Y-61633351D01*
X28500000Y-61478793D01*
X28500000Y-61321207D01*
X28469257Y-61166649D01*
X28408951Y-61021058D01*
X28321401Y-60890030D01*
X28209970Y-60778599D01*
X28078942Y-60691049D01*
X27933351Y-60630743D01*
X27778793Y-60600000D01*
X27621207Y-60600000D01*
X27466649Y-60630743D01*
X27321058Y-60691049D01*
X27190030Y-60778599D01*
X27078599Y-60890030D01*
X26991049Y-61021058D01*
X26930743Y-61166649D01*
X26900000Y-61321207D01*
X20416794Y-61321207D01*
X20374008Y-61176340D01*
X20268378Y-60975183D01*
X20125534Y-60798498D01*
X19950965Y-60653076D01*
X19751380Y-60544504D01*
X19700566Y-60521225D01*
X19525000Y-60574108D01*
X19075000Y-60574108D01*
X18899434Y-60521225D01*
X18848620Y-60544504D01*
X18649035Y-60653076D01*
X18474466Y-60798498D01*
X18331622Y-60975183D01*
X18225992Y-61176340D01*
X18161636Y-61394240D01*
X13238364Y-61394240D01*
X13174008Y-61176340D01*
X13068378Y-60975183D01*
X12925534Y-60798498D01*
X12750965Y-60653076D01*
X12551380Y-60544504D01*
X12500566Y-60521225D01*
X12325000Y-60574108D01*
X11875000Y-60574108D01*
X11699434Y-60521225D01*
X11648620Y-60544504D01*
X11449035Y-60653076D01*
X11274466Y-60798498D01*
X11131622Y-60975183D01*
X11025992Y-61176340D01*
X10961636Y-61394240D01*
X6091220Y-61394240D01*
X6028948Y-61081179D01*
X5791494Y-60507915D01*
X5446765Y-59991992D01*
X5008008Y-59553235D01*
X4577781Y-59265766D01*
X12396076Y-59265766D01*
X12464813Y-59432129D01*
X12564685Y-59581885D01*
X12691854Y-59709280D01*
X12841433Y-59809418D01*
X12912414Y-59850974D01*
X13050000Y-59793725D01*
X13050000Y-59125000D01*
X13500000Y-59125000D01*
X13500000Y-59793725D01*
X13637586Y-59850974D01*
X13708567Y-59809418D01*
X13858146Y-59709280D01*
X13985315Y-59581885D01*
X14085187Y-59432129D01*
X14153924Y-59265766D01*
X17246076Y-59265766D01*
X17314813Y-59432129D01*
X17414685Y-59581885D01*
X17541854Y-59709280D01*
X17691433Y-59809418D01*
X17762414Y-59850974D01*
X17900000Y-59793725D01*
X17900000Y-59125000D01*
X18350000Y-59125000D01*
X18350000Y-59793725D01*
X18487586Y-59850974D01*
X18558567Y-59809418D01*
X18708146Y-59709280D01*
X18835315Y-59581885D01*
X18935187Y-59432129D01*
X19003924Y-59265766D01*
X18934678Y-59125000D01*
X18350000Y-59125000D01*
X17900000Y-59125000D01*
X17315322Y-59125000D01*
X17246076Y-59265766D01*
X14153924Y-59265766D01*
X14084678Y-59125000D01*
X13500000Y-59125000D01*
X13050000Y-59125000D01*
X12465322Y-59125000D01*
X12396076Y-59265766D01*
X4577781Y-59265766D01*
X4492085Y-59208506D01*
X3918821Y-58971052D01*
X3561617Y-58900000D01*
X23548065Y-58900000D01*
X23548065Y-60500000D01*
X23555788Y-60578414D01*
X23578660Y-60653814D01*
X23615803Y-60723303D01*
X23665789Y-60784211D01*
X23726697Y-60834197D01*
X23796186Y-60871340D01*
X23871586Y-60894212D01*
X23950000Y-60901935D01*
X25550000Y-60901935D01*
X25628414Y-60894212D01*
X25703814Y-60871340D01*
X25773303Y-60834197D01*
X25834211Y-60784211D01*
X25884197Y-60723303D01*
X25921340Y-60653814D01*
X25944212Y-60578414D01*
X25951935Y-60500000D01*
X25951935Y-58900000D01*
X25944212Y-58821586D01*
X25921340Y-58746186D01*
X25884197Y-58676697D01*
X25834211Y-58615789D01*
X25773303Y-58565803D01*
X25703814Y-58528660D01*
X25628414Y-58505788D01*
X25550000Y-58498065D01*
X23950000Y-58498065D01*
X23871586Y-58505788D01*
X23796186Y-58528660D01*
X23726697Y-58565803D01*
X23665789Y-58615789D01*
X23615803Y-58676697D01*
X23578660Y-58746186D01*
X23555788Y-58821586D01*
X23548065Y-58900000D01*
X3561617Y-58900000D01*
X3310248Y-58850000D01*
X2689752Y-58850000D01*
X2081179Y-58971052D01*
X1507915Y-59208506D01*
X991992Y-59553235D01*
X553235Y-59991992D01*
X475000Y-60109079D01*
X475000Y-58534234D01*
X12396076Y-58534234D01*
X12465322Y-58675000D01*
X13050000Y-58675000D01*
X13050000Y-58006275D01*
X13500000Y-58006275D01*
X13500000Y-58675000D01*
X14084678Y-58675000D01*
X14153924Y-58534234D01*
X14143887Y-58509943D01*
X14166640Y-58519367D01*
X14321198Y-58550110D01*
X14478784Y-58550110D01*
X14558599Y-58534234D01*
X17246076Y-58534234D01*
X17315322Y-58675000D01*
X17900000Y-58675000D01*
X17900000Y-58006275D01*
X18350000Y-58006275D01*
X18350000Y-58675000D01*
X18934678Y-58675000D01*
X19003924Y-58534234D01*
X18935187Y-58367871D01*
X18835315Y-58218115D01*
X18708146Y-58090720D01*
X18558567Y-57990582D01*
X18487586Y-57949026D01*
X18350000Y-58006275D01*
X17900000Y-58006275D01*
X17762414Y-57949026D01*
X17691433Y-57990582D01*
X17541854Y-58090720D01*
X17414685Y-58218115D01*
X17314813Y-58367871D01*
X17246076Y-58534234D01*
X14558599Y-58534234D01*
X14633342Y-58519367D01*
X14778933Y-58459061D01*
X14909961Y-58371511D01*
X15021392Y-58260080D01*
X15108942Y-58129052D01*
X15169248Y-57983461D01*
X15199991Y-57828903D01*
X15199991Y-57671317D01*
X15169248Y-57516759D01*
X15108942Y-57371168D01*
X15089557Y-57342157D01*
X15161838Y-57269876D01*
X15249388Y-57138848D01*
X15298116Y-57021207D01*
X15600000Y-57021207D01*
X15600000Y-57178793D01*
X15630743Y-57333351D01*
X15691049Y-57478942D01*
X15778599Y-57609970D01*
X15890030Y-57721401D01*
X16021058Y-57808951D01*
X16166649Y-57869257D01*
X16321207Y-57900000D01*
X16478793Y-57900000D01*
X16633351Y-57869257D01*
X16778942Y-57808951D01*
X16909970Y-57721401D01*
X17021401Y-57609970D01*
X17108951Y-57478942D01*
X17169257Y-57333351D01*
X17200000Y-57178793D01*
X17200000Y-57124665D01*
X24143533Y-57124665D01*
X24235722Y-57290637D01*
X24458376Y-57370011D01*
X24692238Y-57404423D01*
X24928320Y-57392550D01*
X25157548Y-57334847D01*
X25264278Y-57290637D01*
X25356467Y-57124665D01*
X24750000Y-56518198D01*
X24143533Y-57124665D01*
X17200000Y-57124665D01*
X17200000Y-57021207D01*
X17169257Y-56866649D01*
X17108951Y-56721058D01*
X17021401Y-56590030D01*
X16909970Y-56478599D01*
X16778942Y-56391049D01*
X16633351Y-56330743D01*
X16478793Y-56300000D01*
X16321207Y-56300000D01*
X16166649Y-56330743D01*
X16021058Y-56391049D01*
X15890030Y-56478599D01*
X15778599Y-56590030D01*
X15691049Y-56721058D01*
X15630743Y-56866649D01*
X15600000Y-57021207D01*
X15298116Y-57021207D01*
X15309694Y-56993257D01*
X15340437Y-56838699D01*
X15340437Y-56681113D01*
X15309694Y-56526555D01*
X15249388Y-56380964D01*
X15161838Y-56249936D01*
X15054140Y-56142238D01*
X23545577Y-56142238D01*
X23557450Y-56378320D01*
X23615153Y-56607548D01*
X23659363Y-56714278D01*
X23825335Y-56806467D01*
X24431802Y-56200000D01*
X25068198Y-56200000D01*
X25674665Y-56806467D01*
X25840637Y-56714278D01*
X25920011Y-56491624D01*
X25954423Y-56257762D01*
X25942550Y-56021680D01*
X25884847Y-55792452D01*
X25840637Y-55685722D01*
X25674665Y-55593533D01*
X25068198Y-56200000D01*
X24431802Y-56200000D01*
X23825335Y-55593533D01*
X23659363Y-55685722D01*
X23579989Y-55908376D01*
X23545577Y-56142238D01*
X15054140Y-56142238D01*
X15050407Y-56138505D01*
X14919379Y-56050955D01*
X14773788Y-55990649D01*
X14619230Y-55959906D01*
X14461644Y-55959906D01*
X14307086Y-55990649D01*
X14161495Y-56050955D01*
X14030467Y-56138505D01*
X13919036Y-56249936D01*
X13831486Y-56380964D01*
X13771180Y-56526555D01*
X13740437Y-56681113D01*
X13740437Y-56838699D01*
X13771180Y-56993257D01*
X13831486Y-57138848D01*
X13850871Y-57167859D01*
X13778590Y-57240140D01*
X13691040Y-57371168D01*
X13630734Y-57516759D01*
X13599991Y-57671317D01*
X13599991Y-57828903D01*
X13624932Y-57954291D01*
X13500000Y-58006275D01*
X13050000Y-58006275D01*
X12912414Y-57949026D01*
X12841433Y-57990582D01*
X12691854Y-58090720D01*
X12564685Y-58218115D01*
X12464813Y-58367871D01*
X12396076Y-58534234D01*
X475000Y-58534234D01*
X475000Y-53900000D01*
X1548065Y-53900000D01*
X1548065Y-55500000D01*
X1555788Y-55578414D01*
X1578660Y-55653814D01*
X1615803Y-55723303D01*
X1665789Y-55784211D01*
X1726697Y-55834197D01*
X1796186Y-55871340D01*
X1871586Y-55894212D01*
X1950000Y-55901935D01*
X3550000Y-55901935D01*
X3628414Y-55894212D01*
X3703814Y-55871340D01*
X3773303Y-55834197D01*
X3834211Y-55784211D01*
X3884197Y-55723303D01*
X3921340Y-55653814D01*
X3930182Y-55624665D01*
X5643533Y-55624665D01*
X5735722Y-55790637D01*
X5958376Y-55870011D01*
X6192238Y-55904423D01*
X6428320Y-55892550D01*
X6657548Y-55834847D01*
X6764278Y-55790637D01*
X6856467Y-55624665D01*
X6250000Y-55018198D01*
X5643533Y-55624665D01*
X3930182Y-55624665D01*
X3944212Y-55578414D01*
X3951935Y-55500000D01*
X3951935Y-54642238D01*
X5045577Y-54642238D01*
X5057450Y-54878320D01*
X5115153Y-55107548D01*
X5159363Y-55214278D01*
X5325335Y-55306467D01*
X5931802Y-54700000D01*
X6568198Y-54700000D01*
X7174665Y-55306467D01*
X7340637Y-55214278D01*
X7420011Y-54991624D01*
X7454423Y-54757762D01*
X7442550Y-54521680D01*
X7384847Y-54292452D01*
X7340637Y-54185722D01*
X7174665Y-54093533D01*
X6568198Y-54700000D01*
X5931802Y-54700000D01*
X5325335Y-54093533D01*
X5159363Y-54185722D01*
X5079989Y-54408376D01*
X5045577Y-54642238D01*
X3951935Y-54642238D01*
X3951935Y-53900000D01*
X3944212Y-53821586D01*
X3930183Y-53775335D01*
X5643533Y-53775335D01*
X6250000Y-54381802D01*
X6856467Y-53775335D01*
X6764278Y-53609363D01*
X6541624Y-53529989D01*
X6307762Y-53495577D01*
X6071680Y-53507450D01*
X5842452Y-53565153D01*
X5735722Y-53609363D01*
X5643533Y-53775335D01*
X3930183Y-53775335D01*
X3921340Y-53746186D01*
X3884197Y-53676697D01*
X3834211Y-53615789D01*
X3773303Y-53565803D01*
X3703814Y-53528660D01*
X3628414Y-53505788D01*
X3550000Y-53498065D01*
X1950000Y-53498065D01*
X1871586Y-53505788D01*
X1796186Y-53528660D01*
X1726697Y-53565803D01*
X1665789Y-53615789D01*
X1615803Y-53676697D01*
X1578660Y-53746186D01*
X1555788Y-53821586D01*
X1548065Y-53900000D01*
X475000Y-53900000D01*
X475000Y-52921207D01*
X9900000Y-52921207D01*
X9900000Y-53078793D01*
X9930743Y-53233351D01*
X9991049Y-53378942D01*
X10078599Y-53509970D01*
X10190030Y-53621401D01*
X10321058Y-53708951D01*
X10466649Y-53769257D01*
X10621207Y-53800000D01*
X10778793Y-53800000D01*
X10933351Y-53769257D01*
X11078942Y-53708951D01*
X11138595Y-53669092D01*
X11078709Y-53758718D01*
X11018403Y-53904309D01*
X10987660Y-54058867D01*
X10987660Y-54216453D01*
X11018403Y-54371011D01*
X11078709Y-54516602D01*
X11166259Y-54647630D01*
X11277690Y-54759061D01*
X11408718Y-54846611D01*
X11554309Y-54906917D01*
X11708867Y-54937660D01*
X11866453Y-54937660D01*
X12021011Y-54906917D01*
X12166602Y-54846611D01*
X12297630Y-54759061D01*
X12409061Y-54647630D01*
X12493536Y-54521203D01*
X14087627Y-54521203D01*
X14087627Y-54678789D01*
X14118370Y-54833347D01*
X14178676Y-54978938D01*
X14266226Y-55109966D01*
X14377657Y-55221397D01*
X14508685Y-55308947D01*
X14654276Y-55369253D01*
X14808834Y-55399996D01*
X14966420Y-55399996D01*
X15120978Y-55369253D01*
X15266569Y-55308947D01*
X15397597Y-55221397D01*
X15509028Y-55109966D01*
X15596578Y-54978938D01*
X15656884Y-54833347D01*
X15687627Y-54678789D01*
X15687627Y-54571207D01*
X15700026Y-54571207D01*
X15700026Y-54728793D01*
X15730769Y-54883351D01*
X15791075Y-55028942D01*
X15878625Y-55159970D01*
X15990056Y-55271401D01*
X16121084Y-55358951D01*
X16266675Y-55419257D01*
X16421233Y-55450000D01*
X16578819Y-55450000D01*
X16733377Y-55419257D01*
X16878968Y-55358951D01*
X17004108Y-55275335D01*
X24143533Y-55275335D01*
X24750000Y-55881802D01*
X25057137Y-55574665D01*
X33193533Y-55574665D01*
X33285722Y-55740637D01*
X33508376Y-55820011D01*
X33742238Y-55854423D01*
X33978320Y-55842550D01*
X34207548Y-55784847D01*
X34314278Y-55740637D01*
X34406467Y-55574665D01*
X33800000Y-54968198D01*
X33193533Y-55574665D01*
X25057137Y-55574665D01*
X25356467Y-55275335D01*
X25264278Y-55109363D01*
X25041624Y-55029989D01*
X24807762Y-54995577D01*
X24571680Y-55007450D01*
X24342452Y-55065153D01*
X24235722Y-55109363D01*
X24143533Y-55275335D01*
X17004108Y-55275335D01*
X17009996Y-55271401D01*
X17121427Y-55159970D01*
X17208977Y-55028942D01*
X17269283Y-54883351D01*
X17300026Y-54728793D01*
X17300026Y-54592238D01*
X32595577Y-54592238D01*
X32607450Y-54828320D01*
X32665153Y-55057548D01*
X32709363Y-55164278D01*
X32875335Y-55256467D01*
X33481802Y-54650000D01*
X34118198Y-54650000D01*
X34724665Y-55256467D01*
X34890637Y-55164278D01*
X34970011Y-54941624D01*
X35004423Y-54707762D01*
X34992550Y-54471680D01*
X34934847Y-54242452D01*
X34890637Y-54135722D01*
X34724665Y-54043533D01*
X34118198Y-54650000D01*
X33481802Y-54650000D01*
X32875335Y-54043533D01*
X32709363Y-54135722D01*
X32629989Y-54358376D01*
X32595577Y-54592238D01*
X17300026Y-54592238D01*
X17300026Y-54571207D01*
X17269283Y-54416649D01*
X17208977Y-54271058D01*
X17121427Y-54140030D01*
X17009996Y-54028599D01*
X16878968Y-53941049D01*
X16733377Y-53880743D01*
X16578819Y-53850000D01*
X16421233Y-53850000D01*
X16266675Y-53880743D01*
X16121084Y-53941049D01*
X15990056Y-54028599D01*
X15878625Y-54140030D01*
X15791075Y-54271058D01*
X15730769Y-54416649D01*
X15700026Y-54571207D01*
X15687627Y-54571207D01*
X15687627Y-54521203D01*
X15656884Y-54366645D01*
X15596578Y-54221054D01*
X15509028Y-54090026D01*
X15397597Y-53978595D01*
X15266569Y-53891045D01*
X15120978Y-53830739D01*
X14966420Y-53799996D01*
X14808834Y-53799996D01*
X14654276Y-53830739D01*
X14508685Y-53891045D01*
X14377657Y-53978595D01*
X14266226Y-54090026D01*
X14178676Y-54221054D01*
X14118370Y-54366645D01*
X14087627Y-54521203D01*
X12493536Y-54521203D01*
X12496611Y-54516602D01*
X12556917Y-54371011D01*
X12587660Y-54216453D01*
X12587660Y-54058867D01*
X12556917Y-53904309D01*
X12496611Y-53758718D01*
X12474306Y-53725335D01*
X33193533Y-53725335D01*
X33800000Y-54331802D01*
X34281802Y-53850000D01*
X36098065Y-53850000D01*
X36098065Y-55450000D01*
X36105788Y-55528414D01*
X36128660Y-55603814D01*
X36165803Y-55673303D01*
X36215789Y-55734211D01*
X36276697Y-55784197D01*
X36346186Y-55821340D01*
X36421586Y-55844212D01*
X36500000Y-55851935D01*
X38100000Y-55851935D01*
X38178414Y-55844212D01*
X38253814Y-55821340D01*
X38323303Y-55784197D01*
X38384211Y-55734211D01*
X38434197Y-55673303D01*
X38471340Y-55603814D01*
X38494212Y-55528414D01*
X38501935Y-55450000D01*
X38501935Y-53850000D01*
X38494212Y-53771586D01*
X38471340Y-53696186D01*
X38434197Y-53626697D01*
X38384211Y-53565789D01*
X38323303Y-53515803D01*
X38253814Y-53478660D01*
X38178414Y-53455788D01*
X38100000Y-53448065D01*
X36500000Y-53448065D01*
X36421586Y-53455788D01*
X36346186Y-53478660D01*
X36276697Y-53515803D01*
X36215789Y-53565789D01*
X36165803Y-53626697D01*
X36128660Y-53696186D01*
X36105788Y-53771586D01*
X36098065Y-53850000D01*
X34281802Y-53850000D01*
X34406467Y-53725335D01*
X34314278Y-53559363D01*
X34091624Y-53479989D01*
X33857762Y-53445577D01*
X33621680Y-53457450D01*
X33392452Y-53515153D01*
X33285722Y-53559363D01*
X33193533Y-53725335D01*
X12474306Y-53725335D01*
X12409061Y-53627690D01*
X12297630Y-53516259D01*
X12170402Y-53431248D01*
X12259970Y-53371401D01*
X12371401Y-53259970D01*
X12458951Y-53128942D01*
X12519257Y-52983351D01*
X12550000Y-52828793D01*
X12550000Y-52671207D01*
X12519257Y-52516649D01*
X12458951Y-52371058D01*
X12371401Y-52240030D01*
X12259970Y-52128599D01*
X12128942Y-52041049D01*
X11983351Y-51980743D01*
X11828793Y-51950000D01*
X11671207Y-51950000D01*
X11516649Y-51980743D01*
X11371058Y-52041049D01*
X11240030Y-52128599D01*
X11128599Y-52240030D01*
X11089704Y-52298240D01*
X11078942Y-52291049D01*
X10933351Y-52230743D01*
X10778793Y-52200000D01*
X10621207Y-52200000D01*
X10466649Y-52230743D01*
X10321058Y-52291049D01*
X10190030Y-52378599D01*
X10078599Y-52490030D01*
X9991049Y-52621058D01*
X9930743Y-52766649D01*
X9900000Y-52921207D01*
X475000Y-52921207D01*
X475000Y-50921207D01*
X15200000Y-50921207D01*
X15200000Y-51078793D01*
X15230743Y-51233351D01*
X15291049Y-51378942D01*
X15378599Y-51509970D01*
X15490030Y-51621401D01*
X15621058Y-51708951D01*
X15766649Y-51769257D01*
X15921207Y-51800000D01*
X16078793Y-51800000D01*
X16233351Y-51769257D01*
X16378942Y-51708951D01*
X16509970Y-51621401D01*
X16621401Y-51509970D01*
X16708951Y-51378942D01*
X16769257Y-51233351D01*
X16800000Y-51078793D01*
X16800000Y-50921207D01*
X16769257Y-50766649D01*
X16708951Y-50621058D01*
X16621401Y-50490030D01*
X16509970Y-50378599D01*
X16378942Y-50291049D01*
X16233351Y-50230743D01*
X16078793Y-50200000D01*
X15921207Y-50200000D01*
X15766649Y-50230743D01*
X15621058Y-50291049D01*
X15490030Y-50378599D01*
X15378599Y-50490030D01*
X15291049Y-50621058D01*
X15230743Y-50766649D01*
X15200000Y-50921207D01*
X475000Y-50921207D01*
X475000Y-50021207D01*
X13700000Y-50021207D01*
X13700000Y-50178793D01*
X13730743Y-50333351D01*
X13791049Y-50478942D01*
X13878599Y-50609970D01*
X13990030Y-50721401D01*
X14121058Y-50808951D01*
X14266649Y-50869257D01*
X14421207Y-50900000D01*
X14578793Y-50900000D01*
X14733351Y-50869257D01*
X14878942Y-50808951D01*
X15009970Y-50721401D01*
X15121401Y-50609970D01*
X15208951Y-50478942D01*
X15269257Y-50333351D01*
X15300000Y-50178793D01*
X15300000Y-50175891D01*
X15421207Y-50200000D01*
X15578793Y-50200000D01*
X15733351Y-50169257D01*
X15878942Y-50108951D01*
X16009970Y-50021401D01*
X16121401Y-49909970D01*
X16208951Y-49778942D01*
X16223517Y-49743776D01*
X16321058Y-49808951D01*
X16466649Y-49869257D01*
X16621207Y-49900000D01*
X16778793Y-49900000D01*
X16933351Y-49869257D01*
X17078942Y-49808951D01*
X17209970Y-49721401D01*
X17321401Y-49609970D01*
X17375000Y-49529753D01*
X17428599Y-49609970D01*
X17540030Y-49721401D01*
X17671058Y-49808951D01*
X17816649Y-49869257D01*
X17971207Y-49900000D01*
X18128793Y-49900000D01*
X18283351Y-49869257D01*
X18428942Y-49808951D01*
X18559970Y-49721401D01*
X18671401Y-49609970D01*
X18694968Y-49574700D01*
X18821058Y-49658951D01*
X18966649Y-49719257D01*
X19121207Y-49750000D01*
X19278793Y-49750000D01*
X19433351Y-49719257D01*
X19578942Y-49658951D01*
X19709970Y-49571401D01*
X19821401Y-49459970D01*
X19908951Y-49328942D01*
X19969257Y-49183351D01*
X20000000Y-49028793D01*
X20000000Y-48871207D01*
X19969257Y-48716649D01*
X19908951Y-48571058D01*
X19821401Y-48440030D01*
X19709970Y-48328599D01*
X19578942Y-48241049D01*
X19433351Y-48180743D01*
X19278793Y-48150000D01*
X19121207Y-48150000D01*
X18966649Y-48180743D01*
X18821058Y-48241049D01*
X18690030Y-48328599D01*
X18578599Y-48440030D01*
X18555032Y-48475300D01*
X18428942Y-48391049D01*
X18283351Y-48330743D01*
X18128793Y-48300000D01*
X17971207Y-48300000D01*
X17816649Y-48330743D01*
X17671058Y-48391049D01*
X17540030Y-48478599D01*
X17428599Y-48590030D01*
X17375000Y-48670247D01*
X17321401Y-48590030D01*
X17209970Y-48478599D01*
X17078942Y-48391049D01*
X16933351Y-48330743D01*
X16778793Y-48300000D01*
X16621207Y-48300000D01*
X16466649Y-48330743D01*
X16321058Y-48391049D01*
X16190030Y-48478599D01*
X16078599Y-48590030D01*
X15991049Y-48721058D01*
X15976483Y-48756224D01*
X15878942Y-48691049D01*
X15733351Y-48630743D01*
X15578793Y-48600000D01*
X15421207Y-48600000D01*
X15266649Y-48630743D01*
X15121058Y-48691049D01*
X14990030Y-48778599D01*
X14878599Y-48890030D01*
X14791049Y-49021058D01*
X14730743Y-49166649D01*
X14700000Y-49321207D01*
X14700000Y-49324109D01*
X14578793Y-49300000D01*
X14421207Y-49300000D01*
X14266649Y-49330743D01*
X14121058Y-49391049D01*
X13990030Y-49478599D01*
X13878599Y-49590030D01*
X13791049Y-49721058D01*
X13730743Y-49866649D01*
X13700000Y-50021207D01*
X475000Y-50021207D01*
X475000Y-44500000D01*
X1498065Y-44500000D01*
X1498065Y-46100000D01*
X1505788Y-46178414D01*
X1528660Y-46253814D01*
X1565803Y-46323303D01*
X1615789Y-46384211D01*
X1676697Y-46434197D01*
X1746186Y-46471340D01*
X1821586Y-46494212D01*
X1900000Y-46501935D01*
X3500000Y-46501935D01*
X3578414Y-46494212D01*
X3653814Y-46471340D01*
X3723303Y-46434197D01*
X3784211Y-46384211D01*
X3834197Y-46323303D01*
X3871340Y-46253814D01*
X3880182Y-46224665D01*
X5593533Y-46224665D01*
X5685722Y-46390637D01*
X5908376Y-46470011D01*
X6142238Y-46504423D01*
X6378320Y-46492550D01*
X6607548Y-46434847D01*
X6714278Y-46390637D01*
X6806467Y-46224665D01*
X6200000Y-45618198D01*
X5593533Y-46224665D01*
X3880182Y-46224665D01*
X3894212Y-46178414D01*
X3901935Y-46100000D01*
X3901935Y-45242238D01*
X4995577Y-45242238D01*
X5007450Y-45478320D01*
X5065153Y-45707548D01*
X5109363Y-45814278D01*
X5275335Y-45906467D01*
X5881802Y-45300000D01*
X6518198Y-45300000D01*
X7124665Y-45906467D01*
X7290637Y-45814278D01*
X7370011Y-45591624D01*
X7404423Y-45357762D01*
X7392550Y-45121680D01*
X7334847Y-44892452D01*
X7290637Y-44785722D01*
X7124665Y-44693533D01*
X6518198Y-45300000D01*
X5881802Y-45300000D01*
X5275335Y-44693533D01*
X5109363Y-44785722D01*
X5029989Y-45008376D01*
X4995577Y-45242238D01*
X3901935Y-45242238D01*
X3901935Y-44500000D01*
X3894212Y-44421586D01*
X3880183Y-44375335D01*
X5593533Y-44375335D01*
X6200000Y-44981802D01*
X6806467Y-44375335D01*
X6714278Y-44209363D01*
X6491624Y-44129989D01*
X6257762Y-44095577D01*
X6021680Y-44107450D01*
X5792452Y-44165153D01*
X5685722Y-44209363D01*
X5593533Y-44375335D01*
X3880183Y-44375335D01*
X3871340Y-44346186D01*
X3834197Y-44276697D01*
X3784211Y-44215789D01*
X3723303Y-44165803D01*
X3653814Y-44128660D01*
X3578414Y-44105788D01*
X3500000Y-44098065D01*
X1900000Y-44098065D01*
X1821586Y-44105788D01*
X1746186Y-44128660D01*
X1676697Y-44165803D01*
X1615789Y-44215789D01*
X1565803Y-44276697D01*
X1528660Y-44346186D01*
X1505788Y-44421586D01*
X1498065Y-44500000D01*
X475000Y-44500000D01*
X475000Y-40921207D01*
X5800000Y-40921207D01*
X5800000Y-41078793D01*
X5830743Y-41233351D01*
X5891049Y-41378942D01*
X5978599Y-41509970D01*
X6090030Y-41621401D01*
X6221058Y-41708951D01*
X6366649Y-41769257D01*
X6521207Y-41800000D01*
X6678793Y-41800000D01*
X6833351Y-41769257D01*
X6978942Y-41708951D01*
X7109970Y-41621401D01*
X7221401Y-41509970D01*
X7308951Y-41378942D01*
X7369257Y-41233351D01*
X7400000Y-41078793D01*
X7400000Y-40921207D01*
X7369257Y-40766649D01*
X7308951Y-40621058D01*
X7221401Y-40490030D01*
X7109970Y-40378599D01*
X6978942Y-40291049D01*
X6833351Y-40230743D01*
X6678793Y-40200000D01*
X6521207Y-40200000D01*
X6366649Y-40230743D01*
X6221058Y-40291049D01*
X6090030Y-40378599D01*
X5978599Y-40490030D01*
X5891049Y-40621058D01*
X5830743Y-40766649D01*
X5800000Y-40921207D01*
X475000Y-40921207D01*
X475000Y-39521207D01*
X3900000Y-39521207D01*
X3900000Y-39678793D01*
X3930743Y-39833351D01*
X3991049Y-39978942D01*
X4078599Y-40109970D01*
X4190030Y-40221401D01*
X4321058Y-40308951D01*
X4466649Y-40369257D01*
X4621207Y-40400000D01*
X4778793Y-40400000D01*
X4933351Y-40369257D01*
X5078942Y-40308951D01*
X5209970Y-40221401D01*
X5321401Y-40109970D01*
X5344968Y-40074700D01*
X5471058Y-40158951D01*
X5616649Y-40219257D01*
X5771207Y-40250000D01*
X5928793Y-40250000D01*
X6083351Y-40219257D01*
X6228942Y-40158951D01*
X6359970Y-40071401D01*
X6471401Y-39959970D01*
X6558951Y-39828942D01*
X6619257Y-39683351D01*
X6650000Y-39528793D01*
X6650000Y-39500000D01*
X8600000Y-39500000D01*
X8600000Y-49100000D01*
X8601921Y-49119509D01*
X8607612Y-49138268D01*
X8616853Y-49155557D01*
X8629289Y-49170711D01*
X8644443Y-49183147D01*
X8661732Y-49192388D01*
X8680491Y-49198079D01*
X8700000Y-49200000D01*
X10300000Y-49200000D01*
X10319509Y-49198079D01*
X10338268Y-49192388D01*
X10355557Y-49183147D01*
X10370711Y-49170711D01*
X10383147Y-49155557D01*
X10392388Y-49138268D01*
X10398079Y-49119509D01*
X10400000Y-49100000D01*
X10400000Y-48217645D01*
X13425010Y-48217645D01*
X13425010Y-48375231D01*
X13455753Y-48529789D01*
X13516059Y-48675380D01*
X13603609Y-48806408D01*
X13715040Y-48917839D01*
X13846068Y-49005389D01*
X13991659Y-49065695D01*
X14146217Y-49096438D01*
X14303803Y-49096438D01*
X14458361Y-49065695D01*
X14603952Y-49005389D01*
X14734980Y-48917839D01*
X14846411Y-48806408D01*
X14933961Y-48675380D01*
X14994267Y-48529789D01*
X15025010Y-48375231D01*
X15025010Y-48217645D01*
X14994267Y-48063087D01*
X14933961Y-47917496D01*
X14846411Y-47786468D01*
X14734980Y-47675037D01*
X14603952Y-47587487D01*
X14458361Y-47527181D01*
X14303803Y-47496438D01*
X14146217Y-47496438D01*
X13991659Y-47527181D01*
X13846068Y-47587487D01*
X13715040Y-47675037D01*
X13603609Y-47786468D01*
X13516059Y-47917496D01*
X13455753Y-48063087D01*
X13425010Y-48217645D01*
X10400000Y-48217645D01*
X10400000Y-47645377D01*
X11165850Y-46975258D01*
X11183147Y-46955557D01*
X11192388Y-46938268D01*
X11198079Y-46919509D01*
X11200000Y-46900000D01*
X11200000Y-43196217D01*
X17450000Y-43196217D01*
X17450000Y-43353803D01*
X17480743Y-43508361D01*
X17541049Y-43653952D01*
X17628599Y-43784980D01*
X17740030Y-43896411D01*
X17871058Y-43983961D01*
X18016649Y-44044267D01*
X18171207Y-44075010D01*
X18328793Y-44075010D01*
X18483351Y-44044267D01*
X18628942Y-43983961D01*
X18759970Y-43896411D01*
X18871401Y-43784980D01*
X18958951Y-43653952D01*
X19019257Y-43508361D01*
X19036592Y-43421207D01*
X21900000Y-43421207D01*
X21900000Y-43578793D01*
X21930743Y-43733351D01*
X21991049Y-43878942D01*
X22078599Y-44009970D01*
X22190030Y-44121401D01*
X22321058Y-44208951D01*
X22466649Y-44269257D01*
X22621207Y-44300000D01*
X22778793Y-44300000D01*
X22933351Y-44269257D01*
X23078942Y-44208951D01*
X23209970Y-44121401D01*
X23321401Y-44009970D01*
X23408951Y-43878942D01*
X23469257Y-43733351D01*
X23500000Y-43578793D01*
X23500000Y-43421207D01*
X23700000Y-43421207D01*
X23700000Y-43578793D01*
X23730743Y-43733351D01*
X23791049Y-43878942D01*
X23878599Y-44009970D01*
X23990030Y-44121401D01*
X24121058Y-44208951D01*
X24266649Y-44269257D01*
X24421207Y-44300000D01*
X24578793Y-44300000D01*
X24733351Y-44269257D01*
X24878942Y-44208951D01*
X25009970Y-44121401D01*
X25121401Y-44009970D01*
X25208951Y-43878942D01*
X25269257Y-43733351D01*
X25300000Y-43578793D01*
X25300000Y-43421207D01*
X25269257Y-43266649D01*
X25208951Y-43121058D01*
X25121401Y-42990030D01*
X25031371Y-42900000D01*
X26927192Y-42900000D01*
X26927192Y-46792076D01*
X26928649Y-46809085D01*
X26933861Y-46827983D01*
X26942659Y-46845501D01*
X26954706Y-46860966D01*
X27600000Y-47539940D01*
X27600000Y-49100000D01*
X27601921Y-49119509D01*
X27607612Y-49138268D01*
X27616853Y-49155557D01*
X27629289Y-49170711D01*
X27644443Y-49183147D01*
X27661732Y-49192388D01*
X27680491Y-49198079D01*
X27700000Y-49200000D01*
X29300000Y-49200000D01*
X29319509Y-49198079D01*
X29338268Y-49192388D01*
X29355557Y-49183147D01*
X29370711Y-49170711D01*
X29383147Y-49155557D01*
X29392388Y-49138268D01*
X29398079Y-49119509D01*
X29400000Y-49100000D01*
X29400000Y-46974665D01*
X33193533Y-46974665D01*
X33285722Y-47140637D01*
X33508376Y-47220011D01*
X33742238Y-47254423D01*
X33978320Y-47242550D01*
X34207548Y-47184847D01*
X34314278Y-47140637D01*
X34406467Y-46974665D01*
X33800000Y-46368198D01*
X33193533Y-46974665D01*
X29400000Y-46974665D01*
X29400000Y-45992238D01*
X32595577Y-45992238D01*
X32607450Y-46228320D01*
X32665153Y-46457548D01*
X32709363Y-46564278D01*
X32875335Y-46656467D01*
X33481802Y-46050000D01*
X34118198Y-46050000D01*
X34724665Y-46656467D01*
X34890637Y-46564278D01*
X34970011Y-46341624D01*
X35004423Y-46107762D01*
X34992550Y-45871680D01*
X34934847Y-45642452D01*
X34890637Y-45535722D01*
X34724665Y-45443533D01*
X34118198Y-46050000D01*
X33481802Y-46050000D01*
X32875335Y-45443533D01*
X32709363Y-45535722D01*
X32629989Y-45758376D01*
X32595577Y-45992238D01*
X29400000Y-45992238D01*
X29400000Y-45125335D01*
X33193533Y-45125335D01*
X33800000Y-45731802D01*
X34281802Y-45250000D01*
X36098065Y-45250000D01*
X36098065Y-46850000D01*
X36105788Y-46928414D01*
X36128660Y-47003814D01*
X36165803Y-47073303D01*
X36215789Y-47134211D01*
X36276697Y-47184197D01*
X36346186Y-47221340D01*
X36421586Y-47244212D01*
X36500000Y-47251935D01*
X38100000Y-47251935D01*
X38178414Y-47244212D01*
X38253814Y-47221340D01*
X38323303Y-47184197D01*
X38384211Y-47134211D01*
X38434197Y-47073303D01*
X38471340Y-47003814D01*
X38494212Y-46928414D01*
X38501935Y-46850000D01*
X38501935Y-45250000D01*
X38494212Y-45171586D01*
X38471340Y-45096186D01*
X38434197Y-45026697D01*
X38384211Y-44965789D01*
X38323303Y-44915803D01*
X38253814Y-44878660D01*
X38178414Y-44855788D01*
X38100000Y-44848065D01*
X36500000Y-44848065D01*
X36421586Y-44855788D01*
X36346186Y-44878660D01*
X36276697Y-44915803D01*
X36215789Y-44965789D01*
X36165803Y-45026697D01*
X36128660Y-45096186D01*
X36105788Y-45171586D01*
X36098065Y-45250000D01*
X34281802Y-45250000D01*
X34406467Y-45125335D01*
X34314278Y-44959363D01*
X34091624Y-44879989D01*
X33857762Y-44845577D01*
X33621680Y-44857450D01*
X33392452Y-44915153D01*
X33285722Y-44959363D01*
X33193533Y-45125335D01*
X29400000Y-45125335D01*
X29400000Y-44056207D01*
X30325000Y-44056207D01*
X30325000Y-44213793D01*
X30355743Y-44368351D01*
X30416049Y-44513942D01*
X30503599Y-44644970D01*
X30615030Y-44756401D01*
X30746058Y-44843951D01*
X30891649Y-44904257D01*
X31046207Y-44935000D01*
X31203793Y-44935000D01*
X31358351Y-44904257D01*
X31503942Y-44843951D01*
X31634970Y-44756401D01*
X31746401Y-44644970D01*
X31833951Y-44513942D01*
X31894257Y-44368351D01*
X31925000Y-44213793D01*
X31925000Y-44056207D01*
X31894257Y-43901649D01*
X31833951Y-43756058D01*
X31746401Y-43625030D01*
X31634970Y-43513599D01*
X31503942Y-43426049D01*
X31358351Y-43365743D01*
X31203793Y-43335000D01*
X31046207Y-43335000D01*
X30891649Y-43365743D01*
X30746058Y-43426049D01*
X30615030Y-43513599D01*
X30503599Y-43625030D01*
X30416049Y-43756058D01*
X30355743Y-43901649D01*
X30325000Y-44056207D01*
X29400000Y-44056207D01*
X29400000Y-39600000D01*
X29398079Y-39580491D01*
X29392388Y-39561732D01*
X29383147Y-39544443D01*
X29370711Y-39529289D01*
X29355557Y-39516853D01*
X29338268Y-39507612D01*
X29319509Y-39501921D01*
X29300000Y-39500000D01*
X27727192Y-39500000D01*
X27707683Y-39501921D01*
X27688924Y-39507612D01*
X27671635Y-39516853D01*
X27656481Y-39529289D01*
X27644045Y-39544443D01*
X27634804Y-39561732D01*
X27629113Y-39580491D01*
X27627192Y-39600000D01*
X27627192Y-42348538D01*
X26969068Y-42818627D01*
X26956481Y-42829289D01*
X26944045Y-42844443D01*
X26934804Y-42861732D01*
X26929113Y-42880491D01*
X26927192Y-42900000D01*
X25031371Y-42900000D01*
X25009970Y-42878599D01*
X24878942Y-42791049D01*
X24733351Y-42730743D01*
X24578793Y-42700000D01*
X24421207Y-42700000D01*
X24266649Y-42730743D01*
X24121058Y-42791049D01*
X23990030Y-42878599D01*
X23878599Y-42990030D01*
X23791049Y-43121058D01*
X23730743Y-43266649D01*
X23700000Y-43421207D01*
X23500000Y-43421207D01*
X23469257Y-43266649D01*
X23408951Y-43121058D01*
X23321401Y-42990030D01*
X23209970Y-42878599D01*
X23078942Y-42791049D01*
X22933351Y-42730743D01*
X22778793Y-42700000D01*
X22621207Y-42700000D01*
X22466649Y-42730743D01*
X22321058Y-42791049D01*
X22190030Y-42878599D01*
X22078599Y-42990030D01*
X21991049Y-43121058D01*
X21930743Y-43266649D01*
X21900000Y-43421207D01*
X19036592Y-43421207D01*
X19050000Y-43353803D01*
X19050000Y-43196217D01*
X19019257Y-43041659D01*
X18958951Y-42896068D01*
X18871401Y-42765040D01*
X18759970Y-42653609D01*
X18628942Y-42566059D01*
X18483351Y-42505753D01*
X18328793Y-42475010D01*
X18171207Y-42475010D01*
X18016649Y-42505753D01*
X17871058Y-42566059D01*
X17740030Y-42653609D01*
X17628599Y-42765040D01*
X17541049Y-42896068D01*
X17480743Y-43041659D01*
X17450000Y-43196217D01*
X11200000Y-43196217D01*
X11200000Y-42700000D01*
X11198079Y-42680491D01*
X11192388Y-42661732D01*
X11183147Y-42644443D01*
X11170711Y-42629289D01*
X10400000Y-41858578D01*
X10400000Y-39500000D01*
X10398079Y-39480491D01*
X10392388Y-39461732D01*
X10383147Y-39444443D01*
X10370711Y-39429289D01*
X10355557Y-39416853D01*
X10338268Y-39407612D01*
X10319509Y-39401921D01*
X10300000Y-39400000D01*
X8700000Y-39400000D01*
X8680491Y-39401921D01*
X8661732Y-39407612D01*
X8644443Y-39416853D01*
X8629289Y-39429289D01*
X8616853Y-39444443D01*
X8607612Y-39461732D01*
X8601921Y-39480491D01*
X8600000Y-39500000D01*
X6650000Y-39500000D01*
X6650000Y-39392461D01*
X6719134Y-39323327D01*
X17702120Y-39323327D01*
X17702120Y-39480913D01*
X17732863Y-39635471D01*
X17793169Y-39781062D01*
X17880719Y-39912090D01*
X17992150Y-40023521D01*
X18123178Y-40111071D01*
X18268769Y-40171377D01*
X18423327Y-40202120D01*
X18580913Y-40202120D01*
X18735471Y-40171377D01*
X18881062Y-40111071D01*
X19012090Y-40023521D01*
X19123521Y-39912090D01*
X19211071Y-39781062D01*
X19271377Y-39635471D01*
X19302120Y-39480913D01*
X19302120Y-39323327D01*
X19271377Y-39168769D01*
X19211071Y-39023178D01*
X19123521Y-38892150D01*
X19012090Y-38780719D01*
X18881062Y-38693169D01*
X18735471Y-38632863D01*
X18580913Y-38602120D01*
X18423327Y-38602120D01*
X18268769Y-38632863D01*
X18123178Y-38693169D01*
X17992150Y-38780719D01*
X17880719Y-38892150D01*
X17793169Y-39023178D01*
X17732863Y-39168769D01*
X17702120Y-39323327D01*
X6719134Y-39323327D01*
X9271254Y-36771207D01*
X13850000Y-36771207D01*
X13850000Y-36928793D01*
X13880743Y-37083351D01*
X13941049Y-37228942D01*
X14028599Y-37359970D01*
X14093629Y-37425000D01*
X14028599Y-37490030D01*
X13941049Y-37621058D01*
X13880743Y-37766649D01*
X13850000Y-37921207D01*
X13850000Y-38078793D01*
X13880743Y-38233351D01*
X13941049Y-38378942D01*
X14028599Y-38509970D01*
X14140030Y-38621401D01*
X14271058Y-38708951D01*
X14416649Y-38769257D01*
X14571207Y-38800000D01*
X14728793Y-38800000D01*
X14883351Y-38769257D01*
X15028942Y-38708951D01*
X15159970Y-38621401D01*
X15271401Y-38509970D01*
X15358951Y-38378942D01*
X15419257Y-38233351D01*
X15450000Y-38078793D01*
X15450000Y-37921207D01*
X15419257Y-37766649D01*
X15358951Y-37621058D01*
X15271401Y-37490030D01*
X15206371Y-37425000D01*
X15271401Y-37359970D01*
X15358951Y-37228942D01*
X15419257Y-37083351D01*
X15450000Y-36928793D01*
X15450000Y-36771207D01*
X15419257Y-36616649D01*
X15358951Y-36471058D01*
X15292233Y-36371207D01*
X25350000Y-36371207D01*
X25350000Y-36528793D01*
X25380743Y-36683351D01*
X25441049Y-36828942D01*
X25528599Y-36959970D01*
X25640030Y-37071401D01*
X25771058Y-37158951D01*
X25916649Y-37219257D01*
X26071207Y-37250000D01*
X26228793Y-37250000D01*
X26383351Y-37219257D01*
X26528942Y-37158951D01*
X26659970Y-37071401D01*
X26771401Y-36959970D01*
X26858951Y-36828942D01*
X26919257Y-36683351D01*
X26950000Y-36528793D01*
X26950000Y-36371207D01*
X26919257Y-36216649D01*
X26879724Y-36121207D01*
X27100000Y-36121207D01*
X27100000Y-36278793D01*
X27130743Y-36433351D01*
X27191049Y-36578942D01*
X27278599Y-36709970D01*
X27390030Y-36821401D01*
X27521058Y-36908951D01*
X27666649Y-36969257D01*
X27821207Y-37000000D01*
X27978793Y-37000000D01*
X28133351Y-36969257D01*
X28278942Y-36908951D01*
X28409970Y-36821401D01*
X28521401Y-36709970D01*
X28608951Y-36578942D01*
X28669257Y-36433351D01*
X28700000Y-36278793D01*
X28700000Y-36121207D01*
X28669257Y-35966649D01*
X28608951Y-35821058D01*
X28521401Y-35690030D01*
X28409970Y-35578599D01*
X28278942Y-35491049D01*
X28133351Y-35430743D01*
X27978793Y-35400000D01*
X27821207Y-35400000D01*
X27666649Y-35430743D01*
X27521058Y-35491049D01*
X27390030Y-35578599D01*
X27278599Y-35690030D01*
X27191049Y-35821058D01*
X27130743Y-35966649D01*
X27100000Y-36121207D01*
X26879724Y-36121207D01*
X26858951Y-36071058D01*
X26771401Y-35940030D01*
X26659970Y-35828599D01*
X26528942Y-35741049D01*
X26383351Y-35680743D01*
X26228793Y-35650000D01*
X26071207Y-35650000D01*
X25916649Y-35680743D01*
X25771058Y-35741049D01*
X25640030Y-35828599D01*
X25528599Y-35940030D01*
X25441049Y-36071058D01*
X25380743Y-36216649D01*
X25350000Y-36371207D01*
X15292233Y-36371207D01*
X15271401Y-36340030D01*
X15159970Y-36228599D01*
X15028942Y-36141049D01*
X14883351Y-36080743D01*
X14728793Y-36050000D01*
X14571207Y-36050000D01*
X14416649Y-36080743D01*
X14271058Y-36141049D01*
X14140030Y-36228599D01*
X14028599Y-36340030D01*
X13941049Y-36471058D01*
X13880743Y-36616649D01*
X13850000Y-36771207D01*
X9271254Y-36771207D01*
X10852996Y-35189466D01*
X10873027Y-35173027D01*
X10938633Y-35093086D01*
X10987383Y-35001881D01*
X11017403Y-34902918D01*
X11025000Y-34825788D01*
X11025000Y-34825781D01*
X11027539Y-34800001D01*
X11025000Y-34774221D01*
X11025000Y-33421207D01*
X32500000Y-33421207D01*
X32500000Y-33578793D01*
X32530743Y-33733351D01*
X32591049Y-33878942D01*
X32671937Y-34000000D01*
X32591049Y-34121058D01*
X32530743Y-34266649D01*
X32500000Y-34421207D01*
X32500000Y-34578793D01*
X32530743Y-34733351D01*
X32591049Y-34878942D01*
X32678599Y-35009970D01*
X32790030Y-35121401D01*
X32921058Y-35208951D01*
X33066649Y-35269257D01*
X33221207Y-35300000D01*
X33378793Y-35300000D01*
X33533351Y-35269257D01*
X33678942Y-35208951D01*
X33809970Y-35121401D01*
X33921401Y-35009970D01*
X34008951Y-34878942D01*
X34069257Y-34733351D01*
X34100000Y-34578793D01*
X34100000Y-34421207D01*
X34069257Y-34266649D01*
X34008951Y-34121058D01*
X33928063Y-34000000D01*
X34008951Y-33878942D01*
X34069257Y-33733351D01*
X34100000Y-33578793D01*
X34100000Y-33421207D01*
X35800000Y-33421207D01*
X35800000Y-33578793D01*
X35830743Y-33733351D01*
X35891049Y-33878942D01*
X35971937Y-34000000D01*
X35891049Y-34121058D01*
X35830743Y-34266649D01*
X35800000Y-34421207D01*
X35800000Y-34578793D01*
X35830743Y-34733351D01*
X35891049Y-34878942D01*
X35978599Y-35009970D01*
X36090030Y-35121401D01*
X36221058Y-35208951D01*
X36366649Y-35269257D01*
X36521207Y-35300000D01*
X36678793Y-35300000D01*
X36833351Y-35269257D01*
X36978942Y-35208951D01*
X37109970Y-35121401D01*
X37221401Y-35009970D01*
X37308951Y-34878942D01*
X37369257Y-34733351D01*
X37400000Y-34578793D01*
X37400000Y-34421207D01*
X37369257Y-34266649D01*
X37308951Y-34121058D01*
X37228063Y-34000000D01*
X37308951Y-33878942D01*
X37369257Y-33733351D01*
X37400000Y-33578793D01*
X37400000Y-33421207D01*
X37369257Y-33266649D01*
X37308951Y-33121058D01*
X37221401Y-32990030D01*
X37109970Y-32878599D01*
X36978942Y-32791049D01*
X36833351Y-32730743D01*
X36678793Y-32700000D01*
X36521207Y-32700000D01*
X36366649Y-32730743D01*
X36221058Y-32791049D01*
X36090030Y-32878599D01*
X35978599Y-32990030D01*
X35891049Y-33121058D01*
X35830743Y-33266649D01*
X35800000Y-33421207D01*
X34100000Y-33421207D01*
X34069257Y-33266649D01*
X34008951Y-33121058D01*
X33921401Y-32990030D01*
X33809970Y-32878599D01*
X33678942Y-32791049D01*
X33533351Y-32730743D01*
X33378793Y-32700000D01*
X33221207Y-32700000D01*
X33066649Y-32730743D01*
X32921058Y-32791049D01*
X32790030Y-32878599D01*
X32678599Y-32990030D01*
X32591049Y-33121058D01*
X32530743Y-33266649D01*
X32500000Y-33421207D01*
X11025000Y-33421207D01*
X11025000Y-32467324D01*
X11089218Y-32403106D01*
X11176768Y-32272078D01*
X11237074Y-32126487D01*
X11267817Y-31971929D01*
X11267817Y-31814343D01*
X11237074Y-31659785D01*
X11176768Y-31514194D01*
X11089218Y-31383166D01*
X10977787Y-31271735D01*
X10846759Y-31184185D01*
X10701168Y-31123879D01*
X10546610Y-31093136D01*
X10389024Y-31093136D01*
X10234466Y-31123879D01*
X10088875Y-31184185D01*
X9957847Y-31271735D01*
X9955478Y-31274105D01*
X9909972Y-31228599D01*
X9778944Y-31141049D01*
X9633353Y-31080743D01*
X9478795Y-31050000D01*
X9321209Y-31050000D01*
X9166651Y-31080743D01*
X9021060Y-31141049D01*
X8890032Y-31228599D01*
X8778601Y-31340030D01*
X8691051Y-31471058D01*
X8675001Y-31509806D01*
X8658951Y-31471058D01*
X8571401Y-31340030D01*
X8459970Y-31228599D01*
X8328942Y-31141049D01*
X8183351Y-31080743D01*
X8028793Y-31050000D01*
X7871207Y-31050000D01*
X7716649Y-31080743D01*
X7571058Y-31141049D01*
X7440030Y-31228599D01*
X7328599Y-31340030D01*
X7241049Y-31471058D01*
X7180743Y-31616649D01*
X7150000Y-31771207D01*
X7150000Y-31928793D01*
X7180743Y-32083351D01*
X7241049Y-32228942D01*
X7328599Y-32359970D01*
X7440030Y-32471401D01*
X7571058Y-32558951D01*
X7716649Y-32619257D01*
X7871207Y-32650000D01*
X8028793Y-32650000D01*
X8183351Y-32619257D01*
X8328942Y-32558951D01*
X8459970Y-32471401D01*
X8571401Y-32359970D01*
X8658951Y-32228942D01*
X8675001Y-32190194D01*
X8691051Y-32228942D01*
X8778601Y-32359970D01*
X8875002Y-32456371D01*
X8875003Y-34559531D01*
X4747009Y-38687526D01*
X4726972Y-38703970D01*
X4661366Y-38783911D01*
X4652766Y-38800000D01*
X4621207Y-38800000D01*
X4466649Y-38830743D01*
X4321058Y-38891049D01*
X4190030Y-38978599D01*
X4078599Y-39090030D01*
X3991049Y-39221058D01*
X3930743Y-39366649D01*
X3900000Y-39521207D01*
X475000Y-39521207D01*
X475000Y-33321207D01*
X2600000Y-33321207D01*
X2600000Y-33478793D01*
X2630743Y-33633351D01*
X2691049Y-33778942D01*
X2778599Y-33909970D01*
X2818629Y-33950000D01*
X2778599Y-33990030D01*
X2691049Y-34121058D01*
X2630743Y-34266649D01*
X2600000Y-34421207D01*
X2600000Y-34578793D01*
X2630743Y-34733351D01*
X2691049Y-34878942D01*
X2778599Y-35009970D01*
X2890030Y-35121401D01*
X3021058Y-35208951D01*
X3166649Y-35269257D01*
X3321207Y-35300000D01*
X3478793Y-35300000D01*
X3633351Y-35269257D01*
X3778942Y-35208951D01*
X3909970Y-35121401D01*
X4021401Y-35009970D01*
X4108951Y-34878942D01*
X4169257Y-34733351D01*
X4200000Y-34578793D01*
X4200000Y-34421207D01*
X4169257Y-34266649D01*
X4108951Y-34121058D01*
X4021401Y-33990030D01*
X3981371Y-33950000D01*
X4021401Y-33909970D01*
X4108951Y-33778942D01*
X4169257Y-33633351D01*
X4200000Y-33478793D01*
X4200000Y-33421207D01*
X5900000Y-33421207D01*
X5900000Y-33578793D01*
X5930743Y-33733351D01*
X5991049Y-33878942D01*
X6071937Y-34000000D01*
X5991049Y-34121058D01*
X5930743Y-34266649D01*
X5900000Y-34421207D01*
X5900000Y-34578793D01*
X5930743Y-34733351D01*
X5991049Y-34878942D01*
X6078599Y-35009970D01*
X6190030Y-35121401D01*
X6321058Y-35208951D01*
X6466649Y-35269257D01*
X6621207Y-35300000D01*
X6778793Y-35300000D01*
X6933351Y-35269257D01*
X7078942Y-35208951D01*
X7209970Y-35121401D01*
X7321401Y-35009970D01*
X7408951Y-34878942D01*
X7469257Y-34733351D01*
X7500000Y-34578793D01*
X7500000Y-34421207D01*
X7469257Y-34266649D01*
X7408951Y-34121058D01*
X7328063Y-34000000D01*
X7408951Y-33878942D01*
X7469257Y-33733351D01*
X7500000Y-33578793D01*
X7500000Y-33421207D01*
X7469257Y-33266649D01*
X7408951Y-33121058D01*
X7321401Y-32990030D01*
X7209970Y-32878599D01*
X7078942Y-32791049D01*
X6933351Y-32730743D01*
X6778793Y-32700000D01*
X6621207Y-32700000D01*
X6466649Y-32730743D01*
X6321058Y-32791049D01*
X6190030Y-32878599D01*
X6078599Y-32990030D01*
X5991049Y-33121058D01*
X5930743Y-33266649D01*
X5900000Y-33421207D01*
X4200000Y-33421207D01*
X4200000Y-33321207D01*
X4169257Y-33166649D01*
X4108951Y-33021058D01*
X4021401Y-32890030D01*
X3909970Y-32778599D01*
X3778942Y-32691049D01*
X3633351Y-32630743D01*
X3478793Y-32600000D01*
X3321207Y-32600000D01*
X3166649Y-32630743D01*
X3021058Y-32691049D01*
X2890030Y-32778599D01*
X2778599Y-32890030D01*
X2691049Y-33021058D01*
X2630743Y-33166649D01*
X2600000Y-33321207D01*
X475000Y-33321207D01*
X475000Y-27971207D01*
X15850000Y-27971207D01*
X15850000Y-28128793D01*
X15880743Y-28283351D01*
X15941049Y-28428942D01*
X16028599Y-28559970D01*
X16140030Y-28671401D01*
X16271058Y-28758951D01*
X16416649Y-28819257D01*
X16571207Y-28850000D01*
X16728793Y-28850000D01*
X16883351Y-28819257D01*
X17028942Y-28758951D01*
X17159970Y-28671401D01*
X17271401Y-28559970D01*
X17358951Y-28428942D01*
X17362154Y-28421207D01*
X32100000Y-28421207D01*
X32100000Y-28578793D01*
X32130743Y-28733351D01*
X32191049Y-28878942D01*
X32278599Y-29009970D01*
X32390030Y-29121401D01*
X32521058Y-29208951D01*
X32666649Y-29269257D01*
X32821207Y-29300000D01*
X32978793Y-29300000D01*
X33133351Y-29269257D01*
X33278942Y-29208951D01*
X33409970Y-29121401D01*
X33521401Y-29009970D01*
X33608951Y-28878942D01*
X33669257Y-28733351D01*
X33700000Y-28578793D01*
X33700000Y-28421207D01*
X33669257Y-28266649D01*
X33608951Y-28121058D01*
X33521401Y-27990030D01*
X33409970Y-27878599D01*
X33278942Y-27791049D01*
X33133351Y-27730743D01*
X32978793Y-27700000D01*
X32821207Y-27700000D01*
X32666649Y-27730743D01*
X32521058Y-27791049D01*
X32390030Y-27878599D01*
X32278599Y-27990030D01*
X32191049Y-28121058D01*
X32130743Y-28266649D01*
X32100000Y-28421207D01*
X17362154Y-28421207D01*
X17419257Y-28283351D01*
X17450000Y-28128793D01*
X17450000Y-27971207D01*
X17419257Y-27816649D01*
X17358951Y-27671058D01*
X17271401Y-27540030D01*
X17159970Y-27428599D01*
X17028942Y-27341049D01*
X16883351Y-27280743D01*
X16728793Y-27250000D01*
X16571207Y-27250000D01*
X16416649Y-27280743D01*
X16271058Y-27341049D01*
X16140030Y-27428599D01*
X16028599Y-27540030D01*
X15941049Y-27671058D01*
X15880743Y-27816649D01*
X15850000Y-27971207D01*
X475000Y-27971207D01*
X475000Y-23621207D01*
X32200000Y-23621207D01*
X32200000Y-23778793D01*
X32230743Y-23933351D01*
X32291049Y-24078942D01*
X32378599Y-24209970D01*
X32490030Y-24321401D01*
X32621058Y-24408951D01*
X32766649Y-24469257D01*
X32921207Y-24500000D01*
X33078793Y-24500000D01*
X33233351Y-24469257D01*
X33378942Y-24408951D01*
X33509970Y-24321401D01*
X33621401Y-24209970D01*
X33708951Y-24078942D01*
X33769257Y-23933351D01*
X33800000Y-23778793D01*
X33800000Y-23621207D01*
X33769257Y-23466649D01*
X33708951Y-23321058D01*
X33621401Y-23190030D01*
X33509970Y-23078599D01*
X33378942Y-22991049D01*
X33233351Y-22930743D01*
X33078793Y-22900000D01*
X32921207Y-22900000D01*
X32766649Y-22930743D01*
X32621058Y-22991049D01*
X32490030Y-23078599D01*
X32378599Y-23190030D01*
X32291049Y-23321058D01*
X32230743Y-23466649D01*
X32200000Y-23621207D01*
X475000Y-23621207D01*
X475000Y-20021207D01*
X23400000Y-20021207D01*
X23400000Y-20178793D01*
X23430743Y-20333351D01*
X23491049Y-20478942D01*
X23578599Y-20609970D01*
X23690030Y-20721401D01*
X23821058Y-20808951D01*
X23966649Y-20869257D01*
X24121207Y-20900000D01*
X24278793Y-20900000D01*
X24433351Y-20869257D01*
X24578942Y-20808951D01*
X24709970Y-20721401D01*
X24821401Y-20609970D01*
X24908951Y-20478942D01*
X24969257Y-20333351D01*
X25000000Y-20178793D01*
X25000000Y-20021207D01*
X24969257Y-19866649D01*
X24908951Y-19721058D01*
X24821401Y-19590030D01*
X24709970Y-19478599D01*
X24578942Y-19391049D01*
X24433351Y-19330743D01*
X24278793Y-19300000D01*
X24121207Y-19300000D01*
X23966649Y-19330743D01*
X23821058Y-19391049D01*
X23690030Y-19478599D01*
X23578599Y-19590030D01*
X23491049Y-19721058D01*
X23430743Y-19866649D01*
X23400000Y-20021207D01*
X475000Y-20021207D01*
X475000Y-18871207D01*
X28900000Y-18871207D01*
X28900000Y-19028793D01*
X28930743Y-19183351D01*
X28991049Y-19328942D01*
X29078599Y-19459970D01*
X29190030Y-19571401D01*
X29321058Y-19658951D01*
X29466649Y-19719257D01*
X29621207Y-19750000D01*
X29778793Y-19750000D01*
X29933351Y-19719257D01*
X30078942Y-19658951D01*
X30209970Y-19571401D01*
X30321401Y-19459970D01*
X30408951Y-19328942D01*
X30469257Y-19183351D01*
X30469952Y-19179859D01*
X30571207Y-19200000D01*
X30728793Y-19200000D01*
X30883351Y-19169257D01*
X31028942Y-19108951D01*
X31159970Y-19021401D01*
X31271401Y-18909970D01*
X31358951Y-18778942D01*
X31419257Y-18633351D01*
X31450000Y-18478793D01*
X31450000Y-18321207D01*
X31419257Y-18166649D01*
X31358951Y-18021058D01*
X31271401Y-17890030D01*
X31159970Y-17778599D01*
X31028942Y-17691049D01*
X30883351Y-17630743D01*
X30728793Y-17600000D01*
X30571207Y-17600000D01*
X30416649Y-17630743D01*
X30271058Y-17691049D01*
X30140030Y-17778599D01*
X30028599Y-17890030D01*
X29941049Y-18021058D01*
X29880743Y-18166649D01*
X29880048Y-18170141D01*
X29778793Y-18150000D01*
X29621207Y-18150000D01*
X29466649Y-18180743D01*
X29321058Y-18241049D01*
X29190030Y-18328599D01*
X29078599Y-18440030D01*
X28991049Y-18571058D01*
X28930743Y-18716649D01*
X28900000Y-18871207D01*
X475000Y-18871207D01*
X475000Y-16471203D01*
X13425010Y-16471203D01*
X13425010Y-16628789D01*
X13455753Y-16783347D01*
X13516059Y-16928938D01*
X13603609Y-17059966D01*
X13715040Y-17171397D01*
X13846068Y-17258947D01*
X13991659Y-17319253D01*
X14146217Y-17349996D01*
X14303803Y-17349996D01*
X14458361Y-17319253D01*
X14603952Y-17258947D01*
X14734980Y-17171397D01*
X14846411Y-17059966D01*
X14933961Y-16928938D01*
X14994267Y-16783347D01*
X15025010Y-16628789D01*
X15025010Y-16621207D01*
X19000000Y-16621207D01*
X19000000Y-16778793D01*
X19030743Y-16933351D01*
X19091049Y-17078942D01*
X19178599Y-17209970D01*
X19290030Y-17321401D01*
X19421058Y-17408951D01*
X19566649Y-17469257D01*
X19721207Y-17500000D01*
X19878793Y-17500000D01*
X20033351Y-17469257D01*
X20178942Y-17408951D01*
X20309970Y-17321401D01*
X20421401Y-17209970D01*
X20508951Y-17078942D01*
X20569257Y-16933351D01*
X20600000Y-16778793D01*
X20600000Y-16621207D01*
X20569257Y-16466649D01*
X20530760Y-16373707D01*
X21447500Y-16373707D01*
X21447500Y-16531293D01*
X21478243Y-16685851D01*
X21538549Y-16831442D01*
X21626099Y-16962470D01*
X21737530Y-17073901D01*
X21868558Y-17161451D01*
X22014149Y-17221757D01*
X22168707Y-17252500D01*
X22326293Y-17252500D01*
X22480851Y-17221757D01*
X22626442Y-17161451D01*
X22757470Y-17073901D01*
X22868901Y-16962470D01*
X22956451Y-16831442D01*
X23016757Y-16685851D01*
X23029615Y-16621207D01*
X25500000Y-16621207D01*
X25500000Y-16778793D01*
X25530743Y-16933351D01*
X25591049Y-17078942D01*
X25678599Y-17209970D01*
X25790030Y-17321401D01*
X25921058Y-17408951D01*
X26066649Y-17469257D01*
X26221207Y-17500000D01*
X26378793Y-17500000D01*
X26533351Y-17469257D01*
X26678942Y-17408951D01*
X26809970Y-17321401D01*
X26921401Y-17209970D01*
X27008951Y-17078942D01*
X27069257Y-16933351D01*
X27092913Y-16814420D01*
X27150714Y-16953963D01*
X27238264Y-17084991D01*
X27349695Y-17196422D01*
X27480723Y-17283972D01*
X27626314Y-17344278D01*
X27780872Y-17375021D01*
X27938458Y-17375021D01*
X28093016Y-17344278D01*
X28238607Y-17283972D01*
X28369635Y-17196422D01*
X28481066Y-17084991D01*
X28568616Y-16953963D01*
X28628922Y-16808372D01*
X28659665Y-16653814D01*
X28659665Y-16496228D01*
X28628922Y-16341670D01*
X28568616Y-16196079D01*
X28481066Y-16065051D01*
X28369635Y-15953620D01*
X28238607Y-15866070D01*
X28093016Y-15805764D01*
X27938458Y-15775021D01*
X27780872Y-15775021D01*
X27626314Y-15805764D01*
X27480723Y-15866070D01*
X27349695Y-15953620D01*
X27238264Y-16065051D01*
X27150714Y-16196079D01*
X27090408Y-16341670D01*
X27066752Y-16460601D01*
X27008951Y-16321058D01*
X26921401Y-16190030D01*
X26809970Y-16078599D01*
X26678942Y-15991049D01*
X26533351Y-15930743D01*
X26378793Y-15900000D01*
X26221207Y-15900000D01*
X26066649Y-15930743D01*
X25921058Y-15991049D01*
X25790030Y-16078599D01*
X25678599Y-16190030D01*
X25591049Y-16321058D01*
X25530743Y-16466649D01*
X25500000Y-16621207D01*
X23029615Y-16621207D01*
X23047500Y-16531293D01*
X23047500Y-16373707D01*
X23016757Y-16219149D01*
X22956451Y-16073558D01*
X22868901Y-15942530D01*
X22757470Y-15831099D01*
X22626442Y-15743549D01*
X22480851Y-15683243D01*
X22326293Y-15652500D01*
X22168707Y-15652500D01*
X22014149Y-15683243D01*
X21868558Y-15743549D01*
X21737530Y-15831099D01*
X21626099Y-15942530D01*
X21538549Y-16073558D01*
X21478243Y-16219149D01*
X21447500Y-16373707D01*
X20530760Y-16373707D01*
X20508951Y-16321058D01*
X20421401Y-16190030D01*
X20309970Y-16078599D01*
X20178942Y-15991049D01*
X20033351Y-15930743D01*
X19878793Y-15900000D01*
X19721207Y-15900000D01*
X19566649Y-15930743D01*
X19421058Y-15991049D01*
X19290030Y-16078599D01*
X19178599Y-16190030D01*
X19091049Y-16321058D01*
X19030743Y-16466649D01*
X19000000Y-16621207D01*
X15025010Y-16621207D01*
X15025010Y-16471203D01*
X14994267Y-16316645D01*
X14933961Y-16171054D01*
X14846411Y-16040026D01*
X14734980Y-15928595D01*
X14603952Y-15841045D01*
X14458361Y-15780739D01*
X14303803Y-15749996D01*
X14146217Y-15749996D01*
X13991659Y-15780739D01*
X13846068Y-15841045D01*
X13715040Y-15928595D01*
X13603609Y-16040026D01*
X13516059Y-16171054D01*
X13455753Y-16316645D01*
X13425010Y-16471203D01*
X475000Y-16471203D01*
X475000Y-15621207D01*
X23600000Y-15621207D01*
X23600000Y-15778793D01*
X23630743Y-15933351D01*
X23691049Y-16078942D01*
X23778599Y-16209970D01*
X23890030Y-16321401D01*
X24021058Y-16408951D01*
X24166649Y-16469257D01*
X24321207Y-16500000D01*
X24478793Y-16500000D01*
X24633351Y-16469257D01*
X24778942Y-16408951D01*
X24909970Y-16321401D01*
X25021401Y-16209970D01*
X25108951Y-16078942D01*
X25169257Y-15933351D01*
X25200000Y-15778793D01*
X25200000Y-15621207D01*
X25169257Y-15466649D01*
X25108951Y-15321058D01*
X25021401Y-15190030D01*
X24909970Y-15078599D01*
X24778942Y-14991049D01*
X24633351Y-14930743D01*
X24478793Y-14900000D01*
X24321207Y-14900000D01*
X24166649Y-14930743D01*
X24021058Y-14991049D01*
X23890030Y-15078599D01*
X23778599Y-15190030D01*
X23691049Y-15321058D01*
X23630743Y-15466649D01*
X23600000Y-15621207D01*
X475000Y-15621207D01*
X475000Y-14471207D01*
X17050000Y-14471207D01*
X17050000Y-14628793D01*
X17080743Y-14783351D01*
X17141049Y-14928942D01*
X17228599Y-15059970D01*
X17340030Y-15171401D01*
X17471058Y-15258951D01*
X17616649Y-15319257D01*
X17771207Y-15350000D01*
X17928793Y-15350000D01*
X18083351Y-15319257D01*
X18228942Y-15258951D01*
X18359970Y-15171401D01*
X18471401Y-15059970D01*
X18558951Y-14928942D01*
X18619257Y-14783351D01*
X18650000Y-14628793D01*
X18650000Y-14471207D01*
X18640055Y-14421207D01*
X22400000Y-14421207D01*
X22400000Y-14578793D01*
X22430743Y-14733351D01*
X22491049Y-14878942D01*
X22578599Y-15009970D01*
X22690030Y-15121401D01*
X22821058Y-15208951D01*
X22966649Y-15269257D01*
X23121207Y-15300000D01*
X23278793Y-15300000D01*
X23433351Y-15269257D01*
X23578942Y-15208951D01*
X23709970Y-15121401D01*
X23821401Y-15009970D01*
X23908951Y-14878942D01*
X23969257Y-14733351D01*
X24000000Y-14578793D01*
X24000000Y-14421207D01*
X23969257Y-14266649D01*
X23908951Y-14121058D01*
X23821401Y-13990030D01*
X23709970Y-13878599D01*
X23578942Y-13791049D01*
X23474197Y-13747662D01*
X26425001Y-13747662D01*
X26425001Y-13905248D01*
X26455744Y-14059806D01*
X26516050Y-14205397D01*
X26603600Y-14336425D01*
X26715031Y-14447856D01*
X26846059Y-14535406D01*
X26991650Y-14595712D01*
X27146208Y-14626455D01*
X27303794Y-14626455D01*
X27458352Y-14595712D01*
X27603943Y-14535406D01*
X27734971Y-14447856D01*
X27846402Y-14336425D01*
X27933952Y-14205397D01*
X27994258Y-14059806D01*
X28025001Y-13905248D01*
X28025001Y-13747662D01*
X27994258Y-13593104D01*
X27933952Y-13447513D01*
X27846402Y-13316485D01*
X27734971Y-13205054D01*
X27603943Y-13117504D01*
X27458352Y-13057198D01*
X27303794Y-13026455D01*
X27146208Y-13026455D01*
X26991650Y-13057198D01*
X26846059Y-13117504D01*
X26715031Y-13205054D01*
X26603600Y-13316485D01*
X26516050Y-13447513D01*
X26455744Y-13593104D01*
X26425001Y-13747662D01*
X23474197Y-13747662D01*
X23433351Y-13730743D01*
X23278793Y-13700000D01*
X23121207Y-13700000D01*
X22966649Y-13730743D01*
X22821058Y-13791049D01*
X22690030Y-13878599D01*
X22578599Y-13990030D01*
X22491049Y-14121058D01*
X22430743Y-14266649D01*
X22400000Y-14421207D01*
X18640055Y-14421207D01*
X18619257Y-14316649D01*
X18558951Y-14171058D01*
X18471401Y-14040030D01*
X18359970Y-13928599D01*
X18228942Y-13841049D01*
X18083351Y-13780743D01*
X17928793Y-13750000D01*
X17771207Y-13750000D01*
X17616649Y-13780743D01*
X17471058Y-13841049D01*
X17340030Y-13928599D01*
X17228599Y-14040030D01*
X17141049Y-14171058D01*
X17080743Y-14316649D01*
X17050000Y-14471207D01*
X475000Y-14471207D01*
X475000Y-13122747D01*
X10725010Y-13122747D01*
X10725010Y-13280333D01*
X10755753Y-13434891D01*
X10816059Y-13580482D01*
X10903609Y-13711510D01*
X11015040Y-13822941D01*
X11146068Y-13910491D01*
X11291659Y-13970797D01*
X11446217Y-14001540D01*
X11603803Y-14001540D01*
X11758361Y-13970797D01*
X11903952Y-13910491D01*
X12034980Y-13822941D01*
X12146411Y-13711510D01*
X12196465Y-13636599D01*
X12205764Y-13683351D01*
X12266070Y-13828942D01*
X12353620Y-13959970D01*
X12465051Y-14071401D01*
X12596079Y-14158951D01*
X12741670Y-14219257D01*
X12896228Y-14250000D01*
X13053814Y-14250000D01*
X13208372Y-14219257D01*
X13353963Y-14158951D01*
X13484991Y-14071401D01*
X13596422Y-13959970D01*
X13683972Y-13828942D01*
X13744278Y-13683351D01*
X13775021Y-13528793D01*
X13775021Y-13371207D01*
X13744278Y-13216649D01*
X13683972Y-13071058D01*
X13596422Y-12940030D01*
X13484991Y-12828599D01*
X13473929Y-12821207D01*
X14700000Y-12821207D01*
X14700000Y-12978793D01*
X14730743Y-13133351D01*
X14791049Y-13278942D01*
X14878599Y-13409970D01*
X14990030Y-13521401D01*
X15121058Y-13608951D01*
X15266649Y-13669257D01*
X15421207Y-13700000D01*
X15578793Y-13700000D01*
X15733351Y-13669257D01*
X15878942Y-13608951D01*
X16009970Y-13521401D01*
X16121401Y-13409970D01*
X16208951Y-13278942D01*
X16269257Y-13133351D01*
X16300000Y-12978793D01*
X16300000Y-12821207D01*
X16269257Y-12666649D01*
X16208951Y-12521058D01*
X16142233Y-12421207D01*
X20700000Y-12421207D01*
X20700000Y-12578793D01*
X20730743Y-12733351D01*
X20791049Y-12878942D01*
X20878599Y-13009970D01*
X20990030Y-13121401D01*
X21121058Y-13208951D01*
X21266649Y-13269257D01*
X21421207Y-13300000D01*
X21578793Y-13300000D01*
X21733351Y-13269257D01*
X21878942Y-13208951D01*
X22009970Y-13121401D01*
X22121401Y-13009970D01*
X22208951Y-12878942D01*
X22269257Y-12733351D01*
X22291563Y-12621207D01*
X22700000Y-12621207D01*
X22700000Y-12778793D01*
X22730743Y-12933351D01*
X22791049Y-13078942D01*
X22878599Y-13209970D01*
X22990030Y-13321401D01*
X23121058Y-13408951D01*
X23266649Y-13469257D01*
X23421207Y-13500000D01*
X23578793Y-13500000D01*
X23733351Y-13469257D01*
X23878942Y-13408951D01*
X24009970Y-13321401D01*
X24121401Y-13209970D01*
X24208951Y-13078942D01*
X24269257Y-12933351D01*
X24300000Y-12778793D01*
X24300000Y-12621207D01*
X24269257Y-12466649D01*
X24208951Y-12321058D01*
X24121401Y-12190030D01*
X24009970Y-12078599D01*
X23878942Y-11991049D01*
X23733351Y-11930743D01*
X23578793Y-11900000D01*
X23421207Y-11900000D01*
X23266649Y-11930743D01*
X23121058Y-11991049D01*
X22990030Y-12078599D01*
X22878599Y-12190030D01*
X22791049Y-12321058D01*
X22730743Y-12466649D01*
X22700000Y-12621207D01*
X22291563Y-12621207D01*
X22300000Y-12578793D01*
X22300000Y-12421207D01*
X22269257Y-12266649D01*
X22208951Y-12121058D01*
X22121401Y-11990030D01*
X22009970Y-11878599D01*
X21878942Y-11791049D01*
X21733351Y-11730743D01*
X21578793Y-11700000D01*
X21421207Y-11700000D01*
X21266649Y-11730743D01*
X21121058Y-11791049D01*
X20990030Y-11878599D01*
X20878599Y-11990030D01*
X20791049Y-12121058D01*
X20730743Y-12266649D01*
X20700000Y-12421207D01*
X16142233Y-12421207D01*
X16121401Y-12390030D01*
X16009970Y-12278599D01*
X15878942Y-12191049D01*
X15733351Y-12130743D01*
X15578793Y-12100000D01*
X15421207Y-12100000D01*
X15266649Y-12130743D01*
X15121058Y-12191049D01*
X14990030Y-12278599D01*
X14878599Y-12390030D01*
X14791049Y-12521058D01*
X14730743Y-12666649D01*
X14700000Y-12821207D01*
X13473929Y-12821207D01*
X13353963Y-12741049D01*
X13208372Y-12680743D01*
X13053814Y-12650000D01*
X12896228Y-12650000D01*
X12741670Y-12680743D01*
X12596079Y-12741049D01*
X12465051Y-12828599D01*
X12353620Y-12940030D01*
X12303566Y-13014941D01*
X12294267Y-12968189D01*
X12233961Y-12822598D01*
X12146411Y-12691570D01*
X12034980Y-12580139D01*
X11903952Y-12492589D01*
X11758361Y-12432283D01*
X11603803Y-12401540D01*
X11446217Y-12401540D01*
X11291659Y-12432283D01*
X11146068Y-12492589D01*
X11015040Y-12580139D01*
X10903609Y-12691570D01*
X10816059Y-12822598D01*
X10755753Y-12968189D01*
X10725010Y-13122747D01*
X475000Y-13122747D01*
X475000Y-5420000D01*
X7318065Y-5420000D01*
X7318065Y-7120000D01*
X7325788Y-7198414D01*
X7348660Y-7273814D01*
X7385803Y-7343303D01*
X7435789Y-7404211D01*
X7496697Y-7454197D01*
X7566186Y-7491340D01*
X7641586Y-7514212D01*
X7720000Y-7521935D01*
X9420000Y-7521935D01*
X9498414Y-7514212D01*
X9573814Y-7491340D01*
X9643303Y-7454197D01*
X9704211Y-7404211D01*
X9754197Y-7343303D01*
X9791340Y-7273814D01*
X9814212Y-7198414D01*
X9821935Y-7120000D01*
X9821935Y-6270000D01*
X9853952Y-6270000D01*
X9878087Y-6515043D01*
X9949563Y-6750669D01*
X10065634Y-6967823D01*
X10221840Y-7158160D01*
X10412177Y-7314366D01*
X10629331Y-7430437D01*
X10864957Y-7501913D01*
X11048595Y-7520000D01*
X11171405Y-7520000D01*
X11355043Y-7501913D01*
X11590669Y-7430437D01*
X11807823Y-7314366D01*
X11998160Y-7158160D01*
X12154366Y-6967823D01*
X12270437Y-6750669D01*
X12290484Y-6684581D01*
X12470742Y-6684581D01*
X12574282Y-6906677D01*
X12719161Y-7104306D01*
X12899812Y-7269873D01*
X13109292Y-7397015D01*
X13235421Y-7449247D01*
X13425000Y-7397774D01*
X13425000Y-6495000D01*
X13875000Y-6495000D01*
X13875000Y-7397774D01*
X14064579Y-7449247D01*
X14190708Y-7397015D01*
X14400188Y-7269873D01*
X14580839Y-7104306D01*
X14725718Y-6906677D01*
X14829258Y-6684581D01*
X14779594Y-6495000D01*
X13875000Y-6495000D01*
X13425000Y-6495000D01*
X12520406Y-6495000D01*
X12470742Y-6684581D01*
X12290484Y-6684581D01*
X12341913Y-6515043D01*
X12366048Y-6270000D01*
X14933952Y-6270000D01*
X14958087Y-6515043D01*
X15029563Y-6750669D01*
X15145634Y-6967823D01*
X15301840Y-7158160D01*
X15492177Y-7314366D01*
X15709331Y-7430437D01*
X15944957Y-7501913D01*
X16128595Y-7520000D01*
X16251405Y-7520000D01*
X16435043Y-7501913D01*
X16670669Y-7430437D01*
X16887823Y-7314366D01*
X17078160Y-7158160D01*
X17234366Y-6967823D01*
X17350437Y-6750669D01*
X17370484Y-6684581D01*
X17550742Y-6684581D01*
X17654282Y-6906677D01*
X17799161Y-7104306D01*
X17979812Y-7269873D01*
X18189292Y-7397015D01*
X18315421Y-7449247D01*
X18419467Y-7420997D01*
X18371058Y-7441049D01*
X18240030Y-7528599D01*
X18128599Y-7640030D01*
X18041049Y-7771058D01*
X17980743Y-7916649D01*
X17950000Y-8071207D01*
X17950000Y-8228793D01*
X17980743Y-8383351D01*
X18041049Y-8528942D01*
X18128599Y-8659970D01*
X18240030Y-8771401D01*
X18371058Y-8858951D01*
X18516649Y-8919257D01*
X18671207Y-8950000D01*
X18828793Y-8950000D01*
X18847811Y-8946217D01*
X26650000Y-8946217D01*
X26650000Y-9103803D01*
X26680743Y-9258361D01*
X26741049Y-9403952D01*
X26828599Y-9534980D01*
X26940030Y-9646411D01*
X27071058Y-9733961D01*
X27216649Y-9794267D01*
X27371207Y-9825010D01*
X27528793Y-9825010D01*
X27683351Y-9794267D01*
X27828057Y-9734328D01*
X27878599Y-9809970D01*
X27990030Y-9921401D01*
X28121058Y-10008951D01*
X28266649Y-10069257D01*
X28421207Y-10100000D01*
X28578793Y-10100000D01*
X28733351Y-10069257D01*
X28878942Y-10008951D01*
X29009970Y-9921401D01*
X29121401Y-9809970D01*
X29208951Y-9678942D01*
X29269257Y-9533351D01*
X29300000Y-9378793D01*
X29300000Y-9221207D01*
X29269257Y-9066649D01*
X29208951Y-8921058D01*
X29121401Y-8790030D01*
X29009970Y-8678599D01*
X28878942Y-8591049D01*
X28733351Y-8530743D01*
X28578793Y-8500000D01*
X28421207Y-8500000D01*
X28266649Y-8530743D01*
X28121943Y-8590682D01*
X28071401Y-8515040D01*
X27959970Y-8403609D01*
X27828942Y-8316059D01*
X27683351Y-8255753D01*
X27528793Y-8225010D01*
X27371207Y-8225010D01*
X27216649Y-8255753D01*
X27071058Y-8316059D01*
X26940030Y-8403609D01*
X26828599Y-8515040D01*
X26741049Y-8646068D01*
X26680743Y-8791659D01*
X26650000Y-8946217D01*
X18847811Y-8946217D01*
X18983351Y-8919257D01*
X19128942Y-8858951D01*
X19259970Y-8771401D01*
X19371401Y-8659970D01*
X19458951Y-8528942D01*
X19519257Y-8383351D01*
X19550000Y-8228793D01*
X19550000Y-8071207D01*
X19519257Y-7916649D01*
X19458951Y-7771058D01*
X19371401Y-7640030D01*
X19259970Y-7528599D01*
X19138906Y-7447707D01*
X19144579Y-7449247D01*
X19270708Y-7397015D01*
X19480188Y-7269873D01*
X19660839Y-7104306D01*
X19805718Y-6906677D01*
X19909258Y-6684581D01*
X19859594Y-6495000D01*
X18955000Y-6495000D01*
X18955000Y-6515000D01*
X18505000Y-6515000D01*
X18505000Y-6495000D01*
X17600406Y-6495000D01*
X17550742Y-6684581D01*
X17370484Y-6684581D01*
X17421913Y-6515043D01*
X17446048Y-6270000D01*
X20013952Y-6270000D01*
X20038087Y-6515043D01*
X20109563Y-6750669D01*
X20225634Y-6967823D01*
X20381840Y-7158160D01*
X20572177Y-7314366D01*
X20789331Y-7430437D01*
X21024957Y-7501913D01*
X21208595Y-7520000D01*
X21331405Y-7520000D01*
X21515043Y-7501913D01*
X21750669Y-7430437D01*
X21967823Y-7314366D01*
X22158160Y-7158160D01*
X22314366Y-6967823D01*
X22430437Y-6750669D01*
X22501913Y-6515043D01*
X22526048Y-6270000D01*
X22553952Y-6270000D01*
X22578087Y-6515043D01*
X22649563Y-6750669D01*
X22765634Y-6967823D01*
X22921840Y-7158160D01*
X23112177Y-7314366D01*
X23329331Y-7430437D01*
X23564957Y-7501913D01*
X23748595Y-7520000D01*
X23871405Y-7520000D01*
X24055043Y-7501913D01*
X24290669Y-7430437D01*
X24507823Y-7314366D01*
X24698160Y-7158160D01*
X24854366Y-6967823D01*
X24970437Y-6750669D01*
X25041913Y-6515043D01*
X25066048Y-6270000D01*
X25093952Y-6270000D01*
X25118087Y-6515043D01*
X25189563Y-6750669D01*
X25305634Y-6967823D01*
X25461840Y-7158160D01*
X25652177Y-7314366D01*
X25869331Y-7430437D01*
X26104957Y-7501913D01*
X26288595Y-7520000D01*
X26411405Y-7520000D01*
X26595043Y-7501913D01*
X26830669Y-7430437D01*
X27047823Y-7314366D01*
X27238160Y-7158160D01*
X27394366Y-6967823D01*
X27510437Y-6750669D01*
X27581913Y-6515043D01*
X27606048Y-6270000D01*
X27633952Y-6270000D01*
X27658087Y-6515043D01*
X27729563Y-6750669D01*
X27845634Y-6967823D01*
X28001840Y-7158160D01*
X28192177Y-7314366D01*
X28409331Y-7430437D01*
X28644957Y-7501913D01*
X28828595Y-7520000D01*
X28951405Y-7520000D01*
X29135043Y-7501913D01*
X29370669Y-7430437D01*
X29587823Y-7314366D01*
X29778160Y-7158160D01*
X29934366Y-6967823D01*
X30050437Y-6750669D01*
X30121913Y-6515043D01*
X30146048Y-6270000D01*
X30173952Y-6270000D01*
X30198087Y-6515043D01*
X30269563Y-6750669D01*
X30385634Y-6967823D01*
X30541840Y-7158160D01*
X30732177Y-7314366D01*
X30949331Y-7430437D01*
X31184957Y-7501913D01*
X31368595Y-7520000D01*
X31491405Y-7520000D01*
X31675043Y-7501913D01*
X31800000Y-7464008D01*
X31800000Y-9200000D01*
X31801921Y-9219509D01*
X31807612Y-9238268D01*
X31816853Y-9255557D01*
X31829289Y-9270711D01*
X31844443Y-9283147D01*
X31861732Y-9292388D01*
X31880491Y-9298079D01*
X31900000Y-9300000D01*
X34538196Y-9300000D01*
X34810557Y-9844721D01*
X34816853Y-9855557D01*
X34829289Y-9870711D01*
X34844443Y-9883147D01*
X34861732Y-9892388D01*
X34880491Y-9898079D01*
X34900000Y-9900000D01*
X35444575Y-9900000D01*
X35915200Y-10653000D01*
X35921001Y-10661311D01*
X35934480Y-10675545D01*
X35950477Y-10686876D01*
X35968377Y-10694868D01*
X36240360Y-10785529D01*
X36600000Y-11235079D01*
X36600000Y-15869723D01*
X36246482Y-16400000D01*
X33700000Y-16400000D01*
X33680491Y-16401921D01*
X33661732Y-16407612D01*
X33644443Y-16416853D01*
X33629289Y-16429289D01*
X33616853Y-16444443D01*
X33607612Y-16461732D01*
X33601921Y-16480491D01*
X33600000Y-16500000D01*
X33600000Y-18500000D01*
X33601921Y-18519509D01*
X33607612Y-18538268D01*
X33616853Y-18555557D01*
X33629289Y-18570711D01*
X33644443Y-18583147D01*
X33661732Y-18592388D01*
X33680491Y-18598079D01*
X33700000Y-18600000D01*
X36725000Y-18600000D01*
X36749738Y-18596892D01*
X37924738Y-18296892D01*
X37938365Y-18292348D01*
X37955644Y-18283089D01*
X37970785Y-18270637D01*
X37983205Y-18255470D01*
X38583205Y-17355470D01*
X38595651Y-17329171D01*
X38599504Y-17309950D01*
X38699504Y-16309950D01*
X38700000Y-16300000D01*
X38700000Y-10200000D01*
X38696871Y-10175182D01*
X38690168Y-10156760D01*
X38680000Y-10140000D01*
X38100000Y-9366667D01*
X38100000Y-8100000D01*
X38096449Y-8073587D01*
X38089443Y-8055279D01*
X37889443Y-7655279D01*
X37880348Y-7640467D01*
X37867190Y-7625936D01*
X37851450Y-7614251D01*
X37351450Y-7314251D01*
X37338268Y-7307612D01*
X37319509Y-7301921D01*
X37300000Y-7300000D01*
X36751462Y-7300000D01*
X36293304Y-6658579D01*
X36122690Y-5878630D01*
X36117388Y-5861732D01*
X36108147Y-5844443D01*
X36095711Y-5829289D01*
X36080557Y-5816853D01*
X36063268Y-5807612D01*
X36044509Y-5801921D01*
X36025000Y-5800000D01*
X34325000Y-5800000D01*
X34313703Y-5800640D01*
X34294536Y-5804753D01*
X34276540Y-5812526D01*
X34260406Y-5823661D01*
X34246754Y-5837730D01*
X34236109Y-5854191D01*
X34228880Y-5872413D01*
X34225345Y-5891695D01*
X34107986Y-7300000D01*
X32145328Y-7300000D01*
X32318160Y-7158160D01*
X32474366Y-6967823D01*
X32590437Y-6750669D01*
X32661913Y-6515043D01*
X32686048Y-6270000D01*
X32661913Y-6024957D01*
X32590437Y-5789331D01*
X32474366Y-5572177D01*
X32318160Y-5381840D01*
X32127823Y-5225634D01*
X31910669Y-5109563D01*
X31675043Y-5038087D01*
X31491405Y-5020000D01*
X31368595Y-5020000D01*
X31184957Y-5038087D01*
X30949331Y-5109563D01*
X30732177Y-5225634D01*
X30541840Y-5381840D01*
X30385634Y-5572177D01*
X30269563Y-5789331D01*
X30198087Y-6024957D01*
X30173952Y-6270000D01*
X30146048Y-6270000D01*
X30121913Y-6024957D01*
X30050437Y-5789331D01*
X29934366Y-5572177D01*
X29778160Y-5381840D01*
X29587823Y-5225634D01*
X29370669Y-5109563D01*
X29135043Y-5038087D01*
X28951405Y-5020000D01*
X28828595Y-5020000D01*
X28644957Y-5038087D01*
X28409331Y-5109563D01*
X28192177Y-5225634D01*
X28001840Y-5381840D01*
X27845634Y-5572177D01*
X27729563Y-5789331D01*
X27658087Y-6024957D01*
X27633952Y-6270000D01*
X27606048Y-6270000D01*
X27581913Y-6024957D01*
X27510437Y-5789331D01*
X27394366Y-5572177D01*
X27238160Y-5381840D01*
X27047823Y-5225634D01*
X26830669Y-5109563D01*
X26595043Y-5038087D01*
X26411405Y-5020000D01*
X26288595Y-5020000D01*
X26104957Y-5038087D01*
X25869331Y-5109563D01*
X25652177Y-5225634D01*
X25461840Y-5381840D01*
X25305634Y-5572177D01*
X25189563Y-5789331D01*
X25118087Y-6024957D01*
X25093952Y-6270000D01*
X25066048Y-6270000D01*
X25041913Y-6024957D01*
X24970437Y-5789331D01*
X24854366Y-5572177D01*
X24698160Y-5381840D01*
X24507823Y-5225634D01*
X24290669Y-5109563D01*
X24055043Y-5038087D01*
X23871405Y-5020000D01*
X23748595Y-5020000D01*
X23564957Y-5038087D01*
X23329331Y-5109563D01*
X23112177Y-5225634D01*
X22921840Y-5381840D01*
X22765634Y-5572177D01*
X22649563Y-5789331D01*
X22578087Y-6024957D01*
X22553952Y-6270000D01*
X22526048Y-6270000D01*
X22501913Y-6024957D01*
X22430437Y-5789331D01*
X22314366Y-5572177D01*
X22158160Y-5381840D01*
X21967823Y-5225634D01*
X21750669Y-5109563D01*
X21515043Y-5038087D01*
X21331405Y-5020000D01*
X21208595Y-5020000D01*
X21024957Y-5038087D01*
X20789331Y-5109563D01*
X20572177Y-5225634D01*
X20381840Y-5381840D01*
X20225634Y-5572177D01*
X20109563Y-5789331D01*
X20038087Y-6024957D01*
X20013952Y-6270000D01*
X17446048Y-6270000D01*
X17421913Y-6024957D01*
X17370485Y-5855419D01*
X17550742Y-5855419D01*
X17600406Y-6045000D01*
X18505000Y-6045000D01*
X18505000Y-5142226D01*
X18955000Y-5142226D01*
X18955000Y-6045000D01*
X19859594Y-6045000D01*
X19909258Y-5855419D01*
X19805718Y-5633323D01*
X19660839Y-5435694D01*
X19480188Y-5270127D01*
X19270708Y-5142985D01*
X19144579Y-5090753D01*
X18955000Y-5142226D01*
X18505000Y-5142226D01*
X18315421Y-5090753D01*
X18189292Y-5142985D01*
X17979812Y-5270127D01*
X17799161Y-5435694D01*
X17654282Y-5633323D01*
X17550742Y-5855419D01*
X17370485Y-5855419D01*
X17350437Y-5789331D01*
X17234366Y-5572177D01*
X17078160Y-5381840D01*
X16887823Y-5225634D01*
X16670669Y-5109563D01*
X16435043Y-5038087D01*
X16251405Y-5020000D01*
X16128595Y-5020000D01*
X15944957Y-5038087D01*
X15709331Y-5109563D01*
X15492177Y-5225634D01*
X15301840Y-5381840D01*
X15145634Y-5572177D01*
X15029563Y-5789331D01*
X14958087Y-6024957D01*
X14933952Y-6270000D01*
X12366048Y-6270000D01*
X12341913Y-6024957D01*
X12290485Y-5855419D01*
X12470742Y-5855419D01*
X12520406Y-6045000D01*
X13425000Y-6045000D01*
X13425000Y-5142226D01*
X13875000Y-5142226D01*
X13875000Y-6045000D01*
X14779594Y-6045000D01*
X14829258Y-5855419D01*
X14725718Y-5633323D01*
X14580839Y-5435694D01*
X14400188Y-5270127D01*
X14190708Y-5142985D01*
X14064579Y-5090753D01*
X13875000Y-5142226D01*
X13425000Y-5142226D01*
X13235421Y-5090753D01*
X13109292Y-5142985D01*
X12899812Y-5270127D01*
X12719161Y-5435694D01*
X12574282Y-5633323D01*
X12470742Y-5855419D01*
X12290485Y-5855419D01*
X12270437Y-5789331D01*
X12154366Y-5572177D01*
X11998160Y-5381840D01*
X11807823Y-5225634D01*
X11590669Y-5109563D01*
X11355043Y-5038087D01*
X11171405Y-5020000D01*
X11048595Y-5020000D01*
X10864957Y-5038087D01*
X10629331Y-5109563D01*
X10412177Y-5225634D01*
X10221840Y-5381840D01*
X10065634Y-5572177D01*
X9949563Y-5789331D01*
X9878087Y-6024957D01*
X9853952Y-6270000D01*
X9821935Y-6270000D01*
X9821935Y-5420000D01*
X9814212Y-5341586D01*
X9791340Y-5266186D01*
X9754197Y-5196697D01*
X9704211Y-5135789D01*
X9643303Y-5085803D01*
X9573814Y-5048660D01*
X9498414Y-5025788D01*
X9420000Y-5018065D01*
X7720000Y-5018065D01*
X7641586Y-5025788D01*
X7566186Y-5048660D01*
X7496697Y-5085803D01*
X7435789Y-5135789D01*
X7385803Y-5196697D01*
X7348660Y-5266186D01*
X7325788Y-5341586D01*
X7318065Y-5420000D01*
X475000Y-5420000D01*
X475000Y-3730000D01*
X7313952Y-3730000D01*
X7338087Y-3975043D01*
X7409563Y-4210669D01*
X7525634Y-4427823D01*
X7681840Y-4618160D01*
X7872177Y-4774366D01*
X8089331Y-4890437D01*
X8324957Y-4961913D01*
X8508595Y-4980000D01*
X8631405Y-4980000D01*
X8815043Y-4961913D01*
X9050669Y-4890437D01*
X9267823Y-4774366D01*
X9458160Y-4618160D01*
X9614366Y-4427823D01*
X9730437Y-4210669D01*
X9801913Y-3975043D01*
X9826048Y-3730000D01*
X9853952Y-3730000D01*
X9878087Y-3975043D01*
X9949563Y-4210669D01*
X10065634Y-4427823D01*
X10221840Y-4618160D01*
X10412177Y-4774366D01*
X10629331Y-4890437D01*
X10864957Y-4961913D01*
X11048595Y-4980000D01*
X11171405Y-4980000D01*
X11355043Y-4961913D01*
X11590669Y-4890437D01*
X11807823Y-4774366D01*
X11998160Y-4618160D01*
X12154366Y-4427823D01*
X12270437Y-4210669D01*
X12341913Y-3975043D01*
X12366048Y-3730000D01*
X12393952Y-3730000D01*
X12418087Y-3975043D01*
X12489563Y-4210669D01*
X12605634Y-4427823D01*
X12761840Y-4618160D01*
X12952177Y-4774366D01*
X13169331Y-4890437D01*
X13404957Y-4961913D01*
X13588595Y-4980000D01*
X13711405Y-4980000D01*
X13895043Y-4961913D01*
X14130669Y-4890437D01*
X14347823Y-4774366D01*
X14538160Y-4618160D01*
X14694366Y-4427823D01*
X14810437Y-4210669D01*
X14830484Y-4144581D01*
X15010742Y-4144581D01*
X15114282Y-4366677D01*
X15259161Y-4564306D01*
X15439812Y-4729873D01*
X15649292Y-4857015D01*
X15775421Y-4909247D01*
X15965000Y-4857774D01*
X15965000Y-3955000D01*
X16415000Y-3955000D01*
X16415000Y-4857774D01*
X16604579Y-4909247D01*
X16730708Y-4857015D01*
X16940188Y-4729873D01*
X17120839Y-4564306D01*
X17265718Y-4366677D01*
X17369258Y-4144581D01*
X17319594Y-3955000D01*
X16415000Y-3955000D01*
X15965000Y-3955000D01*
X15060406Y-3955000D01*
X15010742Y-4144581D01*
X14830484Y-4144581D01*
X14881913Y-3975043D01*
X14906048Y-3730000D01*
X17473952Y-3730000D01*
X17498087Y-3975043D01*
X17569563Y-4210669D01*
X17685634Y-4427823D01*
X17841840Y-4618160D01*
X18032177Y-4774366D01*
X18249331Y-4890437D01*
X18484957Y-4961913D01*
X18668595Y-4980000D01*
X18791405Y-4980000D01*
X18975043Y-4961913D01*
X19210669Y-4890437D01*
X19427823Y-4774366D01*
X19618160Y-4618160D01*
X19774366Y-4427823D01*
X19890437Y-4210669D01*
X19961913Y-3975043D01*
X19986048Y-3730000D01*
X20013952Y-3730000D01*
X20038087Y-3975043D01*
X20109563Y-4210669D01*
X20225634Y-4427823D01*
X20381840Y-4618160D01*
X20572177Y-4774366D01*
X20789331Y-4890437D01*
X21024957Y-4961913D01*
X21208595Y-4980000D01*
X21331405Y-4980000D01*
X21515043Y-4961913D01*
X21750669Y-4890437D01*
X21967823Y-4774366D01*
X22158160Y-4618160D01*
X22314366Y-4427823D01*
X22430437Y-4210669D01*
X22501913Y-3975043D01*
X22526048Y-3730000D01*
X22553952Y-3730000D01*
X22578087Y-3975043D01*
X22649563Y-4210669D01*
X22765634Y-4427823D01*
X22921840Y-4618160D01*
X23112177Y-4774366D01*
X23329331Y-4890437D01*
X23564957Y-4961913D01*
X23748595Y-4980000D01*
X23871405Y-4980000D01*
X24055043Y-4961913D01*
X24290669Y-4890437D01*
X24507823Y-4774366D01*
X24698160Y-4618160D01*
X24854366Y-4427823D01*
X24970437Y-4210669D01*
X25041913Y-3975043D01*
X25066048Y-3730000D01*
X25093952Y-3730000D01*
X25118087Y-3975043D01*
X25189563Y-4210669D01*
X25305634Y-4427823D01*
X25461840Y-4618160D01*
X25652177Y-4774366D01*
X25869331Y-4890437D01*
X26104957Y-4961913D01*
X26288595Y-4980000D01*
X26411405Y-4980000D01*
X26595043Y-4961913D01*
X26830669Y-4890437D01*
X27047823Y-4774366D01*
X27238160Y-4618160D01*
X27394366Y-4427823D01*
X27510437Y-4210669D01*
X27581913Y-3975043D01*
X27606048Y-3730000D01*
X27633952Y-3730000D01*
X27658087Y-3975043D01*
X27729563Y-4210669D01*
X27845634Y-4427823D01*
X28001840Y-4618160D01*
X28192177Y-4774366D01*
X28409331Y-4890437D01*
X28644957Y-4961913D01*
X28828595Y-4980000D01*
X28951405Y-4980000D01*
X29135043Y-4961913D01*
X29370669Y-4890437D01*
X29587823Y-4774366D01*
X29778160Y-4618160D01*
X29934366Y-4427823D01*
X30050437Y-4210669D01*
X30121913Y-3975043D01*
X30146048Y-3730000D01*
X30173952Y-3730000D01*
X30198087Y-3975043D01*
X30269563Y-4210669D01*
X30385634Y-4427823D01*
X30541840Y-4618160D01*
X30732177Y-4774366D01*
X30949331Y-4890437D01*
X31184957Y-4961913D01*
X31368595Y-4980000D01*
X31491405Y-4980000D01*
X31675043Y-4961913D01*
X31910669Y-4890437D01*
X32127823Y-4774366D01*
X32318160Y-4618160D01*
X32474366Y-4427823D01*
X32590437Y-4210669D01*
X32661913Y-3975043D01*
X32686048Y-3730000D01*
X32661913Y-3484957D01*
X32590437Y-3249331D01*
X32474366Y-3032177D01*
X32318160Y-2841840D01*
X32127823Y-2685634D01*
X31910669Y-2569563D01*
X31675043Y-2498087D01*
X31491405Y-2480000D01*
X31368595Y-2480000D01*
X31184957Y-2498087D01*
X30949331Y-2569563D01*
X30732177Y-2685634D01*
X30541840Y-2841840D01*
X30385634Y-3032177D01*
X30269563Y-3249331D01*
X30198087Y-3484957D01*
X30173952Y-3730000D01*
X30146048Y-3730000D01*
X30121913Y-3484957D01*
X30050437Y-3249331D01*
X29934366Y-3032177D01*
X29778160Y-2841840D01*
X29587823Y-2685634D01*
X29370669Y-2569563D01*
X29135043Y-2498087D01*
X28951405Y-2480000D01*
X28828595Y-2480000D01*
X28644957Y-2498087D01*
X28409331Y-2569563D01*
X28192177Y-2685634D01*
X28001840Y-2841840D01*
X27845634Y-3032177D01*
X27729563Y-3249331D01*
X27658087Y-3484957D01*
X27633952Y-3730000D01*
X27606048Y-3730000D01*
X27581913Y-3484957D01*
X27510437Y-3249331D01*
X27394366Y-3032177D01*
X27238160Y-2841840D01*
X27047823Y-2685634D01*
X26830669Y-2569563D01*
X26595043Y-2498087D01*
X26411405Y-2480000D01*
X26288595Y-2480000D01*
X26104957Y-2498087D01*
X25869331Y-2569563D01*
X25652177Y-2685634D01*
X25461840Y-2841840D01*
X25305634Y-3032177D01*
X25189563Y-3249331D01*
X25118087Y-3484957D01*
X25093952Y-3730000D01*
X25066048Y-3730000D01*
X25041913Y-3484957D01*
X24970437Y-3249331D01*
X24854366Y-3032177D01*
X24698160Y-2841840D01*
X24507823Y-2685634D01*
X24290669Y-2569563D01*
X24055043Y-2498087D01*
X23871405Y-2480000D01*
X23748595Y-2480000D01*
X23564957Y-2498087D01*
X23329331Y-2569563D01*
X23112177Y-2685634D01*
X22921840Y-2841840D01*
X22765634Y-3032177D01*
X22649563Y-3249331D01*
X22578087Y-3484957D01*
X22553952Y-3730000D01*
X22526048Y-3730000D01*
X22501913Y-3484957D01*
X22430437Y-3249331D01*
X22314366Y-3032177D01*
X22158160Y-2841840D01*
X21967823Y-2685634D01*
X21750669Y-2569563D01*
X21515043Y-2498087D01*
X21331405Y-2480000D01*
X21208595Y-2480000D01*
X21024957Y-2498087D01*
X20789331Y-2569563D01*
X20572177Y-2685634D01*
X20381840Y-2841840D01*
X20225634Y-3032177D01*
X20109563Y-3249331D01*
X20038087Y-3484957D01*
X20013952Y-3730000D01*
X19986048Y-3730000D01*
X19961913Y-3484957D01*
X19890437Y-3249331D01*
X19774366Y-3032177D01*
X19618160Y-2841840D01*
X19427823Y-2685634D01*
X19210669Y-2569563D01*
X18975043Y-2498087D01*
X18791405Y-2480000D01*
X18668595Y-2480000D01*
X18484957Y-2498087D01*
X18249331Y-2569563D01*
X18032177Y-2685634D01*
X17841840Y-2841840D01*
X17685634Y-3032177D01*
X17569563Y-3249331D01*
X17498087Y-3484957D01*
X17473952Y-3730000D01*
X14906048Y-3730000D01*
X14881913Y-3484957D01*
X14830485Y-3315419D01*
X15010742Y-3315419D01*
X15060406Y-3505000D01*
X15965000Y-3505000D01*
X15965000Y-2602226D01*
X16415000Y-2602226D01*
X16415000Y-3505000D01*
X17319594Y-3505000D01*
X17369258Y-3315419D01*
X17265718Y-3093323D01*
X17120839Y-2895694D01*
X16940188Y-2730127D01*
X16730708Y-2602985D01*
X16604579Y-2550753D01*
X16415000Y-2602226D01*
X15965000Y-2602226D01*
X15775421Y-2550753D01*
X15649292Y-2602985D01*
X15439812Y-2730127D01*
X15259161Y-2895694D01*
X15114282Y-3093323D01*
X15010742Y-3315419D01*
X14830485Y-3315419D01*
X14810437Y-3249331D01*
X14694366Y-3032177D01*
X14538160Y-2841840D01*
X14347823Y-2685634D01*
X14130669Y-2569563D01*
X13895043Y-2498087D01*
X13711405Y-2480000D01*
X13588595Y-2480000D01*
X13404957Y-2498087D01*
X13169331Y-2569563D01*
X12952177Y-2685634D01*
X12761840Y-2841840D01*
X12605634Y-3032177D01*
X12489563Y-3249331D01*
X12418087Y-3484957D01*
X12393952Y-3730000D01*
X12366048Y-3730000D01*
X12341913Y-3484957D01*
X12270437Y-3249331D01*
X12154366Y-3032177D01*
X11998160Y-2841840D01*
X11807823Y-2685634D01*
X11590669Y-2569563D01*
X11355043Y-2498087D01*
X11171405Y-2480000D01*
X11048595Y-2480000D01*
X10864957Y-2498087D01*
X10629331Y-2569563D01*
X10412177Y-2685634D01*
X10221840Y-2841840D01*
X10065634Y-3032177D01*
X9949563Y-3249331D01*
X9878087Y-3484957D01*
X9853952Y-3730000D01*
X9826048Y-3730000D01*
X9801913Y-3484957D01*
X9730437Y-3249331D01*
X9614366Y-3032177D01*
X9458160Y-2841840D01*
X9267823Y-2685634D01*
X9050669Y-2569563D01*
X8815043Y-2498087D01*
X8631405Y-2480000D01*
X8508595Y-2480000D01*
X8324957Y-2498087D01*
X8089331Y-2569563D01*
X7872177Y-2685634D01*
X7681840Y-2841840D01*
X7525634Y-3032177D01*
X7409563Y-3249331D01*
X7338087Y-3484957D01*
X7313952Y-3730000D01*
X475000Y-3730000D01*
X475000Y-3023232D01*
X525323Y-2510001D01*
X667628Y-2038664D01*
X898770Y-1603947D01*
X1209950Y-1222405D01*
X1589315Y-908566D01*
X2022404Y-674396D01*
X2492736Y-528804D01*
X3004645Y-475000D01*
X36976768Y-475000D01*
X37489999Y-525323D01*
M02*
