G04 #@! TF.GenerationSoftware,KiCad,Pcbnew,(5.1.4-dirty)*
G04 #@! TF.CreationDate,2020-05-21T00:04:07+08:00*
G04 #@! TF.ProjectId,cicada-4g,63696361-6461-42d3-9467-2e6b69636164,0.1*
G04 #@! TF.SameCoordinates,PX7cee6c0PY3dfd240*
G04 #@! TF.FileFunction,Soldermask,Top*
G04 #@! TF.FilePolarity,Negative*
%FSLAX46Y46*%
G04 Gerber Fmt 4.6, Leading zero omitted, Abs format (unit mm)*
G04 Created by KiCad (PCBNEW (5.1.4-dirty)) date 2020-05-21 00:04:07*
%MOMM*%
%LPD*%
G04 APERTURE LIST*
%ADD10C,0.150000*%
G04 APERTURE END LIST*
D10*
G36*
X37802144Y-59355680D02*
G01*
X38302612Y-59562981D01*
X38753022Y-59863935D01*
X39136065Y-60246978D01*
X39437019Y-60697388D01*
X39644320Y-61197856D01*
X39750000Y-61729147D01*
X39750000Y-62270853D01*
X39644320Y-62802144D01*
X39437019Y-63302612D01*
X39136065Y-63753022D01*
X38753022Y-64136065D01*
X38302612Y-64437019D01*
X37802144Y-64644320D01*
X37270853Y-64750000D01*
X36729147Y-64750000D01*
X36197856Y-64644320D01*
X35697388Y-64437019D01*
X35246978Y-64136065D01*
X34863935Y-63753022D01*
X34562981Y-63302612D01*
X34355680Y-62802144D01*
X34250000Y-62270853D01*
X34250000Y-61729147D01*
X34355680Y-61197856D01*
X34562981Y-60697388D01*
X34863935Y-60246978D01*
X35246978Y-59863935D01*
X35697388Y-59562981D01*
X36197856Y-59355680D01*
X36729147Y-59250000D01*
X37270853Y-59250000D01*
X37802144Y-59355680D01*
X37802144Y-59355680D01*
G37*
G36*
X3802144Y-59355680D02*
G01*
X4302612Y-59562981D01*
X4753022Y-59863935D01*
X5136065Y-60246978D01*
X5437019Y-60697388D01*
X5644320Y-61197856D01*
X5750000Y-61729147D01*
X5750000Y-62270853D01*
X5644320Y-62802144D01*
X5437019Y-63302612D01*
X5136065Y-63753022D01*
X4753022Y-64136065D01*
X4302612Y-64437019D01*
X3802144Y-64644320D01*
X3270853Y-64750000D01*
X2729147Y-64750000D01*
X2197856Y-64644320D01*
X1697388Y-64437019D01*
X1246978Y-64136065D01*
X863935Y-63753022D01*
X562981Y-63302612D01*
X355680Y-62802144D01*
X250000Y-62270853D01*
X250000Y-61729147D01*
X355680Y-61197856D01*
X562981Y-60697388D01*
X863935Y-60246978D01*
X1246978Y-59863935D01*
X1697388Y-59562981D01*
X2197856Y-59355680D01*
X2729147Y-59250000D01*
X3270853Y-59250000D01*
X3802144Y-59355680D01*
X3802144Y-59355680D01*
G37*
G36*
X28018766Y-62428821D02*
G01*
X28155257Y-62485358D01*
X28278097Y-62567437D01*
X28382563Y-62671903D01*
X28464642Y-62794743D01*
X28521179Y-62931234D01*
X28550000Y-63076130D01*
X28550000Y-63223870D01*
X28521179Y-63368766D01*
X28464642Y-63505257D01*
X28382563Y-63628097D01*
X28278097Y-63732563D01*
X28155257Y-63814642D01*
X28018766Y-63871179D01*
X27873870Y-63900000D01*
X27726130Y-63900000D01*
X27581234Y-63871179D01*
X27444743Y-63814642D01*
X27321903Y-63732563D01*
X27217437Y-63628097D01*
X27135358Y-63505257D01*
X27078821Y-63368766D01*
X27050000Y-63223870D01*
X27050000Y-63076130D01*
X27078821Y-62931234D01*
X27135358Y-62794743D01*
X27217437Y-62671903D01*
X27321903Y-62567437D01*
X27444743Y-62485358D01*
X27581234Y-62428821D01*
X27726130Y-62400000D01*
X27873870Y-62400000D01*
X28018766Y-62428821D01*
X28018766Y-62428821D01*
G37*
G36*
X19336228Y-60749398D02*
G01*
X19348480Y-60750000D01*
X20272289Y-60750000D01*
X20286611Y-60767452D01*
X20305554Y-60782997D01*
X20315786Y-60789833D01*
X20315787Y-60789834D01*
X20373112Y-60828137D01*
X20421863Y-60876888D01*
X20421865Y-60876891D01*
X20467003Y-60944446D01*
X20482548Y-60963388D01*
X20500000Y-60977711D01*
X20500000Y-62622289D01*
X20482548Y-62636611D01*
X20467003Y-62655554D01*
X20460167Y-62665786D01*
X20460166Y-62665787D01*
X20421863Y-62723112D01*
X20373112Y-62771863D01*
X20315787Y-62810166D01*
X20315786Y-62810167D01*
X20305554Y-62817003D01*
X20286612Y-62832548D01*
X20272289Y-62850000D01*
X19348481Y-62850000D01*
X19336229Y-62850602D01*
X19300000Y-62854170D01*
X19263772Y-62850602D01*
X19251520Y-62850000D01*
X18200000Y-62850000D01*
X18200000Y-60750000D01*
X19251519Y-60750000D01*
X19263771Y-60749398D01*
X19300000Y-60745830D01*
X19336228Y-60749398D01*
X19336228Y-60749398D01*
G37*
G36*
X12136228Y-60749398D02*
G01*
X12148480Y-60750000D01*
X13200000Y-60750000D01*
X13200000Y-62850000D01*
X12148481Y-62850000D01*
X12136229Y-62850602D01*
X12100000Y-62854170D01*
X12063772Y-62850602D01*
X12051520Y-62850000D01*
X11127711Y-62850000D01*
X11113389Y-62832548D01*
X11094446Y-62817003D01*
X11084214Y-62810167D01*
X11084213Y-62810166D01*
X11026888Y-62771863D01*
X10978137Y-62723112D01*
X10939834Y-62665787D01*
X10939833Y-62665786D01*
X10932997Y-62655554D01*
X10917452Y-62636612D01*
X10900000Y-62622289D01*
X10900000Y-60977711D01*
X10917452Y-60963389D01*
X10932997Y-60944446D01*
X10978135Y-60876891D01*
X10978137Y-60876888D01*
X11026888Y-60828137D01*
X11084213Y-60789834D01*
X11084214Y-60789833D01*
X11094446Y-60782997D01*
X11113388Y-60767452D01*
X11127711Y-60750000D01*
X12051519Y-60750000D01*
X12063771Y-60749398D01*
X12100000Y-60745830D01*
X12136228Y-60749398D01*
X12136228Y-60749398D01*
G37*
G36*
X17850000Y-62850000D02*
G01*
X15850000Y-62850000D01*
X15850000Y-60750000D01*
X17850000Y-60750000D01*
X17850000Y-62850000D01*
X17850000Y-62850000D01*
G37*
G36*
X15550000Y-62850000D02*
G01*
X13550000Y-62850000D01*
X13550000Y-60750000D01*
X15550000Y-60750000D01*
X15550000Y-62850000D01*
X15550000Y-62850000D01*
G37*
G36*
X25550000Y-60500000D02*
G01*
X23950000Y-60500000D01*
X23950000Y-58900000D01*
X25550000Y-58900000D01*
X25550000Y-60500000D01*
X25550000Y-60500000D01*
G37*
G36*
X18247520Y-58184043D02*
G01*
X18365333Y-58219781D01*
X18473910Y-58277817D01*
X18569080Y-58355920D01*
X18647183Y-58451089D01*
X18705219Y-58559666D01*
X18740957Y-58677479D01*
X18750000Y-58769296D01*
X18750000Y-59030703D01*
X18740957Y-59122520D01*
X18705219Y-59240333D01*
X18647183Y-59348911D01*
X18569080Y-59444080D01*
X18473911Y-59522183D01*
X18365334Y-59580219D01*
X18247521Y-59615957D01*
X18125000Y-59628024D01*
X18002480Y-59615957D01*
X17884667Y-59580219D01*
X17776090Y-59522183D01*
X17680921Y-59444080D01*
X17602818Y-59348911D01*
X17544781Y-59240334D01*
X17544614Y-59239784D01*
X17535238Y-59217148D01*
X17521624Y-59196773D01*
X17504297Y-59179446D01*
X17483923Y-59165833D01*
X17461284Y-59156455D01*
X17437251Y-59151675D01*
X17412747Y-59151675D01*
X17388713Y-59156456D01*
X17366075Y-59165833D01*
X17345700Y-59179447D01*
X17328373Y-59196774D01*
X17314760Y-59217148D01*
X17305382Y-59239787D01*
X17300000Y-59276072D01*
X17300000Y-59900000D01*
X14100000Y-59900000D01*
X14100000Y-59276071D01*
X14097598Y-59251685D01*
X14090485Y-59228236D01*
X14078934Y-59206625D01*
X14063389Y-59187683D01*
X14044447Y-59172138D01*
X14022836Y-59160587D01*
X13999387Y-59153474D01*
X13975001Y-59151072D01*
X13950615Y-59153474D01*
X13927166Y-59160587D01*
X13905555Y-59172138D01*
X13886613Y-59187683D01*
X13871068Y-59206625D01*
X13855386Y-59239784D01*
X13855219Y-59240333D01*
X13797183Y-59348911D01*
X13719080Y-59444080D01*
X13623911Y-59522183D01*
X13515334Y-59580219D01*
X13397521Y-59615957D01*
X13275000Y-59628024D01*
X13152480Y-59615957D01*
X13034667Y-59580219D01*
X12926090Y-59522183D01*
X12830921Y-59444080D01*
X12752818Y-59348911D01*
X12694781Y-59240334D01*
X12659043Y-59122521D01*
X12650000Y-59030704D01*
X12650000Y-58769297D01*
X12659043Y-58677480D01*
X12694781Y-58559667D01*
X12752817Y-58451090D01*
X12830920Y-58355920D01*
X12926089Y-58277817D01*
X13034666Y-58219781D01*
X13152479Y-58184043D01*
X13275000Y-58171976D01*
X13397520Y-58184043D01*
X13515333Y-58219781D01*
X13623910Y-58277817D01*
X13719080Y-58355920D01*
X13797183Y-58451089D01*
X13855219Y-58559666D01*
X13855386Y-58560216D01*
X13864762Y-58582852D01*
X13878376Y-58603227D01*
X13895703Y-58620554D01*
X13916077Y-58634167D01*
X13938716Y-58643545D01*
X13962749Y-58648325D01*
X13987253Y-58648325D01*
X14011287Y-58643544D01*
X14033925Y-58634167D01*
X14054300Y-58620553D01*
X14071627Y-58603226D01*
X14085240Y-58582852D01*
X14094618Y-58560213D01*
X14100000Y-58523928D01*
X14100000Y-58350000D01*
X17300000Y-58350000D01*
X17300000Y-58523929D01*
X17302402Y-58548315D01*
X17309515Y-58571764D01*
X17321066Y-58593375D01*
X17336611Y-58612317D01*
X17355553Y-58627862D01*
X17377164Y-58639413D01*
X17400613Y-58646526D01*
X17424999Y-58648928D01*
X17449385Y-58646526D01*
X17472834Y-58639413D01*
X17494445Y-58627862D01*
X17513387Y-58612317D01*
X17528932Y-58593375D01*
X17544615Y-58560215D01*
X17544616Y-58560213D01*
X17544781Y-58559667D01*
X17602817Y-58451090D01*
X17680920Y-58355920D01*
X17776089Y-58277817D01*
X17884666Y-58219781D01*
X18002479Y-58184043D01*
X18125000Y-58171976D01*
X18247520Y-58184043D01*
X18247520Y-58184043D01*
G37*
G36*
X24983351Y-55430743D02*
G01*
X25128941Y-55491048D01*
X25259970Y-55578599D01*
X25371401Y-55690030D01*
X25458952Y-55821059D01*
X25519257Y-55966649D01*
X25550000Y-56121206D01*
X25550000Y-56278794D01*
X25519257Y-56433351D01*
X25458952Y-56578941D01*
X25371401Y-56709970D01*
X25259970Y-56821401D01*
X25128941Y-56908952D01*
X24983351Y-56969257D01*
X24828794Y-57000000D01*
X24671206Y-57000000D01*
X24516649Y-56969257D01*
X24371059Y-56908952D01*
X24240030Y-56821401D01*
X24128599Y-56709970D01*
X24041048Y-56578941D01*
X23980743Y-56433351D01*
X23950000Y-56278794D01*
X23950000Y-56121206D01*
X23980743Y-55966649D01*
X24041048Y-55821059D01*
X24128599Y-55690030D01*
X24240030Y-55578599D01*
X24371059Y-55491048D01*
X24516649Y-55430743D01*
X24671206Y-55400000D01*
X24828794Y-55400000D01*
X24983351Y-55430743D01*
X24983351Y-55430743D01*
G37*
G36*
X10224116Y-54828595D02*
G01*
X10253311Y-54837452D01*
X10280223Y-54851837D01*
X10303808Y-54871192D01*
X10323163Y-54894777D01*
X10337548Y-54921689D01*
X10346405Y-54950884D01*
X10350000Y-54987390D01*
X10350000Y-55612610D01*
X10346405Y-55649116D01*
X10337548Y-55678311D01*
X10323163Y-55705223D01*
X10303808Y-55728808D01*
X10280223Y-55748163D01*
X10253311Y-55762548D01*
X10224116Y-55771405D01*
X10187610Y-55775000D01*
X9637390Y-55775000D01*
X9600884Y-55771405D01*
X9571689Y-55762548D01*
X9544777Y-55748163D01*
X9521192Y-55728808D01*
X9501837Y-55705223D01*
X9487452Y-55678311D01*
X9478595Y-55649116D01*
X9475000Y-55612610D01*
X9475000Y-54987390D01*
X9478595Y-54950884D01*
X9487452Y-54921689D01*
X9501837Y-54894777D01*
X9521192Y-54871192D01*
X9544777Y-54851837D01*
X9571689Y-54837452D01*
X9600884Y-54828595D01*
X9637390Y-54825000D01*
X10187610Y-54825000D01*
X10224116Y-54828595D01*
X10224116Y-54828595D01*
G37*
G36*
X11799116Y-54828595D02*
G01*
X11828311Y-54837452D01*
X11855223Y-54851837D01*
X11878808Y-54871192D01*
X11898163Y-54894777D01*
X11912548Y-54921689D01*
X11921405Y-54950884D01*
X11925000Y-54987390D01*
X11925000Y-55612610D01*
X11921405Y-55649116D01*
X11912548Y-55678311D01*
X11898163Y-55705223D01*
X11878808Y-55728808D01*
X11855223Y-55748163D01*
X11828311Y-55762548D01*
X11799116Y-55771405D01*
X11762610Y-55775000D01*
X11212390Y-55775000D01*
X11175884Y-55771405D01*
X11146689Y-55762548D01*
X11119777Y-55748163D01*
X11096192Y-55728808D01*
X11076837Y-55705223D01*
X11062452Y-55678311D01*
X11053595Y-55649116D01*
X11050000Y-55612610D01*
X11050000Y-54987390D01*
X11053595Y-54950884D01*
X11062452Y-54921689D01*
X11076837Y-54894777D01*
X11096192Y-54871192D01*
X11119777Y-54851837D01*
X11146689Y-54837452D01*
X11175884Y-54828595D01*
X11212390Y-54825000D01*
X11762610Y-54825000D01*
X11799116Y-54828595D01*
X11799116Y-54828595D01*
G37*
G36*
X6483351Y-53930743D02*
G01*
X6628941Y-53991048D01*
X6759970Y-54078599D01*
X6871401Y-54190030D01*
X6958952Y-54321059D01*
X7019257Y-54466649D01*
X7050000Y-54621206D01*
X7050000Y-54778794D01*
X7019257Y-54933351D01*
X6958952Y-55078941D01*
X6871401Y-55209970D01*
X6759970Y-55321401D01*
X6628941Y-55408952D01*
X6483351Y-55469257D01*
X6328794Y-55500000D01*
X6171206Y-55500000D01*
X6016649Y-55469257D01*
X5871059Y-55408952D01*
X5740030Y-55321401D01*
X5628599Y-55209970D01*
X5541048Y-55078941D01*
X5480743Y-54933351D01*
X5450000Y-54778794D01*
X5450000Y-54621206D01*
X5480743Y-54466649D01*
X5541048Y-54321059D01*
X5628599Y-54190030D01*
X5740030Y-54078599D01*
X5871059Y-53991048D01*
X6016649Y-53930743D01*
X6171206Y-53900000D01*
X6328794Y-53900000D01*
X6483351Y-53930743D01*
X6483351Y-53930743D01*
G37*
G36*
X3550000Y-55500000D02*
G01*
X1950000Y-55500000D01*
X1950000Y-53900000D01*
X3550000Y-53900000D01*
X3550000Y-55500000D01*
X3550000Y-55500000D01*
G37*
G36*
X38100000Y-55450000D02*
G01*
X36500000Y-55450000D01*
X36500000Y-53850000D01*
X38100000Y-53850000D01*
X38100000Y-55450000D01*
X38100000Y-55450000D01*
G37*
G36*
X34033351Y-53880743D02*
G01*
X34178941Y-53941048D01*
X34309970Y-54028599D01*
X34421401Y-54140030D01*
X34508952Y-54271059D01*
X34569257Y-54416649D01*
X34600000Y-54571206D01*
X34600000Y-54728794D01*
X34569257Y-54883351D01*
X34508952Y-55028941D01*
X34421401Y-55159970D01*
X34309970Y-55271401D01*
X34178941Y-55358952D01*
X34033351Y-55419257D01*
X33878794Y-55450000D01*
X33721206Y-55450000D01*
X33566649Y-55419257D01*
X33421059Y-55358952D01*
X33290030Y-55271401D01*
X33178599Y-55159970D01*
X33091048Y-55028941D01*
X33030743Y-54883351D01*
X33000000Y-54728794D01*
X33000000Y-54571206D01*
X33030743Y-54416649D01*
X33091048Y-54271059D01*
X33178599Y-54140030D01*
X33290030Y-54028599D01*
X33421059Y-53941048D01*
X33566649Y-53880743D01*
X33721206Y-53850000D01*
X33878794Y-53850000D01*
X34033351Y-53880743D01*
X34033351Y-53880743D01*
G37*
G36*
X10141463Y-53582226D02*
G01*
X10157299Y-53587030D01*
X10171886Y-53594827D01*
X10184677Y-53605323D01*
X10195173Y-53618114D01*
X10202970Y-53632701D01*
X10207774Y-53648537D01*
X10210000Y-53671140D01*
X10210000Y-54128860D01*
X10207774Y-54151463D01*
X10202970Y-54167299D01*
X10195173Y-54181886D01*
X10184677Y-54194677D01*
X10171886Y-54205173D01*
X10157299Y-54212970D01*
X10141463Y-54217774D01*
X10118860Y-54220000D01*
X9711140Y-54220000D01*
X9688537Y-54217774D01*
X9672701Y-54212970D01*
X9658114Y-54205173D01*
X9645323Y-54194677D01*
X9634827Y-54181886D01*
X9627030Y-54167299D01*
X9622226Y-54151463D01*
X9620000Y-54128860D01*
X9620000Y-53671140D01*
X9622226Y-53648537D01*
X9627030Y-53632701D01*
X9634827Y-53618114D01*
X9645323Y-53605323D01*
X9658114Y-53594827D01*
X9672701Y-53587030D01*
X9688537Y-53582226D01*
X9711140Y-53580000D01*
X10118860Y-53580000D01*
X10141463Y-53582226D01*
X10141463Y-53582226D01*
G37*
G36*
X11111463Y-53582226D02*
G01*
X11127299Y-53587030D01*
X11141886Y-53594827D01*
X11154677Y-53605323D01*
X11165173Y-53618114D01*
X11172970Y-53632701D01*
X11177774Y-53648537D01*
X11180000Y-53671140D01*
X11180000Y-54128860D01*
X11177774Y-54151463D01*
X11172970Y-54167299D01*
X11165173Y-54181886D01*
X11154677Y-54194677D01*
X11141886Y-54205173D01*
X11127299Y-54212970D01*
X11111463Y-54217774D01*
X11088860Y-54220000D01*
X10681140Y-54220000D01*
X10658537Y-54217774D01*
X10642701Y-54212970D01*
X10628114Y-54205173D01*
X10615323Y-54194677D01*
X10604827Y-54181886D01*
X10597030Y-54167299D01*
X10592226Y-54151463D01*
X10590000Y-54128860D01*
X10590000Y-53671140D01*
X10592226Y-53648537D01*
X10597030Y-53632701D01*
X10604827Y-53618114D01*
X10615323Y-53605323D01*
X10628114Y-53594827D01*
X10642701Y-53587030D01*
X10658537Y-53582226D01*
X10681140Y-53580000D01*
X11088860Y-53580000D01*
X11111463Y-53582226D01*
X11111463Y-53582226D01*
G37*
G36*
X19300000Y-53600000D02*
G01*
X17100000Y-53600000D01*
X17100000Y-49700000D01*
X19300000Y-49700000D01*
X19300000Y-53600000D01*
X19300000Y-53600000D01*
G37*
G36*
X23100000Y-53600000D02*
G01*
X20900000Y-53600000D01*
X20900000Y-49700000D01*
X23100000Y-49700000D01*
X23100000Y-53600000D01*
X23100000Y-53600000D01*
G37*
G36*
X10000000Y-52000000D02*
G01*
X9000000Y-52000000D01*
X9000000Y-51000000D01*
X10000000Y-51000000D01*
X10000000Y-52000000D01*
X10000000Y-52000000D01*
G37*
G36*
X29000000Y-51300000D02*
G01*
X28000000Y-51300000D01*
X28000000Y-50300000D01*
X29000000Y-50300000D01*
X29000000Y-51300000D01*
X29000000Y-51300000D01*
G37*
G36*
X11500000Y-51100000D02*
G01*
X10450000Y-51100000D01*
X10450000Y-48900000D01*
X11500000Y-48900000D01*
X11500000Y-51100000D01*
X11500000Y-51100000D01*
G37*
G36*
X8550000Y-51100000D02*
G01*
X7500000Y-51100000D01*
X7500000Y-48900000D01*
X8550000Y-48900000D01*
X8550000Y-51100000D01*
X8550000Y-51100000D01*
G37*
G36*
X27550000Y-50400000D02*
G01*
X26500000Y-50400000D01*
X26500000Y-48200000D01*
X27550000Y-48200000D01*
X27550000Y-50400000D01*
X27550000Y-50400000D01*
G37*
G36*
X30500000Y-50400000D02*
G01*
X29450000Y-50400000D01*
X29450000Y-48200000D01*
X30500000Y-48200000D01*
X30500000Y-50400000D01*
X30500000Y-50400000D01*
G37*
G36*
X10000000Y-49000000D02*
G01*
X9000000Y-49000000D01*
X9000000Y-48000000D01*
X10000000Y-48000000D01*
X10000000Y-49000000D01*
X10000000Y-49000000D01*
G37*
G36*
X21650735Y-48447209D02*
G01*
X21000735Y-48447209D01*
X21000735Y-47227209D01*
X21650735Y-47227209D01*
X21650735Y-48447209D01*
X21650735Y-48447209D01*
G37*
G36*
X19750735Y-48447209D02*
G01*
X19100735Y-48447209D01*
X19100735Y-47227209D01*
X19750735Y-47227209D01*
X19750735Y-48447209D01*
X19750735Y-48447209D01*
G37*
G36*
X20700735Y-48447209D02*
G01*
X20050735Y-48447209D01*
X20050735Y-47227209D01*
X20700735Y-47227209D01*
X20700735Y-48447209D01*
X20700735Y-48447209D01*
G37*
G36*
X18249116Y-47566095D02*
G01*
X18278311Y-47574952D01*
X18305223Y-47589337D01*
X18328808Y-47608692D01*
X18348163Y-47632277D01*
X18362548Y-47659189D01*
X18371405Y-47688384D01*
X18375000Y-47724890D01*
X18375000Y-48275110D01*
X18371405Y-48311616D01*
X18362548Y-48340811D01*
X18348163Y-48367723D01*
X18328808Y-48391308D01*
X18305223Y-48410663D01*
X18278311Y-48425048D01*
X18249116Y-48433905D01*
X18212610Y-48437500D01*
X17587390Y-48437500D01*
X17550884Y-48433905D01*
X17521689Y-48425048D01*
X17494777Y-48410663D01*
X17471192Y-48391308D01*
X17451837Y-48367723D01*
X17437452Y-48340811D01*
X17428595Y-48311616D01*
X17425000Y-48275110D01*
X17425000Y-47724890D01*
X17428595Y-47688384D01*
X17437452Y-47659189D01*
X17451837Y-47632277D01*
X17471192Y-47608692D01*
X17494777Y-47589337D01*
X17521689Y-47574952D01*
X17550884Y-47566095D01*
X17587390Y-47562500D01*
X18212610Y-47562500D01*
X18249116Y-47566095D01*
X18249116Y-47566095D01*
G37*
G36*
X16753991Y-47454075D02*
G01*
X16787879Y-47464355D01*
X16819112Y-47481050D01*
X16846486Y-47503514D01*
X16868950Y-47530888D01*
X16885645Y-47562121D01*
X16895925Y-47596009D01*
X16900000Y-47637388D01*
X16900000Y-48237612D01*
X16895925Y-48278991D01*
X16885645Y-48312879D01*
X16868950Y-48344112D01*
X16846486Y-48371486D01*
X16819112Y-48393950D01*
X16787879Y-48410645D01*
X16753991Y-48420925D01*
X16712612Y-48425000D01*
X15687388Y-48425000D01*
X15646009Y-48420925D01*
X15612121Y-48410645D01*
X15580888Y-48393950D01*
X15553514Y-48371486D01*
X15531050Y-48344112D01*
X15514355Y-48312879D01*
X15504075Y-48278991D01*
X15500000Y-48237612D01*
X15500000Y-47637388D01*
X15504075Y-47596009D01*
X15514355Y-47562121D01*
X15531050Y-47530888D01*
X15553514Y-47503514D01*
X15580888Y-47481050D01*
X15612121Y-47464355D01*
X15646009Y-47454075D01*
X15687388Y-47450000D01*
X16712612Y-47450000D01*
X16753991Y-47454075D01*
X16753991Y-47454075D01*
G37*
G36*
X29000000Y-48300000D02*
G01*
X28000000Y-48300000D01*
X28000000Y-47300000D01*
X29000000Y-47300000D01*
X29000000Y-48300000D01*
X29000000Y-48300000D01*
G37*
G36*
X13927200Y-46819435D02*
G01*
X13943036Y-46824239D01*
X13957623Y-46832036D01*
X13970414Y-46842532D01*
X13980910Y-46855323D01*
X13988707Y-46869910D01*
X13993511Y-46885746D01*
X13995737Y-46908349D01*
X13995737Y-47316069D01*
X13993511Y-47338672D01*
X13988707Y-47354508D01*
X13980910Y-47369095D01*
X13970414Y-47381886D01*
X13957623Y-47392382D01*
X13943036Y-47400179D01*
X13927200Y-47404983D01*
X13904597Y-47407209D01*
X13446877Y-47407209D01*
X13424274Y-47404983D01*
X13408438Y-47400179D01*
X13393851Y-47392382D01*
X13381060Y-47381886D01*
X13370564Y-47369095D01*
X13362767Y-47354508D01*
X13357963Y-47338672D01*
X13355737Y-47316069D01*
X13355737Y-46908349D01*
X13357963Y-46885746D01*
X13362767Y-46869910D01*
X13370564Y-46855323D01*
X13381060Y-46842532D01*
X13393851Y-46832036D01*
X13408438Y-46824239D01*
X13424274Y-46819435D01*
X13446877Y-46817209D01*
X13904597Y-46817209D01*
X13927200Y-46819435D01*
X13927200Y-46819435D01*
G37*
G36*
X14927199Y-46819435D02*
G01*
X14943035Y-46824239D01*
X14957622Y-46832036D01*
X14970413Y-46842532D01*
X14980909Y-46855323D01*
X14988706Y-46869910D01*
X14993510Y-46885746D01*
X14995736Y-46908349D01*
X14995736Y-47316069D01*
X14993510Y-47338672D01*
X14988706Y-47354508D01*
X14980909Y-47369095D01*
X14970413Y-47381886D01*
X14957622Y-47392382D01*
X14943035Y-47400179D01*
X14927199Y-47404983D01*
X14904596Y-47407209D01*
X14446876Y-47407209D01*
X14424273Y-47404983D01*
X14408437Y-47400179D01*
X14393850Y-47392382D01*
X14381059Y-47381886D01*
X14370563Y-47369095D01*
X14362766Y-47354508D01*
X14357962Y-47338672D01*
X14355736Y-47316069D01*
X14355736Y-46908349D01*
X14357962Y-46885746D01*
X14362766Y-46869910D01*
X14370563Y-46855323D01*
X14381059Y-46842532D01*
X14393850Y-46832036D01*
X14408437Y-46824239D01*
X14424273Y-46819435D01*
X14446876Y-46817209D01*
X14904596Y-46817209D01*
X14927199Y-46819435D01*
X14927199Y-46819435D01*
G37*
G36*
X23224852Y-46093301D02*
G01*
X23254047Y-46102158D01*
X23280959Y-46116543D01*
X23304544Y-46135898D01*
X23323899Y-46159483D01*
X23338284Y-46186395D01*
X23347141Y-46215590D01*
X23350736Y-46252096D01*
X23350736Y-46802316D01*
X23347141Y-46838822D01*
X23338284Y-46868017D01*
X23323899Y-46894929D01*
X23304544Y-46918514D01*
X23280959Y-46937869D01*
X23254047Y-46952254D01*
X23224852Y-46961111D01*
X23188346Y-46964706D01*
X22563126Y-46964706D01*
X22526620Y-46961111D01*
X22497425Y-46952254D01*
X22470513Y-46937869D01*
X22446928Y-46918514D01*
X22427573Y-46894929D01*
X22413188Y-46868017D01*
X22404331Y-46838822D01*
X22400736Y-46802316D01*
X22400736Y-46252096D01*
X22404331Y-46215590D01*
X22413188Y-46186395D01*
X22427573Y-46159483D01*
X22446928Y-46135898D01*
X22470513Y-46116543D01*
X22497425Y-46102158D01*
X22526620Y-46093301D01*
X22563126Y-46089706D01*
X23188346Y-46089706D01*
X23224852Y-46093301D01*
X23224852Y-46093301D01*
G37*
G36*
X25129726Y-45981283D02*
G01*
X25163614Y-45991563D01*
X25194847Y-46008258D01*
X25222221Y-46030722D01*
X25244685Y-46058096D01*
X25261380Y-46089329D01*
X25271660Y-46123217D01*
X25275735Y-46164596D01*
X25275735Y-46764820D01*
X25271660Y-46806199D01*
X25261380Y-46840087D01*
X25244685Y-46871320D01*
X25222221Y-46898694D01*
X25194847Y-46921158D01*
X25163614Y-46937853D01*
X25129726Y-46948133D01*
X25088347Y-46952208D01*
X24063123Y-46952208D01*
X24021744Y-46948133D01*
X23987856Y-46937853D01*
X23956623Y-46921158D01*
X23929249Y-46898694D01*
X23906785Y-46871320D01*
X23890090Y-46840087D01*
X23879810Y-46806199D01*
X23875735Y-46764820D01*
X23875735Y-46164596D01*
X23879810Y-46123217D01*
X23890090Y-46089329D01*
X23906785Y-46058096D01*
X23929249Y-46030722D01*
X23956623Y-46008258D01*
X23987856Y-45991563D01*
X24021744Y-45981283D01*
X24063123Y-45977208D01*
X25088347Y-45977208D01*
X25129726Y-45981283D01*
X25129726Y-45981283D01*
G37*
G36*
X18249116Y-45991095D02*
G01*
X18278311Y-45999952D01*
X18305223Y-46014337D01*
X18328808Y-46033692D01*
X18348163Y-46057277D01*
X18362548Y-46084189D01*
X18371405Y-46113384D01*
X18375000Y-46149890D01*
X18375000Y-46700110D01*
X18371405Y-46736616D01*
X18362548Y-46765811D01*
X18348163Y-46792723D01*
X18328808Y-46816308D01*
X18305223Y-46835663D01*
X18278311Y-46850048D01*
X18249116Y-46858905D01*
X18212610Y-46862500D01*
X17587390Y-46862500D01*
X17550884Y-46858905D01*
X17521689Y-46850048D01*
X17494777Y-46835663D01*
X17471192Y-46816308D01*
X17451837Y-46792723D01*
X17437452Y-46765811D01*
X17428595Y-46736616D01*
X17425000Y-46700110D01*
X17425000Y-46149890D01*
X17428595Y-46113384D01*
X17437452Y-46084189D01*
X17451837Y-46057277D01*
X17471192Y-46033692D01*
X17494777Y-46014337D01*
X17521689Y-45999952D01*
X17550884Y-45991095D01*
X17587390Y-45987500D01*
X18212610Y-45987500D01*
X18249116Y-45991095D01*
X18249116Y-45991095D01*
G37*
G36*
X38100000Y-46850000D02*
G01*
X36500000Y-46850000D01*
X36500000Y-45250000D01*
X38100000Y-45250000D01*
X38100000Y-46850000D01*
X38100000Y-46850000D01*
G37*
G36*
X34033351Y-45280743D02*
G01*
X34178941Y-45341048D01*
X34309970Y-45428599D01*
X34421401Y-45540030D01*
X34508952Y-45671059D01*
X34569257Y-45816649D01*
X34600000Y-45971206D01*
X34600000Y-46128794D01*
X34569257Y-46283351D01*
X34508952Y-46428941D01*
X34421401Y-46559970D01*
X34309970Y-46671401D01*
X34178941Y-46758952D01*
X34033351Y-46819257D01*
X33878794Y-46850000D01*
X33721206Y-46850000D01*
X33566649Y-46819257D01*
X33421059Y-46758952D01*
X33290030Y-46671401D01*
X33178599Y-46559970D01*
X33091048Y-46428941D01*
X33030743Y-46283351D01*
X33000000Y-46128794D01*
X33000000Y-45971206D01*
X33030743Y-45816649D01*
X33091048Y-45671059D01*
X33178599Y-45540030D01*
X33290030Y-45428599D01*
X33421059Y-45341048D01*
X33566649Y-45280743D01*
X33721206Y-45250000D01*
X33878794Y-45250000D01*
X34033351Y-45280743D01*
X34033351Y-45280743D01*
G37*
G36*
X27776463Y-45982226D02*
G01*
X27792299Y-45987030D01*
X27806886Y-45994827D01*
X27819677Y-46005323D01*
X27830173Y-46018114D01*
X27837970Y-46032701D01*
X27842774Y-46048537D01*
X27845000Y-46071140D01*
X27845000Y-46528860D01*
X27842774Y-46551463D01*
X27837970Y-46567299D01*
X27830173Y-46581886D01*
X27819677Y-46594677D01*
X27806886Y-46605173D01*
X27792299Y-46612970D01*
X27776463Y-46617774D01*
X27753860Y-46620000D01*
X27346140Y-46620000D01*
X27323537Y-46617774D01*
X27307701Y-46612970D01*
X27293114Y-46605173D01*
X27280323Y-46594677D01*
X27269827Y-46581886D01*
X27262030Y-46567299D01*
X27257226Y-46551463D01*
X27255000Y-46528860D01*
X27255000Y-46071140D01*
X27257226Y-46048537D01*
X27262030Y-46032701D01*
X27269827Y-46018114D01*
X27280323Y-46005323D01*
X27293114Y-45994827D01*
X27307701Y-45987030D01*
X27323537Y-45982226D01*
X27346140Y-45980000D01*
X27753860Y-45980000D01*
X27776463Y-45982226D01*
X27776463Y-45982226D01*
G37*
G36*
X26806463Y-45982226D02*
G01*
X26822299Y-45987030D01*
X26836886Y-45994827D01*
X26849677Y-46005323D01*
X26860173Y-46018114D01*
X26867970Y-46032701D01*
X26872774Y-46048537D01*
X26875000Y-46071140D01*
X26875000Y-46528860D01*
X26872774Y-46551463D01*
X26867970Y-46567299D01*
X26860173Y-46581886D01*
X26849677Y-46594677D01*
X26836886Y-46605173D01*
X26822299Y-46612970D01*
X26806463Y-46617774D01*
X26783860Y-46620000D01*
X26376140Y-46620000D01*
X26353537Y-46617774D01*
X26337701Y-46612970D01*
X26323114Y-46605173D01*
X26310323Y-46594677D01*
X26299827Y-46581886D01*
X26292030Y-46567299D01*
X26287226Y-46551463D01*
X26285000Y-46528860D01*
X26285000Y-46071140D01*
X26287226Y-46048537D01*
X26292030Y-46032701D01*
X26299827Y-46018114D01*
X26310323Y-46005323D01*
X26323114Y-45994827D01*
X26337701Y-45987030D01*
X26353537Y-45982226D01*
X26376140Y-45980000D01*
X26783860Y-45980000D01*
X26806463Y-45982226D01*
X26806463Y-45982226D01*
G37*
G36*
X28751463Y-46027226D02*
G01*
X28767299Y-46032030D01*
X28781886Y-46039827D01*
X28794677Y-46050323D01*
X28805173Y-46063114D01*
X28812970Y-46077701D01*
X28817774Y-46093537D01*
X28820000Y-46116140D01*
X28820000Y-46523860D01*
X28817774Y-46546463D01*
X28812970Y-46562299D01*
X28805173Y-46576886D01*
X28794677Y-46589677D01*
X28781886Y-46600173D01*
X28767299Y-46607970D01*
X28751463Y-46612774D01*
X28728860Y-46615000D01*
X28271140Y-46615000D01*
X28248537Y-46612774D01*
X28232701Y-46607970D01*
X28218114Y-46600173D01*
X28205323Y-46589677D01*
X28194827Y-46576886D01*
X28187030Y-46562299D01*
X28182226Y-46546463D01*
X28180000Y-46523860D01*
X28180000Y-46116140D01*
X28182226Y-46093537D01*
X28187030Y-46077701D01*
X28194827Y-46063114D01*
X28205323Y-46050323D01*
X28218114Y-46039827D01*
X28232701Y-46032030D01*
X28248537Y-46027226D01*
X28271140Y-46025000D01*
X28728860Y-46025000D01*
X28751463Y-46027226D01*
X28751463Y-46027226D01*
G37*
G36*
X10676463Y-45932226D02*
G01*
X10692299Y-45937030D01*
X10706886Y-45944827D01*
X10719677Y-45955323D01*
X10730173Y-45968114D01*
X10737970Y-45982701D01*
X10742774Y-45998537D01*
X10745000Y-46021140D01*
X10745000Y-46478860D01*
X10742774Y-46501463D01*
X10737970Y-46517299D01*
X10730173Y-46531886D01*
X10719677Y-46544677D01*
X10706886Y-46555173D01*
X10692299Y-46562970D01*
X10676463Y-46567774D01*
X10653860Y-46570000D01*
X10246140Y-46570000D01*
X10223537Y-46567774D01*
X10207701Y-46562970D01*
X10193114Y-46555173D01*
X10180323Y-46544677D01*
X10169827Y-46531886D01*
X10162030Y-46517299D01*
X10157226Y-46501463D01*
X10155000Y-46478860D01*
X10155000Y-46021140D01*
X10157226Y-45998537D01*
X10162030Y-45982701D01*
X10169827Y-45968114D01*
X10180323Y-45955323D01*
X10193114Y-45944827D01*
X10207701Y-45937030D01*
X10223537Y-45932226D01*
X10246140Y-45930000D01*
X10653860Y-45930000D01*
X10676463Y-45932226D01*
X10676463Y-45932226D01*
G37*
G36*
X11646463Y-45932226D02*
G01*
X11662299Y-45937030D01*
X11676886Y-45944827D01*
X11689677Y-45955323D01*
X11700173Y-45968114D01*
X11707970Y-45982701D01*
X11712774Y-45998537D01*
X11715000Y-46021140D01*
X11715000Y-46478860D01*
X11712774Y-46501463D01*
X11707970Y-46517299D01*
X11700173Y-46531886D01*
X11689677Y-46544677D01*
X11676886Y-46555173D01*
X11662299Y-46562970D01*
X11646463Y-46567774D01*
X11623860Y-46570000D01*
X11216140Y-46570000D01*
X11193537Y-46567774D01*
X11177701Y-46562970D01*
X11163114Y-46555173D01*
X11150323Y-46544677D01*
X11139827Y-46531886D01*
X11132030Y-46517299D01*
X11127226Y-46501463D01*
X11125000Y-46478860D01*
X11125000Y-46021140D01*
X11127226Y-45998537D01*
X11132030Y-45982701D01*
X11139827Y-45968114D01*
X11150323Y-45955323D01*
X11163114Y-45944827D01*
X11177701Y-45937030D01*
X11193537Y-45932226D01*
X11216140Y-45930000D01*
X11623860Y-45930000D01*
X11646463Y-45932226D01*
X11646463Y-45932226D01*
G37*
G36*
X9751463Y-45977226D02*
G01*
X9767299Y-45982030D01*
X9781886Y-45989827D01*
X9794677Y-46000323D01*
X9805173Y-46013114D01*
X9812970Y-46027701D01*
X9817774Y-46043537D01*
X9820000Y-46066140D01*
X9820000Y-46473860D01*
X9817774Y-46496463D01*
X9812970Y-46512299D01*
X9805173Y-46526886D01*
X9794677Y-46539677D01*
X9781886Y-46550173D01*
X9767299Y-46557970D01*
X9751463Y-46562774D01*
X9728860Y-46565000D01*
X9271140Y-46565000D01*
X9248537Y-46562774D01*
X9232701Y-46557970D01*
X9218114Y-46550173D01*
X9205323Y-46539677D01*
X9194827Y-46526886D01*
X9187030Y-46512299D01*
X9182226Y-46496463D01*
X9180000Y-46473860D01*
X9180000Y-46066140D01*
X9182226Y-46043537D01*
X9187030Y-46027701D01*
X9194827Y-46013114D01*
X9205323Y-46000323D01*
X9218114Y-45989827D01*
X9232701Y-45982030D01*
X9248537Y-45977226D01*
X9271140Y-45975000D01*
X9728860Y-45975000D01*
X9751463Y-45977226D01*
X9751463Y-45977226D01*
G37*
G36*
X16753991Y-45579075D02*
G01*
X16787879Y-45589355D01*
X16819112Y-45606050D01*
X16846486Y-45628514D01*
X16868950Y-45655888D01*
X16885645Y-45687121D01*
X16895925Y-45721009D01*
X16900000Y-45762388D01*
X16900000Y-46362612D01*
X16895925Y-46403991D01*
X16885645Y-46437879D01*
X16868950Y-46469112D01*
X16846486Y-46496486D01*
X16819112Y-46518950D01*
X16787879Y-46535645D01*
X16753991Y-46545925D01*
X16712612Y-46550000D01*
X15687388Y-46550000D01*
X15646009Y-46545925D01*
X15612121Y-46535645D01*
X15580888Y-46518950D01*
X15553514Y-46496486D01*
X15531050Y-46469112D01*
X15514355Y-46437879D01*
X15504075Y-46403991D01*
X15500000Y-46362612D01*
X15500000Y-45762388D01*
X15504075Y-45721009D01*
X15514355Y-45687121D01*
X15531050Y-45655888D01*
X15553514Y-45628514D01*
X15580888Y-45606050D01*
X15612121Y-45589355D01*
X15646009Y-45579075D01*
X15687388Y-45575000D01*
X16712612Y-45575000D01*
X16753991Y-45579075D01*
X16753991Y-45579075D01*
G37*
G36*
X13927200Y-45849435D02*
G01*
X13943036Y-45854239D01*
X13957623Y-45862036D01*
X13970414Y-45872532D01*
X13980910Y-45885323D01*
X13988707Y-45899910D01*
X13993511Y-45915746D01*
X13995737Y-45938349D01*
X13995737Y-46346069D01*
X13993511Y-46368672D01*
X13988707Y-46384508D01*
X13980910Y-46399095D01*
X13970414Y-46411886D01*
X13957623Y-46422382D01*
X13943036Y-46430179D01*
X13927200Y-46434983D01*
X13904597Y-46437209D01*
X13446877Y-46437209D01*
X13424274Y-46434983D01*
X13408438Y-46430179D01*
X13393851Y-46422382D01*
X13381060Y-46411886D01*
X13370564Y-46399095D01*
X13362767Y-46384508D01*
X13357963Y-46368672D01*
X13355737Y-46346069D01*
X13355737Y-45938349D01*
X13357963Y-45915746D01*
X13362767Y-45899910D01*
X13370564Y-45885323D01*
X13381060Y-45872532D01*
X13393851Y-45862036D01*
X13408438Y-45854239D01*
X13424274Y-45849435D01*
X13446877Y-45847209D01*
X13904597Y-45847209D01*
X13927200Y-45849435D01*
X13927200Y-45849435D01*
G37*
G36*
X14927199Y-45849435D02*
G01*
X14943035Y-45854239D01*
X14957622Y-45862036D01*
X14970413Y-45872532D01*
X14980909Y-45885323D01*
X14988706Y-45899910D01*
X14993510Y-45915746D01*
X14995736Y-45938349D01*
X14995736Y-46346069D01*
X14993510Y-46368672D01*
X14988706Y-46384508D01*
X14980909Y-46399095D01*
X14970413Y-46411886D01*
X14957622Y-46422382D01*
X14943035Y-46430179D01*
X14927199Y-46434983D01*
X14904596Y-46437209D01*
X14446876Y-46437209D01*
X14424273Y-46434983D01*
X14408437Y-46430179D01*
X14393850Y-46422382D01*
X14381059Y-46411886D01*
X14370563Y-46399095D01*
X14362766Y-46384508D01*
X14357962Y-46368672D01*
X14355736Y-46346069D01*
X14355736Y-45938349D01*
X14357962Y-45915746D01*
X14362766Y-45899910D01*
X14370563Y-45885323D01*
X14381059Y-45872532D01*
X14393850Y-45862036D01*
X14408437Y-45854239D01*
X14424273Y-45849435D01*
X14446876Y-45847209D01*
X14904596Y-45847209D01*
X14927199Y-45849435D01*
X14927199Y-45849435D01*
G37*
G36*
X3500000Y-46100000D02*
G01*
X1900000Y-46100000D01*
X1900000Y-44500000D01*
X3500000Y-44500000D01*
X3500000Y-46100000D01*
X3500000Y-46100000D01*
G37*
G36*
X6433351Y-44530743D02*
G01*
X6578941Y-44591048D01*
X6709970Y-44678599D01*
X6821401Y-44790030D01*
X6908952Y-44921059D01*
X6969257Y-45066649D01*
X7000000Y-45221204D01*
X7000000Y-45378794D01*
X6969257Y-45533351D01*
X6908952Y-45678941D01*
X6821401Y-45809970D01*
X6709970Y-45921401D01*
X6578941Y-46008952D01*
X6433351Y-46069257D01*
X6278794Y-46100000D01*
X6121206Y-46100000D01*
X5966649Y-46069257D01*
X5821059Y-46008952D01*
X5690030Y-45921401D01*
X5578599Y-45809970D01*
X5491048Y-45678941D01*
X5430743Y-45533351D01*
X5400000Y-45378794D01*
X5400000Y-45221204D01*
X5430743Y-45066649D01*
X5491048Y-44921059D01*
X5578599Y-44790030D01*
X5690030Y-44678599D01*
X5821059Y-44591048D01*
X5966649Y-44530743D01*
X6121206Y-44500000D01*
X6278794Y-44500000D01*
X6433351Y-44530743D01*
X6433351Y-44530743D01*
G37*
G36*
X19750735Y-45827209D02*
G01*
X19100735Y-45827209D01*
X19100735Y-44607209D01*
X19750735Y-44607209D01*
X19750735Y-45827209D01*
X19750735Y-45827209D01*
G37*
G36*
X21650735Y-45827209D02*
G01*
X21000735Y-45827209D01*
X21000735Y-44607209D01*
X21650735Y-44607209D01*
X21650735Y-45827209D01*
X21650735Y-45827209D01*
G37*
G36*
X26806463Y-45032226D02*
G01*
X26822299Y-45037030D01*
X26836886Y-45044827D01*
X26849677Y-45055323D01*
X26860173Y-45068114D01*
X26867970Y-45082701D01*
X26872774Y-45098537D01*
X26875000Y-45121140D01*
X26875000Y-45578860D01*
X26872774Y-45601463D01*
X26867970Y-45617299D01*
X26860173Y-45631886D01*
X26849677Y-45644677D01*
X26836886Y-45655173D01*
X26822299Y-45662970D01*
X26806463Y-45667774D01*
X26783860Y-45670000D01*
X26376140Y-45670000D01*
X26353537Y-45667774D01*
X26337701Y-45662970D01*
X26323114Y-45655173D01*
X26310323Y-45644677D01*
X26299827Y-45631886D01*
X26292030Y-45617299D01*
X26287226Y-45601463D01*
X26285000Y-45578860D01*
X26285000Y-45121140D01*
X26287226Y-45098537D01*
X26292030Y-45082701D01*
X26299827Y-45068114D01*
X26310323Y-45055323D01*
X26323114Y-45044827D01*
X26337701Y-45037030D01*
X26353537Y-45032226D01*
X26376140Y-45030000D01*
X26783860Y-45030000D01*
X26806463Y-45032226D01*
X26806463Y-45032226D01*
G37*
G36*
X27776463Y-45032226D02*
G01*
X27792299Y-45037030D01*
X27806886Y-45044827D01*
X27819677Y-45055323D01*
X27830173Y-45068114D01*
X27837970Y-45082701D01*
X27842774Y-45098537D01*
X27845000Y-45121140D01*
X27845000Y-45578860D01*
X27842774Y-45601463D01*
X27837970Y-45617299D01*
X27830173Y-45631886D01*
X27819677Y-45644677D01*
X27806886Y-45655173D01*
X27792299Y-45662970D01*
X27776463Y-45667774D01*
X27753860Y-45670000D01*
X27346140Y-45670000D01*
X27323537Y-45667774D01*
X27307701Y-45662970D01*
X27293114Y-45655173D01*
X27280323Y-45644677D01*
X27269827Y-45631886D01*
X27262030Y-45617299D01*
X27257226Y-45601463D01*
X27255000Y-45578860D01*
X27255000Y-45121140D01*
X27257226Y-45098537D01*
X27262030Y-45082701D01*
X27269827Y-45068114D01*
X27280323Y-45055323D01*
X27293114Y-45044827D01*
X27307701Y-45037030D01*
X27323537Y-45032226D01*
X27346140Y-45030000D01*
X27753860Y-45030000D01*
X27776463Y-45032226D01*
X27776463Y-45032226D01*
G37*
G36*
X28751463Y-45057226D02*
G01*
X28767299Y-45062030D01*
X28781886Y-45069827D01*
X28794677Y-45080323D01*
X28805173Y-45093114D01*
X28812970Y-45107701D01*
X28817774Y-45123537D01*
X28820000Y-45146140D01*
X28820000Y-45553860D01*
X28817774Y-45576463D01*
X28812970Y-45592299D01*
X28805173Y-45606886D01*
X28794677Y-45619677D01*
X28781886Y-45630173D01*
X28767299Y-45637970D01*
X28751463Y-45642774D01*
X28728860Y-45645000D01*
X28271140Y-45645000D01*
X28248537Y-45642774D01*
X28232701Y-45637970D01*
X28218114Y-45630173D01*
X28205323Y-45619677D01*
X28194827Y-45606886D01*
X28187030Y-45592299D01*
X28182226Y-45576463D01*
X28180000Y-45553860D01*
X28180000Y-45146140D01*
X28182226Y-45123537D01*
X28187030Y-45107701D01*
X28194827Y-45093114D01*
X28205323Y-45080323D01*
X28218114Y-45069827D01*
X28232701Y-45062030D01*
X28248537Y-45057226D01*
X28271140Y-45055000D01*
X28728860Y-45055000D01*
X28751463Y-45057226D01*
X28751463Y-45057226D01*
G37*
G36*
X11661463Y-44982226D02*
G01*
X11677299Y-44987030D01*
X11691886Y-44994827D01*
X11704677Y-45005323D01*
X11715173Y-45018114D01*
X11722970Y-45032701D01*
X11727774Y-45048537D01*
X11730000Y-45071140D01*
X11730000Y-45528860D01*
X11727774Y-45551463D01*
X11722970Y-45567299D01*
X11715173Y-45581886D01*
X11704677Y-45594677D01*
X11691886Y-45605173D01*
X11677299Y-45612970D01*
X11661463Y-45617774D01*
X11638860Y-45620000D01*
X11231140Y-45620000D01*
X11208537Y-45617774D01*
X11192701Y-45612970D01*
X11178114Y-45605173D01*
X11165323Y-45594677D01*
X11154827Y-45581886D01*
X11147030Y-45567299D01*
X11142226Y-45551463D01*
X11140000Y-45528860D01*
X11140000Y-45071140D01*
X11142226Y-45048537D01*
X11147030Y-45032701D01*
X11154827Y-45018114D01*
X11165323Y-45005323D01*
X11178114Y-44994827D01*
X11192701Y-44987030D01*
X11208537Y-44982226D01*
X11231140Y-44980000D01*
X11638860Y-44980000D01*
X11661463Y-44982226D01*
X11661463Y-44982226D01*
G37*
G36*
X10691463Y-44982226D02*
G01*
X10707299Y-44987030D01*
X10721886Y-44994827D01*
X10734677Y-45005323D01*
X10745173Y-45018114D01*
X10752970Y-45032701D01*
X10757774Y-45048537D01*
X10760000Y-45071140D01*
X10760000Y-45528860D01*
X10757774Y-45551463D01*
X10752970Y-45567299D01*
X10745173Y-45581886D01*
X10734677Y-45594677D01*
X10721886Y-45605173D01*
X10707299Y-45612970D01*
X10691463Y-45617774D01*
X10668860Y-45620000D01*
X10261140Y-45620000D01*
X10238537Y-45617774D01*
X10222701Y-45612970D01*
X10208114Y-45605173D01*
X10195323Y-45594677D01*
X10184827Y-45581886D01*
X10177030Y-45567299D01*
X10172226Y-45551463D01*
X10170000Y-45528860D01*
X10170000Y-45071140D01*
X10172226Y-45048537D01*
X10177030Y-45032701D01*
X10184827Y-45018114D01*
X10195323Y-45005323D01*
X10208114Y-44994827D01*
X10222701Y-44987030D01*
X10238537Y-44982226D01*
X10261140Y-44980000D01*
X10668860Y-44980000D01*
X10691463Y-44982226D01*
X10691463Y-44982226D01*
G37*
G36*
X9751463Y-45007226D02*
G01*
X9767299Y-45012030D01*
X9781886Y-45019827D01*
X9794677Y-45030323D01*
X9805173Y-45043114D01*
X9812970Y-45057701D01*
X9817774Y-45073537D01*
X9820000Y-45096140D01*
X9820000Y-45503860D01*
X9817774Y-45526463D01*
X9812970Y-45542299D01*
X9805173Y-45556886D01*
X9794677Y-45569677D01*
X9781886Y-45580173D01*
X9767299Y-45587970D01*
X9751463Y-45592774D01*
X9728860Y-45595000D01*
X9271140Y-45595000D01*
X9248537Y-45592774D01*
X9232701Y-45587970D01*
X9218114Y-45580173D01*
X9205323Y-45569677D01*
X9194827Y-45556886D01*
X9187030Y-45542299D01*
X9182226Y-45526463D01*
X9180000Y-45503860D01*
X9180000Y-45096140D01*
X9182226Y-45073537D01*
X9187030Y-45057701D01*
X9194827Y-45043114D01*
X9205323Y-45030323D01*
X9218114Y-45019827D01*
X9232701Y-45012030D01*
X9248537Y-45007226D01*
X9271140Y-45005000D01*
X9728860Y-45005000D01*
X9751463Y-45007226D01*
X9751463Y-45007226D01*
G37*
G36*
X23224852Y-44518301D02*
G01*
X23254047Y-44527158D01*
X23280959Y-44541543D01*
X23304544Y-44560898D01*
X23323899Y-44584483D01*
X23338284Y-44611395D01*
X23347141Y-44640590D01*
X23350736Y-44677096D01*
X23350736Y-45227316D01*
X23347141Y-45263822D01*
X23338284Y-45293017D01*
X23323899Y-45319929D01*
X23304544Y-45343514D01*
X23280959Y-45362869D01*
X23254047Y-45377254D01*
X23224852Y-45386111D01*
X23188346Y-45389706D01*
X22563126Y-45389706D01*
X22526620Y-45386111D01*
X22497425Y-45377254D01*
X22470513Y-45362869D01*
X22446928Y-45343514D01*
X22427573Y-45319929D01*
X22413188Y-45293017D01*
X22404331Y-45263822D01*
X22400736Y-45227316D01*
X22400736Y-44677096D01*
X22404331Y-44640590D01*
X22413188Y-44611395D01*
X22427573Y-44584483D01*
X22446928Y-44560898D01*
X22470513Y-44541543D01*
X22497425Y-44527158D01*
X22526620Y-44518301D01*
X22563126Y-44514706D01*
X23188346Y-44514706D01*
X23224852Y-44518301D01*
X23224852Y-44518301D01*
G37*
G36*
X14917199Y-44482226D02*
G01*
X14933035Y-44487030D01*
X14947622Y-44494827D01*
X14960413Y-44505323D01*
X14970909Y-44518114D01*
X14978706Y-44532701D01*
X14983510Y-44548537D01*
X14985736Y-44571140D01*
X14985736Y-45028860D01*
X14983510Y-45051463D01*
X14978706Y-45067299D01*
X14970909Y-45081886D01*
X14960413Y-45094677D01*
X14947622Y-45105173D01*
X14933035Y-45112970D01*
X14917199Y-45117774D01*
X14894596Y-45120000D01*
X14486876Y-45120000D01*
X14464273Y-45117774D01*
X14448437Y-45112970D01*
X14433850Y-45105173D01*
X14421059Y-45094677D01*
X14410563Y-45081886D01*
X14402766Y-45067299D01*
X14397962Y-45051463D01*
X14395736Y-45028860D01*
X14395736Y-44571140D01*
X14397962Y-44548537D01*
X14402766Y-44532701D01*
X14410563Y-44518114D01*
X14421059Y-44505323D01*
X14433850Y-44494827D01*
X14448437Y-44487030D01*
X14464273Y-44482226D01*
X14486876Y-44480000D01*
X14894596Y-44480000D01*
X14917199Y-44482226D01*
X14917199Y-44482226D01*
G37*
G36*
X15887199Y-44482226D02*
G01*
X15903035Y-44487030D01*
X15917622Y-44494827D01*
X15930413Y-44505323D01*
X15940909Y-44518114D01*
X15948706Y-44532701D01*
X15953510Y-44548537D01*
X15955736Y-44571140D01*
X15955736Y-45028860D01*
X15953510Y-45051463D01*
X15948706Y-45067299D01*
X15940909Y-45081886D01*
X15930413Y-45094677D01*
X15917622Y-45105173D01*
X15903035Y-45112970D01*
X15887199Y-45117774D01*
X15864596Y-45120000D01*
X15456876Y-45120000D01*
X15434273Y-45117774D01*
X15418437Y-45112970D01*
X15403850Y-45105173D01*
X15391059Y-45094677D01*
X15380563Y-45081886D01*
X15372766Y-45067299D01*
X15367962Y-45051463D01*
X15365736Y-45028860D01*
X15365736Y-44571140D01*
X15367962Y-44548537D01*
X15372766Y-44532701D01*
X15380563Y-44518114D01*
X15391059Y-44505323D01*
X15403850Y-44494827D01*
X15418437Y-44487030D01*
X15434273Y-44482226D01*
X15456876Y-44480000D01*
X15864596Y-44480000D01*
X15887199Y-44482226D01*
X15887199Y-44482226D01*
G37*
G36*
X25129726Y-44106283D02*
G01*
X25163614Y-44116563D01*
X25194847Y-44133258D01*
X25222221Y-44155722D01*
X25244685Y-44183096D01*
X25261380Y-44214329D01*
X25271660Y-44248217D01*
X25275735Y-44289596D01*
X25275735Y-44889820D01*
X25271660Y-44931199D01*
X25261380Y-44965087D01*
X25244685Y-44996320D01*
X25222221Y-45023694D01*
X25194847Y-45046158D01*
X25163614Y-45062853D01*
X25129726Y-45073133D01*
X25088347Y-45077208D01*
X24063123Y-45077208D01*
X24021744Y-45073133D01*
X23987856Y-45062853D01*
X23956623Y-45046158D01*
X23929249Y-45023694D01*
X23906785Y-44996320D01*
X23890090Y-44965087D01*
X23879810Y-44931199D01*
X23875735Y-44889820D01*
X23875735Y-44289596D01*
X23879810Y-44248217D01*
X23890090Y-44214329D01*
X23906785Y-44183096D01*
X23929249Y-44155722D01*
X23956623Y-44133258D01*
X23987856Y-44116563D01*
X24021744Y-44106283D01*
X24063123Y-44102208D01*
X25088347Y-44102208D01*
X25129726Y-44106283D01*
X25129726Y-44106283D01*
G37*
G36*
X28751463Y-44127226D02*
G01*
X28767299Y-44132030D01*
X28781886Y-44139827D01*
X28794677Y-44150323D01*
X28805173Y-44163114D01*
X28812970Y-44177701D01*
X28817774Y-44193537D01*
X28820000Y-44216140D01*
X28820000Y-44623860D01*
X28817774Y-44646463D01*
X28812970Y-44662299D01*
X28805173Y-44676886D01*
X28794677Y-44689677D01*
X28781886Y-44700173D01*
X28767299Y-44707970D01*
X28751463Y-44712774D01*
X28728860Y-44715000D01*
X28271140Y-44715000D01*
X28248537Y-44712774D01*
X28232701Y-44707970D01*
X28218114Y-44700173D01*
X28205323Y-44689677D01*
X28194827Y-44676886D01*
X28187030Y-44662299D01*
X28182226Y-44646463D01*
X28180000Y-44623860D01*
X28180000Y-44216140D01*
X28182226Y-44193537D01*
X28187030Y-44177701D01*
X28194827Y-44163114D01*
X28205323Y-44150323D01*
X28218114Y-44139827D01*
X28232701Y-44132030D01*
X28248537Y-44127226D01*
X28271140Y-44125000D01*
X28728860Y-44125000D01*
X28751463Y-44127226D01*
X28751463Y-44127226D01*
G37*
G36*
X9751463Y-44092226D02*
G01*
X9767299Y-44097030D01*
X9781886Y-44104827D01*
X9794677Y-44115323D01*
X9805173Y-44128114D01*
X9812970Y-44142701D01*
X9817774Y-44158537D01*
X9820000Y-44181140D01*
X9820000Y-44588860D01*
X9817774Y-44611463D01*
X9812970Y-44627299D01*
X9805173Y-44641886D01*
X9794677Y-44654677D01*
X9781886Y-44665173D01*
X9767299Y-44672970D01*
X9751463Y-44677774D01*
X9728860Y-44680000D01*
X9271140Y-44680000D01*
X9248537Y-44677774D01*
X9232701Y-44672970D01*
X9218114Y-44665173D01*
X9205323Y-44654677D01*
X9194827Y-44641886D01*
X9187030Y-44627299D01*
X9182226Y-44611463D01*
X9180000Y-44588860D01*
X9180000Y-44181140D01*
X9182226Y-44158537D01*
X9187030Y-44142701D01*
X9194827Y-44128114D01*
X9205323Y-44115323D01*
X9218114Y-44104827D01*
X9232701Y-44097030D01*
X9248537Y-44092226D01*
X9271140Y-44090000D01*
X9728860Y-44090000D01*
X9751463Y-44092226D01*
X9751463Y-44092226D01*
G37*
G36*
X20526463Y-43182226D02*
G01*
X20542299Y-43187030D01*
X20556886Y-43194827D01*
X20569677Y-43205323D01*
X20580173Y-43218114D01*
X20587970Y-43232701D01*
X20592774Y-43248537D01*
X20595000Y-43271140D01*
X20595000Y-43728860D01*
X20592774Y-43751463D01*
X20587970Y-43767299D01*
X20580173Y-43781886D01*
X20569677Y-43794677D01*
X20556886Y-43805173D01*
X20542299Y-43812970D01*
X20526463Y-43817774D01*
X20503860Y-43820000D01*
X20096140Y-43820000D01*
X20073537Y-43817774D01*
X20057701Y-43812970D01*
X20043114Y-43805173D01*
X20030323Y-43794677D01*
X20019827Y-43781886D01*
X20012030Y-43767299D01*
X20007226Y-43751463D01*
X20005000Y-43728860D01*
X20005000Y-43271140D01*
X20007226Y-43248537D01*
X20012030Y-43232701D01*
X20019827Y-43218114D01*
X20030323Y-43205323D01*
X20043114Y-43194827D01*
X20057701Y-43187030D01*
X20073537Y-43182226D01*
X20096140Y-43180000D01*
X20503860Y-43180000D01*
X20526463Y-43182226D01*
X20526463Y-43182226D01*
G37*
G36*
X19556463Y-43182226D02*
G01*
X19572299Y-43187030D01*
X19586886Y-43194827D01*
X19599677Y-43205323D01*
X19610173Y-43218114D01*
X19617970Y-43232701D01*
X19622774Y-43248537D01*
X19625000Y-43271140D01*
X19625000Y-43728860D01*
X19622774Y-43751463D01*
X19617970Y-43767299D01*
X19610173Y-43781886D01*
X19599677Y-43794677D01*
X19586886Y-43805173D01*
X19572299Y-43812970D01*
X19556463Y-43817774D01*
X19533860Y-43820000D01*
X19126140Y-43820000D01*
X19103537Y-43817774D01*
X19087701Y-43812970D01*
X19073114Y-43805173D01*
X19060323Y-43794677D01*
X19049827Y-43781886D01*
X19042030Y-43767299D01*
X19037226Y-43751463D01*
X19035000Y-43728860D01*
X19035000Y-43271140D01*
X19037226Y-43248537D01*
X19042030Y-43232701D01*
X19049827Y-43218114D01*
X19060323Y-43205323D01*
X19073114Y-43194827D01*
X19087701Y-43187030D01*
X19103537Y-43182226D01*
X19126140Y-43180000D01*
X19533860Y-43180000D01*
X19556463Y-43182226D01*
X19556463Y-43182226D01*
G37*
G36*
X27811463Y-43132226D02*
G01*
X27827299Y-43137030D01*
X27841886Y-43144827D01*
X27854677Y-43155323D01*
X27865173Y-43168114D01*
X27872970Y-43182701D01*
X27877774Y-43198537D01*
X27880000Y-43221140D01*
X27880000Y-43678860D01*
X27877774Y-43701463D01*
X27872970Y-43717299D01*
X27865173Y-43731886D01*
X27854677Y-43744677D01*
X27841886Y-43755173D01*
X27827299Y-43762970D01*
X27811463Y-43767774D01*
X27788860Y-43770000D01*
X27381140Y-43770000D01*
X27358537Y-43767774D01*
X27342701Y-43762970D01*
X27328114Y-43755173D01*
X27315323Y-43744677D01*
X27304827Y-43731886D01*
X27297030Y-43717299D01*
X27292226Y-43701463D01*
X27290000Y-43678860D01*
X27290000Y-43221140D01*
X27292226Y-43198537D01*
X27297030Y-43182701D01*
X27304827Y-43168114D01*
X27315323Y-43155323D01*
X27328114Y-43144827D01*
X27342701Y-43137030D01*
X27358537Y-43132226D01*
X27381140Y-43130000D01*
X27788860Y-43130000D01*
X27811463Y-43132226D01*
X27811463Y-43132226D01*
G37*
G36*
X26841463Y-43132226D02*
G01*
X26857299Y-43137030D01*
X26871886Y-43144827D01*
X26884677Y-43155323D01*
X26895173Y-43168114D01*
X26902970Y-43182701D01*
X26907774Y-43198537D01*
X26910000Y-43221140D01*
X26910000Y-43678860D01*
X26907774Y-43701463D01*
X26902970Y-43717299D01*
X26895173Y-43731886D01*
X26884677Y-43744677D01*
X26871886Y-43755173D01*
X26857299Y-43762970D01*
X26841463Y-43767774D01*
X26818860Y-43770000D01*
X26411140Y-43770000D01*
X26388537Y-43767774D01*
X26372701Y-43762970D01*
X26358114Y-43755173D01*
X26345323Y-43744677D01*
X26334827Y-43731886D01*
X26327030Y-43717299D01*
X26322226Y-43701463D01*
X26320000Y-43678860D01*
X26320000Y-43221140D01*
X26322226Y-43198537D01*
X26327030Y-43182701D01*
X26334827Y-43168114D01*
X26345323Y-43155323D01*
X26358114Y-43144827D01*
X26372701Y-43137030D01*
X26388537Y-43132226D01*
X26411140Y-43130000D01*
X26818860Y-43130000D01*
X26841463Y-43132226D01*
X26841463Y-43132226D01*
G37*
G36*
X28751463Y-43157226D02*
G01*
X28767299Y-43162030D01*
X28781886Y-43169827D01*
X28794677Y-43180323D01*
X28805173Y-43193114D01*
X28812970Y-43207701D01*
X28817774Y-43223537D01*
X28820000Y-43246140D01*
X28820000Y-43653860D01*
X28817774Y-43676463D01*
X28812970Y-43692299D01*
X28805173Y-43706886D01*
X28794677Y-43719677D01*
X28781886Y-43730173D01*
X28767299Y-43737970D01*
X28751463Y-43742774D01*
X28728860Y-43745000D01*
X28271140Y-43745000D01*
X28248537Y-43742774D01*
X28232701Y-43737970D01*
X28218114Y-43730173D01*
X28205323Y-43719677D01*
X28194827Y-43706886D01*
X28187030Y-43692299D01*
X28182226Y-43676463D01*
X28180000Y-43653860D01*
X28180000Y-43246140D01*
X28182226Y-43223537D01*
X28187030Y-43207701D01*
X28194827Y-43193114D01*
X28205323Y-43180323D01*
X28218114Y-43169827D01*
X28232701Y-43162030D01*
X28248537Y-43157226D01*
X28271140Y-43155000D01*
X28728860Y-43155000D01*
X28751463Y-43157226D01*
X28751463Y-43157226D01*
G37*
G36*
X11611463Y-43082226D02*
G01*
X11627299Y-43087030D01*
X11641886Y-43094827D01*
X11654677Y-43105323D01*
X11665173Y-43118114D01*
X11672970Y-43132701D01*
X11677774Y-43148537D01*
X11680000Y-43171140D01*
X11680000Y-43628860D01*
X11677774Y-43651463D01*
X11672970Y-43667299D01*
X11665173Y-43681886D01*
X11654677Y-43694677D01*
X11641886Y-43705173D01*
X11627299Y-43712970D01*
X11611463Y-43717774D01*
X11588860Y-43720000D01*
X11181140Y-43720000D01*
X11158537Y-43717774D01*
X11142701Y-43712970D01*
X11128114Y-43705173D01*
X11115323Y-43694677D01*
X11104827Y-43681886D01*
X11097030Y-43667299D01*
X11092226Y-43651463D01*
X11090000Y-43628860D01*
X11090000Y-43171140D01*
X11092226Y-43148537D01*
X11097030Y-43132701D01*
X11104827Y-43118114D01*
X11115323Y-43105323D01*
X11128114Y-43094827D01*
X11142701Y-43087030D01*
X11158537Y-43082226D01*
X11181140Y-43080000D01*
X11588860Y-43080000D01*
X11611463Y-43082226D01*
X11611463Y-43082226D01*
G37*
G36*
X10641463Y-43082226D02*
G01*
X10657299Y-43087030D01*
X10671886Y-43094827D01*
X10684677Y-43105323D01*
X10695173Y-43118114D01*
X10702970Y-43132701D01*
X10707774Y-43148537D01*
X10710000Y-43171140D01*
X10710000Y-43628860D01*
X10707774Y-43651463D01*
X10702970Y-43667299D01*
X10695173Y-43681886D01*
X10684677Y-43694677D01*
X10671886Y-43705173D01*
X10657299Y-43712970D01*
X10641463Y-43717774D01*
X10618860Y-43720000D01*
X10211140Y-43720000D01*
X10188537Y-43717774D01*
X10172701Y-43712970D01*
X10158114Y-43705173D01*
X10145323Y-43694677D01*
X10134827Y-43681886D01*
X10127030Y-43667299D01*
X10122226Y-43651463D01*
X10120000Y-43628860D01*
X10120000Y-43171140D01*
X10122226Y-43148537D01*
X10127030Y-43132701D01*
X10134827Y-43118114D01*
X10145323Y-43105323D01*
X10158114Y-43094827D01*
X10172701Y-43087030D01*
X10188537Y-43082226D01*
X10211140Y-43080000D01*
X10618860Y-43080000D01*
X10641463Y-43082226D01*
X10641463Y-43082226D01*
G37*
G36*
X9751463Y-43122226D02*
G01*
X9767299Y-43127030D01*
X9781886Y-43134827D01*
X9794677Y-43145323D01*
X9805173Y-43158114D01*
X9812970Y-43172701D01*
X9817774Y-43188537D01*
X9820000Y-43211140D01*
X9820000Y-43618860D01*
X9817774Y-43641463D01*
X9812970Y-43657299D01*
X9805173Y-43671886D01*
X9794677Y-43684677D01*
X9781886Y-43695173D01*
X9767299Y-43702970D01*
X9751463Y-43707774D01*
X9728860Y-43710000D01*
X9271140Y-43710000D01*
X9248537Y-43707774D01*
X9232701Y-43702970D01*
X9218114Y-43695173D01*
X9205323Y-43684677D01*
X9194827Y-43671886D01*
X9187030Y-43657299D01*
X9182226Y-43641463D01*
X9180000Y-43618860D01*
X9180000Y-43211140D01*
X9182226Y-43188537D01*
X9187030Y-43172701D01*
X9194827Y-43158114D01*
X9205323Y-43145323D01*
X9218114Y-43134827D01*
X9232701Y-43127030D01*
X9248537Y-43122226D01*
X9271140Y-43120000D01*
X9728860Y-43120000D01*
X9751463Y-43122226D01*
X9751463Y-43122226D01*
G37*
G36*
X9799720Y-41999490D02*
G01*
X9200280Y-41999490D01*
X9200280Y-40000510D01*
X9799720Y-40000510D01*
X9799720Y-41999490D01*
X9799720Y-41999490D01*
G37*
G36*
X11799720Y-41999490D02*
G01*
X11200280Y-41999490D01*
X11200280Y-40000510D01*
X11799720Y-40000510D01*
X11799720Y-41999490D01*
X11799720Y-41999490D01*
G37*
G36*
X10799720Y-41999490D02*
G01*
X10200280Y-41999490D01*
X10200280Y-40000510D01*
X10799720Y-40000510D01*
X10799720Y-41999490D01*
X10799720Y-41999490D01*
G37*
G36*
X20800820Y-41992990D02*
G01*
X20201380Y-41992990D01*
X20201380Y-39994010D01*
X20800820Y-39994010D01*
X20800820Y-41992990D01*
X20800820Y-41992990D01*
G37*
G36*
X12799820Y-41992990D02*
G01*
X12200380Y-41992990D01*
X12200380Y-39994010D01*
X12799820Y-39994010D01*
X12799820Y-41992990D01*
X12799820Y-41992990D01*
G37*
G36*
X14801340Y-41992990D02*
G01*
X14201900Y-41992990D01*
X14201900Y-39994010D01*
X14801340Y-39994010D01*
X14801340Y-41992990D01*
X14801340Y-41992990D01*
G37*
G36*
X15802100Y-41992990D02*
G01*
X15202660Y-41992990D01*
X15202660Y-39994010D01*
X15802100Y-39994010D01*
X15802100Y-41992990D01*
X15802100Y-41992990D01*
G37*
G36*
X16800320Y-41992990D02*
G01*
X16200880Y-41992990D01*
X16200880Y-39994010D01*
X16800320Y-39994010D01*
X16800320Y-41992990D01*
X16800320Y-41992990D01*
G37*
G36*
X17801080Y-41992990D02*
G01*
X17201640Y-41992990D01*
X17201640Y-39994010D01*
X17801080Y-39994010D01*
X17801080Y-41992990D01*
X17801080Y-41992990D01*
G37*
G36*
X18801840Y-41992990D02*
G01*
X18202400Y-41992990D01*
X18202400Y-39994010D01*
X18801840Y-39994010D01*
X18801840Y-41992990D01*
X18801840Y-41992990D01*
G37*
G36*
X19800060Y-41992990D02*
G01*
X19200620Y-41992990D01*
X19200620Y-39994010D01*
X19800060Y-39994010D01*
X19800060Y-41992990D01*
X19800060Y-41992990D01*
G37*
G36*
X13800580Y-41992990D02*
G01*
X13201140Y-41992990D01*
X13201140Y-39994010D01*
X13800580Y-39994010D01*
X13800580Y-41992990D01*
X13800580Y-41992990D01*
G37*
G36*
X22799800Y-41992990D02*
G01*
X22200360Y-41992990D01*
X22200360Y-39994010D01*
X22799800Y-39994010D01*
X22799800Y-41992990D01*
X22799800Y-41992990D01*
G37*
G36*
X23798020Y-41992990D02*
G01*
X23198580Y-41992990D01*
X23198580Y-39994010D01*
X23798020Y-39994010D01*
X23798020Y-41992990D01*
X23798020Y-41992990D01*
G37*
G36*
X24798780Y-41992990D02*
G01*
X24199340Y-41992990D01*
X24199340Y-39994010D01*
X24798780Y-39994010D01*
X24798780Y-41992990D01*
X24798780Y-41992990D01*
G37*
G36*
X26797760Y-41992990D02*
G01*
X26198320Y-41992990D01*
X26198320Y-39994010D01*
X26797760Y-39994010D01*
X26797760Y-41992990D01*
X26797760Y-41992990D01*
G37*
G36*
X27798520Y-41992990D02*
G01*
X27199080Y-41992990D01*
X27199080Y-39994010D01*
X27798520Y-39994010D01*
X27798520Y-41992990D01*
X27798520Y-41992990D01*
G37*
G36*
X28799280Y-41992990D02*
G01*
X28199840Y-41992990D01*
X28199840Y-39994010D01*
X28799280Y-39994010D01*
X28799280Y-41992990D01*
X28799280Y-41992990D01*
G37*
G36*
X29797500Y-41992990D02*
G01*
X29198060Y-41992990D01*
X29198060Y-39994010D01*
X29797500Y-39994010D01*
X29797500Y-41992990D01*
X29797500Y-41992990D01*
G37*
G36*
X30798260Y-41992990D02*
G01*
X30198820Y-41992990D01*
X30198820Y-39994010D01*
X30798260Y-39994010D01*
X30798260Y-41992990D01*
X30798260Y-41992990D01*
G37*
G36*
X25799540Y-41992990D02*
G01*
X25200100Y-41992990D01*
X25200100Y-39994010D01*
X25799540Y-39994010D01*
X25799540Y-41992990D01*
X25799540Y-41992990D01*
G37*
G36*
X21801580Y-41992990D02*
G01*
X21202140Y-41992990D01*
X21202140Y-39994010D01*
X21801580Y-39994010D01*
X21801580Y-41992990D01*
X21801580Y-41992990D01*
G37*
G36*
X5999490Y-36799720D02*
G01*
X4000510Y-36799720D01*
X4000510Y-36200280D01*
X5999490Y-36200280D01*
X5999490Y-36799720D01*
X5999490Y-36799720D01*
G37*
G36*
X35995590Y-36799720D02*
G01*
X33996610Y-36799720D01*
X33996610Y-36200280D01*
X35995590Y-36200280D01*
X35995590Y-36799720D01*
X35995590Y-36799720D01*
G37*
G36*
X2649116Y-35853595D02*
G01*
X2678311Y-35862452D01*
X2705223Y-35876837D01*
X2728808Y-35896192D01*
X2748163Y-35919777D01*
X2762548Y-35946689D01*
X2771405Y-35975884D01*
X2775000Y-36012390D01*
X2775000Y-36562610D01*
X2771405Y-36599116D01*
X2762548Y-36628311D01*
X2748163Y-36655223D01*
X2728808Y-36678808D01*
X2705223Y-36698163D01*
X2678311Y-36712548D01*
X2649116Y-36721405D01*
X2612610Y-36725000D01*
X1987390Y-36725000D01*
X1950884Y-36721405D01*
X1921689Y-36712548D01*
X1894777Y-36698163D01*
X1871192Y-36678808D01*
X1851837Y-36655223D01*
X1837452Y-36628311D01*
X1828595Y-36599116D01*
X1825000Y-36562610D01*
X1825000Y-36012390D01*
X1828595Y-35975884D01*
X1837452Y-35946689D01*
X1851837Y-35919777D01*
X1871192Y-35896192D01*
X1894777Y-35876837D01*
X1921689Y-35862452D01*
X1950884Y-35853595D01*
X1987390Y-35850000D01*
X2612610Y-35850000D01*
X2649116Y-35853595D01*
X2649116Y-35853595D01*
G37*
G36*
X38049116Y-35853595D02*
G01*
X38078311Y-35862452D01*
X38105223Y-35876837D01*
X38128808Y-35896192D01*
X38148163Y-35919777D01*
X38162548Y-35946689D01*
X38171405Y-35975884D01*
X38175000Y-36012390D01*
X38175000Y-36562610D01*
X38171405Y-36599116D01*
X38162548Y-36628311D01*
X38148163Y-36655223D01*
X38128808Y-36678808D01*
X38105223Y-36698163D01*
X38078311Y-36712548D01*
X38049116Y-36721405D01*
X38012610Y-36725000D01*
X37387390Y-36725000D01*
X37350884Y-36721405D01*
X37321689Y-36712548D01*
X37294777Y-36698163D01*
X37271192Y-36678808D01*
X37251837Y-36655223D01*
X37237452Y-36628311D01*
X37228595Y-36599116D01*
X37225000Y-36562610D01*
X37225000Y-36012390D01*
X37228595Y-35975884D01*
X37237452Y-35946689D01*
X37251837Y-35919777D01*
X37271192Y-35896192D01*
X37294777Y-35876837D01*
X37321689Y-35862452D01*
X37350884Y-35853595D01*
X37387390Y-35850000D01*
X38012610Y-35850000D01*
X38049116Y-35853595D01*
X38049116Y-35853595D01*
G37*
G36*
X35995590Y-35798980D02*
G01*
X33996610Y-35798980D01*
X33996610Y-35199540D01*
X35995590Y-35199540D01*
X35995590Y-35798980D01*
X35995590Y-35798980D01*
G37*
G36*
X6000790Y-35798180D02*
G01*
X4001810Y-35798180D01*
X4001810Y-35198740D01*
X6000790Y-35198740D01*
X6000790Y-35798180D01*
X6000790Y-35798180D01*
G37*
G36*
X38049116Y-34278595D02*
G01*
X38078311Y-34287452D01*
X38105223Y-34301837D01*
X38128808Y-34321192D01*
X38148163Y-34344777D01*
X38162548Y-34371689D01*
X38171405Y-34400884D01*
X38175000Y-34437390D01*
X38175000Y-34987610D01*
X38171405Y-35024116D01*
X38162548Y-35053311D01*
X38148163Y-35080223D01*
X38128808Y-35103808D01*
X38105223Y-35123163D01*
X38078311Y-35137548D01*
X38049116Y-35146405D01*
X38012610Y-35150000D01*
X37387390Y-35150000D01*
X37350884Y-35146405D01*
X37321689Y-35137548D01*
X37294777Y-35123163D01*
X37271192Y-35103808D01*
X37251837Y-35080223D01*
X37237452Y-35053311D01*
X37228595Y-35024116D01*
X37225000Y-34987610D01*
X37225000Y-34437390D01*
X37228595Y-34400884D01*
X37237452Y-34371689D01*
X37251837Y-34344777D01*
X37271192Y-34321192D01*
X37294777Y-34301837D01*
X37321689Y-34287452D01*
X37350884Y-34278595D01*
X37387390Y-34275000D01*
X38012610Y-34275000D01*
X38049116Y-34278595D01*
X38049116Y-34278595D01*
G37*
G36*
X2649116Y-34278595D02*
G01*
X2678311Y-34287452D01*
X2705223Y-34301837D01*
X2728808Y-34321192D01*
X2748163Y-34344777D01*
X2762548Y-34371689D01*
X2771405Y-34400884D01*
X2775000Y-34437390D01*
X2775000Y-34987610D01*
X2771405Y-35024116D01*
X2762548Y-35053311D01*
X2748163Y-35080223D01*
X2728808Y-35103808D01*
X2705223Y-35123163D01*
X2678311Y-35137548D01*
X2649116Y-35146405D01*
X2612610Y-35150000D01*
X1987390Y-35150000D01*
X1950884Y-35146405D01*
X1921689Y-35137548D01*
X1894777Y-35123163D01*
X1871192Y-35103808D01*
X1851837Y-35080223D01*
X1837452Y-35053311D01*
X1828595Y-35024116D01*
X1825000Y-34987610D01*
X1825000Y-34437390D01*
X1828595Y-34400884D01*
X1837452Y-34371689D01*
X1851837Y-34344777D01*
X1871192Y-34321192D01*
X1894777Y-34301837D01*
X1921689Y-34287452D01*
X1950884Y-34278595D01*
X1987390Y-34275000D01*
X2612610Y-34275000D01*
X2649116Y-34278595D01*
X2649116Y-34278595D01*
G37*
G36*
X35995590Y-34798980D02*
G01*
X33996610Y-34798980D01*
X33996610Y-34199540D01*
X35995590Y-34199540D01*
X35995590Y-34798980D01*
X35995590Y-34798980D01*
G37*
G36*
X6000790Y-34797420D02*
G01*
X4001810Y-34797420D01*
X4001810Y-34197980D01*
X6000790Y-34197980D01*
X6000790Y-34797420D01*
X6000790Y-34797420D01*
G37*
G36*
X6000790Y-33799200D02*
G01*
X4001810Y-33799200D01*
X4001810Y-33199760D01*
X6000790Y-33199760D01*
X6000790Y-33799200D01*
X6000790Y-33799200D01*
G37*
G36*
X35995590Y-33798980D02*
G01*
X33996610Y-33798980D01*
X33996610Y-33199540D01*
X35995590Y-33199540D01*
X35995590Y-33798980D01*
X35995590Y-33798980D01*
G37*
G36*
X38049116Y-32853595D02*
G01*
X38078311Y-32862452D01*
X38105223Y-32876837D01*
X38128808Y-32896192D01*
X38148163Y-32919777D01*
X38162548Y-32946689D01*
X38171405Y-32975884D01*
X38175000Y-33012390D01*
X38175000Y-33562610D01*
X38171405Y-33599116D01*
X38162548Y-33628311D01*
X38148163Y-33655223D01*
X38128808Y-33678808D01*
X38105223Y-33698163D01*
X38078311Y-33712548D01*
X38049116Y-33721405D01*
X38012610Y-33725000D01*
X37387390Y-33725000D01*
X37350884Y-33721405D01*
X37321689Y-33712548D01*
X37294777Y-33698163D01*
X37271192Y-33678808D01*
X37251837Y-33655223D01*
X37237452Y-33628311D01*
X37228595Y-33599116D01*
X37225000Y-33562610D01*
X37225000Y-33012390D01*
X37228595Y-32975884D01*
X37237452Y-32946689D01*
X37251837Y-32919777D01*
X37271192Y-32896192D01*
X37294777Y-32876837D01*
X37321689Y-32862452D01*
X37350884Y-32853595D01*
X37387390Y-32850000D01*
X38012610Y-32850000D01*
X38049116Y-32853595D01*
X38049116Y-32853595D01*
G37*
G36*
X2649116Y-32853595D02*
G01*
X2678311Y-32862452D01*
X2705223Y-32876837D01*
X2728808Y-32896192D01*
X2748163Y-32919777D01*
X2762548Y-32946689D01*
X2771405Y-32975884D01*
X2775000Y-33012390D01*
X2775000Y-33562610D01*
X2771405Y-33599116D01*
X2762548Y-33628311D01*
X2748163Y-33655223D01*
X2728808Y-33678808D01*
X2705223Y-33698163D01*
X2678311Y-33712548D01*
X2649116Y-33721405D01*
X2612610Y-33725000D01*
X1987390Y-33725000D01*
X1950884Y-33721405D01*
X1921689Y-33712548D01*
X1894777Y-33698163D01*
X1871192Y-33678808D01*
X1851837Y-33655223D01*
X1837452Y-33628311D01*
X1828595Y-33599116D01*
X1825000Y-33562610D01*
X1825000Y-33012390D01*
X1828595Y-32975884D01*
X1837452Y-32946689D01*
X1851837Y-32919777D01*
X1871192Y-32896192D01*
X1894777Y-32876837D01*
X1921689Y-32862452D01*
X1950884Y-32853595D01*
X1987390Y-32850000D01*
X2612610Y-32850000D01*
X2649116Y-32853595D01*
X2649116Y-32853595D01*
G37*
G36*
X35995590Y-32798980D02*
G01*
X33996610Y-32798980D01*
X33996610Y-32199540D01*
X35995590Y-32199540D01*
X35995590Y-32798980D01*
X35995590Y-32798980D01*
G37*
G36*
X6000790Y-32798440D02*
G01*
X4001810Y-32798440D01*
X4001810Y-32199000D01*
X6000790Y-32199000D01*
X6000790Y-32798440D01*
X6000790Y-32798440D01*
G37*
G36*
X2649116Y-31278595D02*
G01*
X2678311Y-31287452D01*
X2705223Y-31301837D01*
X2728808Y-31321192D01*
X2748163Y-31344777D01*
X2762548Y-31371689D01*
X2771405Y-31400884D01*
X2775000Y-31437390D01*
X2775000Y-31987610D01*
X2771405Y-32024116D01*
X2762548Y-32053311D01*
X2748163Y-32080223D01*
X2728808Y-32103808D01*
X2705223Y-32123163D01*
X2678311Y-32137548D01*
X2649116Y-32146405D01*
X2612610Y-32150000D01*
X1987390Y-32150000D01*
X1950884Y-32146405D01*
X1921689Y-32137548D01*
X1894777Y-32123163D01*
X1871192Y-32103808D01*
X1851837Y-32080223D01*
X1837452Y-32053311D01*
X1828595Y-32024116D01*
X1825000Y-31987610D01*
X1825000Y-31437390D01*
X1828595Y-31400884D01*
X1837452Y-31371689D01*
X1851837Y-31344777D01*
X1871192Y-31321192D01*
X1894777Y-31301837D01*
X1921689Y-31287452D01*
X1950884Y-31278595D01*
X1987390Y-31275000D01*
X2612610Y-31275000D01*
X2649116Y-31278595D01*
X2649116Y-31278595D01*
G37*
G36*
X38049116Y-31278595D02*
G01*
X38078311Y-31287452D01*
X38105223Y-31301837D01*
X38128808Y-31321192D01*
X38148163Y-31344777D01*
X38162548Y-31371689D01*
X38171405Y-31400884D01*
X38175000Y-31437390D01*
X38175000Y-31987610D01*
X38171405Y-32024116D01*
X38162548Y-32053311D01*
X38148163Y-32080223D01*
X38128808Y-32103808D01*
X38105223Y-32123163D01*
X38078311Y-32137548D01*
X38049116Y-32146405D01*
X38012610Y-32150000D01*
X37387390Y-32150000D01*
X37350884Y-32146405D01*
X37321689Y-32137548D01*
X37294777Y-32123163D01*
X37271192Y-32103808D01*
X37251837Y-32080223D01*
X37237452Y-32053311D01*
X37228595Y-32024116D01*
X37225000Y-31987610D01*
X37225000Y-31437390D01*
X37228595Y-31400884D01*
X37237452Y-31371689D01*
X37251837Y-31344777D01*
X37271192Y-31321192D01*
X37294777Y-31301837D01*
X37321689Y-31287452D01*
X37350884Y-31278595D01*
X37387390Y-31275000D01*
X38012610Y-31275000D01*
X38049116Y-31278595D01*
X38049116Y-31278595D01*
G37*
G36*
X35995590Y-31798980D02*
G01*
X33996610Y-31798980D01*
X33996610Y-31199540D01*
X35995590Y-31199540D01*
X35995590Y-31798980D01*
X35995590Y-31798980D01*
G37*
G36*
X6000790Y-31797680D02*
G01*
X4001810Y-31797680D01*
X4001810Y-31198240D01*
X6000790Y-31198240D01*
X6000790Y-31797680D01*
X6000790Y-31797680D01*
G37*
G36*
X6000790Y-30799460D02*
G01*
X4001810Y-30799460D01*
X4001810Y-30200020D01*
X6000790Y-30200020D01*
X6000790Y-30799460D01*
X6000790Y-30799460D01*
G37*
G36*
X35995590Y-30798220D02*
G01*
X33996610Y-30798220D01*
X33996610Y-30198780D01*
X35995590Y-30198780D01*
X35995590Y-30798220D01*
X35995590Y-30798220D01*
G37*
G36*
X6000790Y-29798700D02*
G01*
X4001810Y-29798700D01*
X4001810Y-29199260D01*
X6000790Y-29199260D01*
X6000790Y-29798700D01*
X6000790Y-29798700D01*
G37*
G36*
X35995590Y-29797460D02*
G01*
X33996610Y-29797460D01*
X33996610Y-29198020D01*
X35995590Y-29198020D01*
X35995590Y-29797460D01*
X35995590Y-29797460D01*
G37*
G36*
X35995590Y-28799240D02*
G01*
X33996610Y-28799240D01*
X33996610Y-28199800D01*
X35995590Y-28199800D01*
X35995590Y-28799240D01*
X35995590Y-28799240D01*
G37*
G36*
X6000790Y-28797940D02*
G01*
X4001810Y-28797940D01*
X4001810Y-28198500D01*
X6000790Y-28198500D01*
X6000790Y-28797940D01*
X6000790Y-28797940D01*
G37*
G36*
X6000790Y-27799720D02*
G01*
X4001810Y-27799720D01*
X4001810Y-27200280D01*
X6000790Y-27200280D01*
X6000790Y-27799720D01*
X6000790Y-27799720D01*
G37*
G36*
X35995590Y-27798480D02*
G01*
X33996610Y-27798480D01*
X33996610Y-27199040D01*
X35995590Y-27199040D01*
X35995590Y-27798480D01*
X35995590Y-27798480D01*
G37*
G36*
X6000790Y-26801500D02*
G01*
X4001810Y-26801500D01*
X4001810Y-26202060D01*
X6000790Y-26202060D01*
X6000790Y-26801500D01*
X6000790Y-26801500D01*
G37*
G36*
X35995590Y-26797720D02*
G01*
X33996610Y-26797720D01*
X33996610Y-26198280D01*
X35995590Y-26198280D01*
X35995590Y-26797720D01*
X35995590Y-26797720D01*
G37*
G36*
X6000790Y-25800740D02*
G01*
X4001810Y-25800740D01*
X4001810Y-25201300D01*
X6000790Y-25201300D01*
X6000790Y-25800740D01*
X6000790Y-25800740D01*
G37*
G36*
X35995590Y-25799500D02*
G01*
X33996610Y-25799500D01*
X33996610Y-25200060D01*
X35995590Y-25200060D01*
X35995590Y-25799500D01*
X35995590Y-25799500D01*
G37*
G36*
X6000790Y-24799980D02*
G01*
X4001810Y-24799980D01*
X4001810Y-24200540D01*
X6000790Y-24200540D01*
X6000790Y-24799980D01*
X6000790Y-24799980D01*
G37*
G36*
X35995590Y-24798740D02*
G01*
X33996610Y-24798740D01*
X33996610Y-24199300D01*
X35995590Y-24199300D01*
X35995590Y-24798740D01*
X35995590Y-24798740D01*
G37*
G36*
X6000790Y-23801760D02*
G01*
X4001810Y-23801760D01*
X4001810Y-23202320D01*
X6000790Y-23202320D01*
X6000790Y-23801760D01*
X6000790Y-23801760D01*
G37*
G36*
X35995590Y-23797980D02*
G01*
X33996610Y-23797980D01*
X33996610Y-23198540D01*
X35995590Y-23198540D01*
X35995590Y-23797980D01*
X35995590Y-23797980D01*
G37*
G36*
X6000790Y-22801000D02*
G01*
X4001810Y-22801000D01*
X4001810Y-22201560D01*
X6000790Y-22201560D01*
X6000790Y-22801000D01*
X6000790Y-22801000D01*
G37*
G36*
X35995590Y-22799760D02*
G01*
X33996610Y-22799760D01*
X33996610Y-22200320D01*
X35995590Y-22200320D01*
X35995590Y-22799760D01*
X35995590Y-22799760D01*
G37*
G36*
X35995590Y-21801540D02*
G01*
X33996610Y-21801540D01*
X33996610Y-21202100D01*
X35995590Y-21202100D01*
X35995590Y-21801540D01*
X35995590Y-21801540D01*
G37*
G36*
X6000790Y-21800240D02*
G01*
X4001810Y-21800240D01*
X4001810Y-21200800D01*
X6000790Y-21200800D01*
X6000790Y-21800240D01*
X6000790Y-21800240D01*
G37*
G36*
X6000790Y-20802020D02*
G01*
X4001810Y-20802020D01*
X4001810Y-20202580D01*
X6000790Y-20202580D01*
X6000790Y-20802020D01*
X6000790Y-20802020D01*
G37*
G36*
X35995590Y-20800780D02*
G01*
X33996610Y-20800780D01*
X33996610Y-20201340D01*
X35995590Y-20201340D01*
X35995590Y-20800780D01*
X35995590Y-20800780D01*
G37*
G36*
X6000790Y-19801260D02*
G01*
X4001810Y-19801260D01*
X4001810Y-19201820D01*
X6000790Y-19201820D01*
X6000790Y-19801260D01*
X6000790Y-19801260D01*
G37*
G36*
X35995590Y-19800020D02*
G01*
X33996610Y-19800020D01*
X33996610Y-19200580D01*
X35995590Y-19200580D01*
X35995590Y-19800020D01*
X35995590Y-19800020D01*
G37*
G36*
X35995590Y-18801800D02*
G01*
X33996610Y-18801800D01*
X33996610Y-18202360D01*
X35995590Y-18202360D01*
X35995590Y-18801800D01*
X35995590Y-18801800D01*
G37*
G36*
X6000790Y-18800500D02*
G01*
X4001810Y-18800500D01*
X4001810Y-18201060D01*
X6000790Y-18201060D01*
X6000790Y-18800500D01*
X6000790Y-18800500D01*
G37*
G36*
X35995590Y-17801040D02*
G01*
X33996610Y-17801040D01*
X33996610Y-17201600D01*
X35995590Y-17201600D01*
X35995590Y-17801040D01*
X35995590Y-17801040D01*
G37*
G36*
X6000790Y-17799740D02*
G01*
X4001810Y-17799740D01*
X4001810Y-17200300D01*
X6000790Y-17200300D01*
X6000790Y-17799740D01*
X6000790Y-17799740D01*
G37*
G36*
X35995590Y-16800280D02*
G01*
X33996610Y-16800280D01*
X33996610Y-16200840D01*
X35995590Y-16200840D01*
X35995590Y-16800280D01*
X35995590Y-16800280D01*
G37*
G36*
X5999490Y-16799720D02*
G01*
X4000510Y-16799720D01*
X4000510Y-16200280D01*
X5999490Y-16200280D01*
X5999490Y-16799720D01*
X5999490Y-16799720D01*
G37*
G36*
X35995590Y-15802060D02*
G01*
X33996610Y-15802060D01*
X33996610Y-15202620D01*
X35995590Y-15202620D01*
X35995590Y-15802060D01*
X35995590Y-15802060D01*
G37*
G36*
X5999490Y-15799720D02*
G01*
X4000510Y-15799720D01*
X4000510Y-15200280D01*
X5999490Y-15200280D01*
X5999490Y-15799720D01*
X5999490Y-15799720D01*
G37*
G36*
X9799740Y-12000790D02*
G01*
X9200300Y-12000790D01*
X9200300Y-10001810D01*
X9799740Y-10001810D01*
X9799740Y-12000790D01*
X9799740Y-12000790D01*
G37*
G36*
X10800500Y-12000790D02*
G01*
X10201060Y-12000790D01*
X10201060Y-10001810D01*
X10800500Y-10001810D01*
X10800500Y-12000790D01*
X10800500Y-12000790D01*
G37*
G36*
X11801260Y-12000790D02*
G01*
X11201820Y-12000790D01*
X11201820Y-10001810D01*
X11801260Y-10001810D01*
X11801260Y-12000790D01*
X11801260Y-12000790D01*
G37*
G36*
X13800240Y-12000790D02*
G01*
X13200800Y-12000790D01*
X13200800Y-10001810D01*
X13800240Y-10001810D01*
X13800240Y-12000790D01*
X13800240Y-12000790D01*
G37*
G36*
X14801000Y-12000790D02*
G01*
X14201560Y-12000790D01*
X14201560Y-10001810D01*
X14801000Y-10001810D01*
X14801000Y-12000790D01*
X14801000Y-12000790D01*
G37*
G36*
X12802020Y-12000790D02*
G01*
X12202580Y-12000790D01*
X12202580Y-10001810D01*
X12802020Y-10001810D01*
X12802020Y-12000790D01*
X12802020Y-12000790D01*
G37*
G36*
X15801760Y-12000790D02*
G01*
X15202320Y-12000790D01*
X15202320Y-10001810D01*
X15801760Y-10001810D01*
X15801760Y-12000790D01*
X15801760Y-12000790D01*
G37*
G36*
X16799980Y-12000790D02*
G01*
X16200540Y-12000790D01*
X16200540Y-10001810D01*
X16799980Y-10001810D01*
X16799980Y-12000790D01*
X16799980Y-12000790D01*
G37*
G36*
X17800740Y-12000790D02*
G01*
X17201300Y-12000790D01*
X17201300Y-10001810D01*
X17800740Y-10001810D01*
X17800740Y-12000790D01*
X17800740Y-12000790D01*
G37*
G36*
X18801500Y-12000790D02*
G01*
X18202060Y-12000790D01*
X18202060Y-10001810D01*
X18801500Y-10001810D01*
X18801500Y-12000790D01*
X18801500Y-12000790D01*
G37*
G36*
X19799720Y-12000790D02*
G01*
X19200280Y-12000790D01*
X19200280Y-10001810D01*
X19799720Y-10001810D01*
X19799720Y-12000790D01*
X19799720Y-12000790D01*
G37*
G36*
X21798700Y-12000790D02*
G01*
X21199260Y-12000790D01*
X21199260Y-10001810D01*
X21798700Y-10001810D01*
X21798700Y-12000790D01*
X21798700Y-12000790D01*
G37*
G36*
X22799460Y-12000790D02*
G01*
X22200020Y-12000790D01*
X22200020Y-10001810D01*
X22799460Y-10001810D01*
X22799460Y-12000790D01*
X22799460Y-12000790D01*
G37*
G36*
X23797680Y-12000790D02*
G01*
X23198240Y-12000790D01*
X23198240Y-10001810D01*
X23797680Y-10001810D01*
X23797680Y-12000790D01*
X23797680Y-12000790D01*
G37*
G36*
X24798440Y-12000790D02*
G01*
X24199000Y-12000790D01*
X24199000Y-10001810D01*
X24798440Y-10001810D01*
X24798440Y-12000790D01*
X24798440Y-12000790D01*
G37*
G36*
X25799200Y-12000790D02*
G01*
X25199760Y-12000790D01*
X25199760Y-10001810D01*
X25799200Y-10001810D01*
X25799200Y-12000790D01*
X25799200Y-12000790D01*
G37*
G36*
X26797420Y-12000790D02*
G01*
X26197980Y-12000790D01*
X26197980Y-10001810D01*
X26797420Y-10001810D01*
X26797420Y-12000790D01*
X26797420Y-12000790D01*
G37*
G36*
X27798180Y-12000790D02*
G01*
X27198740Y-12000790D01*
X27198740Y-10001810D01*
X27798180Y-10001810D01*
X27798180Y-12000790D01*
X27798180Y-12000790D01*
G37*
G36*
X29799700Y-12000790D02*
G01*
X29200260Y-12000790D01*
X29200260Y-10001810D01*
X29799700Y-10001810D01*
X29799700Y-12000790D01*
X29799700Y-12000790D01*
G37*
G36*
X28798940Y-12000790D02*
G01*
X28199500Y-12000790D01*
X28199500Y-10001810D01*
X28798940Y-10001810D01*
X28798940Y-12000790D01*
X28798940Y-12000790D01*
G37*
G36*
X20797940Y-12000790D02*
G01*
X20198500Y-12000790D01*
X20198500Y-10001810D01*
X20797940Y-10001810D01*
X20797940Y-12000790D01*
X20797940Y-12000790D01*
G37*
G36*
X37411463Y-9982226D02*
G01*
X37427299Y-9987030D01*
X37441886Y-9994827D01*
X37454677Y-10005323D01*
X37465173Y-10018114D01*
X37472970Y-10032701D01*
X37477774Y-10048537D01*
X37480000Y-10071140D01*
X37480000Y-10528860D01*
X37477774Y-10551463D01*
X37472970Y-10567299D01*
X37465173Y-10581886D01*
X37454677Y-10594677D01*
X37441886Y-10605173D01*
X37427299Y-10612970D01*
X37411463Y-10617774D01*
X37388860Y-10620000D01*
X36981140Y-10620000D01*
X36958537Y-10617774D01*
X36942701Y-10612970D01*
X36928114Y-10605173D01*
X36915323Y-10594677D01*
X36904827Y-10581886D01*
X36897030Y-10567299D01*
X36892226Y-10551463D01*
X36890000Y-10528860D01*
X36890000Y-10071140D01*
X36892226Y-10048537D01*
X36897030Y-10032701D01*
X36904827Y-10018114D01*
X36915323Y-10005323D01*
X36928114Y-9994827D01*
X36942701Y-9987030D01*
X36958537Y-9982226D01*
X36981140Y-9980000D01*
X37388860Y-9980000D01*
X37411463Y-9982226D01*
X37411463Y-9982226D01*
G37*
G36*
X36441463Y-9982226D02*
G01*
X36457299Y-9987030D01*
X36471886Y-9994827D01*
X36484677Y-10005323D01*
X36495173Y-10018114D01*
X36502970Y-10032701D01*
X36507774Y-10048537D01*
X36510000Y-10071140D01*
X36510000Y-10528860D01*
X36507774Y-10551463D01*
X36502970Y-10567299D01*
X36495173Y-10581886D01*
X36484677Y-10594677D01*
X36471886Y-10605173D01*
X36457299Y-10612970D01*
X36441463Y-10617774D01*
X36418860Y-10620000D01*
X36011140Y-10620000D01*
X35988537Y-10617774D01*
X35972701Y-10612970D01*
X35958114Y-10605173D01*
X35945323Y-10594677D01*
X35934827Y-10581886D01*
X35927030Y-10567299D01*
X35922226Y-10551463D01*
X35920000Y-10528860D01*
X35920000Y-10071140D01*
X35922226Y-10048537D01*
X35927030Y-10032701D01*
X35934827Y-10018114D01*
X35945323Y-10005323D01*
X35958114Y-9994827D01*
X35972701Y-9987030D01*
X35988537Y-9982226D01*
X36011140Y-9980000D01*
X36418860Y-9980000D01*
X36441463Y-9982226D01*
X36441463Y-9982226D01*
G37*
G36*
X36411463Y-8982226D02*
G01*
X36427299Y-8987030D01*
X36441886Y-8994827D01*
X36454677Y-9005323D01*
X36465173Y-9018114D01*
X36472970Y-9032701D01*
X36477774Y-9048537D01*
X36480000Y-9071140D01*
X36480000Y-9528860D01*
X36477774Y-9551463D01*
X36472970Y-9567299D01*
X36465173Y-9581886D01*
X36454677Y-9594677D01*
X36441886Y-9605173D01*
X36427299Y-9612970D01*
X36411463Y-9617774D01*
X36388860Y-9620000D01*
X35981140Y-9620000D01*
X35958537Y-9617774D01*
X35942701Y-9612970D01*
X35928114Y-9605173D01*
X35915323Y-9594677D01*
X35904827Y-9581886D01*
X35897030Y-9567299D01*
X35892226Y-9551463D01*
X35890000Y-9528860D01*
X35890000Y-9071140D01*
X35892226Y-9048537D01*
X35897030Y-9032701D01*
X35904827Y-9018114D01*
X35915323Y-9005323D01*
X35928114Y-8994827D01*
X35942701Y-8987030D01*
X35958537Y-8982226D01*
X35981140Y-8980000D01*
X36388860Y-8980000D01*
X36411463Y-8982226D01*
X36411463Y-8982226D01*
G37*
G36*
X35441463Y-8982226D02*
G01*
X35457299Y-8987030D01*
X35471886Y-8994827D01*
X35484677Y-9005323D01*
X35495173Y-9018114D01*
X35502970Y-9032701D01*
X35507774Y-9048537D01*
X35510000Y-9071140D01*
X35510000Y-9528860D01*
X35507774Y-9551463D01*
X35502970Y-9567299D01*
X35495173Y-9581886D01*
X35484677Y-9594677D01*
X35471886Y-9605173D01*
X35457299Y-9612970D01*
X35441463Y-9617774D01*
X35418860Y-9620000D01*
X35011140Y-9620000D01*
X34988537Y-9617774D01*
X34972701Y-9612970D01*
X34958114Y-9605173D01*
X34945323Y-9594677D01*
X34934827Y-9581886D01*
X34927030Y-9567299D01*
X34922226Y-9551463D01*
X34920000Y-9528860D01*
X34920000Y-9071140D01*
X34922226Y-9048537D01*
X34927030Y-9032701D01*
X34934827Y-9018114D01*
X34945323Y-9005323D01*
X34958114Y-8994827D01*
X34972701Y-8987030D01*
X34988537Y-8982226D01*
X35011140Y-8980000D01*
X35418860Y-8980000D01*
X35441463Y-8982226D01*
X35441463Y-8982226D01*
G37*
G36*
X37451463Y-8992226D02*
G01*
X37467299Y-8997030D01*
X37481886Y-9004827D01*
X37494677Y-9015323D01*
X37505173Y-9028114D01*
X37512970Y-9042701D01*
X37517774Y-9058537D01*
X37520000Y-9081140D01*
X37520000Y-9488860D01*
X37517774Y-9511463D01*
X37512970Y-9527299D01*
X37505173Y-9541886D01*
X37494677Y-9554677D01*
X37481886Y-9565173D01*
X37467299Y-9572970D01*
X37451463Y-9577774D01*
X37428860Y-9580000D01*
X36971140Y-9580000D01*
X36948537Y-9577774D01*
X36932701Y-9572970D01*
X36918114Y-9565173D01*
X36905323Y-9554677D01*
X36894827Y-9541886D01*
X36887030Y-9527299D01*
X36882226Y-9511463D01*
X36880000Y-9488860D01*
X36880000Y-9081140D01*
X36882226Y-9058537D01*
X36887030Y-9042701D01*
X36894827Y-9028114D01*
X36905323Y-9015323D01*
X36918114Y-9004827D01*
X36932701Y-8997030D01*
X36948537Y-8992226D01*
X36971140Y-8990000D01*
X37428860Y-8990000D01*
X37451463Y-8992226D01*
X37451463Y-8992226D01*
G37*
G36*
X33556463Y-7982226D02*
G01*
X33572299Y-7987030D01*
X33586886Y-7994827D01*
X33599677Y-8005323D01*
X33610173Y-8018114D01*
X33617970Y-8032701D01*
X33622774Y-8048537D01*
X33625000Y-8071140D01*
X33625000Y-8528860D01*
X33622774Y-8551463D01*
X33617970Y-8567299D01*
X33610173Y-8581886D01*
X33599677Y-8594677D01*
X33586886Y-8605173D01*
X33572299Y-8612970D01*
X33556463Y-8617774D01*
X33533860Y-8620000D01*
X33126140Y-8620000D01*
X33103537Y-8617774D01*
X33087701Y-8612970D01*
X33073114Y-8605173D01*
X33060323Y-8594677D01*
X33049827Y-8581886D01*
X33042030Y-8567299D01*
X33037226Y-8551463D01*
X33035000Y-8528860D01*
X33035000Y-8071140D01*
X33037226Y-8048537D01*
X33042030Y-8032701D01*
X33049827Y-8018114D01*
X33060323Y-8005323D01*
X33073114Y-7994827D01*
X33087701Y-7987030D01*
X33103537Y-7982226D01*
X33126140Y-7980000D01*
X33533860Y-7980000D01*
X33556463Y-7982226D01*
X33556463Y-7982226D01*
G37*
G36*
X31641463Y-7982226D02*
G01*
X31657299Y-7987030D01*
X31671886Y-7994827D01*
X31684677Y-8005323D01*
X31695173Y-8018114D01*
X31702970Y-8032701D01*
X31707774Y-8048537D01*
X31710000Y-8071140D01*
X31710000Y-8528860D01*
X31707774Y-8551463D01*
X31702970Y-8567299D01*
X31695173Y-8581886D01*
X31684677Y-8594677D01*
X31671886Y-8605173D01*
X31657299Y-8612970D01*
X31641463Y-8617774D01*
X31618860Y-8620000D01*
X31211140Y-8620000D01*
X31188537Y-8617774D01*
X31172701Y-8612970D01*
X31158114Y-8605173D01*
X31145323Y-8594677D01*
X31134827Y-8581886D01*
X31127030Y-8567299D01*
X31122226Y-8551463D01*
X31120000Y-8528860D01*
X31120000Y-8071140D01*
X31122226Y-8048537D01*
X31127030Y-8032701D01*
X31134827Y-8018114D01*
X31145323Y-8005323D01*
X31158114Y-7994827D01*
X31172701Y-7987030D01*
X31188537Y-7982226D01*
X31211140Y-7980000D01*
X31618860Y-7980000D01*
X31641463Y-7982226D01*
X31641463Y-7982226D01*
G37*
G36*
X34526463Y-7982226D02*
G01*
X34542299Y-7987030D01*
X34556886Y-7994827D01*
X34569677Y-8005323D01*
X34580173Y-8018114D01*
X34587970Y-8032701D01*
X34592774Y-8048537D01*
X34595000Y-8071140D01*
X34595000Y-8528860D01*
X34592774Y-8551463D01*
X34587970Y-8567299D01*
X34580173Y-8581886D01*
X34569677Y-8594677D01*
X34556886Y-8605173D01*
X34542299Y-8612970D01*
X34526463Y-8617774D01*
X34503860Y-8620000D01*
X34096140Y-8620000D01*
X34073537Y-8617774D01*
X34057701Y-8612970D01*
X34043114Y-8605173D01*
X34030323Y-8594677D01*
X34019827Y-8581886D01*
X34012030Y-8567299D01*
X34007226Y-8551463D01*
X34005000Y-8528860D01*
X34005000Y-8071140D01*
X34007226Y-8048537D01*
X34012030Y-8032701D01*
X34019827Y-8018114D01*
X34030323Y-8005323D01*
X34043114Y-7994827D01*
X34057701Y-7987030D01*
X34073537Y-7982226D01*
X34096140Y-7980000D01*
X34503860Y-7980000D01*
X34526463Y-7982226D01*
X34526463Y-7982226D01*
G37*
G36*
X32611463Y-7982226D02*
G01*
X32627299Y-7987030D01*
X32641886Y-7994827D01*
X32654677Y-8005323D01*
X32665173Y-8018114D01*
X32672970Y-8032701D01*
X32677774Y-8048537D01*
X32680000Y-8071140D01*
X32680000Y-8528860D01*
X32677774Y-8551463D01*
X32672970Y-8567299D01*
X32665173Y-8581886D01*
X32654677Y-8594677D01*
X32641886Y-8605173D01*
X32627299Y-8612970D01*
X32611463Y-8617774D01*
X32588860Y-8620000D01*
X32181140Y-8620000D01*
X32158537Y-8617774D01*
X32142701Y-8612970D01*
X32128114Y-8605173D01*
X32115323Y-8594677D01*
X32104827Y-8581886D01*
X32097030Y-8567299D01*
X32092226Y-8551463D01*
X32090000Y-8528860D01*
X32090000Y-8071140D01*
X32092226Y-8048537D01*
X32097030Y-8032701D01*
X32104827Y-8018114D01*
X32115323Y-8005323D01*
X32128114Y-7994827D01*
X32142701Y-7987030D01*
X32158537Y-7982226D01*
X32181140Y-7980000D01*
X32588860Y-7980000D01*
X32611463Y-7982226D01*
X32611463Y-7982226D01*
G37*
G36*
X35441463Y-7982226D02*
G01*
X35457299Y-7987030D01*
X35471886Y-7994827D01*
X35484677Y-8005323D01*
X35495173Y-8018114D01*
X35502970Y-8032701D01*
X35507774Y-8048537D01*
X35510000Y-8071140D01*
X35510000Y-8528860D01*
X35507774Y-8551463D01*
X35502970Y-8567299D01*
X35495173Y-8581886D01*
X35484677Y-8594677D01*
X35471886Y-8605173D01*
X35457299Y-8612970D01*
X35441463Y-8617774D01*
X35418860Y-8620000D01*
X35011140Y-8620000D01*
X34988537Y-8617774D01*
X34972701Y-8612970D01*
X34958114Y-8605173D01*
X34945323Y-8594677D01*
X34934827Y-8581886D01*
X34927030Y-8567299D01*
X34922226Y-8551463D01*
X34920000Y-8528860D01*
X34920000Y-8071140D01*
X34922226Y-8048537D01*
X34927030Y-8032701D01*
X34934827Y-8018114D01*
X34945323Y-8005323D01*
X34958114Y-7994827D01*
X34972701Y-7987030D01*
X34988537Y-7982226D01*
X35011140Y-7980000D01*
X35418860Y-7980000D01*
X35441463Y-7982226D01*
X35441463Y-7982226D01*
G37*
G36*
X36411463Y-7982226D02*
G01*
X36427299Y-7987030D01*
X36441886Y-7994827D01*
X36454677Y-8005323D01*
X36465173Y-8018114D01*
X36472970Y-8032701D01*
X36477774Y-8048537D01*
X36480000Y-8071140D01*
X36480000Y-8528860D01*
X36477774Y-8551463D01*
X36472970Y-8567299D01*
X36465173Y-8581886D01*
X36454677Y-8594677D01*
X36441886Y-8605173D01*
X36427299Y-8612970D01*
X36411463Y-8617774D01*
X36388860Y-8620000D01*
X35981140Y-8620000D01*
X35958537Y-8617774D01*
X35942701Y-8612970D01*
X35928114Y-8605173D01*
X35915323Y-8594677D01*
X35904827Y-8581886D01*
X35897030Y-8567299D01*
X35892226Y-8551463D01*
X35890000Y-8528860D01*
X35890000Y-8071140D01*
X35892226Y-8048537D01*
X35897030Y-8032701D01*
X35904827Y-8018114D01*
X35915323Y-8005323D01*
X35928114Y-7994827D01*
X35942701Y-7987030D01*
X35958537Y-7982226D01*
X35981140Y-7980000D01*
X36388860Y-7980000D01*
X36411463Y-7982226D01*
X36411463Y-7982226D01*
G37*
G36*
X37451463Y-8022226D02*
G01*
X37467299Y-8027030D01*
X37481886Y-8034827D01*
X37494677Y-8045323D01*
X37505173Y-8058114D01*
X37512970Y-8072701D01*
X37517774Y-8088537D01*
X37520000Y-8111140D01*
X37520000Y-8518860D01*
X37517774Y-8541463D01*
X37512970Y-8557299D01*
X37505173Y-8571886D01*
X37494677Y-8584677D01*
X37481886Y-8595173D01*
X37467299Y-8602970D01*
X37451463Y-8607774D01*
X37428860Y-8610000D01*
X36971140Y-8610000D01*
X36948537Y-8607774D01*
X36932701Y-8602970D01*
X36918114Y-8595173D01*
X36905323Y-8584677D01*
X36894827Y-8571886D01*
X36887030Y-8557299D01*
X36882226Y-8541463D01*
X36880000Y-8518860D01*
X36880000Y-8111140D01*
X36882226Y-8088537D01*
X36887030Y-8072701D01*
X36894827Y-8058114D01*
X36905323Y-8045323D01*
X36918114Y-8034827D01*
X36932701Y-8027030D01*
X36948537Y-8022226D01*
X36971140Y-8020000D01*
X37428860Y-8020000D01*
X37451463Y-8022226D01*
X37451463Y-8022226D01*
G37*
G36*
X35700000Y-7300000D02*
G01*
X34700000Y-7300000D01*
X34700000Y-6300000D01*
X35700000Y-6300000D01*
X35700000Y-7300000D01*
X35700000Y-7300000D01*
G37*
G36*
X21436627Y-5432299D02*
G01*
X21516742Y-5456602D01*
X21596855Y-5480903D01*
X21596857Y-5480904D01*
X21744518Y-5559831D01*
X21873949Y-5666051D01*
X21980169Y-5795482D01*
X22059096Y-5943143D01*
X22107701Y-6103373D01*
X22124112Y-6270000D01*
X22107701Y-6436627D01*
X22059096Y-6596857D01*
X21980169Y-6744518D01*
X21873949Y-6873949D01*
X21744518Y-6980169D01*
X21596857Y-7059096D01*
X21596855Y-7059097D01*
X21516742Y-7083398D01*
X21436627Y-7107701D01*
X21311752Y-7120000D01*
X21228248Y-7120000D01*
X21103373Y-7107701D01*
X21023258Y-7083398D01*
X20943145Y-7059097D01*
X20943143Y-7059096D01*
X20795482Y-6980169D01*
X20666051Y-6873949D01*
X20559831Y-6744518D01*
X20480904Y-6596857D01*
X20432299Y-6436627D01*
X20415888Y-6270000D01*
X20432299Y-6103373D01*
X20480904Y-5943143D01*
X20559831Y-5795482D01*
X20666051Y-5666051D01*
X20795482Y-5559831D01*
X20943143Y-5480904D01*
X20943145Y-5480903D01*
X21023258Y-5456602D01*
X21103373Y-5432299D01*
X21228248Y-5420000D01*
X21311752Y-5420000D01*
X21436627Y-5432299D01*
X21436627Y-5432299D01*
G37*
G36*
X11276627Y-5432299D02*
G01*
X11356742Y-5456602D01*
X11436855Y-5480903D01*
X11436857Y-5480904D01*
X11584518Y-5559831D01*
X11713949Y-5666051D01*
X11820169Y-5795482D01*
X11899096Y-5943143D01*
X11947701Y-6103373D01*
X11964112Y-6270000D01*
X11947701Y-6436627D01*
X11899096Y-6596857D01*
X11820169Y-6744518D01*
X11713949Y-6873949D01*
X11584518Y-6980169D01*
X11436857Y-7059096D01*
X11436855Y-7059097D01*
X11356742Y-7083398D01*
X11276627Y-7107701D01*
X11151752Y-7120000D01*
X11068248Y-7120000D01*
X10943373Y-7107701D01*
X10863258Y-7083398D01*
X10783145Y-7059097D01*
X10783143Y-7059096D01*
X10635482Y-6980169D01*
X10506051Y-6873949D01*
X10399831Y-6744518D01*
X10320904Y-6596857D01*
X10272299Y-6436627D01*
X10255888Y-6270000D01*
X10272299Y-6103373D01*
X10320904Y-5943143D01*
X10399831Y-5795482D01*
X10506051Y-5666051D01*
X10635482Y-5559831D01*
X10783143Y-5480904D01*
X10783145Y-5480903D01*
X10863258Y-5456602D01*
X10943373Y-5432299D01*
X11068248Y-5420000D01*
X11151752Y-5420000D01*
X11276627Y-5432299D01*
X11276627Y-5432299D01*
G37*
G36*
X13816627Y-5432299D02*
G01*
X13896742Y-5456602D01*
X13976855Y-5480903D01*
X13976857Y-5480904D01*
X14124518Y-5559831D01*
X14253949Y-5666051D01*
X14360169Y-5795482D01*
X14439096Y-5943143D01*
X14487701Y-6103373D01*
X14504112Y-6270000D01*
X14487701Y-6436627D01*
X14439096Y-6596857D01*
X14360169Y-6744518D01*
X14253949Y-6873949D01*
X14124518Y-6980169D01*
X13976857Y-7059096D01*
X13976855Y-7059097D01*
X13896742Y-7083398D01*
X13816627Y-7107701D01*
X13691752Y-7120000D01*
X13608248Y-7120000D01*
X13483373Y-7107701D01*
X13403258Y-7083398D01*
X13323145Y-7059097D01*
X13323143Y-7059096D01*
X13175482Y-6980169D01*
X13046051Y-6873949D01*
X12939831Y-6744518D01*
X12860904Y-6596857D01*
X12812299Y-6436627D01*
X12795888Y-6270000D01*
X12812299Y-6103373D01*
X12860904Y-5943143D01*
X12939831Y-5795482D01*
X13046051Y-5666051D01*
X13175482Y-5559831D01*
X13323143Y-5480904D01*
X13323145Y-5480903D01*
X13403258Y-5456602D01*
X13483373Y-5432299D01*
X13608248Y-5420000D01*
X13691752Y-5420000D01*
X13816627Y-5432299D01*
X13816627Y-5432299D01*
G37*
G36*
X18896627Y-5432299D02*
G01*
X18976742Y-5456602D01*
X19056855Y-5480903D01*
X19056857Y-5480904D01*
X19204518Y-5559831D01*
X19333949Y-5666051D01*
X19440169Y-5795482D01*
X19519096Y-5943143D01*
X19567701Y-6103373D01*
X19584112Y-6270000D01*
X19567701Y-6436627D01*
X19519096Y-6596857D01*
X19440169Y-6744518D01*
X19333949Y-6873949D01*
X19204518Y-6980169D01*
X19056857Y-7059096D01*
X19056855Y-7059097D01*
X18976742Y-7083398D01*
X18896627Y-7107701D01*
X18771752Y-7120000D01*
X18688248Y-7120000D01*
X18563373Y-7107701D01*
X18483258Y-7083398D01*
X18403145Y-7059097D01*
X18403143Y-7059096D01*
X18255482Y-6980169D01*
X18126051Y-6873949D01*
X18019831Y-6744518D01*
X17940904Y-6596857D01*
X17892299Y-6436627D01*
X17875888Y-6270000D01*
X17892299Y-6103373D01*
X17940904Y-5943143D01*
X18019831Y-5795482D01*
X18126051Y-5666051D01*
X18255482Y-5559831D01*
X18403143Y-5480904D01*
X18403145Y-5480903D01*
X18483258Y-5456602D01*
X18563373Y-5432299D01*
X18688248Y-5420000D01*
X18771752Y-5420000D01*
X18896627Y-5432299D01*
X18896627Y-5432299D01*
G37*
G36*
X9420000Y-7120000D02*
G01*
X7720000Y-7120000D01*
X7720000Y-5420000D01*
X9420000Y-5420000D01*
X9420000Y-7120000D01*
X9420000Y-7120000D01*
G37*
G36*
X23976627Y-5432299D02*
G01*
X24056742Y-5456602D01*
X24136855Y-5480903D01*
X24136857Y-5480904D01*
X24284518Y-5559831D01*
X24413949Y-5666051D01*
X24520169Y-5795482D01*
X24599096Y-5943143D01*
X24647701Y-6103373D01*
X24664112Y-6270000D01*
X24647701Y-6436627D01*
X24599096Y-6596857D01*
X24520169Y-6744518D01*
X24413949Y-6873949D01*
X24284518Y-6980169D01*
X24136857Y-7059096D01*
X24136855Y-7059097D01*
X24056742Y-7083398D01*
X23976627Y-7107701D01*
X23851752Y-7120000D01*
X23768248Y-7120000D01*
X23643373Y-7107701D01*
X23563258Y-7083398D01*
X23483145Y-7059097D01*
X23483143Y-7059096D01*
X23335482Y-6980169D01*
X23206051Y-6873949D01*
X23099831Y-6744518D01*
X23020904Y-6596857D01*
X22972299Y-6436627D01*
X22955888Y-6270000D01*
X22972299Y-6103373D01*
X23020904Y-5943143D01*
X23099831Y-5795482D01*
X23206051Y-5666051D01*
X23335482Y-5559831D01*
X23483143Y-5480904D01*
X23483145Y-5480903D01*
X23563258Y-5456602D01*
X23643373Y-5432299D01*
X23768248Y-5420000D01*
X23851752Y-5420000D01*
X23976627Y-5432299D01*
X23976627Y-5432299D01*
G37*
G36*
X26516627Y-5432299D02*
G01*
X26596742Y-5456602D01*
X26676855Y-5480903D01*
X26676857Y-5480904D01*
X26824518Y-5559831D01*
X26953949Y-5666051D01*
X27060169Y-5795482D01*
X27139096Y-5943143D01*
X27187701Y-6103373D01*
X27204112Y-6270000D01*
X27187701Y-6436627D01*
X27139096Y-6596857D01*
X27060169Y-6744518D01*
X26953949Y-6873949D01*
X26824518Y-6980169D01*
X26676857Y-7059096D01*
X26676855Y-7059097D01*
X26596742Y-7083398D01*
X26516627Y-7107701D01*
X26391752Y-7120000D01*
X26308248Y-7120000D01*
X26183373Y-7107701D01*
X26103258Y-7083398D01*
X26023145Y-7059097D01*
X26023143Y-7059096D01*
X25875482Y-6980169D01*
X25746051Y-6873949D01*
X25639831Y-6744518D01*
X25560904Y-6596857D01*
X25512299Y-6436627D01*
X25495888Y-6270000D01*
X25512299Y-6103373D01*
X25560904Y-5943143D01*
X25639831Y-5795482D01*
X25746051Y-5666051D01*
X25875482Y-5559831D01*
X26023143Y-5480904D01*
X26023145Y-5480903D01*
X26103258Y-5456602D01*
X26183373Y-5432299D01*
X26308248Y-5420000D01*
X26391752Y-5420000D01*
X26516627Y-5432299D01*
X26516627Y-5432299D01*
G37*
G36*
X29056627Y-5432299D02*
G01*
X29136742Y-5456602D01*
X29216855Y-5480903D01*
X29216857Y-5480904D01*
X29364518Y-5559831D01*
X29493949Y-5666051D01*
X29600169Y-5795482D01*
X29679096Y-5943143D01*
X29727701Y-6103373D01*
X29744112Y-6270000D01*
X29727701Y-6436627D01*
X29679096Y-6596857D01*
X29600169Y-6744518D01*
X29493949Y-6873949D01*
X29364518Y-6980169D01*
X29216857Y-7059096D01*
X29216855Y-7059097D01*
X29136742Y-7083398D01*
X29056627Y-7107701D01*
X28931752Y-7120000D01*
X28848248Y-7120000D01*
X28723373Y-7107701D01*
X28643258Y-7083398D01*
X28563145Y-7059097D01*
X28563143Y-7059096D01*
X28415482Y-6980169D01*
X28286051Y-6873949D01*
X28179831Y-6744518D01*
X28100904Y-6596857D01*
X28052299Y-6436627D01*
X28035888Y-6270000D01*
X28052299Y-6103373D01*
X28100904Y-5943143D01*
X28179831Y-5795482D01*
X28286051Y-5666051D01*
X28415482Y-5559831D01*
X28563143Y-5480904D01*
X28563145Y-5480903D01*
X28643258Y-5456602D01*
X28723373Y-5432299D01*
X28848248Y-5420000D01*
X28931752Y-5420000D01*
X29056627Y-5432299D01*
X29056627Y-5432299D01*
G37*
G36*
X31596627Y-5432299D02*
G01*
X31676742Y-5456602D01*
X31756855Y-5480903D01*
X31756857Y-5480904D01*
X31904518Y-5559831D01*
X32033949Y-5666051D01*
X32140169Y-5795482D01*
X32219096Y-5943143D01*
X32267701Y-6103373D01*
X32284112Y-6270000D01*
X32267701Y-6436627D01*
X32219096Y-6596857D01*
X32140169Y-6744518D01*
X32033949Y-6873949D01*
X31904518Y-6980169D01*
X31756857Y-7059096D01*
X31756855Y-7059097D01*
X31676742Y-7083398D01*
X31596627Y-7107701D01*
X31471752Y-7120000D01*
X31388248Y-7120000D01*
X31263373Y-7107701D01*
X31183258Y-7083398D01*
X31103145Y-7059097D01*
X31103143Y-7059096D01*
X30955482Y-6980169D01*
X30826051Y-6873949D01*
X30719831Y-6744518D01*
X30640904Y-6596857D01*
X30592299Y-6436627D01*
X30575888Y-6270000D01*
X30592299Y-6103373D01*
X30640904Y-5943143D01*
X30719831Y-5795482D01*
X30826051Y-5666051D01*
X30955482Y-5559831D01*
X31103143Y-5480904D01*
X31103145Y-5480903D01*
X31183258Y-5456602D01*
X31263373Y-5432299D01*
X31388248Y-5420000D01*
X31471752Y-5420000D01*
X31596627Y-5432299D01*
X31596627Y-5432299D01*
G37*
G36*
X16356627Y-5432299D02*
G01*
X16436742Y-5456602D01*
X16516855Y-5480903D01*
X16516857Y-5480904D01*
X16664518Y-5559831D01*
X16793949Y-5666051D01*
X16900169Y-5795482D01*
X16979096Y-5943143D01*
X17027701Y-6103373D01*
X17044112Y-6270000D01*
X17027701Y-6436627D01*
X16979096Y-6596857D01*
X16900169Y-6744518D01*
X16793949Y-6873949D01*
X16664518Y-6980169D01*
X16516857Y-7059096D01*
X16516855Y-7059097D01*
X16436742Y-7083398D01*
X16356627Y-7107701D01*
X16231752Y-7120000D01*
X16148248Y-7120000D01*
X16023373Y-7107701D01*
X15943258Y-7083398D01*
X15863145Y-7059097D01*
X15863143Y-7059096D01*
X15715482Y-6980169D01*
X15586051Y-6873949D01*
X15479831Y-6744518D01*
X15400904Y-6596857D01*
X15352299Y-6436627D01*
X15335888Y-6270000D01*
X15352299Y-6103373D01*
X15400904Y-5943143D01*
X15479831Y-5795482D01*
X15586051Y-5666051D01*
X15715482Y-5559831D01*
X15863143Y-5480904D01*
X15863145Y-5480903D01*
X15943258Y-5456602D01*
X16023373Y-5432299D01*
X16148248Y-5420000D01*
X16231752Y-5420000D01*
X16356627Y-5432299D01*
X16356627Y-5432299D01*
G37*
G36*
X37200000Y-6400000D02*
G01*
X36150000Y-6400000D01*
X36150000Y-4200000D01*
X37200000Y-4200000D01*
X37200000Y-6400000D01*
X37200000Y-6400000D01*
G37*
G36*
X34250000Y-6400000D02*
G01*
X33200000Y-6400000D01*
X33200000Y-4200000D01*
X34250000Y-4200000D01*
X34250000Y-6400000D01*
X34250000Y-6400000D01*
G37*
G36*
X31596627Y-2892299D02*
G01*
X31676742Y-2916602D01*
X31756855Y-2940903D01*
X31756857Y-2940904D01*
X31904518Y-3019831D01*
X32033949Y-3126051D01*
X32140169Y-3255482D01*
X32219096Y-3403143D01*
X32267701Y-3563373D01*
X32284112Y-3730000D01*
X32267701Y-3896627D01*
X32219096Y-4056857D01*
X32140169Y-4204518D01*
X32033949Y-4333949D01*
X31904518Y-4440169D01*
X31756857Y-4519096D01*
X31756855Y-4519097D01*
X31676742Y-4543398D01*
X31596627Y-4567701D01*
X31471752Y-4580000D01*
X31388248Y-4580000D01*
X31263373Y-4567701D01*
X31183258Y-4543398D01*
X31103145Y-4519097D01*
X31103143Y-4519096D01*
X30955482Y-4440169D01*
X30826051Y-4333949D01*
X30719831Y-4204518D01*
X30640904Y-4056857D01*
X30592299Y-3896627D01*
X30575888Y-3730000D01*
X30592299Y-3563373D01*
X30640904Y-3403143D01*
X30719831Y-3255482D01*
X30826051Y-3126051D01*
X30955482Y-3019831D01*
X31103143Y-2940904D01*
X31103145Y-2940903D01*
X31183258Y-2916602D01*
X31263373Y-2892299D01*
X31388248Y-2880000D01*
X31471752Y-2880000D01*
X31596627Y-2892299D01*
X31596627Y-2892299D01*
G37*
G36*
X13816627Y-2892299D02*
G01*
X13896742Y-2916602D01*
X13976855Y-2940903D01*
X13976857Y-2940904D01*
X14124518Y-3019831D01*
X14253949Y-3126051D01*
X14360169Y-3255482D01*
X14439096Y-3403143D01*
X14487701Y-3563373D01*
X14504112Y-3730000D01*
X14487701Y-3896627D01*
X14439096Y-4056857D01*
X14360169Y-4204518D01*
X14253949Y-4333949D01*
X14124518Y-4440169D01*
X13976857Y-4519096D01*
X13976855Y-4519097D01*
X13896742Y-4543398D01*
X13816627Y-4567701D01*
X13691752Y-4580000D01*
X13608248Y-4580000D01*
X13483373Y-4567701D01*
X13403258Y-4543398D01*
X13323145Y-4519097D01*
X13323143Y-4519096D01*
X13175482Y-4440169D01*
X13046051Y-4333949D01*
X12939831Y-4204518D01*
X12860904Y-4056857D01*
X12812299Y-3896627D01*
X12795888Y-3730000D01*
X12812299Y-3563373D01*
X12860904Y-3403143D01*
X12939831Y-3255482D01*
X13046051Y-3126051D01*
X13175482Y-3019831D01*
X13323143Y-2940904D01*
X13323145Y-2940903D01*
X13403258Y-2916602D01*
X13483373Y-2892299D01*
X13608248Y-2880000D01*
X13691752Y-2880000D01*
X13816627Y-2892299D01*
X13816627Y-2892299D01*
G37*
G36*
X11276627Y-2892299D02*
G01*
X11356742Y-2916602D01*
X11436855Y-2940903D01*
X11436857Y-2940904D01*
X11584518Y-3019831D01*
X11713949Y-3126051D01*
X11820169Y-3255482D01*
X11899096Y-3403143D01*
X11947701Y-3563373D01*
X11964112Y-3730000D01*
X11947701Y-3896627D01*
X11899096Y-4056857D01*
X11820169Y-4204518D01*
X11713949Y-4333949D01*
X11584518Y-4440169D01*
X11436857Y-4519096D01*
X11436855Y-4519097D01*
X11356742Y-4543398D01*
X11276627Y-4567701D01*
X11151752Y-4580000D01*
X11068248Y-4580000D01*
X10943373Y-4567701D01*
X10863258Y-4543398D01*
X10783145Y-4519097D01*
X10783143Y-4519096D01*
X10635482Y-4440169D01*
X10506051Y-4333949D01*
X10399831Y-4204518D01*
X10320904Y-4056857D01*
X10272299Y-3896627D01*
X10255888Y-3730000D01*
X10272299Y-3563373D01*
X10320904Y-3403143D01*
X10399831Y-3255482D01*
X10506051Y-3126051D01*
X10635482Y-3019831D01*
X10783143Y-2940904D01*
X10783145Y-2940903D01*
X10863258Y-2916602D01*
X10943373Y-2892299D01*
X11068248Y-2880000D01*
X11151752Y-2880000D01*
X11276627Y-2892299D01*
X11276627Y-2892299D01*
G37*
G36*
X21436627Y-2892299D02*
G01*
X21516742Y-2916602D01*
X21596855Y-2940903D01*
X21596857Y-2940904D01*
X21744518Y-3019831D01*
X21873949Y-3126051D01*
X21980169Y-3255482D01*
X22059096Y-3403143D01*
X22107701Y-3563373D01*
X22124112Y-3730000D01*
X22107701Y-3896627D01*
X22059096Y-4056857D01*
X21980169Y-4204518D01*
X21873949Y-4333949D01*
X21744518Y-4440169D01*
X21596857Y-4519096D01*
X21596855Y-4519097D01*
X21516742Y-4543398D01*
X21436627Y-4567701D01*
X21311752Y-4580000D01*
X21228248Y-4580000D01*
X21103373Y-4567701D01*
X21023258Y-4543398D01*
X20943145Y-4519097D01*
X20943143Y-4519096D01*
X20795482Y-4440169D01*
X20666051Y-4333949D01*
X20559831Y-4204518D01*
X20480904Y-4056857D01*
X20432299Y-3896627D01*
X20415888Y-3730000D01*
X20432299Y-3563373D01*
X20480904Y-3403143D01*
X20559831Y-3255482D01*
X20666051Y-3126051D01*
X20795482Y-3019831D01*
X20943143Y-2940904D01*
X20943145Y-2940903D01*
X21023258Y-2916602D01*
X21103373Y-2892299D01*
X21228248Y-2880000D01*
X21311752Y-2880000D01*
X21436627Y-2892299D01*
X21436627Y-2892299D01*
G37*
G36*
X23976627Y-2892299D02*
G01*
X24056742Y-2916602D01*
X24136855Y-2940903D01*
X24136857Y-2940904D01*
X24284518Y-3019831D01*
X24413949Y-3126051D01*
X24520169Y-3255482D01*
X24599096Y-3403143D01*
X24647701Y-3563373D01*
X24664112Y-3730000D01*
X24647701Y-3896627D01*
X24599096Y-4056857D01*
X24520169Y-4204518D01*
X24413949Y-4333949D01*
X24284518Y-4440169D01*
X24136857Y-4519096D01*
X24136855Y-4519097D01*
X24056742Y-4543398D01*
X23976627Y-4567701D01*
X23851752Y-4580000D01*
X23768248Y-4580000D01*
X23643373Y-4567701D01*
X23563258Y-4543398D01*
X23483145Y-4519097D01*
X23483143Y-4519096D01*
X23335482Y-4440169D01*
X23206051Y-4333949D01*
X23099831Y-4204518D01*
X23020904Y-4056857D01*
X22972299Y-3896627D01*
X22955888Y-3730000D01*
X22972299Y-3563373D01*
X23020904Y-3403143D01*
X23099831Y-3255482D01*
X23206051Y-3126051D01*
X23335482Y-3019831D01*
X23483143Y-2940904D01*
X23483145Y-2940903D01*
X23563258Y-2916602D01*
X23643373Y-2892299D01*
X23768248Y-2880000D01*
X23851752Y-2880000D01*
X23976627Y-2892299D01*
X23976627Y-2892299D01*
G37*
G36*
X18896627Y-2892299D02*
G01*
X18976742Y-2916602D01*
X19056855Y-2940903D01*
X19056857Y-2940904D01*
X19204518Y-3019831D01*
X19333949Y-3126051D01*
X19440169Y-3255482D01*
X19519096Y-3403143D01*
X19567701Y-3563373D01*
X19584112Y-3730000D01*
X19567701Y-3896627D01*
X19519096Y-4056857D01*
X19440169Y-4204518D01*
X19333949Y-4333949D01*
X19204518Y-4440169D01*
X19056857Y-4519096D01*
X19056855Y-4519097D01*
X18976742Y-4543398D01*
X18896627Y-4567701D01*
X18771752Y-4580000D01*
X18688248Y-4580000D01*
X18563373Y-4567701D01*
X18483258Y-4543398D01*
X18403145Y-4519097D01*
X18403143Y-4519096D01*
X18255482Y-4440169D01*
X18126051Y-4333949D01*
X18019831Y-4204518D01*
X17940904Y-4056857D01*
X17892299Y-3896627D01*
X17875888Y-3730000D01*
X17892299Y-3563373D01*
X17940904Y-3403143D01*
X18019831Y-3255482D01*
X18126051Y-3126051D01*
X18255482Y-3019831D01*
X18403143Y-2940904D01*
X18403145Y-2940903D01*
X18483258Y-2916602D01*
X18563373Y-2892299D01*
X18688248Y-2880000D01*
X18771752Y-2880000D01*
X18896627Y-2892299D01*
X18896627Y-2892299D01*
G37*
G36*
X26516627Y-2892299D02*
G01*
X26596742Y-2916602D01*
X26676855Y-2940903D01*
X26676857Y-2940904D01*
X26824518Y-3019831D01*
X26953949Y-3126051D01*
X27060169Y-3255482D01*
X27139096Y-3403143D01*
X27187701Y-3563373D01*
X27204112Y-3730000D01*
X27187701Y-3896627D01*
X27139096Y-4056857D01*
X27060169Y-4204518D01*
X26953949Y-4333949D01*
X26824518Y-4440169D01*
X26676857Y-4519096D01*
X26676855Y-4519097D01*
X26596742Y-4543398D01*
X26516627Y-4567701D01*
X26391752Y-4580000D01*
X26308248Y-4580000D01*
X26183373Y-4567701D01*
X26103258Y-4543398D01*
X26023145Y-4519097D01*
X26023143Y-4519096D01*
X25875482Y-4440169D01*
X25746051Y-4333949D01*
X25639831Y-4204518D01*
X25560904Y-4056857D01*
X25512299Y-3896627D01*
X25495888Y-3730000D01*
X25512299Y-3563373D01*
X25560904Y-3403143D01*
X25639831Y-3255482D01*
X25746051Y-3126051D01*
X25875482Y-3019831D01*
X26023143Y-2940904D01*
X26023145Y-2940903D01*
X26103258Y-2916602D01*
X26183373Y-2892299D01*
X26308248Y-2880000D01*
X26391752Y-2880000D01*
X26516627Y-2892299D01*
X26516627Y-2892299D01*
G37*
G36*
X29056627Y-2892299D02*
G01*
X29136742Y-2916602D01*
X29216855Y-2940903D01*
X29216857Y-2940904D01*
X29364518Y-3019831D01*
X29493949Y-3126051D01*
X29600169Y-3255482D01*
X29679096Y-3403143D01*
X29727701Y-3563373D01*
X29744112Y-3730000D01*
X29727701Y-3896627D01*
X29679096Y-4056857D01*
X29600169Y-4204518D01*
X29493949Y-4333949D01*
X29364518Y-4440169D01*
X29216857Y-4519096D01*
X29216855Y-4519097D01*
X29136742Y-4543398D01*
X29056627Y-4567701D01*
X28931752Y-4580000D01*
X28848248Y-4580000D01*
X28723373Y-4567701D01*
X28643258Y-4543398D01*
X28563145Y-4519097D01*
X28563143Y-4519096D01*
X28415482Y-4440169D01*
X28286051Y-4333949D01*
X28179831Y-4204518D01*
X28100904Y-4056857D01*
X28052299Y-3896627D01*
X28035888Y-3730000D01*
X28052299Y-3563373D01*
X28100904Y-3403143D01*
X28179831Y-3255482D01*
X28286051Y-3126051D01*
X28415482Y-3019831D01*
X28563143Y-2940904D01*
X28563145Y-2940903D01*
X28643258Y-2916602D01*
X28723373Y-2892299D01*
X28848248Y-2880000D01*
X28931752Y-2880000D01*
X29056627Y-2892299D01*
X29056627Y-2892299D01*
G37*
G36*
X16356627Y-2892299D02*
G01*
X16436742Y-2916602D01*
X16516855Y-2940903D01*
X16516857Y-2940904D01*
X16664518Y-3019831D01*
X16793949Y-3126051D01*
X16900169Y-3255482D01*
X16979096Y-3403143D01*
X17027701Y-3563373D01*
X17044112Y-3730000D01*
X17027701Y-3896627D01*
X16979096Y-4056857D01*
X16900169Y-4204518D01*
X16793949Y-4333949D01*
X16664518Y-4440169D01*
X16516857Y-4519096D01*
X16516855Y-4519097D01*
X16436742Y-4543398D01*
X16356627Y-4567701D01*
X16231752Y-4580000D01*
X16148248Y-4580000D01*
X16023373Y-4567701D01*
X15943258Y-4543398D01*
X15863145Y-4519097D01*
X15863143Y-4519096D01*
X15715482Y-4440169D01*
X15586051Y-4333949D01*
X15479831Y-4204518D01*
X15400904Y-4056857D01*
X15352299Y-3896627D01*
X15335888Y-3730000D01*
X15352299Y-3563373D01*
X15400904Y-3403143D01*
X15479831Y-3255482D01*
X15586051Y-3126051D01*
X15715482Y-3019831D01*
X15863143Y-2940904D01*
X15863145Y-2940903D01*
X15943258Y-2916602D01*
X16023373Y-2892299D01*
X16148248Y-2880000D01*
X16231752Y-2880000D01*
X16356627Y-2892299D01*
X16356627Y-2892299D01*
G37*
G36*
X8736627Y-2892299D02*
G01*
X8816742Y-2916602D01*
X8896855Y-2940903D01*
X8896857Y-2940904D01*
X9044518Y-3019831D01*
X9173949Y-3126051D01*
X9280169Y-3255482D01*
X9359096Y-3403143D01*
X9407701Y-3563373D01*
X9424112Y-3730000D01*
X9407701Y-3896627D01*
X9359096Y-4056857D01*
X9280169Y-4204518D01*
X9173949Y-4333949D01*
X9044518Y-4440169D01*
X8896857Y-4519096D01*
X8896855Y-4519097D01*
X8816742Y-4543398D01*
X8736627Y-4567701D01*
X8611752Y-4580000D01*
X8528248Y-4580000D01*
X8403373Y-4567701D01*
X8323258Y-4543398D01*
X8243145Y-4519097D01*
X8243143Y-4519096D01*
X8095482Y-4440169D01*
X7966051Y-4333949D01*
X7859831Y-4204518D01*
X7780904Y-4056857D01*
X7732299Y-3896627D01*
X7715888Y-3730000D01*
X7732299Y-3563373D01*
X7780904Y-3403143D01*
X7859831Y-3255482D01*
X7966051Y-3126051D01*
X8095482Y-3019831D01*
X8243143Y-2940904D01*
X8243145Y-2940903D01*
X8323258Y-2916602D01*
X8403373Y-2892299D01*
X8528248Y-2880000D01*
X8611752Y-2880000D01*
X8736627Y-2892299D01*
X8736627Y-2892299D01*
G37*
G36*
X35700000Y-4300000D02*
G01*
X34700000Y-4300000D01*
X34700000Y-3300000D01*
X35700000Y-3300000D01*
X35700000Y-4300000D01*
X35700000Y-4300000D01*
G37*
M02*
